<svg xmlns="http://www.w3.org/2000/svg" viewBox="0 0 700 530" data-region="oceania"><style>.land{fill:#eef1ec;stroke:#94a3ae;stroke-width:.7;vector-effect:non-scaling-stroke}.river{fill:none;stroke:#8db8da;stroke-width:1.3;stroke-linecap:round;vector-effect:non-scaling-stroke}.grid{stroke:#d3dae1;stroke-width:.5}.grid-q{stroke:#9aa7b5;stroke-width:1.1;stroke-dasharray:6 4}.marker .hit{fill:#000;fill-opacity:0;pointer-events:all}.marker .dot{fill:#3a3a3c;stroke:#fff;stroke-width:1.2}.m-city .dot{fill:#1c1c1e}.m-river .dot{fill:#2f6690}.m-sea .dot{fill:#fff;stroke:#5aa0c6;stroke-width:2}.m-strait .dot{fill:#1a5276;stroke:#fff;stroke-width:1}.m-mountain .dot{fill:#8a5a2f;stroke:#fff;stroke-width:1}.m-lake .dot{fill:#7ec8e3}.m-island .dot{fill:#3f9142}.m-grid .dot{fill:#8e8e93;stroke:#fff;stroke-width:1}.m-land .dot{fill:#c9a878}</style><g id="grid"><line class="grid" x1="0.0" y1="0" x2="0.0" y2="530"/><line class="grid" x1="50.0" y1="0" x2="50.0" y2="530"/><line class="grid" x1="100.0" y1="0" x2="100.0" y2="530"/><line class="grid" x1="150.0" y1="0" x2="150.0" y2="530"/><line class="grid" x1="200.0" y1="0" x2="200.0" y2="530"/><line class="grid" x1="250.0" y1="0" x2="250.0" y2="530"/><line class="grid" x1="300.0" y1="0" x2="300.0" y2="530"/><line class="grid" x1="350.0" y1="0" x2="350.0" y2="530"/><line class="grid" x1="400.0" y1="0" x2="400.0" y2="530"/><line class="grid" x1="450.0" y1="0" x2="450.0" y2="530"/><line class="grid" x1="500.0" y1="0" x2="500.0" y2="530"/><line class="grid" x1="550.0" y1="0" x2="550.0" y2="530"/><line class="grid" x1="600.0" y1="0" x2="600.0" y2="530"/><line class="grid" x1="650.0" y1="0" x2="650.0" y2="530"/><line class="grid" x1="700.0" y1="0" x2="700.0" y2="530"/><line class="grid" x1="0" y1="500.0" x2="700" y2="500.0"/><line class="grid" x1="0" y1="450.0" x2="700" y2="450.0"/><line class="grid" x1="0" y1="400.0" x2="700" y2="400.0"/><line class="grid" x1="0" y1="350.0" x2="700" y2="350.0"/><line class="grid" x1="0" y1="300.0" x2="700" y2="300.0"/><line class="grid" x1="0" y1="250.0" x2="700" y2="250.0"/><line class="grid" x1="0" y1="200.0" x2="700" y2="200.0"/><line class="grid" x1="0" y1="150.0" x2="700" y2="150.0"/><line class="grid" x1="0" y1="100.0" x2="700" y2="100.0"/><line class="grid" x1="0" y1="50.0" x2="700" y2="50.0"/><line class="grid" x1="0" y1="0.0" x2="700" y2="0.0"/><line class="grid-q part-shape" data-part="あ" x1="300.0" y1="0" x2="300.0" y2="530"/><line class="grid-q part-shape" data-part="い" x1="0" y1="284.0" x2="700" y2="284.0"/><line class="grid-q part-shape" data-part="う" x1="100.0" y1="0" x2="100.0" y2="530"/><line class="grid-q part-shape" data-part="え" x1="0" y1="250.0" x2="700" y2="250.0"/></g><g id="land"><path class="land" fill-rule="evenodd" d="M373.6,484.0L373.1,485.0L371.0,484.3L372.8,482.8L373.6,484.0Z"/><path class="land" fill-rule="evenodd" d="M374.3,482.4L373.0,481.6L373.5,480.8L374.3,482.4Z"/><path class="land" fill-rule="evenodd" d="M381.0,477.1L380.3,477.1L380.7,475.9L381.7,476.5L381.0,477.1Z"/><path class="land part-shape" data-part="さ" fill-rule="evenodd" d="M350.4,457.9L352.8,457.7L363.2,461.6L367.2,460.8L368.5,461.7L368.6,460.6L369.9,459.9L374.5,460.0L376.2,458.4L378.7,458.7L379.7,457.8L382.2,458.5L382.9,459.5L383.4,472.2L382.9,472.5L381.8,470.6L382.1,469.7L380.2,472.6L379.1,476.6L379.8,481.6L377.9,482.2L376.5,480.2L378.0,479.3L375.7,478.5L374.5,480.3L373.0,477.9L373.5,479.3L372.5,482.2L370.0,481.6L370.8,482.8L368.7,486.1L365.5,485.1L360.4,485.5L359.9,483.8L362.1,483.2L358.7,482.9L354.9,479.3L352.0,472.3L354.7,474.9L355.2,473.5L353.3,471.5L352.3,472.0L352.4,470.2L347.7,463.9L346.5,459.8L347.2,456.7L350.4,457.9Z"/><path class="land" fill-rule="evenodd" d="M382.4,455.2L381.9,455.9L381.2,455.2L382.4,455.2Z"/><path class="land" fill-rule="evenodd" d="M347.8,455.1L347.5,455.9L347.1,454.9L347.8,454.3L347.8,455.1Z"/><path class="land" fill-rule="evenodd" d="M383.3,453.1L384.7,454.3L384.0,454.9L380.1,453.8L383.3,453.1Z"/><path class="land" fill-rule="evenodd" d="M380.0,447.6L383.0,449.9L383.1,451.7L381.1,452.6L377.7,448.7L380.0,447.6Z"/><path class="land" fill-rule="evenodd" d="M339.3,451.2L338.4,449.0L340.0,445.8L340.9,446.4L341.4,449.5L339.3,451.2Z"/><path class="land" fill-rule="evenodd" d="M353.1,434.9L353.6,435.6L351.3,435.3L353.1,434.9Z"/><path class="land" fill-rule="evenodd" d="M354.9,433.5L352.8,433.9L353.0,433.2L354.9,433.5Z"/><path class="land" fill-rule="evenodd" d="M276.0,407.4L279.3,407.3L281.2,408.5L276.7,409.0L274.5,410.7L272.1,409.8L267.6,410.3L265.4,408.9L266.4,407.5L273.3,405.9L275.8,406.2L276.0,407.4Z"/><path class="land" fill-rule="evenodd" d="M435.4,324.4L434.3,327.1L434.4,324.1L435.4,324.4Z"/><path class="land" fill-rule="evenodd" d="M434.4,323.2L433.7,321.4L434.3,320.3L434.4,323.2Z"/><path class="land" fill-rule="evenodd" d="M31.8,310.5L29.6,307.8L29.5,305.3L31.8,310.5Z"/><path class="land" fill-rule="evenodd" d="M430.8,307.5L429.8,305.5L430.4,301.9L432.3,300.1L431.4,298.1L432.6,297.3L433.5,300.6L430.8,307.5Z"/><path class="land" fill-rule="evenodd" d="M411.5,284.9L412.4,285.3L412.4,287.8L410.3,285.3L411.5,284.9Z"/><path class="land" fill-rule="evenodd" d="M405.2,273.2L404.9,272.1L405.2,273.2Z"/><path class="land" fill-rule="evenodd" d="M399.3,271.9L399.1,270.5L399.3,271.9Z"/><path class="land" fill-rule="evenodd" d="M54.5,257.9L53.2,258.5L54.3,256.7L54.5,257.9Z"/><path class="land" fill-rule="evenodd" d="M390.4,252.9L389.4,252.8L389.8,251.5L390.4,252.9Z"/><path class="land" fill-rule="evenodd" d="M389.4,251.5L389.7,250.4L389.4,251.5Z"/><path class="land" fill-rule="evenodd" d="M362.8,232.3L363.0,234.8L361.0,232.5L362.8,232.3Z"/><path class="land" fill-rule="evenodd" d="M294.6,221.1L294.9,219.9L295.7,220.9L294.6,221.1Z"/><path class="land" fill-rule="evenodd" d="M295.1,215.7L291.6,217.4L292.9,214.7L295.9,214.0L297.0,215.1L295.1,215.7Z"/><path class="land" fill-rule="evenodd" d="M270.9,207.8L269.4,207.1L270.1,205.9L270.9,207.8Z"/><path class="land" fill-rule="evenodd" d="M265.9,206.3L265.2,205.4L266.1,205.4L265.9,206.3Z"/><path class="land" fill-rule="evenodd" d="M268.6,206.2L268.8,205.0L268.6,206.2Z"/><path class="land" fill-rule="evenodd" d="M146.0,204.0L145.2,204.2L145.2,202.7L146.0,204.0Z"/><path class="land" fill-rule="evenodd" d="M152.0,195.8L150.9,195.9L151.6,194.6L152.0,195.8Z"/><path class="land" fill-rule="evenodd" d="M267.1,188.0L268.9,187.9L267.5,190.7L269.5,191.8L268.9,192.9L263.4,192.1L264.3,191.3L264.2,188.6L266.6,186.8L267.1,188.0Z"/><path class="land" fill-rule="evenodd" d="M262.4,188.2L261.2,188.2L262.2,186.6L262.4,188.2Z"/><path class="land" fill-rule="evenodd" d="M263.4,166.0L261.8,166.8L264.8,164.7L263.4,166.0Z"/><path class="land" fill-rule="evenodd" d="M204.6,166.8L206.1,168.2L200.4,167.9L200.7,166.8L202.0,166.6L201.5,164.8L202.9,163.4L204.6,166.8Z"/><path class="land" fill-rule="evenodd" d="M206.2,163.8L210.2,163.3L212.7,161.9L215.4,164.4L214.6,165.9L209.5,169.3L205.1,166.2L203.8,161.9L206.2,163.8Z"/><path class="land" fill-rule="evenodd" d="M266.0,163.8L265.3,164.4L267.8,160.1L266.0,163.8Z"/><path class="land" fill-rule="evenodd" d="M225.9,163.0L224.8,160.4L225.8,159.7L225.9,163.0Z"/><path class="land" fill-rule="evenodd" d="M331.8,169.5L331.1,173.0L334.0,176.4L335.9,184.4L335.5,187.4L337.6,193.5L339.6,194.6L344.7,192.3L346.5,194.9L352.9,199.4L352.7,204.8L354.6,210.6L354.3,214.1L357.5,218.8L359.1,219.1L361.3,226.4L360.3,232.7L363.3,235.5L363.0,238.4L363.8,239.8L371.4,243.9L374.2,243.8L377.4,247.7L387.6,252.9L388.8,254.8L387.3,254.7L386.8,255.8L392.0,261.3L394.5,265.8L397.0,274.4L398.2,273.9L399.7,275.5L399.4,273.1L400.2,271.7L405.4,275.6L406.2,273.7L407.6,275.8L408.4,284.6L411.5,287.8L418.3,291.2L421.3,296.0L424.6,298.0L426.5,302.0L429.1,304.3L429.2,306.9L431.6,309.6L430.8,313.0L431.2,321.9L435.8,332.4L436.2,336.7L436.0,338.5L433.5,342.9L432.7,348.9L430.3,355.6L429.4,364.3L425.6,370.5L424.7,374.4L421.4,376.8L421.6,377.6L418.1,379.0L414.3,385.2L412.9,385.8L412.8,389.3L411.2,390.1L412.3,390.3L408.7,395.0L408.0,400.1L405.7,402.1L402.0,408.3L399.6,418.5L399.3,425.3L394.8,427.7L382.6,428.3L378.8,429.3L368.6,436.6L362.2,437.3L363.4,438.9L364.7,438.4L364.8,440.7L364.0,441.5L361.6,438.7L359.4,439.0L357.9,436.7L354.0,435.4L355.4,433.9L354.8,432.4L352.9,432.4L349.6,435.0L347.2,433.4L349.1,433.4L351.2,430.9L348.9,429.0L344.0,431.4L346.7,432.1L335.4,438.2L324.6,433.9L317.2,432.7L315.9,433.9L314.2,433.6L310.1,430.8L306.3,430.3L303.9,429.0L297.8,422.5L297.4,420.6L298.6,416.6L297.3,413.7L294.7,410.1L289.7,405.8L291.8,405.2L292.9,406.1L292.8,403.8L285.2,406.4L281.8,406.1L285.1,400.2L284.9,397.6L280.9,391.7L276.9,401.4L268.8,402.4L270.1,399.2L273.9,399.1L274.9,391.6L279.3,385.8L278.5,382.0L279.9,380.9L277.8,375.8L277.9,378.2L274.4,381.9L272.4,386.3L264.3,390.3L258.9,396.6L259.7,399.8L257.9,398.6L256.5,399.4L253.2,396.4L251.2,395.9L252.2,394.9L254.5,395.8L252.2,389.6L248.9,386.3L247.2,382.6L243.0,381.7L241.0,377.5L242.3,377.3L242.3,375.5L236.7,372.1L232.1,371.8L227.6,369.6L222.1,370.1L217.2,367.0L211.4,365.0L207.8,366.0L189.5,367.0L173.2,372.6L159.2,373.0L147.6,378.8L142.4,380.2L138.7,386.0L135.1,389.2L132.1,389.9L127.8,388.9L121.5,389.9L120.6,388.7L114.1,388.3L98.5,389.7L96.4,391.0L94.5,393.7L89.0,394.8L81.4,399.9L78.6,400.5L65.2,399.9L59.9,398.0L55.7,394.3L50.1,392.6L49.9,385.2L51.8,386.4L53.6,386.4L55.2,385.3L56.8,381.9L56.2,376.7L57.3,374.0L57.0,366.9L50.8,355.6L48.6,341.4L41.7,330.8L40.3,323.5L31.8,311.8L33.2,312.4L33.6,310.8L35.8,315.6L37.3,316.0L38.4,315.0L38.5,313.3L35.9,311.0L34.0,307.1L34.5,306.0L37.1,308.3L37.2,311.3L38.5,310.1L39.9,313.2L40.9,313.9L42.2,312.9L42.1,308.5L34.2,294.4L34.9,288.7L37.6,284.2L38.0,279.1L36.8,276.4L40.2,268.8L41.2,268.3L41.4,274.8L43.8,273.4L47.1,268.2L54.6,264.9L60.1,260.3L67.1,256.5L74.1,257.2L82.0,253.8L87.5,252.6L91.0,250.0L95.9,250.4L104.3,248.4L110.0,246.0L113.4,243.2L118.3,234.8L123.5,231.1L121.5,225.5L122.6,221.4L127.2,217.9L129.7,214.4L135.6,225.2L135.9,220.3L138.3,221.2L138.7,219.2L134.9,214.9L136.3,214.2L136.1,212.2L137.3,211.9L138.6,213.8L140.4,212.6L143.0,213.9L147.7,214.0L144.0,213.0L144.2,211.3L145.8,211.1L146.5,208.7L146.5,208.1L145.0,209.7L143.8,207.6L144.4,204.9L145.6,205.0L146.9,202.7L150.6,204.4L150.7,203.1L149.1,203.1L148.4,201.6L150.4,200.0L153.6,201.2L153.8,200.2L152.4,199.4L151.8,197.1L152.8,195.8L155.8,194.8L156.3,192.6L157.0,192.9L156.6,195.3L158.2,194.7L158.9,196.2L160.2,194.9L161.1,191.1L160.5,189.8L161.8,190.0L162.6,191.6L164.0,190.2L165.7,191.6L167.8,189.6L167.8,187.9L169.0,187.4L174.6,190.3L182.0,197.5L180.7,203.3L181.6,202.3L182.5,203.0L181.8,200.4L185.8,197.7L190.6,198.8L192.2,201.6L192.7,198.7L194.6,199.3L196.3,201.4L196.4,198.5L198.5,198.3L196.0,196.5L197.0,195.6L193.8,193.9L197.1,189.8L198.4,185.7L202.6,183.0L201.3,181.5L201.7,179.6L203.2,178.8L204.0,176.9L206.2,176.5L206.2,174.3L208.7,175.6L208.7,173.7L210.2,173.4L210.2,172.1L212.2,171.8L212.9,170.7L214.4,172.8L220.6,172.8L222.5,171.9L224.1,173.0L225.1,171.3L227.1,171.2L226.3,170.4L226.7,166.5L224.8,164.9L221.3,165.0L218.2,163.0L219.6,161.8L221.6,163.1L223.3,162.2L226.8,165.1L229.6,164.1L231.9,167.1L239.0,168.3L244.2,170.5L247.3,169.8L250.3,171.9L252.2,172.2L259.2,168.3L257.0,172.1L260.1,171.9L260.8,174.2L262.6,174.3L263.3,173.1L262.7,171.3L265.4,169.6L266.1,171.3L269.0,172.4L269.5,173.5L265.4,177.8L265.9,180.0L264.6,182.3L262.9,181.4L259.3,183.0L259.5,189.3L258.8,191.5L254.1,197.6L254.5,199.2L262.1,204.0L262.9,205.7L267.0,206.9L267.8,208.9L270.0,208.8L277.0,212.3L282.5,217.2L290.1,219.0L292.5,223.3L300.4,227.0L305.1,226.2L308.3,224.1L314.1,210.7L316.3,200.6L315.2,194.7L315.9,191.5L314.7,188.0L316.5,182.6L316.1,179.4L319.3,177.4L318.5,175.8L316.8,174.9L316.9,173.5L318.7,169.8L319.6,170.5L321.7,159.5L324.6,157.1L326.1,157.5L325.5,158.7L327.8,161.2L328.7,168.2L331.8,169.5Z"/><path class="land" fill-rule="evenodd" d="M322.7,157.0L321.9,157.6L321.3,156.4L322.0,155.9L322.7,157.0Z"/><path class="land" fill-rule="evenodd" d="M323.4,151.9L322.0,152.0L323.4,151.9Z"/><path class="land" fill-rule="evenodd" d="M321.7,151.5L321.0,151.2L321.5,150.5L321.7,151.5Z"/><path class="land" fill-rule="evenodd" d="M50.3,1.0L51.7,1.3L53.2,6.3L51.1,6.1L50.3,1.0Z"/><path class="land" fill-rule="evenodd" d="M50.3,1.0L47.5,2.8L48.4,6.1L46.5,9.6L43.2,7.4L40.6,4.1L44.2,3.4L49.5,0.0L50.5,0.0L50.3,1.0Z"/><path class="land" fill-rule="evenodd" d="M684.9,239.7L679.6,241.2L683.3,239.3L684.9,239.7Z"/><path class="land" fill-rule="evenodd" d="M693.5,231.0L692.5,230.3L693.1,229.4L693.5,231.0Z"/><path class="land" fill-rule="evenodd" d="M688.3,227.3L687.9,226.2L688.3,227.3Z"/><path class="land" fill-rule="evenodd" d="M682.8,223.7L685.9,226.5L686.7,230.8L679.6,232.6L673.2,230.8L672.6,228.6L675.0,225.4L678.2,223.9L681.9,223.1L682.8,223.7Z"/><path class="land" fill-rule="evenodd" d="M694.2,223.7L693.7,222.6L694.2,223.7Z"/><path class="land" fill-rule="evenodd" d="M672.3,221.5L672.9,220.5L672.3,221.5Z"/><path class="land" fill-rule="evenodd" d="M700.0,219.6L699.0,219.6L700.0,217.9L700.0,219.6Z"/><path class="land" fill-rule="evenodd" d="M700.0,211.7L695.6,216.4L695.7,217.5L699.3,215.2L699.3,217.4L694.2,218.1L692.0,217.1L690.1,219.0L687.1,219.8L686.0,218.0L685.0,217.9L685.8,216.2L688.1,216.3L689.6,214.8L695.5,212.5L700.0,211.7Z"/><path class="land" fill-rule="evenodd" d="M671.2,175.1L670.1,174.9L671.2,175.1Z"/><path class="land" fill-rule="evenodd" d="M129.5,159.1L128.3,159.0L128.5,157.6L133.7,154.7L134.2,156.5L129.5,159.1Z"/><path class="land" fill-rule="evenodd" d="M118.8,155.9L117.0,155.6L120.0,154.5L118.8,155.9Z"/><path class="land" fill-rule="evenodd" d="M134.2,153.0L133.3,153.4L133.3,152.6L134.6,151.4L134.2,153.0Z"/><path class="land" fill-rule="evenodd" d="M100.1,143.7L102.9,146.5L105.6,147.2L107.8,149.6L108.0,151.1L104.4,152.9L102.6,152.4L96.0,147.7L90.9,147.1L89.6,145.2L93.0,143.7L98.0,143.8L99.4,143.0L100.1,143.7Z"/><path class="land" fill-rule="evenodd" d="M150.7,145.1L144.3,151.5L138.6,153.4L136.0,152.7L137.2,150.8L135.9,149.7L136.7,147.1L140.4,143.4L143.2,144.1L144.4,141.9L149.2,139.4L149.4,140.5L151.5,140.4L151.0,141.9L149.6,142.1L150.7,145.1Z"/><path class="land" fill-rule="evenodd" d="M56.1,137.7L54.8,137.2L55.6,136.7L56.1,137.7Z"/><path class="land" fill-rule="evenodd" d="M129.8,135.5L128.9,135.9L130.1,134.5L131.5,134.8L129.8,135.5Z"/><path class="land" fill-rule="evenodd" d="M94.6,137.4L93.9,137.4L94.5,134.3L95.6,135.2L94.6,137.4Z"/><path class="land" fill-rule="evenodd" d="M133.2,133.5L130.3,134.0L132.2,132.4L133.4,132.7L133.2,133.5Z"/><path class="land" fill-rule="evenodd" d="M66.4,136.1L65.1,138.2L65.9,138.9L62.4,139.1L58.6,137.9L60.8,137.4L60.6,134.4L64.0,132.0L67.2,133.4L66.4,136.1Z"/><path class="land" fill-rule="evenodd" d="M142.9,133.3L141.5,135.3L139.3,134.5L142.4,132.0L142.9,133.3Z"/><path class="land" fill-rule="evenodd" d="M139.2,132.7L137.8,133.0L135.5,135.7L132.3,135.3L134.8,133.2L133.9,132.8L137.8,131.9L139.2,132.7Z"/><path class="land" fill-rule="evenodd" d="M289.0,133.9L285.6,133.1L288.0,131.7L289.0,133.9Z"/><path class="land" fill-rule="evenodd" d="M75.6,133.7L74.9,131.8L76.7,131.5L75.6,133.7Z"/><path class="land" fill-rule="evenodd" d="M90.7,132.4L90.2,132.0L91.0,131.4L90.7,132.4Z"/><path class="land" fill-rule="evenodd" d="M145.8,131.4L150.5,131.8L151.3,133.3L143.8,134.2L144.3,131.8L145.8,131.4Z"/><path class="land" fill-rule="evenodd" d="M178.2,131.0L181.2,131.7L180.2,132.6L178.2,131.9L178.2,131.0Z"/><path class="land" fill-rule="evenodd" d="M127.8,136.1L116.5,139.0L114.1,138.1L113.3,139.2L110.4,139.4L105.5,138.0L101.2,137.8L99.1,138.6L98.1,137.0L98.7,134.2L106.1,132.4L114.4,135.8L119.7,134.6L123.2,136.3L128.5,133.0L129.2,132.2L127.6,131.9L129.2,131.1L130.1,133.3L127.8,136.1Z"/><path class="land" fill-rule="evenodd" d="M208.6,133.2L207.8,133.5L210.2,130.9L211.8,131.3L208.6,133.2Z"/><path class="land" fill-rule="evenodd" d="M82.4,133.2L86.1,132.8L87.1,134.1L89.3,133.0L91.3,136.7L87.5,137.4L88.3,138.3L84.8,138.6L83.8,136.7L81.9,138.4L70.6,141.0L67.9,140.1L68.4,135.3L71.6,133.7L75.7,134.3L78.1,137.1L79.7,137.3L82.3,135.9L78.1,133.4L77.6,131.5L81.2,131.2L82.4,133.2Z"/><path class="land" fill-rule="evenodd" d="M54.5,131.6L57.0,134.1L53.3,136.2L51.4,138.5L50.6,135.7L46.1,133.8L44.7,131.7L49.4,131.9L51.5,130.7L54.5,131.6Z"/><path class="land" fill-rule="evenodd" d="M198.4,129.5L197.1,130.4L195.9,129.2L196.1,128.0L198.1,128.2L198.4,129.5Z"/><path class="land" fill-rule="evenodd" d="M168.0,126.7L168.1,127.4L165.8,128.1L164.7,129.5L160.4,128.9L158.0,129.8L159.8,126.6L162.1,127.1L166.1,125.7L168.0,126.7Z"/><path class="land" fill-rule="evenodd" d="M174.2,126.2L173.6,126.5L173.7,125.1L174.8,125.3L174.2,126.2Z"/><path class="land" fill-rule="evenodd" d="M285.4,132.7L283.0,134.1L276.5,133.9L280.8,125.7L283.0,124.4L287.7,123.9L289.9,127.0L287.9,130.6L285.4,132.7Z"/><path class="land" fill-rule="evenodd" d="M213.3,130.0L211.1,130.0L211.4,126.8L216.4,121.1L217.4,122.0L216.4,122.7L216.2,126.3L213.3,130.0Z"/><path class="land" fill-rule="evenodd" d="M219.8,122.0L217.5,121.2L219.2,121.0L219.8,122.0Z"/><path class="land" fill-rule="evenodd" d="M44.1,121.3L43.0,121.0L44.1,121.3Z"/><path class="land" fill-rule="evenodd" d="M186.7,121.8L185.3,121.3L186.3,120.7L186.7,121.8Z"/><path class="land" fill-rule="evenodd" d="M107.7,121.2L106.4,121.2L106.3,120.2L107.7,121.2Z"/><path class="land" fill-rule="evenodd" d="M38.4,121.1L31.3,122.2L27.3,120.7L28.7,119.0L30.7,118.8L39.7,118.7L40.7,119.6L38.4,121.1Z"/><path class="land" fill-rule="evenodd" d="M53.8,119.7L52.2,119.5L52.4,118.6L54.1,118.4L55.5,119.4L53.8,119.7Z"/><path class="land" fill-rule="evenodd" d="M246.7,117.5L247.4,116.2L246.7,117.5Z"/><path class="land" fill-rule="evenodd" d="M247.2,115.5L246.3,114.8L247.2,115.5Z"/><path class="land" fill-rule="evenodd" d="M248.2,114.3L248.9,113.2L248.2,114.3Z"/><path class="land" fill-rule="evenodd" d="M245.4,114.4L243.2,118.5L242.0,119.1L240.9,118.3L241.1,114.7L241.9,114.6L241.1,111.9L245.4,114.4Z"/><path class="land" fill-rule="evenodd" d="M0.0,119.1L5.2,119.0L8.3,114.2L9.7,114.4L11.8,116.9L15.4,116.5L20.9,118.9L25.4,119.3L26.5,122.2L27.9,123.0L27.9,125.5L30.1,126.6L35.0,127.2L40.7,126.3L44.1,127.9L43.9,134.1L46.0,137.3L32.5,132.9L26.8,134.1L15.1,133.1L6.1,131.5L0.0,128.8Z"/><path class="land" fill-rule="evenodd" d="M140.5,109.7L139.8,108.8L140.5,109.7Z"/><path class="land" fill-rule="evenodd" d="M105.3,113.0L104.9,114.6L104.8,107.8L105.3,113.0Z"/><path class="land" fill-rule="evenodd" d="M27.2,108.1L25.9,108.0L26.9,107.3L27.2,108.1Z"/><path class="land" fill-rule="evenodd" d="M228.1,108.5L226.8,109.1L226.3,106.1L228.1,108.5Z"/><path class="land" fill-rule="evenodd" d="M247.5,107.1L247.1,113.0L244.4,113.3L241.5,110.6L243.0,110.1L243.4,108.3L242.1,107.1L243.4,107.1L245.7,104.3L247.5,107.1Z"/><path class="land" fill-rule="evenodd" d="M229.3,109.0L228.5,109.9L231.4,103.2L231.2,105.8L229.3,109.0Z"/><path class="land" fill-rule="evenodd" d="M136.3,102.7L135.8,103.7L135.4,102.7L136.3,102.7Z"/><path class="land" fill-rule="evenodd" d="M120.4,104.4L118.1,102.6L119.1,100.7L120.4,101.6L120.4,104.4Z"/><path class="land" fill-rule="evenodd" d="M126.5,102.7L125.6,103.9L122.8,103.2L124.0,100.7L123.7,97.7L127.0,96.2L127.6,99.3L126.1,101.4L126.5,102.7Z"/><path class="land" fill-rule="evenodd" d="M131.8,95.5L132.0,98.2L130.6,97.5L129.7,101.4L131.9,103.3L129.7,104.1L128.1,106.7L126.5,106.6L125.9,104.9L127.7,102.1L128.5,96.2L130.7,93.9L131.8,95.5Z"/><path class="land" fill-rule="evenodd" d="M235.7,92.5L236.2,93.0L233.2,91.1L235.7,92.5Z"/><path class="land" fill-rule="evenodd" d="M132.4,91.1L130.8,92.3L129.7,90.3L132.1,90.0L132.4,91.1Z"/><path class="land" fill-rule="evenodd" d="M185.6,85.9L183.9,86.4L184.5,85.1L185.6,85.9Z"/><path class="land" fill-rule="evenodd" d="M182.8,86.7L179.8,87.7L179.2,87.0L183.3,85.2L182.8,86.7Z"/><path class="land" fill-rule="evenodd" d="M187.2,85.5L186.2,85.9L185.9,85.1L187.2,85.5Z"/><path class="land" fill-rule="evenodd" d="M64.2,84.6L63.9,86.4L63.3,85.4L64.3,84.0L64.2,84.6Z"/><path class="land" fill-rule="evenodd" d="M176.1,83.2L174.9,82.9L176.1,83.2Z"/><path class="land" fill-rule="evenodd" d="M63.0,88.7L60.6,90.1L60.6,84.6L62.7,82.5L63.0,88.7Z"/><path class="land" fill-rule="evenodd" d="M168.6,80.9L172.3,83.9L172.3,86.3L166.9,88.2L162.1,86.1L160.6,84.2L160.9,81.1L168.6,80.9Z"/><path class="land" fill-rule="evenodd" d="M179.9,79.4L178.3,80.0L179.9,79.4Z"/><path class="land" fill-rule="evenodd" d="M197.5,78.7L199.8,79.8L203.8,79.9L205.7,81.3L208.6,85.7L208.1,88.6L198.4,83.3L195.1,83.3L194.7,84.5L188.6,82.3L185.2,84.5L181.3,81.6L179.0,85.0L178.8,82.2L182.0,78.7L189.9,78.3L191.7,79.3L194.8,77.9L197.5,78.7Z"/><path class="land" fill-rule="evenodd" d="M243.7,71.2L243.7,70.3L243.7,71.2Z"/><path class="land" fill-rule="evenodd" d="M160.6,74.5L158.6,70.8L159.2,69.7L160.6,74.5Z"/><path class="land" fill-rule="evenodd" d="M138.5,69.6L137.8,68.8L138.5,69.6Z"/><path class="land" fill-rule="evenodd" d="M160.2,67.9L163.3,68.2L154.8,69.4L153.9,68.4L160.2,67.9Z"/><path class="land" fill-rule="evenodd" d="M131.5,68.2L130.8,69.0L131.5,68.2Z"/><path class="land" fill-rule="evenodd" d="M203.5,66.9L204.2,69.7L202.5,70.5L198.9,69.9L197.4,68.7L203.5,66.9Z"/><path class="land" fill-rule="evenodd" d="M149.7,67.1L151.9,67.1L153.1,68.8L144.2,70.1L143.3,68.6L144.2,66.6L149.7,67.1Z"/><path class="land" fill-rule="evenodd" d="M254.7,65.9L268.9,68.0L262.3,68.9L254.9,66.7L254.7,65.9Z"/><path class="land" fill-rule="evenodd" d="M136.0,67.0L134.8,66.8L135.3,65.0L136.0,67.0Z"/><path class="land" fill-rule="evenodd" d="M181.5,66.6L175.6,67.3L174.0,65.9L176.5,63.3L181.5,66.6Z"/><path class="land" fill-rule="evenodd" d="M132.1,61.7L132.4,63.9L134.3,62.4L135.5,63.4L135.1,64.5L133.7,65.1L132.7,64.4L131.7,66.2L131.5,63.0L128.9,65.9L128.1,64.3L129.1,61.8L132.1,61.7Z"/><path class="land" fill-rule="evenodd" d="M249.7,61.2L248.6,61.1L248.3,59.8L250.0,60.3L249.7,61.2Z"/><path class="land" fill-rule="evenodd" d="M210.0,63.2L207.8,62.6L206.7,59.6L210.3,59.2L210.0,63.2Z"/><path class="land" fill-rule="evenodd" d="M209.1,57.8L208.3,58.6L204.0,59.2L204.8,58.3L209.1,57.8Z"/><path class="land" fill-rule="evenodd" d="M253.8,56.5L258.9,57.3L263.8,60.9L261.6,62.1L259.2,61.8L257.5,58.2L256.5,58.8L253.8,56.5Z"/><path class="land" fill-rule="evenodd" d="M173.0,57.8L171.6,57.6L172.1,56.2L173.0,57.8Z"/><path class="land" fill-rule="evenodd" d="M206.3,55.3L204.7,54.9L206.2,54.2L206.8,54.7L206.3,55.3Z"/><path class="land" fill-rule="evenodd" d="M118.6,54.1L118.8,55.0L116.6,55.3L118.6,54.1Z"/><path class="land" fill-rule="evenodd" d="M309.7,76.1L309.7,113.5L308.6,117.4L309.8,119.1L309.8,141.2L300.0,132.0L301.2,129.2L299.3,131.0L293.9,131.9L292.5,129.8L288.9,132.4L290.9,125.9L287.5,122.5L291.8,121.9L288.5,121.4L286.0,119.4L288.6,118.6L284.4,113.4L283.0,109.5L283.7,108.4L282.0,108.1L283.4,106.8L280.9,107.1L280.6,104.7L272.8,99.5L272.0,99.9L266.2,98.2L259.8,95.3L252.0,94.5L246.8,90.8L247.1,89.5L248.9,89.4L242.7,89.5L241.5,88.0L239.7,88.2L236.8,84.8L237.0,82.5L238.4,80.5L237.0,80.9L236.5,83.6L235.2,84.1L234.0,89.0L232.5,90.6L229.1,90.6L227.5,87.0L228.7,85.5L227.5,82.9L223.5,79.8L220.5,79.1L219.7,77.9L222.3,76.8L227.2,77.9L231.9,74.4L237.0,76.2L237.5,74.5L239.0,73.9L239.0,73.0L237.9,72.9L239.2,71.0L229.6,72.7L223.1,72.4L220.2,69.9L219.3,65.6L212.9,63.9L210.0,64.2L211.9,61.7L212.6,58.6L218.0,57.0L223.9,53.6L228.6,54.2L234.7,57.3L239.7,57.4L241.1,58.5L240.7,60.0L242.6,63.6L241.1,67.2L241.9,73.1L244.6,78.3L244.8,75.8L246.3,75.4L247.0,79.3L248.4,79.1L248.9,82.1L252.5,83.7L254.9,83.5L258.6,80.0L260.1,77.3L262.4,75.8L263.9,72.7L270.7,71.1L271.7,70.3L271.2,68.4L278.1,64.8L297.9,73.5L306.2,74.5L307.5,76.1L309.7,76.1Z"/><path class="land" fill-rule="evenodd" d="M175.7,53.2L176.8,54.7L176.0,56.1L178.8,58.1L177.6,58.8L176.2,57.7L174.6,58.1L174.7,56.4L173.0,55.0L173.3,53.4L174.6,54.1L175.7,53.2Z"/><path class="land" fill-rule="evenodd" d="M172.5,55.0L171.2,55.2L171.3,52.8L172.9,52.8L172.5,55.0Z"/><path class="land" fill-rule="evenodd" d="M208.1,50.0L212.8,51.5L213.4,52.9L210.1,53.6L206.2,50.9L209.0,53.4L207.5,54.4L206.9,53.0L205.5,53.7L205.0,52.7L202.4,52.1L203.6,50.7L208.1,50.0Z"/><path class="land" fill-rule="evenodd" d="M195.5,51.9L193.1,49.5L195.5,51.9Z"/><path class="land" fill-rule="evenodd" d="M174.5,50.1L174.3,48.6L174.5,50.1Z"/><path class="land" fill-rule="evenodd" d="M174.2,43.6L173.8,42.6L174.2,43.6Z"/><path class="land" fill-rule="evenodd" d="M173.7,42.1L172.9,41.6L173.7,42.1Z"/><path class="land" fill-rule="evenodd" d="M148.9,40.0L144.3,45.3L137.5,46.9L132.7,46.7L130.0,45.1L110.1,45.6L105.8,44.7L103.5,45.5L101.9,47.3L100.1,52.0L100.6,55.6L102.4,58.7L105.2,60.4L106.7,63.7L111.5,63.4L115.8,58.3L119.7,59.3L122.8,57.6L128.9,57.6L128.3,56.6L131.7,55.7L133.8,56.5L134.3,57.8L133.8,60.0L129.0,59.0L122.5,65.6L118.6,66.9L116.5,69.0L113.6,68.8L115.8,71.5L117.7,72.4L120.8,77.5L122.9,79.1L124.0,82.0L122.5,86.2L126.9,90.8L128.5,90.6L128.7,93.9L127.2,93.4L127.2,94.1L121.1,95.4L120.4,98.3L115.9,97.6L114.9,95.8L116.2,90.9L108.9,85.2L110.5,81.7L110.5,77.5L108.8,76.5L106.5,76.7L102.6,79.5L104.4,87.1L103.6,90.9L104.2,96.2L102.8,101.5L104.3,105.9L99.5,105.8L97.2,106.9L95.6,106.1L93.6,103.1L95.9,95.2L96.2,90.3L94.7,85.1L89.9,85.4L88.7,84.0L87.8,77.2L90.9,74.8L93.2,69.3L93.1,64.1L95.1,59.1L97.1,56.8L98.4,58.6L97.2,50.9L98.7,49.6L98.1,47.6L99.1,45.5L102.7,40.3L104.2,41.5L106.0,41.5L108.7,37.5L110.8,36.7L114.0,37.6L115.9,39.3L124.4,39.8L128.4,41.5L130.7,40.6L139.3,41.5L145.3,37.7L146.0,36.1L149.5,33.3L151.1,33.1L152.3,35.0L148.9,40.0Z"/><path class="land" fill-rule="evenodd" d="M177.3,41.5L178.8,41.7L179.7,39.6L181.6,38.4L182.2,36.0L186.9,34.3L187.0,38.9L183.0,41.2L182.6,42.7L186.1,44.5L186.9,46.4L189.0,47.8L179.8,45.3L178.9,47.0L179.8,52.5L184.3,58.9L180.5,57.1L176.9,52.4L177.1,47.1L175.4,43.9L176.1,41.5L174.3,38.6L176.3,31.6L180.4,28.0L178.9,31.7L180.1,33.0L180.1,36.7L176.5,39.9L177.3,41.5Z"/><path class="land" fill-rule="evenodd" d="M184.5,29.5L183.0,29.7L182.2,27.0L183.3,25.3L186.0,24.0L186.9,25.3L186.2,27.8L184.5,29.5Z"/><path class="land" fill-rule="evenodd" d="M154.1,23.5L153.9,21.9L154.1,23.5Z"/><path class="land" fill-rule="evenodd" d="M76.6,17.2L75.5,15.7L76.8,15.9L76.6,17.2Z"/><path class="land" fill-rule="evenodd" d="M156.6,15.6L155.1,15.4L154.7,12.7L156.6,15.6Z"/><path class="land" fill-rule="evenodd" d="M168.5,12.3L167.8,11.6L168.5,12.3Z"/><path class="land" fill-rule="evenodd" d="M167.2,11.3L166.4,9.6L167.2,11.3Z"/><path class="land" fill-rule="evenodd" d="M78.8,8.1L79.2,9.5L77.4,10.0L76.3,8.8L78.8,8.1Z"/><path class="land" fill-rule="evenodd" d="M75.7,8.3L74.7,9.2L77.8,13.1L76.3,13.6L75.1,12.7L74.5,13.7L70.6,13.8L73.5,15.7L73.5,18.1L76.1,19.4L75.7,20.7L77.0,21.1L76.4,21.7L77.9,22.5L80.7,26.8L77.9,29.7L89.8,40.2L85.3,41.9L82.0,41.3L79.1,39.0L79.6,41.1L77.5,42.7L75.2,47.6L74.6,53.2L75.6,57.7L69.1,62.2L67.4,60.4L67.5,63.3L62.8,67.8L64.2,67.8L64.2,70.5L63.1,71.4L65.3,72.1L65.5,74.1L65.3,75.1L63.2,75.5L63.3,79.0L61.5,79.8L62.6,81.3L59.6,86.0L46.9,91.7L45.3,83.8L44.5,84.8L43.4,84.4L43.4,82.4L42.4,83.6L40.8,82.8L37.1,84.6L36.1,82.0L33.4,82.5L30.3,79.3L29.7,81.9L27.6,83.2L26.0,84.0L22.8,83.2L18.6,85.5L18.2,80.6L16.9,78.9L16.3,79.8L13.7,79.3L9.3,80.7L8.3,80.0L9.0,79.1L7.0,80.2L5.7,78.9L2.6,79.7L1.0,70.0L0.0,68.9L0.0,37.3L5.1,41.4L11.0,39.5L18.1,39.9L20.8,38.6L21.9,35.6L24.8,34.4L29.4,34.3L30.1,35.7L36.2,37.6L39.0,35.7L45.1,35.5L48.3,30.2L47.9,27.5L51.8,24.8L50.8,23.7L51.2,21.1L52.5,19.7L54.5,19.7L56.8,8.1L58.6,6.5L60.2,7.1L65.1,6.3L71.0,6.6L75.7,8.3Z"/><path class="land" fill-rule="evenodd" d="M168.2,9.7L167.0,9.3L168.1,7.4L167.2,6.6L167.6,4.5L169.2,7.1L168.2,9.7Z"/><path class="land" fill-rule="evenodd" d="M647.7,62.1L647.2,61.3L647.7,62.1Z"/><path class="land" fill-rule="evenodd" d="M645.1,58.0L643.8,55.9L645.1,58.0Z"/><path class="land" fill-rule="evenodd" d="M630.3,39.9L630.9,40.3L629.9,41.6L630.3,39.9Z"/><path class="land" fill-rule="evenodd" d="M630.4,36.6L631.7,36.2L630.4,36.6Z"/><path class="land" fill-rule="evenodd" d="M630.3,32.8L630.2,31.9L630.3,32.8Z"/><path class="land" fill-rule="evenodd" d="M630.2,31.5L629.3,30.6L630.2,31.5Z"/><path class="land" fill-rule="evenodd" d="M628.4,19.5L627.5,19.7L628.4,19.5Z"/><path class="land" fill-rule="evenodd" d="M629.7,18.7L628.9,19.0L629.7,18.7Z"/><path class="land" fill-rule="evenodd" d="M50.3,1.0L51.1,6.1L52.5,6.5L53.3,6.2L51.4,1.0L54.6,0.0L88.2,0.0L82.6,0.1L81.9,1.7L85.9,5.9L80.1,7.5L77.0,6.6L75.4,8.3L71.0,6.6L58.4,6.7L55.7,10.6L54.5,19.7L52.5,19.7L51.2,21.1L50.8,23.7L51.8,24.8L47.9,27.5L48.3,30.2L45.1,35.5L39.0,35.7L36.2,37.6L30.1,35.7L29.4,34.3L24.8,34.4L21.9,35.6L20.8,38.6L18.1,39.9L11.0,39.5L5.1,41.4L0.0,37.3L0.0,32.8L3.5,32.8L12.2,36.0L10.3,34.4L12.7,28.6L12.1,26.2L14.4,26.2L15.1,22.6L29.9,18.4L39.2,7.6L40.5,4.1L46.5,9.6L48.4,6.1L47.5,2.8L50.3,1.0Z"/><path class="land" fill-rule="evenodd" d="M78.8,8.1L76.5,8.3L77.1,7.4L78.8,8.1Z"/><path class="land" fill-rule="evenodd" d="M13.9,25.8L13.1,25.6L13.3,22.3L13.9,25.8Z"/><path class="land" fill-rule="evenodd" d="M575.4,276.2L574.4,276.4L574.4,275.4L575.4,276.2Z"/><path class="land" fill-rule="evenodd" d="M580.1,264.3L581.4,264.5L581.2,266.2L579.7,266.4L578.2,263.9L579.9,263.4L580.1,264.3Z"/><path class="land" fill-rule="evenodd" d="M574.0,261.6L570.7,260.0L570.3,259.2L571.9,258.0L570.6,257.2L573.0,257.3L574.0,261.6Z"/><path class="land" fill-rule="evenodd" d="M565.5,257.0L566.2,254.2L565.5,257.0Z"/><path class="land part-shape" data-part="た" fill-rule="evenodd" d="M542.0,252.5L544.4,252.8L551.9,257.7L556.6,262.7L569.4,270.9L569.7,273.2L567.7,273.8L564.7,272.6L549.3,262.9L543.7,257.4L540.4,251.7L542.0,252.5Z"/><path class="land" fill-rule="evenodd" d="M499.5,243.1L499.6,241.1L499.5,243.1Z"/><path class="land" fill-rule="evenodd" d="M579.4,340.2L579.6,341.0L579.4,340.2Z"/><path class="land" fill-rule="evenodd" d="M581.4,518.6L580.4,519.3L582.4,519.8L582.4,520.7L575.2,522.6L578.0,519.1L577.8,517.0L579.6,516.9L581.4,518.6Z"/><path class="land" fill-rule="evenodd" d="M567.5,506.6L567.3,507.3L565.3,507.0L567.5,506.6Z"/><path class="land" fill-rule="evenodd" d="M569.8,501.8L570.2,503.0L568.9,502.4L569.8,501.8Z"/><path class="land" fill-rule="evenodd" d="M639.1,458.6L637.8,459.2L638.1,457.9L639.6,457.1L639.1,458.6Z"/><path class="land part-shape" data-part="せ" fill-rule="evenodd" d="M631.2,462.8L639.5,459.2L638.0,462.7L640.2,460.7L640.0,459.9L643.0,460.2L640.4,462.4L643.7,461.0L640.7,464.3L641.6,465.6L640.8,466.7L642.8,467.4L642.2,468.5L635.5,475.2L632.2,479.8L626.2,482.7L627.3,483.5L625.3,484.6L626.9,484.4L628.1,486.2L630.7,486.8L630.9,488.4L625.0,488.4L625.8,487.7L624.8,487.3L623.0,488.7L620.4,487.0L621.8,489.0L612.4,492.6L613.1,493.0L611.5,499.1L610.0,499.1L611.1,500.4L607.0,506.8L607.8,508.7L603.4,509.9L596.9,515.5L591.0,516.3L583.8,516.1L581.9,513.6L578.4,513.7L575.4,511.5L573.7,512.4L568.3,512.3L567.1,511.3L569.2,509.6L567.3,510.5L566.5,510.4L567.2,508.9L564.9,509.6L565.1,508.1L570.0,507.1L568.0,506.5L569.9,505.3L567.3,505.4L567.8,504.1L569.2,504.1L568.7,503.1L571.6,504.1L571.2,503.2L572.3,502.9L570.3,502.2L570.3,501.2L572.6,500.8L571.7,500.0L574.1,498.3L574.7,499.6L574.8,497.7L577.9,496.0L579.1,496.6L578.6,495.0L583.7,490.8L590.7,488.6L591.8,489.1L591.7,487.8L598.3,485.4L598.6,484.3L602.4,481.6L604.0,481.8L603.0,481.1L604.6,480.4L606.1,480.9L605.2,480.1L606.7,479.6L607.4,480.3L609.7,477.2L610.4,478.6L610.3,477.0L613.1,474.6L612.5,474.0L614.9,467.9L619.5,465.4L622.7,457.6L626.4,455.2L629.4,455.2L627.3,455.4L627.0,456.7L629.9,458.5L631.2,462.8Z"/><path class="land" fill-rule="evenodd" d="M655.4,412.8L653.5,412.2L653.9,410.8L655.4,412.8Z"/><path class="land part-shape" data-part="す" fill-rule="evenodd" d="M632.7,399.3L634.5,398.4L634.7,399.5L641.0,401.4L641.4,403.0L643.2,402.5L645.8,407.9L644.0,408.0L648.0,413.1L647.5,414.9L648.2,416.1L647.2,418.4L653.0,419.9L653.9,422.1L655.4,422.0L654.9,416.9L653.9,415.6L654.6,414.8L656.8,417.5L657.7,417.4L661.1,426.5L672.7,429.9L675.6,429.0L680.1,425.5L685.4,426.9L682.7,435.5L679.8,437.2L679.1,442.4L677.9,441.1L675.2,440.7L670.8,442.2L669.4,445.6L671.1,446.7L668.4,451.6L659.8,462.1L653.1,466.1L651.7,464.2L648.8,464.2L648.7,462.2L647.6,463.3L646.4,462.9L651.6,456.2L652.5,452.9L651.6,451.1L650.1,449.5L639.3,445.1L637.6,443.2L638.4,441.4L644.0,439.6L646.0,437.9L648.4,430.2L648.0,429.0L649.3,428.0L645.9,421.0L647.3,422.2L649.3,420.8L647.8,419.4L644.8,419.4L641.9,414.9L644.0,416.0L643.9,412.4L640.4,411.2L639.1,409.1L641.7,413.3L640.5,413.6L634.1,405.4L636.3,403.2L633.8,405.0L633.1,404.4L631.2,402.1L631.9,400.2L627.1,394.6L630.4,394.3L629.6,395.4L632.7,399.3Z"/><path class="land" fill-rule="evenodd" d="M309.8,141.2L309.8,119.1L308.6,117.4L309.7,113.5L309.7,76.1L329.1,83.2L335.1,84.3L340.7,88.1L344.8,88.3L350.9,93.5L353.3,93.9L357.7,98.2L357.5,104.0L375.7,110.6L378.0,113.2L378.5,116.6L371.2,117.2L369.5,118.3L371.9,123.8L377.2,128.8L381.3,131.0L382.5,135.5L384.5,136.9L385.8,140.5L392.0,140.3L392.6,145.0L400.1,146.9L397.6,148.1L398.7,150.1L403.6,151.9L408.5,152.4L406.4,153.4L404.5,153.1L406.5,155.2L403.2,156.5L400.2,155.8L397.5,153.5L377.7,150.7L370.2,143.9L369.3,142.5L369.6,140.6L368.6,140.9L366.3,139.5L360.3,130.8L349.7,128.0L348.6,126.3L345.1,125.7L344.3,126.8L341.4,127.6L336.5,124.6L339.4,129.4L338.4,129.4L338.3,130.3L335.2,130.0L336.1,132.0L325.2,133.2L323.5,131.7L322.1,132.0L323.3,132.0L324.7,133.7L328.0,133.5L331.1,134.7L333.8,137.6L333.7,139.6L326.5,143.3L322.3,141.7L311.3,142.2L309.8,141.2Z"/><path class="land" fill-rule="evenodd" d="M435.4,164.8L437.6,165.9L435.5,166.3L432.9,165.2L432.0,163.2L435.4,164.8Z"/><path class="land" fill-rule="evenodd" d="M442.8,163.6L441.2,164.3L440.2,163.5L442.8,163.6Z"/><path class="land" fill-rule="evenodd" d="M409.0,155.7L408.8,156.4L407.9,156.0L409.0,155.7Z"/><path class="land" fill-rule="evenodd" d="M410.8,150.2L413.0,149.6L412.3,151.9L409.6,150.9L407.8,147.1L410.8,150.2Z"/><path class="land" fill-rule="evenodd" d="M405.3,143.5L407.9,144.2L408.9,146.7L404.4,146.2L405.1,145.4L404.4,143.6L405.3,143.5Z"/><path class="land" fill-rule="evenodd" d="M403.5,144.9L401.1,143.6L402.1,142.1L403.2,142.6L403.5,144.9Z"/><path class="land" fill-rule="evenodd" d="M426.3,139.6L429.5,140.7L429.7,142.1L427.2,141.7L425.2,140.1L426.3,139.6Z"/><path class="land" fill-rule="evenodd" d="M335.9,136.3L332.1,134.2L335.9,136.3Z"/><path class="land" fill-rule="evenodd" d="M411.1,137.3L411.2,138.0L410.0,135.2L411.2,134.2L411.1,137.3Z"/><path class="land" fill-rule="evenodd" d="M335.9,134.8L333.2,133.7L335.8,133.9L335.9,134.8Z"/><path class="land" fill-rule="evenodd" d="M380.3,108.3L377.8,106.3L377.9,104.9L380.5,106.1L380.3,108.3Z"/><path class="land" fill-rule="evenodd" d="M459.6,116.9L459.1,118.0L457.2,118.6L453.4,117.2L452.1,115.3L452.0,113.1L447.6,109.3L447.3,104.4L450.9,106.2L454.7,111.5L458.2,113.8L459.6,116.9Z"/><path class="land" fill-rule="evenodd" d="M371.8,104.3L370.1,103.1L371.3,101.9L372.1,102.5L371.8,104.3Z"/><path class="land" fill-rule="evenodd" d="M446.5,104.3L445.4,101.1L446.3,100.1L447.3,102.2L446.5,104.3Z"/><path class="land" fill-rule="evenodd" d="M360.2,97.3L358.8,96.7L360.0,95.4L360.2,97.3Z"/><path class="land" fill-rule="evenodd" d="M419.2,93.0L421.2,92.1L424.1,93.4L423.5,98.2L419.8,100.7L421.4,103.6L420.8,104.6L418.7,105.6L415.2,105.5L412.3,109.2L404.7,112.6L396.5,112.9L393.8,110.8L391.0,111.2L383.4,106.7L384.3,104.7L393.6,105.8L398.3,105.2L399.6,104.5L400.9,100.1L401.7,100.7L400.7,103.1L401.8,105.2L409.0,104.5L413.3,99.6L416.7,98.8L415.9,92.0L419.2,93.0Z"/><path class="land" fill-rule="evenodd" d="M436.6,91.0L435.9,91.0L436.6,91.0Z"/><path class="land" fill-rule="evenodd" d="M426.7,81.3L426.5,82.2L425.4,81.0L426.4,80.4L426.7,81.3Z"/><path class="land" fill-rule="evenodd" d="M421.0,79.5L420.6,79.9L419.5,78.7L421.0,79.5Z"/><path class="land" fill-rule="evenodd" d="M419.6,78.3L419.5,77.1L419.6,78.3Z"/><path class="land" fill-rule="evenodd" d="M429.7,97.6L428.9,98.3L427.4,96.4L426.7,91.3L422.8,85.8L410.7,78.3L407.5,77.4L408.3,77.1L408.3,75.7L412.3,78.7L420.3,82.5L430.2,91.1L431.3,93.5L429.7,97.6Z"/><path class="land" fill-rule="evenodd" d="M404.4,76.6L401.7,76.6L399.6,74.7L402.3,73.8L404.3,74.7L404.4,76.6Z"/><path class="land" fill-rule="evenodd" d="M378.8,72.8L377.4,73.2L378.8,72.8Z"/><path class="land" fill-rule="evenodd" d="M370.7,69.6L374.4,70.6L372.1,71.8L365.5,72.1L366.6,69.7L370.7,69.6Z"/><path class="land" fill-rule="evenodd" d="M397.7,65.5L395.5,64.7L395.8,63.5L397.7,65.5Z"/><path class="land" fill-rule="evenodd" d="M569.3,166.7L567.5,165.9L569.3,166.7Z"/><path class="land" fill-rule="evenodd" d="M505.8,168.0L504.4,168.1L499.9,164.9L505.8,168.0Z"/><path class="land" fill-rule="evenodd" d="M561.3,157.6L559.0,158.5L557.9,157.8L560.2,156.6L561.6,156.9L561.3,157.6Z"/><path class="land" fill-rule="evenodd" d="M517.2,153.9L521.1,154.5L523.7,158.2L517.9,157.2L515.4,155.7L514.9,153.6L512.9,153.3L513.0,152.0L517.2,153.9Z"/><path class="land" fill-rule="evenodd" d="M515.5,146.3L515.5,147.7L514.1,146.8L513.6,143.5L515.5,146.3Z"/><path class="land" fill-rule="evenodd" d="M497.5,142.7L499.7,144.3L503.5,144.2L506.3,145.9L508.2,148.6L506.5,149.3L498.0,147.6L496.1,144.7L496.3,143.1L497.5,142.7Z"/><path class="land" fill-rule="evenodd" d="M501.7,140.0L504.1,141.4L501.1,140.8L501.7,140.0Z"/><path class="land" fill-rule="evenodd" d="M491.9,141.2L490.4,140.8L491.3,139.9L492.3,140.3L491.9,141.2Z"/><path class="land" fill-rule="evenodd" d="M476.5,137.6L474.5,137.1L476.5,137.6Z"/><path class="land" fill-rule="evenodd" d="M482.0,138.2L482.1,136.8L482.0,138.2Z"/><path class="land" fill-rule="evenodd" d="M481.1,136.8L479.4,137.4L479.1,135.7L481.1,135.4L481.1,136.8Z"/><path class="land" fill-rule="evenodd" d="M473.9,137.1L472.1,135.7L473.8,134.2L473.9,137.1Z"/><path class="land" fill-rule="evenodd" d="M496.9,135.1L495.5,134.0L496.9,135.1Z"/><path class="land" fill-rule="evenodd" d="M507.5,133.1L510.0,136.1L509.4,138.0L511.6,139.6L513.7,146.1L507.7,139.6L506.6,136.2L507.1,135.4L505.9,133.7L507.5,133.1Z"/><path class="land" fill-rule="evenodd" d="M477.6,132.4L479.0,135.1L478.2,136.1L475.9,134.5L475.6,132.7L473.0,133.3L472.2,132.6L474.9,129.7L476.0,130.1L476.5,132.2L477.6,132.4Z"/><path class="land" fill-rule="evenodd" d="M466.0,131.7L465.7,129.6L466.0,131.7Z"/><path class="land" fill-rule="evenodd" d="M471.7,131.1L470.4,131.2L469.6,130.1L470.2,128.7L471.9,129.4L471.7,131.1Z"/><path class="land" fill-rule="evenodd" d="M466.9,129.2L465.1,127.1L465.6,125.7L468.1,127.2L466.9,129.2Z"/><path class="land" fill-rule="evenodd" d="M498.8,135.3L489.4,130.4L484.6,125.4L487.3,126.0L491.1,129.0L494.3,130.3L498.4,133.3L497.9,134.1L498.8,135.3Z"/><path class="land" fill-rule="evenodd" d="M458.4,121.0L456.8,120.9L457.4,119.7L458.4,121.0Z"/><path class="land" fill-rule="evenodd" d="M474.9,123.3L474.4,124.3L471.0,123.2L464.5,116.4L470.3,118.9L471.9,121.6L474.9,123.3Z"/><path class="land" fill-rule="evenodd" d="M144.4,141.9L142.8,144.3L140.4,143.4L144.4,141.9Z"/><path class="land" fill-rule="evenodd" d="M150.7,145.1L149.6,142.1L151.0,141.9L151.5,140.4L149.4,140.5L149.2,139.4L151.8,136.5L158.0,134.9L166.2,134.6L169.7,133.2L173.0,134.2L169.2,137.2L154.1,142.8L150.7,145.1Z"/><path class="land" fill-rule="evenodd" d="M156.5,131.4L155.8,133.1L155.1,132.8L156.5,131.4Z"/><path class="land" fill-rule="evenodd" d="M599.0,251.9L597.4,252.0L599.0,251.9Z"/><path class="land" fill-rule="evenodd" d="M594.9,245.4L594.4,246.5L593.5,246.2L592.2,244.8L592.5,243.4L593.4,243.3L594.9,245.4Z"/><path class="land" fill-rule="evenodd" d="M593.3,239.4L589.9,238.7L590.2,236.4L591.4,236.3L593.3,239.4Z"/><path class="land" fill-rule="evenodd" d="M584.5,225.4L585.8,227.0L585.2,228.0L581.6,227.1L582.7,225.5L584.5,225.4Z"/><path class="land" fill-rule="evenodd" d="M584.5,217.8L581.8,218.0L581.4,216.4L582.0,215.9L584.5,217.8Z"/><path class="land" fill-rule="evenodd" d="M583.0,213.4L579.3,212.3L581.6,210.8L583.0,213.4Z"/><path class="land" fill-rule="evenodd" d="M574.1,211.0L578.4,214.5L574.5,215.5L573.5,211.5L571.5,210.8L572.0,208.9L573.4,209.2L574.1,211.0Z"/><path class="land" fill-rule="evenodd" d="M572.2,207.2L570.9,206.9L571.2,206.2L572.3,206.5L572.2,207.2Z"/><path class="land" fill-rule="evenodd" d="M582.1,209.7L581.6,204.6L582.7,208.9L582.1,209.7Z"/><path class="land" fill-rule="evenodd" d="M579.1,204.4L576.7,204.5L580.0,202.8L579.1,204.4Z"/><path class="land" fill-rule="evenodd" d="M581.9,203.3L581.7,203.9L581.1,199.9L581.9,203.3Z"/><path class="land" fill-rule="evenodd" d="M567.5,198.3L568.1,201.6L570.8,199.4L572.0,204.4L570.9,205.8L567.6,206.3L566.3,204.1L565.7,196.4L567.5,198.3Z"/><path class="land" fill-rule="evenodd" d="M575.8,192.6L574.3,192.9L574.1,192.0L575.1,191.4L575.8,192.6Z"/><path class="land" fill-rule="evenodd" d="M574.9,189.1L573.9,187.9L574.8,187.1L575.5,188.1L574.9,189.1Z"/></g><g id="rivers"><path class="river part-shape" data-part="な" d="M370.4,411.1L372.7,410.5"/><path class="river part-shape" data-part="な" d="M360.3,410.1L362.2,410.6"/><path class="river part-shape" data-part="な" d="M380.1,419.7L382.0,416.2L379.7,410.5L374.6,409.5L372.7,410.5"/><path class="river part-shape" data-part="な" d="M370.4,411.1L364.7,409.9L362.2,410.6"/><path class="river part-shape" data-part="な" d="M360.3,410.1L352.2,408.5L349.6,409.2L349.2,411.1L346.7,410.9L341.6,406.3L334.0,401.7L333.3,397.9L327.7,395.9L325.7,397.8L323.7,393.3L321.6,391.7L317.6,391.1L314.7,391.8L309.5,390.0L307.6,391.0L307.7,391.9L305.3,394.3L302.5,391.8L297.2,390.8L296.1,393.8L296.2,398.5L292.9,399.8L294.3,403.0L293.0,404.0"/><path class="river part-shape" data-part="に" d="M374.1,351.2L366.6,349.3L360.4,349.8L355.3,353.8L351.6,354.8L347.3,358.4L344.1,359.6L339.0,364.0L334.1,365.8L330.4,369.0L329.8,370.9L325.4,373.3L324.0,375.0L323.3,381.4L325.7,384.3L324.5,386.3L320.0,388.7L319.3,391.2"/></g><g id="markers"><g class="marker m-grid" data-part="あ" data-kind="経度" transform="translate(300.0,510.0)"><circle class="pulse-ring" r="6"/><circle class="hit" r="16"/><rect class="dot" x="-2.6" y="-2.6" width="5.2" height="5.2"/></g><g class="marker m-grid" data-part="い" data-kind="緯線" transform="translate(30.0,284.0)"><circle class="pulse-ring" r="6"/><circle class="hit" r="16"/><rect class="dot" x="-2.6" y="-2.6" width="5.2" height="5.2"/></g><g class="marker m-grid" data-part="う" data-kind="経度" transform="translate(100.0,510.0)"><circle class="pulse-ring" r="6"/><circle class="hit" r="16"/><rect class="dot" x="-2.6" y="-2.6" width="5.2" height="5.2"/></g><g class="marker m-grid" data-part="え" data-kind="緯度" transform="translate(30.0,250.0)"><circle class="pulse-ring" r="6"/><circle class="hit" r="16"/><rect class="dot" x="-2.6" y="-2.6" width="5.2" height="5.2"/></g><g class="marker m-sea" data-part="お" data-kind="海" transform="translate(500.0,150.0)"><circle class="pulse-ring" r="6"/><circle class="hit" r="16"/><circle class="dot" r="5"/></g><g class="marker m-sea" data-part="か" data-kind="海" transform="translate(20.0,350.0)"><circle class="pulse-ring" r="6"/><circle class="hit" r="16"/><circle class="dot" r="5"/></g><g class="marker m-sea" data-part="き" data-kind="海" transform="translate(500.0,430.0)"><circle class="pulse-ring" r="6"/><circle class="hit" r="16"/><circle class="dot" r="5"/></g><g class="marker m-sea" data-part="く" data-kind="海" transform="translate(440.0,210.0)"><circle class="pulse-ring" r="6"/><circle class="hit" r="16"/><circle class="dot" r="5"/></g><g class="marker m-strait" data-part="け" data-kind="海峡" transform="translate(360.0,445.0)"><circle class="pulse-ring" r="6"/><circle class="hit" r="16"/><rect class="dot" x="-3.3" y="-3.3" width="6.6" height="6.6" transform="rotate(45)"/></g><g class="marker m-strait" data-part="こ" data-kind="海峡" transform="translate(645.0,463.0)"><circle class="pulse-ring" r="6"/><circle class="hit" r="16"/><rect class="dot" x="-3.3" y="-3.3" width="6.6" height="6.6" transform="rotate(45)"/></g><g class="marker m-island" data-part="さ" data-kind="島" transform="translate(366.0,470.0)"><circle class="pulse-ring" r="6"/><circle class="hit" r="16"/><circle class="dot" r="4"/></g><g class="marker m-island" data-part="し" data-kind="島" transform="translate(310.0,105.0)"><circle class="pulse-ring" r="6"/><circle class="hit" r="16"/><circle class="dot" r="4"/></g><g class="marker m-island" data-part="す" data-kind="島" transform="translate(655.0,435.0)"><circle class="pulse-ring" r="6"/><circle class="hit" r="16"/><circle class="dot" r="4"/></g><g class="marker m-island" data-part="せ" data-kind="島" transform="translate(605.0,485.0)"><circle class="pulse-ring" r="6"/><circle class="hit" r="16"/><circle class="dot" r="4"/></g><g class="marker m-island" data-part="そ" data-kind="諸島" transform="translate(680.0,20.0)"><circle class="pulse-ring" r="6"/><circle class="hit" r="16"/><circle class="dot" r="4"/></g><g class="marker m-island" data-part="た" data-kind="島" transform="translate(555.0,263.0)"><circle class="pulse-ring" r="6"/><circle class="hit" r="16"/><circle class="dot" r="4"/></g><g class="marker m-land" data-part="つ" data-kind="地形" transform="translate(370.0,230.0)"><circle class="pulse-ring" r="6"/><circle class="hit" r="16"/><circle class="dot" r="4"/></g><g class="marker m-mountain" data-part="て" data-kind="山脈" transform="translate(390.0,370.0)"><circle class="pulse-ring" r="6"/><circle class="hit" r="16"/><polygon class="dot" points="0,-5 4.3,3 -4.3,3"/></g><g class="marker m-land" data-part="と" data-kind="岬" transform="translate(325.0,157.0)"><circle class="pulse-ring" r="6"/><circle class="hit" r="16"/><circle class="dot" r="4"/></g><g class="marker m-river" data-part="な" data-kind="川" transform="translate(320.0,395.0)"><circle class="pulse-ring" r="6"/><circle class="hit" r="16"/><circle class="dot" r="3"/></g><g class="marker m-river" data-part="に" data-kind="川" transform="translate(350.0,360.0)"><circle class="pulse-ring" r="6"/><circle class="hit" r="16"/><circle class="dot" r="3"/></g><g class="marker m-lake" data-part="ぬ" data-kind="湖" transform="translate(273.0,334.0)"><circle class="pulse-ring" r="6"/><circle class="hit" r="16"/><circle class="dot" r="4"/></g><g class="marker m-land" data-part="ね" data-kind="砂漠" transform="translate(140.0,260.0)"><circle class="pulse-ring" r="6"/><circle class="hit" r="16"/><circle class="dot" r="4"/></g><g class="marker m-land" data-part="の" data-kind="砂漠" transform="translate(180.0,330.0)"><circle class="pulse-ring" r="6"/><circle class="hit" r="16"/><circle class="dot" r="4"/></g><g class="marker m-land" data-part="は" data-kind="盆地" transform="translate(330.0,300.0)"><circle class="pulse-ring" r="6"/><circle class="hit" r="16"/><circle class="dot" r="4"/></g><g class="marker m-land" data-part="ひ" data-kind="平原" transform="translate(180.0,365.0)"><circle class="pulse-ring" r="6"/><circle class="hit" r="16"/><circle class="dot" r="4"/></g><g class="marker m-mountain" data-part="ふ" data-kind="山脈" transform="translate(602.0,485.0)"><circle class="pulse-ring" r="6"/><circle class="hit" r="16"/><polygon class="dot" points="0,-5 4.3,3 -4.3,3"/></g><g class="marker m-city" data-part="a" data-kind="都市" transform="translate(295.0,257.0)"><circle class="pulse-ring" r="6"/><circle class="hit" r="16"/><circle class="dot" r="4"/></g><g class="marker m-city" data-part="b" data-kind="都市" transform="translate(97.0,284.0)"><circle class="pulse-ring" r="6"/><circle class="hit" r="16"/><circle class="dot" r="4"/></g><g class="marker m-city" data-part="c" data-kind="都市" transform="translate(114.7,357.5)"><circle class="pulse-ring" r="6"/><circle class="hit" r="16"/><circle class="dot" r="4"/></g><g class="marker m-city" data-part="d" data-kind="都市" transform="translate(380.0,265.0)"><circle class="pulse-ring" r="6"/><circle class="hit" r="16"/><circle class="dot" r="4"/></g><g class="marker m-city" data-part="1" data-kind="都市" transform="translate(208.4,174.6)"><circle class="pulse-ring" r="6"/><circle class="hit" r="16"/><circle class="dot" r="4"/></g><g class="marker m-city" data-part="2" data-kind="都市" transform="translate(357.7,219.2)"><circle class="pulse-ring" r="6"/><circle class="hit" r="16"/><circle class="dot" r="4"/></g><g class="marker m-city" data-part="3" data-kind="都市" transform="translate(371.8,144.4)"><circle class="pulse-ring" r="6"/><circle class="hit" r="16"/><circle class="dot" r="4"/></g><g class="marker m-city" data-part="4" data-kind="都市" transform="translate(238.8,287.0)"><circle class="pulse-ring" r="6"/><circle class="hit" r="16"/><circle class="dot" r="4"/></g><g class="marker m-land" data-part="5" data-kind="地形" transform="translate(210.4,303.4)"><circle class="pulse-ring" r="6"/><circle class="hit" r="16"/><circle class="dot" r="4"/></g><g class="marker m-city" data-part="6" data-kind="都市" transform="translate(430.3,324.7)"><circle class="pulse-ring" r="6"/><circle class="hit" r="16"/><circle class="dot" r="4"/></g><g class="marker m-city" data-part="7" data-kind="都市" transform="translate(417.8,379.3)"><circle class="pulse-ring" r="6"/><circle class="hit" r="16"/><circle class="dot" r="4"/></g><g class="marker m-city" data-part="8" data-kind="都市" transform="translate(412.1,388.7)"><circle class="pulse-ring" r="6"/><circle class="hit" r="16"/><circle class="dot" r="4"/></g><g class="marker m-city" data-part="9" data-kind="都市" transform="translate(391.3,402.8)"><circle class="pulse-ring" r="6"/><circle class="hit" r="16"/><circle class="dot" r="4"/></g><g class="marker m-city" data-part="10" data-kind="都市" transform="translate(349.6,428.1)"><circle class="pulse-ring" r="6"/><circle class="hit" r="16"/><circle class="dot" r="4"/></g><g class="marker m-city" data-part="11" data-kind="都市" transform="translate(286.0,399.3)"><circle class="pulse-ring" r="6"/><circle class="hit" r="16"/><circle class="dot" r="4"/></g><g class="marker m-city" data-part="12" data-kind="都市" transform="translate(58.6,369.5)"><circle class="pulse-ring" r="6"/><circle class="hit" r="16"/><circle class="dot" r="4"/></g><g class="marker m-city" data-part="13" data-kind="都市" transform="translate(46.1,337.7)"><circle class="pulse-ring" r="6"/><circle class="hit" r="16"/><circle class="dot" r="4"/></g><g class="marker m-city" data-part="14" data-kind="都市" transform="translate(86.0,253.1)"><circle class="pulse-ring" r="6"/><circle class="hit" r="16"/><circle class="dot" r="4"/></g><g class="marker m-city" data-part="15" data-kind="都市" transform="translate(647.6,418.5)"><circle class="pulse-ring" r="6"/><circle class="hit" r="16"/><circle class="dot" r="4"/></g><g class="marker m-city" data-part="16" data-kind="都市" transform="translate(626.4,485.3)"><circle class="pulse-ring" r="6"/><circle class="hit" r="16"/><circle class="dot" r="4"/></g><g class="marker m-city" data-part="17" data-kind="都市" transform="translate(647.8,462.9)"><circle class="pulse-ring" r="6"/><circle class="hit" r="16"/><circle class="dot" r="4"/></g></g></svg>