<svg xmlns="http://www.w3.org/2000/svg" viewBox="0 0 700 739" data-region="sasia"><style>.land{fill:#eef1ec;stroke:#94a3ae;stroke-width:.7;vector-effect:non-scaling-stroke}.river{fill:none;stroke:#8db8da;stroke-width:1.3;stroke-linecap:round;vector-effect:non-scaling-stroke}.grid{stroke:#d3dae1;stroke-width:.5}.grid-q{stroke:#9aa7b5;stroke-width:1.1;stroke-dasharray:6 4}.marker .hit{fill:#000;fill-opacity:0;pointer-events:all}.marker .dot{fill:#3a3a3c;stroke:#fff;stroke-width:1.2}.m-city .dot{fill:#1c1c1e}</style><g id="grid"><line class="grid" x1="58.3" y1="0" x2="58.3" y2="739"/><line class="grid" x1="155.6" y1="0" x2="155.6" y2="739"/><line class="grid" x1="252.8" y1="0" x2="252.8" y2="739"/><line class="grid" x1="350.0" y1="0" x2="350.0" y2="739"/><line class="grid" x1="447.2" y1="0" x2="447.2" y2="739"/><line class="grid" x1="544.4" y1="0" x2="544.4" y2="739"/><line class="grid" x1="641.7" y1="0" x2="641.7" y2="739"/><line class="grid" x1="0" y1="719.4" x2="700" y2="719.4"/><line class="grid" x1="0" y1="622.2" x2="700" y2="622.2"/><line class="grid" x1="0" y1="525.0" x2="700" y2="525.0"/><line class="grid" x1="0" y1="427.8" x2="700" y2="427.8"/><line class="grid" x1="0" y1="330.6" x2="700" y2="330.6"/><line class="grid" x1="0" y1="233.3" x2="700" y2="233.3"/><line class="grid" x1="0" y1="136.1" x2="700" y2="136.1"/><line class="grid" x1="0" y1="38.9" x2="700" y2="38.9"/><line class="grid-q part-shape" data-part="あ" x1="0" y1="330.6" x2="700" y2="330.6"/><line class="grid-q part-shape" data-part="い" x1="350.0" y1="0" x2="350.0" y2="739"/></g><g id="land"><path class="land" fill-rule="evenodd" d="M242.6,0.0L234.1,3.4L228.8,2.2L216.2,2.6L206.6,3.3L199.3,5.2L190.0,11.0L187.1,11.0L179.5,17.1L178.6,18.6L182.7,21.8L186.1,28.3L186.7,31.0L185.6,33.3L187.1,35.3L183.8,39.5L180.7,41.5L174.3,48.0L176.9,51.1L176.0,57.4L168.3,59.3L161.9,59.1L155.5,57.3L153.4,58.2L153.0,60.3L158.2,65.7L161.1,70.6L160.6,72.2L154.0,75.6L145.9,77.4L144.0,83.9L140.8,88.8L141.5,98.5L137.7,102.3L133.6,104.3L131.9,104.1L128.3,101.1L125.3,102.0L119.8,101.1L117.0,103.5L108.5,106.8L111.6,110.0L106.0,112.1L102.8,112.4L95.8,110.7L93.9,111.5L89.4,116.3L85.5,118.4L84.5,120.5L83.4,124.3L83.7,129.9L82.4,134.0L83.9,136.7L82.3,138.7L60.2,144.7L46.5,145.0L40.8,147.9L30.5,145.9L9.3,147.6L0.0,145.2L0.0,30.5L6.0,35.6L9.0,34.0L13.4,33.9L20.5,30.2L22.7,25.7L22.0,22.4L39.1,19.2L40.7,17.3L48.8,12.8L53.7,0.0L115.1,0.0L118.0,1.0L119.9,0.0L184.3,0.0L186.6,5.2L189.3,6.1L197.4,1.9L203.6,0.0Z"/><path class="land" fill-rule="evenodd" d="M582.3,301.2L580.6,300.7L580.6,297.3L582.0,297.1L582.3,301.2Z"/><path class="land" fill-rule="evenodd" d="M580.9,294.9L580.2,296.5L580.4,293.1L580.9,294.9Z"/><path class="land" fill-rule="evenodd" d="M566.8,288.3L564.8,289.6L565.4,281.6L567.4,286.2L566.8,288.3Z"/><path class="land" fill-rule="evenodd" d="M574.7,284.2L573.0,284.3L571.9,282.4L572.8,279.7L574.7,284.2Z"/><path class="land" fill-rule="evenodd" d="M559.6,289.9L554.5,290.4L557.7,285.3L557.1,281.2L555.4,279.7L554.2,275.4L556.0,274.9L557.5,275.9L558.8,279.2L561.3,282.2L560.6,288.6L559.6,289.9Z"/><path class="land" fill-rule="evenodd" d="M556.9,272.9L557.3,273.8L554.9,271.9L555.7,271.5L556.9,272.9Z"/><path class="land" fill-rule="evenodd" d="M523.8,209.1L524.6,208.3L523.5,206.6L525.4,205.9L528.6,211.8L534.1,214.2L535.7,213.8L536.4,210.3L538.0,209.7L541.0,215.0L540.5,226.0L541.2,227.6L553.0,230.3L584.3,230.0L592.4,234.4L592.0,236.3L587.8,235.6L585.3,244.8L582.4,245.8L580.9,249.0L578.0,248.8L574.1,251.0L571.0,251.0L568.4,254.3L567.0,259.4L570.0,270.2L571.1,270.8L571.1,268.4L572.4,268.3L573.8,271.6L575.9,272.6L578.5,271.2L578.6,266.6L582.1,262.4L582.0,258.9L586.3,258.2L588.1,258.9L589.8,265.9L590.4,273.6L592.9,278.3L595.6,305.2L594.4,306.0L589.8,302.6L587.4,304.2L587.1,307.2L589.6,315.2L584.4,307.7L583.5,297.8L579.9,287.2L580.7,284.9L579.4,285.9L574.2,277.9L573.2,274.5L568.1,279.2L562.8,280.1L557.2,271.7L556.2,260.7L555.2,264.0L549.7,263.4L552.1,265.1L554.6,265.5L555.9,267.0L556.0,269.6L553.5,271.2L555.2,274.1L553.4,274.5L552.9,277.0L556.4,284.6L555.9,286.6L551.4,290.7L548.9,295.0L547.5,295.2L545.8,293.9L546.2,291.3L548.5,288.6L543.6,291.2L542.9,289.4L542.4,285.7L544.2,282.6L542.1,284.1L540.8,292.0L536.1,296.2L534.4,286.3L534.7,293.3L533.8,295.1L530.4,297.4L526.8,294.1L526.0,286.3L523.5,279.4L522.1,271.4L523.6,268.6L519.6,267.3L520.0,263.7L516.6,259.1L519.2,252.7L519.6,247.4L513.3,245.2L511.1,243.4L508.4,243.3L506.0,240.6L508.5,235.0L511.6,235.6L514.4,229.7L521.4,229.9L524.1,228.3L521.5,226.2L520.5,223.8L515.3,222.9L512.6,219.8L507.2,216.1L508.5,212.2L514.1,206.7L514.0,205.4L512.4,204.5L512.7,202.9L517.6,205.5L518.8,208.2L523.8,209.1Z"/><path class="land" fill-rule="evenodd" d="M576.2,179.7L575.5,183.6L578.3,185.8L583.2,185.7L585.0,188.8L583.2,192.5L584.7,194.9L584.3,196.9L576.9,198.3L574.0,198.2L572.2,197.0L569.5,198.5L558.8,198.9L551.2,196.6L548.5,197.4L546.8,199.2L539.9,200.2L536.9,199.9L536.4,198.7L531.5,197.4L527.9,198.0L525.8,197.1L522.2,195.2L521.8,193.2L519.9,191.0L522.7,188.7L524.0,185.4L534.3,173.8L544.1,168.9L551.2,170.3L551.3,173.4L558.4,173.6L564.3,175.6L569.2,173.5L576.4,176.5L576.2,179.7Z"/><path class="land" fill-rule="evenodd" d="M700.0,0.0L700.0,251.7L692.8,255.0L691.5,254.5L691.6,253.0L694.0,250.2L694.3,248.3L693.5,245.4L690.9,243.2L690.8,240.5L691.9,237.7L694.9,235.9L694.5,232.7L696.5,228.4L698.4,228.7L700.0,227.8L700.0,170.4L697.8,168.1L695.5,168.1L694.1,165.9L692.2,164.9L691.0,165.1L686.8,170.8L682.0,167.8L676.2,167.9L672.8,166.1L668.7,167.8L667.3,167.5L666.5,166.7L667.5,164.8L672.4,160.2L669.6,154.6L663.8,157.1L663.5,154.0L668.0,150.7L665.7,150.8L662.7,147.3L658.9,148.0L651.7,151.5L651.7,152.6L649.2,154.8L637.2,152.1L634.3,149.5L627.9,152.7L624.4,156.0L622.6,156.3L621.7,158.3L617.6,160.8L607.7,162.8L605.1,167.2L596.0,173.2L596.3,176.0L591.4,178.4L588.2,178.1L582.9,180.2L576.2,179.7L576.4,176.5L569.2,173.5L564.3,175.6L558.4,173.6L551.3,173.4L551.2,170.3L544.1,168.9L534.3,173.8L524.0,185.4L522.9,188.3L520.4,186.1L520.1,184.3L522.1,177.6L521.2,174.9L517.6,173.2L508.3,176.0L507.7,177.5L502.8,177.2L498.2,178.6L488.9,178.1L478.6,173.0L477.4,173.3L476.7,175.7L474.6,176.4L469.3,172.8L468.2,173.4L467.9,176.3L466.6,176.7L460.4,169.6L449.6,168.9L448.9,167.8L450.3,163.5L443.3,164.1L432.2,157.3L429.7,151.3L426.5,150.1L419.7,152.0L411.4,143.6L405.5,142.3L398.3,137.2L393.2,134.9L389.7,129.8L381.9,128.6L377.6,129.5L374.4,134.3L371.6,135.4L369.2,131.5L363.3,128.0L353.7,125.1L353.8,121.3L352.9,120.8L351.6,120.9L346.0,117.3L341.6,117.7L338.1,115.4L332.6,108.8L331.4,108.4L330.0,110.3L325.8,110.8L325.2,107.5L326.7,104.6L324.6,102.3L325.4,98.0L320.8,93.0L318.7,87.1L319.1,86.4L324.7,85.6L326.1,88.1L329.0,90.3L331.9,89.7L333.0,88.0L334.8,87.5L334.5,78.8L332.7,77.3L332.7,73.4L326.7,68.1L325.3,57.3L330.0,53.9L329.3,51.5L324.2,48.3L316.6,45.6L311.3,34.0L311.9,29.6L300.3,29.6L293.4,28.2L284.5,24.7L283.2,23.9L282.9,21.6L275.7,23.1L273.6,19.8L270.5,18.5L271.6,16.2L271.7,12.0L269.1,6.8L265.8,5.0L261.0,5.1L259.5,1.7L253.8,0.2L250.6,0.9L248.8,0.0Z"/><path class="land" fill-rule="evenodd" d="M689.9,691.0L698.7,700.5L697.6,707.2L696.5,708.5L693.9,707.9L692.3,703.2L688.4,701.0L686.3,696.4L682.1,691.7L685.3,691.8L687.5,689.5L689.9,691.0Z"/><path class="land" fill-rule="evenodd" d="M687.1,679.1L682.7,676.3L686.2,676.7L687.1,679.1Z"/><path class="land" fill-rule="evenodd" d="M670.1,673.6L667.7,673.3L661.5,669.0L657.4,667.8L655.6,664.5L657.3,662.7L659.1,663.3L669.2,670.5L670.1,673.6Z"/><path class="land" fill-rule="evenodd" d="M670.7,617.8L677.5,616.9L684.3,618.2L690.3,617.8L698.2,624.6L699.4,626.5L700.0,628.8L700.0,675.9L696.0,675.1L694.2,673.6L692.0,664.1L688.2,661.6L678.5,648.4L669.8,645.2L651.3,626.9L645.7,616.7L646.1,611.2L649.4,610.0L653.9,610.4L658.0,612.2L663.7,616.5L670.7,617.8Z"/><path class="land" fill-rule="evenodd" d="M648.7,606.4L647.2,606.7L645.9,604.9L648.7,605.2L648.7,606.4Z"/><path class="land" fill-rule="evenodd" d="M594.5,292.1L592.9,278.3L590.4,273.6L589.8,265.9L588.1,258.9L586.3,258.2L582.0,258.9L582.1,262.4L578.6,266.6L578.5,271.2L575.9,272.6L573.8,271.6L572.4,268.3L571.1,268.4L571.1,270.8L570.0,270.2L567.0,259.4L568.4,254.3L571.0,251.0L574.1,251.0L578.0,248.8L580.9,249.0L582.4,245.8L585.3,244.8L587.8,235.6L592.0,236.3L592.4,234.4L584.3,230.0L553.0,230.3L541.2,227.6L540.5,226.0L541.0,215.0L538.0,209.7L536.4,210.3L535.7,213.8L532.2,213.8L528.6,211.8L525.4,205.9L523.5,206.6L524.4,209.0L521.7,209.0L518.8,208.2L517.6,205.5L512.7,202.9L512.4,204.5L514.0,205.4L514.1,206.7L508.5,212.2L507.2,216.1L512.6,219.8L515.3,222.9L520.5,223.8L521.5,226.2L524.1,228.3L521.4,229.9L514.4,229.7L511.6,235.6L508.5,235.0L506.0,240.6L508.4,243.3L511.1,243.4L513.3,245.2L519.6,247.4L519.2,252.7L516.6,259.1L520.0,263.7L519.6,267.3L523.6,268.6L522.1,271.4L523.5,279.4L526.0,286.3L525.5,292.9L524.0,292.9L526.0,298.4L523.2,298.4L522.2,296.6L520.0,299.7L519.0,296.8L519.9,291.6L518.0,289.3L516.6,294.9L516.9,298.3L514.2,299.2L511.1,296.4L510.5,299.0L507.9,298.7L506.7,297.6L509.4,289.0L505.4,286.5L504.4,284.4L504.8,286.7L508.7,289.3L504.6,295.1L499.3,298.4L488.1,301.4L483.4,306.5L483.0,309.0L485.6,316.9L481.5,322.4L481.3,324.5L476.4,327.2L474.0,330.4L471.4,329.5L472.7,330.8L470.9,332.6L458.4,336.5L456.9,336.4L458.1,335.3L458.0,333.1L457.0,332.7L452.1,335.3L450.7,338.4L454.4,336.8L455.8,337.8L451.6,340.1L442.8,347.6L441.2,350.7L429.8,363.8L421.1,368.1L412.2,377.0L395.9,387.0L394.4,390.1L395.9,393.1L393.9,397.4L384.3,401.9L375.0,401.8L372.0,409.1L370.0,410.6L369.0,413.0L366.1,412.9L365.2,410.9L362.6,410.4L355.7,414.0L352.0,421.5L351.0,426.3L353.5,437.9L352.2,443.1L356.0,457.2L353.0,452.8L351.2,454.9L356.7,459.6L354.5,472.7L352.8,477.3L347.2,486.3L345.2,494.4L346.0,496.9L344.0,499.5L346.1,499.0L347.1,501.7L346.9,518.7L340.9,518.6L336.7,520.0L335.5,521.6L335.6,524.3L329.4,533.4L329.0,535.6L330.9,538.0L335.9,538.9L338.6,540.7L330.2,539.2L319.3,542.4L314.9,546.6L313.6,553.9L312.3,556.4L301.7,562.4L297.5,561.1L292.9,557.7L283.0,546.3L278.5,535.7L276.9,526.4L278.9,528.4L279.5,533.9L281.1,534.0L279.0,526.5L276.0,523.3L276.1,521.1L270.7,509.8L266.9,498.5L263.0,491.9L256.6,485.0L251.7,475.1L248.3,465.2L246.4,453.7L243.0,446.3L240.8,437.6L232.3,426.3L231.1,421.8L229.5,420.1L232.0,420.1L228.9,416.6L230.1,415.0L228.1,415.0L227.1,414.0L223.1,407.3L220.5,399.4L216.9,376.8L211.5,356.9L214.0,349.6L213.3,347.0L210.7,350.5L210.1,348.5L210.2,344.2L213.6,344.6L209.8,342.9L209.2,341.2L210.0,339.9L208.6,338.8L207.4,333.8L211.8,317.5L210.3,308.8L207.9,307.7L206.6,303.9L208.7,302.0L206.4,302.1L210.2,299.1L216.1,296.5L210.8,297.7L205.0,297.6L206.0,294.0L208.1,292.2L204.6,292.1L205.2,288.6L210.2,287.1L205.9,286.3L198.0,286.4L200.4,288.0L199.8,289.9L195.2,295.1L198.5,297.0L199.4,300.8L194.7,308.1L175.5,316.2L169.5,316.2L165.0,314.2L156.2,307.6L150.7,301.3L139.8,291.8L135.5,286.0L135.8,284.2L137.1,283.2L141.5,286.1L146.8,283.7L148.9,283.8L150.3,282.6L152.0,282.9L155.7,281.0L159.0,280.5L164.1,272.8L165.5,272.2L165.1,270.5L162.2,273.4L157.9,273.3L149.0,276.9L140.7,275.2L129.1,268.5L124.8,261.1L131.8,255.7L121.2,260.6L119.9,255.6L124.1,253.7L130.7,253.5L130.8,247.6L131.9,246.7L132.8,247.6L147.0,247.5L151.8,249.6L156.0,249.1L157.5,247.2L165.1,244.8L166.2,244.6L166.8,247.4L169.5,248.2L175.9,245.0L174.4,241.7L175.9,239.4L168.2,225.1L168.2,220.4L160.7,219.6L157.5,215.6L157.1,212.5L158.1,209.7L158.4,204.0L156.7,202.6L150.4,201.7L146.0,199.4L145.3,198.2L146.6,192.1L153.5,185.2L158.4,177.9L163.4,174.5L167.8,176.2L169.0,179.5L171.1,180.6L191.9,175.7L193.4,171.6L196.9,168.3L201.1,160.4L212.0,155.0L218.4,144.8L221.3,137.4L229.6,134.3L232.0,131.8L231.4,127.6L239.9,118.7L245.6,116.0L243.4,113.1L244.9,107.6L243.2,102.8L244.1,100.8L247.7,98.2L257.7,94.5L259.1,93.0L259.3,91.8L257.3,90.0L252.5,88.2L246.7,87.6L245.8,85.4L246.2,82.5L240.2,82.3L239.3,81.5L239.2,77.9L233.4,74.1L236.3,67.9L233.4,65.5L232.9,63.8L233.4,62.5L237.5,60.5L238.2,59.4L238.1,58.5L232.4,58.0L231.5,56.9L232.8,53.7L229.6,52.0L229.3,51.0L232.6,45.6L239.2,43.5L256.4,45.9L261.6,47.9L266.6,48.6L273.0,45.3L281.1,43.6L283.8,44.0L287.4,40.8L291.7,39.0L292.6,36.8L307.2,29.2L309.1,30.2L311.3,29.4L312.0,30.2L311.3,34.0L316.6,45.6L324.2,48.3L330.0,52.4L330.0,53.9L325.8,56.6L325.2,58.1L326.7,68.1L333.2,74.4L332.6,76.8L334.5,78.8L334.8,87.5L333.0,88.0L331.9,89.7L329.0,90.3L326.1,88.1L324.7,85.6L319.1,86.4L318.7,87.1L320.8,93.0L325.4,98.0L324.6,102.3L326.7,104.6L325.2,107.5L325.6,110.4L326.5,111.0L330.0,110.3L330.8,108.6L332.6,108.8L337.1,114.6L340.1,116.8L341.6,117.7L346.0,117.3L351.6,120.9L352.9,120.8L353.8,121.3L353.7,125.1L363.3,128.0L369.2,131.5L369.6,132.9L366.5,133.4L357.8,141.4L355.0,147.3L354.5,151.8L351.6,155.7L351.4,158.9L358.1,163.1L361.4,162.4L372.7,168.5L375.5,171.6L386.0,177.6L388.6,176.7L397.7,181.4L402.1,181.3L403.1,184.4L414.0,187.2L417.0,185.4L424.4,187.1L429.5,184.9L439.6,188.6L441.1,193.6L449.7,197.1L451.9,199.3L458.3,197.6L460.8,198.7L461.6,201.4L462.7,202.1L466.8,201.3L473.8,202.7L480.3,205.4L486.4,203.1L487.9,205.5L491.7,206.9L494.2,205.7L498.4,206.1L502.6,205.4L505.5,206.5L506.6,205.5L508.7,199.8L507.7,195.8L505.3,191.8L506.0,186.5L508.4,179.9L507.7,176.3L517.6,173.2L521.2,174.9L522.1,177.6L520.1,184.3L520.4,186.1L522.9,188.3L519.9,191.0L521.8,193.2L522.2,195.2L527.9,198.0L531.5,197.4L536.4,198.7L536.9,199.9L539.9,200.2L546.8,199.2L548.5,197.4L551.2,196.6L558.8,198.9L569.5,198.5L572.2,197.0L574.0,198.2L576.9,198.3L584.3,196.9L584.7,194.9L583.2,192.5L585.0,188.8L583.2,185.7L578.3,185.8L575.5,183.6L576.2,179.7L582.9,180.2L585.3,178.7L591.4,178.4L594.0,177.3L596.7,175.2L595.8,173.8L597.0,172.1L603.5,168.6L607.7,162.8L617.6,160.8L621.7,158.3L622.6,156.3L624.4,156.0L627.9,152.7L634.3,149.5L637.2,152.1L648.5,154.9L651.7,152.6L651.7,151.5L661.8,146.9L665.7,150.8L668.0,150.7L663.5,154.0L663.8,157.1L669.6,154.6L672.4,160.2L668.8,163.2L666.6,167.0L668.7,167.8L672.8,166.1L676.2,167.9L682.0,167.8L686.8,170.8L687.1,176.2L679.8,180.9L678.2,183.0L678.6,185.9L682.5,192.2L679.6,191.9L675.3,188.0L664.8,189.4L662.3,190.2L659.3,193.5L650.7,199.2L644.2,202.3L642.7,207.1L644.2,213.1L642.0,215.6L640.6,219.7L637.5,223.2L635.2,224.4L633.5,227.1L633.0,229.1L635.4,230.6L636.0,232.4L633.6,237.9L627.9,246.5L624.7,255.2L616.1,252.7L612.4,253.3L609.1,251.5L610.8,259.0L610.4,265.6L609.6,270.6L608.8,271.6L606.0,271.6L605.9,274.0L604.3,277.7L605.7,287.2L603.6,288.1L602.1,291.6L599.9,291.5L596.7,289.1L594.5,292.1Z"/><path class="land" fill-rule="evenodd" d="M620.1,586.6L618.9,588.2L616.6,583.3L615.6,583.0L616.1,579.8L618.8,578.7L620.9,583.8L620.1,586.6Z"/><path class="land" fill-rule="evenodd" d="M617.0,576.4L615.2,578.2L614.4,577.1L616.2,575.3L617.0,576.4Z"/><path class="land" fill-rule="evenodd" d="M611.4,566.3L609.9,566.3L608.8,564.6L609.3,563.8L610.1,563.5L611.4,566.3Z"/><path class="land" fill-rule="evenodd" d="M613.2,562.8L612.1,563.4L611.7,560.5L612.4,559.5L613.1,559.7L613.2,562.8Z"/><path class="land" fill-rule="evenodd" d="M215.2,558.7L214.3,558.7L215.4,557.7L215.2,558.7Z"/><path class="land" fill-rule="evenodd" d="M605.5,559.0L606.1,559.8L604.0,558.5L604.7,557.1L605.5,559.0Z"/><path class="land" fill-rule="evenodd" d="M598.6,541.8L597.3,541.2L598.2,539.7L598.6,541.8Z"/><path class="land" fill-rule="evenodd" d="M593.1,514.2L592.5,514.9L590.5,514.4L590.2,510.4L593.3,507.5L594.5,511.3L593.1,514.2Z"/><path class="land" fill-rule="evenodd" d="M209.6,501.6L209.9,500.4L209.6,501.6Z"/><path class="land" fill-rule="evenodd" d="M596.8,498.1L594.9,498.0L595.8,495.7L596.8,498.1Z"/><path class="land" fill-rule="evenodd" d="M603.1,485.4L604.0,488.1L601.9,486.1L603.1,485.4Z"/><path class="land" fill-rule="evenodd" d="M597.3,469.3L596.7,470.6L597.2,467.4L597.3,469.3Z"/><path class="land" fill-rule="evenodd" d="M597.4,495.1L596.3,495.1L593.7,488.6L595.1,487.1L596.5,482.4L598.7,481.7L597.3,479.2L597.3,475.6L597.7,471.0L599.5,466.6L600.0,459.7L601.3,457.2L604.0,456.1L604.3,458.9L603.1,460.1L604.1,462.4L600.6,467.8L602.1,469.6L602.6,475.6L600.1,477.6L600.4,481.7L597.9,486.3L598.8,488.5L597.4,495.1Z"/><path class="land" fill-rule="evenodd" d="M0.0,165.2L6.9,166.9L11.0,170.4L14.6,170.1L15.8,184.8L14.6,189.3L17.8,190.2L22.7,189.5L25.4,192.0L24.2,192.9L24.3,196.8L23.1,197.6L22.5,201.3L15.3,201.4L8.5,203.0L6.1,204.3L4.7,206.9L2.4,206.7L0.0,208.3Z"/><path class="land" fill-rule="evenodd" d="M287.1,26.0L300.3,29.6L307.2,29.2L292.6,36.8L287.1,26.0Z"/><path class="land" fill-rule="evenodd" d="M347.6,543.5L348.1,544.9L345.1,542.4L347.6,543.5Z"/><path class="land" fill-rule="evenodd" d="M349.4,532.2L348.2,532.4L347.3,530.2L349.4,532.2Z"/><path class="land part-shape" data-part="お" fill-rule="evenodd" d="M349.7,528.6L354.9,529.0L363.8,537.3L368.2,545.0L369.8,545.8L373.3,551.0L373.9,554.1L376.7,555.5L377.7,561.0L382.4,568.1L386.4,577.7L386.2,585.3L384.4,590.8L381.8,594.5L375.4,598.8L364.1,603.2L359.6,603.8L355.2,602.6L351.9,599.8L347.3,586.7L344.4,560.3L345.1,558.2L345.8,563.5L348.9,550.4L348.6,546.4L351.9,540.4L351.7,533.2L356.2,535.4L358.3,535.1L355.0,532.6L350.9,531.8L349.1,530.0L349.7,528.6Z"/><path class="land" fill-rule="evenodd" d="M222.0,656.6L221.4,655.8L222.2,655.5L222.0,656.6Z"/><path class="land" fill-rule="evenodd" d="M223.8,638.5L223.1,638.3L224.0,636.9L223.8,638.5Z"/><path class="land" fill-rule="evenodd" d="M589.6,315.2L587.1,307.2L587.4,304.2L589.8,302.6L595.0,305.9L595.6,305.2L594.5,292.1L596.7,289.1L599.9,291.5L602.1,291.6L603.6,288.1L605.7,287.2L604.3,277.7L605.9,274.0L606.0,271.6L608.8,271.6L609.6,270.6L610.4,265.6L610.8,259.0L609.1,251.5L612.4,253.3L616.1,252.7L624.7,255.2L627.9,246.5L633.6,237.9L636.0,232.4L635.4,230.6L633.0,229.1L633.5,227.1L635.2,224.4L637.5,223.2L640.6,219.7L642.0,215.6L644.2,213.1L642.7,207.1L644.2,202.3L650.7,199.2L659.3,193.5L662.3,190.2L664.8,189.4L675.3,188.0L679.6,191.9L682.5,192.2L678.6,185.9L678.6,181.9L687.1,176.2L686.8,170.8L691.0,165.1L693.4,165.3L695.5,168.1L697.8,168.1L700.0,170.4L700.0,227.8L698.4,228.7L696.5,228.4L694.5,232.7L694.9,235.9L691.9,237.7L690.8,240.5L690.9,243.2L693.5,245.4L694.3,248.3L691.5,254.5L693.9,254.8L700.0,251.7L700.0,336.6L696.4,341.1L696.2,347.5L694.3,351.3L695.1,358.0L690.6,359.8L687.8,359.4L689.3,362.5L690.7,363.7L692.8,363.8L694.9,370.7L694.3,373.4L700.0,380.2L700.0,440.8L698.2,434.5L698.6,433.7L700.0,434.0L698.8,432.4L697.5,432.9L696.4,430.5L694.4,410.8L691.9,408.0L692.9,399.4L694.7,397.3L687.9,398.2L684.7,391.0L684.4,387.0L677.7,381.1L678.8,383.0L677.7,384.9L678.8,388.3L676.0,394.5L673.2,397.4L669.5,398.5L666.6,396.7L666.0,393.5L664.8,393.4L665.7,397.3L667.4,399.7L661.9,401.7L661.4,403.4L656.5,405.0L654.9,408.8L649.2,413.7L647.5,413.1L648.8,408.6L648.4,406.4L645.1,411.7L640.6,411.9L639.6,404.8L637.7,408.9L635.1,410.2L635.9,398.4L635.2,401.8L630.8,406.5L628.0,408.2L626.6,408.0L627.5,398.3L629.1,395.9L631.4,386.3L633.2,382.9L633.7,377.8L630.6,365.5L625.5,355.2L627.0,355.0L623.6,352.1L623.1,344.4L621.1,347.2L621.6,350.1L620.8,352.0L616.5,349.5L612.4,342.8L614.0,342.2L618.8,345.4L621.5,343.6L622.2,341.4L619.1,339.6L617.2,336.4L614.7,334.9L616.5,332.3L614.1,332.3L610.7,329.8L607.6,329.2L605.8,329.8L606.6,332.5L606.5,333.4L605.3,333.3L602.8,329.1L604.6,327.0L603.1,327.0L604.1,323.2L603.5,322.7L600.5,327.6L599.4,327.1L598.7,326.4L600.7,323.9L597.6,319.6L597.4,324.8L589.6,315.2Z"/><path class="land" fill-rule="evenodd" d="M700.0,480.6L698.8,479.4L700.0,478.5Z"/><path class="land" fill-rule="evenodd" d="M637.9,411.8L636.5,411.8L638.3,409.6L637.9,411.8Z"/><path class="land" fill-rule="evenodd" d="M631.5,409.4L630.2,411.3L629.8,408.4L633.9,404.3L633.2,408.0L631.5,409.4Z"/><path class="land" fill-rule="evenodd" d="M691.7,403.4L689.9,402.4L689.7,399.4L691.1,398.5L692.2,400.0L691.7,403.4Z"/><path class="land" fill-rule="evenodd" d="M616.2,356.1L612.3,352.6L617.3,352.6L616.2,356.1Z"/><path class="land" fill-rule="evenodd" d="M616.7,339.1L621.2,341.7L620.3,343.5L617.5,343.7L615.3,340.4L616.7,339.1Z"/><path class="land" fill-rule="evenodd" d="M612.3,332.6L612.8,335.3L611.4,334.3L610.8,331.5L612.3,332.6Z"/><path class="land" fill-rule="evenodd" d="M603.0,332.0L603.2,333.9L601.1,330.6L601.1,328.9L603.0,332.0Z"/><path class="land" fill-rule="evenodd" d="M369.6,132.9L371.6,135.4L372.9,135.3L377.6,129.5L381.9,128.6L389.7,129.8L393.2,134.9L398.3,137.2L405.5,142.3L411.4,143.6L419.7,152.0L426.5,150.1L429.7,151.3L432.2,157.3L443.3,164.1L450.3,163.5L448.9,167.8L449.6,168.9L460.4,169.6L466.6,176.7L467.9,176.3L468.2,173.4L469.3,172.8L474.6,176.4L476.7,175.7L477.4,173.3L478.6,173.0L488.9,178.1L498.2,178.6L502.8,177.2L507.7,177.5L508.4,179.9L506.0,186.5L505.3,191.8L508.6,198.2L506.6,205.5L505.5,206.5L502.6,205.4L498.4,206.1L494.2,205.7L491.7,206.9L487.9,205.5L486.4,203.1L480.3,205.4L473.8,202.7L466.8,201.3L462.7,202.1L459.8,197.8L451.9,199.3L449.7,197.1L441.1,193.6L439.6,188.6L429.5,184.9L424.4,187.1L417.0,185.4L414.0,187.2L403.1,184.4L402.1,181.3L397.7,181.4L388.6,176.7L386.0,177.6L375.5,171.6L372.7,168.5L361.4,162.4L358.1,163.1L351.4,158.9L351.6,155.7L354.5,151.8L355.0,147.3L357.8,141.4L366.5,133.4L369.6,132.9Z"/><path class="land" fill-rule="evenodd" d="M0.0,145.2L9.3,147.6L30.5,145.9L40.8,147.9L46.5,145.0L60.2,144.7L81.2,139.3L83.9,136.7L82.4,134.0L83.7,129.9L83.4,124.3L84.5,120.5L85.5,118.4L89.4,116.3L93.9,111.5L97.8,110.8L102.8,112.4L108.8,111.3L111.6,110.0L108.5,106.8L117.0,103.5L119.8,101.1L125.3,102.0L128.3,101.1L131.9,104.1L133.6,104.3L137.7,102.3L141.5,98.5L140.8,88.8L144.0,83.9L145.9,77.4L154.0,75.6L160.6,72.2L161.1,70.6L158.2,65.7L153.0,60.3L153.4,58.2L155.5,57.3L161.9,59.1L168.3,59.3L176.0,57.4L176.9,51.1L174.3,48.0L180.7,41.5L183.8,39.5L187.1,35.3L185.6,33.3L186.7,31.0L186.1,28.3L183.3,22.7L178.6,18.6L187.1,11.0L190.0,11.0L197.5,5.8L206.6,3.3L216.2,2.6L228.8,2.2L234.1,3.4L242.6,0.0L248.8,0.0L250.6,0.9L253.8,0.2L259.5,1.7L261.0,5.1L265.8,5.0L270.0,7.8L271.7,12.0L271.6,16.2L270.5,18.5L273.6,19.8L275.7,23.1L282.9,21.6L283.2,23.9L287.1,26.0L292.6,36.8L291.7,39.0L287.4,40.8L283.8,44.0L281.1,43.6L273.0,45.3L266.6,48.6L261.6,47.9L256.4,45.9L239.2,43.5L232.6,45.6L229.3,51.0L229.6,52.0L232.8,53.7L231.5,56.9L232.4,58.0L238.1,58.5L238.2,59.4L237.5,60.5L233.4,62.5L232.9,63.8L233.4,65.5L236.3,67.9L233.4,74.1L239.2,77.9L239.3,81.5L240.2,82.3L246.2,82.5L245.8,85.4L246.7,87.6L252.5,88.2L257.3,90.0L259.3,91.8L257.7,94.5L247.7,98.2L244.1,100.8L243.2,102.8L244.9,107.6L243.4,113.1L245.6,116.0L239.9,118.7L231.4,127.6L232.0,131.8L229.6,134.3L221.3,137.4L218.4,144.8L212.0,155.0L201.1,160.4L196.9,168.3L193.4,171.6L191.9,175.7L171.1,180.6L169.0,179.5L167.8,176.2L163.4,174.5L158.4,177.9L153.5,185.2L146.6,192.1L145.3,198.2L146.0,199.4L150.4,201.7L156.7,202.6L158.4,204.0L158.1,209.7L157.1,212.5L157.5,215.6L160.7,219.6L168.2,220.4L168.2,225.1L175.9,239.4L174.4,241.7L175.9,245.0L171.2,247.7L166.8,247.4L166.2,244.6L157.5,247.2L156.0,249.1L154.3,249.4L150.0,249.4L147.0,247.5L132.8,247.6L131.9,246.7L130.8,247.6L130.7,253.5L122.2,254.2L119.9,255.6L118.9,257.6L117.4,255.7L115.7,256.1L113.9,254.7L113.1,256.1L110.2,256.5L109.8,254.3L108.2,255.1L103.2,249.4L100.6,238.1L91.4,236.0L91.4,228.9L88.2,223.9L84.1,221.6L82.0,221.9L80.3,223.7L84.7,223.5L86.9,224.7L82.3,224.3L71.5,226.4L66.2,226.1L54.0,227.4L51.7,229.8L41.8,226.8L40.0,225.5L37.6,226.7L33.5,225.8L30.3,226.5L29.1,227.5L29.0,229.2L12.9,228.2L6.1,230.7L3.9,229.0L0.0,230.5L0.0,208.3L2.4,206.7L4.7,206.9L6.1,204.3L8.5,203.0L15.3,201.4L22.5,201.3L23.1,197.6L24.3,196.8L24.2,192.9L25.4,192.0L22.7,189.5L17.8,190.2L14.6,189.3L15.8,184.8L14.6,170.1L11.0,170.4L6.9,166.9L0.0,165.2Z"/><path class="land" fill-rule="evenodd" d="M700.0,380.2L694.3,373.4L694.9,370.7L692.8,363.8L690.7,363.7L689.3,362.5L687.8,359.4L690.6,359.8L695.1,358.0L694.3,351.3L696.2,347.5L696.4,341.1L700.0,336.6Z"/><path class="land" fill-rule="evenodd" d="M203.6,0.0L197.4,1.9L189.3,6.1L186.6,5.2L184.3,0.0L119.9,0.0L118.0,1.0L115.1,0.0Z"/><path class="land" fill-rule="evenodd" d="M53.7,0.0L49.9,11.1L45.9,15.0L40.7,17.3L39.1,19.2L22.0,22.4L22.7,25.7L20.5,30.2L13.4,33.9L9.0,34.0L6.0,35.6L0.0,30.5L0.0,0.0Z"/></g><g id="rivers"><path class="river part-shape" data-part="し" d="M209.6,46.2L210.9,53.3L210.0,55.5L208.2,56.7"/><path class="river part-shape" data-part="し" d="M113.9,254.7L115.2,252.8"/><path class="river part-shape" data-part="し" d="M109.8,254.3L111.1,253.6L111.1,251.5"/><path class="river part-shape" data-part="し" d="M115.2,252.8L117.0,253.0L117.4,255.7"/><path class="river part-shape" data-part="し" d="M115.2,252.8L115.2,251.7L111.1,251.5"/><path class="river part-shape" data-part="し" d="M111.1,251.5L110.1,250.7"/><path class="river part-shape" data-part="し" d="M344.8,88.6L338.9,82.7"/><path class="river part-shape" data-part="し" d="M339.1,82.9L337.2,80.1L331.4,75.2L323.6,73.7L315.9,70.0L312.6,65.7L302.0,56.3L291.0,52.7L277.8,44.6L276.5,43.0L276.3,40.4L270.3,34.8L269.6,33.1L263.8,31.9L257.9,27.4L249.5,25.4L247.0,22.6L246.1,22.8L245.6,27.2L244.5,29.2L242.3,30.2L237.6,30.9L222.1,28.4L219.8,29.7L219.3,32.5L217.3,34.9L211.7,38.8L211.4,40.1L213.0,41.9L210.3,44.2L209.6,46.2"/><path class="river part-shape" data-part="し" d="M208.2,56.7L207.1,57.7L200.2,59.1L198.3,62.8L195.2,63.1L192.8,68.0L189.8,70.5L189.0,75.6L187.7,77.9L183.3,80.9L180.3,91.2L172.3,105.6L171.1,110.8L171.7,118.2L170.5,120.3L171.6,124.4L170.9,132.0L171.6,136.0L168.3,144.9L169.2,148.7L167.4,155.1L163.3,157.2L154.8,163.8L152.2,164.7L146.5,170.2L135.0,175.4L134.7,177.9L133.8,178.4L134.9,180.5L132.7,181.3L129.7,179.5L123.2,182.7L122.4,187.2L120.4,187.8L120.1,190.4L114.9,196.2L115.2,208.0L118.9,211.2L124.0,217.9L123.3,218.5L124.4,221.3L123.3,222.8L122.8,228.9L123.5,230.6L121.4,233.8L120.8,233.4L118.0,235.9L115.4,244.4L113.8,245.1L112.5,248.1L109.4,251.3L106.0,252.0"/><path class="river part-shape" data-part="す" d="M375.2,120.7L373.3,119.5"/><path class="river part-shape" data-part="す" d="M287.1,108.7L285.3,111.3L280.7,108.5"/><path class="river part-shape" data-part="す" d="M376.8,121.4L375.2,120.7"/><path class="river part-shape" data-part="す" d="M373.3,119.5L364.2,114.3L358.1,115.4L352.1,112.1L348.4,108.4L339.4,106.0L336.7,104.4L329.0,103.1L325.7,100.4L316.3,106.1L309.9,105.9L306.4,106.7L303.5,108.8L295.5,111.8L289.4,108.8L287.1,108.7"/><path class="river part-shape" data-part="す" d="M280.7,108.5L279.5,109.8L282.6,113.9L283.2,115.6L282.5,116.6L263.0,116.8L258.7,116.0L252.5,113.2L250.6,113.5L239.9,118.7L233.5,126.0L229.6,129.0L221.3,131.7L206.6,139.2L200.4,140.1L196.8,144.7L195.0,145.6L189.5,146.3L184.7,148.3L179.1,147.5L175.3,149.2"/><path class="river part-shape" data-part="せ" d="M534.4,286.3L533.3,282.0L530.8,279.6"/><path class="river part-shape" data-part="せ" d="M530.8,279.6L530.0,283.0L532.4,290.5L531.9,297.1"/><path class="river part-shape" data-part="せ" d="M514.1,272.5L512.2,279.4L507.8,283.7L507.2,287.4"/><path class="river part-shape" data-part="せ" d="M514.1,272.5L518.8,273.1L521.5,275.0L521.6,277.1L523.2,278.9L526.0,286.3L526.0,289.9"/><path class="river part-shape" data-part="せ" d="M545.9,261.1L546.9,267.3L550.3,270.5L552.9,277.0"/><path class="river part-shape" data-part="せ" d="M527.1,252.9L529.2,256.5L533.7,259.8L534.9,262.5L536.6,263.6L537.4,267.3L544.6,278.3L544.2,282.6"/><path class="river part-shape" data-part="せ" d="M527.1,252.9L534.7,255.8L539.6,255.7"/><path class="river part-shape" data-part="せ" d="M513.3,245.2L518.1,251.6L517.9,252.6L522.4,255.6L522.4,257.6L520.4,261.9L524.8,265.8L527.2,271.4L527.2,274.3L530.8,279.6"/><path class="river part-shape" data-part="せ" d="M513.3,245.2L518.0,246.4L519.6,247.4L520.5,250.0L523.6,249.8L527.1,252.9"/><path class="river part-shape" data-part="せ" d="M504.0,236.7L504.4,239.8L509.0,245.2L510.2,248.2L509.1,258.6L512.3,261.9L512.9,267.3L515.0,269.6L514.1,272.5"/><path class="river part-shape" data-part="せ" d="M504.0,236.7L508.4,243.3L511.1,243.4L513.3,245.2"/><path class="river part-shape" data-part="せ" d="M346.9,118.8L347.4,122.9L345.0,125.5L339.7,126.1L335.1,130.3L326.2,131.1L323.0,133.9L316.6,134.3L314.4,138.3L314.7,140.6L311.9,143.8L311.5,146.0L313.2,152.0L313.0,157.8L316.6,168.1L319.5,172.2L327.7,177.1L332.7,178.5L335.5,181.2L340.6,183.4L344.8,190.2L348.5,192.0L351.8,197.6L362.7,211.2L364.8,212.6L369.0,212.9L371.8,214.1L378.3,220.8L382.8,223.3L387.1,223.9L387.0,225.3L389.7,227.3L398.9,229.8L400.9,229.1L406.0,230.6L411.0,226.6L411.6,223.4L417.8,224.7L418.4,223.0L420.0,222.0L421.4,221.5L425.2,223.2L431.1,219.3L432.2,219.8L436.1,218.8L440.1,219.6L443.9,218.8L449.5,220.1L453.8,222.8L462.5,223.7L468.6,227.0L471.3,227.4L477.8,224.6L479.7,228.0L483.0,227.0L490.4,228.1L491.5,226.7L494.7,225.7L501.3,229.6L501.3,230.9L504.4,234.2L504.0,236.7"/></g><g id="markers"><g class="marker m-zone" data-part="あ" transform="translate(38.9,330.6)"><circle class="hit" r="16"/><circle class="dot" r="4"/></g><g class="marker m-zone" data-part="い" transform="translate(350.0,709.7)"><circle class="hit" r="16"/><circle class="dot" r="4"/></g><g class="marker m-zone" data-part="う" transform="translate(58.3,427.8)"><circle class="hit" r="16"/><circle class="dot" r="4"/></g><g class="marker m-zone" data-part="え" transform="translate(525.0,427.8)"><circle class="hit" r="16"/><circle class="dot" r="4"/></g><g class="marker m-island" data-part="お" transform="translate(363.6,565.8)"><circle class="hit" r="16"/><circle class="dot" r="4"/></g><g class="marker m-zone" data-part="か" transform="translate(282.1,21.8)"><circle class="hit" r="16"/><circle class="dot" r="4"/></g><g class="marker m-zone" data-part="き" transform="translate(252.8,35.0)"><circle class="hit" r="16"/><circle class="dot" r="4"/></g><g class="marker m-zone" data-part="く" transform="translate(427.8,165.3)"><circle class="hit" r="16"/><circle class="dot" r="4"/></g><g class="marker m-zone" data-part="け" transform="translate(484.8,175.2)"><circle class="hit" r="16"/><circle class="dot" r="4"/></g><g class="marker m-zone" data-part="こ" transform="translate(291.7,388.9)"><circle class="hit" r="16"/><circle class="dot" r="4"/></g><g class="marker m-zone" data-part="さ" transform="translate(369.4,204.2)"><circle class="hit" r="16"/><circle class="dot" r="4"/></g><g class="marker m-zone" data-part="し" transform="translate(126.4,184.7)"><circle class="hit" r="16"/><circle class="dot" r="4"/></g><g class="marker m-zone" data-part="す" transform="translate(243.1,126.4)"><circle class="hit" r="16"/><circle class="dot" r="4"/></g><g class="marker m-zone" data-part="せ" transform="translate(408.3,223.6)"><circle class="hit" r="16"/><circle class="dot" r="4"/></g><g class="marker m-zone" data-part="そ" transform="translate(184.7,204.2)"><circle class="hit" r="16"/><circle class="dot" r="4"/></g><g class="marker m-zone" data-part="た" transform="translate(252.8,58.3)"><circle class="hit" r="16"/><circle class="dot" r="4"/></g><g class="marker m-zone" data-part="ち" transform="translate(223.6,116.7)"><circle class="hit" r="16"/><circle class="dot" r="4"/></g><g class="marker m-zone" data-part="つ" transform="translate(612.5,204.2)"><circle class="hit" r="16"/><circle class="dot" r="4"/></g><g class="marker m-zone" data-part="て" transform="translate(307.8,29.0)"><circle class="hit" r="16"/><circle class="dot" r="4"/></g><g class="marker m-city" data-part="1" transform="translate(248.9,56.8)"><circle class="hit" r="16"/><circle class="dot" r="4"/></g><g class="marker m-city" data-part="2" transform="translate(97.4,236.1)"><circle class="hit" r="16"/><circle class="dot" r="4"/></g><g class="marker m-city" data-part="3" transform="translate(205.5,271.6)"><circle class="hit" r="16"/><circle class="dot" r="4"/></g><g class="marker m-city" data-part="4" transform="translate(211.6,348.4)"><circle class="hit" r="16"/><circle class="dot" r="4"/></g><g class="marker m-city" data-part="5" transform="translate(303.1,467.2)"><circle class="hit" r="16"/><circle class="dot" r="4"/></g><g class="marker m-city" data-part="6" transform="translate(355.2,465.1)"><circle class="hit" r="16"/><circle class="dot" r="4"/></g><g class="marker m-city" data-part="7" transform="translate(295.7,163.1)"><circle class="hit" r="16"/><circle class="dot" r="4"/></g><g class="marker m-city" data-part="8" transform="translate(408.5,227.1)"><circle class="hit" r="16"/><circle class="dot" r="4"/></g><g class="marker m-city" data-part="9" transform="translate(449.9,221.9)"><circle class="hit" r="16"/><circle class="dot" r="4"/></g><g class="marker m-city" data-part="10" transform="translate(512.6,280.6)"><circle class="hit" r="16"/><circle class="dot" r="4"/></g><g class="marker m-city" data-part="11" transform="translate(453.4,180.6)"><circle class="hit" r="16"/><circle class="dot" r="4"/></g><g class="marker m-city" data-part="12" transform="translate(537.4,185.3)"><circle class="hit" r="16"/><circle class="dot" r="4"/></g><g class="marker m-city" data-part="13" transform="translate(552.4,256.5)"><circle class="hit" r="16"/><circle class="dot" r="4"/></g><g class="marker m-city" data-part="14" transform="translate(347.3,584.7)"><circle class="hit" r="16"/><circle class="dot" r="4"/></g><g class="marker m-city" data-part="15" transform="translate(223.8,638.4)"><circle class="hit" r="16"/><circle class="dot" r="4"/></g></g></svg>