<svg xmlns="http://www.w3.org/2000/svg" viewBox="0 0 700 370" data-region="europe"><style>.land{fill:#eef1ec;stroke:#94a3ae;stroke-width:.7;vector-effect:non-scaling-stroke}.river{fill:none;stroke:#8db8da;stroke-width:1.3;stroke-linecap:round;vector-effect:non-scaling-stroke}.grid{stroke:#d3dae1;stroke-width:.5}.grid-q{stroke:#9aa7b5;stroke-width:1.1;stroke-dasharray:6 4}.marker .hit{fill:#000;fill-opacity:0;pointer-events:all}.marker .dot{fill:#3a3a3c;stroke:#fff;stroke-width:1.2}.m-city .dot{fill:#1c1c1e}</style><g id="grid"><line class="grid" x1="0.0" y1="0" x2="0.0" y2="370"/><line class="grid" x1="50.0" y1="0" x2="50.0" y2="370"/><line class="grid" x1="100.0" y1="0" x2="100.0" y2="370"/><line class="grid" x1="150.0" y1="0" x2="150.0" y2="370"/><line class="grid" x1="200.0" y1="0" x2="200.0" y2="370"/><line class="grid" x1="250.0" y1="0" x2="250.0" y2="370"/><line class="grid" x1="300.0" y1="0" x2="300.0" y2="370"/><line class="grid" x1="350.0" y1="0" x2="350.0" y2="370"/><line class="grid" x1="400.0" y1="0" x2="400.0" y2="370"/><line class="grid" x1="450.0" y1="0" x2="450.0" y2="370"/><line class="grid" x1="500.0" y1="0" x2="500.0" y2="370"/><line class="grid" x1="550.0" y1="0" x2="550.0" y2="370"/><line class="grid" x1="600.0" y1="0" x2="600.0" y2="370"/><line class="grid" x1="650.0" y1="0" x2="650.0" y2="370"/><line class="grid" x1="700.0" y1="0" x2="700.0" y2="370"/><line class="grid" x1="0" y1="360.0" x2="700" y2="360.0"/><line class="grid" x1="0" y1="310.0" x2="700" y2="310.0"/><line class="grid" x1="0" y1="260.0" x2="700" y2="260.0"/><line class="grid" x1="0" y1="210.0" x2="700" y2="210.0"/><line class="grid" x1="0" y1="160.0" x2="700" y2="160.0"/><line class="grid" x1="0" y1="110.0" x2="700" y2="110.0"/><line class="grid" x1="0" y1="60.0" x2="700" y2="60.0"/><line class="grid" x1="0" y1="10.0" x2="700" y2="10.0"/><line class="grid-q part-shape" data-part="あ" x1="400.0" y1="0" x2="400.0" y2="370"/><line class="grid-q part-shape" data-part="い" x1="550.0" y1="0" x2="550.0" y2="370"/><line class="grid-q part-shape" data-part="う" x1="0" y1="110.0" x2="700" y2="110.0"/><line class="grid-q part-shape" data-part="え" x1="0" y1="210.0" x2="700" y2="210.0"/><line class="grid-q part-shape" data-part="お" x1="0" y1="310.0" x2="700" y2="310.0"/></g><g id="land"><path class="land" fill-rule="evenodd" d="M450.6,284.5L455.2,288.3L455.8,290.8L454.5,294.8L454.9,297.3L457.1,300.7L459.3,301.0L460.3,303.4L459.5,305.1L458.1,305.5L456.6,308.8L453.1,310.2L453.8,312.0L452.1,313.5L450.0,312.9L448.5,309.6L444.8,307.9L443.2,305.9L444.6,305.9L443.4,303.4L444.6,300.7L444.4,295.8L445.8,293.6L445.8,292.1L443.4,291.3L443.6,289.3L442.8,288.3L446.5,283.7L447.3,283.7L447.9,285.2L450.6,284.5Z"/><path class="land" fill-rule="evenodd" d="M456.1,109.6L454.0,109.6L456.1,109.6Z"/><path class="land" fill-rule="evenodd" d="M446.6,108.1L445.8,108.6L445.2,108.2L446.3,107.5L446.6,108.1Z"/><path class="land" fill-rule="evenodd" d="M449.9,106.5L452.6,107.4L450.4,108.2L450.3,109.1L447.5,109.0L446.9,107.3L448.5,107.8L448.2,106.1L449.9,106.5Z"/><path class="land" fill-rule="evenodd" d="M264.9,285.7L264.1,284.5L264.6,283.8L267.4,284.2L264.9,285.7Z"/><path class="land" fill-rule="evenodd" d="M700.0,312.4L697.7,313.0L692.9,309.6L690.1,309.9L686.7,308.7L687.1,308.3L685.7,305.2L687.2,302.8L686.3,300.7L684.4,298.9L698.4,297.9L698.1,297.4L700.0,297.1ZM699.7,299.7L700.0,299.2L699.7,299.7Z"/><path class="land" fill-rule="evenodd" d="M419.5,224.0L418.7,226.1L421.5,229.9L420.3,231.6L420.7,232.9L417.9,233.2L415.9,232.5L414.2,233.3L416.8,234.6L414.4,236.0L414.5,239.9L410.4,241.6L409.6,243.2L398.9,243.9L395.5,246.0L374.8,243.3L371.5,240.6L371.7,239.2L367.8,240.1L362.4,240.2L359.3,242.3L354.5,241.4L353.5,240.2L351.3,241.5L345.8,239.4L345.3,237.3L346.3,235.3L345.2,234.8L347.5,234.2L352.0,236.4L351.8,237.2L353.7,236.3L354.4,234.5L358.7,234.8L360.4,236.1L367.2,234.2L371.9,233.8L372.1,232.8L374.8,233.6L376.9,233.3L380.1,235.2L380.5,233.4L379.0,232.8L379.5,231.1L377.6,229.2L378.1,228.4L383.7,226.4L384.9,224.2L387.2,224.6L388.1,222.3L390.5,224.0L396.9,224.0L397.9,222.5L399.2,222.3L399.9,220.0L408.3,221.4L410.6,222.5L415.4,222.0L418.8,223.0L419.5,224.0Z"/><path class="land" fill-rule="evenodd" d="M697.7,313.0L700.0,312.4L700.0,315.8L697.7,313.0Z"/><path class="land" fill-rule="evenodd" d="M699.7,299.7L700.0,299.2L699.7,299.7Z"/><path class="land" fill-rule="evenodd" d="M309.9,202.5L312.4,204.0L311.8,204.8L313.4,205.5L313.6,206.8L311.8,207.7L311.2,208.8L309.8,208.3L307.4,210.8L307.2,211.9L308.8,213.6L308.2,214.5L305.1,214.9L302.8,213.2L298.7,212.1L297.9,210.4L298.6,208.6L295.5,210.4L291.8,210.4L291.7,207.5L289.5,206.6L286.9,206.9L286.0,205.2L282.7,204.7L281.1,202.2L277.6,202.5L276.0,201.2L275.2,199.0L283.5,196.2L284.3,197.5L285.8,197.1L289.0,197.9L292.3,196.1L294.0,196.3L293.8,195.7L295.0,195.3L296.3,195.8L297.6,195.1L298.5,196.0L300.3,195.3L302.1,197.2L304.8,197.1L308.0,198.5L307.5,200.5L306.4,201.6L307.5,202.4L309.9,202.5Z"/><path class="land" fill-rule="evenodd" d="M535.9,272.6L535.6,275.0L534.7,276.1L531.3,276.0L529.3,278.1L528.9,282.5L524.8,285.3L527.1,286.5L530.1,290.3L525.3,290.8L522.4,289.1L516.2,290.4L513.2,292.8L511.1,292.7L511.4,296.1L509.2,296.9L502.5,297.6L499.9,296.4L497.7,296.4L494.9,294.4L479.2,296.6L480.0,292.6L478.4,290.1L473.4,286.9L475.2,285.6L474.4,283.7L474.7,281.6L477.1,281.2L479.8,278.1L475.5,275.5L473.7,272.2L474.2,269.9L476.0,269.2L477.1,267.6L480.3,269.2L478.7,270.5L479.2,271.7L482.2,271.3L505.0,273.3L512.2,269.9L520.9,268.3L524.3,269.8L528.8,270.1L530.5,271.8L532.2,272.3L535.9,272.6Z"/><path class="land" fill-rule="evenodd" d="M440.1,261.3L443.5,261.2L441.2,266.4L445.8,269.6L442.5,270.3L445.0,273.6L444.5,274.4L439.5,274.7L440.3,277.1L438.5,276.5L436.7,277.7L436.2,279.7L434.4,280.3L435.5,283.6L434.4,284.4L428.0,281.0L425.9,280.6L426.5,279.9L422.9,276.9L422.7,275.5L420.8,274.8L413.0,268.8L411.0,264.8L407.4,262.3L408.2,258.0L410.3,258.1L412.9,259.9L415.3,257.8L417.9,258.0L419.2,257.2L421.3,258.3L426.5,258.4L428.1,259.2L430.0,258.6L436.6,259.2L438.4,261.2L440.1,261.3Z"/><path class="land" fill-rule="evenodd" d="M531.5,148.6L532.8,149.4L535.6,149.1L537.9,150.6L540.3,149.8L543.8,150.6L543.5,152.2L544.8,153.2L549.4,151.5L552.3,151.5L559.1,154.3L559.0,156.0L558.1,156.9L559.8,159.5L558.0,162.2L561.5,163.7L560.7,165.1L564.0,168.0L568.3,169.7L567.5,171.9L574.5,173.1L574.7,174.5L577.1,175.8L577.0,176.6L571.4,179.1L564.2,178.0L562.6,179.8L565.6,182.4L565.8,186.9L567.6,189.0L560.8,189.2L557.6,191.0L555.3,194.0L556.3,196.4L555.4,197.3L551.6,195.2L543.5,196.2L541.0,193.7L537.3,195.7L536.0,194.6L531.8,193.9L528.6,194.1L527.0,195.2L526.9,194.3L523.0,194.0L521.4,192.5L507.9,190.8L493.6,191.3L489.8,194.1L487.1,193.6L486.1,193.9L486.1,194.8L485.4,192.9L486.5,189.6L481.8,187.1L484.1,184.8L488.4,183.4L489.2,182.3L488.6,178.9L484.8,170.6L491.9,170.5L493.2,171.1L497.7,170.3L498.7,168.5L500.5,168.7L504.6,167.1L505.1,168.4L507.5,168.4L507.5,167.4L505.5,166.7L508.6,160.8L511.8,160.0L512.9,158.6L516.0,158.7L517.8,157.3L514.6,156.6L515.9,153.3L520.5,151.7L525.8,152.0L529.0,149.2L531.5,148.6Z"/><path class="land" fill-rule="evenodd" d="M345.8,239.4L351.3,241.5L354.1,240.4L354.3,244.5L350.9,244.0L350.4,245.2L351.5,247.5L350.8,247.7L349.4,246.4L345.8,247.0L344.3,245.2L342.6,245.2L342.5,247.1L340.0,249.9L340.2,251.5L337.8,250.0L338.2,249.2L334.6,247.5L334.2,245.5L331.0,247.3L331.3,248.4L327.9,250.8L325.4,250.2L320.6,251.0L317.7,248.3L318.2,247.2L317.6,245.8L314.3,245.7L312.3,246.7L312.7,247.5L312.0,248.1L309.7,248.5L311.0,247.2L310.6,245.7L311.6,243.9L314.1,242.4L314.6,240.5L319.5,237.3L320.0,236.6L319.0,236.1L320.5,235.1L322.7,235.7L326.2,234.1L334.5,234.0L335.7,233.5L334.0,233.1L335.7,232.2L338.8,233.4L341.8,233.3L346.3,235.3L344.8,238.3L344.9,239.4L345.8,239.4Z"/><path class="land" fill-rule="evenodd" d="M590.0,359.3L584.8,360.0L583.8,358.4L579.2,359.1L577.1,358.3L578.8,358.2L579.4,356.1L586.1,356.5L595.6,353.4L589.4,357.1L589.1,358.0L590.0,359.3Z"/><path class="land" fill-rule="evenodd" d="M577.1,358.3L579.2,359.1L583.8,358.4L584.8,360.0L588.7,359.1L590.5,360.1L587.0,360.3L584.1,362.5L581.2,363.0L579.4,364.2L578.7,363.4L574.5,362.7L573.2,360.5L573.0,359.2L573.9,359.5L577.1,358.3Z"/><path class="land" fill-rule="evenodd" d="M419.5,224.0L418.8,223.0L415.4,222.0L410.6,222.5L408.3,221.4L399.9,220.0L399.2,222.3L397.9,222.5L396.9,224.0L390.5,224.0L385.5,220.4L384.4,220.4L376.8,215.9L373.9,212.6L375.1,211.0L372.1,209.0L370.9,207.0L372.8,208.2L375.5,206.1L379.4,205.9L385.6,203.0L393.7,201.0L392.8,199.7L395.5,200.1L397.2,201.9L399.8,201.1L399.9,199.9L402.6,200.4L403.5,201.9L410.1,203.9L413.6,203.8L414.2,204.3L413.8,204.8L412.1,205.8L416.4,209.0L419.9,207.6L418.8,205.7L424.2,207.5L427.0,206.9L427.1,208.1L425.9,208.4L427.9,209.9L430.3,209.6L435.2,211.0L438.1,213.9L438.3,214.9L436.0,215.1L431.6,217.4L430.5,219.6L426.3,221.6L421.4,221.6L419.5,224.0Z"/><path class="land" fill-rule="evenodd" d="M388.1,222.3L387.2,224.6L384.9,224.2L383.7,226.4L377.6,228.9L379.5,231.1L379.0,232.8L380.5,233.4L380.1,235.2L376.9,233.3L374.8,233.6L372.1,232.8L371.9,233.8L367.2,234.2L360.4,236.1L358.7,234.8L354.4,234.5L353.7,236.3L351.8,237.2L352.0,236.4L348.4,234.5L345.2,234.8L341.8,233.3L338.8,233.4L335.7,232.2L334.0,233.1L335.7,233.6L334.3,234.1L325.7,233.9L326.2,228.4L328.4,223.6L331.4,221.1L331.3,220.3L324.5,218.5L317.4,218.4L315.3,216.1L313.4,215.5L314.9,212.0L312.6,211.3L311.1,209.1L311.8,207.7L313.6,206.8L313.4,205.5L311.8,204.8L312.4,204.0L309.9,202.5L310.5,201.0L308.6,199.7L311.3,198.5L310.8,197.8L312.0,195.5L309.5,192.0L317.4,190.9L318.0,190.2L317.2,189.2L320.2,187.3L320.0,185.8L316.9,184.7L317.5,183.7L320.1,183.7L321.8,180.3L322.0,177.2L320.5,176.2L322.1,173.5L330.1,173.1L331.7,174.6L331.1,175.3L332.5,175.5L333.3,173.9L334.9,174.9L335.0,176.1L335.3,172.2L336.2,171.2L342.1,171.4L345.9,174.0L347.8,174.5L343.1,171.4L339.8,170.7L339.0,170.0L339.1,167.4L336.4,167.1L336.5,166.0L339.5,165.3L339.6,164.6L336.8,162.1L336.7,161.0L342.5,161.9L346.2,161.4L350.2,163.3L350.3,164.2L348.7,165.3L351.4,165.1L352.1,165.9L353.6,165.6L357.3,166.8L360.1,166.2L360.6,167.2L360.1,168.2L358.1,169.2L359.2,170.0L364.0,170.6L368.0,168.5L371.1,168.3L375.8,165.3L380.3,165.9L384.5,168.6L387.2,168.5L388.7,171.5L392.6,172.7L394.1,178.0L391.3,181.2L396.2,184.7L395.5,186.4L397.5,189.2L396.0,191.7L397.2,193.4L397.2,194.8L399.4,195.6L400.2,197.5L399.6,199.0L397.7,201.8L396.1,201.4L395.5,200.1L393.2,199.6L392.6,200.0L393.7,201.0L385.6,203.0L379.4,205.9L375.5,206.1L372.8,208.2L371.3,206.9L370.9,207.3L372.1,209.0L375.1,211.0L373.9,212.6L376.8,215.9L388.1,222.3Z"/><path class="land" fill-rule="evenodd" d="M392.1,171.3L389.3,171.2L388.3,168.7L392.1,170.5L392.1,171.3Z"/><path class="land" fill-rule="evenodd" d="M362.8,165.8L360.1,165.3L360.8,164.7L362.8,165.8Z"/><path class="land" fill-rule="evenodd" d="M387.1,166.2L387.1,167.2L384.8,166.6L383.6,167.5L381.6,166.4L381.8,164.6L384.2,163.0L386.6,164.4L385.8,165.4L387.1,166.2Z"/><path class="land" fill-rule="evenodd" d="M335.9,162.9L334.0,162.9L335.9,162.9Z"/><path class="land" fill-rule="evenodd" d="M333.1,162.1L333.0,160.9L334.1,159.4L333.8,161.0L336.3,161.1L333.1,162.1Z"/><path class="land" fill-rule="evenodd" d="M347.4,161.7L342.5,161.9L336.7,161.0L335.7,158.7L336.7,158.4L336.2,155.8L331.3,154.0L332.0,150.2L331.2,148.6L331.6,143.9L336.7,145.0L338.9,142.6L340.7,142.1L342.0,143.0L342.5,139.9L341.1,139.6L339.9,139.8L337.7,142.7L334.7,143.4L332.7,141.8L336.2,138.9L344.3,138.3L349.6,134.2L356.1,132.6L354.4,134.4L355.4,135.5L355.2,137.6L353.0,140.0L352.8,143.8L354.9,144.8L358.5,144.8L359.3,145.6L357.5,147.6L355.4,148.0L354.3,147.2L353.2,147.9L351.8,151.3L349.0,151.6L350.2,152.4L345.9,155.1L346.7,157.3L344.5,159.6L347.3,160.3L347.4,161.7Z"/><path class="land" fill-rule="evenodd" d="M363.6,161.1L367.4,161.9L367.7,163.2L364.6,163.7L360.4,162.3L360.6,160.6L363.6,161.1Z"/><path class="land" fill-rule="evenodd" d="M354.8,161.5L352.0,160.4L354.8,161.5Z"/><path class="land" fill-rule="evenodd" d="M375.5,160.3L371.2,160.9L372.7,159.4L375.5,160.3Z"/><path class="land" fill-rule="evenodd" d="M350.6,161.1L348.1,160.9L347.7,159.4L350.0,160.1L350.6,161.1Z"/><path class="land" fill-rule="evenodd" d="M357.3,162.5L356.2,161.5L359.5,158.4L357.3,162.5Z"/><path class="land" fill-rule="evenodd" d="M400.9,159.8L396.8,159.0L397.1,157.6L397.7,157.0L401.3,158.6L400.9,159.8Z"/><path class="land" fill-rule="evenodd" d="M356.5,153.9L358.2,156.8L357.9,158.7L356.2,159.5L349.9,158.4L348.6,156.4L348.6,154.8L356.5,153.9Z"/><path class="land" fill-rule="evenodd" d="M376.7,154.0L375.5,154.4L375.2,153.9L376.2,153.2L376.7,154.0Z"/><path class="land" fill-rule="evenodd" d="M356.1,152.2L355.3,152.2L355.5,150.1L356.6,151.2L356.1,152.2Z"/><path class="land" fill-rule="evenodd" d="M375.7,152.1L375.5,153.4L373.2,154.1L372.2,155.3L373.9,156.1L374.1,157.1L370.9,158.1L370.5,161.8L368.6,162.3L366.5,158.1L362.9,158.0L361.7,156.7L361.2,154.0L359.8,152.8L363.2,152.5L364.7,150.6L366.3,150.4L367.0,150.9L366.9,152.7L368.2,153.0L369.3,151.0L368.7,150.3L372.2,148.8L375.8,149.4L375.7,152.1Z"/><path class="land" fill-rule="evenodd" d="M360.5,137.5L358.7,137.4L361.7,136.8L360.5,137.5Z"/><path class="land" fill-rule="evenodd" d="M333.1,359.2L331.9,363.5L328.4,365.9L325.0,370.0L233.1,370.0L232.1,366.3L232.6,365.0L231.5,363.9L232.0,362.5L227.8,359.0L230.9,359.1L233.3,358.2L239.1,354.2L245.7,351.4L249.5,351.7L253.1,348.4L262.6,344.8L275.9,344.0L279.7,342.2L285.2,342.0L287.8,341.0L297.6,341.0L303.0,343.5L310.6,341.4L314.9,339.1L319.3,340.8L322.4,340.3L322.0,339.1L329.1,341.4L335.8,340.6L336.0,341.7L332.1,344.8L333.5,346.3L332.5,351.3L333.9,358.0L333.1,359.2Z"/><path class="land" fill-rule="evenodd" d="M264.3,284.0L264.5,285.6L267.1,285.0L270.3,286.5L272.0,285.8L276.5,286.6L278.9,285.4L282.1,285.7L283.1,287.1L281.7,287.4L281.5,288.4L282.5,290.6L270.8,297.1L260.3,299.4L257.1,301.8L258.9,302.8L256.0,303.9L246.7,314.8L248.0,319.4L252.0,322.4L244.8,326.8L241.9,332.3L242.8,333.7L236.7,334.4L233.6,336.1L230.6,340.5L228.1,342.5L225.5,341.7L222.1,342.9L206.3,342.8L203.3,344.9L198.3,345.8L196.4,348.7L193.7,349.7L189.6,348.1L187.3,344.0L186.2,343.6L185.9,342.7L187.8,340.9L186.0,341.7L181.2,338.1L181.4,337.2L180.3,338.0L175.9,338.2L175.0,334.1L177.1,330.9L179.8,329.6L180.4,328.1L178.9,328.2L176.6,325.4L177.2,322.9L179.5,320.9L180.0,319.4L178.3,318.6L176.6,315.3L174.6,313.4L178.8,313.2L180.2,312.0L181.0,309.8L179.7,308.3L181.9,306.6L181.6,302.2L180.7,299.9L187.8,294.4L184.6,293.3L183.8,290.6L178.5,290.2L176.0,291.7L170.8,291.2L168.5,291.9L167.8,291.0L168.7,289.8L167.3,288.6L161.5,290.7L161.1,288.9L163.1,287.3L161.8,287.1L162.7,285.9L161.9,285.3L161.9,283.6L159.7,284.1L160.7,282.0L158.7,281.3L157.6,279.6L158.2,278.3L161.3,276.7L166.4,276.0L167.5,275.6L167.4,274.2L173.0,272.4L179.4,274.5L191.5,273.5L204.8,275.8L214.0,274.8L219.5,276.3L221.2,275.5L226.6,276.7L232.1,275.9L232.9,276.9L235.9,277.6L235.4,279.5L237.0,279.0L242.4,280.6L244.1,282.0L247.0,281.7L249.6,283.1L256.3,283.1L257.0,281.5L262.9,282.9L264.3,284.0Z"/><path class="land" fill-rule="evenodd" d="M265.9,323.3L264.0,322.9L264.4,322.3L265.9,323.3Z"/><path class="land" fill-rule="evenodd" d="M264.5,320.8L264.1,321.4L262.2,321.0L263.5,319.2L266.1,319.1L264.5,320.8Z"/><path class="land" fill-rule="evenodd" d="M281.5,312.1L284.0,312.2L284.6,313.0L282.4,316.1L280.7,317.0L278.0,316.1L277.0,314.6L275.0,315.2L273.7,314.3L277.8,311.5L281.6,310.3L281.5,312.1Z"/><path class="land" fill-rule="evenodd" d="M292.9,311.6L288.7,310.4L288.5,309.4L292.3,309.7L292.9,311.6Z"/><path class="land" fill-rule="evenodd" d="M476.2,123.8L479.6,123.9L483.2,125.5L481.3,125.6L477.3,127.7L473.7,127.8L471.5,130.3L470.0,130.7L469.9,130.0L471.9,128.5L468.8,127.4L469.8,126.1L468.6,125.0L472.7,124.9L473.3,124.2L476.2,123.8Z"/><path class="land" fill-rule="evenodd" d="M483.4,124.5L480.6,123.9L481.7,123.2L483.3,123.5L483.4,124.5Z"/><path class="land" fill-rule="evenodd" d="M479.2,121.7L475.4,123.1L474.1,121.4L470.6,120.6L474.6,120.3L476.5,119.1L479.1,120.1L480.1,121.7L479.2,121.7Z"/><path class="land" fill-rule="evenodd" d="M530.1,115.2L531.5,116.3L529.0,117.2L527.6,119.5L524.3,122.1L525.3,125.6L525.0,127.8L527.8,131.3L525.4,132.0L523.5,134.7L519.7,133.9L514.6,134.6L509.9,131.6L502.8,129.5L493.2,131.3L495.3,126.5L493.4,126.2L491.1,127.3L487.7,126.4L485.1,123.4L486.8,122.1L485.0,122.1L484.3,120.8L485.2,120.0L484.9,118.0L490.8,117.1L490.5,116.3L493.8,115.3L504.4,114.8L505.1,113.6L516.2,114.5L519.7,115.5L528.9,115.9L530.1,115.2Z"/><path class="land" fill-rule="evenodd" d="M466.3,108.9L464.9,108.7L466.3,108.3L466.3,108.9Z"/><path class="land" fill-rule="evenodd" d="M468.3,108.6L467.0,108.9L467.6,108.0L468.6,108.0L468.3,108.6Z"/><path class="land" fill-rule="evenodd" d="M471.8,106.3L474.2,107.0L473.1,107.3L473.6,108.3L470.8,107.1L471.8,106.3Z"/><path class="land" fill-rule="evenodd" d="M469.9,106.6L468.2,106.2L468.3,105.3L469.9,106.6Z"/><path class="land" fill-rule="evenodd" d="M464.5,104.7L463.0,105.2L462.1,104.0L464.5,104.7Z"/><path class="land" fill-rule="evenodd" d="M462.2,77.6L464.2,77.5L462.5,78.5L460.8,77.2L462.2,77.6Z"/><path class="land" fill-rule="evenodd" d="M498.5,60.1L495.8,60.2L495.8,59.6L500.0,59.6L498.5,60.1Z"/><path class="land" fill-rule="evenodd" d="M539.7,19.8L534.1,21.0L537.7,21.6L534.8,24.6L535.6,26.5L536.9,28.1L543.4,29.4L549.9,33.3L549.4,34.5L542.4,39.0L540.7,41.1L549.0,49.1L550.9,52.1L551.0,53.2L547.2,53.8L548.2,54.3L546.1,57.5L548.3,58.5L546.0,60.3L547.8,62.0L551.1,62.7L551.2,63.6L549.9,64.8L551.1,66.3L554.9,67.6L555.3,69.2L552.1,72.0L549.9,72.6L561.8,77.9L565.1,80.4L565.3,81.1L562.9,84.3L542.5,97.1L526.7,105.0L524.6,105.4L522.1,104.6L515.3,105.9L515.7,103.8L513.8,105.8L509.6,105.3L510.4,106.6L507.6,107.3L506.6,106.7L496.0,108.9L494.5,109.8L484.6,110.1L480.2,111.8L479.6,111.7L482.0,109.8L479.1,107.9L477.5,109.4L474.6,109.7L474.4,108.4L475.9,107.7L475.1,107.2L475.8,106.2L468.5,104.9L468.1,104.1L466.1,104.7L464.4,104.0L463.6,100.3L465.1,97.2L465.1,95.2L465.7,95.2L465.0,94.5L466.1,94.1L462.6,90.1L463.5,87.8L463.2,86.6L461.7,85.9L461.4,82.6L464.6,80.5L464.7,79.7L466.5,79.6L465.5,78.0L473.2,76.9L472.4,75.6L473.5,75.6L473.2,75.0L474.0,75.1L475.3,73.5L486.0,69.6L492.8,64.8L495.6,62.0L499.4,61.2L502.9,61.4L502.3,60.5L503.7,59.9L502.6,58.6L503.5,55.2L496.7,53.3L495.8,52.4L496.3,51.4L494.0,52.2L491.6,51.9L489.1,48.5L487.2,47.8L486.8,45.6L488.7,44.2L489.9,41.9L486.4,38.7L486.3,37.7L487.7,36.7L487.3,35.8L484.5,35.4L485.4,33.9L485.0,31.2L486.4,30.5L481.8,28.6L481.0,27.4L478.5,26.3L470.0,24.8L456.2,19.6L460.7,19.6L461.3,19.2L460.7,17.9L465.9,17.3L473.0,21.4L474.1,22.8L483.2,23.5L488.5,21.9L499.4,24.1L502.5,21.8L507.5,20.1L507.7,17.2L510.7,13.1L515.3,10.8L521.3,10.9L527.5,9.4L534.1,11.8L541.4,13.3L543.3,15.3L538.5,18.2L539.7,19.8Z"/><path class="land" fill-rule="evenodd" d="M267.1,285.0L267.1,284.0L264.3,284.0L263.5,283.1L257.6,281.6L256.7,281.6L256.3,283.1L255.2,283.1L249.6,283.1L247.0,281.7L244.1,282.0L242.4,280.6L237.0,279.0L235.7,279.6L235.2,279.3L235.9,277.6L232.5,276.8L232.1,275.9L235.2,274.4L237.5,264.4L239.2,263.1L238.5,262.4L237.5,263.3L239.2,254.7L241.7,256.2L243.1,259.1L244.5,260.0L242.1,255.3L238.0,252.9L237.9,252.3L239.7,252.6L238.5,246.9L232.1,244.9L229.4,241.9L229.8,239.6L228.0,238.4L229.7,237.3L232.6,237.8L230.2,236.9L225.0,236.9L224.7,236.2L225.7,235.3L222.3,234.9L222.1,233.7L220.4,234.0L211.0,231.6L206.9,231.8L205.7,230.3L203.2,229.6L206.7,228.3L204.2,227.1L207.6,227.0L202.8,226.4L202.8,224.6L217.7,221.6L220.0,222.1L223.1,224.6L225.5,223.5L229.2,223.5L230.0,224.2L230.9,223.0L231.8,223.7L236.2,223.5L234.3,221.9L234.2,218.0L231.9,215.1L231.4,213.2L237.4,213.2L238.6,216.1L248.4,217.0L254.2,215.5L251.3,214.9L251.9,213.0L262.5,210.0L265.9,207.5L265.8,202.6L266.7,201.1L275.2,199.0L276.0,201.2L277.6,202.5L281.1,202.2L282.7,204.7L286.0,205.2L286.9,206.9L289.5,206.6L291.7,207.5L291.8,210.4L295.5,210.4L298.2,208.5L297.9,210.4L298.7,212.1L302.8,213.2L305.1,214.9L307.9,214.6L310.1,215.5L312.4,215.1L315.3,216.1L317.4,218.4L324.5,218.5L331.3,220.3L331.4,221.1L328.4,223.6L326.2,228.4L325.3,233.3L326.2,234.1L323.4,235.7L319.7,235.5L319.0,236.1L320.0,236.8L316.7,239.7L314.6,240.5L314.1,242.4L311.6,243.9L310.7,245.4L311.0,247.2L309.7,247.9L310.1,248.6L312.0,248.1L312.7,247.5L312.3,246.7L314.3,245.7L317.8,245.9L317.7,248.3L320.2,250.7L317.9,252.6L321.5,256.0L320.8,257.6L316.9,258.6L316.3,259.3L317.4,260.8L319.9,261.7L320.3,262.8L318.4,264.9L319.0,266.6L323.2,268.6L326.4,268.4L326.8,269.2L324.8,271.4L324.9,272.3L317.2,276.3L315.7,278.0L311.2,279.3L304.1,277.7L303.2,276.6L300.7,276.3L300.6,275.6L297.1,276.3L292.2,275.2L290.5,274.1L289.1,274.4L282.6,278.1L280.5,280.8L280.9,284.1L282.1,285.7L278.9,285.4L276.5,286.6L272.0,285.8L270.3,286.5L267.1,285.0Z"/><path class="land" fill-rule="evenodd" d="M344.8,281.9L345.5,288.7L341.9,296.2L338.1,294.1L338.9,293.0L337.2,292.4L337.4,290.7L336.2,290.7L337.0,289.0L335.9,288.4L335.7,287.8L336.8,287.2L335.7,286.4L338.1,283.9L341.4,282.7L343.1,282.9L343.6,279.8L344.6,280.2L344.8,281.9Z"/><path class="land" fill-rule="evenodd" d="M238.2,251.0L237.9,251.8L236.1,249.5L238.2,251.0Z"/><path class="land" fill-rule="evenodd" d="M183.0,95.6L180.7,93.7L182.6,94.3L183.0,95.6Z"/><path class="land" fill-rule="evenodd" d="M183.8,91.9L183.3,92.3L181.2,91.0L183.8,91.9Z"/><path class="land" fill-rule="evenodd" d="M178.1,88.6L179.3,89.3L177.5,89.5L175.8,88.6L178.1,88.6Z"/><path class="land" fill-rule="evenodd" d="M183.7,87.7L183.4,89.1L181.6,88.8L182.7,90.5L179.9,89.1L178.3,87.1L180.4,86.8L183.7,87.7Z"/><path class="land" fill-rule="evenodd" d="M185.9,87.4L185.5,88.1L184.6,87.9L184.5,86.4L185.9,87.4Z"/><path class="land" fill-rule="evenodd" d="M239.3,203.1L237.5,204.1L234.4,203.3L236.9,202.3L239.3,203.1Z"/><path class="land" fill-rule="evenodd" d="M208.0,176.8L209.5,176.9L206.3,178.7L204.5,177.4L204.3,176.1L206.8,175.8L208.0,176.8Z"/><path class="land" fill-rule="evenodd" d="M187.8,169.1L183.5,169.4L183.5,168.4L179.9,165.9L176.8,168.7L173.9,168.6L171.5,167.8L168.6,165.5L172.5,164.1L170.9,163.0L174.5,162.3L176.2,159.7L177.8,159.1L179.0,159.5L180.5,158.2L185.2,157.6L188.7,157.8L192.8,161.8L191.2,163.6L194.2,163.4L195.3,165.0L195.2,165.6L193.3,164.5L193.4,166.2L194.4,166.3L193.9,167.3L191.7,167.6L189.8,169.5L187.8,169.1Z"/><path class="land" fill-rule="evenodd" d="M198.9,155.5L196.7,155.2L196.3,153.3L198.1,153.1L198.9,155.5Z"/><path class="land" fill-rule="evenodd" d="M188.7,150.7L189.1,153.4L186.9,153.9L187.0,152.2L185.1,153.0L185.9,151.5L188.7,150.7Z"/><path class="land" fill-rule="evenodd" d="M190.3,151.9L189.3,151.1L190.9,150.3L190.6,149.5L192.7,148.8L190.3,151.9Z"/><path class="land" fill-rule="evenodd" d="M192.2,146.6L186.9,147.1L188.2,146.4L188.6,145.1L186.8,144.3L189.0,143.5L192.4,145.1L192.2,146.6Z"/><path class="land" fill-rule="evenodd" d="M183.9,144.1L183.3,144.1L185.2,143.3L183.9,144.1Z"/><path class="land" fill-rule="evenodd" d="M175.8,140.3L174.6,140.3L175.4,139.8L175.8,140.3Z"/><path class="land" fill-rule="evenodd" d="M187.2,140.4L185.7,139.8L186.8,139.5L187.2,140.4Z"/><path class="land" fill-rule="evenodd" d="M177.5,138.8L176.2,138.7L175.9,136.2L177.3,136.3L177.5,138.8Z"/><path class="land" fill-rule="evenodd" d="M188.6,135.0L188.6,136.9L193.3,137.7L190.1,139.6L189.7,138.0L186.8,138.0L185.6,136.7L182.4,135.6L186.4,133.3L187.5,133.5L188.6,135.0Z"/><path class="land" fill-rule="evenodd" d="M177.9,133.2L179.1,133.7L178.2,134.7L174.9,134.0L177.9,133.2Z"/><path class="land" fill-rule="evenodd" d="M188.0,126.4L186.7,128.1L184.5,129.1L186.0,129.2L185.7,129.8L180.4,132.5L179.2,131.9L181.4,130.8L179.4,130.0L180.1,129.5L179.1,129.0L179.7,127.8L182.7,128.1L182.2,127.0L187.6,125.0L188.0,126.4Z"/><path class="land part-shape" data-part="つ" fill-rule="evenodd" d="M218.9,124.8L217.9,126.8L210.1,130.4L209.6,131.5L211.4,131.8L208.7,134.2L216.0,132.9L229.3,133.0L231.3,133.9L232.2,135.3L224.1,144.4L216.9,146.4L221.1,146.0L223.5,146.8L223.3,147.5L216.4,149.7L212.1,149.0L219.5,150.5L224.0,149.7L228.5,151.0L233.4,154.3L237.7,163.0L243.3,165.0L249.2,168.8L247.9,169.8L251.2,173.9L247.3,172.6L243.4,172.8L247.1,173.1L252.7,176.6L253.6,178.4L250.5,180.9L252.8,181.9L255.6,180.3L260.6,180.4L266.6,182.5L267.5,185.3L265.9,188.8L262.3,190.3L262.7,191.5L261.9,192.0L257.5,192.7L259.0,193.1L258.9,194.3L254.2,195.3L258.9,196.4L264.1,196.4L264.0,198.2L260.4,199.5L259.6,200.7L252.1,202.4L248.0,201.9L242.1,202.3L235.8,201.0L236.7,201.8L234.0,202.7L229.7,202.7L230.4,203.7L229.6,204.0L225.7,204.0L220.0,202.8L216.0,203.7L213.2,207.6L208.1,206.1L202.7,207.1L198.8,209.6L195.7,209.0L193.8,209.5L193.4,208.7L201.1,204.7L204.2,202.2L204.8,200.2L207.0,199.7L208.1,198.1L218.6,197.9L225.7,192.6L217.1,196.1L214.4,195.9L211.1,194.1L207.7,194.3L209.1,193.4L206.1,192.6L201.0,193.7L198.3,192.6L197.4,191.2L198.2,190.5L207.8,187.2L210.2,184.6L209.2,183.9L209.0,180.8L203.2,181.9L207.3,178.6L212.4,176.9L216.7,176.5L219.0,177.4L218.3,176.1L219.4,175.7L220.8,176.9L222.5,176.9L220.9,176.5L219.4,174.9L220.7,172.7L219.7,172.3L219.7,170.9L221.0,170.4L221.5,168.6L218.3,168.7L214.3,165.3L214.1,164.4L215.4,162.3L219.6,160.5L214.5,160.5L210.4,162.2L207.5,161.5L204.8,162.4L201.8,161.5L200.9,163.1L199.7,162.4L198.3,160.1L199.4,160.1L203.2,155.0L201.1,153.0L201.3,151.3L201.9,150.6L204.2,150.6L201.6,149.5L202.0,148.4L197.7,151.1L197.8,149.3L200.0,147.7L199.2,148.0L195.9,150.0L196.1,152.3L194.4,156.1L192.7,156.7L193.2,153.8L195.0,152.0L193.8,151.9L193.9,149.4L198.1,142.4L193.5,144.7L188.7,142.9L192.7,141.5L191.4,141.0L194.1,139.0L194.4,137.7L192.1,136.2L192.0,135.3L194.2,134.5L192.6,133.3L193.9,131.2L198.4,131.2L195.9,129.3L196.6,127.6L199.9,127.4L199.1,126.2L199.8,124.3L202.8,124.9L205.1,124.3L205.7,124.9L219.5,123.7L218.9,124.8Z"/><path class="land" fill-rule="evenodd" d="M220.7,122.6L219.6,121.8L221.0,121.7L220.7,122.6Z"/><path class="land" fill-rule="evenodd" d="M218.4,122.1L217.2,122.2L216.1,120.9L217.3,120.9L218.4,122.1Z"/><path class="land" fill-rule="evenodd" d="M219.4,119.7L222.4,120.4L221.7,121.1L218.3,120.8L216.5,119.8L217.5,118.6L219.5,119.0L219.4,119.7Z"/><path class="land" fill-rule="evenodd" d="M224.5,117.7L223.4,117.7L225.9,117.0L224.5,117.7Z"/><path class="land" fill-rule="evenodd" d="M222.7,118.1L221.8,118.4L219.5,116.8L220.2,116.5L222.7,118.1Z"/><path class="land" fill-rule="evenodd" d="M236.9,104.6L238.4,105.8L239.5,105.6L237.0,111.2L236.4,110.9L237.1,108.5L233.4,107.2L236.3,106.7L235.5,105.3L234.3,105.1L236.4,103.9L236.9,104.6Z"/><path class="land" fill-rule="evenodd" d="M239.6,104.9L238.3,104.0L239.1,102.8L240.1,103.1L239.6,104.9Z"/><path class="land" fill-rule="evenodd" d="M242.3,101.9L241.7,103.2L240.8,103.0L240.8,101.9L242.3,101.9Z"/><path class="land" fill-rule="evenodd" d="M700.0,297.1L698.1,297.4L698.4,297.9L684.4,298.9L684.0,298.2L682.1,298.0L677.5,294.2L676.1,294.2L674.7,295.6L669.3,295.0L668.2,295.7L665.1,294.8L667.0,292.9L667.6,290.3L664.9,283.4L658.4,279.4L654.6,278.5L649.8,275.8L651.5,274.3L656.5,274.7L665.8,277.8L677.6,278.3L687.8,282.5L687.4,283.8L688.3,284.3L695.1,282.5L697.7,283.8L698.7,282.4L700.0,282.9Z"/><path class="land" fill-rule="evenodd" d="M224.9,215.1L224.5,215.7L223.5,215.3L224.9,215.1Z"/><path class="land" fill-rule="evenodd" d="M450.0,312.9L452.5,313.2L453.8,312.0L453.1,310.2L456.6,308.8L458.1,305.5L459.5,305.1L460.3,303.8L459.6,301.5L465.8,301.3L469.9,298.7L474.9,298.8L477.2,298.2L477.8,296.7L481.6,296.8L494.9,294.4L497.7,296.4L499.9,296.4L502.5,297.6L509.2,296.9L511.4,296.1L510.7,293.3L512.0,292.6L515.8,294.0L516.1,294.9L516.0,296.5L513.3,297.6L513.3,300.5L510.4,302.7L508.6,301.6L501.0,300.1L497.9,301.4L494.8,300.5L490.8,302.8L487.6,302.5L488.7,305.8L492.1,306.7L493.4,308.5L489.1,306.4L487.3,306.7L489.7,308.9L489.5,310.3L486.6,307.8L484.3,307.4L484.3,308.8L486.7,310.4L484.0,310.1L483.1,307.8L479.0,306.0L478.5,305.1L479.2,304.1L476.3,305.0L475.9,309.6L483.3,318.3L481.5,319.0L481.6,317.4L479.2,316.9L478.4,317.4L478.9,318.3L479.7,319.7L480.7,319.6L475.7,321.3L482.5,323.4L486.8,326.5L489.7,327.2L490.2,328.6L490.2,333.2L485.0,329.7L480.4,331.2L481.5,332.0L482.0,333.8L484.0,334.2L484.9,335.6L481.6,336.7L480.2,335.2L477.8,334.1L477.3,334.6L480.6,341.5L480.4,343.6L481.6,345.5L477.2,342.1L476.1,342.2L474.9,345.5L474.3,345.2L473.8,343.0L470.8,339.7L469.6,340.1L468.9,342.6L465.8,339.2L466.8,336.1L461.2,331.1L464.0,328.0L466.6,328.2L468.2,326.7L479.2,330.4L478.9,329.5L481.2,329.3L481.5,328.2L478.3,327.7L474.2,325.6L473.2,326.4L469.7,325.9L464.7,326.8L463.3,325.1L463.0,326.3L461.8,326.5L457.7,321.3L458.9,320.6L461.1,321.0L461.2,319.7L457.1,319.6L453.0,316.7L450.0,312.9Z"/><path class="land" fill-rule="evenodd" d="M488.5,354.6L491.7,354.0L492.0,354.6L491.1,355.0L493.5,356.4L497.2,355.8L504.8,356.9L507.3,356.5L507.9,358.8L513.2,356.8L512.4,359.6L511.7,359.8L498.0,360.7L497.1,359.1L494.6,358.4L485.9,357.4L485.7,354.7L486.7,354.9L487.4,353.4L488.5,354.6Z"/><path class="land" fill-rule="evenodd" d="M521.8,355.3L521.4,355.9L520.7,354.0L522.2,351.8L521.6,353.7L522.3,355.2L521.8,355.3Z"/><path class="land" fill-rule="evenodd" d="M480.5,348.1L479.1,347.8L479.5,346.2L481.0,347.5L480.5,348.1Z"/><path class="land" fill-rule="evenodd" d="M528.4,350.7L527.2,350.4L527.2,348.3L529.1,346.5L532.3,345.7L530.9,349.3L528.4,350.7Z"/><path class="land" fill-rule="evenodd" d="M504.8,346.1L503.7,346.4L504.1,345.3L504.8,346.1Z"/><path class="land" fill-rule="evenodd" d="M514.6,344.1L512.7,344.5L513.7,343.6L514.6,344.1Z"/><path class="land" fill-rule="evenodd" d="M528.6,344.5L527.9,343.9L528.6,343.6L528.6,344.5Z"/><path class="land" fill-rule="evenodd" d="M495.4,342.4L495.3,343.2L493.3,343.4L493.6,342.6L495.4,342.4Z"/><path class="land" fill-rule="evenodd" d="M503.8,343.3L502.6,342.4L503.8,343.3Z"/><path class="land" fill-rule="evenodd" d="M519.5,342.7L522.1,341.0L523.5,341.3L519.5,342.7Z"/><path class="land" fill-rule="evenodd" d="M508.6,342.1L507.4,342.1L510.0,340.6L510.6,341.0L508.6,342.1Z"/><path class="land" fill-rule="evenodd" d="M497.2,340.8L496.8,339.8L497.2,340.8Z"/><path class="land" fill-rule="evenodd" d="M520.2,340.4L519.2,340.5L518.9,339.1L520.2,340.4Z"/><path class="land" fill-rule="evenodd" d="M502.8,339.3L502.0,340.1L501.1,339.7L502.4,338.5L502.8,339.3Z"/><path class="land" fill-rule="evenodd" d="M505.5,340.3L504.6,340.7L503.6,339.3L505.3,338.0L505.9,338.5L505.5,340.3Z"/><path class="land" fill-rule="evenodd" d="M495.2,338.7L494.2,338.7L494.4,338.1L495.3,338.1L495.2,338.7Z"/><path class="land" fill-rule="evenodd" d="M494.4,336.6L493.8,336.9L494.3,335.2L494.4,336.6Z"/><path class="land" fill-rule="evenodd" d="M499.4,335.1L499.1,336.1L499.4,335.1Z"/><path class="land" fill-rule="evenodd" d="M504.0,335.8L503.1,335.9L503.1,335.1L504.6,335.3L504.0,335.8Z"/><path class="land" fill-rule="evenodd" d="M510.3,334.7L510.9,333.7L513.5,333.3L510.3,334.7Z"/><path class="land" fill-rule="evenodd" d="M502.6,334.0L501.6,334.5L500.0,333.2L502.6,334.0Z"/><path class="land" fill-rule="evenodd" d="M493.6,334.2L492.9,334.7L493.8,333.2L493.6,334.2Z"/><path class="land" fill-rule="evenodd" d="M518.2,331.9L520.6,332.9L518.4,333.6L515.8,332.8L518.2,331.9Z"/><path class="land" fill-rule="evenodd" d="M458.9,331.9L459.9,332.9L458.2,333.4L456.2,331.4L456.9,330.7L458.9,331.9Z"/><path class="land" fill-rule="evenodd" d="M499.9,332.4L499.6,333.1L497.0,330.4L499.6,331.0L499.9,332.4Z"/><path class="land" fill-rule="evenodd" d="M485.5,330.7L484.2,330.7L484.8,330.1L485.5,330.7Z"/><path class="land" fill-rule="evenodd" d="M456.1,326.2L456.2,327.3L457.9,328.6L457.6,329.3L455.2,328.9L454.5,327.7L453.5,328.2L455.6,325.3L456.1,326.2Z"/><path class="land" fill-rule="evenodd" d="M457.6,326.7L456.2,325.2L457.6,326.7Z"/><path class="land" fill-rule="evenodd" d="M510.9,327.8L510.0,328.4L508.9,327.6L509.9,326.5L508.5,324.3L511.6,324.6L510.9,327.8Z"/><path class="land" fill-rule="evenodd" d="M456.9,323.9L455.5,324.2L455.9,322.4L456.9,321.6L456.9,323.9Z"/><path class="land" fill-rule="evenodd" d="M496.7,321.9L495.4,322.1L494.9,320.2L496.7,321.9Z"/><path class="land" fill-rule="evenodd" d="M484.2,320.4L485.2,321.9L491.3,323.5L492.8,327.8L495.6,328.5L495.8,329.8L493.6,329.8L490.4,326.1L486.5,325.6L486.2,324.5L482.5,322.0L478.7,321.3L482.6,319.7L484.2,320.4Z"/><path class="land" fill-rule="evenodd" d="M487.8,318.9L486.7,319.0L485.9,317.9L487.8,318.9Z"/><path class="land" fill-rule="evenodd" d="M488.9,318.4L489.7,317.3L488.9,318.4Z"/><path class="land" fill-rule="evenodd" d="M514.1,316.7L515.8,318.9L515.8,319.7L514.9,319.3L515.5,320.1L511.6,319.7L511.1,319.2L512.7,318.0L510.7,319.0L508.4,318.0L511.7,316.3L514.1,316.7Z"/><path class="land" fill-rule="evenodd" d="M450.8,315.7L451.0,316.2L448.8,315.4L446.5,312.3L449.3,312.3L448.5,313.3L449.6,315.3L450.8,315.7Z"/><path class="land" fill-rule="evenodd" d="M504.4,310.2L503.6,311.9L502.5,311.1L500.6,311.5L500.6,310.0L502.9,310.4L504.5,309.7L504.4,310.2Z"/><path class="land" fill-rule="evenodd" d="M506.9,305.7L505.7,306.0L504.5,305.2L505.7,304.8L506.9,305.7Z"/><path class="land" fill-rule="evenodd" d="M497.7,303.8L496.5,304.2L495.2,303.1L497.2,302.1L497.7,303.8Z"/><path class="land" fill-rule="evenodd" d="M33.2,0.0L34.8,4.7L33.7,5.3L26.2,5.4L25.6,1.4L23.1,5.6L16.7,5.5L12.1,4.4L8.7,2.1L7.5,0.0L0.0,0.0L0.0,6.9L13.3,8.6L27.9,8.9L25.6,10.1L19.1,11.2L19.5,12.1L11.3,12.6L12.6,14.1L7.0,14.1L7.8,15.2L7.0,15.6L0.0,17.2L0.0,0.0Z"/><path class="land" fill-rule="evenodd" d="M426.7,281.0L428.0,281.0L434.4,284.4L435.2,285.7L428.2,282.0L420.5,279.9L422.2,279.7L427.2,281.5L426.7,281.0Z"/><path class="land" fill-rule="evenodd" d="M440.1,261.3L438.4,261.2L436.6,259.2L430.0,258.6L428.1,259.2L426.5,258.4L421.3,258.3L419.2,257.2L417.9,258.0L415.3,257.8L412.9,259.9L410.3,258.1L407.9,258.2L407.4,262.3L411.0,264.8L413.0,268.8L420.8,274.8L422.7,275.5L422.9,276.9L426.5,279.9L425.9,280.6L419.0,276.1L413.9,274.6L409.9,274.8L409.4,273.4L401.9,268.3L401.2,267.4L404.7,267.3L399.8,264.0L399.0,262.9L398.5,259.2L395.5,257.0L393.1,256.6L392.4,258.4L389.0,261.7L386.3,258.9L385.2,255.2L388.8,255.7L389.9,254.9L393.7,255.2L395.7,253.4L397.9,255.2L403.4,255.3L402.8,254.2L403.5,253.4L402.8,252.7L406.5,251.4L406.4,248.0L412.3,246.3L412.6,244.9L414.3,244.8L417.5,245.8L423.1,250.0L428.1,252.1L433.6,252.5L436.7,250.9L439.1,250.7L438.4,251.6L439.2,254.0L440.6,254.9L440.0,256.0L444.0,257.9L440.6,258.6L441.0,260.3L440.1,261.3Z"/><path class="land" fill-rule="evenodd" d="M426.1,282.3L427.4,283.0L423.4,282.1L426.1,282.3Z"/><path class="land" fill-rule="evenodd" d="M416.5,280.0L421.9,280.8L418.5,281.0L416.5,280.0Z"/><path class="land" fill-rule="evenodd" d="M421.9,278.7L416.8,278.8L413.8,277.9L421.9,278.7Z"/><path class="land" fill-rule="evenodd" d="M417.9,277.3L414.2,276.8L414.5,276.1L418.9,276.9L417.9,277.3Z"/><path class="land" fill-rule="evenodd" d="M403.7,270.3L404.4,271.0L402.7,269.9L403.7,270.3Z"/><path class="land" fill-rule="evenodd" d="M402.3,269.4L400.7,268.4L402.3,269.4Z"/><path class="land" fill-rule="evenodd" d="M401.9,270.8L398.7,268.3L401.9,270.8Z"/><path class="land" fill-rule="evenodd" d="M401.9,266.6L399.1,265.1L397.4,263.0L402.4,266.5L401.9,266.6Z"/><path class="land" fill-rule="evenodd" d="M398.3,262.4L398.6,262.9L396.6,262.0L397.5,261.6L398.3,262.4Z"/><path class="land" fill-rule="evenodd" d="M394.9,263.4L393.1,261.0L393.3,258.4L394.7,260.3L394.9,263.4Z"/><path class="land" fill-rule="evenodd" d="M398.1,260.2L396.9,260.4L394.4,259.0L395.7,257.8L398.1,260.2Z"/><path class="land" fill-rule="evenodd" d="M410.9,241.4L414.5,239.9L414.4,236.0L416.8,234.6L414.2,233.3L415.9,232.5L417.9,233.2L420.7,232.9L420.4,231.3L421.7,229.9L427.6,232.3L437.2,232.1L437.9,230.0L444.7,228.9L446.3,227.8L449.5,228.5L453.3,227.0L454.9,224.7L463.8,224.5L467.7,226.6L472.5,225.9L473.5,227.4L478.4,229.4L478.8,230.5L476.1,232.3L472.9,232.7L470.0,234.9L470.0,236.0L466.6,239.6L465.0,243.0L463.2,243.9L462.6,245.9L460.4,247.6L458.4,247.4L456.1,248.7L452.4,248.9L445.3,248.4L442.8,250.0L436.7,250.9L433.6,252.5L428.1,252.1L423.1,250.0L418.7,246.6L415.2,245.0L412.8,241.4L410.9,241.4Z"/><path class="land" fill-rule="evenodd" d="M205.9,168.1L203.9,169.4L202.1,169.3L203.0,167.8L205.8,165.9L206.6,167.3L205.9,168.1Z"/><path class="land part-shape" data-part="ち" fill-rule="evenodd" d="M177.8,159.1L176.2,159.7L174.5,162.3L170.9,163.0L172.5,164.1L168.6,165.5L171.5,167.8L173.9,168.6L176.8,168.7L179.9,165.9L183.5,168.4L183.5,169.4L188.2,169.5L186.5,170.6L188.6,174.2L189.7,180.7L187.8,184.6L185.4,186.5L186.8,187.5L181.1,188.4L180.3,187.5L180.0,188.3L174.7,189.0L169.4,191.7L165.9,191.1L166.6,192.1L165.9,192.9L157.0,195.0L151.6,195.2L154.8,193.2L154.2,193.1L148.8,194.0L154.0,191.3L149.2,192.3L146.6,192.0L146.2,191.3L150.9,188.8L146.1,188.7L146.4,187.9L148.7,187.2L152.3,187.5L150.9,186.0L153.7,184.5L162.2,183.2L160.1,182.4L158.2,183.7L154.4,183.5L150.8,184.3L155.4,181.8L156.1,181.0L155.4,180.5L157.0,179.0L160.7,177.9L154.9,177.6L153.7,176.7L151.2,176.6L152.0,176.1L149.1,175.9L148.8,174.5L152.8,174.0L150.9,173.4L151.0,172.7L154.2,171.9L154.2,171.2L150.9,171.4L151.4,169.0L150.7,169.2L150.2,168.1L149.1,168.4L149.4,167.4L154.4,166.9L158.5,167.9L160.0,167.1L164.5,167.6L163.8,166.5L167.7,164.9L168.7,163.6L165.4,163.9L162.4,163.2L166.2,161.1L166.1,159.8L167.3,158.5L172.5,158.1L172.4,157.5L173.3,157.4L174.4,158.8L173.4,160.3L175.2,159.5L174.8,157.5L177.0,157.0L176.3,156.4L180.4,157.6L177.8,159.1Z"/><path class="land" fill-rule="evenodd" d="M150.5,170.9L147.3,170.2L150.0,170.0L150.5,170.9Z"/><path class="land" fill-rule="evenodd" d="M700.0,342.8L698.8,342.0L697.7,338.6L697.9,337.1L695.7,335.6L695.9,332.9L692.1,330.9L694.5,326.7L693.0,326.1L692.7,321.6L691.7,320.7L691.8,318.6L690.2,316.2L693.9,315.8L694.6,313.3L695.9,312.3L698.2,313.5L700.0,315.8Z"/><path class="land" fill-rule="evenodd" d="M697.7,338.6L698.8,342.0L700.0,342.8L700.0,370.0L650.3,370.0L659.4,366.1L661.9,362.3L662.2,357.1L663.6,352.8L662.5,348.0L664.2,344.9L667.9,344.0L677.7,336.3L686.8,337.7L691.1,337.0L692.8,340.2L696.1,338.2L697.7,338.6Z"/><path class="land part-shape" data-part="て" fill-rule="evenodd" d="M94.6,47.7L104.0,46.2L100.9,47.2L98.8,49.0L103.0,49.8L103.1,51.0L101.7,52.4L106.1,52.1L106.8,53.2L105.3,54.2L108.3,53.6L113.8,54.8L113.3,56.0L112.0,56.5L113.6,57.2L112.5,58.1L114.2,58.6L114.3,59.3L111.5,60.1L111.5,61.4L109.6,62.6L106.1,62.5L105.3,63.6L105.7,64.6L103.7,65.8L91.7,68.2L83.6,71.3L71.8,72.9L70.5,74.6L63.5,75.9L48.0,74.4L45.1,73.1L46.4,72.4L45.9,71.9L43.5,72.6L38.6,71.1L38.9,70.6L35.5,71.4L23.5,71.7L22.6,69.8L23.0,69.2L24.9,70.1L28.1,69.6L33.3,66.5L35.4,66.2L29.5,66.9L31.0,66.1L30.0,65.9L30.5,64.9L34.1,63.7L28.9,64.7L26.8,63.8L27.5,62.7L25.3,62.1L16.5,61.8L11.8,62.6L9.7,61.4L22.1,59.5L31.1,59.5L32.4,58.3L29.0,58.7L24.9,58.0L31.6,55.5L21.0,54.2L11.0,55.9L5.2,54.7L7.5,53.9L11.4,54.6L9.9,53.8L9.1,52.2L13.8,53.2L17.1,52.5L11.7,51.5L14.8,51.2L12.2,49.8L12.6,49.3L15.7,49.8L14.0,48.9L15.5,48.2L19.4,49.1L19.8,50.2L23.4,49.7L23.8,51.3L25.6,50.9L25.5,49.3L20.5,47.9L25.2,47.3L18.8,46.6L21.1,45.6L25.7,45.7L35.9,49.7L34.8,50.3L36.9,51.0L36.3,52.6L33.4,52.8L36.4,54.2L35.7,55.3L37.7,55.8L38.7,57.3L40.6,54.3L42.0,53.6L45.5,54.3L46.4,52.8L46.4,49.7L47.9,49.0L55.1,52.3L56.2,49.2L61.5,48.2L67.2,51.2L68.6,52.7L69.0,51.7L67.0,48.4L70.9,48.6L74.5,50.4L78.5,48.0L81.6,48.7L85.1,48.0L85.7,47.2L84.6,45.5L87.5,44.8L90.1,44.9L94.6,47.7Z"/><path class="land" fill-rule="evenodd" d="M354.5,241.4L359.9,242.2L362.4,240.2L367.8,240.1L371.7,239.2L371.5,240.6L373.9,243.0L387.0,244.8L383.8,247.4L386.3,248.2L384.9,250.1L386.0,250.2L385.8,251.9L388.7,253.9L387.2,254.1L387.8,253.7L386.3,252.3L384.7,252.9L382.1,252.3L380.3,253.6L372.7,255.5L372.3,257.6L375.2,260.3L373.8,262.0L372.8,261.7L372.5,262.8L374.0,267.8L376.9,270.1L385.6,274.3L390.1,283.1L395.4,287.6L401.7,290.7L411.6,291.0L411.5,292.4L409.1,293.8L409.0,294.9L429.5,303.4L434.6,307.8L434.9,309.0L433.4,311.8L430.8,310.6L428.7,307.2L424.0,306.6L421.8,305.0L419.3,305.4L416.7,308.6L415.2,312.5L416.0,313.6L421.1,316.2L421.7,320.0L416.2,322.0L415.5,325.9L412.8,327.5L410.6,330.6L407.2,330.6L406.4,328.2L408.2,327.0L409.3,323.3L412.0,322.4L412.1,320.6L411.1,319.8L410.2,316.5L406.9,310.1L402.9,309.3L399.5,307.6L399.9,306.2L398.4,303.7L393.4,304.0L394.6,302.7L393.1,301.9L390.4,301.9L387.3,297.6L380.9,297.6L376.3,295.3L368.1,289.2L366.4,287.1L363.0,285.8L361.0,285.8L361.8,285.4L361.7,284.6L357.1,280.6L355.1,280.3L355.2,278.0L353.2,274.9L352.5,271.5L350.5,269.8L342.9,266.8L337.7,265.8L335.5,266.5L330.0,271.2L324.9,272.3L324.8,271.4L326.8,269.2L326.4,268.4L323.2,268.6L319.0,266.6L318.4,264.9L320.3,262.8L319.9,261.7L317.4,260.8L316.3,258.8L320.8,257.6L321.5,256.0L318.1,252.9L318.0,251.9L320.2,250.7L321.3,251.2L325.4,250.2L327.9,250.8L331.3,248.4L331.0,247.3L334.2,245.5L334.6,247.5L338.2,249.2L337.8,250.0L340.2,251.5L340.0,249.9L342.5,247.1L342.6,245.2L344.3,245.2L345.3,246.9L349.4,246.4L351.3,247.6L350.4,245.2L350.9,244.0L354.3,244.5L354.5,241.4ZM374.0,270.7L374.9,271.0L375.0,270.1L374.0,270.7Z"/><path class="land" fill-rule="evenodd" d="M370.5,342.4L369.4,341.7L370.5,342.4Z"/><path class="land" fill-rule="evenodd" d="M405.8,327.8L402.3,332.2L401.0,335.4L403.0,339.4L401.2,341.6L401.1,343.1L395.0,342.0L392.6,339.5L388.0,338.6L379.2,334.3L376.4,334.1L374.4,331.8L375.5,329.5L377.3,328.2L379.0,329.7L382.9,328.1L387.9,330.2L395.1,329.5L397.9,328.3L401.2,328.5L405.0,327.1L406.3,327.3L405.8,327.8Z"/><path class="land" fill-rule="evenodd" d="M334.8,319.3L334.2,320.3L333.6,319.0L334.8,319.3Z"/><path class="land" fill-rule="evenodd" d="M389.4,302.9L388.7,302.4L389.4,302.9Z"/><path class="land" fill-rule="evenodd" d="M332.9,299.6L332.1,300.0L333.2,298.8L332.9,299.6Z"/><path class="land" fill-rule="evenodd" d="M346.3,301.2L348.1,305.0L346.4,307.3L347.1,309.8L345.6,318.3L340.6,317.6L339.7,320.4L336.5,320.7L334.2,317.9L334.0,315.2L335.5,311.6L334.1,310.8L334.7,307.1L331.9,303.5L332.2,300.9L335.7,301.5L342.3,297.4L346.2,299.8L345.5,300.7L346.3,301.2Z"/><path class="land" fill-rule="evenodd" d="M354.0,281.4L354.2,282.9L351.1,282.1L354.0,281.4Z"/><path class="land" fill-rule="evenodd" d="M229.8,217.7L229.9,218.2L227.6,218.2L227.8,217.3L229.8,217.7Z"/><path class="land" fill-rule="evenodd" d="M455.7,291.3L455.2,288.3L452.4,286.6L450.6,284.5L450.3,282.7L454.7,281.4L454.8,280.5L456.5,279.3L456.2,278.0L458.0,277.4L464.0,281.7L463.9,282.5L467.5,283.3L465.2,286.7L465.6,287.5L463.9,287.8L462.9,289.0L460.6,288.3L457.8,289.3L457.2,291.3L455.7,291.3Z"/><path class="land" fill-rule="evenodd" d="M605.9,370.0L606.5,367.5L609.8,364.5L609.8,363.7L613.0,363.2L614.3,363.9L613.3,365.0L615.0,365.7L615.8,367.8L613.4,370.0Z"/><path class="land" fill-rule="evenodd" d="M345.3,237.3L345.8,239.4L344.9,239.4L345.3,237.3Z"/><path class="land" fill-rule="evenodd" d="M515.9,153.3L514.6,156.6L517.8,157.3L516.0,158.7L512.9,158.6L511.8,160.0L508.6,160.8L505.5,166.7L507.5,167.4L507.5,168.4L505.1,168.4L504.6,167.1L500.5,168.7L498.7,168.5L497.7,170.3L493.2,171.1L491.9,170.5L485.6,170.8L484.8,170.6L484.5,168.6L483.7,168.0L478.9,166.1L477.7,166.4L476.8,164.4L478.2,161.3L475.7,159.4L470.7,159.4L462.4,157.4L460.5,149.3L470.8,145.9L491.2,147.4L494.7,147.2L498.4,145.9L500.7,148.0L506.6,149.0L512.8,152.5L515.9,153.3Z"/><path class="land" fill-rule="evenodd" d="M459.6,157.2L459.0,157.1L461.1,153.8L459.6,157.2Z"/><path class="land" fill-rule="evenodd" d="M307.9,214.6L308.8,213.6L307.2,211.9L307.4,210.8L309.8,208.3L310.9,208.5L312.6,211.3L314.9,212.0L313.4,215.5L310.1,215.5L307.9,214.6Z"/><path class="land" fill-rule="evenodd" d="M531.5,148.6L529.0,149.2L525.8,152.0L520.5,151.7L515.9,153.3L512.8,152.5L506.6,149.0L500.7,148.0L498.4,145.9L494.7,147.2L491.2,147.4L470.8,145.9L460.5,149.3L460.1,147.4L460.7,141.8L463.5,139.8L464.6,136.8L467.3,134.3L475.5,132.8L476.5,134.0L481.4,136.8L482.9,139.1L486.5,140.3L489.3,139.9L493.8,137.5L493.2,131.3L501.1,129.4L509.9,131.6L514.6,134.6L519.7,133.9L525.1,134.9L528.3,137.1L526.4,141.5L528.5,141.5L531.0,144.5L532.0,147.4L531.5,148.6Z"/><path class="land" fill-rule="evenodd" d="M227.8,359.0L232.0,362.5L231.5,363.9L232.6,365.0L232.1,366.3L233.1,370.0L181.3,370.0L186.5,362.2L190.8,352.1L196.0,350.7L197.2,351.0L196.6,352.5L198.9,355.3L203.7,357.9L206.7,358.4L213.1,357.2L216.1,357.9L217.9,357.6L220.3,355.9L221.6,358.7L227.8,359.0Z"/><path class="land" fill-rule="evenodd" d="M323.8,272.7L324.4,272.4L323.8,272.7Z"/><path class="land" fill-rule="evenodd" d="M532.1,255.5L530.7,254.0L531.6,253.5L531.0,250.3L532.4,243.6L530.7,240.2L526.1,236.6L519.8,228.4L516.4,227.1L518.5,226.1L522.3,226.3L525.5,225.2L532.9,227.6L534.6,229.1L535.3,228.5L537.7,228.8L539.2,230.5L541.3,230.4L542.1,232.2L541.3,235.1L545.4,237.3L545.7,240.4L548.8,241.7L549.2,244.6L551.3,245.8L548.4,246.5L547.1,245.5L546.1,246.0L543.0,245.3L542.0,246.2L541.9,244.8L539.6,245.4L540.1,248.2L539.5,249.5L534.9,253.3L535.0,254.8L532.1,255.5Z"/><path class="land" fill-rule="evenodd" d="M459.6,301.5L457.1,300.7L454.9,297.3L454.5,294.8L455.5,291.4L457.2,291.3L457.8,289.3L460.6,288.3L462.9,289.0L463.9,287.8L472.4,286.4L478.4,290.1L480.0,292.6L479.3,296.4L477.6,296.9L477.2,298.2L469.9,298.7L465.8,301.3L459.6,301.5Z"/><path class="land" fill-rule="evenodd" d="M395.7,351.5L394.4,351.8L393.5,350.2L395.7,351.5Z"/><path class="land" fill-rule="evenodd" d="M393.1,349.7L391.8,349.4L393.1,349.7Z"/><path class="land" fill-rule="evenodd" d="M450.6,284.5L447.9,285.2L447.3,283.7L446.5,283.7L442.8,288.3L443.6,289.3L443.4,291.3L436.3,286.2L436.5,285.6L435.2,285.7L434.4,284.8L435.5,283.6L434.4,280.3L436.2,279.7L436.7,277.7L438.5,276.5L440.3,277.1L439.5,274.7L441.9,274.7L446.1,278.3L453.4,281.1L453.4,281.7L450.3,282.7L450.6,284.5Z"/><path class="land" fill-rule="evenodd" d="M309.9,202.5L307.5,202.4L306.4,201.6L307.5,200.5L308.0,198.5L304.8,197.1L302.1,197.2L300.3,195.3L298.5,196.0L297.6,195.1L296.3,195.8L295.0,195.3L293.7,196.4L285.9,195.5L284.5,194.6L287.4,194.0L292.7,195.3L290.0,194.0L291.8,193.9L289.5,191.9L294.8,186.9L297.7,180.6L300.6,180.4L305.3,177.3L308.7,176.2L318.2,175.6L322.0,177.2L321.9,180.0L320.3,183.5L317.5,183.7L316.9,184.7L320.0,185.8L320.2,187.3L317.2,189.2L318.0,190.2L317.4,190.9L309.5,192.0L312.0,195.5L310.8,197.8L311.3,198.5L308.6,199.7L310.5,201.0L309.9,202.5Z"/><path class="land" fill-rule="evenodd" d="M292.3,196.1L289.0,197.9L285.8,197.1L284.3,197.5L283.5,196.2L292.3,196.1Z"/><path class="land" fill-rule="evenodd" d="M289.5,192.6L290.8,193.5L287.0,192.9L289.5,192.6Z"/><path class="land" fill-rule="evenodd" d="M298.9,179.3L297.9,180.0L297.1,179.6L298.9,178.2L298.9,179.3Z"/><path class="land" fill-rule="evenodd" d="M301.1,176.9L299.1,177.5L301.1,176.9Z"/><path class="land" fill-rule="evenodd" d="M303.3,176.1L301.9,176.1L305.8,175.6L303.3,176.1Z"/><path class="land" fill-rule="evenodd" d="M309.3,175.4L306.5,175.3L309.3,175.4Z"/><path class="land" fill-rule="evenodd" d="M313.3,174.9L311.6,175.2L313.3,174.9Z"/><path class="land" fill-rule="evenodd" d="M317.3,174.2L316.4,174.2L318.0,173.7L317.3,174.2Z"/><path class="land" fill-rule="evenodd" d="M539.7,19.8L538.5,18.2L543.3,15.3L541.4,13.3L534.1,11.8L527.5,9.4L521.3,10.9L515.3,10.8L510.7,13.1L507.7,17.2L507.5,20.1L502.5,21.8L499.4,24.1L488.5,21.9L483.2,23.5L474.1,22.8L468.2,18.5L464.6,17.2L460.7,17.9L461.3,19.2L460.7,19.6L451.2,19.8L453.5,21.5L452.4,23.3L449.7,24.6L452.4,25.2L449.7,26.4L433.8,24.4L431.6,24.7L431.8,28.0L429.2,30.4L423.2,29.0L417.8,31.0L414.6,34.5L411.9,34.9L411.3,35.7L414.3,38.4L414.0,39.5L404.2,45.1L404.8,46.9L400.4,48.3L395.4,48.7L396.3,52.1L394.8,57.0L386.5,64.2L390.8,65.4L391.4,68.3L390.0,69.6L379.9,69.5L376.9,70.4L371.8,74.0L372.1,75.1L370.0,77.1L372.2,80.0L371.1,80.8L371.1,84.1L373.0,87.1L371.6,92.8L378.8,96.5L377.1,99.4L372.9,100.0L375.9,105.5L374.9,108.9L371.7,110.9L369.3,111.4L366.8,114.1L368.0,117.1L366.4,120.7L364.7,120.9L363.7,119.0L358.3,118.2L356.4,116.1L356.0,112.4L355.3,113.0L355.7,114.1L354.0,114.8L354.3,117.2L351.8,119.9L348.4,120.4L345.6,118.9L347.0,119.9L346.6,120.3L343.1,121.4L344.0,121.9L331.7,128.5L324.7,129.8L320.0,129.8L318.8,128.5L317.3,129.3L315.9,129.0L316.6,127.4L310.5,126.2L307.1,124.8L305.2,122.7L306.1,119.9L311.0,121.3L313.6,120.0L311.0,120.5L308.9,119.0L309.5,117.0L314.0,114.4L303.6,118.3L301.7,118.4L301.3,117.7L303.0,113.6L304.7,112.9L307.7,113.4L312.2,111.8L308.3,112.1L307.3,111.4L310.7,109.2L311.4,107.7L315.2,105.9L315.7,106.4L315.3,108.5L317.2,105.8L320.0,104.9L311.5,106.5L308.8,109.3L301.5,113.6L301.0,112.7L302.1,109.1L306.9,108.8L302.9,107.9L301.4,105.5L306.5,103.1L302.4,104.3L301.2,103.6L300.1,99.6L317.8,98.6L320.4,100.5L320.4,99.1L326.0,97.9L324.0,97.8L323.5,97.0L324.4,95.7L323.3,96.3L322.8,98.2L321.7,98.3L316.6,97.9L316.0,97.1L313.8,98.7L304.5,99.0L301.1,98.1L300.2,97.5L300.0,95.7L303.4,95.1L299.3,92.9L299.3,91.2L304.7,91.0L310.2,92.1L317.3,91.3L302.7,90.6L301.0,89.7L301.4,88.4L303.6,88.5L307.2,86.2L312.1,86.5L316.9,85.3L311.4,85.9L313.5,83.9L325.7,84.5L326.9,84.1L325.3,83.9L325.4,83.3L331.0,82.7L317.3,82.8L319.4,80.7L325.7,79.0L331.0,79.1L336.2,81.5L331.6,78.4L332.7,77.1L336.4,76.6L335.9,75.7L333.6,75.0L335.8,74.0L341.4,74.1L340.8,75.0L341.6,75.4L343.2,74.3L347.0,73.8L350.2,76.1L357.6,75.4L356.7,74.4L357.3,73.8L363.7,72.0L361.8,71.0L364.6,70.0L363.1,69.5L360.8,70.1L359.1,70.8L360.5,71.5L359.3,72.3L350.6,74.9L349.2,74.8L347.7,73.0L345.7,72.9L355.7,65.8L366.3,61.9L363.0,62.5L363.5,60.9L364.9,60.2L371.6,58.2L373.1,59.1L375.1,59.0L379.2,56.6L374.2,58.2L371.3,57.2L372.7,54.3L376.9,51.0L380.3,50.4L377.8,49.0L386.7,48.2L390.3,47.0L381.2,47.7L380.7,45.7L382.1,43.6L386.2,42.1L389.6,42.1L386.5,40.9L391.1,38.8L404.2,38.0L394.4,37.3L399.6,34.3L404.1,35.3L405.9,36.5L405.8,35.6L406.9,34.8L402.5,34.0L403.0,32.3L397.8,33.3L398.0,31.9L401.3,30.3L406.2,30.5L402.9,29.6L410.1,27.7L413.1,31.2L412.6,30.0L413.9,29.1L412.6,28.6L412.0,26.8L413.9,26.1L419.5,26.5L425.5,25.7L424.3,25.2L415.8,25.3L415.1,24.7L423.9,22.0L427.0,19.0L431.0,18.4L430.8,16.7L432.6,15.3L438.6,16.9L439.2,16.6L436.1,15.1L439.9,14.4L442.0,12.5L446.9,12.0L446.4,15.8L449.6,11.8L453.2,10.5L453.9,11.3L453.4,13.8L450.4,16.4L451.1,16.6L454.9,14.6L457.4,14.8L455.3,13.1L456.2,10.9L461.6,11.1L462.5,10.0L464.3,9.9L469.7,11.7L468.0,9.3L463.6,7.7L473.2,7.4L476.8,6.3L479.4,7.0L480.5,9.0L483.5,10.2L484.0,9.8L482.9,9.0L483.8,7.5L494.2,3.0L492.6,1.7L496.6,0.0L502.6,1.6L504.4,0.9L507.7,1.5L502.1,5.1L501.5,6.8L499.9,7.8L500.4,8.9L504.2,7.6L504.7,6.6L515.1,0.9L516.6,0.6L517.3,1.5L515.6,3.3L516.4,3.6L515.9,5.9L519.9,4.9L521.8,2.6L525.5,2.0L522.4,0.5L523.4,0.0L533.9,0.2L533.3,1.7L529.0,3.2L532.7,3.3L532.0,4.2L531.9,7.5L536.1,2.4L538.3,1.4L541.0,1.4L547.4,3.5L550.7,3.0L552.4,3.8L552.1,4.6L556.0,4.8L559.3,6.0L559.4,7.3L552.6,8.8L537.8,8.5L546.0,10.2L546.9,12.6L550.9,12.8L552.4,11.4L554.3,12.8L554.8,12.1L558.7,12.2L559.2,13.5L557.9,14.7L551.6,13.7L551.9,14.6L550.9,15.7L543.9,17.0L542.1,19.0L539.7,19.8Z"/><path class="land" fill-rule="evenodd" d="M300.9,106.9L300.9,108.1L300.0,108.0L299.6,105.5L300.9,106.9Z"/><path class="land" fill-rule="evenodd" d="M299.6,99.2L298.0,99.2L298.2,98.2L299.2,98.0L299.6,99.2Z"/><path class="land" fill-rule="evenodd" d="M331.0,76.6L328.0,75.9L330.7,75.3L331.4,75.7L331.0,76.6Z"/><path class="land" fill-rule="evenodd" d="M334.7,73.3L332.9,73.1L338.1,72.3L337.9,73.0L334.7,73.3Z"/><path class="land" fill-rule="evenodd" d="M362.3,61.3L357.4,61.3L360.2,60.2L361.3,60.2L362.3,61.3Z"/><path class="land" fill-rule="evenodd" d="M369.7,53.7L367.7,53.7L368.8,52.9L370.0,53.2L369.7,53.7Z"/><path class="land" fill-rule="evenodd" d="M375.1,51.0L374.3,50.6L377.8,50.1L375.1,51.0Z"/><path class="land" fill-rule="evenodd" d="M374.2,49.6L373.3,49.6L374.6,48.1L376.2,48.2L375.8,49.3L374.2,49.6Z"/><path class="land" fill-rule="evenodd" d="M379.7,31.3L378.2,31.8L379.6,29.8L381.2,29.5L379.7,31.3Z"/><path class="land" fill-rule="evenodd" d="M388.7,27.3L391.2,27.5L382.3,30.0L382.0,29.1L383.0,28.4L388.7,27.3Z"/><path class="land" fill-rule="evenodd" d="M402.1,20.6L404.0,22.2L402.2,23.8L395.2,23.7L393.7,22.9L395.5,21.8L398.0,22.1L398.7,20.9L400.4,21.1L400.4,20.0L402.1,20.6Z"/><path class="land" fill-rule="evenodd" d="M407.6,24.4L410.6,23.2L411.5,21.6L412.8,21.3L415.5,22.8L415.2,23.7L409.8,26.0L404.4,26.9L402.8,26.3L396.3,28.0L392.6,28.1L392.6,27.4L395.9,26.0L401.0,25.6L404.1,23.8L405.6,21.3L404.4,20.8L404.8,19.6L408.9,17.2L411.3,17.3L408.1,19.8L409.3,22.7L407.6,24.4Z"/><path class="land" fill-rule="evenodd" d="M425.0,14.0L430.0,15.0L430.8,16.0L429.4,16.7L429.5,18.0L424.9,18.0L420.8,19.9L418.1,19.3L419.7,18.6L420.0,16.4L423.6,16.2L423.7,15.6L422.3,15.2L425.0,14.0Z"/><path class="land" fill-rule="evenodd" d="M549.6,12.0L547.4,12.1L548.4,10.9L550.6,11.6L549.6,12.0Z"/><path class="land" fill-rule="evenodd" d="M457.8,9.1L454.1,8.8L456.5,7.7L458.2,7.9L457.8,9.1Z"/><path class="land" fill-rule="evenodd" d="M442.6,9.3L446.1,9.8L443.3,11.8L440.1,12.4L437.8,14.2L432.7,14.6L430.6,14.0L432.3,13.6L433.5,12.3L436.7,12.2L436.9,11.1L440.5,9.6L441.3,7.6L442.1,7.5L442.6,9.3Z"/><path class="land" fill-rule="evenodd" d="M447.7,7.8L450.9,9.0L447.8,9.2L446.0,7.3L447.7,7.8Z"/><path class="land" fill-rule="evenodd" d="M486.2,4.5L486.4,5.4L482.7,7.0L479.2,6.2L480.2,5.1L485.5,3.8L486.2,4.5Z"/><path class="land" fill-rule="evenodd" d="M490.2,4.3L488.3,4.7L486.7,4.0L486.6,3.2L487.8,2.5L489.6,3.0L490.8,3.5L490.2,4.3Z"/><path class="land" fill-rule="evenodd" d="M484.4,1.8L478.3,4.6L473.6,4.9L469.9,3.4L479.6,2.9L482.0,1.8L484.4,1.8Z"/><path class="land" fill-rule="evenodd" d="M160.5,1.6L159.0,1.5L163.6,0.0L167.9,0.0L160.5,1.6Z"/><path class="land" fill-rule="evenodd" d="M484.8,170.6L488.6,178.9L489.2,182.3L488.4,183.4L484.1,184.8L481.8,187.1L486.5,189.6L485.4,193.8L486.6,196.9L491.0,201.3L489.8,202.1L490.9,204.7L489.7,205.9L487.1,206.2L477.1,213.9L476.5,214.6L477.1,218.3L478.5,219.2L478.1,219.8L470.2,217.9L468.9,216.6L463.5,215.7L460.8,215.8L459.5,216.8L453.6,216.1L451.6,216.8L450.6,218.2L448.0,218.1L447.7,216.3L446.3,215.9L444.4,214.0L441.5,216.0L439.7,216.0L439.4,215.0L438.3,214.9L438.1,213.9L435.9,212.4L435.6,211.2L430.3,209.6L428.3,210.2L426.0,208.6L427.4,207.7L427.0,206.9L424.2,207.5L418.8,205.7L419.9,207.6L416.4,209.0L412.1,205.8L414.2,204.3L412.8,203.4L410.1,203.9L403.5,201.9L402.6,200.4L399.9,199.9L399.8,201.1L398.1,201.4L400.2,197.5L399.1,195.4L397.2,194.8L397.2,193.4L396.0,191.7L397.5,189.2L395.5,186.4L396.2,184.7L391.3,181.2L394.1,178.0L392.6,172.7L395.8,173.6L395.6,171.8L392.1,171.3L392.1,170.5L393.8,170.8L411.9,167.1L415.6,164.5L428.4,161.8L433.2,161.6L437.6,163.2L438.0,163.7L434.4,162.6L436.7,165.7L439.8,166.5L446.0,165.4L478.9,166.1L484.5,168.6L484.8,170.6Z"/><path class="land" fill-rule="evenodd" d="M162.2,290.6L167.3,288.6L168.7,289.8L167.8,291.0L168.5,291.9L170.8,291.2L176.0,291.7L178.5,290.2L183.8,290.6L184.6,293.3L186.9,293.6L187.9,294.7L180.7,299.9L181.6,302.2L181.9,306.6L179.7,308.3L181.0,309.8L180.2,312.0L178.8,313.2L174.6,313.4L176.6,315.3L178.3,318.6L180.0,319.4L179.5,320.9L177.2,322.9L176.6,325.4L178.9,328.2L180.4,328.1L179.8,329.6L178.1,329.9L175.6,332.7L175.0,334.1L175.9,338.2L171.7,339.9L164.0,338.8L160.0,339.7L161.9,335.7L162.1,332.7L161.2,330.4L162.0,328.2L161.2,325.5L163.3,325.8L162.0,324.8L157.9,325.5L157.5,323.4L159.8,322.5L160.6,320.0L162.1,319.2L160.5,319.8L158.6,322.6L155.3,322.7L156.3,316.6L158.5,314.6L161.6,308.8L161.3,307.4L163.2,302.5L163.4,299.1L161.9,294.4L162.4,293.0L161.1,292.4L162.2,290.6Z"/><path class="land" fill-rule="evenodd" d="M535.9,272.6L532.2,272.3L530.5,271.8L528.8,270.1L524.3,269.8L520.9,268.3L512.2,269.9L505.0,273.3L482.2,271.3L479.2,271.7L478.7,270.5L480.3,269.2L474.9,265.6L477.2,263.9L475.0,262.9L470.9,264.6L463.6,261.7L465.3,261.0L463.5,259.9L464.9,258.5L457.9,255.3L457.8,252.5L452.4,248.9L461.2,247.2L470.0,236.0L470.0,234.9L472.9,232.7L476.1,232.3L481.4,229.1L491.8,230.9L495.8,230.7L498.9,232.8L504.6,230.9L511.6,230.1L513.1,228.0L517.9,227.4L520.8,229.5L526.1,236.6L530.7,240.2L532.4,243.6L531.0,250.3L531.6,253.5L530.7,254.0L532.1,255.5L534.5,257.1L537.6,257.7L537.8,256.9L544.0,255.8L547.1,257.4L545.6,261.6L540.5,262.4L541.0,260.2L538.9,260.8L539.3,261.9L538.1,264.3L538.9,264.3L536.5,267.0L535.9,272.6Z"/><path class="land" fill-rule="evenodd" d="M700.0,282.9L698.7,282.4L697.7,283.8L695.1,282.5L688.3,284.3L687.4,283.8L687.8,282.5L677.6,278.3L665.8,277.8L656.5,274.7L651.5,274.3L649.8,275.8L637.2,267.1L631.8,265.8L628.5,263.0L625.0,263.0L622.0,260.3L616.5,258.7L616.2,258.1L619.4,257.1L617.2,256.3L617.9,255.9L622.1,257.3L626.5,256.2L626.1,254.4L629.3,250.0L630.1,249.5L630.8,250.7L631.8,249.1L634.9,249.1L630.8,246.1L629.1,245.9L627.7,243.6L635.0,243.4L634.4,241.9L642.7,239.6L642.0,237.3L636.7,238.6L635.5,238.5L637.6,237.4L635.8,237.6L632.1,239.1L632.8,237.2L632.0,236.8L632.9,234.4L636.4,233.3L638.2,231.6L647.8,231.1L649.6,227.3L648.5,227.0L648.4,224.6L646.4,224.1L647.9,221.9L650.0,221.8L646.9,219.9L648.9,219.4L651.1,217.5L650.8,214.2L647.8,214.3L641.7,211.4L639.2,211.8L632.6,209.5L630.5,210.8L627.0,208.9L624.2,205.9L616.2,207.9L611.2,205.9L605.9,206.3L604.1,204.6L604.4,202.7L603.1,199.6L601.6,199.4L600.6,198.0L597.1,198.3L592.1,197.4L592.8,196.6L591.2,193.2L593.8,192.8L594.0,192.2L591.1,190.2L589.2,187.5L587.4,186.6L581.5,186.6L578.1,187.5L574.4,186.9L572.8,188.9L571.2,189.5L567.6,189.0L565.8,186.9L565.6,182.4L562.6,179.8L564.2,178.0L571.4,179.1L577.0,176.6L576.9,175.5L574.7,174.5L574.5,173.1L567.5,171.9L568.3,169.7L564.0,168.0L560.7,165.1L561.5,163.7L558.0,162.2L559.8,159.5L558.1,157.2L559.0,156.0L558.8,154.0L552.3,151.5L549.4,151.5L544.8,153.2L543.5,152.2L543.8,150.6L540.3,149.8L537.9,150.6L535.6,149.1L532.8,149.4L531.5,148.6L532.0,147.4L531.0,144.5L528.5,141.5L526.4,141.5L528.3,137.1L525.1,134.9L523.5,134.7L525.4,132.0L527.8,131.4L525.0,127.8L525.3,125.6L524.3,122.1L527.6,119.5L529.0,117.2L531.5,116.3L530.1,115.2L530.6,112.2L533.3,113.1L535.2,111.5L539.5,111.7L541.5,110.0L551.2,111.3L551.7,110.4L547.2,108.0L540.7,108.1L536.4,106.2L534.9,104.6L536.2,105.1L536.5,103.9L535.1,103.2L528.0,104.6L542.5,97.1L561.9,85.2L565.3,81.1L561.8,77.9L549.9,72.6L552.1,72.0L555.3,69.2L554.9,67.6L551.1,66.3L549.9,64.8L551.2,63.6L551.1,62.7L547.8,62.0L546.0,60.3L548.3,58.5L546.1,57.5L548.2,54.3L547.2,53.8L551.0,53.2L550.9,52.1L549.0,49.1L540.7,41.1L542.4,39.0L549.4,34.5L549.9,33.3L543.4,29.4L536.9,28.1L534.7,25.1L537.7,21.6L534.1,21.0L541.2,19.5L543.9,17.0L549.9,16.1L551.6,15.0L551.6,13.7L558.6,14.6L559.2,13.9L558.7,12.2L565.5,13.0L567.9,11.8L570.0,11.9L569.8,10.5L580.1,12.8L579.2,14.0L570.9,13.7L573.8,15.2L580.0,15.3L579.8,16.3L584.5,15.7L583.3,18.5L581.4,19.3L584.4,18.7L586.8,16.9L600.1,17.8L602.9,17.2L608.6,18.1L627.3,23.1L634.3,26.4L638.3,26.8L645.7,29.3L648.2,29.4L647.5,28.4L648.1,28.5L653.8,31.7L659.7,32.9L661.3,37.3L663.6,37.9L661.9,41.7L655.2,45.5L651.0,47.0L636.5,49.3L629.0,49.0L619.8,47.3L605.1,46.0L598.2,43.9L594.8,44.5L594.0,43.9L594.5,43.5L581.5,41.6L578.5,39.8L579.3,39.1L569.0,38.4L575.0,40.0L574.6,40.8L578.6,42.8L581.8,43.2L582.2,44.7L586.6,45.6L583.6,46.7L591.1,47.7L596.9,50.5L597.8,52.3L596.2,54.9L594.1,56.0L598.0,60.1L598.3,62.0L599.5,62.4L598.6,62.9L598.7,64.4L600.4,65.6L604.3,66.5L606.5,66.2L611.5,68.1L613.6,70.0L623.7,71.8L629.7,70.5L630.6,69.1L629.5,66.8L627.4,66.0L621.8,65.9L615.8,62.1L615.3,60.6L617.9,60.1L618.8,58.3L621.4,58.1L625.3,58.9L630.1,61.2L647.6,64.2L650.6,62.3L654.4,62.2L652.8,60.0L648.0,56.5L647.5,55.5L648.2,54.0L653.3,52.5L656.9,50.4L664.8,48.8L672.1,44.8L676.0,45.8L682.3,45.8L686.5,47.5L685.4,48.8L688.4,48.6L691.0,49.9L691.0,47.6L694.9,43.3L694.3,40.6L692.9,39.0L687.8,37.5L692.3,30.0L692.0,27.5L691.7,26.7L683.3,23.3L690.5,24.5L700.0,24.2L700.0,34.9L699.0,35.9L700.0,36.7Z"/><path class="land" fill-rule="evenodd" d="M459.0,157.1L459.6,157.2L455.9,160.2L461.9,160.6L462.4,157.4L463.9,157.2L470.7,159.4L475.7,159.4L478.2,161.3L476.8,164.4L477.7,166.4L446.0,165.4L448.6,163.7L449.7,160.8L455.2,160.1L459.0,157.1Z"/><path class="land" fill-rule="evenodd" d="M600.0,252.7L604.6,256.8L610.1,256.3L611.7,255.5L615.8,256.1L613.9,259.3L608.7,259.9L606.8,259.0L604.7,259.0L600.9,262.0L597.2,261.9L594.7,262.8L592.8,264.6L589.1,266.1L584.5,264.5L586.1,260.9L585.6,259.0L579.2,256.5L576.1,256.7L575.1,256.0L586.6,250.5L585.9,249.0L586.6,247.8L593.5,249.4L594.5,250.3L596.9,250.2L598.0,252.1L600.0,252.7Z"/><path class="land" fill-rule="evenodd" d="M608.2,58.2L608.6,59.2L607.8,60.2L605.3,58.5L608.2,58.2Z"/><path class="land" fill-rule="evenodd" d="M677.1,43.0L674.6,42.3L676.3,42.2L677.1,43.0Z"/><path class="land" fill-rule="evenodd" d="M374.0,270.7L375.0,270.1L374.9,271.0L374.0,270.7Z"/><path class="land" fill-rule="evenodd" d="M477.1,267.6L476.0,269.2L474.2,269.9L473.7,272.2L475.5,275.5L479.8,278.1L479.4,279.0L477.1,281.2L474.7,281.6L474.4,283.7L475.3,285.2L474.2,286.7L465.6,287.5L465.2,286.7L467.5,283.3L463.9,282.5L464.0,281.7L458.0,277.4L456.2,278.0L456.2,279.7L453.4,281.7L452.7,280.6L446.1,278.3L442.2,275.5L442.5,274.2L444.5,274.4L445.0,273.6L442.5,270.3L445.8,269.6L441.2,266.4L443.5,261.2L440.0,261.0L440.9,260.7L440.6,258.6L441.4,258.0L444.0,257.9L440.0,256.0L440.6,254.9L439.2,254.0L438.4,251.6L440.7,249.9L442.8,250.0L445.3,248.4L452.1,248.7L457.8,252.5L457.9,255.3L464.9,258.5L463.5,259.9L465.3,261.0L463.6,261.7L470.9,264.6L475.0,262.9L476.4,263.5L477.3,264.3L475.5,264.6L474.9,265.6L477.1,267.6Z"/><path class="land" fill-rule="evenodd" d="M421.5,229.9L418.7,226.1L420.6,222.2L421.9,221.4L427.6,221.1L430.9,219.3L431.6,217.4L436.0,215.1L439.4,215.0L439.7,216.0L441.5,216.0L444.4,214.0L446.3,215.9L447.7,216.3L447.6,218.0L450.6,218.2L451.6,216.8L453.6,216.1L458.7,216.9L460.8,215.8L466.4,215.9L468.9,216.6L470.2,217.9L475.4,219.3L471.4,224.3L471.1,226.1L467.2,226.5L464.5,224.5L454.9,224.7L453.3,227.0L449.5,228.5L446.3,227.8L444.7,228.9L437.9,230.0L437.2,232.1L427.6,232.3L421.5,229.9Z"/><path class="land" fill-rule="evenodd" d="M387.0,244.8L395.5,246.0L398.9,243.9L409.6,243.2L409.8,242.0L410.9,241.4L412.8,241.4L415.2,245.0L413.2,244.7L412.3,246.3L406.4,248.0L406.5,251.4L402.8,252.7L403.5,253.4L402.8,254.2L403.4,255.3L397.9,255.2L395.7,253.4L393.7,255.2L389.9,254.9L388.8,255.7L385.8,254.8L388.7,253.9L385.8,251.9L386.0,250.2L384.9,250.1L386.3,248.2L383.8,247.4L387.0,244.8Z"/><path class="land" fill-rule="evenodd" d="M456.2,19.6L470.0,24.8L478.5,26.3L481.0,27.4L481.8,28.6L486.4,30.5L485.0,31.2L485.4,33.9L484.5,35.4L487.3,35.8L487.7,36.7L486.3,37.7L486.4,38.7L489.9,41.9L488.7,44.2L487.0,45.2L487.0,47.5L489.1,48.5L491.6,51.9L486.9,51.7L481.0,52.6L477.5,51.3L475.4,52.1L474.0,51.4L472.5,54.0L470.9,53.9L471.5,54.5L469.2,54.7L468.8,55.8L465.7,55.9L465.2,56.4L466.1,57.4L464.1,56.8L465.7,58.7L461.4,61.9L465.2,65.4L460.2,68.2L457.6,71.3L449.1,73.9L447.2,75.4L443.5,75.2L440.3,77.6L436.1,78.2L435.3,79.4L433.1,80.0L435.0,80.1L434.6,81.0L431.7,82.1L428.8,81.3L429.7,82.8L429.0,83.4L430.4,84.0L426.5,85.5L424.1,84.9L424.3,86.7L426.3,87.7L425.1,88.3L423.7,91.3L424.7,93.2L422.0,92.8L421.3,94.2L422.5,103.0L425.9,103.7L426.6,104.6L429.6,104.1L431.6,105.9L435.6,107.5L435.4,108.5L438.5,109.7L439.7,112.4L429.6,116.4L431.3,116.8L435.1,115.9L436.2,116.7L434.1,117.1L432.9,118.9L419.8,123.5L412.1,123.6L417.9,124.1L419.2,125.1L416.5,125.7L417.7,127.9L417.0,128.4L416.9,130.8L416.0,130.9L415.6,131.9L416.5,135.0L414.8,137.3L415.3,139.3L413.5,142.9L409.2,148.3L397.1,148.7L397.5,149.7L395.6,149.5L392.2,151.7L392.0,152.7L393.4,154.7L391.7,156.0L388.1,155.7L383.2,156.5L378.9,155.9L379.7,152.5L374.7,147.1L378.0,147.4L376.6,145.6L378.6,145.5L379.2,144.8L378.8,143.8L374.2,140.9L370.5,135.5L369.6,135.7L368.8,133.2L367.3,132.8L367.0,130.3L365.5,130.0L364.5,128.8L364.3,126.6L362.5,126.3L361.5,120.1L363.0,119.1L365.4,121.1L367.1,119.8L368.0,117.1L366.8,114.1L369.3,111.4L371.7,110.9L374.9,108.9L375.9,105.5L372.9,100.0L377.1,99.4L378.8,96.5L371.6,92.8L373.0,87.1L371.1,84.1L371.1,80.8L372.2,80.0L370.0,77.1L372.1,75.1L371.8,74.0L377.9,70.0L382.0,69.2L389.6,69.9L391.4,68.3L390.8,65.4L386.5,64.2L394.8,57.0L396.3,52.1L395.4,48.7L400.4,48.3L404.8,46.9L404.2,45.1L414.0,39.5L414.3,38.4L411.3,35.7L411.9,34.9L414.6,34.5L417.8,31.0L423.2,29.0L429.2,30.4L431.8,28.0L431.6,24.7L433.8,24.4L449.7,26.4L452.4,25.2L449.7,24.6L452.4,23.3L453.5,21.5L451.2,19.8L456.2,19.6Z"/><path class="land" fill-rule="evenodd" d="M415.3,147.1L414.3,147.6L414.0,146.9L414.1,144.3L420.0,136.8L421.2,136.8L415.3,147.1Z"/><path class="land" fill-rule="evenodd" d="M440.8,131.6L438.1,132.9L437.9,135.2L439.1,136.0L434.8,138.4L433.4,140.2L431.5,140.8L432.9,139.2L431.1,137.3L431.4,134.4L435.4,131.7L438.1,131.7L439.0,130.8L440.8,131.6Z"/><path class="land" fill-rule="evenodd" d="M441.6,130.8L441.4,131.4L440.4,130.9L441.3,130.2L443.3,130.4L441.6,130.8Z"/><path class="land" fill-rule="evenodd" d="M434.2,119.7L433.5,119.8L434.9,119.0L434.2,119.7Z"/><path class="land" fill-rule="evenodd" d="M436.0,115.3L435.7,114.7L437.0,114.7L436.0,115.3Z"/><path class="land" fill-rule="evenodd" d="M673.6,338.9L667.9,344.0L664.2,344.9L663.0,346.2L662.5,349.3L663.5,353.6L662.2,357.1L661.9,362.3L659.9,365.7L650.3,370.0L613.4,370.0L615.8,367.8L615.0,365.7L613.3,365.0L614.3,363.9L613.0,363.2L609.8,363.7L608.9,360.5L609.0,355.8L607.6,354.3L608.4,351.5L608.9,350.8L611.5,351.7L613.5,350.0L613.8,348.3L616.4,347.7L615.4,345.4L616.6,342.0L619.4,342.4L620.7,343.5L624.4,343.6L631.9,341.0L637.7,343.1L643.6,343.2L650.2,341.7L657.1,339.0L665.2,339.1L672.0,337.0L673.6,338.9Z"/><path class="land" fill-rule="evenodd" d="M325.0,370.0L328.4,365.9L331.9,363.5L333.9,358.0L332.5,352.0L333.5,346.3L332.1,344.8L336.0,341.7L335.8,340.6L346.9,336.6L348.4,336.9L348.3,338.6L348.8,337.5L352.0,337.9L351.9,339.7L353.3,341.3L352.9,342.2L354.1,342.7L359.5,339.4L360.5,339.3L361.3,341.3L358.0,345.1L355.3,346.8L354.8,348.2L355.9,351.1L360.0,353.7L361.2,357.6L356.9,363.2L351.2,367.2L350.4,368.6L350.8,370.0Z"/><path class="land" fill-rule="evenodd" d="M362.8,362.5L361.2,363.2L362.5,361.8L362.8,362.5Z"/><path class="land" fill-rule="evenodd" d="M684.4,298.9L686.3,300.7L687.2,302.8L685.7,305.2L687.1,308.3L686.7,308.7L689.4,309.8L694.0,310.0L698.2,313.5L695.9,312.3L694.6,313.3L693.9,315.8L690.2,316.2L691.8,318.6L691.7,320.7L692.7,321.6L693.0,326.1L694.5,326.7L692.1,330.9L695.9,332.9L695.7,335.6L697.9,337.1L697.7,338.6L696.1,338.2L692.8,340.2L691.1,337.0L686.8,337.7L677.7,336.3L673.6,338.9L672.0,337.0L665.2,339.1L657.1,339.0L650.2,341.7L643.6,343.2L637.7,343.1L631.9,341.0L624.4,343.6L620.7,343.5L619.4,342.4L616.6,342.0L615.4,345.4L616.4,347.7L613.8,348.3L613.5,350.0L611.3,351.7L608.9,350.8L609.6,350.0L608.1,346.9L611.9,343.4L611.8,341.9L610.5,340.9L603.9,344.2L597.0,341.8L586.9,348.2L577.9,349.6L573.8,348.2L570.2,344.6L562.4,341.8L556.4,341.3L554.5,347.3L552.3,346.9L546.9,348.4L542.2,346.8L539.7,342.8L538.2,343.2L533.0,341.9L530.2,343.7L530.8,342.5L526.6,343.3L524.5,342.9L530.1,341.7L532.4,339.7L522.6,340.2L523.0,338.7L525.4,338.4L525.2,337.5L522.2,336.1L520.7,333.4L522.2,332.7L522.3,330.2L512.9,327.2L514.2,326.3L513.8,323.8L514.4,323.6L515.9,324.4L516.7,326.6L517.3,325.8L518.6,326.3L521.4,325.5L519.1,325.2L517.6,322.9L520.1,321.1L518.1,320.4L518.5,318.8L516.8,317.1L519.0,314.5L511.1,315.3L511.0,314.8L511.8,310.1L513.1,309.8L517.4,306.0L522.8,305.4L524.8,306.8L527.3,306.7L528.5,306.2L527.3,305.2L528.7,304.9L529.9,305.1L529.6,306.3L540.1,306.1L540.6,305.8L537.9,304.7L539.6,303.7L548.5,302.4L543.6,301.9L541.1,300.6L540.5,299.9L541.5,297.8L562.5,298.9L564.6,296.8L573.1,292.7L583.8,289.8L597.5,290.4L600.1,289.4L601.5,289.7L601.2,291.1L603.0,292.7L605.6,293.7L610.5,293.2L611.8,295.7L614.1,297.3L617.8,296.4L620.7,298.2L633.8,300.8L644.3,298.9L648.1,300.2L652.7,300.4L660.8,297.4L665.1,294.8L668.2,295.7L669.3,295.0L674.7,295.6L676.8,294.1L684.4,298.9Z"/><path class="land" fill-rule="evenodd" d="M513.2,292.8L515.8,290.5L520.1,289.4L522.4,289.1L525.3,290.8L530.1,290.3L529.9,291.5L532.0,294.5L540.6,297.7L539.6,299.9L537.8,300.3L531.7,299.2L529.3,300.1L525.0,300.3L522.6,303.1L517.7,305.0L512.0,309.2L512.5,306.9L517.9,303.7L511.1,303.9L510.4,302.7L513.3,300.5L513.3,297.6L516.2,296.0L515.8,294.0L513.2,292.8Z"/><path class="land" fill-rule="evenodd" d="M509.7,308.6L506.7,308.6L509.2,307.6L509.7,308.6Z"/><path class="land" fill-rule="evenodd" d="M486.1,194.8L486.1,193.9L487.1,193.6L489.8,194.1L493.6,191.3L507.9,190.8L521.4,192.5L523.0,194.0L526.9,194.3L527.0,195.2L528.6,194.1L531.8,193.9L536.0,194.6L537.3,195.7L541.0,193.7L543.5,196.2L551.6,195.2L555.4,197.3L556.3,196.4L555.3,194.0L555.8,193.1L559.8,189.5L565.7,188.9L571.2,189.5L572.8,188.9L574.4,186.9L578.1,187.5L581.5,186.6L587.4,186.6L589.2,187.5L591.1,190.2L594.0,192.2L593.8,192.8L591.2,193.2L592.8,196.6L592.1,197.4L597.1,198.3L600.6,198.0L601.6,199.4L603.1,199.6L604.4,202.7L604.1,204.6L605.9,206.3L611.2,205.9L616.2,207.9L624.2,205.9L627.0,208.9L630.5,210.8L632.6,209.5L639.2,211.8L641.7,211.4L647.8,214.3L650.8,214.2L651.1,217.5L648.9,219.4L646.9,219.9L650.0,221.8L647.9,221.9L646.4,224.1L648.4,224.6L648.5,227.0L649.6,227.6L647.4,231.6L639.0,231.4L636.4,233.3L632.9,234.4L632.1,239.1L625.4,239.3L623.4,240.8L620.5,241.2L617.9,242.9L615.6,242.4L612.8,243.4L608.3,243.8L600.1,248.9L602.8,247.2L602.3,245.6L600.6,247.3L598.5,248.1L598.6,250.1L600.0,252.7L598.0,252.1L596.9,250.2L594.5,250.3L593.5,249.4L588.1,247.9L586.6,247.8L585.9,249.0L584.3,249.4L582.0,248.2L574.8,249.2L568.3,247.2L567.8,246.8L569.9,246.4L570.1,245.7L565.5,244.5L573.6,245.3L575.8,243.8L573.5,244.4L570.4,243.6L569.4,242.2L569.4,240.2L567.6,237.9L569.1,240.7L568.7,243.5L565.3,243.4L565.6,242.2L564.0,243.7L558.0,244.5L556.6,247.3L552.2,251.3L546.3,252.8L547.1,257.4L544.0,255.8L537.8,256.9L537.6,257.7L534.5,257.1L532.1,255.5L535.0,254.8L534.9,253.3L539.5,249.5L540.1,248.2L539.6,245.4L541.9,244.8L542.0,246.2L543.0,245.3L546.1,246.0L547.1,245.5L548.4,246.5L551.3,245.8L549.2,244.6L548.8,241.7L545.7,240.4L545.4,237.3L541.3,235.1L542.1,232.2L541.3,230.4L539.2,230.5L537.7,228.8L535.3,228.5L534.6,229.1L532.9,227.6L525.5,225.2L522.3,226.3L518.5,226.1L513.1,228.0L511.6,230.1L504.6,230.9L498.9,232.8L494.8,230.5L491.8,230.9L481.4,229.1L478.8,230.5L477.7,228.9L475.8,228.7L473.5,227.4L472.5,225.9L471.3,225.9L471.4,224.3L475.4,219.3L478.5,219.4L477.1,218.3L476.5,214.6L477.1,213.9L487.1,206.2L489.7,205.9L490.9,204.7L489.8,202.1L491.0,201.3L486.6,196.9L486.1,194.8Z"/><path class="land" fill-rule="evenodd" d="M570.1,248.0L571.5,248.5L565.6,247.4L565.1,246.3L566.4,247.3L570.1,248.0Z"/></g><g id="rivers"><path class="river part-shape" data-part="ね" d="M341.3,233.3L338.8,233.4"/><path class="river part-shape" data-part="ね" d="M341.8,233.3L345.5,234.9"/><path class="river part-shape" data-part="ね" d="M337.5,243.2L344.2,241.7"/><path class="river part-shape" data-part="ね" d="M344.1,241.7L345.3,240.4L344.8,238.3L346.3,235.3L345.5,234.9"/><path class="river part-shape" data-part="ね" d="M341.3,233.3L341.8,233.3"/><path class="river part-shape" data-part="ね" d="M338.8,233.4L329.3,234.4L325.7,233.9L325.3,233.3L325.8,229.4L328.4,223.6L332.3,220.3"/><path class="river part-shape" data-part="ね" d="M332.3,220.3L335.0,216.0L333.8,213.9L334.4,212.3L333.6,210.9L332.4,209.8L328.0,209.6L326.1,207.8L326.1,206.3L322.6,204.4L317.6,198.1L316.0,193.6L310.8,191.3L299.9,191.8"/><path class="river part-shape" data-part="の" d="M297.1,234.2L294.1,229.2L288.6,224.8L278.2,225.9L275.0,224.2L274.0,221.9L272.5,220.9L267.2,220.1L257.8,215.3L254.4,215.3"/><path class="river part-shape" data-part="は" d="M405.8,203.1L408.8,206.3L408.2,208.9L402.4,209.7L400.9,208.5L396.3,207.8L393.9,205.6L390.4,204.3L392.0,202.5L391.4,200.8L385.2,198.6L381.8,195.3"/><path class="river part-shape" data-part="は" d="M381.9,195.3L377.4,191.6L371.5,191.3L366.9,189.3L366.9,187.9L369.8,185.6L370.1,182.3L369.2,180.8L361.1,178.5L356.8,176.3L350.8,175.6"/><path class="river part-shape" data-part="は" d="M350.8,175.6L347.8,174.5L350.5,174.8L350.8,175.6"/><path class="river part-shape" data-part="ひ" d="M280.8,240.1L277.9,234.1L273.6,232.0L269.7,231.1L267.7,231.3L261.6,235.3L250.8,237.8L245.8,236.0L239.4,236.3L232.6,237.8"/><path class="river part-shape" data-part="ひ" d="M280.8,240.1L284.9,241.7L287.5,244.4L289.8,245.4L291.0,248.3L290.3,250.2L292.1,252.6L292.6,255.2L290.8,257.6L289.5,258.0L289.0,260.3L289.3,261.3L291.7,262.3L292.0,261.8"/><path class="river part-shape" data-part="ふ" d="M311.3,248.0L314.3,245.7L318.7,246.0"/><path class="river part-shape" data-part="ふ" d="M296.2,272.9L294.4,273.5L293.7,274.7L294.1,275.5"/><path class="river part-shape" data-part="ふ" d="M311.3,248.0L309.0,248.8L306.8,253.2L303.5,251.5L299.5,251.9L298.2,252.9L297.9,257.1L298.6,260.9L296.7,266.5L297.1,268.7L298.4,269.9L296.9,270.9L296.2,272.8L297.9,276.0"/><path class="river part-shape" data-part="ふ" d="M332.5,245.2L329.6,246.7L326.5,246.7L320.9,248.5L318.7,246.0"/><path class="river part-shape" data-part="へ" d="M422.1,229.4L427.6,232.3L441.0,232.2L440.6,235.2L438.8,238.5L439.8,242.6L438.7,244.1L439.2,247.3L437.3,249.9L439.2,254.0L440.6,254.9L440.0,256.0L442.7,257.2L448.6,257.3L452.5,258.5L453.5,260.9L456.4,261.7L457.3,263.1L463.6,261.7L470.9,264.6L475.0,262.9L476.4,263.5L477.3,264.3L475.5,264.6L474.9,265.6L480.3,269.2L478.7,270.5L479.2,271.7L482.2,271.3L501.6,273.1L506.9,272.9L514.9,269.2L524.1,268.6L530.2,266.6L530.8,265.2L528.3,262.0L530.1,256.4L532.1,255.5L534.5,257.1L537.6,257.7"/><path class="river part-shape" data-part="へ" d="M332.2,229.5L334.9,230.7L337.0,230.6L344.2,228.8L345.9,227.6L357.1,223.2L366.8,222.1L370.2,220.4L370.3,219.7L375.1,220.8"/><path class="river part-shape" data-part="へ" d="M422.1,229.4L420.3,228.3L414.9,227.9L412.1,226.2L405.7,225.8L401.5,228.0L395.8,227.8L382.0,223.6L379.1,221.6L375.1,220.7"/><path class="river part-shape" data-part="ほ" d="M684.3,143.3L680.9,138.8L681.8,136.7L675.8,135.8"/><path class="river part-shape" data-part="ほ" d="M621.5,142.5L618.8,142.2L615.2,143.6L613.7,142.9"/><path class="river part-shape" data-part="ほ" d="M627.6,137.1L630.8,136.2L633.0,134.3"/><path class="river part-shape" data-part="ほ" d="M663.4,135.1L662.1,134.8L658.4,132.0L650.1,134.3"/><path class="river part-shape" data-part="ほ" d="M634.4,129.8L633.3,129.2L634.1,127.1L637.0,128.9"/><path class="river part-shape" data-part="ほ" d="M700.0,216.8L695.3,224.0L700.0,225.6"/><path class="river part-shape" data-part="ほ" d="M684.3,143.3L692.6,148.2L695.7,149.1L700.0,148.8"/><path class="river part-shape" data-part="ほ" d="M621.5,142.5L624.8,140.7L627.6,137.1"/><path class="river part-shape" data-part="ほ" d="M576.0,137.5L577.3,140.6L585.3,141.7L589.6,144.3L589.8,144.9L588.6,145.8L596.7,147.9L599.0,146.6L599.4,144.5L606.7,141.6L610.7,141.5L613.7,142.9"/><path class="river part-shape" data-part="ほ" d="M663.4,135.1L675.8,135.8"/><path class="river part-shape" data-part="ほ" d="M650.1,134.3L645.2,130.9L637.0,128.9"/><path class="river part-shape" data-part="ほ" d="M633.0,134.3L634.8,131.3L634.4,129.8"/></g><g id="markers"><g class="marker m-zone" data-part="あ" transform="translate(400.0,15.0)"><circle class="hit" r="16"/><circle class="dot" r="4"/></g><g class="marker m-zone" data-part="い" transform="translate(550.0,30.0)"><circle class="hit" r="16"/><circle class="dot" r="4"/></g><g class="marker m-zone" data-part="う" transform="translate(30.0,110.0)"><circle class="hit" r="16"/><circle class="dot" r="4"/></g><g class="marker m-zone" data-part="え" transform="translate(150.0,210.0)"><circle class="hit" r="16"/><circle class="dot" r="4"/></g><g class="marker m-zone" data-part="お" transform="translate(160.0,310.0)"><circle class="hit" r="16"/><circle class="dot" r="4"/></g><g class="marker m-zone" data-part="か" transform="translate(455.0,80.0)"><circle class="hit" r="16"/><circle class="dot" r="4"/></g><g class="marker m-zone" data-part="き" transform="translate(440.0,145.0)"><circle class="hit" r="16"/><circle class="dot" r="4"/></g><g class="marker m-zone" data-part="く" transform="translate(280.0,150.0)"><circle class="hit" r="16"/><circle class="dot" r="4"/></g><g class="marker m-zone" data-part="け" transform="translate(220.0,50.0)"><circle class="hit" r="16"/><circle class="dot" r="4"/></g><g class="marker m-zone" data-part="こ" transform="translate(264.0,201.0)"><circle class="hit" r="16"/><circle class="dot" r="4"/></g><g class="marker m-zone" data-part="さ" transform="translate(200.0,255.0)"><circle class="hit" r="16"/><circle class="dot" r="4"/></g><g class="marker m-zone" data-part="し" transform="translate(194.0,350.5)"><circle class="hit" r="16"/><circle class="dot" r="4"/></g><g class="marker m-zone" data-part="す" transform="translate(400.0,330.0)"><circle class="hit" r="16"/><circle class="dot" r="4"/></g><g class="marker m-zone" data-part="せ" transform="translate(500.0,325.0)"><circle class="hit" r="16"/><circle class="dot" r="4"/></g><g class="marker m-zone" data-part="そ" transform="translate(590.0,275.0)"><circle class="hit" r="16"/><circle class="dot" r="4"/></g><g class="marker m-zone" data-part="た" transform="translate(620.0,35.0)"><circle class="hit" r="16"/><circle class="dot" r="4"/></g><g class="marker m-island" data-part="ち" transform="translate(170.0,177.0)"><circle class="hit" r="16"/><circle class="dot" r="4"/></g><g class="marker m-island" data-part="つ" transform="translate(235.0,180.0)"><circle class="hit" r="16"/><circle class="dot" r="4"/></g><g class="marker m-island" data-part="て" transform="translate(60.0,61.0)"><circle class="hit" r="16"/><circle class="dot" r="4"/></g><g class="marker m-zone" data-part="と" transform="translate(343.0,148.0)"><circle class="hit" r="16"/><circle class="dot" r="4"/></g><g class="marker m-zone" data-part="な" transform="translate(210.0,310.0)"><circle class="hit" r="16"/><circle class="dot" r="4"/></g><g class="marker m-zone" data-part="に" transform="translate(400.0,80.0)"><circle class="hit" r="16"/><circle class="dot" r="4"/></g><g class="marker m-zone" data-part="ぬ" transform="translate(470.0,285.0)"><circle class="hit" r="16"/><circle class="dot" r="4"/></g><g class="marker m-zone" data-part="ね" transform="translate(325.0,205.0)"><circle class="hit" r="16"/><circle class="dot" r="4"/></g><g class="marker m-zone" data-part="の" transform="translate(275.0,222.0)"><circle class="hit" r="16"/><circle class="dot" r="4"/></g><g class="marker m-zone" data-part="は" transform="translate(365.0,180.0)"><circle class="hit" r="16"/><circle class="dot" r="4"/></g><g class="marker m-zone" data-part="ひ" transform="translate(255.0,236.0)"><circle class="hit" r="16"/><circle class="dot" r="4"/></g><g class="marker m-zone" data-part="ふ" transform="translate(298.0,265.0)"><circle class="hit" r="16"/><circle class="dot" r="4"/></g><g class="marker m-zone" data-part="へ" transform="translate(450.0,260.0)"><circle class="hit" r="16"/><circle class="dot" r="4"/></g><g class="marker m-zone" data-part="ほ" transform="translate(700.0,210.0)"><circle class="hit" r="16"/><circle class="dot" r="4"/></g><g class="marker m-zone" data-part="ま" transform="translate(350.0,245.0)"><circle class="hit" r="16"/><circle class="dot" r="4"/></g><g class="marker m-zone" data-part="み" transform="translate(255.0,283.0)"><circle class="hit" r="16"/><circle class="dot" r="4"/></g><g class="marker m-zone" data-part="む" transform="translate(385.0,285.0)"><circle class="hit" r="16"/><circle class="dot" r="4"/></g><g class="marker m-zone" data-part="め" transform="translate(380.0,60.0)"><circle class="hit" r="16"/><circle class="dot" r="4"/></g><g class="marker m-zone" data-part="や" transform="translate(430.0,185.0)"><circle class="hit" r="16"/><circle class="dot" r="4"/></g><g class="marker m-city" data-part="1" transform="translate(30.6,68.5)"><circle class="hit" r="16"/><circle class="dot" r="4"/></g><g class="marker m-city" data-part="2" transform="translate(187.4,176.5)"><circle class="hit" r="16"/><circle class="dot" r="4"/></g><g class="marker m-city" data-part="3" transform="translate(207.5,151.4)"><circle class="hit" r="16"/><circle class="dot" r="4"/></g><g class="marker m-city" data-part="4" transform="translate(227.6,175.2)"><circle class="hit" r="16"/><circle class="dot" r="4"/></g><g class="marker m-city" data-part="5" transform="translate(248.7,194.9)"><circle class="hit" r="16"/><circle class="dot" r="4"/></g><g class="marker m-city" data-part="6" transform="translate(273.5,221.4)"><circle class="hit" r="16"/><circle class="dot" r="4"/></g><g class="marker m-city" data-part="7" transform="translate(158.6,322.8)"><circle class="hit" r="16"/><circle class="dot" r="4"/></g><g class="marker m-city" data-part="8" transform="translate(213.0,305.8)"><circle class="hit" r="16"/><circle class="dot" r="4"/></g><g class="marker m-city" data-part="9" transform="translate(271.7,296.1)"><circle class="hit" r="16"/><circle class="dot" r="4"/></g><g class="marker m-city" data-part="10" transform="translate(303.7,277.0)"><circle class="hit" r="16"/><circle class="dot" r="4"/></g><g class="marker m-city" data-part="11" transform="translate(244.2,261.6)"><circle class="hit" r="16"/><circle class="dot" r="4"/></g><g class="marker m-city" data-part="12" transform="translate(298.3,252.4)"><circle class="hit" r="16"/><circle class="dot" r="4"/></g><g class="marker m-city" data-part="13" transform="translate(299.0,186.3)"><circle class="hit" r="16"/><circle class="dot" r="4"/></g><g class="marker m-city" data-part="14" transform="translate(293.5,201.5)"><circle class="hit" r="16"/><circle class="dot" r="4"/></g><g class="marker m-city" data-part="15" transform="translate(298.3,252.4)"><circle class="hit" r="16"/><circle class="dot" r="4"/></g><g class="marker m-city" data-part="16" transform="translate(303.7,277.0)"><circle class="hit" r="16"/><circle class="dot" r="4"/></g><g class="marker m-city" data-part="17" transform="translate(339.3,265.9)"><circle class="hit" r="16"/><circle class="dot" r="4"/></g><g class="marker m-city" data-part="18" transform="translate(341.9,255.4)"><circle class="hit" r="16"/><circle class="dot" r="4"/></g><g class="marker m-city" data-part="19" transform="translate(375.0,291.0)"><circle class="hit" r="16"/><circle class="dot" r="4"/></g><g class="marker m-city" data-part="20" transform="translate(392.7,301.5)"><circle class="hit" r="16"/><circle class="dot" r="4"/></g><g class="marker m-city" data-part="21" transform="translate(349.9,174.5)"><circle class="hit" r="16"/><circle class="dot" r="4"/></g><g class="marker m-city" data-part="22" transform="translate(319.6,200.6)"><circle class="hit" r="16"/><circle class="dot" r="4"/></g><g class="marker m-city" data-part="23" transform="translate(336.8,208.9)"><circle class="hit" r="16"/><circle class="dot" r="4"/></g><g class="marker m-city" data-part="24" transform="translate(384.0,184.8)"><circle class="hit" r="16"/><circle class="dot" r="4"/></g><g class="marker m-city" data-part="25" transform="translate(365.8,228.6)"><circle class="hit" r="16"/><circle class="dot" r="4"/></g><g class="marker m-city" data-part="26" transform="translate(394.2,209.2)"><circle class="hit" r="16"/><circle class="dot" r="4"/></g><g class="marker m-city" data-part="27" transform="translate(413.7,227.9)"><circle class="hit" r="16"/><circle class="dot" r="4"/></g><g class="marker m-city" data-part="28" transform="translate(440.4,235.0)"><circle class="hit" r="16"/><circle class="dot" r="4"/></g><g class="marker m-city" data-part="29" transform="translate(460.1,187.7)"><circle class="hit" r="16"/><circle class="dot" r="4"/></g><g class="marker m-city" data-part="30" transform="translate(375.7,153.2)"><circle class="hit" r="16"/><circle class="dot" r="4"/></g><g class="marker m-city" data-part="31" transform="translate(357.5,110.9)"><circle class="hit" r="16"/><circle class="dot" r="4"/></g><g class="marker m-city" data-part="32" transform="translate(430.7,116.7)"><circle class="hit" r="16"/><circle class="dot" r="4"/></g><g class="marker m-city" data-part="33" transform="translate(499.4,108.3)"><circle class="hit" r="16"/><circle class="dot" r="4"/></g><g class="marker m-city" data-part="34" transform="translate(454.6,262.1)"><circle class="hit" r="16"/><circle class="dot" r="4"/></g><g class="marker m-city" data-part="35" transform="translate(483.2,283.0)"><circle class="hit" r="16"/><circle class="dot" r="4"/></g><g class="marker m-city" data-part="36" transform="translate(409.8,251.9)"><circle class="hit" r="16"/><circle class="dot" r="4"/></g><g class="marker m-city" data-part="37" transform="translate(487.3,330.2)"><circle class="hit" r="16"/><circle class="dot" r="4"/></g><g class="marker m-city" data-part="38" transform="translate(511.0,265.7)"><circle class="hit" r="16"/><circle class="dot" r="4"/></g><g class="marker m-city" data-part="39" transform="translate(538.6,239.9)"><circle class="hit" r="16"/><circle class="dot" r="4"/></g><g class="marker m-city" data-part="40" transform="translate(421.1,228.5)"><circle class="hit" r="16"/><circle class="dot" r="4"/></g><g class="marker m-city" data-part="41" transform="translate(449.4,209.4)"><circle class="hit" r="16"/><circle class="dot" r="4"/></g><g class="marker m-city" data-part="42" transform="translate(460.1,187.7)"><circle class="hit" r="16"/><circle class="dot" r="4"/></g><g class="marker m-city" data-part="43" transform="translate(502.8,163.1)"><circle class="hit" r="16"/><circle class="dot" r="4"/></g><g class="marker m-city" data-part="44" transform="translate(525.7,171.0)"><circle class="hit" r="16"/><circle class="dot" r="4"/></g><g class="marker m-city" data-part="45" transform="translate(491.1,140.5)"><circle class="hit" r="16"/><circle class="dot" r="4"/></g><g class="marker m-city" data-part="46" transform="translate(497.5,115.6)"><circle class="hit" r="16"/><circle class="dot" r="4"/></g><g class="marker m-city" data-part="47" transform="translate(553.1,110.6)"><circle class="hit" r="16"/><circle class="dot" r="4"/></g><g class="marker m-city" data-part="48" transform="translate(430.7,116.7)"><circle class="hit" r="16"/><circle class="dot" r="4"/></g><g class="marker m-city" data-part="49" transform="translate(504.7,59.9)"><circle class="hit" r="16"/><circle class="dot" r="4"/></g><g class="marker m-city" data-part="50" transform="translate(303.2,106.1)"><circle class="hit" r="16"/><circle class="dot" r="4"/></g><g class="marker m-city" data-part="51" transform="translate(357.5,110.9)"><circle class="hit" r="16"/><circle class="dot" r="4"/></g><g class="marker m-city" data-part="52" transform="translate(307.3,120.3)"><circle class="hit" r="16"/><circle class="dot" r="4"/></g><g class="marker m-city" data-part="53" transform="translate(424.3,25.6)"><circle class="hit" r="16"/><circle class="dot" r="4"/></g><g class="marker m-city" data-part="54" transform="translate(452.2,31.4)"><circle class="hit" r="16"/><circle class="dot" r="4"/></g></g></svg>