<svg xmlns="http://www.w3.org/2000/svg" viewBox="0 0 760 284" data-region="russia"><style>.land{fill:#eef1ec;stroke:#94a3ae;stroke-width:.7;vector-effect:non-scaling-stroke}.river{fill:none;stroke:#8db8da;stroke-width:1.3;stroke-linecap:round;vector-effect:non-scaling-stroke}.grid{stroke:#d3dae1;stroke-width:.5}.grid-q{stroke:#9aa7b5;stroke-width:1.1;stroke-dasharray:6 4}.marker .hit{fill:#000;fill-opacity:0;pointer-events:all}.marker .dot{fill:#3a3a3c;stroke:#fff;stroke-width:1.2}.m-city .dot{fill:#1c1c1e}.m-river .dot{fill:#2f6690}.m-sea .dot{fill:#fff;stroke:#5aa0c6;stroke-width:2}.m-strait .dot{fill:#1a5276;stroke:#fff;stroke-width:1}.m-mountain .dot{fill:#8a5a2f;stroke:#fff;stroke-width:1}.m-lake .dot{fill:#7ec8e3}.m-island .dot{fill:#3f9142}.m-grid .dot{fill:#8e8e93;stroke:#fff;stroke-width:1}.m-land .dot{fill:#c9a878}</style><g id="grid"><line class="grid" x1="10.3" y1="0" x2="10.3" y2="284"/><line class="grid" x1="36.2" y1="0" x2="36.2" y2="284"/><line class="grid" x1="62.0" y1="0" x2="62.0" y2="284"/><line class="grid" x1="87.9" y1="0" x2="87.9" y2="284"/><line class="grid" x1="113.7" y1="0" x2="113.7" y2="284"/><line class="grid" x1="139.6" y1="0" x2="139.6" y2="284"/><line class="grid" x1="165.4" y1="0" x2="165.4" y2="284"/><line class="grid" x1="191.3" y1="0" x2="191.3" y2="284"/><line class="grid" x1="217.1" y1="0" x2="217.1" y2="284"/><line class="grid" x1="243.0" y1="0" x2="243.0" y2="284"/><line class="grid" x1="268.8" y1="0" x2="268.8" y2="284"/><line class="grid" x1="294.7" y1="0" x2="294.7" y2="284"/><line class="grid" x1="320.5" y1="0" x2="320.5" y2="284"/><line class="grid" x1="346.4" y1="0" x2="346.4" y2="284"/><line class="grid" x1="372.2" y1="0" x2="372.2" y2="284"/><line class="grid" x1="398.1" y1="0" x2="398.1" y2="284"/><line class="grid" x1="423.9" y1="0" x2="423.9" y2="284"/><line class="grid" x1="449.8" y1="0" x2="449.8" y2="284"/><line class="grid" x1="475.6" y1="0" x2="475.6" y2="284"/><line class="grid" x1="501.5" y1="0" x2="501.5" y2="284"/><line class="grid" x1="527.3" y1="0" x2="527.3" y2="284"/><line class="grid" x1="553.2" y1="0" x2="553.2" y2="284"/><line class="grid" x1="579.0" y1="0" x2="579.0" y2="284"/><line class="grid" x1="604.9" y1="0" x2="604.9" y2="284"/><line class="grid" x1="630.7" y1="0" x2="630.7" y2="284"/><line class="grid" x1="656.6" y1="0" x2="656.6" y2="284"/><line class="grid" x1="682.4" y1="0" x2="682.4" y2="284"/><line class="grid" x1="708.3" y1="0" x2="708.3" y2="284"/><line class="grid" x1="734.1" y1="0" x2="734.1" y2="284"/><line class="grid" x1="760.0" y1="0" x2="760.0" y2="284"/><line class="grid" x1="0" y1="284.4" x2="760" y2="284.4"/><line class="grid" x1="0" y1="258.5" x2="760" y2="258.5"/><line class="grid" x1="0" y1="232.7" x2="760" y2="232.7"/><line class="grid" x1="0" y1="206.8" x2="760" y2="206.8"/><line class="grid" x1="0" y1="181.0" x2="760" y2="181.0"/><line class="grid" x1="0" y1="155.1" x2="760" y2="155.1"/><line class="grid" x1="0" y1="129.3" x2="760" y2="129.3"/><line class="grid" x1="0" y1="103.4" x2="760" y2="103.4"/><line class="grid" x1="0" y1="77.6" x2="760" y2="77.6"/><line class="grid" x1="0" y1="51.7" x2="760" y2="51.7"/><line class="grid" x1="0" y1="25.9" x2="760" y2="25.9"/><line class="grid" x1="0" y1="0.0" x2="760" y2="0.0"/><line class="grid-q part-shape" data-part="あ" x1="0" y1="69.8" x2="760" y2="69.8"/><line class="grid-q part-shape" data-part="い" x1="217.1" y1="0" x2="217.1" y2="284"/><line class="grid-q part-shape" data-part="う" x1="0" y1="155.1" x2="760" y2="155.1"/></g><g id="land"><path class="land" fill-rule="evenodd" d="M292.2,222.2L289.7,223.2L280.5,223.7L275.2,226.9L277.2,231.7L273.8,235.1L274.3,237.6L268.3,237.8L270.2,241.5L266.3,242.9L264.9,245.9L265.1,248.5L263.0,250.1L259.3,249.2L256.3,250.7L257.1,251.6L255.7,252.1L252.5,252.0L250.0,254.4L249.1,259.4L238.3,261.6L229.9,261.6L221.5,259.2L226.5,253.8L225.7,251.4L221.4,250.8L221.4,246.9L220.0,242.7L221.9,240.4L219.8,239.7L219.7,237.3L221.7,236.2L220.9,235.1L222.7,233.4L223.7,229.4L227.4,230.4L229.1,231.8L231.0,231.3L232.9,230.3L233.3,228.3L237.9,227.4L240.5,225.7L242.0,221.6L245.9,221.0L246.9,219.4L257.0,221.1L258.9,222.6L263.2,220.6L265.2,221.7L266.2,219.5L269.8,219.3L270.0,217.5L273.4,214.8L275.3,215.6L275.5,217.6L277.0,217.6L276.3,221.7L277.5,223.9L286.3,219.9L288.1,220.1L287.7,221.1L291.3,220.1L294.1,221.1L291.4,221.5L292.2,222.2Z"/><path class="land" fill-rule="evenodd" d="M10.7,193.6L13.0,195.6L12.9,200.2L15.7,203.4L13.7,206.2L11.9,206.9L12.3,207.8L11.4,208.6L6.8,204.7L7.5,204.7L6.9,203.4L8.2,197.6L6.9,197.1L6.6,195.6L8.6,193.2L9.2,194.0L10.7,193.6Z"/><path class="land" fill-rule="evenodd" d="M13.5,103.2L12.4,103.2L13.5,103.2Z"/><path class="land" fill-rule="evenodd" d="M8.6,102.4L7.9,102.4L8.6,102.4Z"/><path class="land" fill-rule="evenodd" d="M10.3,101.6L11.7,102.1L9.0,102.9L8.7,102.0L10.3,101.6Z"/><path class="land" fill-rule="evenodd" d="M198.0,281.0L198.4,284.4L191.5,284.4L196.9,278.9L197.2,280.8L198.0,281.0Z"/><path class="land" fill-rule="evenodd" d="M147.3,212.5L145.4,212.6L143.5,209.1L140.5,209.0L135.9,206.6L132.7,206.1L132.2,204.3L133.0,203.1L131.5,201.1L139.6,200.1L140.6,200.9L140.0,201.2L142.6,202.4L141.6,203.3L141.9,204.1L144.6,205.6L144.2,206.7L142.6,206.9L147.3,209.1L146.7,209.9L147.8,210.8L146.8,211.0L147.3,212.5Z"/><path class="land" fill-rule="evenodd" d="M138.4,208.3L143.6,209.2L145.4,212.6L142.1,211.9L138.4,208.3Z"/><path class="land" fill-rule="evenodd" d="M147.3,212.5L146.8,211.0L147.8,210.8L146.7,209.9L147.3,209.1L142.6,206.9L144.2,206.7L144.6,205.6L141.9,204.1L141.6,203.3L142.6,202.4L140.0,201.2L140.6,200.9L139.6,200.1L141.0,199.3L147.5,201.2L148.2,200.1L145.7,198.2L147.0,197.0L151.6,200.2L154.0,200.6L158.1,197.3L162.6,202.7L167.3,205.4L163.1,205.8L162.1,210.2L159.5,212.8L159.6,214.9L158.2,215.0L155.1,212.7L156.6,211.9L155.6,210.7L156.8,209.9L155.1,208.4L147.3,212.5Z"/><path class="land" fill-rule="evenodd" d="M366.8,277.9L367.2,277.1L369.5,279.3L370.5,278.1L371.4,282.8L382.8,283.5L384.6,284.4L363.9,284.4L364.3,283.4L366.8,283.0L362.5,280.0L362.7,278.7L364.2,277.3L363.8,276.3L366.8,277.9Z"/><path class="land" fill-rule="evenodd" d="M54.7,187.5L54.1,189.3L52.4,189.2L51.3,190.3L51.1,192.6L49.0,194.0L51.8,196.6L49.3,196.9L47.8,196.0L44.5,196.6L41.9,197.9L42.1,199.6L41.0,200.0L37.5,200.4L33.5,198.8L25.4,199.9L25.9,197.8L22.5,194.8L23.4,194.2L23.1,192.1L25.7,190.3L22.6,187.3L24.3,184.9L26.0,185.7L25.4,187.0L38.8,187.8L47.0,185.3L54.7,187.5Z"/><path class="land" fill-rule="evenodd" d="M168.6,279.8L167.9,278.0L168.6,279.8Z"/><path class="land" fill-rule="evenodd" d="M5.2,181.6L7.0,181.6L5.8,184.3L8.2,185.9L6.4,186.3L7.7,188.0L4.9,188.6L5.3,189.8L4.4,189.5L2.3,191.5L2.3,193.6L0.0,192.5L0.0,180.2L5.2,181.6Z"/><path class="land" fill-rule="evenodd" d="M52.5,123.3L58.8,124.4L59.4,125.7L63.2,124.9L66.7,126.3L66.2,127.7L67.1,129.0L66.2,130.4L68.0,131.2L67.6,131.9L69.3,133.4L71.5,134.3L71.1,135.4L74.7,136.0L76.0,137.4L73.1,139.1L69.4,138.6L68.5,139.5L70.1,140.8L70.2,143.1L71.2,144.2L65.9,145.3L64.9,148.6L62.9,147.5L58.7,148.0L57.4,146.7L55.5,147.7L52.7,146.8L50.1,147.5L47.3,146.0L40.3,145.2L32.9,145.4L29.0,147.3L29.2,144.6L26.8,143.3L30.6,140.8L28.4,134.7L32.7,135.0L38.6,132.9L40.1,133.6L39.0,132.7L40.6,129.7L45.4,127.8L43.7,127.5L44.4,125.8L49.5,125.1L52.5,123.3Z"/><path class="land" fill-rule="evenodd" d="M380.7,270.1L380.5,271.1L383.0,272.5L382.8,274.7L374.0,274.6L371.0,275.6L367.3,274.7L365.7,273.1L369.6,268.5L372.1,267.2L374.0,267.6L374.1,268.4L378.8,268.4L380.7,269.2L380.7,270.1Z"/><path class="land" fill-rule="evenodd" d="M292.3,222.2L291.4,221.5L295.3,220.3L294.1,219.2L293.7,214.8L288.3,213.5L287.6,209.7L289.0,209.0L289.5,206.6L297.4,203.6L298.2,205.2L301.5,205.0L304.6,201.5L310.8,201.2L314.0,198.7L321.8,196.2L321.4,193.0L323.3,191.9L322.6,191.1L324.6,190.5L322.4,185.6L323.0,182.4L319.9,181.6L329.3,179.1L330.6,180.1L333.6,180.3L334.0,178.8L332.5,177.9L336.2,169.7L345.3,171.5L348.9,170.3L349.8,169.3L349.1,165.9L350.0,163.8L354.4,162.7L356.1,159.8L360.9,159.4L360.6,160.9L362.2,161.8L361.8,162.6L367.3,165.4L369.6,165.3L373.9,167.1L377.6,172.9L377.4,175.6L375.7,178.2L376.8,179.9L390.4,181.2L396.6,184.3L399.9,184.7L399.8,185.9L405.3,192.7L431.7,193.7L435.1,195.6L443.1,197.7L447.2,197.1L447.2,198.2L449.7,198.6L458.9,195.0L472.2,194.2L477.7,192.5L480.9,189.5L485.6,187.6L482.9,184.2L485.5,180.6L494.2,182.3L499.2,178.9L505.0,178.6L507.7,177.1L509.6,174.3L513.6,173.9L514.1,172.8L521.4,171.9L526.7,172.3L525.9,169.8L519.6,165.5L515.8,165.5L513.7,167.2L510.6,166.1L506.1,167.1L504.2,164.8L505.6,164.2L505.7,162.5L510.2,156.0L516.4,157.6L523.5,154.8L524.0,153.7L523.0,153.0L527.7,146.8L531.2,144.3L530.7,141.8L527.6,141.0L532.4,138.1L546.0,136.8L556.6,139.4L560.1,142.9L563.1,149.4L565.1,151.4L565.3,153.3L566.6,154.0L566.4,156.1L568.7,157.3L576.5,158.3L580.1,160.8L581.9,161.0L583.2,163.7L582.8,165.3L584.2,167.0L591.9,166.9L594.7,165.1L601.2,163.5L603.2,164.4L602.7,165.3L603.6,166.9L600.6,169.0L599.0,174.5L595.5,178.4L595.1,180.3L594.2,180.8L588.6,179.3L584.1,181.8L585.5,185.8L585.5,189.3L584.6,191.8L581.2,192.7L581.8,193.7L580.3,191.9L578.5,191.3L577.5,194.1L575.5,194.3L573.5,196.3L568.9,196.5L570.2,198.5L569.5,199.6L562.1,197.9L558.3,202.1L552.6,204.4L549.4,207.2L542.0,208.9L533.4,213.4L533.1,212.4L536.0,211.4L536.7,210.0L533.9,210.0L533.9,209.2L539.1,204.2L536.8,201.8L533.4,202.1L529.8,205.6L524.2,208.1L522.1,211.0L515.9,211.3L514.7,213.6L515.2,214.9L517.1,216.2L521.9,216.9L522.6,218.7L521.9,220.6L523.7,221.6L526.1,221.5L528.7,218.8L531.2,218.0L535.8,219.9L541.1,220.2L539.4,223.2L537.3,222.5L531.5,224.2L532.0,225.2L531.0,225.3L530.6,226.8L528.3,226.4L527.8,226.9L528.8,227.6L524.4,231.1L523.0,233.4L528.7,236.4L531.9,242.9L531.8,244.7L534.3,246.0L536.9,249.1L536.0,249.7L530.0,247.6L527.5,248.5L531.0,248.2L535.9,251.7L537.1,253.8L531.6,256.7L528.4,257.3L529.9,256.9L530.6,257.8L533.9,256.9L538.1,259.2L535.1,261.2L537.1,260.4L537.5,261.1L537.3,263.0L536.2,262.3L534.8,263.0L536.0,263.9L535.0,265.5L535.7,267.3L533.3,267.2L531.2,268.8L530.5,271.9L527.6,275.9L526.7,276.0L526.4,274.8L525.2,275.1L526.7,277.5L524.6,278.9L522.9,278.6L523.9,279.4L525.4,279.2L525.4,282.3L523.1,282.0L523.7,283.2L522.1,283.3L521.9,284.4L412.1,284.4L414.3,281.4L417.0,279.9L417.0,271.1L415.2,271.2L414.1,268.1L411.8,266.3L410.1,267.7L404.7,266.7L406.3,264.9L405.5,263.4L404.0,264.1L405.1,262.4L403.4,261.4L400.1,263.5L396.1,262.1L391.7,265.1L389.1,265.6L386.0,269.1L382.5,270.2L380.7,270.1L380.7,269.2L378.8,268.4L374.1,268.4L374.0,267.6L372.1,267.2L369.6,268.5L366.5,272.4L366.1,268.8L365.1,268.4L360.0,269.8L354.7,268.3L353.7,269.2L352.3,268.3L351.5,269.3L349.9,267.4L347.0,267.2L347.2,265.8L345.3,265.9L342.4,264.1L341.7,262.5L339.1,262.7L331.1,256.8L327.9,256.8L326.3,258.3L321.5,255.6L321.3,254.4L317.4,253.0L315.9,251.3L314.1,251.8L314.0,248.4L312.2,245.5L313.8,245.1L315.0,246.3L316.5,245.6L316.0,241.8L314.3,240.4L314.0,237.5L315.0,236.0L311.7,234.4L310.4,230.2L305.5,229.8L302.7,228.1L300.8,228.5L299.4,227.2L299.0,224.1L295.4,222.5L292.3,222.2Z"/><path class="land" fill-rule="evenodd" d="M526.4,282.0L525.8,282.1L525.9,281.1L526.4,282.0Z"/><path class="land" fill-rule="evenodd" d="M533.8,268.4L533.2,268.1L533.8,268.4Z"/><path class="land" fill-rule="evenodd" d="M538.6,260.2L538.0,259.7L538.6,260.2Z"/><path class="land" fill-rule="evenodd" d="M539.2,258.7L537.5,257.8L539.2,258.7Z"/><path class="land" fill-rule="evenodd" d="M537.0,250.8L533.6,249.2L537.0,250.8Z"/><path class="land" fill-rule="evenodd" d="M82.7,232.3L76.1,231.8L77.2,230.6L80.7,230.8L85.6,229.2L82.4,231.1L82.7,232.3Z"/><path class="land" fill-rule="evenodd" d="M76.1,231.8L83.0,232.7L77.3,234.8L74.7,234.1L74.0,232.9L73.9,232.2L76.1,231.8Z"/><path class="land" fill-rule="evenodd" d="M0.0,155.0L2.9,155.7L4.3,157.6L0.8,158.9L0.0,160.1Z"/><path class="land" fill-rule="evenodd" d="M84.0,252.3L87.4,261.2L83.9,270.1L78.8,265.9L75.3,258.6L74.2,260.4L77.0,265.9L80.4,269.4L82.5,275.8L87.5,284.4L36.1,284.4L36.1,262.7L34.7,257.5L36.0,255.0L35.4,251.6L37.0,249.9L47.8,251.4L57.2,254.2L67.6,250.2L71.8,250.5L73.1,251.6L71.8,250.8L71.2,251.8L72.9,252.9L73.5,251.8L75.5,253.0L83.7,251.7L84.0,252.3Z"/><path class="land" fill-rule="evenodd" d="M23.9,110.5L27.5,111.4L22.6,112.6L20.7,114.1L21.7,112.9L20.1,112.4L20.0,111.2L23.9,110.5Z"/><path class="land" fill-rule="evenodd" d="M27.6,110.9L26.2,110.6L27.6,110.9Z"/><path class="land" fill-rule="evenodd" d="M25.5,109.5L23.5,110.2L21.0,108.9L24.0,108.1L25.5,109.5Z"/><path class="land" fill-rule="evenodd" d="M51.8,106.1L52.5,106.6L48.8,109.7L49.1,112.6L50.6,114.4L48.4,116.2L43.7,116.1L37.7,113.5L32.7,114.4L33.8,111.9L29.8,111.9L28.5,110.3L29.4,109.7L28.1,109.0L28.4,107.6L38.8,105.3L51.8,106.1Z"/><path class="land" fill-rule="evenodd" d="M18.8,102.8L18.0,102.7L18.8,102.8Z"/><path class="land" fill-rule="evenodd" d="M19.8,102.7L19.1,102.8L19.8,102.7Z"/><path class="land" fill-rule="evenodd" d="M21.6,101.5L22.8,101.8L22.5,102.5L21.1,101.9L21.6,101.5Z"/><path class="land" fill-rule="evenodd" d="M20.7,101.7L19.8,101.0L20.7,101.7Z"/><path class="land" fill-rule="evenodd" d="M17.8,100.7L16.6,100.3L17.8,100.7Z"/><path class="land" fill-rule="evenodd" d="M16.6,86.6L17.7,86.6L15.9,86.5L16.6,86.6Z"/><path class="land" fill-rule="evenodd" d="M35.4,77.6L34.0,77.3L36.2,77.4L35.4,77.6Z"/><path class="land" fill-rule="evenodd" d="M56.7,56.8L53.8,57.4L55.7,57.7L54.2,59.3L54.6,60.2L62.0,63.8L57.2,67.8L62.5,73.5L60.6,74.3L60.0,76.3L61.1,76.8L60.0,77.7L62.6,78.9L62.0,80.0L64.8,82.3L62.0,84.1L69.8,88.1L68.7,90.1L50.0,100.8L44.1,101.3L44.3,100.2L40.1,102.0L26.0,104.4L26.9,103.3L25.4,102.3L23.1,103.3L23.7,101.4L17.8,100.3L17.4,98.4L18.6,95.2L16.8,93.1L17.3,91.9L16.3,89.2L18.9,87.7L18.3,86.8L22.3,86.3L21.9,85.6L23.4,84.5L28.9,82.5L33.9,78.6L37.7,78.3L38.0,75.1L34.5,74.1L34.3,73.1L31.8,73.4L29.6,71.3L29.4,70.1L31.0,68.2L29.2,66.5L29.6,65.0L28.2,64.8L29.2,62.3L25.1,60.1L13.6,56.7L18.6,55.5L22.8,58.3L27.5,58.7L30.3,57.9L35.9,59.0L40.1,56.9L41.7,53.3L44.1,52.1L50.4,51.4L57.6,53.4L58.6,54.4L56.1,56.0L56.7,56.8Z"/><path class="land" fill-rule="evenodd" d="M139.6,200.1L131.5,201.1L128.0,198.6L126.5,199.4L121.5,199.0L122.9,196.6L121.4,193.1L113.6,189.1L114.5,188.3L117.1,188.5L121.9,190.2L128.0,190.4L133.3,192.6L133.5,193.5L137.0,192.6L138.4,193.3L138.9,192.6L143.0,193.8L142.9,195.4L147.0,197.0L145.7,198.4L148.2,200.1L147.1,201.3L141.0,199.3L139.6,200.1Z"/><path class="land" fill-rule="evenodd" d="M10.3,208.3L11.6,208.5L11.9,206.9L13.7,206.2L15.7,203.6L15.3,202.4L18.5,202.3L20.6,201.0L33.5,198.8L37.5,200.4L41.0,200.0L42.1,199.6L41.7,198.2L42.4,197.8L44.5,199.0L41.6,203.0L36.7,201.7L29.8,202.9L30.3,204.6L32.8,206.0L29.6,205.1L30.7,207.0L28.1,205.4L29.3,207.0L27.9,206.9L27.5,205.7L25.3,204.7L25.4,203.7L23.9,204.2L23.7,206.6L27.5,211.1L26.7,211.4L26.7,210.6L25.4,210.4L26.2,211.8L23.6,212.7L27.2,213.7L31.1,216.4L31.1,218.8L28.4,217.0L26.0,217.8L28.4,220.0L26.7,220.6L24.4,219.5L26.7,225.2L24.4,223.4L22.9,225.0L21.1,222.2L20.1,223.7L18.5,221.9L19.0,220.3L16.2,217.7L19.8,215.4L25.4,217.4L26.6,216.2L22.9,214.9L18.0,215.5L17.2,214.6L16.5,215.4L14.3,212.6L16.1,212.5L16.1,211.8L14.0,211.8L10.3,208.3Z"/><path class="land" fill-rule="evenodd" d="M30.3,229.9L31.9,229.6L32.9,230.8L40.0,230.9L40.3,232.0L43.0,231.0L42.2,232.6L35.2,233.0L33.4,231.8L28.9,231.3L28.8,229.9L29.7,229.3L30.3,229.9Z"/><path class="land" fill-rule="evenodd" d="M47.4,230.2L46.9,229.6L47.7,228.4L47.4,230.2Z"/><path class="land" fill-rule="evenodd" d="M26.1,226.5L25.6,225.5L26.1,226.5Z"/><path class="land" fill-rule="evenodd" d="M50.9,227.8L50.2,226.6L52.9,225.2L50.9,227.8Z"/><path class="land" fill-rule="evenodd" d="M38.7,225.5L38.1,225.6L38.7,225.5Z"/><path class="land" fill-rule="evenodd" d="M43.7,224.5L42.8,224.7L43.7,224.5Z"/><path class="land" fill-rule="evenodd" d="M33.8,223.5L32.7,224.1L33.8,223.5Z"/><path class="land" fill-rule="evenodd" d="M38.2,224.0L37.5,223.6L38.2,224.0Z"/><path class="land" fill-rule="evenodd" d="M46.3,223.7L48.4,223.0L46.3,223.7Z"/><path class="land" fill-rule="evenodd" d="M40.6,223.4L40.0,223.4L41.7,222.8L40.6,223.4Z"/><path class="land" fill-rule="evenodd" d="M46.6,222.5L46.0,221.9L46.6,222.5Z"/><path class="land" fill-rule="evenodd" d="M37.6,222.0L36.7,222.1L37.6,222.0Z"/><path class="land" fill-rule="evenodd" d="M39.0,222.5L38.1,221.9L38.9,221.3L39.0,222.5Z"/><path class="land" fill-rule="evenodd" d="M33.3,220.5L33.2,219.9L33.3,220.5Z"/><path class="land" fill-rule="evenodd" d="M41.5,219.6L43.2,218.8L41.5,219.6Z"/><path class="land" fill-rule="evenodd" d="M37.5,219.2L36.2,218.8L37.5,219.2Z"/><path class="land" fill-rule="evenodd" d="M45.6,218.1L46.8,218.6L44.4,218.6L45.6,218.1Z"/><path class="land" fill-rule="evenodd" d="M14.9,218.1L15.5,218.7L14.6,218.9L13.5,217.9L14.9,218.1Z"/><path class="land" fill-rule="evenodd" d="M36.1,218.4L34.6,217.3L36.1,218.4Z"/><path class="land" fill-rule="evenodd" d="M28.7,217.5L28.0,217.5L28.7,217.5Z"/><path class="land" fill-rule="evenodd" d="M13.5,215.2L14.3,216.8L12.2,216.2L13.5,215.2Z"/><path class="land" fill-rule="evenodd" d="M14.3,215.4L13.6,214.7L14.3,215.4Z"/><path class="land" fill-rule="evenodd" d="M41.8,216.0L40.8,215.9L40.6,214.2L42.2,214.3L41.8,216.0Z"/><path class="land" fill-rule="evenodd" d="M13.9,214.0L13.2,214.1L13.9,212.8L13.9,214.0Z"/><path class="land" fill-rule="evenodd" d="M34.5,213.0L33.5,212.1L34.5,213.0Z"/><path class="land" fill-rule="evenodd" d="M28.0,212.2L31.7,213.8L32.4,216.0L34.0,217.0L25.2,212.6L28.0,212.2Z"/><path class="land" fill-rule="evenodd" d="M29.9,211.4L28.9,210.9L29.9,211.4Z"/><path class="land" fill-rule="evenodd" d="M30.4,211.2L30.9,210.6L30.4,211.2Z"/><path class="land" fill-rule="evenodd" d="M43.5,210.3L44.2,212.0L42.2,211.8L42.8,211.0L40.6,210.9L43.5,210.3Z"/><path class="land" fill-rule="evenodd" d="M10.7,209.7L8.5,208.0L10.0,208.0L10.7,209.7Z"/><path class="land" fill-rule="evenodd" d="M38.5,206.9L38.0,207.8L36.5,207.6L36.5,206.8L38.5,206.9Z"/><path class="land" fill-rule="evenodd" d="M39.7,204.6L38.5,204.3L39.7,204.6Z"/><path class="land" fill-rule="evenodd" d="M35.0,203.6L33.7,203.2L34.7,202.7L35.0,203.6Z"/><path class="land" fill-rule="evenodd" d="M0.0,192.5L2.7,194.2L0.0,192.8Z"/><path class="land" fill-rule="evenodd" d="M5.2,181.6L0.0,180.2L0.0,177.0L4.7,176.1L5.2,178.9L7.2,179.9L5.5,180.2L5.2,181.6Z"/><path class="land" fill-rule="evenodd" d="M0.0,166.7L3.7,166.5L4.1,165.4L8.1,164.3L10.1,164.7L13.7,162.6L22.0,163.3L25.2,165.7L20.7,168.0L15.7,174.5L8.3,174.9L0.0,177.0Z"/><path class="land" fill-rule="evenodd" d="M384.6,284.4L382.8,283.5L371.4,282.8L370.5,278.1L369.0,279.2L367.2,277.1L366.2,277.9L364.1,276.2L362.3,279.8L366.8,283.0L364.3,283.4L363.9,284.4L273.5,284.4L272.2,280.9L270.2,280.7L269.4,279.6L269.4,276.4L266.1,275.0L266.6,273.1L270.9,268.7L273.0,270.3L278.5,269.0L281.0,265.0L283.9,263.5L286.3,258.8L288.5,258.0L289.0,256.3L292.8,253.2L292.4,249.1L296.4,247.1L293.1,245.6L293.0,244.2L291.4,244.2L289.5,242.0L290.3,240.4L289.4,239.3L290.8,238.1L289.0,237.4L289.4,236.6L288.5,235.9L289.3,234.4L291.1,233.9L298.4,235.2L302.9,234.0L305.3,232.1L310.3,230.1L311.7,234.4L315.2,236.3L314.0,237.8L314.3,240.4L316.1,242.1L316.5,245.6L315.0,246.3L313.8,245.1L312.2,245.5L314.0,248.4L314.0,251.7L315.9,251.3L317.9,253.4L321.3,254.4L321.5,255.6L325.8,257.7L322.6,259.9L320.8,264.3L321.7,265.1L334.7,271.3L337.6,272.1L341.7,271.5L344.4,272.5L344.8,273.8L347.6,275.3L349.3,274.8L350.5,276.1L361.9,277.2L362.7,275.4L361.8,273.3L362.6,269.1L366.1,268.8L366.5,272.4L365.7,273.1L367.8,275.0L371.0,275.6L374.0,274.6L382.6,274.8L383.0,272.5L380.5,271.1L380.7,270.1L385.4,269.5L389.1,265.6L391.7,265.1L396.1,262.1L400.1,263.5L403.4,261.4L405.1,262.4L404.0,264.1L405.5,263.4L406.3,264.9L404.7,266.7L410.1,267.7L410.2,269.2L407.8,271.0L409.0,273.4L407.0,272.3L404.3,272.7L398.8,276.1L398.8,279.0L395.8,283.1L396.5,284.4Z"/><path class="land" fill-rule="evenodd" d="M223.7,229.4L222.7,233.4L220.9,235.1L221.7,236.2L219.7,237.3L219.8,239.7L221.9,240.4L220.0,242.7L221.4,246.9L221.4,250.8L225.7,251.4L226.5,253.8L221.5,259.2L226.9,266.0L231.4,267.6L231.4,272.6L234.2,273.4L233.5,275.8L229.8,276.3L226.7,278.0L225.4,283.3L224.4,283.8L219.8,282.1L219.2,282.7L212.2,282.2L203.4,280.3L201.8,275.0L200.2,273.4L197.1,273.3L190.0,276.6L184.6,275.4L178.2,270.8L173.7,269.5L172.1,268.2L170.0,263.3L165.8,257.5L163.1,258.4L160.3,256.6L161.4,256.1L160.3,255.9L159.6,258.2L157.3,258.3L155.2,256.1L155.2,253.4L153.4,253.3L154.2,249.2L151.9,246.0L145.3,243.2L144.9,240.8L141.6,238.0L142.2,234.8L145.5,232.0L144.7,229.5L146.2,228.7L141.5,227.4L139.9,225.0L137.5,218.6L135.5,217.6L136.7,215.4L136.0,215.1L134.5,210.0L136.4,209.8L137.5,208.0L142.1,211.9L145.6,212.6L147.6,212.5L155.1,208.4L156.8,209.9L155.6,210.7L156.6,211.9L155.1,212.7L158.2,215.0L159.6,214.9L160.7,218.9L166.1,220.2L170.2,223.3L174.6,224.3L184.9,222.7L185.7,222.7L184.5,223.1L186.0,223.3L185.7,220.5L189.7,219.9L193.3,216.9L202.6,216.0L203.5,217.3L208.2,218.9L213.5,219.7L218.9,224.2L222.9,224.2L223.7,229.4Z"/><path class="land" fill-rule="evenodd" d="M197.4,274.4L196.2,275.6L192.8,275.9L195.2,274.3L197.4,274.4Z"/><path class="land" fill-rule="evenodd" d="M138.4,221.6L141.5,227.4L146.2,228.7L144.7,229.5L145.5,232.0L142.2,234.8L141.6,238.0L144.9,240.8L145.3,243.2L151.9,246.0L154.2,249.2L153.4,253.3L155.2,253.4L155.2,256.1L157.9,258.7L151.1,258.3L147.5,263.2L138.0,262.6L124.5,252.9L115.7,248.5L109.3,247.5L110.1,246.9L108.8,246.6L107.4,241.1L118.8,235.6L120.7,229.3L120.4,225.5L127.9,220.4L135.0,220.8L135.9,222.4L138.4,221.6Z"/><path class="land" fill-rule="evenodd" d="M87.4,261.2L84.0,252.3L85.4,250.6L88.5,242.6L90.0,242.6L92.4,240.8L92.6,243.3L90.9,244.8L90.7,246.1L88.9,245.4L87.7,247.3L87.7,249.1L88.9,249.5L87.3,251.4L90.2,250.9L87.4,261.2Z"/><path class="land" fill-rule="evenodd" d="M0.0,203.7L2.5,206.3L1.8,207.7L0.0,206.5Z"/><path class="land" fill-rule="evenodd" d="M107.4,241.1L108.8,246.6L110.1,246.9L108.4,248.2L98.0,250.8L103.3,255.9L100.7,258.5L96.7,259.4L93.4,262.6L87.6,261.8L90.2,252.6L91.0,244.7L92.5,244.5L97.3,246.5L107.4,241.1Z"/><path class="land" fill-rule="evenodd" d="M642.1,276.0L641.6,275.5L642.1,276.0Z"/><path class="land" fill-rule="evenodd" d="M570.0,275.8L566.9,278.7L568.2,275.6L570.0,274.6L570.0,275.8Z"/><path class="land" fill-rule="evenodd" d="M573.9,270.3L573.4,269.4L573.9,270.3Z"/><path class="land" fill-rule="evenodd" d="M575.6,268.3L574.9,267.8L575.6,268.3Z"/><path class="land" fill-rule="evenodd" d="M576.2,267.8L574.7,267.6L577.4,266.2L576.2,267.8Z"/><path class="land" fill-rule="evenodd" d="M582.3,257.1L581.1,256.5L582.4,256.5L582.3,257.1Z"/><path class="land" fill-rule="evenodd" d="M584.0,256.5L584.5,254.2L584.0,256.5Z"/><path class="land" fill-rule="evenodd" d="M577.6,249.9L577.9,249.3L577.6,249.9Z"/><path class="land" fill-rule="evenodd" d="M581.0,246.0L580.3,245.8L581.4,245.5L581.0,246.0Z"/><path class="land" fill-rule="evenodd" d="M579.5,247.0L579.1,245.5L579.9,245.4L579.5,247.0Z"/><path class="land" fill-rule="evenodd" d="M572.1,244.1L573.3,244.8L572.3,245.0L572.1,244.1Z"/><path class="land" fill-rule="evenodd" d="M574.3,243.8L574.4,242.3L574.3,243.8Z"/><path class="land" fill-rule="evenodd" d="M576.4,241.8L575.8,242.1L576.8,241.1L576.4,241.8Z"/><path class="land" fill-rule="evenodd" d="M578.0,239.1L577.6,238.6L578.0,239.1Z"/><path class="land" fill-rule="evenodd" d="M585.1,239.9L587.8,239.9L587.0,241.6L588.9,241.7L589.4,243.6L587.6,245.8L586.0,251.2L584.6,251.1L584.7,252.0L582.6,253.3L583.1,249.7L581.9,250.4L582.1,252.4L579.8,251.2L580.7,250.2L580.1,247.7L582.4,245.0L581.9,243.9L580.3,242.1L580.0,243.8L580.8,244.5L579.3,244.2L577.9,245.2L577.4,242.7L579.0,243.8L576.9,241.8L582.7,238.2L585.1,239.9Z"/><path class="land" fill-rule="evenodd" d="M590.8,238.1L591.7,238.3L590.8,238.1Z"/><path class="land" fill-rule="evenodd" d="M592.4,237.2L591.8,237.4L592.4,237.2Z"/><path class="land" fill-rule="evenodd" d="M575.3,237.2L575.0,236.2L575.3,237.2Z"/><path class="land" fill-rule="evenodd" d="M601.6,236.5L603.0,236.7L603.5,238.8L600.7,241.7L597.8,240.4L596.0,241.1L593.5,244.3L591.9,243.4L591.5,240.8L589.6,241.2L592.7,239.4L594.2,237.3L595.6,238.2L599.5,236.0L601.6,236.5Z"/><path class="land" fill-rule="evenodd" d="M601.5,235.3L600.7,235.1L601.5,235.3Z"/><path class="land" fill-rule="evenodd" d="M604.6,236.3L603.2,236.3L604.9,235.0L604.6,236.3Z"/><path class="land" fill-rule="evenodd" d="M575.9,236.0L575.3,235.9L576.2,234.3L575.9,236.0Z"/><path class="land" fill-rule="evenodd" d="M596.5,226.4L595.6,226.0L596.5,226.4Z"/><path class="land" fill-rule="evenodd" d="M622.2,218.1L621.7,216.7L623.0,215.5L623.4,216.8L622.2,218.1Z"/><path class="land" fill-rule="evenodd" d="M637.1,199.7L638.3,199.5L638.1,203.1L640.0,205.3L641.0,209.8L638.3,215.1L635.7,216.4L635.9,221.7L633.7,226.3L635.3,228.9L633.1,230.0L632.6,231.7L629.9,233.1L629.9,231.1L631.2,229.6L629.9,229.3L629.1,231.9L626.9,231.2L624.7,234.6L625.1,232.5L624.1,232.0L621.4,234.7L615.6,234.8L616.7,233.8L614.6,234.0L614.2,232.4L612.8,234.3L614.5,236.1L611.8,236.9L608.5,240.5L605.6,237.8L605.4,236.3L607.0,234.6L603.6,233.9L595.3,236.3L591.0,236.1L590.1,238.7L588.0,237.6L583.8,237.9L584.2,235.8L586.0,235.7L594.2,230.0L605.8,228.8L606.6,229.9L609.6,229.5L610.6,228.7L610.4,226.9L613.7,223.6L614.4,220.3L616.9,219.6L614.7,221.7L616.5,223.6L622.1,221.2L627.5,216.6L629.7,212.6L631.1,208.7L630.7,207.6L629.4,207.2L630.8,205.5L630.6,203.3L632.2,202.4L632.7,200.4L634.0,200.6L634.6,202.5L636.5,202.2L637.2,200.6L634.9,200.3L635.6,199.0L637.1,199.7Z"/><path class="land" fill-rule="evenodd" d="M628.1,196.0L628.5,195.2L628.1,196.0Z"/><path class="land" fill-rule="evenodd" d="M637.4,180.3L636.6,179.9L637.4,180.3Z"/><path class="land" fill-rule="evenodd" d="M636.3,179.2L635.8,178.5L636.3,179.2Z"/><path class="land" fill-rule="evenodd" d="M650.5,185.5L655.1,186.5L658.5,184.4L657.3,187.9L658.4,189.7L660.9,189.3L656.2,191.3L651.3,191.9L648.5,194.3L647.5,196.5L640.3,193.5L635.8,194.7L633.2,193.6L632.4,194.9L636.7,197.5L634.2,197.4L632.1,199.3L630.9,199.2L631.3,196.9L629.9,195.0L630.0,193.5L633.0,191.5L632.8,189.7L637.9,189.8L639.9,183.6L639.4,178.9L640.8,178.3L650.5,185.5Z"/><path class="land" fill-rule="evenodd" d="M303.8,229.2L309.2,230.1L305.3,232.1L303.8,229.2Z"/><path class="land" fill-rule="evenodd" d="M358.4,159.8L355.7,160.0L354.4,162.7L350.3,163.5L349.1,165.9L349.8,169.3L348.9,170.3L345.3,171.5L336.2,169.7L332.5,177.9L334.0,178.8L333.6,180.3L330.6,180.1L329.3,179.1L319.9,181.6L323.0,182.4L322.4,185.6L324.6,190.5L322.6,191.1L323.3,191.9L321.6,192.7L321.6,195.5L316.0,192.5L305.0,191.4L296.6,192.1L290.6,190.0L287.2,191.3L286.9,194.3L280.6,192.5L275.3,192.7L273.7,195.2L264.0,199.7L261.1,203.7L258.7,202.6L259.1,201.5L258.2,200.6L251.8,200.7L250.7,196.5L248.2,196.4L248.7,191.3L247.1,191.9L242.5,187.6L240.1,188.4L227.4,188.7L222.4,184.1L209.7,178.1L196.3,181.0L196.3,200.0L193.5,200.1L190.5,196.6L186.7,194.7L181.2,195.7L178.3,197.6L178.9,192.5L172.1,190.4L172.2,188.8L169.7,185.1L166.7,183.7L167.6,182.9L173.4,183.4L170.7,181.4L172.8,179.1L182.0,179.2L179.8,178.0L181.7,174.8L181.3,171.4L178.3,170.7L176.5,171.5L171.5,170.0L161.2,174.0L157.9,172.7L158.0,171.9L160.1,171.8L156.0,166.9L151.4,166.8L150.3,164.2L147.9,162.5L150.1,159.5L148.9,158.4L149.4,156.7L152.2,153.3L153.6,153.1L156.8,155.8L159.0,155.5L158.3,151.9L167.0,148.3L169.5,146.2L172.4,147.5L176.9,146.3L178.7,147.4L182.7,147.4L186.8,149.7L189.0,152.3L189.4,149.9L194.8,152.1L199.0,149.8L201.7,149.6L203.9,150.5L206.0,149.5L208.7,149.6L214.7,152.6L217.4,150.7L219.8,151.6L223.5,151.1L225.2,148.3L217.3,145.1L222.3,143.0L221.1,141.3L222.6,139.7L227.9,139.6L223.3,138.1L225.1,136.9L222.2,136.4L223.5,134.3L227.1,134.7L240.2,132.4L243.5,132.7L245.5,131.2L259.3,129.4L259.6,128.4L263.6,127.2L269.8,128.4L272.7,127.7L275.0,131.3L274.5,133.3L280.1,132.7L281.5,134.7L282.4,133.7L285.5,134.6L288.0,134.2L285.9,135.9L286.5,137.3L288.8,136.4L291.3,137.1L297.0,134.0L304.2,132.1L303.2,133.7L302.0,133.6L302.4,134.3L309.5,138.2L320.5,151.1L324.3,148.4L326.4,148.9L326.1,150.1L327.7,150.2L328.1,151.3L333.4,151.3L337.9,150.0L340.9,151.1L342.9,153.9L346.3,154.8L347.6,157.1L352.5,157.7L355.1,156.3L354.8,157.4L358.4,159.8Z"/><path class="land" fill-rule="evenodd" d="M166.4,181.7L165.6,180.7L166.4,181.7Z"/><path class="land" fill-rule="evenodd" d="M167.1,181.1L167.3,180.5L167.1,181.1Z"/><path class="land" fill-rule="evenodd" d="M179.3,178.8L178.6,178.5L179.3,178.8Z"/><path class="land" fill-rule="evenodd" d="M321.6,195.5L321.7,196.3L312.5,199.5L310.8,201.2L304.6,201.5L301.5,205.0L298.2,205.2L297.6,203.6L293.8,204.3L293.8,205.1L289.5,206.6L289.0,209.0L288.1,209.6L280.4,210.9L278.0,210.5L276.4,208.9L273.0,209.9L271.4,208.9L265.2,209.3L264.9,208.0L265.3,207.0L268.7,205.8L271.5,207.1L274.0,205.5L277.6,206.0L285.1,202.6L280.2,201.5L277.5,198.8L276.0,201.0L269.8,198.8L275.2,195.6L273.5,194.7L276.2,192.4L280.6,192.5L286.9,194.3L287.2,191.3L290.6,190.0L296.6,192.1L305.0,191.4L316.0,192.5L321.6,195.5ZM272.5,207.7L271.3,207.4L272.5,207.7ZM274.1,206.8L275.1,207.3L274.0,206.0L274.1,206.8Z"/><path class="land" fill-rule="evenodd" d="M560.1,241.8L559.2,241.4L560.1,240.6L563.0,240.3L562.9,241.2L560.1,241.8Z"/><path class="land" fill-rule="evenodd" d="M559.6,235.9L559.0,235.5L560.1,235.0L559.6,235.9Z"/><path class="land" fill-rule="evenodd" d="M559.3,234.0L558.4,233.3L559.3,234.0Z"/><path class="land" fill-rule="evenodd" d="M569.0,233.7L568.1,234.0L567.8,233.3L569.0,233.7Z"/><path class="land" fill-rule="evenodd" d="M572.5,233.7L571.2,233.3L572.4,232.6L572.5,233.7Z"/><path class="land" fill-rule="evenodd" d="M560.5,224.9L560.0,224.3L560.5,224.9Z"/><path class="land" fill-rule="evenodd" d="M561.1,218.5L560.7,219.2L560.3,218.3L561.1,218.5Z"/><path class="land" fill-rule="evenodd" d="M570.6,213.9L576.0,222.0L576.0,227.2L576.8,227.2L576.0,230.1L574.3,232.0L571.3,232.1L571.0,233.3L567.2,232.9L567.2,234.1L565.6,233.6L565.2,235.4L564.4,235.0L564.8,233.9L561.1,236.2L559.7,234.3L561.4,233.6L560.5,233.6L559.9,231.9L562.3,228.1L560.9,223.9L559.2,223.5L560.9,222.3L562.9,223.2L563.4,222.6L561.3,218.6L564.0,215.7L568.9,215.5L570.6,213.9Z"/><path class="land" fill-rule="evenodd" d="M13.3,197.1L13.0,195.6L10.5,192.7L12.8,192.0L13.6,190.3L14.5,189.9L17.5,192.6L19.4,193.0L18.4,195.2L13.3,197.1Z"/><path class="land" fill-rule="evenodd" d="M147.5,263.2L150.7,258.5L153.8,258.1L155.0,258.6L155.8,260.7L153.7,261.6L155.4,261.8L157.4,266.0L153.4,266.1L152.2,263.7L147.5,263.2Z"/><path class="land" fill-rule="evenodd" d="M156.5,260.4L155.5,259.5L156.1,258.6L156.5,260.4Z"/><path class="land" fill-rule="evenodd" d="M92.4,240.8L90.0,242.6L88.5,242.6L91.2,236.5L92.9,234.6L95.0,234.4L96.1,236.7L94.5,238.2L94.9,238.7L93.0,239.1L92.4,240.8Z"/><path class="land" fill-rule="evenodd" d="M0.0,254.2L4.8,257.0L8.2,256.4L11.1,252.9L10.0,249.1L10.5,247.6L13.6,245.2L18.8,243.3L26.3,245.0L27.3,247.1L35.6,248.2L37.0,249.9L35.4,251.6L36.0,255.0L34.7,257.5L36.1,262.7L36.1,284.4L0.0,284.4Z"/><path class="land" fill-rule="evenodd" d="M44.4,125.8L43.7,127.5L45.4,127.8L40.6,129.7L39.0,132.7L40.1,133.6L38.6,132.9L35.0,134.6L28.7,134.8L27.8,133.4L24.6,132.6L24.9,129.9L23.6,128.9L16.7,127.9L15.7,123.7L21.1,122.0L31.6,122.7L35.4,122.0L44.4,125.8Z"/><path class="land" fill-rule="evenodd" d="M15.3,127.8L16.1,126.1L15.3,127.8Z"/><path class="land" fill-rule="evenodd" d="M52.5,123.3L49.5,125.1L44.4,125.8L35.4,122.0L31.6,122.7L21.1,122.0L15.7,123.7L15.6,122.7L15.9,119.8L19.3,116.0L23.5,115.2L27.3,118.4L30.7,118.9L33.0,117.6L32.7,114.4L36.8,113.4L43.7,116.1L49.2,116.3L50.8,117.4L49.8,119.7L50.9,119.7L52.2,121.3L52.5,123.3Z"/><path class="land" fill-rule="evenodd" d="M52.8,178.6L52.1,177.9L52.9,172.5L52.1,170.7L46.4,164.6L44.7,163.9L49.4,163.0L57.5,165.6L57.6,168.1L59.7,169.2L59.8,170.8L62.7,173.6L56.7,173.4L56.6,175.5L54.3,178.3L52.8,178.6Z"/><path class="land" fill-rule="evenodd" d="M15.3,202.4L14.0,202.0L12.7,198.9L14.4,196.1L21.9,194.6L25.9,197.8L24.4,200.7L15.3,202.4Z"/><path class="land" fill-rule="evenodd" d="M396.5,284.4L395.8,283.1L398.8,279.0L398.8,276.1L404.3,272.7L407.0,272.3L409.0,273.4L407.8,271.0L410.2,269.2L410.1,267.7L411.5,266.2L414.1,268.1L415.2,271.2L417.0,271.1L417.4,275.1L417.0,279.9L414.3,281.4L412.1,284.4Z"/><path class="land" fill-rule="evenodd" d="M10.7,193.6L9.2,194.0L8.6,193.2L6.6,195.6L6.9,197.1L2.3,193.8L2.3,191.5L4.4,189.5L5.3,189.8L4.9,188.6L6.2,188.5L12.1,191.8L10.5,192.7L10.7,193.6Z"/><path class="land" fill-rule="evenodd" d="M510.2,156.0L505.7,162.5L505.6,164.2L504.2,164.8L504.7,166.1L506.1,167.1L510.6,166.1L513.7,167.2L515.8,165.5L519.6,165.5L525.9,169.8L526.7,172.3L521.4,171.9L514.1,172.8L513.6,173.9L509.6,174.3L507.7,177.1L505.0,178.6L499.2,178.9L494.2,182.3L485.5,180.6L482.9,184.2L485.6,187.6L480.9,189.5L477.7,192.5L472.2,194.2L458.9,195.0L449.7,198.6L447.2,198.2L447.2,197.1L443.1,197.7L435.1,195.6L431.7,193.7L405.3,192.7L399.8,185.9L399.9,184.7L396.6,184.3L390.4,181.2L376.8,179.9L375.7,178.2L377.4,175.6L377.6,172.9L373.9,167.1L364.9,164.3L360.6,160.9L360.9,159.4L362.9,157.9L367.6,157.7L372.5,154.6L384.4,150.6L388.3,152.0L394.2,152.2L396.1,155.0L403.6,155.1L410.3,156.4L414.9,153.5L415.1,152.3L413.8,151.8L412.8,149.7L413.8,147.6L418.2,144.2L434.9,148.1L435.8,152.1L441.0,154.1L445.0,154.3L451.8,152.7L458.6,153.5L461.3,155.2L464.9,155.4L465.1,156.9L468.5,158.6L479.3,159.5L490.2,157.6L497.9,153.7L503.7,155.6L507.8,155.1L510.2,156.0Z"/><path class="land" fill-rule="evenodd" d="M56.7,56.8L56.1,56.0L58.6,54.4L57.6,53.4L50.4,51.4L44.1,52.1L41.7,53.3L40.1,56.9L35.9,59.0L30.3,57.9L27.5,58.7L22.8,58.3L18.7,55.5L16.9,55.5L15.8,56.7L10.9,56.8L12.1,57.7L10.2,59.2L11.6,59.6L10.2,60.2L0.8,59.3L0.0,61.9L0.0,56.1L1.3,54.4L4.4,55.2L3.2,54.3L8.7,52.7L8.5,54.7L10.1,52.6L12.0,52.0L12.1,53.7L10.9,55.1L14.2,54.2L13.1,53.3L13.6,52.1L17.7,51.6L20.5,52.6L17.3,50.5L24.2,49.8L27.7,51.8L27.8,50.4L33.2,48.1L32.4,47.4L34.4,46.5L40.2,47.3L37.3,49.2L36.4,51.1L44.0,47.0L45.2,47.3L44.4,49.6L46.5,49.1L49.4,47.5L47.7,46.8L49.6,46.1L53.7,46.7L51.2,48.2L53.1,48.2L52.7,50.4L56.0,47.2L66.8,49.6L66.9,50.3L63.4,51.1L55.7,50.9L60.0,51.8L60.5,53.0L63.3,52.4L66.8,53.5L66.1,54.1L62.9,53.6L62.5,54.6L56.7,56.8Z"/><path class="land" fill-rule="evenodd" d="M61.8,52.8L60.7,52.8L61.8,52.8Z"/><path class="land" fill-rule="evenodd" d="M14.4,51.2L12.4,51.1L13.7,50.5L14.4,51.2Z"/><path class="land" fill-rule="evenodd" d="M6.5,51.4L8.3,51.6L4.1,53.9L0.3,53.8L3.5,52.8L5.9,50.4L6.5,51.4Z"/><path class="land" fill-rule="evenodd" d="M9.1,50.6L10.8,51.2L9.2,51.3L8.3,50.3L9.1,50.6Z"/><path class="land" fill-rule="evenodd" d="M29.0,48.9L27.2,50.2L25.4,49.7L29.0,48.9Z"/><path class="land" fill-rule="evenodd" d="M31.1,48.8L29.3,48.2L31.1,48.8Z"/><path class="land" fill-rule="evenodd" d="M28.1,47.5L25.0,48.9L20.7,48.3L28.1,47.5Z"/><path class="land" fill-rule="evenodd" d="M39.2,45.8L42.1,46.3L37.8,46.4L39.2,45.8Z"/><path class="land" fill-rule="evenodd" d="M6.3,29.0L4.1,28.5L6.3,29.0Z"/><path class="land" fill-rule="evenodd" d="M18.7,7.3L20.9,7.4L22.2,9.2L28.2,9.6L26.5,10.4L35.7,11.6L24.8,14.1L22.9,13.9L24.2,12.6L15.1,13.1L14.9,12.6L18.9,10.7L11.5,7.9L18.7,7.3Z"/><path class="land" fill-rule="evenodd" d="M45.9,7.0L43.5,6.3L46.6,6.7L45.9,7.0Z"/><path class="land" fill-rule="evenodd" d="M57.1,5.6L60.5,5.7L51.1,5.9L57.1,5.6Z"/><path class="land" fill-rule="evenodd" d="M0.0,2.6L3.0,2.2L4.3,3.2L3.5,3.8L13.5,4.6L14.3,4.9L12.9,5.3L17.5,6.5L8.7,7.2L5.5,8.7L5.1,9.9L2.3,10.2L1.5,12.5L0.0,12.9Z"/><path class="land" fill-rule="evenodd" d="M47.4,0.0L39.5,3.1L30.8,4.2L24.3,3.5L25.2,3.0L11.0,2.6L8.7,2.1L14.4,1.3L4.9,1.4L1.3,0.4L3.8,0.0Z"/><path class="land" fill-rule="evenodd" d="M325.8,257.7L326.6,258.3L327.9,256.8L331.1,256.8L339.1,262.7L341.7,262.5L342.4,264.1L345.3,265.9L347.2,265.8L347.0,267.2L349.9,267.4L351.5,269.3L352.3,268.3L353.7,269.2L354.7,268.3L357.5,269.7L362.5,269.5L362.2,277.0L358.2,277.3L356.8,276.3L355.2,276.9L350.5,276.1L349.7,274.9L347.6,275.3L344.8,273.8L344.4,272.5L341.7,271.5L337.6,272.1L334.7,271.3L322.7,265.7L320.9,264.6L321.0,263.7L322.6,259.9L325.8,257.7Z"/><path class="land" fill-rule="evenodd" d="M198.0,281.0L197.2,280.8L196.9,278.9L198.4,277.3L198.0,281.0Z"/><path class="land" fill-rule="evenodd" d="M221.5,259.2L229.9,261.6L238.3,261.6L249.4,259.2L250.0,254.4L252.5,252.0L255.7,252.1L257.1,251.6L256.3,250.7L259.3,249.2L263.0,250.1L265.1,248.5L264.9,245.9L266.3,242.9L270.2,241.5L268.3,237.8L274.3,237.6L273.8,235.1L277.2,231.7L276.2,228.3L275.0,227.3L280.5,223.7L289.7,223.2L292.6,222.1L296.5,222.8L299.3,224.4L299.4,227.2L300.8,228.5L302.7,228.1L305.3,232.1L302.9,234.0L298.4,235.2L291.1,233.9L288.7,235.3L289.1,237.6L290.8,237.9L289.4,239.3L290.3,240.4L289.5,242.0L291.4,244.2L293.0,244.2L293.1,245.6L296.4,247.1L292.4,249.1L292.8,253.2L289.0,256.3L288.5,258.0L286.3,258.8L283.9,263.5L281.0,265.0L278.5,269.0L273.0,270.3L270.9,268.7L266.6,273.1L266.2,275.2L269.4,276.4L269.4,279.6L270.2,280.7L272.2,280.9L273.5,284.4L251.7,284.4L251.8,283.2L249.8,281.2L248.8,281.8L250.6,282.1L241.2,283.4L238.1,282.3L235.2,283.3L225.2,283.4L226.7,278.0L229.8,276.3L233.5,275.8L234.2,273.2L231.4,272.7L231.4,267.6L226.9,266.0L221.5,259.2Z"/><path class="land" fill-rule="evenodd" d="M28.4,134.7L30.6,140.8L26.8,143.3L29.2,144.6L28.6,146.7L31.5,150.6L31.5,152.4L24.0,157.5L25.0,160.1L17.3,158.1L9.3,159.3L7.5,157.2L5.0,158.2L2.9,155.7L0.0,155.0L0.0,130.1L3.9,130.9L2.3,130.6L5.0,132.6L25.3,132.4L28.2,133.7L28.4,134.7Z"/><path class="land" fill-rule="evenodd" d="M549.9,206.8L552.6,204.4L558.3,202.1L562.2,197.9L569.5,199.6L570.2,198.5L568.9,196.5L573.5,196.3L575.5,194.3L577.5,194.1L578.5,191.3L580.3,191.9L582.6,194.9L580.3,195.5L577.8,198.0L577.5,202.4L566.5,207.9L565.6,210.9L570.4,213.6L569.9,215.0L564.0,215.7L561.6,218.3L560.3,217.8L559.0,218.5L557.2,217.2L555.0,218.6L553.1,217.5L554.3,216.7L551.6,216.5L553.5,214.3L556.1,213.6L554.1,213.0L555.1,209.3L552.0,208.1L551.3,208.8L549.9,206.8Z"/><path class="land" fill-rule="evenodd" d="M84.0,252.3L85.2,250.3L84.0,252.3Z"/><path class="land" fill-rule="evenodd" d="M90.2,250.9L87.2,251.3L88.9,249.5L87.7,249.0L88.9,245.4L90.7,246.1L90.2,250.9Z"/><path class="land" fill-rule="evenodd" d="M169.7,284.4L169.4,282.1L172.0,278.4L173.4,279.7L173.7,284.4Z"/><path class="land" fill-rule="evenodd" d="M54.7,187.5L47.0,185.3L38.8,187.8L25.4,187.0L26.0,185.7L23.2,183.9L24.4,183.0L23.3,182.5L21.2,183.3L17.4,181.8L18.3,181.5L17.3,180.9L18.0,180.2L14.4,178.5L14.3,177.1L11.6,175.2L16.1,174.3L20.7,168.0L26.6,165.0L34.0,165.8L35.6,166.9L45.4,164.1L52.1,170.7L52.9,172.5L52.1,177.9L52.8,178.6L55.6,179.7L59.0,178.8L60.5,179.6L59.8,181.8L57.1,182.2L57.4,181.1L56.3,181.4L54.7,187.5Z"/><path class="land" fill-rule="evenodd" d="M158.1,197.3L154.4,200.5L151.6,200.2L148.6,197.4L142.9,195.4L143.0,193.8L138.9,192.6L138.4,193.3L137.0,192.6L133.5,193.5L133.3,192.6L128.0,190.4L121.9,190.2L117.1,188.5L114.5,188.3L113.6,189.1L107.1,184.6L96.4,180.3L97.9,179.5L97.2,178.8L99.3,179.5L101.6,179.0L103.1,175.8L105.9,175.3L102.2,172.5L106.0,172.4L105.7,171.6L110.0,170.4L109.6,169.2L104.5,170.1L104.4,169.0L104.9,167.7L107.7,166.3L112.6,166.0L113.5,164.1L111.9,162.4L113.8,161.2L112.1,160.2L114.3,159.0L114.2,157.3L104.7,154.8L103.6,155.5L100.4,153.0L96.3,154.0L93.7,153.0L90.9,153.2L89.5,149.7L83.8,148.6L83.3,146.4L84.8,145.9L81.4,143.0L74.6,143.2L73.0,144.5L71.2,144.2L70.2,143.1L70.1,140.8L68.5,139.5L69.4,138.6L73.1,139.1L76.0,137.4L74.7,136.0L71.1,135.4L71.5,134.3L69.3,133.4L67.6,131.9L68.0,131.2L66.2,130.4L67.1,129.0L66.2,127.7L66.7,126.3L63.2,124.9L59.4,125.7L58.8,124.4L52.5,123.3L52.2,121.3L50.9,119.7L49.8,119.7L50.8,117.4L48.4,116.2L50.6,114.4L49.1,112.6L48.8,109.7L52.5,106.6L52.0,104.5L53.4,105.0L57.6,103.4L62.9,103.6L55.0,101.5L54.4,99.9L50.7,100.6L68.2,90.6L70.0,88.3L62.0,84.1L64.8,82.3L62.0,80.0L62.6,78.9L60.0,77.7L61.1,76.8L60.0,76.3L60.6,74.3L62.5,73.5L57.2,67.8L62.0,63.8L58.6,61.7L55.2,61.1L54.1,59.5L55.7,57.7L53.8,57.4L62.0,54.8L62.9,53.6L66.5,54.1L66.5,52.8L70.0,53.3L72.4,52.7L72.3,51.9L77.6,53.1L72.9,53.6L74.3,54.4L79.9,54.7L78.3,56.5L81.1,55.3L92.3,55.9L118.7,63.5L119.6,65.8L120.8,66.1L119.9,68.1L114.3,70.8L106.8,72.0L85.2,69.5L78.3,68.0L77.2,66.8L71.8,66.4L80.9,70.1L79.4,70.7L86.3,72.6L86.7,73.6L84.8,75.5L88.1,80.4L100.5,83.7L103.7,82.3L103.2,81.1L99.2,80.6L96.1,78.6L95.8,77.9L97.6,76.7L112.5,79.7L116.0,78.7L112.7,75.7L112.8,74.5L125.2,69.7L130.5,70.2L132.6,71.1L132.1,71.7L135.0,72.3L134.9,71.2L136.9,68.9L136.6,67.5L133.3,65.9L135.6,62.1L135.5,60.7L131.0,58.6L144.2,59.6L148.3,62.8L142.3,63.3L139.1,65.1L144.2,67.8L147.3,68.2L153.3,67.3L154.5,64.2L159.4,63.7L159.0,62.6L175.8,59.3L177.8,60.2L179.5,59.5L177.6,58.9L185.1,56.9L188.7,56.9L185.1,57.3L186.0,57.7L184.9,58.8L185.8,59.8L182.3,60.7L190.6,61.0L193.5,59.1L202.3,59.2L212.3,56.8L213.9,58.2L212.5,59.7L215.7,60.2L216.7,59.6L216.6,58.4L219.7,58.3L222.0,56.9L218.0,53.8L221.8,52.5L238.8,54.1L261.1,60.2L264.4,57.1L261.3,57.0L258.5,54.4L256.6,53.8L253.7,53.3L252.8,54.0L253.0,51.6L254.6,51.1L254.8,47.9L251.8,47.5L252.5,46.2L251.5,46.1L259.9,43.0L265.7,36.4L276.6,36.6L283.4,37.8L282.2,41.3L278.5,44.2L282.8,46.7L282.8,49.3L281.6,50.3L282.2,57.0L287.4,59.5L285.1,61.1L284.7,63.2L278.4,67.2L275.9,67.4L276.8,68.8L272.6,69.7L270.8,69.3L272.4,68.5L263.7,68.3L264.7,69.4L268.8,70.3L279.5,71.1L281.3,69.5L288.4,67.2L289.9,65.1L293.5,63.2L293.4,61.7L291.5,59.9L292.5,58.2L295.3,57.6L302.2,57.0L306.3,59.6L305.9,63.2L309.0,64.3L315.0,64.2L308.1,63.3L308.5,61.1L310.2,60.7L308.4,57.4L299.9,55.7L293.7,56.4L288.4,55.8L289.0,54.7L287.3,52.7L291.3,48.7L284.8,44.2L287.8,42.2L294.7,40.6L295.0,38.5L293.6,37.2L296.6,37.2L297.8,38.4L298.5,39.8L296.1,41.6L297.3,43.1L296.1,44.3L298.5,45.2L315.5,46.8L312.7,46.4L311.3,45.2L302.1,43.7L300.0,41.8L304.4,41.2L307.9,42.2L311.2,41.8L310.3,40.9L307.2,40.8L312.7,39.3L317.6,39.4L329.1,42.8L336.6,42.8L337.3,43.1L335.9,44.2L332.6,45.2L332.6,47.5L331.7,48.6L332.0,49.7L333.9,47.1L336.1,47.1L336.2,48.7L334.4,50.6L336.5,51.2L336.4,50.3L339.9,48.9L336.8,46.0L338.8,43.0L331.4,40.0L324.8,38.8L323.9,37.7L324.9,36.5L322.7,35.0L323.6,33.3L356.2,31.6L356.9,31.9L350.5,33.9L355.1,35.6L351.1,34.2L359.7,32.0L351.6,29.4L353.6,28.7L357.9,29.1L350.5,27.7L352.6,26.8L356.0,27.3L359.2,25.8L356.4,25.5L356.8,25.0L393.7,20.9L387.0,20.8L389.1,20.2L401.1,20.0L403.7,20.3L401.5,21.2L406.4,20.7L405.8,21.2L417.0,19.4L422.8,20.5L421.6,21.7L423.2,21.0L423.0,20.0L417.8,18.2L432.2,18.4L428.7,17.8L429.6,17.0L428.6,16.0L437.4,12.9L444.7,11.7L455.3,13.5L445.7,15.0L462.4,15.9L457.1,18.0L463.9,18.0L466.2,16.9L481.4,16.9L486.5,18.2L485.7,18.7L489.2,18.7L490.1,20.0L489.4,20.4L492.6,19.4L494.1,21.2L495.6,21.1L494.1,22.9L488.4,21.5L494.9,23.5L490.8,25.8L474.8,29.4L474.7,30.1L466.3,32.6L461.5,33.0L450.5,37.3L457.4,35.5L464.0,35.3L480.1,32.4L473.9,32.1L477.0,30.9L483.7,30.9L482.0,31.2L486.7,32.5L491.3,31.5L493.3,32.8L492.0,33.8L493.7,34.4L493.6,35.9L491.8,37.1L494.6,38.1L492.3,37.2L494.0,35.0L495.7,34.4L493.8,33.6L496.6,33.2L503.2,32.6L519.3,33.1L521.8,33.7L519.4,33.8L519.2,34.9L526.1,36.3L540.5,36.8L541.6,36.7L540.4,36.1L543.7,36.4L546.1,35.2L544.5,34.0L545.0,32.9L550.8,32.3L556.3,33.9L559.7,33.4L561.2,34.5L563.7,33.4L567.4,33.7L574.4,35.6L571.8,36.7L575.2,37.7L570.9,38.6L575.3,39.1L576.0,39.7L575.3,40.9L567.3,39.2L573.4,42.6L575.0,41.8L576.3,42.7L573.1,43.1L577.8,45.9L585.0,47.9L589.6,45.3L590.6,43.2L592.8,41.7L598.1,44.3L603.4,44.5L610.5,43.3L620.1,45.8L619.6,45.4L622.0,44.8L620.0,44.5L621.6,43.4L630.7,44.0L629.2,42.9L629.3,42.0L627.4,41.6L631.7,40.4L626.5,40.5L626.3,39.7L636.3,38.3L634.1,37.0L634.9,36.8L663.1,39.1L652.3,40.0L653.9,40.5L666.1,39.8L662.4,41.6L663.0,40.6L660.5,40.2L660.5,41.7L656.9,41.7L656.5,42.6L657.6,42.9L662.1,42.4L668.3,39.7L679.9,40.5L682.5,41.9L676.9,42.8L685.9,44.2L683.0,45.4L687.5,44.6L690.6,45.0L693.3,46.4L691.6,46.6L695.4,47.4L712.9,46.0L727.4,46.9L733.7,49.1L733.3,52.8L738.9,53.7L739.5,56.4L741.1,57.4L738.6,59.3L742.2,57.4L742.1,54.9L745.3,53.7L754.6,53.1L760.0,53.8L760.0,104.1L757.5,103.1L755.4,103.9L753.5,103.3L751.5,104.5L751.1,107.0L749.7,108.5L745.2,111.4L744.3,113.3L745.0,114.4L746.5,115.2L747.9,114.0L750.8,114.8L748.4,117.7L748.6,119.9L751.0,120.5L751.4,122.9L748.8,123.7L747.7,122.9L749.9,121.4L748.0,121.5L744.9,123.6L743.1,126.7L745.0,130.5L742.6,131.8L738.1,131.6L734.5,133.4L733.3,135.5L734.3,138.9L732.0,138.4L727.7,140.1L726.3,139.4L727.0,140.2L726.4,142.8L724.3,145.7L717.3,150.1L716.2,148.0L715.4,142.1L714.0,140.3L711.2,127.5L713.4,120.5L718.5,116.5L717.8,114.9L725.2,113.7L744.8,101.0L753.3,98.7L752.5,98.1L754.9,96.5L753.8,95.8L755.9,91.6L760.0,90.9L757.8,89.6L751.4,90.2L749.8,93.6L751.0,94.6L750.1,95.3L746.5,94.8L738.1,99.5L735.0,100.1L736.1,98.1L733.1,98.5L735.7,93.6L731.8,94.5L730.0,93.4L719.1,94.7L704.6,104.3L703.9,105.8L708.2,106.2L709.1,107.6L703.2,108.2L699.8,107.5L697.0,109.0L694.4,108.4L689.3,109.2L688.2,108.1L694.1,107.4L689.4,105.7L684.9,106.0L685.9,105.7L680.6,104.6L677.6,105.3L678.3,106.0L676.2,105.8L676.0,106.6L677.1,106.7L675.9,107.2L664.5,106.2L662.0,107.7L659.5,106.4L650.8,106.4L642.8,107.8L634.8,112.2L633.1,114.7L623.8,119.1L618.8,123.4L606.1,129.8L606.2,130.6L609.3,131.4L614.2,131.2L613.6,134.8L614.2,135.5L616.0,135.3L616.0,133.5L618.7,133.0L617.0,133.9L619.6,134.7L616.5,136.8L620.2,136.5L623.1,134.6L621.7,136.9L622.7,136.8L623.8,135.7L624.0,132.8L629.7,133.1L637.9,138.1L636.9,139.5L635.1,139.1L637.2,140.4L636.6,142.5L638.4,143.8L635.6,146.7L633.4,151.0L634.0,154.7L631.3,163.3L623.4,170.3L618.8,176.7L609.4,184.2L605.6,188.6L595.4,192.9L591.0,191.9L591.0,189.7L589.1,190.8L589.5,189.8L588.3,190.0L585.0,193.2L582.7,193.1L583.4,193.8L582.6,194.9L581.2,192.8L584.6,191.8L585.5,189.3L585.5,185.8L584.1,181.8L588.6,179.3L594.2,180.8L595.1,180.3L595.5,178.4L599.0,174.5L600.6,169.0L603.6,166.9L602.7,165.3L603.2,164.1L601.2,163.5L595.3,164.9L591.9,166.9L584.0,166.9L581.9,161.0L580.1,160.8L576.5,158.3L568.7,157.3L566.4,156.1L566.6,154.0L565.3,153.3L565.1,151.4L563.1,149.4L558.6,140.9L556.6,139.4L546.0,136.8L532.4,138.1L527.8,140.7L527.7,141.5L530.7,141.8L530.9,144.9L527.7,146.8L523.0,153.0L524.0,153.7L523.5,154.8L516.4,157.6L507.8,155.1L503.7,155.6L497.9,153.7L490.2,157.6L479.3,159.5L468.5,158.6L465.1,156.9L464.9,155.4L461.3,155.2L458.6,153.5L451.8,152.7L445.0,154.3L441.0,154.1L435.8,152.1L434.9,148.1L418.2,144.2L413.8,147.6L412.8,149.7L413.8,151.8L415.1,152.3L414.9,153.5L410.3,156.4L403.6,155.1L396.1,155.0L394.2,152.2L388.3,152.0L384.4,150.6L372.5,154.6L367.6,157.7L362.9,157.9L361.8,159.3L358.9,159.9L354.8,157.4L355.1,156.3L352.5,157.7L347.6,157.1L346.3,154.8L342.9,153.9L340.9,151.1L337.9,150.0L333.4,151.3L328.1,151.3L327.7,150.2L326.1,150.1L326.4,148.9L324.3,148.4L320.5,151.1L309.5,138.2L302.4,134.3L302.0,133.6L303.2,133.7L304.2,132.1L297.0,134.0L291.3,137.1L288.8,136.4L286.5,137.3L285.9,135.9L288.0,134.2L285.5,134.6L282.4,133.7L281.5,134.7L280.1,132.7L274.5,133.3L275.0,131.3L272.7,127.7L269.8,128.4L263.6,127.2L259.6,128.4L259.3,129.4L245.5,131.2L243.5,132.7L240.2,132.4L227.1,134.7L223.5,134.3L222.2,136.4L225.1,136.9L223.3,138.1L227.9,139.6L222.6,139.7L221.1,141.3L222.3,143.0L217.3,145.1L225.2,148.3L224.3,150.7L222.0,151.5L217.4,150.7L214.7,152.6L208.7,149.6L206.0,149.5L203.9,150.5L201.7,149.6L199.0,149.8L194.8,152.1L189.4,149.9L189.0,152.3L186.8,149.7L182.7,147.4L178.7,147.4L176.9,146.3L172.4,147.5L169.5,146.2L167.0,148.3L158.3,151.9L159.0,155.5L156.8,155.8L153.6,153.1L152.2,153.3L149.4,156.7L148.9,158.4L150.1,159.5L148.4,161.3L148.2,163.3L150.3,164.2L151.4,166.8L156.0,166.9L160.1,171.8L158.0,171.9L157.9,172.7L161.5,174.3L158.6,175.3L158.9,176.3L153.2,177.9L152.3,177.4L151.7,179.8L148.4,183.5L151.5,185.6L152.3,188.4L153.3,186.7L152.3,191.1L158.1,197.3Z"/><path class="land" fill-rule="evenodd" d="M15.0,127.8L13.4,129.3L16.5,129.6L16.7,127.9L17.5,127.8L23.6,128.9L24.9,129.9L24.6,132.6L8.3,132.0L10.2,129.7L13.0,129.3L15.0,127.8Z"/><path class="land" fill-rule="evenodd" d="M665.5,187.4L666.4,187.1L665.5,187.4Z"/><path class="land" fill-rule="evenodd" d="M662.8,183.5L664.7,183.8L661.3,185.6L659.5,187.9L658.9,187.5L662.8,183.5Z"/><path class="land" fill-rule="evenodd" d="M675.2,179.3L670.3,181.1L666.4,184.0L671.7,179.0L673.8,179.5L676.3,178.3L676.4,179.1L675.2,179.3Z"/><path class="land" fill-rule="evenodd" d="M155.0,178.4L154.8,177.6L155.0,178.4Z"/><path class="land" fill-rule="evenodd" d="M680.8,177.6L679.6,177.9L682.3,175.7L685.3,174.7L680.8,177.6Z"/><path class="land" fill-rule="evenodd" d="M87.9,177.2L90.3,179.3L96.0,178.9L95.1,180.6L90.3,180.4L82.3,184.1L79.9,183.3L80.4,180.4L75.0,178.9L81.0,176.1L81.0,174.6L86.3,175.9L87.9,177.2Z"/><path class="land" fill-rule="evenodd" d="M692.8,171.1L691.3,171.4L694.3,169.9L692.8,171.1Z"/><path class="land" fill-rule="evenodd" d="M698.5,166.7L697.9,166.8L698.5,166.7Z"/><path class="land" fill-rule="evenodd" d="M703.5,161.4L704.3,160.8L703.5,161.4Z"/><path class="land" fill-rule="evenodd" d="M707.3,158.7L706.3,158.8L707.4,156.9L707.3,158.7Z"/><path class="land" fill-rule="evenodd" d="M713.1,153.5L710.4,154.9L709.3,153.7L711.8,153.0L714.0,151.1L713.1,153.5Z"/><path class="land" fill-rule="evenodd" d="M715.6,151.7L714.3,151.3L715.8,150.7L715.6,151.7Z"/><path class="land" fill-rule="evenodd" d="M711.6,150.9L710.7,150.4L711.6,150.9Z"/><path class="land part-shape" data-part="し" fill-rule="evenodd" d="M645.0,132.4L647.9,139.8L647.2,145.0L650.5,153.6L655.1,162.1L651.7,159.0L646.8,159.2L644.0,166.8L647.4,171.7L648.8,171.9L649.3,173.9L648.5,175.6L647.7,172.9L644.1,172.2L641.5,176.2L640.2,173.5L641.3,169.9L640.9,167.6L642.0,165.4L640.4,161.6L641.8,157.3L641.4,151.8L642.2,148.8L639.7,146.1L639.3,143.4L640.2,137.8L643.8,137.3L644.7,135.0L642.8,133.0L645.0,132.4Z"/><path class="land" fill-rule="evenodd" d="M616.2,128.7L615.5,129.6L613.8,129.5L616.2,128.7Z"/><path class="land" fill-rule="evenodd" d="M620.1,128.8L621.5,129.1L619.0,131.0L617.6,129.9L616.4,130.3L618.2,128.2L620.1,128.8Z"/><path class="land" fill-rule="evenodd" d="M685.5,108.5L684.9,108.3L686.1,107.9L685.5,108.5Z"/><path class="land" fill-rule="evenodd" d="M752.9,110.6L751.9,110.9L753.6,108.5L757.8,107.4L758.0,109.2L752.9,110.6Z"/><path class="land" fill-rule="evenodd" d="M92.1,76.6L91.9,77.7L90.6,76.8L92.1,76.6Z"/><path class="land" fill-rule="evenodd" d="M269.0,69.8L266.1,68.7L269.2,68.8L269.0,69.8Z"/><path class="land" fill-rule="evenodd" d="M127.8,68.8L126.5,68.4L127.8,68.8Z"/><path class="land" fill-rule="evenodd" d="M166.8,55.9L166.6,56.6L159.8,58.2L157.4,57.9L156.5,56.7L157.2,55.1L160.0,54.2L166.8,55.9Z"/><path class="land" fill-rule="evenodd" d="M255.1,54.1L253.5,54.4L255.1,54.1Z"/><path class="land" fill-rule="evenodd" d="M741.7,57.4L740.0,56.3L739.7,54.8L741.9,53.6L742.5,54.3L741.1,55.0L741.7,57.4Z"/><path class="land" fill-rule="evenodd" d="M219.5,52.0L219.4,53.1L215.7,53.2L211.7,52.3L209.2,50.3L212.2,49.3L219.5,52.0Z"/><path class="land" fill-rule="evenodd" d="M251.1,48.9L250.4,47.7L251.1,48.9Z"/><path class="land" fill-rule="evenodd" d="M737.9,47.4L736.4,46.9L737.9,47.4Z"/><path class="land" fill-rule="evenodd" d="M180.5,44.6L181.9,45.4L181.6,46.6L177.0,44.9L180.5,44.6Z"/><path class="land" fill-rule="evenodd" d="M620.2,43.9L615.6,43.8L620.2,43.9Z"/><path class="land" fill-rule="evenodd" d="M308.3,39.9L304.4,39.7L308.0,38.1L312.1,38.9L308.3,39.9Z"/><path class="land" fill-rule="evenodd" d="M318.0,37.6L313.5,37.0L316.2,35.7L318.2,36.6L318.0,37.6Z"/><path class="land" fill-rule="evenodd" d="M292.9,36.8L290.0,36.1L294.5,35.9L292.9,36.8Z"/><path class="land" fill-rule="evenodd" d="M528.7,35.7L525.5,35.5L528.7,35.7Z"/><path class="land" fill-rule="evenodd" d="M192.9,34.6L198.7,35.2L197.1,37.2L193.4,38.5L194.0,40.2L192.8,41.7L198.8,46.0L204.9,47.9L202.4,48.7L197.8,48.0L199.4,48.6L198.7,48.8L184.7,47.5L182.9,47.2L186.9,45.9L183.1,44.8L183.1,43.8L175.5,44.1L172.9,42.5L173.6,41.0L179.0,39.8L180.5,37.9L178.6,37.4L182.9,36.6L182.3,35.2L192.9,34.6Z"/><path class="land" fill-rule="evenodd" d="M272.3,35.7L268.4,35.8L268.8,34.3L270.7,33.7L274.1,33.6L277.3,35.0L272.3,35.7Z"/><path class="land" fill-rule="evenodd" d="M303.8,33.9L300.3,33.5L303.8,33.9Z"/><path class="land" fill-rule="evenodd" d="M297.3,33.8L296.5,34.0L300.1,33.4L297.3,33.8Z"/><path class="land" fill-rule="evenodd" d="M642.0,31.6L648.0,33.3L648.8,34.9L629.1,34.0L632.7,33.7L636.4,31.7L642.0,31.6Z"/><path class="land" fill-rule="evenodd" d="M550.8,31.8L549.8,31.4L551.4,31.6L550.8,31.8Z"/><path class="land" fill-rule="evenodd" d="M338.9,30.6L335.1,30.5L338.9,30.6Z"/><path class="land" fill-rule="evenodd" d="M334.6,30.6L332.6,30.3L334.6,30.6Z"/><path class="land" fill-rule="evenodd" d="M611.1,31.5L606.9,29.7L611.1,31.5Z"/><path class="land" fill-rule="evenodd" d="M636.0,31.0L632.9,31.4L631.3,30.1L635.6,29.7L636.4,30.2L636.0,31.0Z"/><path class="land" fill-rule="evenodd" d="M345.1,28.6L343.2,28.7L345.7,28.4L345.1,28.6Z"/><path class="land" fill-rule="evenodd" d="M493.2,29.0L490.0,30.5L483.4,29.2L486.4,28.2L493.2,29.0Z"/><path class="land" fill-rule="evenodd" d="M354.9,25.9L357.4,26.2L352.9,26.4L354.9,25.9Z"/><path class="land" fill-rule="evenodd" d="M331.8,23.7L330.8,24.6L328.3,23.9L331.8,23.7Z"/><path class="land" fill-rule="evenodd" d="M665.9,23.9L674.3,23.7L675.2,24.6L686.7,25.0L685.4,26.3L677.5,27.0L662.5,24.8L664.0,23.0L665.9,23.9Z"/><path class="land" fill-rule="evenodd" d="M609.8,23.7L607.2,23.8L608.5,21.5L610.9,22.7L609.8,23.7Z"/><path class="land" fill-rule="evenodd" d="M697.4,20.1L695.7,19.9L697.4,20.1Z"/><path class="land" fill-rule="evenodd" d="M631.0,21.6L635.0,22.6L635.8,20.9L638.4,20.0L658.5,23.1L651.5,25.6L645.3,24.5L644.7,23.5L646.0,22.2L642.7,22.3L641.5,22.4L642.1,23.8L646.9,26.0L643.5,26.8L641.0,25.9L632.1,26.6L629.1,26.0L626.1,27.6L620.9,26.9L615.0,24.2L616.7,24.0L616.6,22.0L618.9,21.9L618.1,20.9L621.5,20.1L625.2,19.7L631.0,21.6Z"/><path class="land" fill-rule="evenodd" d="M406.0,19.2L404.8,20.1L399.7,19.6L406.0,19.2Z"/><path class="land" fill-rule="evenodd" d="M407.7,19.7L407.6,18.9L408.7,19.1L407.7,19.7Z"/><path class="land" fill-rule="evenodd" d="M488.5,17.5L489.4,18.0L485.8,17.4L488.5,17.5Z"/><path class="land" fill-rule="evenodd" d="M411.5,17.6L410.0,17.1L411.5,17.6Z"/><path class="land" fill-rule="evenodd" d="M678.1,17.3L674.2,17.3L679.4,16.6L678.1,17.3Z"/><path class="land part-shape" data-part="さ" fill-rule="evenodd" d="M257.3,19.5L224.2,24.2L218.6,25.8L219.7,26.3L215.5,27.9L213.2,27.4L212.2,28.5L209.6,28.4L210.0,29.8L205.6,30.9L205.5,32.2L203.3,31.9L204.4,32.8L199.7,34.6L191.3,33.8L187.7,34.4L184.9,32.2L189.4,31.2L193.1,28.9L197.2,28.5L194.3,27.8L199.0,26.1L195.5,25.2L199.4,25.3L200.8,24.0L204.8,24.1L207.1,22.4L211.4,21.4L222.0,20.3L223.4,19.2L240.2,18.7L256.1,15.5L261.0,15.9L263.4,17.0L257.3,19.5Z"/><path class="land" fill-rule="evenodd" d="M404.7,15.4L399.5,15.4L406.2,14.7L404.7,15.4Z"/><path class="land" fill-rule="evenodd" d="M369.7,14.5L367.8,14.3L370.6,14.1L369.7,14.5Z"/><path class="land" fill-rule="evenodd" d="M462.3,14.3L461.5,14.0L463.6,14.1L462.3,14.3Z"/><path class="land" fill-rule="evenodd" d="M463.7,9.7L457.1,9.6L463.7,9.7Z"/><path class="land" fill-rule="evenodd" d="M456.4,9.3L455.1,9.2L458.7,8.8L456.4,9.3Z"/><path class="land" fill-rule="evenodd" d="M438.9,3.9L436.4,6.0L443.6,4.4L450.6,6.1L451.6,7.3L448.5,8.6L420.3,10.1L424.0,8.6L426.1,6.4L428.9,6.3L428.4,5.7L429.4,4.5L432.2,3.4L440.0,3.6L438.9,3.9Z"/><path class="land" fill-rule="evenodd" d="M301.2,1.8L308.1,2.6L300.1,1.8L301.2,1.8Z"/><path class="land" fill-rule="evenodd" d="M424.6,2.0L423.5,2.1L425.5,1.7L424.6,2.0Z"/><path class="land" fill-rule="evenodd" d="M386.1,1.6L377.8,0.1L391.9,0.5L386.1,1.6Z"/><path class="land" fill-rule="evenodd" d="M172.7,0.3L165.9,0.1L172.7,0.3Z"/><path class="land" fill-rule="evenodd" d="M215.5,0.2L211.6,0.1L216.7,0.0L215.5,0.2Z"/><path class="land" fill-rule="evenodd" d="M413.1,0.0L411.5,1.2L416.1,0.0L423.7,0.8L424.3,1.2L422.8,1.9L422.3,3.5L419.0,3.7L423.6,5.4L411.3,6.1L397.0,4.7L394.1,3.1L388.1,2.6L396.3,0.0Z"/><path class="land" fill-rule="evenodd" d="M99.6,284.4L88.8,268.7L85.9,268.1L87.6,261.8L93.4,262.6L96.7,259.4L100.7,258.5L103.3,255.9L98.0,250.8L109.3,247.5L115.7,248.5L124.5,252.9L138.0,262.6L152.2,263.7L153.4,266.1L157.4,266.0L159.2,270.3L166.2,275.8L165.5,275.7L166.5,277.6L165.6,278.6L168.7,284.4Z"/><path class="land" fill-rule="evenodd" d="M97.7,282.4L95.8,280.8L97.7,282.4Z"/><path class="land" fill-rule="evenodd" d="M96.1,280.7L96.1,279.9L96.1,280.7Z"/><path class="land" fill-rule="evenodd" d="M24.3,184.9L22.6,187.3L25.6,190.8L23.1,192.1L22.9,194.8L18.4,195.2L19.4,193.0L17.5,192.6L14.5,189.9L12.1,192.2L6.3,189.0L7.7,188.0L6.4,186.3L8.2,185.9L5.8,184.3L7.0,181.6L5.1,181.4L5.9,179.9L7.2,179.9L5.2,178.9L4.3,176.6L7.9,175.0L11.4,175.1L14.3,177.1L14.4,178.5L18.0,180.2L17.3,180.9L18.3,181.5L17.4,181.8L21.2,183.3L24.0,182.8L24.5,183.2L23.2,183.9L24.3,184.9Z"/><path class="land" fill-rule="evenodd" d="M0.0,160.1L3.1,157.7L5.9,158.2L7.5,157.2L9.3,159.3L17.3,158.1L23.5,159.9L21.3,163.4L12.9,162.7L10.1,164.7L8.1,164.3L4.1,165.4L3.7,166.5L0.0,166.7Z"/><path class="land" fill-rule="evenodd" d="M13.6,56.7L25.1,60.1L29.2,62.3L28.2,64.8L29.6,65.0L29.2,66.5L31.0,68.2L29.5,71.1L31.8,73.4L22.8,73.1L22.0,74.5L17.6,75.9L18.5,76.9L16.2,78.5L18.2,80.3L14.3,83.4L7.0,85.4L1.8,87.7L2.4,88.4L0.0,88.7L0.0,100.7L5.1,104.3L0.0,106.6L3.2,106.9L0.0,108.5L0.0,61.9L0.8,59.3L10.2,60.2L11.6,59.6L10.2,59.2L12.1,57.7L10.9,56.8L13.6,56.7Z"/><path class="land" fill-rule="evenodd" d="M5.6,114.6L4.2,115.3L4.7,116.9L0.8,119.3L1.5,118.5L0.7,116.0L2.8,114.6L5.6,114.6Z"/><path class="land" fill-rule="evenodd" d="M6.0,114.1L5.4,114.2L6.9,113.9L6.0,114.1Z"/><path class="land" fill-rule="evenodd" d="M3.1,106.1L3.6,105.8L3.1,106.1Z"/><path class="land" fill-rule="evenodd" d="M125.9,221.8L120.4,225.5L120.7,229.3L119.9,233.8L118.6,235.8L97.3,246.5L92.0,244.4L92.9,239.2L94.9,238.7L94.5,238.2L96.1,236.7L95.0,234.4L92.9,234.6L91.8,229.7L92.5,227.9L93.9,228.3L95.0,226.6L96.4,226.3L96.5,223.3L100.5,224.2L104.4,222.8L110.4,224.0L117.4,221.8L125.1,220.8L125.9,221.8Z"/><path class="land" fill-rule="evenodd" d="M294.1,221.1L291.3,220.1L287.7,221.1L288.1,220.1L286.3,219.9L277.5,223.9L276.3,221.7L277.0,217.6L275.5,217.6L275.3,215.6L273.4,214.8L270.0,217.5L269.8,219.3L266.2,219.5L265.2,221.7L263.2,220.6L258.3,222.5L257.3,221.6L257.5,219.8L260.3,216.1L259.0,214.7L259.0,212.2L255.1,210.7L257.1,208.8L260.9,209.2L263.5,206.3L261.8,205.9L265.1,205.8L264.7,203.9L265.5,202.8L267.4,203.4L270.9,201.5L272.7,203.1L270.8,204.8L273.7,205.8L271.5,207.1L268.7,205.8L266.4,206.3L265.1,207.2L265.2,209.3L271.4,208.9L273.0,209.9L276.4,208.9L278.0,210.5L280.4,210.9L287.6,209.7L288.5,214.0L291.0,213.7L293.7,214.8L294.1,219.2L295.3,220.3L294.1,221.1Z"/><path class="land" fill-rule="evenodd" d="M272.5,207.7L271.3,207.4L272.5,207.7Z"/><path class="land" fill-rule="evenodd" d="M272.2,202.0L271.7,201.6L272.2,202.0Z"/><path class="land" fill-rule="evenodd" d="M250.9,220.5L246.9,219.4L245.9,221.0L242.0,221.6L240.5,225.7L237.9,227.4L233.3,228.3L232.9,230.3L229.1,231.8L227.4,230.4L223.7,229.4L222.9,224.2L218.9,224.2L213.5,219.7L208.2,218.9L203.5,217.3L202.6,216.0L193.3,216.9L189.7,219.9L185.7,220.5L185.4,212.2L184.6,210.9L181.8,210.6L182.2,208.8L184.1,209.1L183.5,207.3L180.9,206.9L181.1,208.0L179.6,204.7L180.7,201.4L181.7,202.5L185.5,203.4L188.1,203.2L187.8,202.5L189.7,202.3L189.8,201.3L186.6,198.9L185.1,195.9L180.8,196.6L180.2,200.6L178.3,197.6L181.2,195.7L186.7,194.7L190.5,196.6L193.8,200.2L201.7,200.3L201.4,197.2L203.1,195.8L205.8,195.5L207.0,193.9L209.3,194.9L207.6,193.2L209.8,192.4L213.8,194.8L217.1,195.4L216.8,196.6L218.2,197.5L217.6,199.6L227.0,201.1L230.0,206.9L236.6,211.1L246.2,215.9L251.1,217.1L250.9,220.5Z"/><path class="land" fill-rule="evenodd" d="M181.5,213.0L181.2,211.5L181.5,213.0Z"/><path class="land" fill-rule="evenodd" d="M131.5,201.1L133.0,203.1L132.2,204.3L132.7,206.1L136.5,206.8L138.6,208.6L137.5,208.0L136.4,209.8L134.5,210.0L136.0,215.1L136.7,215.4L135.5,217.6L137.5,218.6L138.4,221.6L135.9,222.4L135.0,220.8L128.1,220.4L125.9,221.8L125.1,220.8L117.4,221.8L110.4,224.0L104.4,222.8L100.5,224.2L96.5,223.3L96.4,226.3L93.7,228.4L92.5,227.9L92.1,225.9L94.0,224.1L93.3,222.8L89.9,224.5L86.4,223.3L81.1,226.5L76.5,227.3L68.5,223.2L65.4,223.0L64.3,226.1L60.4,226.7L58.0,225.8L56.7,223.8L48.9,223.8L53.0,222.2L47.9,222.4L49.3,221.5L46.9,218.9L47.7,217.3L42.9,215.7L43.6,213.8L44.8,215.4L47.3,214.8L45.3,213.5L46.6,212.6L44.9,210.5L46.0,209.1L41.9,209.3L42.3,206.9L45.2,204.7L50.3,205.1L51.1,204.2L51.5,204.9L56.9,204.8L55.8,204.0L61.3,202.9L57.5,202.0L57.6,200.5L68.5,201.1L74.0,197.9L79.5,196.4L87.9,196.1L89.4,197.9L93.3,198.1L95.2,200.2L97.1,199.8L105.4,202.0L110.8,201.1L115.1,201.8L121.5,199.0L126.5,199.4L127.6,198.6L131.5,201.1Z"/><path class="land" fill-rule="evenodd" d="M43.0,197.9L46.6,196.2L51.8,196.6L52.7,198.8L57.2,200.4L55.7,201.8L49.1,201.8L42.4,206.4L42.7,205.2L45.5,203.6L41.6,203.0L44.6,199.6L43.0,197.9Z"/><path class="land" fill-rule="evenodd" d="M41.2,206.1L39.6,206.1L41.2,206.1Z"/><path class="land" fill-rule="evenodd" d="M532.6,284.4L535.2,282.9L537.3,284.4Z"/><path class="land" fill-rule="evenodd" d="M29.0,147.3L32.9,145.4L40.3,145.2L47.3,146.0L50.1,147.5L52.7,146.8L55.5,147.7L57.4,146.7L58.7,148.0L62.9,147.5L64.9,148.6L65.1,146.4L67.1,144.5L73.0,144.5L74.6,143.2L81.4,143.0L84.8,145.9L83.3,146.4L83.8,148.6L89.5,149.7L90.9,153.2L93.7,153.0L96.3,154.0L100.4,153.0L103.6,155.5L104.7,154.8L114.2,157.3L114.3,159.0L112.1,160.2L113.8,161.2L111.9,162.4L113.5,164.2L112.4,166.2L108.1,166.2L104.9,167.7L104.5,170.1L92.2,172.6L88.0,175.2L89.3,174.3L89.1,173.5L87.1,174.8L87.9,177.2L81.7,174.7L74.8,175.3L71.5,174.3L72.4,173.6L70.1,172.9L74.2,173.3L75.4,172.6L72.6,172.5L71.1,169.5L71.7,172.4L70.1,171.8L66.2,172.9L63.2,176.5L60.1,177.2L60.5,179.6L59.0,178.8L54.0,179.4L52.8,178.6L54.3,178.3L56.6,175.5L56.7,173.4L62.7,173.6L59.8,170.8L59.7,169.2L57.6,168.1L57.5,165.6L49.4,163.0L35.6,166.9L33.5,165.7L26.6,165.0L25.2,165.7L21.4,163.3L23.5,159.9L25.1,159.9L24.3,157.1L31.5,152.4L31.5,150.6L29.0,147.3Z"/><path class="land" fill-rule="evenodd" d="M72.4,174.7L73.2,175.0L69.8,173.9L72.4,174.7Z"/><path class="land" fill-rule="evenodd" d="M257.3,221.4L250.9,220.5L251.1,217.1L246.2,215.9L236.6,211.1L230.0,206.9L227.0,201.1L217.6,199.6L218.2,197.5L216.8,196.6L217.1,195.4L213.8,194.8L209.8,192.4L207.6,193.2L209.3,194.9L207.0,193.9L205.8,195.5L203.1,195.8L201.4,197.2L201.7,200.3L196.3,200.0L196.3,181.0L209.7,178.1L222.4,184.1L227.4,188.7L240.1,188.4L242.5,187.6L247.1,191.9L248.7,191.3L248.2,196.4L250.7,196.5L251.8,200.7L258.2,200.6L259.1,201.5L258.7,202.6L260.6,203.6L264.5,199.4L274.2,195.0L275.2,195.6L269.8,198.8L276.0,201.0L277.5,198.8L280.2,201.5L285.0,202.5L277.6,206.0L275.6,205.3L272.2,205.8L270.8,204.7L272.7,203.0L270.9,201.5L267.4,203.4L265.5,202.8L264.7,203.9L265.1,205.8L261.8,205.9L263.5,206.3L260.9,209.2L256.1,209.1L255.2,210.9L259.0,212.2L259.0,214.7L260.3,216.3L257.3,221.4ZM272.2,202.0L271.7,201.6L272.2,202.0Z"/><path class="land" fill-rule="evenodd" d="M274.1,206.8L274.0,206.0L275.1,207.3L274.1,206.8Z"/></g><g id="rivers"><path class="river part-shape" data-part="せ" d="M143.0,154.0L143.9,152.7L143.1,151.5L145.0,150.3L144.1,148.3L146.7,146.1L148.8,146.1"/><path class="river part-shape" data-part="せ" d="M160.6,126.8L161.6,128.7L157.7,131.9L157.5,133.1L160.8,137.1L164.9,137.2"/><path class="river part-shape" data-part="せ" d="M131.5,120.6L129.7,118.3L130.2,117.2L127.1,116.8"/><path class="river part-shape" data-part="せ" d="M99.0,120.2L95.0,120.4"/><path class="river part-shape" data-part="せ" d="M102.2,117.4L105.0,116.0"/><path class="river part-shape" data-part="せ" d="M120.7,116.4L118.1,114.8L113.8,116.0"/><path class="river part-shape" data-part="せ" d="M105.7,113.7L105.5,112.3L107.0,113.2"/><path class="river part-shape" data-part="せ" d="M154.3,172.0L156.2,172.7L158.6,175.3"/><path class="river part-shape" data-part="せ" d="M143.0,154.0L137.1,162.4L144.1,163.6L145.8,165.9L154.1,171.8L155.1,173.9L152.8,176.9L153.3,177.6"/><path class="river part-shape" data-part="せ" d="M164.9,137.2L166.1,138.4L157.8,139.0L157.7,140.5L154.6,144.1L148.8,146.1"/><path class="river part-shape" data-part="せ" d="M131.5,120.6L137.3,123.6L147.3,122.3L154.2,123.3L155.4,124.5L160.3,125.7L160.6,126.8"/><path class="river part-shape" data-part="せ" d="M99.0,120.2L102.2,117.4"/><path class="river part-shape" data-part="せ" d="M75.5,117.6L76.2,119.2L80.3,119.8L82.5,121.2L82.0,121.9L86.2,123.0L87.6,121.3L91.4,119.8L95.0,120.4"/><path class="river part-shape" data-part="せ" d="M120.7,116.4L127.1,116.8"/><path class="river part-shape" data-part="せ" d="M113.8,116.0L111.2,114.2L107.0,113.2"/><path class="river part-shape" data-part="せ" d="M105.0,116.0L105.7,113.7"/><path class="river part-shape" data-part="そ" d="M336.2,130.1L329.5,133.0L327.4,135.0"/><path class="river part-shape" data-part="そ" d="M346.7,142.5L340.4,142.9L339.5,139.4L340.4,137.8L333.9,137.3L327.4,135.0"/><path class="river part-shape" data-part="そ" d="M270.7,96.7L292.9,97.1L302.5,98.6L314.5,102.7L316.8,105.7L327.0,108.0L328.6,110.0L335.5,112.1L338.2,114.9L340.1,115.3L341.2,117.3L343.0,117.8L343.5,119.4L339.4,126.0L335.5,127.2L336.2,130.1"/><path class="river part-shape" data-part="そ" d="M262.9,97.6L270.7,96.7"/><path class="river part-shape" data-part="そ" d="M262.9,97.6L260.3,97.3L260.2,95.9L256.4,94.6L254.8,92.6L246.5,89.8L243.7,87.5L247.0,84.9L247.2,82.3L248.3,81.9L245.6,78.8L245.9,77.6L244.3,77.0L247.3,73.2L247.2,71.7L250.5,69.4L255.0,69.1"/><path class="river part-shape" data-part="そ" d="M255.0,69.1L259.5,69.6L261.9,68.5"/><path class="river part-shape" data-part="そ" d="M255.0,69.1L261.9,68.5"/><path class="river part-shape" data-part="そ" d="M261.9,68.5L263.7,68.3"/><path class="river part-shape" data-part="そ" d="M221.8,146.5L222.4,147.4L225.0,147.6L224.9,143.9L226.1,142.5L230.5,141.6L235.7,138.8L237.1,137.4L236.5,135.0L237.2,133.6L242.0,131.9L244.2,127.3L249.5,122.2L250.4,119.8L253.1,118.0L254.1,115.1L258.8,114.2L259.6,112.9"/><path class="river part-shape" data-part="た" d="M380.1,135.8L380.3,134.0L377.1,130.7L377.4,129.6L384.7,126.7"/><path class="river part-shape" data-part="た" d="M402.1,148.4L395.3,146.1"/><path class="river part-shape" data-part="た" d="M395.3,146.1L386.6,146.9L383.4,145.8L382.9,144.7L384.9,143.2L384.2,141.8L379.3,141.1L379.8,138.9L382.4,137.5L380.1,135.8"/><path class="river part-shape" data-part="た" d="M387.7,113.2L388.9,114.3L389.7,118.9L391.6,121.6L388.5,123.6L384.1,124.5L385.1,125.9L384.7,126.7"/><path class="river part-shape" data-part="た" d="M336.6,51.1L342.2,53.4L346.9,52.8L351.3,54.3L351.5,57.7L354.3,60.5L353.1,64.2L354.8,65.4L355.3,68.0L353.0,69.4L359.1,70.4L358.2,71.4L361.5,72.1L360.7,73.1L362.1,74.0L361.0,78.2L359.5,80.1L359.8,82.9L358.2,86.0L364.1,88.6L368.8,93.6L373.0,95.3L370.4,97.0L373.1,101.8L381.1,109.0L382.8,109.4L383.3,111.2L387.7,113.2"/><path class="river part-shape" data-part="ち" d="M530.7,101.3L524.0,102.4L518.7,104.8L505.6,99.7L500.9,99.5L490.3,105.1L488.0,107.2L485.2,107.6L481.4,109.9L475.5,110.6L473.1,112.5L470.9,112.4L465.5,115.0L462.6,117.4L460.1,117.3L459.4,118.5L453.3,120.2L456.5,121.2L453.4,122.7L454.0,124.8L450.2,129.2L450.9,132.4L455.3,135.2L460.8,135.2L464.2,132.9L465.9,133.4L465.2,134.4"/><path class="river part-shape" data-part="ち" d="M561.9,39.8L564.4,42.2L564.8,45.0L566.2,46.5L565.7,47.9L557.3,49.4L558.3,50.1L558.0,50.9L554.2,52.2L551.8,54.8L548.2,56.7L546.9,60.2L543.6,62.4L543.3,64.9L549.1,73.0L550.4,76.6L570.2,85.0L575.8,85.4L579.2,91.4L576.3,95.0L571.2,96.9L560.0,97.9L548.8,100.3L534.7,100.1L530.7,101.3"/><path class="river part-shape" data-part="つ" d="M615.6,152.8L614.3,156.3"/><path class="river part-shape" data-part="つ" d="M631.3,146.0L630.0,146.9"/><path class="river part-shape" data-part="つ" d="M614.3,156.3L614.3,157.2L612.1,158.4L610.9,160.3L605.9,161.8L604.7,163.3L595.3,164.9L591.9,166.9L584.2,167.0L582.8,165.3L583.2,163.7L581.9,161.0L580.1,160.8L576.5,158.3L567.7,157.1L566.1,155.8L566.6,154.0"/><path class="river part-shape" data-part="つ" d="M630.0,146.9L625.2,148.1L615.6,152.8"/><path class="river part-shape" data-part="つ" d="M631.3,146.0L632.8,142.3L629.5,139.4L630.8,138.5L635.1,139.1"/><path class="river part-shape" data-part="つ" d="M566.6,154.0L565.3,153.3L565.1,151.4L563.1,149.4L560.1,142.9L556.6,139.4L546.0,136.8L534.6,138.0"/><path class="river part-shape" data-part="て" d="M336.2,130.1L329.5,133.0L327.4,135.0"/><path class="river part-shape" data-part="て" d="M346.7,142.5L340.4,142.9L339.5,139.4L340.4,137.8L333.9,137.3L327.4,135.0"/><path class="river part-shape" data-part="て" d="M270.7,96.7L292.9,97.1L302.5,98.6L314.5,102.7L316.8,105.7L327.0,108.0L328.6,110.0L335.5,112.1L338.2,114.9L340.1,115.3L341.2,117.3L343.0,117.8L343.5,119.4L339.4,126.0L335.5,127.2L336.2,130.1"/><path class="river part-shape" data-part="て" d="M262.9,97.6L270.7,96.7"/><path class="river part-shape" data-part="て" d="M262.9,97.6L260.3,97.3L260.2,95.9L256.4,94.6L254.8,92.6L246.5,89.8L243.7,87.5L247.0,84.9L247.2,82.3L248.3,81.9L245.6,78.8L245.9,77.6L244.3,77.0L247.3,73.2L247.2,71.7L250.5,69.4L255.0,69.1"/><path class="river part-shape" data-part="て" d="M255.0,69.1L259.5,69.6L261.9,68.5"/><path class="river part-shape" data-part="て" d="M255.0,69.1L261.9,68.5"/><path class="river part-shape" data-part="て" d="M261.9,68.5L263.7,68.3"/><path class="river part-shape" data-part="て" d="M221.8,146.5L222.4,147.4L225.0,147.6L224.9,143.9L226.1,142.5L230.5,141.6L235.7,138.8L237.1,137.4L236.5,135.0L237.2,133.6L242.0,131.9L244.2,127.3L249.5,122.2L250.4,119.8L253.1,118.0L254.1,115.1L258.8,114.2L259.6,112.9"/><path class="river part-shape" data-part="と" d="M80.3,171.5L83.5,168.1L88.3,167.9L88.4,166.3"/><path class="river part-shape" data-part="と" d="M78.6,159.8L71.8,157.4"/><path class="river part-shape" data-part="と" d="M69.5,155.1L69.6,156.4"/><path class="river part-shape" data-part="と" d="M64.7,148.8L64.7,152.0"/><path class="river part-shape" data-part="と" d="M75.4,172.6L80.3,171.5"/><path class="river part-shape" data-part="と" d="M88.4,166.3L88.5,163.4L78.6,159.8"/><path class="river part-shape" data-part="と" d="M71.8,157.4L69.6,156.4"/><path class="river part-shape" data-part="と" d="M69.5,155.1L66.5,154.5L64.7,152.0"/><path class="river part-shape" data-part="と" d="M79.6,129.7L77.4,129.2L75.0,130.8L72.4,130.4L64.2,131.9L63.4,136.1L64.0,138.1L62.2,139.8L66.2,144.8L64.7,148.8"/></g><g id="markers"><g class="marker m-grid" data-part="あ" data-kind="緯線" transform="translate(682.4,69.8)"><circle class="pulse-ring" r="6"/><circle class="hit" r="16"/><rect class="dot" x="-2.6" y="-2.6" width="5.2" height="5.2"/></g><g class="marker m-grid" data-part="い" data-kind="経度" transform="translate(217.1,31.0)"><circle class="pulse-ring" r="6"/><circle class="hit" r="16"/><rect class="dot" x="-2.6" y="-2.6" width="5.2" height="5.2"/></g><g class="marker m-grid" data-part="う" data-kind="緯度" transform="translate(20.7,155.1)"><circle class="pulse-ring" r="6"/><circle class="hit" r="16"/><rect class="dot" x="-2.6" y="-2.6" width="5.2" height="5.2"/></g><g class="marker m-sea" data-part="え" data-kind="海" transform="translate(10.3,113.7)"><circle class="pulse-ring" r="6"/><circle class="hit" r="16"/><circle class="dot" r="5"/></g><g class="marker m-sea" data-part="お" data-kind="海" transform="translate(672.1,134.4)"><circle class="pulse-ring" r="6"/><circle class="hit" r="16"/><circle class="dot" r="5"/></g><g class="marker m-sea" data-part="か" data-kind="海" transform="translate(170.6,196.5)"><circle class="pulse-ring" r="6"/><circle class="hit" r="16"/><circle class="dot" r="5"/></g><g class="marker m-sea" data-part="き" data-kind="海" transform="translate(82.7,191.3)"><circle class="pulse-ring" r="6"/><circle class="hit" r="16"/><circle class="dot" r="5"/></g><g class="marker m-land" data-part="く" data-kind="半島" transform="translate(729.0,124.1)"><circle class="pulse-ring" r="6"/><circle class="hit" r="16"/><circle class="dot" r="4"/></g><g class="marker m-strait" data-part="け" data-kind="海峡" transform="translate(641.1,176.8)"><circle class="pulse-ring" r="6"/><circle class="hit" r="16"/><rect class="dot" x="-3.3" y="-3.3" width="6.6" height="6.6" transform="rotate(45)"/></g><g class="marker m-land" data-part="こ" data-kind="半島" transform="translate(98.2,64.6)"><circle class="pulse-ring" r="6"/><circle class="hit" r="16"/><circle class="dot" r="4"/></g><g class="marker m-island" data-part="さ" data-kind="諸島" transform="translate(196.5,33.6)"><circle class="pulse-ring" r="6"/><circle class="hit" r="16"/><circle class="dot" r="4"/></g><g class="marker m-island" data-part="し" data-kind="島" transform="translate(646.3,149.9)"><circle class="pulse-ring" r="6"/><circle class="hit" r="16"/><circle class="dot" r="4"/></g><g class="marker m-lake" data-part="す" data-kind="湖" transform="translate(465.3,137.0)"><circle class="pulse-ring" r="6"/><circle class="hit" r="16"/><circle class="dot" r="4"/></g><g class="marker m-river" data-part="せ" data-kind="川" transform="translate(149.9,155.1)"><circle class="pulse-ring" r="6"/><circle class="hit" r="16"/><circle class="dot" r="3"/></g><g class="marker m-river" data-part="そ" data-kind="川" transform="translate(268.8,93.1)"><circle class="pulse-ring" r="6"/><circle class="hit" r="16"/><circle class="dot" r="3"/></g><g class="marker m-river" data-part="た" data-kind="川" transform="translate(356.7,72.4)"><circle class="pulse-ring" r="6"/><circle class="hit" r="16"/><circle class="dot" r="3"/></g><g class="marker m-river" data-part="ち" data-kind="川" transform="translate(548.0,82.7)"><circle class="pulse-ring" r="6"/><circle class="hit" r="16"/><circle class="dot" r="3"/></g><g class="marker m-river" data-part="つ" data-kind="川" transform="translate(589.4,149.9)"><circle class="pulse-ring" r="6"/><circle class="hit" r="16"/><circle class="dot" r="3"/></g><g class="marker m-river" data-part="て" data-kind="川" transform="translate(289.5,124.1)"><circle class="pulse-ring" r="6"/><circle class="hit" r="16"/><circle class="dot" r="3"/></g><g class="marker m-river" data-part="と" data-kind="川" transform="translate(77.6,165.4)"><circle class="pulse-ring" r="6"/><circle class="hit" r="16"/><circle class="dot" r="3"/></g><g class="marker m-lake" data-part="な" data-kind="湖" transform="translate(217.1,181.0)"><circle class="pulse-ring" r="6"/><circle class="hit" r="16"/><circle class="dot" r="4"/></g><g class="marker m-lake" data-part="に" data-kind="湖" transform="translate(289.5,174.2)"><circle class="pulse-ring" r="6"/><circle class="hit" r="16"/><circle class="dot" r="4"/></g><g class="marker m-land" data-part="ぬ" data-kind="砂漠" transform="translate(212.0,209.4)"><circle class="pulse-ring" r="6"/><circle class="hit" r="16"/><circle class="dot" r="4"/></g><g class="marker m-land" data-part="ね" data-kind="平原" transform="translate(294.7,103.4)"><circle class="pulse-ring" r="6"/><circle class="hit" r="16"/><circle class="dot" r="4"/></g><g class="marker m-land" data-part="の" data-kind="高原" transform="translate(423.9,77.6)"><circle class="pulse-ring" r="6"/><circle class="hit" r="16"/><circle class="dot" r="4"/></g><g class="marker m-mountain" data-part="は" data-kind="山脈" transform="translate(579.0,124.1)"><circle class="pulse-ring" r="6"/><circle class="hit" r="16"/><polygon class="dot" points="0,-5 4.3,3 -4.3,3"/></g><g class="marker m-land" data-part="ひ" data-kind="平原" transform="translate(113.7,118.9)"><circle class="pulse-ring" r="6"/><circle class="hit" r="16"/><circle class="dot" r="4"/></g><g class="marker m-land" data-part="へ" data-kind="高原" transform="translate(258.5,160.3)"><circle class="pulse-ring" r="6"/><circle class="hit" r="16"/><circle class="dot" r="4"/></g><g class="marker m-city" data-part="a" data-kind="都市" transform="translate(79.7,165.9)"><circle class="pulse-ring" r="6"/><circle class="hit" r="16"/><circle class="dot" r="4"/></g><g class="marker m-city" data-part="b" data-kind="都市" transform="translate(268.8,98.2)"><circle class="pulse-ring" r="6"/><circle class="hit" r="16"/><circle class="dot" r="4"/></g><g class="marker m-city" data-part="c" data-kind="都市" transform="translate(356.7,134.4)"><circle class="pulse-ring" r="6"/><circle class="hit" r="16"/><circle class="dot" r="4"/></g><g class="marker m-city" data-part="d" data-kind="都市" transform="translate(284.9,156.1)"><circle class="pulse-ring" r="6"/><circle class="hit" r="16"/><circle class="dot" r="4"/></g><g class="marker m-city" data-part="1" data-kind="都市" transform="translate(78.0,57.0)"><circle class="pulse-ring" r="6"/><circle class="hit" r="16"/><circle class="dot" r="4"/></g><g class="marker m-city" data-part="2" data-kind="都市" transform="translate(63.8,103.8)"><circle class="pulse-ring" r="6"/><circle class="hit" r="16"/><circle class="dot" r="4"/></g><g class="marker m-city" data-part="3" data-kind="都市" transform="translate(101.4,125.4)"><circle class="pulse-ring" r="6"/><circle class="hit" r="16"/><circle class="dot" r="4"/></g><g class="marker m-city" data-part="4" data-kind="都市" transform="translate(134.4,122.4)"><circle class="pulse-ring" r="6"/><circle class="hit" r="16"/><circle class="dot" r="4"/></g><g class="marker m-city" data-part="5" data-kind="都市" transform="translate(137.1,161.7)"><circle class="pulse-ring" r="6"/><circle class="hit" r="16"/><circle class="dot" r="4"/></g><g class="marker m-city" data-part="6" data-kind="都市" transform="translate(588.8,190.7)"><circle class="pulse-ring" r="6"/><circle class="hit" r="16"/><circle class="dot" r="4"/></g><g class="marker m-city" data-part="7" data-kind="都市" transform="translate(577.7,92.9)"><circle class="pulse-ring" r="6"/><circle class="hit" r="16"/><circle class="dot" r="4"/></g><g class="marker m-city" data-part="8" data-kind="都市" transform="translate(362.9,55.1)"><circle class="pulse-ring" r="6"/><circle class="hit" r="16"/><circle class="dot" r="4"/></g><g class="marker m-city" data-part="9" data-kind="都市" transform="translate(686.6,105.7)"><circle class="pulse-ring" r="6"/><circle class="hit" r="16"/><circle class="dot" r="4"/></g><g class="marker m-city" data-part="10" data-kind="都市" transform="translate(64.7,152.8)"><circle class="pulse-ring" r="6"/><circle class="hit" r="16"/><circle class="dot" r="4"/></g><g class="marker m-city" data-part="11" data-kind="都市" transform="translate(49.5,134.9)"><circle class="pulse-ring" r="6"/><circle class="hit" r="16"/><circle class="dot" r="4"/></g><g class="marker m-city" data-part="12" data-kind="都市" transform="translate(94.3,155.2)"><circle class="pulse-ring" r="6"/><circle class="hit" r="16"/><circle class="dot" r="4"/></g><g class="marker m-city" data-part="13" data-kind="都市" transform="translate(102.4,165.3)"><circle class="pulse-ring" r="6"/><circle class="hit" r="16"/><circle class="dot" r="4"/></g><g class="marker m-city" data-part="14" data-kind="都市" transform="translate(65.8,173.3)"><circle class="pulse-ring" r="6"/><circle class="hit" r="16"/><circle class="dot" r="4"/></g><g class="marker m-city" data-part="15" data-kind="都市" transform="translate(164.8,204.7)"><circle class="pulse-ring" r="6"/><circle class="hit" r="16"/><circle class="dot" r="4"/></g><g class="marker m-city" data-part="16" data-kind="都市" transform="translate(138.7,197.9)"><circle class="pulse-ring" r="6"/><circle class="hit" r="16"/><circle class="dot" r="4"/></g><g class="marker m-city" data-part="17" data-kind="都市" transform="translate(264.9,200.0)"><circle class="pulse-ring" r="6"/><circle class="hit" r="16"/><circle class="dot" r="4"/></g><g class="marker m-city" data-part="18" data-kind="都市" transform="translate(304.5,190.1)"><circle class="pulse-ring" r="6"/><circle class="hit" r="16"/><circle class="dot" r="4"/></g><g class="marker m-city" data-part="19" data-kind="都市" transform="translate(220.3,119.7)"><circle class="pulse-ring" r="6"/><circle class="hit" r="16"/><circle class="dot" r="4"/></g><g class="marker m-city" data-part="20" data-kind="都市" transform="translate(335.6,129.1)"><circle class="pulse-ring" r="6"/><circle class="hit" r="16"/><circle class="dot" r="4"/></g><g class="marker m-city" data-part="21" data-kind="都市" transform="translate(446.2,143.3)"><circle class="pulse-ring" r="6"/><circle class="hit" r="16"/><circle class="dot" r="4"/></g><g class="marker m-city" data-part="22" data-kind="都市" transform="translate(286.3,129.3)"><circle class="pulse-ring" r="6"/><circle class="hit" r="16"/><circle class="dot" r="4"/></g><g class="marker m-city" data-part="23" data-kind="都市" transform="translate(459.7,165.9)"><circle class="pulse-ring" r="6"/><circle class="hit" r="16"/><circle class="dot" r="4"/></g></g></svg>