<svg xmlns="http://www.w3.org/2000/svg" viewBox="0 0 700 691" data-region="africa"><style>.land{fill:#eef1ec;stroke:#94a3ae;stroke-width:.7;vector-effect:non-scaling-stroke}.river{fill:none;stroke:#8db8da;stroke-width:1.3;stroke-linecap:round;vector-effect:non-scaling-stroke}.grid{stroke:#d3dae1;stroke-width:.5}.grid-q{stroke:#9aa7b5;stroke-width:1.1;stroke-dasharray:6 4}.marker .hit{fill:#000;fill-opacity:0;pointer-events:all}.marker .dot{fill:#3a3a3c;stroke:#fff;stroke-width:1.2}.m-city .dot{fill:#1c1c1e}.m-river .dot{fill:#2f6690}.m-sea .dot{fill:#fff;stroke:#5aa0c6;stroke-width:2}.m-strait .dot{fill:#1a5276;stroke:#fff;stroke-width:1}.m-mountain .dot{fill:#8a5a2f;stroke:#fff;stroke-width:1}.m-lake .dot{fill:#7ec8e3}.m-island .dot{fill:#3f9142}.m-grid .dot{fill:#8e8e93;stroke:#fff;stroke-width:1}.m-land .dot{fill:#c9a878}</style><g id="grid"><line class="grid" x1="0.0" y1="0" x2="0.0" y2="691"/><line class="grid" x1="46.7" y1="0" x2="46.7" y2="691"/><line class="grid" x1="93.3" y1="0" x2="93.3" y2="691"/><line class="grid" x1="140.0" y1="0" x2="140.0" y2="691"/><line class="grid" x1="186.7" y1="0" x2="186.7" y2="691"/><line class="grid" x1="233.3" y1="0" x2="233.3" y2="691"/><line class="grid" x1="280.0" y1="0" x2="280.0" y2="691"/><line class="grid" x1="326.7" y1="0" x2="326.7" y2="691"/><line class="grid" x1="373.3" y1="0" x2="373.3" y2="691"/><line class="grid" x1="420.0" y1="0" x2="420.0" y2="691"/><line class="grid" x1="466.7" y1="0" x2="466.7" y2="691"/><line class="grid" x1="513.3" y1="0" x2="513.3" y2="691"/><line class="grid" x1="560.0" y1="0" x2="560.0" y2="691"/><line class="grid" x1="606.7" y1="0" x2="606.7" y2="691"/><line class="grid" x1="653.3" y1="0" x2="653.3" y2="691"/><line class="grid" x1="700.0" y1="0" x2="700.0" y2="691"/><line class="grid" x1="0" y1="681.3" x2="700" y2="681.3"/><line class="grid" x1="0" y1="634.7" x2="700" y2="634.7"/><line class="grid" x1="0" y1="588.0" x2="700" y2="588.0"/><line class="grid" x1="0" y1="541.3" x2="700" y2="541.3"/><line class="grid" x1="0" y1="494.7" x2="700" y2="494.7"/><line class="grid" x1="0" y1="448.0" x2="700" y2="448.0"/><line class="grid" x1="0" y1="401.3" x2="700" y2="401.3"/><line class="grid" x1="0" y1="354.7" x2="700" y2="354.7"/><line class="grid" x1="0" y1="308.0" x2="700" y2="308.0"/><line class="grid" x1="0" y1="261.3" x2="700" y2="261.3"/><line class="grid" x1="0" y1="214.7" x2="700" y2="214.7"/><line class="grid" x1="0" y1="168.0" x2="700" y2="168.0"/><line class="grid" x1="0" y1="121.3" x2="700" y2="121.3"/><line class="grid" x1="0" y1="74.7" x2="700" y2="74.7"/><line class="grid" x1="0" y1="28.0" x2="700" y2="28.0"/><line class="grid-q part-shape" data-part="あ" x1="0" y1="354.7" x2="700" y2="354.7"/><line class="grid-q part-shape" data-part="い" x1="186.7" y1="0" x2="186.7" y2="691"/><line class="grid-q part-shape" data-part="う" x1="466.7" y1="0" x2="466.7" y2="691"/></g><g id="land"><path class="land" fill-rule="evenodd" d="M321.1,409.7L338.9,409.4L341.0,410.3L342.5,412.2L342.9,416.4L345.2,422.4L350.7,430.3L354.7,430.3L359.9,428.7L367.2,429.0L368.9,421.3L372.2,419.9L378.8,419.3L378.3,421.7L379.0,422.6L390.2,423.1L389.9,428.1L391.1,435.8L390.3,443.0L394.6,450.4L394.1,458.5L394.9,459.2L397.2,457.9L409.1,457.5L410.4,456.1L410.6,457.4L410.6,469.9L409.6,474.1L410.3,475.9L391.8,476.0L392.4,506.5L393.4,509.6L404.9,519.3L386.6,522.7L380.3,522.9L377.0,521.6L363.6,520.8L358.4,517.1L317.5,517.1L312.4,513.7L308.9,513.0L303.8,515.3L298.8,514.9L296.3,515.7L297.0,510.6L296.3,502.4L298.8,499.5L303.8,480.1L307.0,476.3L307.8,473.9L311.9,471.5L313.6,469.3L315.3,464.9L315.9,457.8L308.0,439.1L311.4,435.7L311.5,432.8L306.7,422.2L306.4,419.6L301.3,411.8L308.6,409.4L321.1,409.7Z"/><path class="land" fill-rule="evenodd" d="M304.7,397.0L306.6,396.0L308.7,397.9L302.9,402.0L303.4,407.8L300.7,408.4L300.3,404.4L298.8,401.4L302.3,397.8L304.7,397.0Z"/><path class="land" fill-rule="evenodd" d="M690.0,129.0L687.3,129.1L689.1,128.2L690.0,129.0Z"/><path class="land" fill-rule="evenodd" d="M677.8,128.0L677.9,127.2L677.8,128.0Z"/><path class="land" fill-rule="evenodd" d="M684.4,128.3L683.1,128.0L685.2,126.8L684.4,128.3Z"/><path class="land" fill-rule="evenodd" d="M695.0,126.5L693.8,126.3L695.0,126.5Z"/><path class="land" fill-rule="evenodd" d="M700.0,143.4L677.2,140.6L668.2,129.9L668.0,128.3L668.3,127.5L669.8,128.3L671.1,130.8L674.3,130.7L678.1,129.2L689.7,129.9L694.4,128.1L696.8,124.0L700.0,121.5Z"/><path class="land" fill-rule="evenodd" d="M471.8,377.1L470.6,379.3L470.7,381.5L473.9,382.5L474.0,385.2L470.6,388.2L466.2,394.9L464.0,396.3L461.1,396.2L459.3,390.4L459.4,383.2L457.5,380.8L457.9,379.0L460.1,379.6L461.0,380.9L463.8,380.8L465.4,380.0L466.0,376.5L467.8,377.2L470.5,376.3L471.8,377.1Z"/><path class="land" fill-rule="evenodd" d="M220.2,245.5L219.2,248.3L221.4,251.3L222.5,255.7L221.9,257.4L220.1,258.6L220.7,259.8L219.9,262.2L218.0,263.1L215.9,266.5L215.1,269.9L212.6,270.2L211.9,295.2L201.8,296.6L203.3,295.9L201.0,289.4L201.8,289.4L201.6,270.2L199.6,267.3L199.1,261.4L193.9,258.0L194.0,254.7L195.1,252.1L200.0,247.8L205.2,248.1L208.7,244.2L208.7,240.6L212.8,239.1L220.2,245.5Z"/><path class="land" fill-rule="evenodd" d="M209.0,243.6L205.2,248.1L200.0,247.8L195.3,252.1L191.3,252.4L183.9,250.4L180.8,252.7L176.9,251.9L160.3,252.0L159.5,255.8L160.7,257.6L161.5,266.2L160.8,266.7L156.6,262.3L151.3,262.1L146.2,264.6L143.5,264.0L140.3,262.0L139.1,259.1L135.1,257.4L135.4,251.6L136.8,250.8L137.7,248.5L137.3,244.3L142.8,242.0L145.3,239.5L144.8,236.4L147.2,235.3L146.3,232.2L147.9,230.5L149.8,229.6L153.7,231.6L155.9,230.7L156.3,227.2L159.1,227.3L159.8,224.5L162.5,221.9L166.9,222.4L168.3,219.7L170.8,219.3L180.4,214.0L184.5,214.1L188.7,215.5L188.2,219.4L190.2,221.7L190.7,224.3L192.4,226.8L197.9,230.0L195.9,229.9L195.9,232.9L201.3,236.7L206.3,236.1L207.4,238.3L206.0,239.8L209.0,243.6Z"/><path class="land" fill-rule="evenodd" d="M659.0,113.1L658.7,113.8L657.7,112.3L657.7,109.9L658.8,109.8L659.0,113.1Z"/><path class="land" fill-rule="evenodd" d="M422.4,520.7L422.3,522.4L428.8,531.4L430.9,537.0L440.3,542.3L441.3,545.8L445.2,546.3L444.9,551.3L448.1,555.8L457.6,558.1L457.7,560.2L460.7,561.8L458.5,562.0L455.8,564.5L450.0,566.5L445.7,571.2L439.5,574.7L437.1,580.9L433.0,584.4L428.5,585.6L425.4,593.7L424.1,594.7L417.6,595.6L413.8,594.9L405.0,590.7L402.7,590.7L400.2,592.3L397.6,598.6L389.2,605.2L379.7,605.0L379.2,601.5L380.9,598.9L380.7,596.5L377.4,589.4L373.2,585.9L373.1,560.0L382.4,560.0L382.4,525.6L403.4,522.7L406.9,527.0L412.9,522.9L415.6,523.2L419.2,521.0L422.4,520.7Z"/><path class="land" fill-rule="evenodd" d="M400.0,252.7L407.4,263.0L407.1,267.5L405.7,269.6L406.3,272.4L412.5,273.9L413.4,277.3L418.6,278.7L421.9,281.8L421.8,284.5L432.7,292.7L432.2,294.4L434.1,298.0L440.0,301.3L441.1,305.3L442.4,307.0L439.3,306.1L437.0,307.4L424.9,305.1L422.3,307.8L420.6,308.3L413.7,308.1L405.2,311.1L400.1,310.6L395.9,316.1L378.5,313.0L375.4,309.6L371.5,307.2L368.7,306.8L364.6,309.0L360.2,314.1L360.4,322.2L359.1,320.9L356.2,322.0L349.9,320.3L341.7,321.9L340.4,328.2L337.7,333.5L336.6,327.5L327.9,318.9L327.0,317.2L327.9,317.0L327.3,314.7L324.2,311.7L322.6,305.4L323.1,299.9L321.4,297.9L324.2,296.1L329.0,286.9L331.1,284.4L335.6,284.6L339.5,283.0L341.1,281.3L343.3,284.2L351.4,280.2L359.9,279.6L365.0,273.9L362.9,272.2L363.6,271.2L376.5,269.5L380.6,266.9L385.1,261.6L389.0,258.6L389.9,255.3L396.6,252.0L400.0,252.7Z"/><path class="land" fill-rule="evenodd" d="M135.1,257.4L139.1,259.1L140.3,262.0L143.5,264.0L146.2,264.6L151.3,262.1L156.6,262.3L160.4,266.7L161.5,266.2L161.0,270.2L162.4,272.5L163.3,278.1L160.6,280.6L156.4,292.6L158.7,301.4L160.6,302.4L160.6,306.3L158.5,306.8L157.1,306.1L156.8,304.7L155.4,306.8L148.2,305.1L143.7,305.8L149.0,305.9L140.9,306.7L137.4,306.0L136.6,306.6L139.4,306.8L131.5,307.9L116.2,314.1L115.8,309.7L117.3,305.0L117.1,300.1L113.9,298.9L113.0,296.5L106.4,293.9L108.9,291.2L109.2,289.5L107.5,284.1L109.8,284.1L111.9,279.3L109.6,277.6L109.8,275.7L115.0,276.2L114.6,274.0L112.5,272.7L112.6,270.9L114.1,269.9L112.8,268.9L113.0,266.8L110.7,266.0L110.6,261.6L115.2,257.3L116.7,257.2L117.9,258.9L121.4,259.9L121.8,258.1L124.2,258.1L124.6,255.2L126.7,256.1L126.7,255.1L128.3,254.6L128.4,258.9L129.6,259.4L132.1,257.7L135.1,257.4Z"/><path class="land" fill-rule="evenodd" d="M157.9,306.8L156.4,306.9L157.9,306.8Z"/><path class="land" fill-rule="evenodd" d="M331.1,284.4L328.6,287.4L324.2,296.1L321.4,298.3L323.1,299.9L322.6,305.4L324.0,311.1L327.3,314.7L327.9,316.7L327.2,317.8L336.6,327.5L337.7,333.5L336.6,335.8L337.3,338.6L336.6,339.0L332.3,336.5L325.8,335.9L322.7,334.1L310.7,334.5L310.1,333.6L302.0,333.2L292.6,333.2L292.4,334.4L279.8,334.4L278.5,333.7L279.5,325.9L276.9,321.6L277.8,320.8L276.7,321.0L275.9,319.2L277.6,318.7L276.6,317.7L277.1,316.8L275.2,316.7L275.0,317.9L273.6,317.9L270.7,316.5L269.9,312.2L267.5,311.1L267.5,312.5L266.4,312.0L270.1,300.7L277.9,291.6L281.3,289.4L281.9,290.3L283.9,290.5L285.7,288.7L289.4,291.8L290.8,294.6L293.8,293.1L294.7,290.4L297.4,288.2L296.5,286.8L298.8,283.8L300.8,277.4L302.4,274.4L304.1,274.2L306.0,272.4L307.3,266.7L309.9,265.4L310.5,261.0L311.9,259.7L314.5,253.2L317.2,250.0L322.7,247.0L323.1,241.3L322.2,239.9L319.2,239.1L317.9,232.6L321.6,233.1L325.2,238.0L327.4,244.1L326.9,250.9L327.9,255.3L329.2,258.0L332.8,261.3L319.6,261.5L317.1,264.2L320.4,268.8L327.8,274.8L331.8,282.0L331.1,284.4Z"/><path class="land" fill-rule="evenodd" d="M410.4,456.1L409.1,457.5L397.2,457.9L394.9,459.2L394.1,458.5L394.6,450.4L390.3,443.0L391.1,435.8L390.0,422.9L379.0,422.6L378.3,421.7L378.8,419.3L372.2,419.9L368.9,421.3L367.2,429.0L359.9,428.7L354.7,430.3L350.7,430.3L345.2,422.4L342.9,416.4L342.5,412.2L340.0,409.7L308.0,409.1L303.5,410.7L300.7,408.4L303.4,407.8L302.9,402.0L306.4,398.9L309.3,397.6L311.9,399.8L314.2,398.7L314.7,396.2L316.8,396.5L320.7,394.8L321.5,396.2L320.7,397.5L321.2,399.8L323.9,400.2L329.2,394.9L335.9,389.8L338.0,382.9L338.0,375.0L341.0,371.8L344.2,366.1L347.9,364.0L352.4,359.8L355.3,335.9L360.5,323.8L360.2,314.1L364.6,309.0L368.7,306.8L371.5,307.2L375.4,309.6L378.5,313.0L395.9,316.1L400.1,310.6L405.2,311.1L413.7,308.1L420.6,308.3L422.3,307.8L424.9,305.1L437.0,307.4L439.3,306.1L442.4,307.0L446.5,311.8L451.4,314.4L454.8,312.6L459.4,313.7L462.5,311.4L468.5,317.5L471.4,318.9L472.1,320.8L473.7,320.8L475.0,322.3L473.7,326.3L474.6,327.7L473.5,331.7L475.6,332.2L478.6,334.6L475.5,339.0L466.1,347.0L466.1,350.0L464.0,353.7L462.7,367.6L459.2,370.7L458.6,375.2L456.0,377.5L456.6,379.7L459.4,383.2L459.3,390.4L461.1,396.2L460.4,400.4L463.0,408.1L461.8,410.9L462.4,413.6L464.0,416.4L468.7,420.4L473.7,431.1L456.4,433.9L456.1,436.7L451.7,440.8L453.6,445.0L454.0,453.1L451.6,462.6L452.5,464.9L457.9,469.9L461.9,470.6L462.1,468.8L464.8,468.1L464.6,480.1L462.5,478.3L459.2,479.7L457.5,479.4L454.8,475.3L453.1,474.5L451.9,471.5L444.0,468.8L440.2,462.7L437.0,466.3L429.6,465.6L423.3,463.1L422.7,459.3L414.2,461.2L414.1,458.5L410.4,456.1Z"/><path class="land" fill-rule="evenodd" d="M308.7,397.9L306.1,396.0L302.3,397.8L298.8,401.4L296.6,397.3L290.5,391.2L291.5,389.1L294.0,387.5L295.7,389.0L297.5,388.9L297.1,387.6L298.1,385.6L296.0,384.3L296.4,382.5L294.4,381.1L295.0,376.5L299.3,377.2L302.8,376.4L302.7,372.7L304.2,371.7L306.1,372.7L307.9,376.3L312.3,377.0L314.8,374.6L316.3,377.7L317.3,377.9L319.2,376.6L318.9,375.4L320.9,372.3L321.8,360.0L316.0,356.6L316.9,351.4L318.2,349.7L320.4,348.8L321.3,346.3L319.0,341.9L315.9,341.4L310.0,343.0L309.6,338.0L310.7,334.5L322.7,334.1L325.8,335.9L333.6,336.8L336.6,339.0L337.3,338.6L336.7,335.0L340.4,328.2L341.7,321.9L349.4,320.3L356.2,322.0L359.1,320.9L360.5,323.8L355.3,335.9L352.4,359.8L347.9,364.0L344.2,366.1L341.0,371.8L338.0,375.0L338.0,382.9L335.9,389.8L329.2,394.9L323.9,400.2L321.2,399.8L320.7,397.5L321.5,396.2L320.7,394.8L316.8,396.5L314.7,396.2L314.2,398.7L311.9,399.8L308.7,397.9Z"/><path class="land" fill-rule="evenodd" d="M595.4,469.5L596.0,470.1L594.2,469.9L593.9,469.0L595.4,469.5Z"/><path class="land" fill-rule="evenodd" d="M601.8,467.4L602.0,470.0L599.4,468.3L601.8,467.4Z"/><path class="land" fill-rule="evenodd" d="M592.3,465.7L590.1,464.4L590.8,460.8L591.7,461.1L592.3,465.7Z"/><path class="land" fill-rule="evenodd" d="M504.0,27.4L499.1,28.0L498.2,26.5L493.9,27.2L492.0,26.4L493.5,26.3L494.1,24.4L500.3,24.7L509.2,21.8L503.5,25.3L504.0,27.4Z"/><path class="land" fill-rule="evenodd" d="M492.0,26.4L493.9,27.2L498.2,26.5L499.1,28.0L502.8,27.1L504.5,28.1L501.2,28.3L494.1,32.0L489.5,30.5L488.3,28.4L488.1,27.2L492.0,26.4Z"/><path class="land" fill-rule="evenodd" d="M590.3,247.3L587.3,252.0L583.9,251.2L576.8,252.2L576.7,245.6L582.9,237.8L585.2,239.1L586.7,236.9L589.1,236.1L591.3,239.2L591.5,241.8L584.6,246.8L583.5,246.7L584.1,247.4L588.4,246.5L590.3,247.3Z"/><path class="land" fill-rule="evenodd" d="M264.2,27.2L263.1,31.3L256.8,36.6L256.7,38.9L258.8,44.2L262.4,46.2L264.4,50.9L271.1,55.3L275.5,72.5L273.6,73.6L276.6,78.1L278.2,82.3L279.2,95.3L277.6,99.6L278.9,106.1L275.3,108.9L274.6,110.6L280.0,118.2L280.3,120.9L282.4,125.2L283.7,126.1L286.4,125.5L294.1,127.7L298.4,135.2L256.5,159.9L240.3,173.3L217.1,177.2L215.7,175.9L217.1,173.5L215.9,169.4L209.1,167.4L207.4,165.7L203.0,164.9L201.7,162.8L197.5,160.4L197.4,157.7L144.5,123.2L105.6,100.0L105.7,86.9L109.5,84.2L120.0,78.2L124.7,78.7L126.2,76.3L135.8,75.1L140.3,70.3L149.5,66.1L152.4,65.7L152.8,64.7L150.9,63.5L150.8,59.5L151.5,58.9L158.5,57.5L159.9,55.3L175.2,55.0L175.1,52.8L176.7,51.6L173.1,48.7L171.0,43.7L171.4,41.4L169.9,33.9L170.5,33.0L169.4,31.7L169.9,30.3L166.0,27.0L171.0,26.3L176.5,22.6L182.7,20.0L186.2,20.2L189.6,17.2L198.4,13.8L210.9,13.1L214.4,11.3L219.5,11.2L221.9,10.3L231.1,10.3L236.1,12.6L247.2,8.5L251.3,10.1L254.2,9.6L253.9,8.5L260.5,10.7L266.7,9.9L266.9,10.9L263.3,13.8L264.6,15.2L263.6,19.9L265.0,26.1L264.2,27.2Z"/><path class="land" fill-rule="evenodd" d="M506.3,63.4L512.4,79.5L510.9,81.5L507.7,93.2L506.1,95.5L501.8,92.9L497.0,88.0L495.9,84.2L492.1,79.1L490.6,74.9L488.7,78.1L490.9,81.0L491.2,84.1L493.7,88.1L499.8,94.3L499.8,97.0L502.6,100.9L503.6,105.9L515.1,126.2L520.6,131.2L518.4,131.4L518.0,132.7L519.8,140.5L521.9,142.4L524.8,143.5L530.8,149.4L480.1,149.4L480.5,148.0L479.7,147.4L478.0,149.4L419.8,149.4L419.8,82.3L417.2,72.8L419.6,68.3L418.6,62.2L421.0,59.5L423.6,60.5L428.3,59.5L441.0,61.8L443.7,63.3L452.8,64.9L458.0,66.9L466.0,63.2L468.7,62.9L470.4,61.1L475.3,60.0L471.9,61.4L476.0,61.0L476.8,59.7L480.9,61.1L484.3,60.3L486.6,62.2L484.3,60.8L483.2,62.6L486.3,64.5L488.0,63.5L487.4,62.6L491.0,64.7L495.9,63.8L496.5,64.5L500.9,64.1L505.8,62.3L506.3,63.4Z"/><path class="land" fill-rule="evenodd" d="M589.1,236.1L586.7,236.9L585.2,239.1L583.1,237.9L582.2,238.3L567.7,223.0L561.3,219.7L555.6,219.0L552.5,219.5L550.9,218.1L548.9,219.5L545.4,220.0L540.3,216.0L537.3,222.6L534.4,219.8L532.2,221.5L527.6,221.6L526.6,213.4L531.2,202.6L531.0,199.5L532.1,195.5L535.8,195.4L537.1,193.0L543.7,190.5L547.0,186.6L551.0,195.2L553.5,206.1L558.0,213.5L558.7,210.3L561.9,214.5L571.0,218.2L575.5,224.2L581.0,227.8L582.4,231.3L583.5,231.3L586.1,234.6L587.7,235.1L588.0,234.3L589.1,236.1Z"/><path class="land" fill-rule="evenodd" d="M561.3,208.2L563.7,209.3L559.8,209.0L559.5,208.2L560.7,208.4L559.4,207.7L559.6,206.4L560.9,206.8L561.3,208.2Z"/><path class="land" fill-rule="evenodd" d="M560.7,204.6L561.0,205.5L560.0,204.9L560.7,204.6Z"/><path class="land" fill-rule="evenodd" d="M180.3,0.0L179.0,2.7L179.9,3.4L174.3,4.1L171.4,5.7L166.2,11.7L163.8,10.9L160.6,12.0L145.9,12.0L143.0,13.9L138.4,14.7L136.6,17.4L134.2,18.4L130.3,16.9L128.2,13.1L127.1,12.7L126.8,11.9L128.6,10.1L127.0,10.9L122.4,7.5L122.6,6.7L117.5,7.7L116.6,3.9L119.5,0.0Z"/><path class="land" fill-rule="evenodd" d="M19.7,95.1L18.8,96.6L17.2,95.6L19.7,95.1Z"/><path class="land" fill-rule="evenodd" d="M42.9,92.0L42.6,95.1L40.5,95.6L39.1,94.4L40.3,91.9L42.9,92.0Z"/><path class="land" fill-rule="evenodd" d="M26.3,93.1L25.0,92.2L25.6,91.4L27.0,92.3L26.3,93.1Z"/><path class="land part-shape" data-part="け" fill-rule="evenodd" d="M34.2,89.8L33.4,91.9L31.2,93.3L28.9,90.2L36.2,88.0L34.2,89.8Z"/><path class="land" fill-rule="evenodd" d="M54.2,91.8L52.9,92.8L51.4,92.4L53.8,91.3L56.0,86.7L57.3,86.4L56.7,91.0L54.2,91.8Z"/><path class="land" fill-rule="evenodd" d="M20.2,88.7L18.7,86.3L19.3,85.5L20.6,85.4L21.2,86.6L20.2,88.7Z"/><path class="land" fill-rule="evenodd" d="M58.7,84.8L57.3,85.2L58.0,83.5L61.0,81.8L60.9,83.9L58.7,84.8Z"/><path class="land" fill-rule="evenodd" d="M582.2,238.3L576.7,245.6L576.8,252.2L583.9,251.2L587.3,252.0L584.8,255.7L586.5,259.4L589.7,262.5L592.5,267.1L597.5,270.8L625.1,280.0L634.5,280.0L606.1,308.8L597.2,308.5L593.4,309.4L589.2,311.3L586.7,314.3L578.9,316.0L577.6,317.5L570.6,317.7L567.1,314.8L558.5,318.7L555.3,322.4L542.1,320.6L531.1,313.5L522.5,312.6L520.5,309.8L520.7,305.4L515.8,304.2L513.2,300.0L510.6,292.5L504.6,287.2L503.1,284.6L494.7,280.9L497.3,275.9L503.6,275.9L504.9,274.6L504.7,265.9L506.9,259.6L506.6,256.4L509.3,253.1L511.2,254.4L512.7,253.3L514.4,244.4L519.6,236.8L523.7,235.9L527.6,221.6L532.2,221.5L534.4,219.8L537.3,222.6L540.3,216.0L545.4,220.0L548.9,219.5L550.9,218.1L552.5,219.5L555.6,219.0L561.3,219.7L567.7,223.0L582.2,238.3Z"/><path class="land" fill-rule="evenodd" d="M608.3,475.8L607.3,475.0L607.5,472.8L608.7,473.7L608.3,475.8Z"/><path class="land" fill-rule="evenodd" d="M292.4,334.4L292.6,333.2L310.1,333.6L310.7,334.5L309.6,338.0L310.0,343.0L315.9,341.4L319.6,342.3L321.4,347.1L316.9,351.4L316.0,356.6L321.8,360.0L321.6,367.9L320.9,372.3L319.7,373.3L319.2,376.6L318.1,377.7L316.3,377.7L314.8,374.6L312.3,377.0L307.9,376.3L306.1,372.7L304.2,371.7L302.7,372.7L302.8,376.4L299.3,377.2L294.7,376.7L294.4,381.1L296.4,382.5L296.0,384.3L298.1,385.6L297.1,387.6L297.5,388.9L295.7,389.0L294.0,387.5L291.5,389.1L290.5,391.2L283.2,382.8L277.4,377.7L280.6,378.5L276.5,376.8L273.5,372.4L275.2,373.0L275.2,372.3L273.1,371.7L271.0,366.9L273.6,369.9L275.3,369.2L273.4,368.8L273.9,367.0L272.6,367.6L271.3,366.8L267.9,360.2L269.0,361.3L270.2,361.1L273.4,357.9L274.0,351.5L275.0,353.2L278.1,354.3L280.0,352.8L275.8,351.9L273.7,349.5L275.3,348.5L276.4,349.3L276.2,345.0L277.8,344.6L279.1,345.7L292.5,345.3L292.4,334.4Z"/><path class="land" fill-rule="evenodd" d="M161.5,266.2L160.6,257.3L159.5,255.8L160.3,252.0L176.9,251.9L180.8,252.7L183.9,250.4L186.6,251.5L185.9,255.1L190.2,258.6L189.1,264.6L189.9,265.0L188.8,266.3L190.8,266.2L191.6,267.3L191.2,272.1L190.2,273.3L193.1,276.7L191.3,284.2L192.6,286.0L191.6,290.7L193.5,294.4L197.7,297.3L195.5,300.4L189.1,300.9L168.0,310.2L157.6,307.2L160.4,306.6L160.9,304.7L160.6,302.4L158.7,301.4L156.4,292.6L160.6,280.6L163.3,278.1L162.4,272.5L161.0,270.2L161.5,266.2Z"/><path class="land" fill-rule="evenodd" d="M112.1,259.8L110.6,261.6L110.7,266.0L113.0,266.8L112.8,268.9L114.1,269.9L112.6,270.9L112.5,272.7L114.6,274.0L115.0,276.2L110.0,275.5L109.6,277.6L111.9,279.3L110.1,283.8L107.5,284.1L105.8,282.9L103.7,286.9L101.6,287.3L100.2,285.8L98.3,285.5L99.2,282.8L97.8,276.8L96.5,275.6L90.0,275.4L88.1,277.1L86.7,276.9L88.7,273.6L87.6,270.1L86.4,269.8L86.9,267.7L82.1,261.5L70.7,262.3L65.1,269.7L62.6,270.2L62.8,269.1L61.3,266.7L58.9,265.7L58.9,262.0L57.7,262.4L55.6,260.0L52.0,259.0L50.3,256.2L50.5,254.2L49.7,254.9L48.8,252.6L47.7,252.3L46.6,253.8L46.3,252.6L49.6,247.3L58.5,245.1L58.4,242.6L56.5,241.0L58.7,239.7L58.5,236.4L64.6,236.8L64.8,238.1L66.0,237.7L70.9,239.5L80.4,238.9L79.3,240.8L81.2,242.5L84.6,240.8L86.7,243.6L90.8,240.7L96.0,242.3L99.3,240.3L99.0,238.3L100.7,238.2L102.7,239.4L104.4,243.4L104.3,245.7L108.2,248.4L105.8,251.9L108.9,252.1L109.5,256.8L111.9,258.3L112.1,259.8Z"/><path class="land" fill-rule="evenodd" d="M30.2,232.7L29.6,230.2L31.1,228.9L33.5,230.8L42.7,229.0L36.1,229.1L34.0,230.1L32.1,227.9L41.9,227.9L42.7,226.5L45.7,225.8L52.2,228.6L56.2,228.3L57.6,229.5L53.7,231.1L45.3,228.1L44.0,229.6L39.1,230.3L38.9,231.9L31.3,231.9L30.2,232.7Z"/><path class="land" fill-rule="evenodd" d="M58.5,236.4L58.7,239.7L56.5,241.0L58.4,242.6L58.5,245.1L49.6,247.3L46.3,252.6L46.2,250.7L44.6,251.7L44.6,250.5L43.0,250.0L43.4,248.3L42.2,248.2L46.0,246.4L44.5,245.6L42.8,246.3L42.0,245.2L42.3,244.1L45.9,243.0L37.9,244.7L38.1,243.2L36.0,243.4L34.3,242.2L35.1,240.5L33.3,240.8L30.7,239.4L41.3,238.1L44.8,236.3L58.5,236.4Z"/><path class="land" fill-rule="evenodd" d="M38.3,251.2L37.7,251.4L37.9,250.2L38.3,251.2Z"/><path class="land" fill-rule="evenodd" d="M36.3,251.4L35.1,250.9L36.7,250.2L36.3,251.4Z"/><path class="land" fill-rule="evenodd" d="M39.9,250.0L40.5,249.3L39.9,250.0Z"/><path class="land" fill-rule="evenodd" d="M38.2,247.7L37.1,247.5L37.7,246.4L38.2,247.7Z"/><path class="land" fill-rule="evenodd" d="M41.5,247.0L40.9,247.0L42.2,246.1L41.5,247.0Z"/><path class="land" fill-rule="evenodd" d="M37.5,243.8L37.0,244.9L35.9,243.8L37.5,243.8Z"/><path class="land" fill-rule="evenodd" d="M278.1,333.2L279.8,334.4L292.4,334.4L292.5,345.3L279.1,345.7L274.3,344.0L278.2,336.7L278.1,333.2Z"/><path class="land" fill-rule="evenodd" d="M268.2,319.6L269.8,319.6L270.2,320.8L267.9,324.6L265.8,324.2L265.7,322.5L268.2,319.6Z"/><path class="land" fill-rule="evenodd" d="M411.0,0.0L410.9,3.0L406.9,0.0L401.8,0.9L403.2,3.5L405.0,3.9L405.9,5.2L402.8,6.2L401.5,4.8L398.8,4.3L402.8,14.5L398.7,11.3L397.7,11.4L396.6,14.5L396.0,14.2L395.5,12.1L392.8,9.1L391.6,9.4L391.0,11.8L388.1,8.6L389.0,5.7L383.8,1.0L385.2,0.0L400.6,0.0Z"/><path class="land" fill-rule="evenodd" d="M409.3,23.0L412.2,22.4L411.7,23.4L414.0,24.6L417.4,24.0L426.8,24.7L427.4,26.9L432.3,25.1L430.9,27.8L418.1,28.6L417.3,27.2L415.0,26.5L406.9,25.6L406.7,23.0L407.6,23.2L408.2,21.9L409.3,23.0Z"/><path class="land" fill-rule="evenodd" d="M440.3,23.7L440.0,24.2L439.3,22.4L440.7,20.3L440.3,23.7Z"/><path class="land" fill-rule="evenodd" d="M401.8,16.9L400.5,16.6L400.9,15.1L402.2,16.4L401.8,16.9Z"/><path class="land" fill-rule="evenodd" d="M446.5,19.3L445.3,19.1L445.4,17.1L447.2,15.4L450.2,14.6L448.8,18.1L446.5,19.3Z"/><path class="land" fill-rule="evenodd" d="M424.5,15.0L423.5,15.3L423.8,14.2L424.5,15.0Z"/><path class="land" fill-rule="evenodd" d="M433.6,13.2L431.9,13.6L432.8,12.7L433.6,13.2Z"/><path class="land" fill-rule="evenodd" d="M446.7,13.5L446.0,13.0L446.7,12.7L446.7,13.5Z"/><path class="land" fill-rule="evenodd" d="M415.7,11.5L415.6,12.3L413.7,12.5L414.0,11.7L415.7,11.5Z"/><path class="land" fill-rule="evenodd" d="M423.6,12.4L422.4,11.6L423.6,12.4Z"/><path class="land" fill-rule="evenodd" d="M438.2,11.9L440.7,10.3L442.0,10.6L438.2,11.9Z"/><path class="land" fill-rule="evenodd" d="M428.0,11.3L426.9,11.3L429.9,10.2L428.0,11.3Z"/><path class="land" fill-rule="evenodd" d="M417.4,10.1L417.0,9.1L417.4,10.1Z"/><path class="land" fill-rule="evenodd" d="M438.9,9.7L437.9,9.8L437.6,8.5L438.9,9.7Z"/><path class="land" fill-rule="evenodd" d="M422.6,8.7L421.0,9.0L422.2,7.9L422.6,8.7Z"/><path class="land" fill-rule="evenodd" d="M425.1,9.6L424.3,10.0L423.4,8.7L424.9,7.5L425.1,9.6Z"/><path class="land" fill-rule="evenodd" d="M415.6,8.2L414.8,7.6L415.6,8.2Z"/><path class="land" fill-rule="evenodd" d="M414.7,6.1L414.2,6.4L414.7,4.9L414.7,6.1Z"/><path class="land" fill-rule="evenodd" d="M419.5,4.7L419.2,5.7L419.5,4.7Z"/><path class="land" fill-rule="evenodd" d="M423.8,5.4L422.9,4.8L424.3,4.9L423.8,5.4Z"/><path class="land" fill-rule="evenodd" d="M429.6,4.4L430.1,3.4L432.6,3.0L429.6,4.4Z"/><path class="land" fill-rule="evenodd" d="M422.4,3.7L421.5,4.2L420.0,3.0L422.4,3.7Z"/><path class="land" fill-rule="evenodd" d="M414.0,3.9L413.4,4.4L414.2,3.0L414.0,3.9Z"/><path class="land" fill-rule="evenodd" d="M437.0,1.8L439.2,2.7L437.2,3.3L434.8,2.6L437.0,1.8Z"/><path class="land" fill-rule="evenodd" d="M381.6,1.8L382.6,2.7L381.0,3.1L379.1,1.4L379.8,0.7L381.6,1.8Z"/><path class="land" fill-rule="evenodd" d="M419.9,2.2L419.6,2.9L417.2,0.4L419.6,0.9L419.9,2.2Z"/><path class="land" fill-rule="evenodd" d="M406.5,0.7L405.2,0.6L406.5,0.7Z"/><path class="land" fill-rule="evenodd" d="M700.0,106.2L696.7,107.2L693.0,105.5L687.9,105.2L678.5,99.6L676.4,96.9L672.3,95.0L667.5,94.2L665.3,92.1L663.2,86.6L661.4,85.2L661.5,83.4L659.6,82.6L659.4,80.1L654.9,75.4L654.0,72.8L649.2,74.4L644.0,71.2L645.8,71.2L646.1,70.3L644.0,69.9L643.0,71.6L643.2,73.5L639.8,75.0L637.8,72.0L634.8,70.3L634.8,65.4L631.7,65.3L631.7,61.6L633.1,57.9L628.8,52.0L626.5,51.6L619.5,47.3L617.1,47.1L617.4,44.5L616.2,42.8L610.4,37.6L611.7,35.3L610.8,33.5L611.3,31.9L612.6,32.0L613.0,29.9L617.2,26.8L616.0,22.3L618.6,20.8L613.9,20.3L610.0,18.5L608.9,15.3L607.4,14.7L606.8,12.1L605.6,11.2L604.7,6.6L602.7,5.3L602.8,2.7L599.3,0.9L599.6,0.0L643.3,0.0L645.6,3.7L654.6,5.5L656.5,7.9L662.0,11.1L669.8,12.9L688.5,10.0L689.9,10.0L687.7,10.7L690.4,11.0L689.9,6.1L697.2,4.9L700.0,1.4Z"/><path class="land" fill-rule="evenodd" d="M604.5,8.0L610.0,18.5L613.9,20.3L618.6,20.8L616.0,22.3L617.2,26.8L613.0,29.9L612.6,32.0L611.3,31.9L610.8,33.5L611.7,35.3L610.4,37.6L616.2,42.8L617.4,44.5L617.1,47.1L619.5,47.3L626.5,51.6L628.8,52.0L633.1,57.9L631.7,61.6L631.7,65.3L634.8,65.4L634.8,70.3L637.8,72.0L639.8,75.0L634.5,74.8L631.6,73.8L627.4,74.3L621.0,83.1L603.8,82.1L579.4,64.6L563.4,56.6L552.0,54.8L553.4,53.7L553.0,52.7L551.1,53.1L548.6,43.2L569.2,33.3L571.2,30.2L571.4,25.3L572.6,22.0L571.6,18.0L572.1,15.1L573.2,13.9L576.7,13.1L585.6,6.0L594.3,7.2L598.4,6.5L600.0,9.5L603.0,7.7L604.5,8.0Z"/><path class="land" fill-rule="evenodd" d="M512.4,79.5L506.3,63.4L508.9,60.4L508.5,59.9L510.3,57.0L514.3,45.9L517.2,46.0L521.4,42.6L521.9,47.1L520.7,49.1L518.7,50.0L518.5,52.3L515.1,51.0L513.9,51.7L512.9,54.5L513.0,57.6L515.2,58.3L512.9,59.7L512.2,61.9L517.5,60.9L517.4,64.1L514.6,70.7L514.7,73.3L512.4,79.5Z"/><path class="land" fill-rule="evenodd" d="M299.1,11.6L298.1,10.9L299.1,11.6Z"/><path class="land" fill-rule="evenodd" d="M330.6,0.0L327.6,5.1L329.4,8.8L327.7,10.8L327.7,12.2L322.0,11.2L319.8,8.9L315.5,8.1L307.3,4.0L304.6,3.8L302.7,1.7L303.5,0.0L316.0,0.0Z"/><path class="land" fill-rule="evenodd" d="M548.6,43.2L551.1,53.1L553.0,52.7L553.4,53.7L550.3,56.0L531.6,60.7L541.1,70.0L538.1,71.6L536.4,74.7L529.2,76.2L527.1,79.4L523.3,82.1L512.9,80.7L514.6,70.7L517.4,64.1L518.9,49.8L521.7,49.3L526.1,52.4L530.3,53.0L548.6,43.2Z"/><path class="land" fill-rule="evenodd" d="M515.8,303.4L516.4,304.6L520.3,304.8L520.5,309.8L522.9,313.0L531.1,313.5L542.1,320.6L555.3,322.4L558.5,318.7L567.1,314.8L570.6,317.7L577.6,317.5L569.0,328.4L569.1,362.8L574.3,370.5L571.8,372.8L568.3,373.6L568.4,375.9L566.0,378.4L563.8,378.5L562.1,379.8L561.1,385.0L558.7,388.0L555.2,396.5L552.7,398.5L537.7,387.3L538.0,383.1L503.1,364.0L503.5,353.0L508.5,344.9L511.5,343.1L513.1,338.1L512.5,331.5L508.2,325.1L508.1,320.6L505.5,319.1L503.8,315.3L515.8,303.4Z"/><path class="land" fill-rule="evenodd" d="M569.3,374.8L570.6,373.8L569.3,374.8Z"/><path class="land" fill-rule="evenodd" d="M621.0,83.1L626.7,74.7L632.4,74.0L634.5,74.8L636.0,78.7L634.4,78.2L632.1,80.3L635.1,80.7L638.8,88.3L631.6,88.4L629.4,84.1L621.0,83.1Z"/><path class="land" fill-rule="evenodd" d="M637.2,78.2L636.3,78.3L635.4,76.5L636.4,74.9L637.9,76.7L637.2,78.2Z"/><path class="land" fill-rule="evenodd" d="M521.4,42.6L517.2,46.0L514.3,45.9L519.4,35.0L522.4,31.5L526.2,31.2L525.7,32.7L527.4,33.3L528.1,35.3L525.3,38.0L526.1,38.8L522.5,39.6L522.1,40.4L523.0,41.2L521.4,42.6Z"/><path class="land" fill-rule="evenodd" d="M107.5,284.1L109.2,289.5L108.9,291.2L106.4,293.9L113.0,296.5L113.9,298.9L117.1,300.1L117.3,305.0L115.8,309.7L116.2,314.1L109.6,311.8L101.4,307.5L90.8,297.9L86.0,295.8L85.4,294.3L79.3,290.2L87.3,282.2L88.0,279.3L90.0,278.2L90.7,275.5L92.0,275.1L92.7,276.0L95.5,275.0L97.8,276.8L99.2,282.8L98.6,285.6L102.2,287.2L103.7,286.9L105.8,282.9L107.5,284.1Z"/><path class="land" fill-rule="evenodd" d="M298.4,135.2L294.1,127.7L286.4,125.5L283.7,126.1L282.4,125.2L280.3,120.9L280.0,118.2L274.6,110.6L275.3,108.9L278.9,106.1L277.6,99.6L279.2,95.3L278.2,82.3L276.6,78.1L273.6,73.6L279.0,71.1L282.0,67.4L281.1,61.0L282.6,58.9L294.0,52.1L294.0,45.0L301.3,48.0L305.7,48.5L310.6,47.5L328.3,52.3L330.0,54.5L331.3,59.2L333.3,61.4L353.1,66.0L360.9,70.8L365.2,72.2L370.7,70.1L374.4,65.7L374.7,63.5L372.6,57.7L374.5,54.0L379.1,50.6L388.6,47.3L393.7,47.4L402.2,50.2L402.3,52.9L404.0,54.0L408.8,54.5L411.9,55.9L418.9,56.1L420.2,57.1L421.4,59.2L418.6,62.2L419.6,68.3L417.2,72.8L419.8,82.3L419.8,168.0L410.5,168.0L410.5,172.7L335.9,135.8L319.5,143.6L312.5,138.3L298.4,135.2Z"/><path class="land" fill-rule="evenodd" d="M440.6,630.5L445.5,624.8L453.8,621.4L460.1,626.2L461.0,627.9L458.2,633.9L451.7,636.0L448.2,640.7L445.7,640.3L442.3,637.6L439.1,631.5L440.6,630.5Z"/><path class="land" fill-rule="evenodd" d="M166.0,27.0L169.9,30.3L169.4,31.7L170.5,33.0L169.9,33.9L171.4,41.4L171.0,43.7L173.1,48.7L176.7,51.6L175.1,52.8L175.2,55.0L159.9,55.3L158.5,57.5L151.5,58.9L150.8,59.5L150.9,63.5L152.8,64.7L152.4,65.7L149.5,66.1L140.3,70.3L135.8,75.1L126.2,76.3L124.7,78.7L120.0,78.2L109.5,84.2L105.7,86.9L105.6,96.5L104.4,96.5L104.6,101.5L98.8,101.8L95.0,104.1L91.0,104.0L86.3,102.5L80.3,103.8L80.8,106.1L77.3,111.0L74.1,112.1L70.6,122.9L65.4,126.3L62.4,130.8L57.0,133.6L55.1,139.1L53.9,146.4L50.1,150.6L49.0,154.0L28.0,154.7L28.6,150.3L34.0,143.8L35.4,139.1L39.3,132.6L37.5,133.7L38.3,132.1L47.6,123.9L48.6,117.6L52.1,109.6L60.0,105.1L63.7,96.5L65.8,94.1L78.8,90.4L88.8,83.4L91.5,80.4L96.4,73.6L96.6,70.5L94.5,68.0L95.1,61.4L99.4,55.2L100.4,50.7L107.2,44.3L122.3,37.6L127.4,30.1L131.4,20.7L137.4,19.6L136.8,21.0L137.6,22.3L143.5,26.1L146.3,26.5L152.2,25.4L155.0,26.0L158.9,24.2L160.2,26.8L166.0,27.0Z"/><path class="land" fill-rule="evenodd" d="M652.7,512.4L651.7,514.1L653.5,510.5L652.7,512.4Z"/><path class="land" fill-rule="evenodd" d="M637.9,479.4L636.6,479.6L636.5,478.4L637.5,477.9L637.9,479.4Z"/><path class="land part-shape" data-part="こ" fill-rule="evenodd" d="M649.0,470.7L652.8,476.7L655.5,492.2L657.5,496.1L657.1,500.5L655.1,503.6L652.3,498.9L650.2,499.5L651.8,508.5L651.2,511.6L649.6,512.7L648.2,515.6L648.5,521.7L647.4,525.8L633.8,564.3L630.5,577.5L627.0,586.0L622.8,589.4L617.5,590.2L611.4,593.3L607.7,593.1L604.9,591.1L600.6,590.1L597.7,588.0L594.3,581.5L594.7,574.3L591.3,567.4L590.5,563.6L590.7,559.4L592.7,554.0L595.5,552.3L601.1,540.6L601.5,536.0L599.6,532.7L599.5,529.6L597.7,525.4L597.1,517.0L601.3,510.6L601.8,506.0L605.8,505.6L608.7,503.5L609.9,504.3L612.3,503.9L613.2,502.3L617.5,501.6L619.7,503.3L619.1,501.3L620.4,499.5L624.8,496.7L625.6,498.9L626.3,498.7L626.2,496.1L628.6,492.5L629.7,492.0L629.8,494.8L632.6,491.3L634.3,491.6L632.6,488.8L634.6,485.0L633.6,483.5L634.1,482.2L635.0,481.6L637.0,482.7L642.1,478.5L643.2,474.5L642.0,471.1L643.4,470.8L645.9,467.4L649.0,470.7Z"/><path class="land" fill-rule="evenodd" d="M188.7,215.5L184.5,214.1L179.6,214.2L176.9,216.4L168.3,219.7L166.9,222.4L162.5,221.9L159.8,224.5L159.1,227.3L156.3,227.2L155.9,230.7L153.7,231.6L148.9,229.8L146.3,232.2L147.2,235.3L144.8,236.4L145.3,239.5L142.8,242.0L137.3,244.3L137.7,248.5L136.8,250.8L135.4,251.6L135.1,257.4L132.1,257.7L129.6,259.4L128.4,258.9L128.3,254.6L126.7,255.1L126.7,256.1L124.6,255.2L124.2,258.1L121.8,258.1L121.2,260.0L117.9,258.9L116.7,257.2L115.2,257.3L112.1,259.8L111.9,258.3L109.5,256.8L108.9,252.1L105.8,251.9L108.3,248.6L104.3,245.7L104.4,243.4L101.5,238.5L99.0,238.3L99.3,240.3L96.0,242.3L90.8,240.7L87.0,243.6L84.6,240.8L81.6,242.6L79.4,241.1L80.4,238.9L80.4,233.9L78.1,229.9L76.2,230.4L74.2,227.4L75.0,225.2L74.5,222.1L72.5,219.7L72.9,218.0L72.0,216.4L73.7,217.0L75.2,215.7L76.9,210.7L79.3,208.7L84.5,213.3L86.8,210.7L93.9,211.2L98.5,210.4L99.4,208.3L99.5,209.8L101.0,210.0L135.2,210.0L136.6,202.7L134.1,200.0L125.1,121.4L141.7,121.4L197.4,157.7L197.5,160.4L201.7,162.8L203.0,164.9L207.4,165.7L209.1,167.4L215.9,169.4L217.1,173.5L215.7,175.9L217.1,177.2L226.1,176.0L226.2,196.0L225.1,202.0L222.5,208.1L219.5,210.2L219.4,211.3L215.2,210.7L214.7,211.5L198.8,212.1L195.5,214.8L188.7,215.5Z"/><path class="land" fill-rule="evenodd" d="M322.6,20.0L321.4,20.3L320.6,18.9L322.6,20.0Z"/><path class="land" fill-rule="evenodd" d="M320.3,18.4L319.0,18.1L320.3,18.4Z"/><path class="land" fill-rule="evenodd" d="M486.4,605.2L485.9,597.5L484.9,596.9L484.6,595.2L485.2,583.0L481.1,573.8L478.7,563.8L489.3,553.4L488.6,551.9L489.8,550.2L489.9,547.5L494.6,541.2L492.6,535.6L493.3,533.0L491.9,531.4L493.6,529.5L494.6,526.0L493.5,512.2L494.2,510.6L484.8,508.0L478.2,504.2L470.5,503.8L468.8,494.6L496.5,485.5L500.6,490.6L507.5,489.3L508.7,490.9L509.2,496.0L506.3,503.0L507.9,506.3L514.1,511.8L513.9,514.1L515.9,514.4L516.0,511.5L514.9,509.2L516.7,505.5L520.4,504.5L521.7,493.7L521.2,491.6L515.6,484.4L509.3,479.4L507.3,468.2L509.8,463.1L518.6,463.0L521.8,461.6L525.5,463.9L531.8,462.6L535.5,464.0L538.8,462.8L540.6,460.1L543.0,459.9L545.9,461.2L548.8,459.5L553.7,458.5L559.9,455.7L564.3,452.3L565.7,454.2L564.5,455.1L565.6,455.8L563.8,460.4L565.0,466.7L564.5,471.3L565.4,472.6L564.1,475.8L565.3,475.9L565.6,486.5L566.7,487.3L566.0,490.4L567.2,489.3L567.9,492.0L565.8,495.7L565.2,499.1L559.8,506.1L558.0,506.7L558.5,508.1L551.5,513.1L542.7,515.6L536.8,518.7L531.4,522.6L526.4,529.9L525.1,529.4L524.9,530.7L521.3,531.9L512.8,539.6L510.1,538.5L511.1,539.7L510.6,545.7L513.2,548.9L515.8,556.7L516.3,563.7L516.9,564.2L517.6,561.1L518.3,562.3L517.9,566.1L518.7,569.0L516.8,576.8L518.4,577.0L517.9,579.3L513.3,584.7L497.9,590.4L494.3,592.6L490.8,597.4L493.3,599.8L494.2,598.1L493.6,605.3L486.4,605.2ZM510.0,466.8L509.1,466.8L510.0,466.8ZM510.7,466.7L510.4,467.8L510.7,466.7Z"/><path class="land" fill-rule="evenodd" d="M105.6,100.0L141.7,121.4L125.1,121.4L134.1,200.0L136.6,202.7L135.2,210.0L101.0,210.0L99.5,209.8L99.4,208.3L98.5,210.4L93.9,211.2L86.8,210.7L84.5,213.3L79.3,208.7L76.9,210.7L75.9,214.7L73.7,217.0L66.7,212.4L66.0,210.4L63.4,208.9L61.5,204.8L57.2,204.0L55.2,201.4L51.0,199.2L46.8,199.0L39.5,200.8L35.1,200.4L32.3,206.8L33.0,199.7L36.6,190.9L36.9,184.6L35.3,177.3L32.5,174.0L34.5,172.5L33.2,172.9L35.4,165.9L33.3,161.9L32.4,161.4L31.5,162.1L28.7,157.6L27.6,160.5L28.3,155.6L65.2,155.5L63.9,141.7L68.9,137.5L74.4,135.6L74.5,112.0L105.6,112.0L105.6,100.0Z"/><path class="land" fill-rule="evenodd" d="M33.8,170.7L33.2,171.6L32.9,170.7L34.1,169.2L33.8,170.7Z"/><path class="land" fill-rule="evenodd" d="M513.0,462.7L509.8,463.1L507.3,468.2L509.3,479.4L515.6,484.4L521.2,491.6L521.7,493.7L520.7,503.6L519.9,504.9L516.1,506.3L514.9,509.2L516.0,511.5L516.0,514.2L515.2,514.6L513.9,514.1L514.1,511.8L507.9,506.3L506.3,503.0L509.0,497.4L508.7,490.9L507.1,489.1L500.6,490.6L496.0,484.8L494.6,485.5L491.6,481.7L494.4,478.1L494.9,472.6L498.4,471.2L499.4,469.9L497.8,469.5L497.0,467.7L496.8,461.2L498.2,458.8L497.1,456.3L500.8,453.2L499.6,450.2L497.6,448.4L497.9,446.7L496.5,444.5L494.6,444.5L493.9,442.5L503.0,444.9L504.0,443.3L507.0,445.5L509.3,450.3L510.2,455.4L509.7,458.1L513.0,462.7Z"/><path class="land" fill-rule="evenodd" d="M510.0,466.8L509.1,466.8L510.0,466.8Z"/><path class="land" fill-rule="evenodd" d="M510.7,466.7L510.4,467.8L510.7,466.7Z"/><path class="land" fill-rule="evenodd" d="M296.3,515.7L298.8,514.9L303.8,515.3L308.9,513.0L312.4,513.7L317.5,517.1L358.4,517.1L363.6,520.8L377.0,521.6L380.3,522.9L386.6,522.7L413.2,517.8L419.4,518.4L422.4,520.7L419.2,521.0L415.6,523.2L412.9,522.9L406.9,527.0L403.4,522.7L382.4,525.6L382.4,560.0L373.1,560.0L373.2,620.2L369.0,621.4L365.5,624.8L355.6,624.1L349.5,622.5L348.7,618.5L345.9,616.3L344.2,617.2L343.1,620.2L340.2,621.8L333.4,615.7L329.4,609.2L328.0,602.1L326.4,600.3L325.1,588.3L322.0,580.6L321.1,569.0L322.2,567.5L321.7,564.2L312.2,549.9L309.6,543.1L302.9,531.3L299.1,527.1L296.6,522.7L296.3,515.7Z"/><path class="land" fill-rule="evenodd" d="M220.2,245.5L212.8,239.1L208.7,240.6L209.0,243.6L206.0,239.8L207.4,238.3L206.3,236.1L201.3,236.7L195.9,232.9L195.9,229.9L197.9,230.0L192.4,226.8L190.2,223.3L190.2,221.7L188.2,219.4L188.8,215.0L195.5,214.8L198.8,212.1L214.7,211.5L215.2,210.7L219.4,211.3L219.5,210.2L222.5,208.1L225.1,202.0L226.2,196.0L226.1,176.0L241.1,172.9L256.5,159.9L298.4,135.2L312.5,138.3L319.3,143.5L326.5,140.0L328.4,153.8L332.3,159.1L332.1,161.2L335.7,164.8L333.5,168.9L331.1,196.9L320.8,207.7L312.2,220.4L313.7,226.8L306.8,229.1L303.0,232.5L299.8,232.5L293.2,230.0L284.4,230.3L280.4,231.4L276.4,235.1L268.3,234.2L262.2,230.6L259.8,230.2L251.4,233.3L245.5,227.2L237.9,225.2L235.6,226.3L230.2,226.5L225.4,229.1L224.4,233.9L220.7,237.7L220.9,244.9L220.2,245.5Z"/><path class="land" fill-rule="evenodd" d="M211.9,295.2L212.6,270.2L215.1,269.9L217.7,263.4L220.3,261.3L220.3,258.1L222.0,257.3L222.4,255.2L221.4,251.3L219.2,248.3L220.9,244.9L220.7,237.7L224.4,233.9L225.4,229.1L227.9,227.3L237.9,225.2L245.5,227.2L251.4,233.3L259.8,230.2L262.2,230.6L268.3,234.2L276.4,235.1L280.4,231.4L284.4,230.3L293.2,230.0L299.8,232.5L303.0,232.5L306.8,229.1L313.7,226.8L317.9,232.6L319.2,239.1L322.2,239.9L323.1,241.3L322.6,247.4L317.2,250.0L314.5,253.2L311.9,259.7L310.5,261.0L309.9,265.4L307.3,266.7L305.5,273.0L302.4,274.4L298.8,283.8L296.5,286.8L297.4,288.2L294.7,290.4L294.3,292.6L290.8,294.6L289.4,291.8L285.7,288.7L283.9,290.5L281.9,290.3L281.3,289.4L277.9,291.6L276.8,293.7L271.2,298.6L266.5,310.3L263.5,308.9L264.1,312.1L258.0,312.4L257.0,311.2L254.7,312.2L252.7,310.6L253.4,312.5L251.3,313.7L249.8,310.6L250.7,313.8L248.6,314.2L248.1,312.9L247.8,314.1L245.1,314.4L245.2,313.3L244.6,314.6L243.4,314.6L238.8,311.3L237.9,309.5L236.8,304.8L238.5,303.6L236.9,304.3L235.2,303.0L237.6,302.3L236.4,301.4L234.4,302.0L232.0,298.4L228.0,295.4L218.9,294.7L221.4,293.1L218.7,293.8L217.8,295.0L211.9,295.2Z"/><path class="land" fill-rule="evenodd" d="M254.8,313.4L253.3,313.6L254.1,312.4L254.8,313.4Z"/><path class="land" fill-rule="evenodd" d="M700.0,195.8L691.3,195.9L687.0,198.2L682.1,199.3L671.8,177.4L700.0,167.4Z"/><path class="land" fill-rule="evenodd" d="M119.5,0.0L116.6,3.9L117.5,7.7L112.6,9.3L106.4,8.2L102.7,9.0L104.4,5.3L103.9,0.0Z"/><path class="land" fill-rule="evenodd" d="M26.2,47.9L30.9,48.9L29.5,49.9L27.8,49.8L25.9,48.8L26.2,47.9Z"/><path class="land" fill-rule="evenodd" d="M506.3,63.4L505.8,62.3L508.5,59.9L508.9,60.4L506.3,63.4Z"/><path class="land" fill-rule="evenodd" d="M517.5,60.9L512.1,61.6L512.9,59.7L515.2,58.3L512.9,57.5L513.4,52.8L515.1,51.0L518.5,52.3L518.6,58.2L517.5,60.9Z"/><path class="land" fill-rule="evenodd" d="M665.2,125.0L662.3,125.3L661.3,124.3L660.4,117.6L662.7,112.2L665.1,110.6L667.7,112.9L667.2,116.4L668.3,120.8L666.7,124.4L665.2,125.0Z"/><path class="land" fill-rule="evenodd" d="M471.8,377.1L470.5,376.3L467.8,377.2L466.0,376.5L465.4,380.0L461.7,380.9L458.3,378.9L457.5,380.1L456.6,379.7L456.0,377.5L458.6,375.2L458.7,371.6L460.6,368.8L465.0,367.1L465.7,368.4L466.6,368.2L470.5,364.6L471.4,364.6L471.4,365.9L474.3,369.3L474.8,374.7L474.4,376.5L471.8,377.1Z"/><path class="land" fill-rule="evenodd" d="M105.6,96.5L105.6,112.0L74.5,112.0L74.4,135.6L68.9,137.5L63.9,141.7L65.2,155.5L28.3,155.6L27.6,160.5L27.1,160.0L28.0,154.7L49.0,154.0L50.1,150.6L53.9,146.4L55.1,139.1L57.0,133.6L62.4,130.8L65.4,126.3L70.6,122.9L74.1,112.1L77.3,111.0L80.8,106.1L80.3,103.8L86.3,102.5L91.0,104.0L95.0,104.1L98.8,101.8L104.6,101.5L104.4,96.5L105.6,96.5Z"/><path class="land" fill-rule="evenodd" d="M668.0,128.0L668.2,129.9L677.2,140.6L700.0,143.4L699.8,168.0L671.8,177.4L644.4,181.2L636.3,185.2L630.7,191.8L629.5,195.0L626.7,196.5L625.1,196.4L622.8,193.5L611.7,193.2L608.0,192.0L596.6,193.0L591.9,191.2L589.8,192.6L589.5,198.9L586.1,201.9L585.2,198.5L582.2,194.9L581.4,191.9L576.3,187.7L571.5,180.3L567.1,170.3L560.8,165.5L557.5,164.4L553.2,158.9L551.5,155.8L552.0,153.8L550.6,150.4L551.2,143.8L545.7,133.4L540.6,128.9L537.1,127.9L533.7,123.0L534.5,121.7L533.4,118.6L515.0,93.0L510.7,92.1L509.8,92.7L509.8,91.9L512.9,80.7L523.3,82.1L527.1,79.4L529.2,76.2L536.4,74.7L538.1,71.6L541.1,70.0L531.6,60.7L550.3,56.0L552.0,54.8L563.4,56.6L579.4,64.6L603.8,82.1L629.4,84.1L631.6,88.4L638.8,88.3L642.2,94.3L642.1,95.9L646.2,98.1L645.6,98.6L647.8,101.0L654.7,105.8L653.4,105.7L655.3,109.1L654.8,111.1L653.6,111.0L654.1,112.4L661.3,124.3L662.3,125.3L666.5,125.3L665.6,127.5L668.0,128.0Z"/><path class="land" fill-rule="evenodd" d="M578.6,198.7L579.2,197.8L580.3,198.7L580.1,200.0L576.8,198.1L577.4,196.0L578.6,198.7Z"/><path class="land" fill-rule="evenodd" d="M531.1,117.8L527.6,115.7L527.6,114.9L531.1,117.8Z"/><path class="land" fill-rule="evenodd" d="M528.2,114.7L528.1,113.3L528.2,114.7Z"/><path class="land" fill-rule="evenodd" d="M412.0,273.8L406.3,272.4L405.7,269.6L407.1,267.5L407.4,263.0L400.0,252.7L400.6,248.8L397.5,246.6L397.4,242.8L396.4,242.0L395.3,236.5L391.3,236.3L390.4,235.3L394.1,230.3L393.0,225.9L397.0,222.5L395.6,218.9L398.3,217.3L400.7,213.2L400.7,209.7L402.3,208.1L410.4,207.9L410.5,168.0L419.8,168.0L419.8,149.4L478.0,149.4L479.7,147.4L480.5,148.0L480.1,149.4L530.8,149.4L531.3,153.2L534.4,157.7L534.4,158.3L533.4,157.7L533.3,158.8L533.8,166.9L536.4,179.0L547.0,186.6L543.7,190.5L537.1,193.0L535.8,195.4L532.1,195.5L531.0,199.5L531.2,202.6L526.6,213.4L527.6,221.6L523.8,235.6L519.6,236.8L514.4,244.4L512.7,253.3L511.2,254.4L509.3,253.1L507.2,255.2L506.9,259.6L504.7,266.4L502.8,265.9L503.7,262.6L503.1,259.6L498.1,255.2L495.9,254.4L495.4,246.3L496.5,240.6L492.1,240.6L492.2,242.6L486.0,242.6L488.5,245.4L489.3,251.2L484.7,255.2L483.4,257.8L478.1,263.2L473.7,263.8L466.7,258.7L463.0,260.7L461.7,263.5L457.1,265.1L455.8,266.4L455.9,267.6L448.5,267.6L446.9,265.1L439.4,264.9L435.5,266.1L428.6,259.8L428.0,257.5L422.0,258.3L420.6,258.6L418.0,263.4L418.0,265.7L415.6,271.7L412.0,273.8Z"/><path class="land" fill-rule="evenodd" d="M442.4,307.0L441.1,305.3L440.0,301.3L434.1,298.0L432.2,294.4L432.7,292.7L428.3,288.7L422.6,285.3L421.7,284.1L421.9,281.8L418.6,278.7L412.6,276.6L412.2,273.5L415.6,271.7L418.0,265.7L418.0,263.4L420.6,258.6L428.0,257.5L428.3,259.4L434.5,265.8L446.9,265.1L448.5,267.6L455.9,267.6L455.8,266.4L457.1,265.1L461.7,263.5L463.0,260.7L466.7,258.7L473.7,263.8L477.4,263.5L489.3,251.2L488.5,245.4L486.0,242.6L492.2,242.6L492.1,240.6L496.5,240.6L495.4,246.3L495.9,254.4L498.1,255.2L503.1,259.6L503.7,262.6L502.8,265.9L504.7,266.4L504.9,273.7L503.6,275.9L497.3,275.9L494.7,280.9L503.1,284.6L504.6,287.2L510.6,292.5L513.2,300.0L515.8,303.4L499.2,319.6L494.6,318.5L488.5,320.1L486.6,321.8L483.4,319.2L481.1,320.3L477.4,319.3L474.5,322.1L473.7,320.8L472.1,320.8L471.4,318.9L468.5,317.5L462.5,311.4L459.4,313.7L454.8,312.6L452.0,314.3L449.8,314.1L446.0,311.3L442.4,307.0Z"/><path class="land" fill-rule="evenodd" d="M80.4,238.9L71.9,239.6L66.0,237.7L64.8,238.1L64.6,236.8L44.8,236.3L41.3,238.1L30.7,239.4L30.2,237.8L33.2,237.0L31.8,236.0L30.2,236.8L30.2,232.7L31.3,231.9L38.9,231.9L39.1,230.3L44.0,229.6L45.3,228.1L53.7,231.1L57.6,229.5L56.2,228.3L52.2,228.6L45.7,225.8L42.7,226.5L41.9,227.9L32.1,227.9L30.2,224.9L31.6,223.6L29.9,224.0L26.4,218.0L24.8,217.2L23.8,217.9L23.0,217.0L26.6,215.4L29.5,211.9L35.1,200.4L39.5,200.8L47.0,199.0L53.2,199.9L57.2,204.0L61.5,204.8L63.4,208.9L72.0,216.4L72.9,218.0L72.5,219.7L74.5,222.1L75.0,225.2L74.2,227.4L76.2,230.4L78.1,229.9L80.4,233.9L80.4,238.9Z"/><path class="land" fill-rule="evenodd" d="M133.5,504.0L132.7,504.0L133.4,503.1L133.5,504.0Z"/><path class="land" fill-rule="evenodd" d="M52.6,429.1L52.4,428.2L53.2,428.7L52.6,429.1Z"/><path class="land" fill-rule="evenodd" d="M62.6,270.2L65.1,269.7L70.7,262.3L81.4,261.4L86.9,267.7L86.4,269.8L87.6,270.1L88.7,273.6L86.7,276.9L88.1,277.1L90.0,275.4L90.7,275.5L90.4,277.1L88.0,279.3L87.3,282.2L79.3,290.2L70.1,285.7L70.2,282.3L68.2,282.7L66.7,281.7L65.7,278.6L63.9,278.0L62.8,276.0L64.5,276.0L66.3,274.1L63.6,274.6L63.4,272.1L64.8,271.8L62.6,270.2Z"/><path class="land" fill-rule="evenodd" d="M69.8,285.3L65.8,284.0L68.9,283.4L69.9,283.9L69.8,285.3Z"/><path class="land" fill-rule="evenodd" d="M587.3,252.0L590.3,247.3L596.0,254.0L599.9,256.9L606.1,257.3L614.3,253.5L621.3,254.4L629.1,250.4L634.8,250.7L640.0,249.0L643.4,249.6L643.4,266.5L634.5,280.0L625.1,280.0L597.5,270.8L592.5,267.1L589.7,262.5L586.5,259.4L584.8,255.7L587.3,252.0Z"/><path class="land" fill-rule="evenodd" d="M577.6,317.5L578.9,316.0L586.7,314.3L589.2,311.3L593.4,309.4L597.2,308.5L606.1,308.8L634.5,280.0L643.4,266.5L643.4,249.6L654.4,247.1L660.7,242.8L665.0,244.2L663.5,248.9L664.0,255.2L663.0,257.2L664.5,256.2L666.3,257.7L662.0,258.2L661.0,266.7L654.3,278.1L652.0,280.3L650.3,285.0L646.2,291.4L644.5,297.0L634.4,312.7L616.5,331.6L600.4,341.7L592.4,348.9L578.5,363.7L574.3,370.5L569.1,362.8L569.0,328.4L577.6,317.5Z"/><path class="land" fill-rule="evenodd" d="M248.8,353.5L247.5,354.0L247.0,352.5L249.1,350.9L249.7,352.4L248.8,353.5Z"/><path class="land" fill-rule="evenodd" d="M256.0,340.0L255.1,339.7L255.9,338.8L256.0,340.0Z"/><path class="land" fill-rule="evenodd" d="M484.9,596.9L485.9,597.5L486.4,605.2L485.3,605.0L484.9,609.5L480.4,609.4L476.6,607.7L474.1,604.5L474.0,601.6L476.8,597.2L479.6,594.9L484.9,596.9Z"/><path class="land" fill-rule="evenodd" d="M582.0,8.3L576.7,13.1L573.2,13.9L572.1,15.1L571.6,18.0L572.6,22.0L571.4,25.3L571.2,30.2L568.7,33.7L548.6,43.2L530.3,53.0L526.1,52.4L520.7,49.1L521.9,47.1L521.1,43.6L523.0,41.2L522.4,39.8L526.1,38.8L525.3,38.0L528.1,35.3L527.4,33.3L525.7,32.7L526.2,31.2L522.4,31.5L521.8,24.1L520.5,22.7L521.7,19.4L524.1,20.2L525.9,18.6L526.2,17.1L528.6,16.5L527.7,14.4L528.8,11.2L532.6,12.6L536.1,12.7L543.1,10.3L548.5,12.2L554.0,12.3L566.6,8.4L574.1,8.5L580.6,6.6L582.0,8.3Z"/><path class="land" fill-rule="evenodd" d="M400.0,252.7L396.6,252.0L389.9,255.3L389.0,258.6L385.1,261.6L380.6,266.9L376.5,269.5L363.6,271.2L362.9,272.2L365.0,273.9L360.2,279.4L351.4,280.2L343.3,284.2L341.1,281.3L339.5,283.0L335.6,284.6L331.1,284.4L331.8,282.0L327.8,274.8L317.4,265.2L317.1,264.2L319.6,261.5L332.8,261.3L329.2,258.0L327.9,255.3L326.9,250.9L327.4,244.1L325.2,238.0L321.6,233.1L317.9,232.6L313.7,226.8L312.2,220.4L320.8,207.7L331.1,196.9L333.5,168.9L335.7,164.8L332.1,161.2L332.3,159.1L328.4,153.8L326.5,140.0L335.9,135.8L410.5,172.7L410.4,207.9L402.3,208.1L400.7,209.7L400.7,213.2L398.3,217.3L395.6,218.9L397.0,222.5L393.0,225.9L394.1,230.3L390.4,235.3L391.3,236.3L395.3,236.5L396.4,242.0L397.4,242.8L397.5,246.6L400.6,248.8L400.0,252.7Z"/><path class="land" fill-rule="evenodd" d="M195.1,252.1L193.8,257.7L199.1,261.4L199.6,267.3L201.6,270.2L201.8,289.4L201.0,289.4L203.3,295.9L197.7,297.8L193.5,294.4L191.6,290.7L192.6,286.0L191.3,284.2L193.1,277.2L190.1,272.9L191.2,272.1L191.6,266.9L190.4,266.1L188.8,266.3L189.9,265.0L189.1,264.6L190.2,258.6L185.8,254.7L186.8,251.8L186.0,250.9L191.3,252.4L195.1,252.1Z"/><path class="land" fill-rule="evenodd" d="M700.0,1.4L697.2,4.9L689.9,6.1L689.0,0.0L700.0,0.0Z"/><path class="land" fill-rule="evenodd" d="M275.5,72.5L271.1,55.3L264.4,50.9L262.4,46.2L258.8,44.2L256.6,37.6L259.8,33.5L263.1,31.3L265.0,26.1L263.6,20.5L264.6,15.2L263.3,13.8L266.9,10.9L266.7,9.9L277.1,6.2L278.5,6.4L278.4,8.1L278.8,7.0L281.8,7.4L282.7,11.4L283.8,11.8L289.8,8.7L290.5,10.5L284.9,15.6L284.4,17.0L285.5,19.7L289.4,22.1L290.5,25.8L286.4,31.0L280.4,36.0L282.8,39.9L286.7,40.2L286.7,41.9L288.9,40.8L291.7,43.8L291.2,44.3L294.0,45.0L293.6,50.0L294.3,51.6L282.6,58.9L281.1,61.0L282.0,67.4L279.0,71.1L275.5,72.5Z"/><path class="land" fill-rule="evenodd" d="M288.9,39.9L286.7,39.8L287.0,38.4L289.5,39.0L288.9,39.9Z"/><path class="land" fill-rule="evenodd" d="M291.9,30.3L290.5,31.0L291.7,29.7L291.9,30.3Z"/><path class="land" fill-rule="evenodd" d="M599.6,0.0L599.4,1.1L602.8,2.7L602.7,5.3L604.7,6.6L604.5,8.0L603.0,7.7L600.0,9.5L598.4,6.5L594.3,7.2L585.9,5.9L582.0,8.3L580.6,6.6L574.1,8.5L566.6,8.4L554.0,12.3L548.5,12.2L543.1,10.3L536.1,12.7L532.6,12.6L528.8,11.2L527.7,14.4L528.6,16.5L526.2,17.1L525.9,18.6L523.9,20.2L521.7,19.4L522.3,18.7L520.9,15.8L524.4,12.5L524.3,11.1L523.1,10.2L517.0,13.3L510.6,11.0L501.2,17.0L492.8,18.3L488.9,17.0L485.5,13.7L479.3,11.2L472.7,10.6L470.8,16.1L468.8,15.8L463.8,17.2L459.4,15.6L457.0,12.0L450.8,11.1L448.2,12.7L448.8,11.7L442.9,12.0L448.1,10.9L450.3,9.1L441.1,9.6L441.5,8.1L443.7,7.8L440.7,5.7L439.3,3.2L440.8,2.6L441.0,1.1L439.8,0.0Z"/><path class="land" fill-rule="evenodd" d="M461.1,396.2L464.0,396.3L466.2,394.9L470.6,388.2L474.0,385.2L473.9,382.5L470.6,381.0L471.6,377.3L474.4,376.5L474.8,374.7L474.3,369.3L471.1,364.8L474.2,364.0L504.5,364.4L538.0,383.1L537.7,387.3L552.7,398.5L548.8,411.3L549.5,413.8L555.8,420.2L553.4,424.8L553.3,427.4L554.7,427.6L554.8,429.4L553.5,433.5L554.9,438.1L556.7,440.5L558.0,447.2L557.4,448.0L564.3,452.3L559.9,455.7L553.7,458.5L548.8,459.5L545.9,461.2L543.0,459.9L540.6,460.1L538.8,462.8L535.5,464.0L531.8,462.6L525.5,463.9L521.8,461.6L518.6,463.0L513.0,462.7L509.7,458.1L510.2,454.6L508.9,448.3L504.8,443.7L504.0,443.3L503.5,444.9L498.6,444.3L489.4,440.1L484.8,439.2L484.6,438.1L482.3,437.8L480.2,435.4L476.7,435.0L475.0,433.8L468.7,420.4L464.0,416.4L462.4,413.6L461.8,410.9L463.0,408.1L460.4,400.4L461.1,396.2Z"/><path class="land" fill-rule="evenodd" d="M557.3,429.1L556.3,428.7L559.1,426.1L557.3,429.1Z"/><path class="land" fill-rule="evenodd" d="M555.3,412.3L556.0,414.3L555.2,414.9L552.4,412.3L553.6,408.1L555.3,412.3Z"/><path class="land" fill-rule="evenodd" d="M558.7,400.5L557.7,405.5L556.7,404.8L557.0,400.7L558.7,400.5Z"/><path class="land" fill-rule="evenodd" d="M462.7,367.6L464.0,353.7L466.1,350.0L466.1,347.0L478.4,335.6L477.6,333.5L473.5,331.7L474.6,327.7L473.7,326.3L475.3,320.7L477.4,319.3L481.1,320.3L483.4,319.2L486.6,321.8L488.5,320.1L494.6,318.5L499.2,319.6L503.8,315.3L505.5,319.1L508.1,320.6L508.2,325.1L512.5,331.5L513.1,338.1L511.5,343.1L508.5,344.9L503.5,353.0L503.1,364.0L474.2,364.0L470.0,364.7L466.0,368.4L465.0,367.1L462.7,367.6Z"/><path class="land" fill-rule="evenodd" d="M671.8,177.4L682.1,199.3L675.1,202.6L673.6,205.7L674.0,208.5L665.7,212.6L647.3,218.0L640.9,223.5L634.6,223.6L629.1,227.2L623.4,229.0L612.8,230.2L607.0,235.1L603.1,235.0L597.4,237.0L593.9,235.7L592.6,236.1L590.2,230.8L590.6,226.9L588.8,223.9L587.4,215.2L586.7,213.4L584.8,212.5L586.1,211.6L585.4,208.6L586.5,205.0L586.1,201.9L589.5,198.9L589.2,195.4L590.8,191.7L592.4,191.2L596.6,193.0L608.0,192.0L611.7,193.2L622.8,193.5L625.1,196.4L626.7,196.5L629.5,195.0L630.7,191.8L636.3,185.2L644.4,181.2L671.8,177.4Z"/><path class="land" fill-rule="evenodd" d="M688.5,236.7L692.4,236.5L695.4,237.5L691.9,239.3L688.0,239.7L684.3,237.7L686.3,236.0L688.5,236.7Z"/><path class="land" fill-rule="evenodd" d="M585.7,226.8L585.1,227.0L586.1,226.2L585.7,226.8Z"/><path class="land" fill-rule="evenodd" d="M586.0,224.3L585.1,223.9L585.8,223.4L586.0,224.3Z"/><path class="land" fill-rule="evenodd" d="M584.2,211.8L584.3,210.6L584.2,211.8Z"/><path class="land" fill-rule="evenodd" d="M373.2,585.9L377.4,589.4L380.7,596.5L380.9,598.9L379.2,601.5L379.7,605.0L388.7,605.3L397.6,598.6L400.2,592.3L401.9,590.9L405.0,590.7L409.7,593.6L417.6,595.6L424.1,594.7L425.4,593.7L428.5,585.6L433.0,584.4L437.1,580.9L439.5,574.7L445.7,571.2L450.0,566.5L455.8,564.5L458.5,562.0L463.5,561.4L471.0,563.1L476.7,562.9L478.7,563.8L481.1,573.8L485.0,582.2L485.2,593.9L484.6,597.0L479.9,595.0L477.9,595.9L474.2,601.2L474.1,604.5L476.6,607.7L480.4,609.4L484.9,609.5L485.6,604.9L493.6,605.3L493.3,607.4L488.8,620.7L479.1,628.9L469.4,643.7L456.0,656.1L442.1,666.0L433.3,669.8L427.5,669.5L425.4,672.3L420.0,671.8L418.4,673.6L416.2,673.6L407.8,671.9L403.8,672.8L397.2,672.1L394.3,672.6L390.0,675.5L382.6,675.4L378.3,676.3L373.5,679.3L369.9,679.0L366.8,677.7L366.3,675.8L362.4,675.4L361.7,672.8L359.3,673.0L359.0,675.2L358.0,673.8L358.7,669.4L353.3,661.1L354.3,659.9L355.8,660.3L357.7,658.0L356.6,650.9L348.6,638.8L344.9,629.1L340.2,621.8L343.1,620.2L344.2,617.2L345.9,616.3L348.7,618.5L349.5,622.5L355.6,624.1L365.5,624.8L369.0,621.4L373.2,620.2L373.2,585.9ZM440.6,630.5L439.1,631.5L442.3,637.6L445.7,640.3L448.2,640.7L451.7,636.0L458.2,633.9L461.0,627.9L460.1,626.2L453.8,621.4L445.5,624.8L440.6,630.5Z"/><path class="land" fill-rule="evenodd" d="M404.9,519.3L393.4,509.6L392.4,506.5L391.8,476.0L410.3,475.9L409.6,474.1L411.1,461.1L410.4,456.1L414.1,458.5L414.2,461.2L422.7,459.3L423.3,463.1L429.6,465.6L437.0,466.3L440.2,462.7L444.0,468.8L451.9,471.5L453.1,474.5L454.8,475.3L457.5,479.4L459.2,479.7L462.5,478.3L464.1,480.2L464.8,479.7L464.8,468.1L462.1,468.8L461.9,470.6L457.9,469.9L452.5,464.9L451.3,461.8L454.0,453.1L453.6,445.0L451.7,440.8L456.1,436.7L456.4,433.9L473.7,431.1L476.3,434.9L480.2,435.4L482.3,437.8L489.4,440.1L493.9,442.5L494.6,444.5L496.5,444.5L497.9,446.7L497.6,448.4L499.6,450.2L500.8,453.2L497.1,456.3L498.2,458.8L496.8,461.2L497.0,467.7L497.8,469.5L499.4,469.9L498.4,471.2L494.9,472.6L494.4,478.1L491.6,481.5L494.6,485.5L496.0,484.8L496.5,485.5L468.8,494.6L470.4,500.7L461.9,501.2L456.5,503.9L455.1,509.0L447.4,512.4L438.9,522.3L436.6,523.1L432.4,522.0L428.1,522.2L426.0,521.0L422.4,520.7L420.0,518.6L417.5,518.2L413.2,517.8L404.9,519.3Z"/><path class="land" fill-rule="evenodd" d="M460.7,561.8L457.7,560.2L457.6,558.1L448.1,555.8L444.9,551.3L445.0,546.0L441.3,545.8L440.3,542.3L430.9,537.0L428.8,531.4L422.1,521.9L422.4,520.7L429.3,522.4L432.4,522.0L436.6,523.1L438.9,522.3L447.4,512.4L455.1,509.0L456.5,503.9L461.9,501.2L470.4,500.7L470.8,504.0L478.2,504.2L484.8,508.0L494.2,510.6L493.5,512.2L494.6,526.0L493.6,529.5L491.9,531.4L493.3,533.0L492.6,535.6L494.7,540.7L491.6,546.2L489.9,547.5L489.8,550.2L488.6,551.9L489.3,553.4L478.7,563.8L463.5,561.4L460.7,561.8Z"/></g><g id="rivers"><path class="river part-shape" data-part="さ" d="M479.4,334.2L480.4,332.3"/><path class="river part-shape" data-part="さ" d="M507.5,244.7L508.7,247.2L511.3,249.2"/><path class="river part-shape" data-part="さ" d="M493.5,130.8L493.9,136.9L490.7,141.8L488.4,143.2L485.7,142.8L479.7,148.5L476.8,153.0"/><path class="river part-shape" data-part="さ" d="M496.4,350.7L496.8,351.9L492.3,359.8L483.2,363.4"/><path class="river part-shape" data-part="さ" d="M490.4,340.5L493.7,342.4"/><path class="river part-shape" data-part="さ" d="M487.6,339.1L489.8,340.2"/><path class="river part-shape" data-part="さ" d="M535.6,246.1L539.6,249.3L545.6,251.7L546.0,256.6L544.8,260.1L538.2,262.4L534.9,261.0L533.5,258.8L527.2,257.0L524.6,259.9L520.1,261.4L516.6,259.9"/><path class="river part-shape" data-part="さ" d="M485.5,320.9L482.8,322.0L479.8,327.1L480.4,332.3"/><path class="river part-shape" data-part="さ" d="M485.5,320.9L481.5,316.4L480.8,314.3L483.2,305.2L483.2,301.4L477.4,290.9"/><path class="river part-shape" data-part="さ" d="M477.4,290.9L473.9,287.9L471.8,284.5L468.5,271.3L471.0,266.1L477.2,266.6"/><path class="river part-shape" data-part="さ" d="M477.2,266.6L480.8,267.2L485.7,262.9L487.8,260.0L487.6,257.9L486.3,256.6L491.4,251.0L492.8,233.3L486.9,219.7L489.4,213.5L489.9,208.7"/><path class="river part-shape" data-part="さ" d="M516.6,259.9L514.7,256.0L514.8,250.7L511.3,249.2"/><path class="river part-shape" data-part="さ" d="M507.5,244.7L507.2,239.8L505.5,237.7L503.4,230.9L501.1,229.8L500.2,228.0L500.8,223.0L500.0,220.8L495.9,213.2L489.9,208.7"/><path class="river part-shape" data-part="さ" d="M489.9,208.7L491.2,202.9L494.0,200.6L499.5,198.4L501.3,196.5L501.6,193.7L503.3,190.9L503.5,185.7L500.2,179.8L499.7,175.7L498.2,173.4L494.8,172.6L488.2,178.4L486.0,179.1L485.4,181.0L480.4,185.9L477.4,186.7L474.2,185.2L471.4,179.3L469.9,170.0L472.0,168.3L472.2,166.0L470.1,164.1L469.6,162.3L476.8,153.0"/><path class="river part-shape" data-part="さ" d="M493.5,130.8L493.5,121.0L490.4,118.1L489.9,116.1L492.5,113.1L492.2,110.8L487.5,111.3L485.5,110.1L474.8,98.0L474.7,93.5L473.6,91.2L475.1,85.9L478.0,81.4L478.2,73.5"/><path class="river part-shape" data-part="さ" d="M493.7,342.4L496.4,350.7"/><path class="river part-shape" data-part="さ" d="M489.8,340.2L490.4,340.5"/><path class="river part-shape" data-part="さ" d="M479.4,334.2L483.0,333.0L487.6,333.7L488.5,336.8L486.3,338.8L487.6,339.1"/><path class="river part-shape" data-part="せ" d="M438.9,522.3L447.4,512.4L455.1,509.0"/><path class="river part-shape" data-part="せ" d="M491.9,500.1L478.0,501.2L474.1,500.7"/><path class="river part-shape" data-part="せ" d="M523.0,525.8L524.0,527.7L523.8,530.5"/><path class="river part-shape" data-part="せ" d="M523.0,525.8L527.3,528.0"/><path class="river part-shape" data-part="せ" d="M455.1,509.0L456.2,504.3L460.0,501.9L464.1,500.7L474.1,500.7"/><path class="river part-shape" data-part="せ" d="M491.9,500.1L494.9,500.6L503.9,509.6L511.4,512.6L515.1,519.3L523.0,525.8"/><path class="river part-shape" data-part="せ" d="M413.1,460.9L413.5,458.7L410.9,458.5L400.5,465.0L397.2,469.9L398.4,476.4L401.5,479.3L403.4,483.0L403.4,488.4L401.0,495.4L404.1,506.5L411.4,514.6L412.9,517.8L419.4,518.4L422.4,520.7L426.0,521.0L428.1,522.2L432.4,522.0L436.6,523.1L438.9,522.3"/><path class="river part-shape" data-part="そ" d="M433.5,431.9L436.3,431.1L438.4,428.4L437.2,426.7L439.1,419.9L437.8,412.3L438.0,407.0"/><path class="river part-shape" data-part="そ" d="M413.4,347.4L405.6,342.1L401.0,337.2L395.7,334.5L377.2,336.3L365.3,340.0L358.7,345.9L355.7,355.8L350.4,361.9L344.2,366.1L341.0,371.8L338.0,375.0L337.4,387.0L334.8,391.4L331.6,392.8L324.6,399.9L318.6,400.8L315.8,404.1L313.4,404.3L313.3,407.4L311.7,409.2L308.6,409.4"/><path class="river part-shape" data-part="そ" d="M438.0,407.0L438.8,404.0L437.5,398.8L429.9,393.0L428.2,380.3"/><path class="river part-shape" data-part="そ" d="M428.2,380.4L427.4,377.6L427.6,366.7L424.0,359.8L425.2,355.0L424.6,352.5L422.4,350.4L413.4,347.4"/><path class="river part-shape" data-part="た" d="M229.8,262.6L229.0,257.4L230.1,255.6"/><path class="river part-shape" data-part="た" d="M149.5,212.0L146.5,209.9"/><path class="river part-shape" data-part="た" d="M245.1,308.1L243.4,310.7L243.4,314.6"/><path class="river part-shape" data-part="た" d="M245.1,308.1L245.2,313.3"/><path class="river part-shape" data-part="た" d="M246.9,304.6L243.5,306.8L237.8,306.6"/><path class="river part-shape" data-part="た" d="M246.9,304.6L245.1,308.1"/><path class="river part-shape" data-part="た" d="M247.9,302.9L248.1,305.2L246.8,307.4L249.3,311.7L249.3,314.1"/><path class="river part-shape" data-part="た" d="M86.5,269.8L87.9,266.4L85.9,258.6L89.3,256.6L91.7,256.9L96.5,255.0L99.5,251.4L101.4,250.6L101.8,248.1L104.0,247.3L108.0,243.6L112.3,236.8L115.1,235.7L121.8,230.3L127.2,229.5L130.5,226.7L145.5,221.1L149.8,215.0L149.5,212.0L151.0,211.0L150.1,210.0L151.3,208.9L150.6,208.7L154.0,204.9"/><path class="river part-shape" data-part="た" d="M229.8,262.6L229.5,266.3L231.1,269.0L233.9,269.3L240.8,273.1L245.4,273.4L249.3,278.7L249.9,281.9L248.8,291.7L249.6,296.8L246.9,304.6"/><path class="river part-shape" data-part="た" d="M146.5,209.9L146.2,208.9L147.6,206.6L154.3,203.8"/><path class="river part-shape" data-part="た" d="M154.0,204.9L154.3,203.8"/><path class="river part-shape" data-part="た" d="M154.3,203.8L156.6,201.5"/><path class="river part-shape" data-part="た" d="M156.6,201.5L156.7,203.2L154.0,204.9"/><path class="river part-shape" data-part="た" d="M156.6,201.5L158.4,199.3L173.1,195.7L182.4,196.4L188.0,205.5L193.6,210.8L193.0,214.8L199.4,221.4L202.3,226.4L208.2,230.5L210.1,237.5L212.0,237.8L220.2,245.5L229.8,251.6L230.6,253.5L230.1,255.7"/></g><g id="markers"><g class="marker m-grid" data-part="あ" data-kind="緯線" transform="translate(46.7,354.7)"><circle class="hit" r="16"/><rect class="dot" x="-2.6" y="-2.6" width="5.2" height="5.2"/></g><g class="marker m-grid" data-part="い" data-kind="経線" transform="translate(186.7,616.0)"><circle class="hit" r="16"/><rect class="dot" x="-2.6" y="-2.6" width="5.2" height="5.2"/></g><g class="marker m-grid" data-part="う" data-kind="経度" transform="translate(466.7,653.3)"><circle class="hit" r="16"/><rect class="dot" x="-2.6" y="-2.6" width="5.2" height="5.2"/></g><g class="marker m-sea" data-part="え" data-kind="湾" transform="translate(214.7,336.0)"><circle class="hit" r="16"/><circle class="dot" r="5"/></g><g class="marker m-sea" data-part="お" data-kind="海" transform="translate(326.7,32.7)"><circle class="hit" r="16"/><circle class="dot" r="5"/></g><g class="marker m-sea" data-part="か" data-kind="海" transform="translate(634.7,429.3)"><circle class="hit" r="16"/><circle class="dot" r="5"/></g><g class="marker m-sea" data-part="き" data-kind="海流" transform="translate(270.7,522.7)"><circle class="hit" r="16"/><circle class="dot" r="5"/></g><g class="marker m-strait" data-part="く" data-kind="海峡" transform="translate(134.4,19.1)"><circle class="hit" r="16"/><rect class="dot" x="-3.3" y="-3.3" width="6.6" height="6.6" transform="rotate(45)"/></g><g class="marker m-island" data-part="け" data-kind="諸島" transform="translate(31.7,90.8)"><circle class="hit" r="16"/><circle class="dot" r="4"/></g><g class="marker m-island" data-part="こ" data-kind="島" transform="translate(623.5,536.7)"><circle class="hit" r="16"/><circle class="dot" r="4"/></g><g class="marker m-river" data-part="さ" data-kind="川" transform="translate(476.0,140.0)"><circle class="hit" r="16"/><circle class="dot" r="3"/></g><g class="marker m-lake" data-part="し" data-kind="湖" transform="translate(494.7,364.0)"><circle class="hit" r="16"/><circle class="dot" r="4"/></g><g class="marker m-lake" data-part="す" data-kind="湖" transform="translate(462.0,415.3)"><circle class="hit" r="16"/><circle class="dot" r="4"/></g><g class="marker m-river" data-part="せ" data-kind="川" transform="translate(494.7,504.0)"><circle class="hit" r="16"/><circle class="dot" r="3"/></g><g class="marker m-river" data-part="そ" data-kind="川" transform="translate(345.3,359.3)"><circle class="hit" r="16"/><circle class="dot" r="3"/></g><g class="marker m-river" data-part="た" data-kind="川" transform="translate(233.3,266.0)"><circle class="hit" r="16"/><circle class="dot" r="3"/></g><g class="marker m-lake" data-part="ち" data-kind="湖" transform="translate(318.3,231.5)"><circle class="hit" r="16"/><circle class="dot" r="4"/></g><g class="marker m-mountain" data-part="つ" data-kind="山脈" transform="translate(149.3,51.3)"><circle class="hit" r="16"/><polygon class="dot" points="0,-5 4.3,3 -4.3,3"/></g><g class="marker m-land" data-part="て" data-kind="高原" transform="translate(550.7,266.0)"><circle class="hit" r="16"/><circle class="dot" r="4"/></g><g class="marker m-land" data-part="と" data-kind="盆地" transform="translate(392.0,364.0)"><circle class="hit" r="16"/><circle class="dot" r="4"/></g><g class="marker m-mountain" data-part="な" data-kind="山" transform="translate(534.9,356.1)"><circle class="hit" r="16"/><polygon class="dot" points="0,-5 4.3,3 -4.3,3"/></g><g class="marker m-mountain" data-part="に" data-kind="山" transform="translate(535.3,383.3)"><circle class="hit" r="16"/><polygon class="dot" points="0,-5 4.3,3 -4.3,3"/></g><g class="marker m-land" data-part="ぬ" data-kind="砂漠" transform="translate(392.0,578.7)"><circle class="hit" r="16"/><circle class="dot" r="4"/></g><g class="marker m-land" data-part="ね" data-kind="砂漠" transform="translate(322.0,578.7)"><circle class="hit" r="16"/><circle class="dot" r="4"/></g><g class="marker m-land" data-part="の" data-kind="砂漠" transform="translate(280.0,140.0)"><circle class="hit" r="16"/><circle class="dot" r="4"/></g><g class="marker m-land" data-part="は" data-kind="地方" transform="translate(280.0,214.7)"><circle class="hit" r="16"/><circle class="dot" r="4"/></g><g class="marker m-land" data-part="ひ" data-kind="地方" transform="translate(65.3,121.3)"><circle class="hit" r="16"/><circle class="dot" r="4"/></g><g class="marker m-land" data-part="ふ" data-kind="海岸" transform="translate(135.3,309.9)"><circle class="hit" r="16"/><circle class="dot" r="4"/></g><g class="marker m-land" data-part="へ" data-kind="海岸" transform="translate(182.0,308.0)"><circle class="hit" r="16"/><circle class="dot" r="4"/></g><g class="marker m-land" data-part="ほ" data-kind="海岸" transform="translate(219.3,298.7)"><circle class="hit" r="16"/><circle class="dot" r="4"/></g><g class="marker m-land" data-part="ま" data-kind="岬" transform="translate(373.3,679.7)"><circle class="hit" r="16"/><circle class="dot" r="4"/></g><g class="marker m-city" data-part="1" data-kind="都市" transform="translate(122.7,37.1)"><circle class="hit" r="16"/><circle class="dot" r="4"/></g><g class="marker m-city" data-part="2" data-kind="都市" transform="translate(115.8,41.3)"><circle class="hit" r="16"/><circle class="dot" r="4"/></g><g class="marker m-city" data-part="3" data-kind="都市" transform="translate(23.8,217.6)"><circle class="hit" r="16"/><circle class="dot" r="4"/></g><g class="marker m-city" data-part="4" data-kind="都市" transform="translate(85.9,295.9)"><circle class="hit" r="16"/><circle class="dot" r="4"/></g><g class="marker m-city" data-part="5" data-kind="都市" transform="translate(149.1,304.8)"><circle class="hit" r="16"/><circle class="dot" r="4"/></g><g class="marker m-city" data-part="6" data-kind="都市" transform="translate(184.9,302.4)"><circle class="hit" r="16"/><circle class="dot" r="4"/></g><g class="marker m-city" data-part="7" data-kind="都市" transform="translate(256.6,270.1)"><circle class="hit" r="16"/><circle class="dot" r="4"/></g><g class="marker m-city" data-part="8" data-kind="都市" transform="translate(215.2,11.7)"><circle class="hit" r="16"/><circle class="dot" r="4"/></g><g class="marker m-city" data-part="9" data-kind="都市" transform="translate(281.6,11.1)"><circle class="hit" r="16"/><circle class="dot" r="4"/></g><g class="marker m-city" data-part="10" data-kind="都市" transform="translate(309.8,47.7)"><circle class="hit" r="16"/><circle class="dot" r="4"/></g><g class="marker m-city" data-part="11" data-kind="都市" transform="translate(465.9,63.5)"><circle class="hit" r="16"/><circle class="dot" r="4"/></g><g class="marker m-city" data-part="12" data-kind="都市" transform="translate(478.2,74.3)"><circle class="hit" r="16"/><circle class="dot" r="4"/></g><g class="marker m-city" data-part="13" data-kind="都市" transform="translate(490.3,209.5)"><circle class="hit" r="16"/><circle class="dot" r="4"/></g><g class="marker m-city" data-part="14" data-kind="都市" transform="translate(548.3,270.5)"><circle class="hit" r="16"/><circle class="dot" r="4"/></g><g class="marker m-city" data-part="15" data-kind="都市" transform="translate(490.7,351.7)"><circle class="hit" r="16"/><circle class="dot" r="4"/></g><g class="marker m-city" data-part="16" data-kind="都市" transform="translate(530.3,366.7)"><circle class="hit" r="16"/><circle class="dot" r="4"/></g><g class="marker m-city" data-part="17" data-kind="都市" transform="translate(553.3,418.3)"><circle class="hit" r="16"/><circle class="dot" r="4"/></g><g class="marker m-city" data-part="18" data-kind="都市" transform="translate(421.8,349.8)"><circle class="hit" r="16"/><circle class="dot" r="4"/></g><g class="marker m-city" data-part="19" data-kind="都市" transform="translate(294.2,318.5)"><circle class="hit" r="16"/><circle class="dot" r="4"/></g><g class="marker m-city" data-part="20" data-kind="都市" transform="translate(329.6,395.1)"><circle class="hit" r="16"/><circle class="dot" r="4"/></g><g class="marker m-city" data-part="21" data-kind="都市" transform="translate(448.5,599.2)"><circle class="hit" r="16"/><circle class="dot" r="4"/></g><g class="marker m-city" data-part="22" data-kind="都市" transform="translate(358.6,671.3)"><circle class="hit" r="16"/><circle class="dot" r="4"/></g><g class="marker m-city" data-part="23" data-kind="都市" transform="translate(630.1,530.9)"><circle class="hit" r="16"/><circle class="dot" r="4"/></g><g class="marker m-city" data-part="24" data-kind="都市" transform="translate(589.4,246.5)"><circle class="hit" r="16"/><circle class="dot" r="4"/></g></g></svg>