<svg xmlns="http://www.w3.org/2000/svg" viewBox="0 0 620 837" data-region="samerica"><style>.land{fill:#eef1ec;stroke:#94a3ae;stroke-width:.7;vector-effect:non-scaling-stroke}.river{fill:none;stroke:#8db8da;stroke-width:1.3;stroke-linecap:round;vector-effect:non-scaling-stroke}.grid{stroke:#d3dae1;stroke-width:.5}.grid-q{stroke:#9aa7b5;stroke-width:1.1;stroke-dasharray:6 4}.marker .hit{fill:#000;fill-opacity:0;pointer-events:all}.marker .dot{fill:#3a3a3c;stroke:#fff;stroke-width:1.2}.m-city .dot{fill:#1c1c1e}.m-river .dot{fill:#2f6690}.m-sea .dot{fill:#fff;stroke:#5aa0c6;stroke-width:2}.m-strait .dot{fill:#1a5276;stroke:#fff;stroke-width:1}.m-mountain .dot{fill:#8a5a2f;stroke:#fff;stroke-width:1}.m-lake .dot{fill:#7ec8e3}.m-island .dot{fill:#3f9142}.m-grid .dot{fill:#8e8e93;stroke:#fff;stroke-width:1}.m-land .dot{fill:#c9a878}</style><g id="grid"><line class="grid" x1="20.7" y1="0" x2="20.7" y2="837"/><line class="grid" x1="72.3" y1="0" x2="72.3" y2="837"/><line class="grid" x1="124.0" y1="0" x2="124.0" y2="837"/><line class="grid" x1="175.7" y1="0" x2="175.7" y2="837"/><line class="grid" x1="227.3" y1="0" x2="227.3" y2="837"/><line class="grid" x1="279.0" y1="0" x2="279.0" y2="837"/><line class="grid" x1="330.7" y1="0" x2="330.7" y2="837"/><line class="grid" x1="382.3" y1="0" x2="382.3" y2="837"/><line class="grid" x1="434.0" y1="0" x2="434.0" y2="837"/><line class="grid" x1="485.7" y1="0" x2="485.7" y2="837"/><line class="grid" x1="537.3" y1="0" x2="537.3" y2="837"/><line class="grid" x1="589.0" y1="0" x2="589.0" y2="837"/><line class="grid" x1="0" y1="826.7" x2="620" y2="826.7"/><line class="grid" x1="0" y1="775.0" x2="620" y2="775.0"/><line class="grid" x1="0" y1="723.3" x2="620" y2="723.3"/><line class="grid" x1="0" y1="671.7" x2="620" y2="671.7"/><line class="grid" x1="0" y1="620.0" x2="620" y2="620.0"/><line class="grid" x1="0" y1="568.3" x2="620" y2="568.3"/><line class="grid" x1="0" y1="516.7" x2="620" y2="516.7"/><line class="grid" x1="0" y1="465.0" x2="620" y2="465.0"/><line class="grid" x1="0" y1="413.3" x2="620" y2="413.3"/><line class="grid" x1="0" y1="361.7" x2="620" y2="361.7"/><line class="grid" x1="0" y1="310.0" x2="620" y2="310.0"/><line class="grid" x1="0" y1="258.3" x2="620" y2="258.3"/><line class="grid" x1="0" y1="206.7" x2="620" y2="206.7"/><line class="grid" x1="0" y1="155.0" x2="620" y2="155.0"/><line class="grid" x1="0" y1="103.3" x2="620" y2="103.3"/><line class="grid" x1="0" y1="51.7" x2="620" y2="51.7"/><line class="grid" x1="0" y1="0.0" x2="620" y2="0.0"/><line class="grid-q part-shape" data-part="あ" x1="0" y1="155.0" x2="620" y2="155.0"/><line class="grid-q part-shape" data-part="い" x1="0" y1="258.3" x2="620" y2="258.3"/><line class="grid-q part-shape" data-part="う" x1="0" y1="465.0" x2="620" y2="465.0"/><line class="grid-q part-shape" data-part="え" x1="537.3" y1="0" x2="537.3" y2="837"/></g><g id="land"><path class="land" fill-rule="evenodd" d="M228.4,129.7L226.7,128.7L227.0,128.0L228.4,129.7Z"/><path class="land" fill-rule="evenodd" d="M299.7,70.0L298.0,70.6L299.7,70.0Z"/><path class="land" fill-rule="evenodd" d="M283.7,823.7L291.2,823.8L282.7,825.7L281.5,824.9L283.7,823.7Z"/><path class="land part-shape" data-part="す" fill-rule="evenodd" d="M241.3,825.2L241.5,802.4L245.5,806.8L243.5,806.6L243.0,808.7L246.3,809.2L247.9,811.8L255.3,816.8L266.2,821.8L277.2,823.3L274.1,825.8L263.4,827.0L257.0,825.7L241.3,825.2Z"/><path class="land" fill-rule="evenodd" d="M311.3,663.1L310.8,663.7L309.0,662.2L311.3,663.1Z"/><path class="land" fill-rule="evenodd" d="M328.0,506.5L331.8,507.3L339.1,512.1L347.6,516.2L351.7,517.2L355.6,520.9L355.8,522.2L349.5,530.2L349.4,533.5L344.9,538.7L345.1,540.6L349.6,540.2L360.5,542.2L365.8,542.2L367.5,543.1L370.3,540.7L374.9,541.6L377.9,537.4L380.9,536.6L384.1,533.7L385.7,530.2L386.3,522.6L392.5,522.6L393.8,523.6L396.1,529.3L395.6,536.1L394.3,538.6L389.3,541.7L384.1,543.0L381.3,546.3L374.8,549.8L375.2,551.6L373.1,551.5L362.3,564.1L355.0,570.7L352.7,574.4L353.3,577.2L350.8,583.8L351.4,585.1L349.4,588.2L350.1,591.6L349.1,594.8L349.6,598.9L348.7,600.1L346.9,600.5L345.7,606.2L347.3,611.7L345.9,612.7L348.4,616.7L356.0,620.2L359.9,623.7L360.0,625.2L358.0,627.4L358.2,630.6L360.9,633.4L364.3,633.9L365.1,639.1L357.6,648.4L356.0,651.9L349.5,655.5L332.4,659.7L319.2,661.3L311.6,660.9L306.5,659.3L307.0,663.8L309.4,665.2L308.1,665.3L309.2,666.1L308.6,669.9L307.0,670.6L305.8,673.7L305.9,676.4L307.5,678.6L305.9,680.9L300.1,683.1L293.2,683.7L280.5,680.1L281.0,679.5L280.3,679.3L278.3,680.0L277.4,683.1L279.1,693.4L283.8,695.0L283.4,696.6L285.0,696.8L288.3,696.4L288.7,695.1L287.0,694.6L291.4,693.5L293.2,695.3L293.3,699.5L292.5,700.7L289.0,701.4L284.3,697.6L279.3,699.2L278.7,700.2L286.0,702.3L280.7,704.6L276.4,708.6L276.3,715.9L275.3,717.9L272.3,719.8L272.4,723.4L266.7,723.0L262.6,725.2L258.9,726.0L252.1,734.2L253.1,738.2L260.6,744.1L270.2,745.6L271.4,747.6L271.0,749.9L269.8,751.2L266.3,752.5L269.3,752.5L270.6,753.7L253.5,764.2L251.3,767.2L250.2,773.5L248.9,774.8L245.3,776.1L241.1,772.4L241.2,774.3L237.9,775.0L241.8,775.1L243.6,776.6L238.3,779.0L236.1,783.9L234.0,785.6L235.6,785.3L237.1,791.0L232.9,791.4L238.0,792.3L243.9,798.8L227.7,795.8L207.5,795.6L202.5,790.9L203.5,788.4L202.8,786.3L203.8,784.4L203.2,782.0L201.4,781.3L194.8,782.6L191.2,776.3L191.5,772.9L190.4,770.7L191.6,767.9L194.9,767.8L196.0,764.8L200.3,762.5L200.4,759.7L203.0,758.1L203.6,756.7L201.3,753.1L203.1,749.1L207.6,746.1L207.3,742.3L209.8,740.4L208.0,735.3L210.5,733.2L209.2,732.0L209.3,729.3L211.7,728.6L213.3,725.7L210.8,723.1L206.2,722.3L206.0,721.0L214.3,720.9L215.3,718.8L214.8,717.6L208.5,717.0L208.6,714.1L210.0,712.3L207.6,706.3L209.2,705.1L205.2,702.6L205.2,698.3L206.1,697.2L205.5,694.9L209.2,692.8L207.6,688.7L207.4,678.8L209.7,675.6L208.5,673.5L210.2,671.9L209.6,667.9L211.4,667.6L212.9,660.7L217.5,658.6L218.5,657.2L215.3,648.5L214.9,643.8L215.8,641.8L215.0,639.1L216.4,635.7L219.6,634.4L219.9,633.3L223.2,631.0L223.0,625.4L221.6,622.6L223.3,621.5L224.3,617.2L226.8,612.8L228.9,612.0L228.4,606.9L229.2,602.3L226.5,601.4L227.1,598.1L223.6,589.9L224.7,588.6L222.7,587.4L221.3,584.6L222.0,580.2L224.1,578.9L223.7,577.7L225.8,572.1L227.8,572.0L228.9,570.1L227.7,569.1L228.1,565.9L227.1,561.3L229.1,559.1L230.9,551.9L235.9,546.9L239.3,538.9L241.9,538.8L244.7,537.1L241.9,531.9L243.7,528.6L241.9,521.0L244.0,517.6L242.2,514.1L245.4,510.4L254.7,506.7L258.2,496.0L256.3,494.2L261.3,487.9L264.9,486.8L266.4,483.6L271.0,486.7L279.1,486.8L283.1,488.0L286.0,494.2L290.1,486.0L301.4,485.7L303.5,488.7L307.8,492.0L312.1,497.9L320.0,503.8L328.0,506.5Z"/><path class="land" fill-rule="evenodd" d="M312.9,82.3L311.5,82.5L311.2,81.7L311.9,80.9L313.2,81.6L312.9,82.3Z"/><path class="land" fill-rule="evenodd" d="M312.6,76.7L311.4,75.4L312.6,76.7Z"/><path class="land" fill-rule="evenodd" d="M196.1,39.3L194.6,41.5L189.3,41.6L189.3,40.3L190.9,39.4L193.9,39.7L195.7,38.1L196.1,39.3Z"/><path class="land" fill-rule="evenodd" d="M197.2,36.1L195.7,36.0L197.2,36.1Z"/><path class="land" fill-rule="evenodd" d="M195.9,26.6L198.9,27.6L194.7,27.1L195.9,26.6Z"/><path class="land" fill-rule="evenodd" d="M183.9,28.8L183.1,29.1L187.0,25.5L186.5,23.6L187.6,23.4L187.7,25.4L183.9,28.8Z"/><path class="land" fill-rule="evenodd" d="M185.4,23.5L183.2,23.6L182.8,22.3L185.4,23.5Z"/><path class="land" fill-rule="evenodd" d="M177.3,21.8L175.9,20.0L173.4,19.0L174.3,17.9L172.4,13.8L177.3,21.8Z"/><path class="land" fill-rule="evenodd" d="M168.8,16.0L164.9,14.4L165.2,13.7L168.8,16.0Z"/><path class="land" fill-rule="evenodd" d="M181.6,9.6L180.3,10.7L180.6,9.2L181.6,9.6Z"/><path class="land" fill-rule="evenodd" d="M148.2,7.8L147.2,8.6L147.9,9.1L148.6,8.1L149.2,8.9L149.1,13.0L147.0,12.9L144.7,8.1L148.2,7.8Z"/><path class="land" fill-rule="evenodd" d="M172.5,8.3L170.5,8.9L171.4,7.6L168.2,3.2L172.5,8.3Z"/><path class="land" fill-rule="evenodd" d="M147.3,3.0L147.3,5.5L144.2,7.4L143.2,5.2L140.2,3.8L142.2,3.6L141.6,2.5L143.0,0.0L145.0,0.0L147.3,3.0Z"/><path class="land" fill-rule="evenodd" d="M164.0,0.0L163.6,3.6L162.0,1.9L163.1,1.8L163.6,0.0Z"/><path class="land" fill-rule="evenodd" d="M301.4,73.6L301.0,73.1L301.4,73.6Z"/><path class="land" fill-rule="evenodd" d="M42.9,78.3L42.1,79.7L43.1,77.0L42.9,78.3Z"/><path class="land" fill-rule="evenodd" d="M41.8,73.1L42.8,70.7L41.8,73.1Z"/><path class="land" fill-rule="evenodd" d="M29.3,74.2L29.6,72.6L33.0,72.7L35.9,67.7L38.3,67.5L37.7,68.6L40.0,68.7L40.3,71.1L38.5,76.4L39.2,77.3L38.3,79.4L38.1,86.5L32.2,92.8L32.1,94.1L28.5,94.1L29.3,74.2Z"/><path class="land" fill-rule="evenodd" d="M303.3,488.1L301.3,485.6L290.1,486.0L286.0,494.2L283.1,488.0L279.1,486.8L271.0,486.7L266.4,483.6L264.9,486.8L261.3,487.9L256.3,494.2L252.3,494.9L249.2,494.2L249.2,490.8L246.1,481.7L246.0,478.4L243.5,474.8L242.2,474.3L243.0,471.5L240.1,469.3L240.9,468.2L240.2,465.9L242.2,464.7L240.8,462.1L243.2,459.1L238.0,454.3L236.2,445.8L236.7,444.9L234.4,443.7L231.0,436.6L237.5,430.3L237.3,428.6L239.3,427.2L235.4,425.2L233.3,420.0L235.9,415.8L233.8,413.0L234.0,411.2L239.0,404.8L236.9,399.7L237.8,397.8L237.9,391.4L240.9,387.5L231.7,371.5L239.2,372.1L241.6,373.1L244.8,371.7L247.3,368.9L250.9,368.7L254.0,365.7L262.7,360.6L273.2,359.6L274.9,358.7L275.9,363.2L274.4,366.9L275.7,372.3L275.0,374.5L277.1,379.7L278.1,379.7L279.1,382.1L284.0,384.9L285.0,386.9L290.0,387.8L292.6,387.3L296.1,389.4L299.0,389.2L302.1,392.6L308.8,394.3L312.2,398.1L319.5,397.7L325.4,400.8L326.5,403.2L325.8,404.9L327.6,409.4L327.8,414.3L324.6,414.3L328.2,418.3L328.9,426.4L347.8,426.6L346.4,430.9L347.2,436.4L351.4,439.3L353.1,439.3L356.5,446.6L353.6,453.8L354.3,455.1L350.0,462.4L352.5,465.2L349.7,466.7L349.5,463.1L340.1,457.6L330.6,457.7L312.5,461.3L310.9,465.6L307.1,470.8L307.1,476.0L303.3,488.1Z"/><path class="land" fill-rule="evenodd" d="M355.4,570.3L362.3,564.1L373.1,551.5L375.2,551.6L374.8,549.8L381.3,546.3L384.1,543.0L389.3,541.7L394.3,538.6L395.6,536.1L396.1,529.3L393.8,523.6L392.5,522.6L386.3,522.6L388.2,517.9L389.4,507.7L390.2,506.8L386.2,504.4L380.3,506.5L378.0,505.8L375.6,494.8L376.0,492.6L374.1,489.3L369.5,488.4L367.4,486.5L365.5,488.1L362.3,488.5L354.2,486.7L352.6,487.1L351.5,486.1L353.1,475.3L349.7,466.7L352.8,464.8L350.0,462.4L354.3,455.1L353.6,453.8L356.5,446.6L353.1,439.3L351.4,439.3L347.2,436.4L346.4,430.9L347.8,426.6L328.9,426.4L328.2,418.3L324.6,414.3L327.8,414.3L327.6,409.4L325.8,404.9L326.5,403.2L325.4,400.8L319.5,397.7L312.2,398.1L308.8,394.3L302.1,392.6L299.0,389.2L296.1,389.4L292.6,387.3L290.0,387.8L285.0,386.9L284.0,384.9L279.1,382.1L278.1,379.7L277.1,379.7L275.0,374.5L275.7,372.3L274.4,366.9L275.9,363.2L274.9,358.7L273.2,359.6L262.7,360.6L254.0,365.7L250.9,368.7L247.3,368.9L244.8,371.7L241.6,373.1L235.3,371.5L227.7,371.3L223.8,372.7L221.8,371.5L220.7,372.1L220.8,359.8L221.7,355.9L214.5,361.3L204.8,361.7L204.9,360.1L202.7,356.6L194.2,355.6L196.6,352.6L196.6,351.3L190.7,344.6L188.3,340.3L188.9,338.8L186.0,336.4L186.4,334.6L188.9,333.9L188.0,331.5L188.5,329.7L194.9,325.1L193.9,321.4L196.5,316.6L197.5,311.3L208.3,304.9L217.3,303.3L219.1,301.5L223.2,301.2L224.9,302.8L227.6,302.8L233.5,270.7L231.3,266.2L231.1,263.6L226.6,259.8L226.8,252.4L232.8,250.8L234.7,251.9L236.1,251.5L236.0,249.4L234.4,247.5L228.9,247.4L228.9,240.7L232.1,240.0L246.2,240.6L245.4,239.3L246.0,237.8L248.7,240.3L254.2,236.5L257.1,240.7L257.5,246.1L259.6,245.7L265.5,250.6L272.0,248.2L273.6,249.6L273.3,251.2L274.1,251.2L277.9,246.9L287.2,242.5L289.2,238.4L295.6,235.4L295.6,233.4L288.9,232.5L289.2,230.7L287.1,225.2L287.0,221.3L282.4,216.9L281.2,214.1L283.4,215.6L287.3,215.7L289.1,217.7L296.2,217.6L300.0,221.2L301.1,221.2L302.1,220.4L302.6,216.8L305.8,215.4L308.4,216.0L311.9,215.0L317.4,211.7L320.3,211.5L324.4,207.2L323.0,204.6L328.2,204.0L330.8,205.8L329.1,211.5L333.7,213.1L333.4,214.7L335.3,217.7L332.2,221.3L332.4,223.7L330.7,229.8L331.8,233.9L333.2,234.8L333.2,238.7L338.6,244.1L342.4,245.9L346.0,245.1L346.1,243.5L347.8,241.9L351.0,242.6L351.5,241.3L355.5,240.7L357.9,238.3L360.4,237.5L363.4,238.9L367.0,238.3L372.4,239.1L372.9,237.3L370.6,235.0L372.4,232.3L374.8,233.5L382.6,231.5L385.8,234.3L391.3,236.4L395.1,234.0L397.7,235.1L399.5,234.2L400.6,235.5L403.4,235.8L406.6,233.3L409.9,225.5L418.0,213.8L418.9,213.8L421.4,216.0L426.6,236.3L427.7,236.6L429.3,239.4L434.4,241.2L435.0,246.3L431.0,249.7L426.2,256.0L420.7,259.2L419.5,262.4L416.4,266.2L416.2,268.9L414.1,270.5L413.5,272.5L411.0,272.4L406.5,274.4L411.3,275.3L413.9,274.7L424.8,268.0L425.3,269.1L424.5,269.9L426.9,276.5L429.8,279.2L434.0,277.3L436.9,278.2L441.1,276.2L437.8,285.8L439.6,284.2L442.2,278.1L444.4,277.2L447.3,273.7L449.9,275.0L451.1,273.6L449.8,272.7L450.0,270.2L453.5,266.0L459.2,265.3L460.7,266.2L460.9,264.8L467.0,266.4L469.0,268.4L473.1,269.0L479.0,272.3L480.9,272.3L482.3,276.1L484.9,273.5L488.5,276.2L488.0,276.9L489.3,276.4L490.4,279.5L488.2,281.7L489.2,282.9L491.5,280.7L492.1,282.8L490.6,283.2L489.9,284.9L488.5,291.4L491.5,288.8L493.6,283.9L494.9,284.1L494.0,287.4L496.7,285.0L501.6,284.2L502.4,282.9L507.0,283.8L514.1,287.2L517.9,286.7L522.0,288.5L532.4,287.2L537.7,287.9L553.1,296.7L557.5,301.9L561.9,305.8L565.2,307.0L566.5,309.1L572.6,311.0L578.9,310.6L584.0,311.7L586.6,315.9L591.0,333.6L590.7,340.7L585.5,353.7L581.1,358.6L579.8,358.4L579.9,360.1L574.6,366.7L570.7,368.6L566.4,372.7L564.7,376.2L564.6,374.6L561.2,383.4L555.5,391.1L552.8,392.2L552.6,390.2L550.9,388.8L549.2,390.5L550.1,391.7L546.7,398.7L547.8,399.0L547.2,403.5L547.6,404.0L548.3,403.3L547.1,409.8L548.9,422.3L545.6,435.8L546.1,441.3L540.9,446.9L539.6,460.6L537.3,462.3L533.2,470.9L529.2,474.4L527.5,477.8L526.5,480.6L527.0,485.7L519.7,488.9L516.9,491.7L517.3,493.8L516.2,495.5L506.8,495.7L504.7,493.2L503.8,493.9L504.0,495.9L497.0,497.0L496.3,496.6L499.3,496.1L497.4,495.1L489.4,496.6L489.0,498.1L490.1,498.8L482.3,502.2L480.9,504.3L475.6,504.2L466.4,508.8L454.8,517.0L455.6,517.4L455.4,518.4L452.6,521.0L452.7,519.9L450.5,519.5L449.7,521.2L447.1,520.5L447.5,521.7L450.5,522.8L449.0,525.1L447.8,525.4L448.7,526.3L448.3,528.9L446.9,529.8L447.9,531.2L447.7,534.3L448.9,539.4L448.0,543.1L448.3,548.4L446.4,553.6L441.5,556.7L436.6,561.8L430.9,572.7L424.5,581.3L412.9,590.2L412.7,587.2L414.4,587.6L416.6,586.7L420.9,583.6L422.0,579.9L423.9,579.6L424.3,577.7L426.9,575.6L426.6,572.7L428.0,572.9L428.2,571.0L423.4,572.1L420.6,568.7L420.8,570.9L422.0,572.1L420.7,576.1L420.0,575.3L418.4,579.7L413.6,582.6L411.3,587.8L412.0,590.7L409.8,593.5L406.6,600.8L399.2,607.0L397.5,606.1L397.5,601.1L401.7,596.6L396.8,593.2L395.1,589.6L390.4,587.5L386.6,583.7L380.5,581.6L376.1,577.1L374.0,579.0L372.0,579.5L371.5,576.4L363.4,569.4L360.4,569.8L359.5,571.3L355.4,570.3Z"/><path class="land" fill-rule="evenodd" d="M449.6,545.3L448.9,545.7L449.1,543.3L450.4,541.5L449.6,545.3Z"/><path class="land" fill-rule="evenodd" d="M448.6,531.1L447.8,530.0L449.1,528.8L448.6,531.1Z"/><path class="land" fill-rule="evenodd" d="M483.0,505.2L481.0,505.3L482.5,503.5L483.0,505.2Z"/><path class="land" fill-rule="evenodd" d="M494.7,497.5L492.3,497.8L493.5,496.8L494.7,497.5Z"/><path class="land" fill-rule="evenodd" d="M548.7,397.6L547.9,398.1L547.4,397.3L548.6,396.8L548.7,397.6Z"/><path class="land" fill-rule="evenodd" d="M550.3,393.7L551.1,391.4L551.8,392.6L550.3,393.7Z"/><path class="land" fill-rule="evenodd" d="M490.8,288.7L489.8,289.7L490.1,287.1L491.0,286.4L490.8,288.7Z"/><path class="land" fill-rule="evenodd" d="M486.9,272.0L485.5,272.5L485.9,271.4L486.9,272.0Z"/><path class="land" fill-rule="evenodd" d="M415.1,273.1L414.0,273.3L416.6,269.6L416.7,267.2L418.0,265.0L421.0,263.9L422.0,265.2L420.8,268.9L415.1,273.1Z"/><path class="land" fill-rule="evenodd" d="M437.8,260.7L443.1,260.0L450.6,261.4L448.8,267.6L446.0,271.0L446.1,272.7L443.9,274.0L442.5,272.9L441.9,274.9L439.1,274.0L438.3,276.0L436.0,276.8L433.3,275.9L428.8,276.8L426.1,271.1L426.5,270.0L428.0,269.7L426.7,269.5L425.8,267.7L427.3,261.2L431.4,259.5L437.8,260.7Z"/><path class="land" fill-rule="evenodd" d="M427.3,259.7L424.4,261.7L423.3,260.7L423.7,259.4L425.3,258.9L427.1,258.9L427.3,259.7Z"/><path class="land" fill-rule="evenodd" d="M439.7,259.5L435.8,259.3L439.1,257.5L440.5,258.3L439.7,259.5Z"/><path class="land" fill-rule="evenodd" d="M436.7,255.6L437.1,256.1L434.9,258.6L430.5,257.9L431.2,255.9L436.7,255.6Z"/><path class="land" fill-rule="evenodd" d="M429.6,256.9L429.4,258.4L427.6,257.8L430.1,252.2L430.6,255.7L429.6,256.9Z"/><path class="land" fill-rule="evenodd" d="M432.4,254.3L431.3,254.6L431.1,253.0L433.4,251.7L433.6,252.9L432.4,254.3Z"/><path class="land" fill-rule="evenodd" d="M430.9,238.3L429.3,238.6L428.9,236.3L430.5,236.2L430.9,238.3Z"/><path class="land" fill-rule="evenodd" d="M335.9,123.2L334.7,122.9L334.3,120.9L336.6,122.4L335.9,123.2Z"/><path class="land" fill-rule="evenodd" d="M241.5,802.4L241.3,825.2L232.6,825.2L230.2,823.7L227.0,824.8L224.4,824.1L222.2,824.7L207.7,822.5L207.4,821.8L208.7,820.8L210.7,821.5L213.3,820.4L216.2,820.9L219.1,819.7L220.1,819.9L220.1,821.3L224.1,821.8L218.4,817.5L218.4,815.1L220.7,814.5L220.1,813.5L221.8,812.5L223.4,816.2L220.8,816.4L221.8,817.7L225.6,820.3L230.0,819.5L235.1,822.1L237.2,820.5L227.5,817.5L225.8,815.2L226.4,813.5L233.6,811.2L234.0,810.3L231.1,809.5L223.9,809.9L222.6,808.1L222.8,806.9L226.0,805.4L223.4,803.4L228.0,804.2L233.4,800.7L235.9,802.6L239.8,801.6L241.5,802.4Z"/><path class="land" fill-rule="evenodd" d="M256.3,494.2L258.2,496.0L254.7,506.7L245.4,510.4L242.2,514.1L244.0,517.6L241.9,521.0L243.7,528.6L241.9,531.9L244.7,537.1L241.9,538.8L239.3,538.9L235.9,546.9L230.9,551.9L229.1,559.1L227.1,561.3L228.1,565.9L227.7,569.1L228.9,570.1L227.8,572.0L225.8,572.1L223.7,577.7L224.1,578.9L222.0,580.2L221.3,584.6L222.7,587.4L224.7,588.6L223.6,589.9L227.1,598.1L226.5,601.4L229.2,602.3L228.4,606.9L228.9,612.0L226.8,612.8L224.3,617.2L223.3,621.5L221.6,622.6L223.0,625.4L223.2,631.0L219.9,633.3L219.6,634.4L216.4,635.7L215.0,639.1L215.8,641.8L214.9,643.8L215.3,648.5L217.3,655.6L218.6,656.6L217.5,658.6L212.9,660.7L211.4,667.6L209.6,667.9L210.2,671.9L208.5,673.5L209.8,675.1L207.3,679.8L208.0,680.9L207.6,688.7L209.2,692.8L205.5,694.9L206.1,697.2L205.2,698.3L205.6,703.3L209.2,705.1L207.6,706.3L210.0,712.3L208.6,714.1L208.5,717.0L214.8,717.6L215.3,718.8L214.3,720.9L206.0,721.0L206.2,722.3L210.8,723.1L213.3,725.7L211.7,728.6L209.3,729.3L209.2,732.0L210.5,733.2L208.0,735.3L209.8,740.4L207.3,742.3L207.6,746.1L203.1,749.1L201.3,753.1L203.6,756.7L203.0,758.1L200.4,759.7L200.3,762.5L196.0,764.8L194.9,767.8L191.6,767.9L190.4,770.7L191.5,772.9L191.2,776.3L194.8,782.6L201.4,781.3L203.2,782.0L203.8,784.4L202.8,786.3L203.5,788.4L202.5,790.9L207.1,794.4L207.0,795.3L227.7,795.8L243.2,798.7L243.4,799.4L235.2,797.8L233.0,798.5L231.3,800.5L219.1,803.6L217.2,809.9L217.0,814.1L213.9,815.1L204.9,812.5L202.4,809.6L203.5,808.6L207.3,808.4L208.4,810.1L207.8,811.4L208.8,811.0L209.3,808.4L214.0,806.3L215.3,804.8L214.7,804.0L213.0,803.6L203.8,807.4L201.6,809.0L201.0,810.8L195.8,808.5L197.2,807.3L197.5,804.7L199.1,803.5L202.0,804.1L205.5,802.4L211.7,801.9L204.3,801.1L202.1,802.1L199.3,801.2L195.1,806.8L192.8,806.6L189.7,804.3L193.8,803.0L195.6,801.2L195.1,800.7L193.8,802.1L190.3,802.8L185.9,802.3L185.6,799.8L184.4,799.6L182.9,796.9L187.7,798.1L189.1,797.7L189.3,796.5L193.6,797.3L198.5,795.1L200.8,797.7L199.3,799.4L201.3,798.3L200.2,795.7L201.6,794.1L201.1,792.6L194.6,790.0L200.0,792.5L200.5,793.6L192.4,796.4L191.0,796.1L188.6,793.6L184.0,792.4L185.3,791.3L186.7,791.7L186.6,788.1L177.6,786.0L174.7,782.0L178.9,781.8L178.0,779.9L179.3,778.7L182.2,780.0L184.6,783.5L188.0,784.7L188.7,782.2L189.9,781.7L189.6,780.1L186.2,783.5L184.0,781.3L184.1,780.0L186.5,780.3L179.5,777.0L182.6,774.7L186.4,774.9L182.7,772.8L183.0,770.9L187.7,771.0L185.0,769.1L186.7,764.9L185.7,764.9L183.7,769.8L182.2,768.8L182.5,760.5L185.9,759.2L181.1,759.1L180.0,754.3L187.5,754.8L190.9,756.4L192.3,755.8L190.0,754.3L188.9,750.8L186.6,753.6L183.7,754.0L179.2,751.3L180.5,749.9L183.5,751.0L184.6,750.1L181.0,748.4L184.4,745.9L184.4,743.7L182.8,741.8L181.3,741.6L180.7,742.8L175.6,741.3L175.8,739.0L170.1,740.9L171.7,742.6L171.2,743.3L169.1,742.6L168.4,741.0L176.4,735.3L174.9,733.7L175.0,732.4L184.4,731.3L185.2,730.3L184.7,728.5L186.4,727.5L187.8,728.0L185.4,733.1L185.8,734.2L181.9,735.9L186.3,735.3L187.3,732.1L188.7,731.7L189.0,734.4L186.5,739.2L187.6,739.5L189.5,736.7L190.2,732.6L190.2,731.4L188.5,730.6L188.8,728.3L193.6,726.9L197.0,728.0L194.0,726.0L191.7,725.8L192.1,724.4L192.6,723.1L199.0,720.6L199.6,719.1L199.8,717.5L193.6,714.7L194.0,711.9L195.6,711.6L196.4,709.2L195.5,706.0L197.6,703.2L198.8,703.1L197.9,699.2L198.7,697.6L200.1,697.6L198.7,695.0L200.1,694.4L202.4,696.3L201.5,692.1L199.0,692.3L198.2,691.4L199.8,689.7L202.9,688.7L203.4,687.2L201.1,689.1L196.8,687.3L193.8,690.1L189.9,690.0L188.7,689.7L189.9,688.0L188.0,687.3L186.4,683.2L189.4,671.3L192.1,669.5L194.0,663.7L191.0,656.3L191.5,651.4L189.5,647.9L190.1,645.6L189.5,644.2L190.1,642.6L194.1,642.4L195.1,637.4L196.3,637.0L198.6,630.1L200.6,627.8L200.2,626.1L204.4,621.0L206.6,611.4L210.1,606.1L209.3,600.3L212.3,595.8L212.6,593.0L211.7,591.1L209.7,574.8L210.1,571.7L212.9,569.8L213.7,564.7L211.6,557.2L215.1,551.6L220.7,530.4L220.0,524.8L222.7,519.3L221.4,513.0L222.1,505.2L223.3,501.8L221.2,498.6L221.5,496.6L222.7,496.4L223.9,494.4L226.4,480.4L225.3,472.5L225.7,462.0L223.0,447.9L228.1,446.5L229.4,444.2L228.9,441.3L232.4,439.2L234.4,443.7L236.7,444.9L236.2,445.8L238.0,454.3L243.2,459.1L240.8,462.1L242.2,464.7L240.2,465.9L240.9,468.2L240.1,469.3L243.0,471.5L242.2,474.3L243.5,474.8L246.0,478.4L246.1,481.7L249.2,490.8L249.2,494.2L252.3,494.9L256.3,494.2Z"/><path class="land" fill-rule="evenodd" d="M252.4,835.9L249.6,835.4L253.0,835.3L252.4,835.9Z"/><path class="land" fill-rule="evenodd" d="M255.3,834.7L252.5,834.0L254.5,832.8L255.3,834.7Z"/><path class="land" fill-rule="evenodd" d="M263.8,829.0L262.1,829.1L263.3,828.4L263.8,829.0Z"/><path class="land" fill-rule="evenodd" d="M257.5,828.3L254.8,829.7L253.2,828.5L250.4,829.3L247.3,829.0L244.9,826.5L255.8,826.4L257.5,828.3Z"/><path class="land" fill-rule="evenodd" d="M230.4,825.8L238.7,826.9L243.3,826.2L243.9,827.1L241.7,828.3L245.1,829.3L244.6,830.1L247.1,831.6L247.5,833.3L244.5,831.9L239.0,831.3L238.8,829.2L235.7,828.4L234.6,828.4L234.0,829.8L235.8,831.6L233.4,831.3L231.0,830.0L230.9,829.0L227.5,828.2L228.5,825.4L230.4,825.8Z"/><path class="land" fill-rule="evenodd" d="M217.1,825.3L219.0,826.3L223.0,825.7L224.3,827.8L222.4,828.5L221.2,827.5L217.6,827.3L214.9,825.6L212.5,825.5L217.1,825.3Z"/><path class="land" fill-rule="evenodd" d="M213.0,816.7L216.8,817.5L216.9,818.9L215.5,820.2L212.1,818.7L207.2,819.4L204.5,816.8L206.7,815.1L213.0,816.7Z"/><path class="land" fill-rule="evenodd" d="M197.1,811.0L197.6,812.0L201.7,812.1L204.5,814.3L202.4,816.4L197.7,817.6L196.8,817.0L198.8,814.9L195.9,814.6L195.5,816.3L194.2,816.2L193.2,815.8L193.1,813.5L187.6,811.6L189.2,810.4L191.7,810.2L195.3,811.3L195.8,810.1L197.1,811.0Z"/><path class="land" fill-rule="evenodd" d="M182.0,805.2L189.6,806.7L194.9,809.7L190.5,809.2L187.4,807.0L183.2,806.8L178.6,803.4L182.0,805.2Z"/><path class="land" fill-rule="evenodd" d="M184.5,795.0L182.5,794.6L181.1,792.8L184.5,795.0Z"/><path class="land" fill-rule="evenodd" d="M177.5,791.8L177.9,793.9L180.5,795.3L178.8,798.6L177.2,798.5L174.6,793.5L177.5,791.8Z"/><path class="land" fill-rule="evenodd" d="M180.2,788.2L179.6,789.4L175.2,789.4L172.7,791.8L174.1,788.2L179.7,787.5L180.2,788.2Z"/><path class="land" fill-rule="evenodd" d="M172.5,782.0L172.3,783.0L171.1,782.7L171.2,780.0L174.5,780.3L172.5,782.0Z"/><path class="land" fill-rule="evenodd" d="M175.1,778.1L171.0,778.5L172.3,775.1L176.9,776.1L177.3,777.0L175.1,778.1Z"/><path class="land" fill-rule="evenodd" d="M174.6,763.0L171.6,766.3L169.0,766.7L170.6,765.5L169.1,764.1L169.6,763.2L174.4,762.3L174.6,763.0Z"/><path class="land" fill-rule="evenodd" d="M181.1,766.2L180.6,771.1L181.3,771.8L179.9,775.1L178.1,775.1L176.9,772.2L178.5,769.0L176.1,770.2L175.0,773.5L170.0,772.8L170.3,771.1L172.2,771.2L172.5,769.8L170.8,768.4L174.8,767.5L173.5,766.2L176.2,764.3L175.9,762.8L176.7,761.9L180.4,762.3L181.1,766.2Z"/><path class="land" fill-rule="evenodd" d="M170.4,762.2L169.2,762.2L168.9,760.4L170.3,757.7L169.9,755.1L171.6,754.5L174.1,758.7L174.0,760.8L170.4,762.2Z"/><path class="land" fill-rule="evenodd" d="M180.1,760.5L176.5,760.8L173.1,754.6L177.4,752.8L177.3,754.5L179.6,757.9L180.1,760.5Z"/><path class="land" fill-rule="evenodd" d="M174.5,752.7L173.0,751.9L176.4,751.5L174.5,752.7Z"/><path class="land" fill-rule="evenodd" d="M182.8,730.5L181.2,731.2L179.0,731.0L178.9,730.2L180.9,727.7L180.8,726.3L182.8,725.1L183.6,729.7L182.8,730.5Z"/><path class="land" fill-rule="evenodd" d="M175.2,722.2L174.2,721.4L175.2,722.2Z"/><path class="land" fill-rule="evenodd" d="M189.8,721.5L187.9,719.7L188.3,718.8L189.7,719.3L189.8,721.5Z"/><path class="land" fill-rule="evenodd" d="M196.5,721.1L194.0,721.9L192.2,721.0L191.7,719.6L193.6,716.6L198.6,718.3L196.5,721.1Z"/><path class="land" fill-rule="evenodd" d="M188.7,717.1L186.2,718.1L186.0,719.1L187.8,721.7L188.6,726.1L185.0,726.7L185.1,725.4L179.6,719.7L181.0,719.0L180.8,717.9L185.0,717.0L185.1,714.9L186.1,714.4L189.1,715.8L188.7,717.1Z"/><path class="land" fill-rule="evenodd" d="M188.0,711.2L186.5,712.2L184.5,711.7L188.0,711.2Z"/><path class="land" fill-rule="evenodd" d="M179.1,708.9L177.3,708.6L179.1,708.9Z"/><path class="land part-shape" data-part="せ" fill-rule="evenodd" d="M188.3,706.2L184.8,706.4L182.0,705.1L183.8,701.4L185.6,690.2L190.9,691.3L192.0,694.3L190.8,695.6L191.5,697.2L188.2,698.4L191.8,702.0L188.6,704.3L188.3,706.2Z"/><path class="land" fill-rule="evenodd" d="M136.4,606.0L134.4,606.2L135.6,605.3L136.4,606.0Z"/><path class="land" fill-rule="evenodd" d="M259.6,245.7L257.5,246.1L257.1,240.7L254.2,236.5L248.7,240.3L246.0,237.8L245.4,239.3L246.2,240.6L232.1,240.0L228.9,240.7L228.9,247.4L234.4,247.5L236.0,249.4L236.1,251.5L234.7,251.9L232.8,250.8L226.8,252.4L226.6,259.8L231.1,263.6L231.3,266.2L233.5,270.7L227.7,302.1L223.8,297.7L221.9,298.3L219.7,297.4L226.6,286.8L226.3,285.8L217.3,281.1L212.9,282.5L209.2,280.6L204.4,283.1L196.9,283.1L194.7,281.9L194.3,277.2L191.2,275.8L190.9,273.3L189.5,271.2L183.5,268.4L181.7,264.3L177.7,260.4L167.6,257.4L162.5,253.8L160.2,255.9L150.9,254.3L150.2,251.8L147.7,249.7L144.3,249.0L137.6,245.1L134.1,241.6L136.5,239.2L138.7,240.0L138.6,234.0L140.4,232.7L144.0,232.4L146.6,230.3L148.1,228.6L147.8,226.9L149.2,226.5L151.3,223.7L154.2,217.9L152.3,218.1L152.1,216.4L151.3,217.6L150.8,214.4L149.6,214.8L151.3,212.9L152.0,209.5L151.1,203.3L149.5,201.1L152.4,198.6L150.1,194.5L151.2,190.4L145.7,183.6L147.3,180.5L147.1,178.8L149.4,180.1L153.0,176.0L150.4,169.8L151.4,169.1L156.5,174.7L155.8,175.9L157.2,176.4L157.4,172.5L155.8,169.7L162.5,165.4L165.1,161.6L169.1,160.7L168.6,157.8L170.1,152.9L168.3,153.5L171.1,148.7L176.5,144.1L177.3,143.5L182.6,144.7L180.7,146.1L181.9,147.1L184.5,141.4L193.1,141.6L199.2,137.3L203.8,135.5L205.3,132.4L209.6,130.0L214.3,130.9L215.6,133.9L212.9,136.2L207.1,137.8L204.1,142.6L202.1,143.5L199.5,146.4L197.7,149.9L196.3,157.2L192.5,163.3L195.7,162.7L196.7,163.9L198.4,164.2L199.8,169.2L202.6,172.7L201.8,180.6L204.5,182.2L206.6,185.7L215.7,186.1L219.7,185.1L226.0,186.5L233.3,195.1L243.1,194.7L249.5,193.3L253.4,194.5L253.4,197.1L249.8,203.9L249.5,211.8L251.5,218.4L255.1,223.0L249.5,229.5L251.9,229.5L256.2,233.6L259.6,245.7Z"/><path class="land" fill-rule="evenodd" d="M143.5,232.1L142.8,231.0L143.5,232.1Z"/><path class="land" fill-rule="evenodd" d="M86.4,145.5L89.4,151.7L95.3,158.4L97.5,159.4L96.7,160.1L95.1,159.2L93.6,160.7L93.6,164.7L95.8,166.2L93.9,168.0L94.4,171.0L92.7,172.2L94.2,174.9L91.7,172.0L91.3,169.6L90.0,168.8L88.1,168.4L90.0,171.5L86.8,170.7L85.4,169.3L86.7,167.4L86.4,165.0L80.4,160.6L76.7,159.5L75.3,156.0L69.6,152.3L70.7,154.8L73.5,156.9L71.2,159.3L69.1,157.0L65.9,156.0L63.6,152.0L65.4,147.3L63.0,145.7L65.9,142.8L73.3,145.2L75.4,144.1L79.1,144.9L80.9,146.9L83.5,147.4L85.6,146.9L86.4,145.5Z"/><path class="land" fill-rule="evenodd" d="M97.5,35.4L93.4,36.8L91.1,35.2L93.3,35.2L92.1,33.2L93.1,31.6L95.9,32.1L97.5,35.4Z"/><path class="land" fill-rule="evenodd" d="M148.1,31.5L145.5,30.1L148.5,30.4L148.1,31.5Z"/><path class="land" fill-rule="evenodd" d="M145.9,29.7L144.2,28.9L144.7,27.9L145.9,29.7Z"/><path class="land" fill-rule="evenodd" d="M144.4,28.1L141.8,26.6L143.1,26.5L144.4,28.1Z"/><path class="land" fill-rule="evenodd" d="M138.2,25.3L141.0,25.4L141.7,26.3L137.5,25.5L138.2,25.3Z"/><path class="land" fill-rule="evenodd" d="M130.7,24.1L127.8,22.7L130.7,24.1Z"/><path class="land" fill-rule="evenodd" d="M105.0,19.0L111.0,19.0L112.2,20.1L117.3,19.6L120.2,21.3L125.9,21.8L125.5,22.5L131.5,26.8L137.6,27.2L148.4,33.1L149.9,33.2L149.0,32.1L149.9,32.3L153.5,34.7L151.2,35.0L152.4,36.3L154.0,35.2L156.7,37.2L156.4,37.9L168.2,40.2L169.5,41.4L168.8,42.4L169.5,43.0L168.0,43.3L168.2,44.3L176.9,44.9L180.7,47.7L184.3,48.6L184.4,49.9L183.4,50.8L174.5,52.7L174.1,51.6L172.7,52.8L163.7,51.8L147.6,53.2L149.3,50.8L153.9,47.5L152.6,45.0L143.5,43.8L139.6,40.8L138.7,37.1L137.1,35.2L130.6,35.3L121.6,32.3L119.0,29.7L118.8,30.3L113.3,30.2L111.7,28.2L110.7,29.9L104.9,28.8L102.5,27.0L106.3,25.9L106.4,24.9L105.0,24.1L95.7,23.9L89.1,28.7L83.7,29.2L82.3,31.6L77.5,33.3L77.5,31.7L73.5,32.5L79.3,30.2L78.9,27.1L82.2,24.1L90.3,21.0L102.3,18.7L105.0,19.0Z"/><path class="land" fill-rule="evenodd" d="M240.2,133.7L237.7,132.9L236.0,130.4L240.2,133.7Z"/><path class="land" fill-rule="evenodd" d="M109.8,58.4L112.6,58.8L109.5,59.1L109.8,58.4Z"/><path class="land" fill-rule="evenodd" d="M124.2,54.7L122.7,55.1L124.2,54.7Z"/><path class="land" fill-rule="evenodd" d="M125.8,54.6L125.0,54.7L126.7,54.2L125.8,54.6Z"/><path class="land" fill-rule="evenodd" d="M317.4,100.8L316.5,101.0L315.6,96.8L317.5,97.9L317.4,100.8Z"/><path class="land" fill-rule="evenodd" d="M209.3,64.8L208.7,62.1L210.3,60.3L209.3,59.0L208.9,54.6L211.2,52.7L217.5,52.6L225.3,55.4L227.8,55.1L230.0,58.9L235.3,59.2L231.4,59.9L231.2,60.8L240.9,63.0L244.5,66.0L240.9,70.1L238.3,68.1L234.8,67.8L229.7,67.7L222.4,70.1L220.7,68.9L216.7,69.5L212.5,76.1L210.5,74.7L209.1,71.9L209.1,68.8L206.7,66.2L209.3,64.8Z"/><path class="land" fill-rule="evenodd" d="M135.8,243.3L142.8,248.3L147.7,249.7L150.2,251.8L150.9,254.3L160.2,255.9L162.5,253.8L167.6,257.4L172.7,259.4L169.1,260.0L172.9,264.1L173.1,268.2L171.5,267.9L169.8,274.2L164.4,280.4L158.3,284.8L146.1,289.1L142.8,293.0L142.7,294.4L141.1,293.4L140.3,297.4L137.6,303.0L137.6,305.5L135.3,307.0L135.2,308.5L133.5,309.9L130.9,309.3L127.7,304.4L126.1,304.6L122.6,302.7L120.0,304.5L119.0,303.7L120.4,301.8L119.0,301.4L118.9,299.8L120.9,299.7L122.1,298.4L120.6,293.3L124.4,291.0L126.8,285.0L125.6,279.7L124.8,284.7L123.7,284.8L123.9,282.7L121.1,286.3L114.1,281.0L116.0,279.8L116.1,278.3L114.7,269.5L118.3,267.1L119.3,264.4L121.1,264.7L119.0,262.1L123.5,256.7L123.1,250.2L126.7,248.2L135.4,245.9L135.8,243.3Z"/><path class="land" fill-rule="evenodd" d="M122.6,289.1L121.2,289.3L121.7,286.8L123.2,285.9L124.9,286.5L122.6,289.1Z"/><path class="land" fill-rule="evenodd" d="M16.3,272.2L15.3,271.8L15.7,271.0L16.7,271.7L16.3,272.2Z"/><path class="land" fill-rule="evenodd" d="M26.7,267.7L24.7,267.5L28.0,265.5L26.7,267.7Z"/><path class="land" fill-rule="evenodd" d="M17.2,266.3L15.1,265.3L15.2,264.3L17.9,263.3L18.7,265.1L17.2,266.3Z"/><path class="land" fill-rule="evenodd" d="M5.9,263.1L4.0,262.9L3.7,261.3L5.6,261.0L5.9,263.1Z"/><path class="land" fill-rule="evenodd" d="M14.7,261.8L11.7,261.1L12.6,260.0L14.7,261.8Z"/><path class="land part-shape" data-part="け" fill-rule="evenodd" d="M7.5,258.1L12.4,266.1L11.3,268.1L9.0,268.9L6.0,268.6L5.2,267.2L9.1,264.1L6.5,261.3L5.9,258.6L4.2,258.3L6.6,257.0L7.5,258.1Z"/><path class="land" fill-rule="evenodd" d="M135.3,245.4L134.4,245.0L135.4,244.3L135.3,245.4Z"/><path class="land" fill-rule="evenodd" d="M333.9,798.1L333.1,798.2L332.8,797.1L333.9,798.1Z"/><path class="land" fill-rule="evenodd" d="M346.8,795.8L346.9,796.7L345.7,796.0L346.8,795.8Z"/><path class="land" fill-rule="evenodd" d="M320.1,793.5L321.6,793.5L320.9,795.1L318.8,794.0L320.1,793.5Z"/><path class="land" fill-rule="evenodd" d="M327.7,790.1L337.0,789.1L338.2,789.8L331.5,795.4L328.1,795.5L326.7,797.3L323.6,797.6L320.7,796.3L328.2,793.3L324.6,792.7L328.1,791.9L324.8,789.0L327.7,790.1Z"/><path class="land" fill-rule="evenodd" d="M329.5,789.4L328.1,789.4L327.8,788.2L329.9,788.5L329.5,789.4Z"/><path class="land part-shape" data-part="し" fill-rule="evenodd" d="M342.5,788.1L346.9,788.7L347.4,789.2L346.1,790.3L348.5,791.3L348.7,789.6L351.6,789.3L353.3,790.7L351.7,791.4L353.5,791.9L344.3,795.0L344.6,796.7L339.0,795.8L340.3,797.5L337.5,797.7L336.9,798.8L335.5,798.1L334.3,797.1L335.1,794.9L340.4,792.4L340.0,790.4L342.5,788.1Z"/><path class="land" fill-rule="evenodd" d="M416.9,216.4L409.9,225.5L407.3,232.2L404.0,235.5L400.6,235.5L399.5,234.2L397.7,235.1L395.1,234.0L391.3,236.4L386.3,234.3L388.5,232.9L390.6,229.2L390.6,225.9L392.8,221.2L389.0,216.4L387.8,207.5L393.5,198.7L404.0,202.3L410.3,207.3L410.0,209.0L411.1,208.1L412.7,209.6L413.7,211.7L413.3,213.4L415.1,210.4L416.9,216.4Z"/><path class="land" fill-rule="evenodd" d="M322.1,108.6L321.8,109.3L319.7,108.8L320.2,107.4L318.9,106.9L318.1,104.9L321.1,105.9L322.1,108.6Z"/><path class="land" fill-rule="evenodd" d="M318.0,94.1L317.1,94.1L317.8,92.9L318.0,94.1Z"/><path class="land" fill-rule="evenodd" d="M314.2,92.9L313.4,93.4L312.5,92.4L312.6,89.3L314.6,90.2L314.2,92.9Z"/><path class="land" fill-rule="evenodd" d="M317.0,90.6L314.9,90.6L315.5,87.8L318.5,90.4L317.0,90.6Z"/><path class="land" fill-rule="evenodd" d="M312.9,134.2L312.3,134.2L312.9,132.4L314.1,132.0L313.9,133.8L312.9,134.2Z"/><path class="land" fill-rule="evenodd" d="M29.3,74.2L28.5,94.1L32.1,94.1L35.1,95.4L35.8,94.6L35.2,93.5L39.0,95.8L29.5,102.6L28.7,104.7L29.2,107.4L27.3,109.4L25.1,109.6L25.3,111.2L20.2,114.7L19.7,116.4L14.4,114.4L6.4,113.8L0.0,109.9L0.0,96.8L2.7,92.3L16.0,92.2L16.4,89.0L6.1,80.0L10.4,80.1L10.4,74.2L29.3,74.2Z"/><path class="land" fill-rule="evenodd" d="M367.0,238.3L363.4,238.9L360.4,237.5L358.4,238.0L356.0,240.5L351.5,241.3L351.0,242.6L347.8,241.9L346.1,243.5L346.0,245.1L342.8,245.9L338.6,244.1L333.2,238.7L333.2,234.8L331.8,233.9L330.7,229.8L332.4,223.7L332.2,221.3L335.3,217.7L333.4,214.7L333.7,213.1L329.1,211.5L330.8,205.8L329.2,204.2L323.0,204.6L316.3,197.0L319.0,194.1L318.2,190.3L318.8,189.2L323.2,188.4L327.0,186.0L327.1,184.5L324.1,183.8L323.2,180.5L325.4,177.6L330.3,175.1L332.2,173.1L330.5,170.0L332.4,171.8L334.1,171.9L338.9,174.9L346.1,181.9L346.4,185.6L344.4,192.3L347.0,187.5L348.2,187.2L351.5,188.2L356.1,192.9L359.3,194.5L359.7,201.0L358.4,203.2L359.5,204.6L358.2,206.5L354.3,206.8L352.6,207.9L352.9,210.1L350.8,215.9L353.1,220.3L355.0,222.0L355.0,223.3L358.5,223.4L359.6,228.8L364.7,237.3L367.0,238.3Z"/><path class="land" fill-rule="evenodd" d="M27.3,109.4L29.2,107.4L28.7,104.7L29.5,102.6L39.0,95.8L40.0,96.1L44.4,93.9L46.6,95.2L52.6,95.5L58.3,95.2L62.7,93.5L62.1,92.8L67.3,94.0L72.6,93.1L76.9,95.0L78.3,94.8L77.3,94.3L80.0,94.8L85.1,99.1L82.9,98.0L81.5,98.2L81.7,99.2L83.4,99.3L85.1,101.1L87.9,101.0L86.3,99.5L89.2,100.9L91.4,103.4L87.5,103.6L86.4,104.6L78.0,107.0L73.8,105.3L72.5,105.9L70.7,108.2L70.5,110.1L65.3,113.8L64.7,115.1L61.6,113.1L58.6,116.0L54.2,116.3L54.7,120.8L53.0,121.2L51.1,124.1L48.2,124.2L46.6,120.4L43.3,119.9L44.1,119.3L44.3,115.6L43.4,114.8L41.4,114.9L39.8,113.8L36.3,115.2L36.0,113.9L34.0,113.3L29.8,109.8L27.3,109.4Z"/><path class="land" fill-rule="evenodd" d="M57.7,89.1L55.5,89.9L59.4,88.6L57.7,89.1Z"/><path class="land" fill-rule="evenodd" d="M63.3,88.2L62.5,88.8L63.7,87.7L63.3,88.2Z"/><path class="land" fill-rule="evenodd" d="M208.9,54.6L209.3,59.0L210.3,60.3L208.7,62.1L209.3,64.8L206.7,66.2L209.1,68.8L209.1,71.9L206.0,70.0L197.6,70.8L192.4,69.7L188.6,70.4L187.2,71.9L181.2,68.3L182.0,65.9L183.6,65.5L198.5,67.8L202.8,66.4L203.1,65.4L198.3,61.3L199.4,57.4L192.2,55.2L191.8,54.5L193.1,53.2L197.6,52.4L208.9,54.6Z"/><path class="land" fill-rule="evenodd" d="M198.4,64.3L198.2,65.0L195.5,64.2L193.5,62.5L198.4,64.3Z"/><path class="land" fill-rule="evenodd" d="M199.8,51.3L196.7,51.0L199.8,51.3Z"/><path class="land" fill-rule="evenodd" d="M152.3,67.6L161.7,70.8L163.2,73.2L159.9,73.7L156.5,72.6L155.6,73.9L153.8,73.6L152.9,75.3L151.3,74.1L147.1,73.6L144.2,70.5L141.2,69.4L142.4,67.7L146.0,66.9L152.3,67.6Z"/><path class="land" fill-rule="evenodd" d="M304.5,81.4L303.6,80.6L304.5,81.4Z"/><path class="land" fill-rule="evenodd" d="M303.5,80.2L301.5,78.7L303.5,80.2Z"/><path class="land" fill-rule="evenodd" d="M321.4,115.5L320.8,116.6L319.6,115.1L321.3,112.7L321.4,115.5Z"/><path class="land" fill-rule="evenodd" d="M299.6,71.6L298.4,71.6L299.6,71.6Z"/><path class="land" fill-rule="evenodd" d="M38.3,67.5L35.9,67.7L33.0,72.7L29.6,72.6L29.3,74.2L10.4,74.2L10.4,80.1L6.1,80.0L16.4,89.0L16.0,92.2L2.7,92.3L0.0,96.8L0.0,65.0L1.2,65.7L0.9,66.9L4.8,67.6L7.5,65.9L6.8,63.0L5.5,63.7L5.8,63.1L13.0,58.4L13.5,54.5L15.6,52.2L15.7,45.9L17.0,41.2L22.5,38.5L32.3,37.1L36.5,35.4L41.3,35.1L49.1,36.7L49.7,35.7L47.9,35.4L51.3,35.2L53.5,37.0L54.0,39.8L52.4,43.5L47.3,49.3L47.1,53.1L44.6,55.4L45.0,56.3L47.3,56.0L46.7,57.4L44.9,58.4L44.9,59.3L46.5,59.0L43.8,67.7L42.6,69.5L40.8,66.9L41.0,63.7L39.3,64.9L38.3,67.5Z"/><path class="land" fill-rule="evenodd" d="M3.3,65.3L1.9,65.3L4.8,64.5L3.3,65.3Z"/><path class="land" fill-rule="evenodd" d="M52.3,48.5L51.8,48.9L51.5,47.7L51.9,46.6L54.1,45.7L52.3,48.5Z"/><path class="land" fill-rule="evenodd" d="M308.5,85.3L307.7,85.8L308.0,84.7L308.5,85.3Z"/><path class="land" fill-rule="evenodd" d="M86.4,145.5L85.6,146.9L83.5,147.4L76.1,144.2L73.3,145.2L66.3,142.7L64.6,144.0L57.2,137.0L54.2,132.7L44.7,124.4L45.6,123.6L47.3,124.8L51.6,123.9L52.5,121.7L54.7,120.8L54.2,116.3L58.6,116.0L61.6,113.1L64.7,115.1L65.3,113.8L70.2,110.4L70.7,108.2L73.8,105.3L77.1,107.1L84.0,105.5L87.5,103.6L91.4,103.4L90.1,105.3L89.4,104.3L88.7,105.1L89.9,105.9L91.1,110.2L88.7,113.7L87.1,120.7L87.7,130.1L86.5,129.6L86.9,127.0L85.2,129.1L86.3,131.4L86.0,134.1L85.1,133.7L84.4,135.8L85.7,136.1L86.3,138.0L84.0,141.6L85.1,144.6L86.4,145.5Z"/><path class="land" fill-rule="evenodd" d="M245.9,132.8L245.4,134.0L244.2,131.2L245.9,132.8Z"/><path class="land" fill-rule="evenodd" d="M300.3,77.5L299.7,77.2L300.3,77.5Z"/><path class="land" fill-rule="evenodd" d="M151.1,168.9L150.1,170.5L153.0,176.0L149.4,180.1L147.1,178.8L147.3,180.5L145.7,183.6L142.9,180.4L140.3,175.0L141.7,174.7L141.8,173.1L143.2,171.7L147.1,174.3L143.6,170.5L142.4,171.6L140.5,170.4L140.4,172.0L139.4,169.2L133.4,165.4L129.1,165.6L127.2,166.9L125.9,169.1L126.6,169.5L119.3,173.5L119.3,174.9L123.9,180.8L117.1,183.7L114.7,183.1L113.0,176.7L110.9,179.5L108.5,178.5L106.1,174.2L101.7,173.7L100.9,172.5L96.3,172.3L94.4,173.1L94.2,174.9L92.7,172.2L94.4,171.0L93.9,168.0L95.8,166.2L93.6,164.7L93.6,160.7L95.1,159.2L96.7,160.1L97.5,159.4L99.5,160.9L99.8,163.2L101.4,163.4L100.8,165.0L102.5,166.0L105.6,165.8L104.4,163.9L108.0,167.1L110.0,167.6L115.3,166.5L122.7,163.2L128.4,159.2L133.2,159.8L143.8,162.9L151.1,168.9Z"/><path class="land" fill-rule="evenodd" d="M107.4,182.6L104.9,181.3L105.3,179.9L106.1,179.6L107.4,182.6Z"/><path class="land" fill-rule="evenodd" d="M133.7,173.0L133.2,173.5L133.7,173.0Z"/><path class="land" fill-rule="evenodd" d="M135.4,172.8L134.7,171.2L135.5,170.9L135.4,172.8Z"/><path class="land" fill-rule="evenodd" d="M100.9,161.4L100.0,161.0L100.9,161.4Z"/><path class="land" fill-rule="evenodd" d="M231.7,371.5L240.9,387.5L237.9,391.4L237.8,397.8L236.9,399.7L239.0,404.8L234.0,411.2L233.8,413.0L235.9,415.8L233.3,420.0L235.4,425.2L239.3,427.2L237.3,428.6L237.5,430.3L231.2,436.1L232.4,439.2L228.9,441.3L229.4,444.2L228.1,446.5L223.0,447.9L213.5,441.1L212.9,438.4L211.5,437.0L205.5,434.0L201.8,431.0L188.8,425.8L174.6,417.6L170.2,412.3L166.0,409.5L162.3,404.4L161.4,401.6L162.7,401.0L163.0,396.5L156.7,385.9L153.4,383.0L152.7,378.9L148.5,375.0L147.4,370.3L142.7,362.6L136.8,347.4L130.4,339.3L128.0,333.7L124.1,328.3L112.2,320.9L112.0,319.0L114.4,318.7L114.9,316.6L111.9,311.7L112.5,310.3L110.2,306.6L110.7,303.0L115.7,296.9L120.6,293.3L122.1,298.4L120.9,299.7L118.9,299.8L119.0,301.4L120.4,301.8L119.1,304.1L120.0,304.5L122.6,302.7L126.1,304.6L127.7,304.4L130.9,309.3L134.0,309.7L135.3,307.0L137.6,305.5L137.6,303.0L140.3,297.4L141.1,293.4L143.0,294.1L142.8,293.0L146.1,289.1L158.3,284.8L164.4,280.4L169.8,274.2L171.5,267.9L173.1,268.2L173.0,264.4L169.2,259.6L172.1,259.8L173.3,258.8L177.7,260.4L179.6,262.2L181.7,264.3L183.5,268.4L189.5,271.2L190.9,273.3L191.2,275.8L194.3,277.2L194.7,281.9L196.9,283.1L204.4,283.1L209.2,280.6L212.9,282.5L217.3,281.1L226.3,285.8L226.6,286.8L219.7,297.4L221.9,298.3L223.8,297.7L227.6,302.8L224.9,302.8L223.2,301.2L219.1,301.5L217.3,303.3L208.3,304.9L197.5,311.3L196.5,316.6L193.9,321.4L194.9,325.1L188.5,329.7L188.0,331.5L188.9,333.9L186.4,334.6L186.0,336.4L188.9,338.8L188.3,340.3L190.7,344.6L196.6,351.3L196.6,352.6L194.2,355.6L202.7,356.6L205.2,361.7L214.5,361.3L221.7,355.9L220.8,359.8L220.7,372.1L221.8,371.5L224.3,372.7L227.7,371.3L231.7,371.5Z"/><path class="land" fill-rule="evenodd" d="M249.3,71.7L248.7,71.1L249.3,71.7Z"/><path class="land" fill-rule="evenodd" d="M274.6,71.2L273.1,70.9L276.0,71.0L274.6,71.2Z"/><path class="land" fill-rule="evenodd" d="M267.3,67.7L272.5,68.4L272.6,69.8L269.0,72.6L256.3,72.4L256.6,70.0L255.6,68.6L256.7,67.2L267.3,67.7Z"/><path class="land" fill-rule="evenodd" d="M386.3,522.6L385.7,530.2L384.1,533.7L380.9,536.6L377.9,537.4L374.9,541.6L370.3,540.7L367.5,543.1L365.8,542.2L360.5,542.2L349.6,540.2L345.1,540.6L344.9,538.7L349.4,533.5L350.2,528.9L355.8,522.2L355.0,520.1L351.7,517.2L347.6,516.2L339.1,512.1L331.8,507.3L320.0,503.8L312.1,497.9L307.8,492.0L303.3,488.1L307.1,476.0L307.1,470.8L310.9,465.6L312.5,461.3L330.6,457.7L340.1,457.6L349.5,463.1L350.0,468.0L353.1,475.3L351.9,480.4L351.8,486.8L362.3,488.5L365.5,488.1L367.4,486.5L369.5,488.4L373.6,488.8L376.0,492.6L375.6,494.8L378.0,505.8L380.3,506.5L386.2,504.4L390.2,506.8L389.4,507.7L388.2,517.9L386.3,522.6Z"/><path class="land" fill-rule="evenodd" d="M567.3,817.0L571.4,817.5L572.4,818.3L572.0,819.0L575.3,818.9L577.9,822.1L579.7,822.1L579.6,823.7L580.7,824.2L577.8,825.3L573.4,821.6L569.5,819.8L561.8,818.1L561.2,817.1L561.9,816.8L557.8,816.4L564.4,816.2L567.3,817.0Z"/><path class="land" fill-rule="evenodd" d="M19.7,116.4L20.2,114.7L25.3,111.2L25.1,109.6L26.7,109.2L29.8,109.8L34.0,113.3L36.0,113.9L36.3,115.2L39.8,113.8L44.3,115.6L44.1,119.3L42.6,121.7L41.1,122.3L34.2,121.1L36.0,122.1L28.1,119.1L22.7,118.2L19.7,116.4Z"/><path class="land" fill-rule="evenodd" d="M386.3,234.3L382.6,231.5L374.8,233.5L372.4,232.3L370.6,235.0L372.9,237.3L372.7,238.8L367.0,238.3L364.7,237.3L359.6,228.8L358.5,223.4L355.0,223.3L355.0,222.0L353.1,220.3L350.8,215.9L352.9,210.1L352.2,208.5L354.3,206.8L358.5,206.2L359.5,204.5L358.4,203.2L361.1,197.0L367.2,197.0L372.6,198.4L373.1,199.4L372.9,197.4L375.6,196.5L384.1,196.5L392.1,198.3L391.8,201.5L388.0,206.5L387.7,208.4L389.0,216.4L392.6,220.9L392.6,222.7L390.6,225.9L390.6,229.2L388.5,232.9L386.3,234.3Z"/><path class="land" fill-rule="evenodd" d="M298.4,71.6L299.5,71.9L298.4,71.6Z"/><path class="land" fill-rule="evenodd" d="M203.2,32.5L205.2,33.1L203.2,33.5L203.2,32.5Z"/><path class="land" fill-rule="evenodd" d="M210.2,33.4L208.2,32.6L210.1,32.7L210.2,33.4Z"/><path class="land" fill-rule="evenodd" d="M207.9,32.6L206.6,31.5L207.9,32.6Z"/><path class="land part-shape" data-part="こ" fill-rule="evenodd" d="M320.2,153.6L311.0,154.3L315.2,152.2L315.4,148.8L313.6,147.6L321.2,146.3L320.0,148.1L320.2,153.6Z"/><path class="land" fill-rule="evenodd" d="M322.9,142.8L325.2,141.3L322.9,142.8Z"/><path class="land" fill-rule="evenodd" d="M349.3,593.9L350.1,591.6L349.4,588.2L351.4,585.1L350.8,583.8L353.3,577.2L353.1,573.5L355.4,570.3L359.5,571.3L360.4,569.8L362.3,569.4L370.2,574.8L372.0,577.0L372.0,579.5L376.6,577.4L380.5,581.6L386.6,583.7L390.4,587.5L395.1,589.6L396.8,593.2L401.7,596.6L397.5,601.1L397.5,606.1L399.2,607.0L394.9,613.6L390.9,616.6L383.3,619.3L375.4,617.7L370.0,619.0L363.2,616.7L359.9,614.3L353.1,614.6L347.2,608.8L347.6,601.2L349.7,600.0L350.5,598.2L349.3,593.9Z"/><path class="land" fill-rule="evenodd" d="M107.8,4.1L107.1,4.2L107.9,3.2L107.8,4.1Z"/><path class="land" fill-rule="evenodd" d="M110.2,3.6L109.3,2.6L110.2,3.6Z"/><path class="land" fill-rule="evenodd" d="M113.2,2.9L112.2,3.0L114.4,2.5L113.2,2.9Z"/><path class="land" fill-rule="evenodd" d="M318.0,124.1L318.3,123.5L318.0,124.1Z"/><path class="land" fill-rule="evenodd" d="M318.5,122.4L317.6,121.0L318.9,120.3L318.5,122.4Z"/><path class="land" fill-rule="evenodd" d="M323.0,204.6L324.4,207.2L320.3,211.5L317.4,211.7L311.9,215.0L308.4,216.0L305.8,215.4L302.6,216.8L302.1,220.4L301.1,221.2L300.0,221.2L296.2,217.6L289.1,217.7L287.3,215.7L283.4,215.6L281.2,214.1L282.4,216.9L287.0,221.3L287.1,225.2L289.2,230.7L288.9,232.5L295.6,233.4L295.6,235.4L289.2,238.4L287.2,242.5L277.9,246.9L274.1,251.2L273.3,251.2L273.6,249.6L272.0,248.2L265.5,250.6L259.6,245.7L256.2,233.6L251.9,229.5L249.5,229.5L255.1,223.0L251.5,218.4L249.5,211.8L249.8,203.9L253.4,197.1L253.4,194.5L249.5,193.3L243.1,194.7L233.3,195.1L226.0,186.5L219.7,185.1L215.7,186.1L206.6,185.7L204.5,182.2L201.8,180.6L202.6,172.7L199.8,169.2L198.4,164.2L196.7,163.9L195.7,162.7L192.9,163.6L192.7,163.0L196.3,157.2L197.7,149.9L199.5,146.4L202.1,143.5L204.1,142.6L207.1,137.8L213.7,135.8L212.0,137.2L207.1,138.8L208.4,142.7L210.4,144.5L209.4,144.7L210.9,148.2L205.5,156.9L209.1,161.9L209.9,164.6L214.5,163.7L216.1,161.7L216.5,158.0L211.9,149.5L211.4,147.0L212.1,145.0L224.9,140.8L226.3,139.3L229.4,139.8L229.2,137.7L225.3,138.2L224.4,135.5L225.2,133.3L227.3,132.5L228.8,133.8L231.1,139.7L235.3,139.3L239.4,140.2L243.9,143.0L245.2,145.9L244.9,147.9L246.6,149.9L266.1,148.5L270.2,152.3L277.7,154.3L280.5,154.0L287.4,150.3L292.1,149.8L286.8,149.4L286.3,148.4L311.2,147.3L306.1,149.3L300.6,149.5L302.9,152.0L302.3,154.4L304.3,152.9L306.7,157.2L307.7,156.2L308.4,156.8L308.4,155.2L309.2,155.3L312.7,158.8L312.4,156.9L314.2,156.1L317.1,158.8L320.2,159.6L322.5,161.6L320.1,163.7L317.8,169.5L313.9,169.5L317.2,171.4L322.4,169.5L328.9,169.3L332.4,172.5L330.3,175.1L325.4,177.6L323.2,180.5L324.6,184.4L327.3,184.6L326.6,186.6L323.2,188.4L318.8,189.2L318.2,190.3L319.0,194.1L316.3,197.0L323.0,204.6Z"/><path class="land" fill-rule="evenodd" d="M320.4,166.7L319.7,166.9L319.6,165.9L321.2,164.6L321.8,165.9L320.4,166.7Z"/><path class="land" fill-rule="evenodd" d="M322.2,163.9L320.9,164.2L323.1,163.2L322.2,163.9Z"/><path class="land" fill-rule="evenodd" d="M276.8,145.6L274.7,145.3L276.8,145.6Z"/><path class="land" fill-rule="evenodd" d="M290.9,143.3L291.2,144.7L290.2,145.8L285.2,144.9L287.1,143.8L289.0,144.6L290.9,143.3Z"/><path class="land" fill-rule="evenodd" d="M283.2,68.2L282.2,68.1L283.7,67.8L283.2,68.2Z"/><path class="land" fill-rule="evenodd" d="M285.2,67.5L286.0,67.0L285.2,67.5Z"/><path class="land" fill-rule="evenodd" d="M286.4,64.7L285.1,64.6L286.4,64.7Z"/><path class="land" fill-rule="evenodd" d="M281.4,74.5L283.3,74.9L280.1,75.4L281.4,74.5Z"/><path class="land" fill-rule="evenodd" d="M282.5,68.7L281.2,68.8L282.5,68.7Z"/><path class="land" fill-rule="evenodd" d="M280.6,68.9L278.8,68.5L280.6,68.9Z"/></g><g id="rivers"><path class="river part-shape" data-part="そ" d="M295.2,233.8L289.4,236.1L278.8,233.0L277.0,231.6L276.5,229.2L273.5,225.9L269.3,225.7L267.3,227.1L264.4,226.4L258.9,220.0L258.2,218.1L250.8,216.1L249.5,211.8L249.8,203.9L253.4,197.1L253.5,195.1L257.1,190.6L257.6,185.7L263.9,180.4L272.4,176.8L276.7,177.1L280.7,179.1L284.1,177.5L284.4,175.7L286.4,175.0L289.4,175.9L292.1,174.3L301.8,172.2L308.4,169.0"/><path class="river part-shape" data-part="そ" d="M308.4,169.0L313.9,169.5L319.3,165.9"/><path class="river part-shape" data-part="そ" d="M309.3,165.0L309.6,167.1L308.4,169.0"/><path class="river part-shape" data-part="そ" d="M312.7,158.8L310.8,163.8L309.3,165.0"/><path class="river part-shape" data-part="そ" d="M306.9,157.2L305.7,159.5L306.0,161.0L309.3,165.0"/><path class="river part-shape" data-part="た" d="M428.9,454.9L429.3,453.4L431.4,451.5L436.2,450.7"/><path class="river part-shape" data-part="た" d="M452.3,447.9L443.2,448.3"/><path class="river part-shape" data-part="た" d="M460.4,446.1L454.5,448.8"/><path class="river part-shape" data-part="た" d="M386.4,521.1L388.2,517.9L389.9,507.0"/><path class="river part-shape" data-part="た" d="M414.0,479.7L409.2,486.4L403.4,490.4"/><path class="river part-shape" data-part="た" d="M423.7,461.6L423.7,466.1L419.6,469.6"/><path class="river part-shape" data-part="た" d="M472.1,456.4L469.5,453.1L469.3,449.0L466.4,447.3L464.3,447.2L461.7,445.2L460.4,446.1"/><path class="river part-shape" data-part="た" d="M454.5,448.8L452.3,447.9"/><path class="river part-shape" data-part="た" d="M443.2,448.3L440.9,450.4L438.6,449.6L436.2,450.7"/><path class="river part-shape" data-part="た" d="M339.1,607.7L345.2,610.1L346.9,609.6"/><path class="river part-shape" data-part="た" d="M326.6,601.1L332.2,604.8L339.1,607.7"/><path class="river part-shape" data-part="た" d="M326.6,601.1L334.1,602.6L339.1,607.7"/><path class="river part-shape" data-part="た" d="M326.6,601.1L326.6,601.1"/><path class="river part-shape" data-part="た" d="M345.1,540.6L342.3,542.6L342.4,547.4L340.1,550.6L338.9,558.3L335.2,561.5L334.3,565.5L334.2,575.7L327.6,584.4L324.7,585.9L323.4,587.7L323.0,595.7L325.1,599.9L326.6,601.1"/><path class="river part-shape" data-part="た" d="M386.4,521.1L384.9,532.5L380.9,536.6L377.9,537.4L374.9,541.6L370.3,540.7L367.5,543.1L365.8,542.2L360.5,542.2L349.6,540.2L345.1,540.6"/><path class="river part-shape" data-part="た" d="M394.9,499.4L392.7,501.9L391.4,506.1L389.9,507.0L392.0,506.4L394.9,499.4"/><path class="river part-shape" data-part="た" d="M403.4,490.4L398.0,494.5L394.9,499.4"/><path class="river part-shape" data-part="た" d="M419.6,469.6L418.1,470.8L414.0,479.7"/><path class="river part-shape" data-part="た" d="M428.9,454.9L425.8,457.1L423.7,461.6"/><path class="river part-shape" data-part="た" d="M381.6,406.3L377.9,406.7L370.2,410.0L366.9,413.7L370.8,419.6L370.7,422.1L373.1,424.4L372.5,426.9L368.1,429.5L365.6,432.7L365.9,434.7L362.8,439.4L360.8,441.6L357.8,443.0L357.5,449.5L354.6,453.8L357.9,455.4L358.5,458.3L356.9,461.4L349.8,466.8L351.7,472.1L352.6,472.4L352.2,473.3L353.2,475.4L351.5,486.6L353.5,491.8L352.3,493.4L356.8,499.6L360.9,511.3L359.4,516.5L355.1,519.2L355.8,522.2L350.2,528.9L349.4,533.5L344.9,538.7L345.1,540.6"/><path class="river river-fb part-shape" data-part="ち" d="M346.2,609.7L366.8,622.1L373.0,627.2"/><path class="river part-shape" data-part="つ" d="M406.5,274.4L394.3,278.6L392.0,281.8L387.8,283.5L386.1,283.3L385.5,280.9L384.5,280.2L380.8,280.9L375.4,278.2L370.7,279.8L365.0,284.9L360.2,284.7L356.4,283.1L351.0,287.8L348.6,291.5L345.7,291.5L343.0,292.9L332.4,290.3L329.6,292.5L324.5,292.6L321.8,294.9L315.5,296.3L311.1,299.1L305.9,296.7L298.7,300.5L295.0,298.3L290.8,298.0L284.6,294.7L274.0,285.4L271.1,285.2L267.1,283.6L265.2,284.5L263.2,283.4L261.4,286.1L254.4,285.4L250.7,287.7L248.1,292.7L241.8,292.9L234.0,295.0L232.7,300.2L233.2,301.3L231.9,302.8L227.9,302.6L223.8,297.7L216.4,299.5L211.6,297.9L208.8,293.0L203.6,294.5L197.5,294.2L195.4,295.1L194.1,297.4L194.3,300.7L192.6,301.0L191.3,304.3"/></g><g id="markers"><g class="marker m-grid" data-part="あ" data-kind="緯度" transform="translate(537.3,155.0)"><circle class="hit" r="16"/><rect class="dot" x="-2.6" y="-2.6" width="5.2" height="5.2"/></g><g class="marker m-grid" data-part="い" data-kind="緯線" transform="translate(589.0,258.3)"><circle class="hit" r="16"/><rect class="dot" x="-2.6" y="-2.6" width="5.2" height="5.2"/></g><g class="marker m-grid" data-part="う" data-kind="緯度" transform="translate(599.3,465.0)"><circle class="hit" r="16"/><rect class="dot" x="-2.6" y="-2.6" width="5.2" height="5.2"/></g><g class="marker m-grid" data-part="え" data-kind="経度" transform="translate(537.3,134.3)"><circle class="hit" r="16"/><rect class="dot" x="-2.6" y="-2.6" width="5.2" height="5.2"/></g><g class="marker m-sea" data-part="お" data-kind="海" transform="translate(196.3,124.0)"><circle class="hit" r="16"/><circle class="dot" r="5"/></g><g class="marker m-sea" data-part="か" data-kind="海" transform="translate(537.3,206.7)"><circle class="hit" r="16"/><circle class="dot" r="5"/></g><g class="marker m-sea" data-part="き" data-kind="海" transform="translate(72.3,413.3)"><circle class="hit" r="16"/><circle class="dot" r="5"/></g><g class="marker m-sea" data-part="く" data-kind="海流" transform="translate(144.7,465.0)"><circle class="hit" r="16"/><circle class="dot" r="5"/></g><g class="marker m-island" data-part="け" data-kind="諸島" transform="translate(9.3,263.0)"><circle class="hit" r="16"/><circle class="dot" r="4"/></g><g class="marker m-island" data-part="こ" data-kind="島" transform="translate(317.2,150.9)"><circle class="hit" r="16"/><circle class="dot" r="4"/></g><g class="marker m-island" data-part="さ" data-kind="諸島" transform="translate(315.2,103.3)"><circle class="hit" r="16"/><circle class="dot" r="4"/></g><g class="marker m-island" data-part="し" data-kind="諸島" transform="translate(341.0,792.6)"><circle class="hit" r="16"/><circle class="dot" r="4"/></g><g class="marker m-island" data-part="す" data-kind="島" transform="translate(242.8,816.3)"><circle class="hit" r="16"/><circle class="dot" r="4"/></g><g class="marker m-island" data-part="せ" data-kind="諸島" transform="translate(188.1,698.5)"><circle class="hit" r="16"/><circle class="dot" r="4"/></g><g class="marker m-river" data-part="そ" data-kind="川" transform="translate(279.0,175.7)"><circle class="hit" r="16"/><circle class="dot" r="3"/></g><g class="marker m-river" data-part="た" data-kind="川" transform="translate(351.3,537.3)"><circle class="hit" r="16"/><circle class="dot" r="3"/></g><g class="marker m-river" data-part="ち" data-kind="川" transform="translate(356.5,614.8)"><circle class="hit" r="16"/><circle class="dot" r="3"/></g><g class="marker m-river" data-part="つ" data-kind="川" transform="translate(330.7,289.3)"><circle class="hit" r="16"/><circle class="dot" r="3"/></g><g class="marker m-lake" data-part="て" data-kind="湖" transform="translate(234.6,421.6)"><circle class="hit" r="16"/><circle class="dot" r="4"/></g><g class="marker m-mountain" data-part="と" data-kind="山脈" transform="translate(227.3,568.3)"><circle class="hit" r="16"/><polygon class="dot" points="0,-5 4.3,3 -4.3,3"/></g><g class="marker m-land" data-part="な" data-kind="高地" transform="translate(310.0,206.7)"><circle class="hit" r="16"/><circle class="dot" r="4"/></g><g class="marker m-land" data-part="に" data-kind="盆地" transform="translate(279.0,299.7)"><circle class="hit" r="16"/><circle class="dot" r="4"/></g><g class="marker m-land" data-part="ぬ" data-kind="高原" transform="translate(465.0,413.3)"><circle class="hit" r="16"/><circle class="dot" r="4"/></g><g class="marker m-land" data-part="ね" data-kind="地方" transform="translate(248.0,191.2)"><circle class="hit" r="16"/><circle class="dot" r="4"/></g><g class="marker m-land" data-part="の" data-kind="地方" transform="translate(434.0,382.3)"><circle class="hit" r="16"/><circle class="dot" r="4"/></g><g class="marker m-land" data-part="は" data-kind="地方" transform="translate(320.3,496.0)"><circle class="hit" r="16"/><circle class="dot" r="4"/></g><g class="marker m-land" data-part="ひ" data-kind="地方" transform="translate(310.0,620.0)"><circle class="hit" r="16"/><circle class="dot" r="4"/></g><g class="marker m-land" data-part="ふ" data-kind="地方" transform="translate(237.7,723.3)"><circle class="hit" r="16"/><circle class="dot" r="4"/></g><g class="marker m-land" data-part="へ" data-kind="砂漠" transform="translate(232.5,501.2)"><circle class="hit" r="16"/><circle class="dot" r="4"/></g><g class="marker m-mountain" data-part="ほ" data-kind="山" transform="translate(227.2,595.7)"><circle class="hit" r="16"/><polygon class="dot" points="0,-5 4.3,3 -4.3,3"/></g><g class="marker m-strait" data-part="ま" data-kind="海峡" transform="translate(217.0,811.2)"><circle class="hit" r="16"/><rect class="dot" x="-3.3" y="-3.3" width="6.6" height="6.6" transform="rotate(45)"/></g><g class="marker m-city" data-part="a" data-kind="都市" transform="translate(299.7,191.2)"><circle class="hit" r="16"/><circle class="dot" r="4"/></g><g class="marker m-city" data-part="b" data-kind="都市" transform="translate(431.9,320.3)"><circle class="hit" r="16"/><circle class="dot" r="4"/></g><g class="marker m-city" data-part="c" data-kind="都市" transform="translate(271.2,460.7)"><circle class="hit" r="16"/><circle class="dot" r="4"/></g><g class="marker m-city" data-part="d" data-kind="都市" transform="translate(238.7,488.8)"><circle class="hit" r="16"/><circle class="dot" r="4"/></g><g class="marker m-city" data-part="e" data-kind="都市" transform="translate(223.7,610.5)"><circle class="hit" r="16"/><circle class="dot" r="4"/></g><g class="marker m-city" data-part="1" data-kind="都市" transform="translate(99.4,19.5)"><circle class="hit" r="16"/><circle class="dot" r="4"/></g><g class="marker m-city" data-part="2" data-kind="都市" transform="translate(157.2,72.4)"><circle class="hit" r="16"/><circle class="dot" r="4"/></g><g class="marker m-city" data-part="3" data-kind="都市" transform="translate(203.2,66.2)"><circle class="hit" r="16"/><circle class="dot" r="4"/></g><g class="marker m-city" data-part="4" data-kind="都市" transform="translate(228.1,67.3)"><circle class="hit" r="16"/><circle class="dot" r="4"/></g><g class="marker m-city" data-part="5" data-kind="都市" transform="translate(129.0,165.5)"><circle class="hit" r="16"/><circle class="dot" r="4"/></g><g class="marker m-city" data-part="6" data-kind="都市" transform="translate(185.3,209.7)"><circle class="hit" r="16"/><circle class="dot" r="4"/></g><g class="marker m-city" data-part="7" data-kind="都市" transform="translate(169.9,193.9)"><circle class="hit" r="16"/><circle class="dot" r="4"/></g><g class="marker m-city" data-part="8" data-kind="都市" transform="translate(259.4,149.9)"><circle class="hit" r="16"/><circle class="dot" r="4"/></g><g class="marker m-city" data-part="9" data-kind="都市" transform="translate(349.7,188.1)"><circle class="hit" r="16"/><circle class="dot" r="4"/></g><g class="marker m-city" data-part="10" data-kind="都市" transform="translate(330.4,290.6)"><circle class="hit" r="16"/><circle class="dot" r="4"/></g><g class="marker m-city" data-part="11" data-kind="都市" transform="translate(455.9,421.5)"><circle class="hit" r="16"/><circle class="dot" r="4"/></g><g class="marker m-city" data-part="12" data-kind="都市" transform="translate(590.2,341.5)"><circle class="hit" r="16"/><circle class="dot" r="4"/></g><g class="marker m-city" data-part="13" data-kind="都市" transform="translate(504.3,495.1)"><circle class="hit" r="16"/><circle class="dot" r="4"/></g><g class="marker m-city" data-part="14" data-kind="都市" transform="translate(468.8,501.7)"><circle class="hit" r="16"/><circle class="dot" r="4"/></g><g class="marker m-city" data-part="15" data-kind="都市" transform="translate(355.7,519.6)"><circle class="hit" r="16"/><circle class="dot" r="4"/></g><g class="marker m-city" data-part="16" data-kind="都市" transform="translate(370.3,619.0)"><circle class="hit" r="16"/><circle class="dot" r="4"/></g><g class="marker m-city" data-part="17" data-kind="都市" transform="translate(347.4,615.9)"><circle class="hit" r="16"/><circle class="dot" r="4"/></g><g class="marker m-city" data-part="18" data-kind="都市" transform="translate(220.6,604.1)"><circle class="hit" r="16"/><circle class="dot" r="4"/></g><g class="marker m-city" data-part="19" data-kind="都市" transform="translate(246.4,428.8)"><circle class="hit" r="16"/><circle class="dot" r="4"/></g><g class="marker m-city" data-part="20" data-kind="都市" transform="translate(207.0,398.1)"><circle class="hit" r="16"/><circle class="dot" r="4"/></g><g class="marker m-city" data-part="21" data-kind="都市" transform="translate(154.6,382.8)"><circle class="hit" r="16"/><circle class="dot" r="4"/></g><g class="marker m-city" data-part="22" data-kind="都市" transform="translate(139.8,260.2)"><circle class="hit" r="16"/><circle class="dot" r="4"/></g></g></svg>