<svg xmlns="http://www.w3.org/2000/svg" viewBox="0 0 700 471" data-region="wasia"><style>.land{fill:#eef1ec;stroke:#94a3ae;stroke-width:.7;vector-effect:non-scaling-stroke}.river{fill:none;stroke:#8db8da;stroke-width:1.3;stroke-linecap:round;vector-effect:non-scaling-stroke}.grid{stroke:#d3dae1;stroke-width:.5}.grid-q{stroke:#9aa7b5;stroke-width:1.1;stroke-dasharray:6 4}.marker .hit{fill:#000;fill-opacity:0;pointer-events:all}.marker .dot{fill:#3a3a3c;stroke:#fff;stroke-width:1.2}.m-city .dot{fill:#1c1c1e}.m-river .dot{fill:#2f6690}.m-sea .dot{fill:#fff;stroke:#5aa0c6;stroke-width:2}.m-strait .dot{fill:#1a5276;stroke:#fff;stroke-width:1}.m-mountain .dot{fill:#8a5a2f;stroke:#fff;stroke-width:1}.m-lake .dot{fill:#7ec8e3}.m-island .dot{fill:#3f9142}.m-grid .dot{fill:#8e8e93;stroke:#fff;stroke-width:1}.m-land .dot{fill:#c9a878}</style><g id="grid"><line class="grid" x1="0.0" y1="0" x2="0.0" y2="471"/><line class="grid" x1="67.3" y1="0" x2="67.3" y2="471"/><line class="grid" x1="134.6" y1="0" x2="134.6" y2="471"/><line class="grid" x1="201.9" y1="0" x2="201.9" y2="471"/><line class="grid" x1="269.2" y1="0" x2="269.2" y2="471"/><line class="grid" x1="336.5" y1="0" x2="336.5" y2="471"/><line class="grid" x1="403.8" y1="0" x2="403.8" y2="471"/><line class="grid" x1="471.2" y1="0" x2="471.2" y2="471"/><line class="grid" x1="538.5" y1="0" x2="538.5" y2="471"/><line class="grid" x1="605.8" y1="0" x2="605.8" y2="471"/><line class="grid" x1="673.1" y1="0" x2="673.1" y2="471"/><line class="grid" x1="0" y1="471.2" x2="700" y2="471.2"/><line class="grid" x1="0" y1="403.8" x2="700" y2="403.8"/><line class="grid" x1="0" y1="336.5" x2="700" y2="336.5"/><line class="grid" x1="0" y1="269.2" x2="700" y2="269.2"/><line class="grid" x1="0" y1="201.9" x2="700" y2="201.9"/><line class="grid" x1="0" y1="134.6" x2="700" y2="134.6"/><line class="grid" x1="0" y1="67.3" x2="700" y2="67.3"/><line class="grid" x1="0" y1="0.0" x2="700" y2="0.0"/><line class="grid-q part-shape" data-part="あ" x1="0" y1="290.8" x2="700" y2="290.8"/><line class="grid-q part-shape" data-part="い" x1="0" y1="67.3" x2="700" y2="67.3"/><line class="grid-q part-shape" data-part="う" x1="67.3" y1="0" x2="67.3" y2="471"/></g><g id="land"><path class="land" fill-rule="evenodd" d="M666.7,107.3L660.1,110.0L656.5,109.2L647.7,109.5L636.1,111.3L629.6,115.3L627.6,115.3L622.4,119.5L621.7,120.6L624.6,122.8L626.9,127.3L626.6,130.7L627.6,132.2L618.8,140.9L620.5,143.1L619.9,147.4L614.6,148.7L605.7,147.4L604.3,148.0L604.0,149.5L607.6,153.2L609.6,156.6L609.3,157.6L604.7,160.0L599.1,161.3L597.8,165.8L595.6,169.2L596.1,175.9L590.5,179.9L586.9,177.7L584.8,178.3L581.0,177.7L579.1,179.3L573.2,181.6L575.3,183.8L571.5,185.3L564.4,184.3L563.1,184.9L556.6,191.1L555.1,200.4L556.1,202.3L554.3,204.1L539.7,207.9L530.3,208.1L526.3,210.1L519.2,208.7L504.5,209.9L482.5,203.8L495.5,189.6L494.8,184.6L493.5,183.3L482.2,181.8L482.3,171.6L478.7,160.7L478.7,159.7L483.5,154.7L478.0,152.9L477.7,146.8L479.8,143.9L483.1,143.8L480.9,141.1L484.0,139.3L485.7,136.6L486.6,133.4L486.0,130.9L487.2,130.4L488.1,126.3L489.3,126.1L493.0,128.8L497.9,128.6L502.2,132.3L504.3,131.2L507.3,131.2L512.3,128.6L513.8,125.5L513.3,123.2L525.1,121.0L531.9,116.6L536.0,105.9L539.7,104.5L545.9,104.3L547.1,101.4L548.8,100.0L558.3,103.1L563.1,102.7L569.7,104.9L572.3,104.1L574.8,104.6L576.6,106.8L579.8,108.4L591.1,103.2L596.4,106.1L597.9,104.9L597.7,102.3L598.9,100.2L608.3,99.9L609.2,98.8L608.7,95.2L614.1,89.7L617.6,88.1L622.7,90.1L623.7,91.9L623.0,95.3L627.1,95.4L625.1,106.0L626.4,109.8L628.2,111.8L630.0,111.8L637.5,107.9L641.5,107.3L644.7,104.1L651.3,101.5L655.9,102.1L655.0,104.5L664.3,102.1L668.5,102.4L671.6,104.6L669.4,103.8L664.6,105.6L666.7,107.3Z"/><path class="land" fill-rule="evenodd" d="M389.4,280.3L385.5,280.4L388.1,279.2L389.4,280.3Z"/><path class="land" fill-rule="evenodd" d="M371.8,278.8L371.9,277.6L371.8,278.8Z"/><path class="land" fill-rule="evenodd" d="M381.4,279.2L379.5,278.8L382.5,277.2L382.9,277.7L381.4,279.2Z"/><path class="land" fill-rule="evenodd" d="M396.7,276.7L394.9,276.4L395.7,275.9L396.7,276.7Z"/><path class="land" fill-rule="evenodd" d="M421.3,260.5L422.2,261.6L422.5,269.5L418.2,272.7L416.9,271.1L417.3,269.9L416.2,269.6L414.6,271.0L414.1,279.4L416.3,279.8L417.1,281.8L410.2,283.5L410.7,286.4L406.5,295.7L406.3,300.1L405.5,301.2L370.9,297.1L357.7,281.0L358.2,278.1L358.9,279.3L360.3,279.3L360.7,281.7L362.2,282.9L366.8,282.8L372.2,280.6L388.9,281.7L395.7,278.9L400.4,271.8L405.2,268.7L410.9,262.5L416.5,258.5L418.4,254.9L419.6,255.1L419.3,259.9L421.3,260.5ZM420.1,266.4L421.0,265.2L420.1,266.4Z"/><path class="land" fill-rule="evenodd" d="M276.7,59.0L275.7,58.6L276.7,59.0Z"/><path class="land" fill-rule="evenodd" d="M289.3,82.0L284.2,82.4L282.0,78.4L282.4,77.5L279.5,75.7L279.3,73.2L275.4,74.1L272.6,72.8L271.6,73.1L270.3,70.8L266.1,71.3L259.7,66.8L255.8,67.1L251.3,65.6L251.9,65.1L250.0,60.8L252.0,57.6L250.8,54.8L248.2,52.4L258.8,51.0L267.1,51.0L266.7,50.4L269.2,49.9L271.8,51.9L270.2,52.8L274.9,54.0L277.1,55.9L274.3,58.2L275.3,60.1L282.2,64.2L281.2,67.0L277.0,67.6L285.4,72.8L289.2,73.3L289.1,74.4L287.6,75.4L290.6,77.8L288.1,78.2L289.3,79.8L289.3,82.0ZM268.8,53.5L269.5,52.8L268.8,53.5Z"/><path class="land" fill-rule="evenodd" d="M266.1,71.3L269.7,70.5L271.6,73.1L272.6,72.8L275.4,74.1L279.8,73.4L279.5,75.7L282.4,77.5L282.0,78.4L284.2,82.4L275.7,80.7L271.1,77.3L266.1,71.3Z"/><path class="land" fill-rule="evenodd" d="M289.3,82.0L289.3,79.8L288.1,78.2L290.6,77.8L287.6,75.4L289.1,74.4L289.2,73.3L285.4,72.8L277.0,67.6L281.2,67.0L282.2,64.2L275.3,60.1L274.3,58.2L277.1,55.9L274.9,54.0L270.2,52.8L271.8,51.9L269.2,49.9L273.0,47.8L278.9,49.3L279.0,50.3L281.6,51.3L285.0,51.2L289.9,52.7L291.7,50.0L286.8,47.0L285.1,45.0L288.5,41.9L290.4,43.1L292.8,42.9L298.1,46.9L300.4,50.0L306.8,51.2L310.4,47.7L314.9,45.7L317.3,42.5L323.8,48.8L326.1,53.5L329.2,56.5L333.5,59.4L339.0,60.5L341.5,63.5L335.4,63.0L330.5,64.7L327.4,72.6L328.0,76.1L326.7,76.9L325.3,80.4L324.7,80.7L323.3,79.0L321.1,82.9L321.3,88.4L317.6,88.7L309.6,82.7L310.3,81.6L313.5,80.5L311.0,77.5L314.0,75.4L309.6,71.6L302.6,74.1L289.3,82.0ZM276.7,59.0L275.7,58.6L276.7,59.0Z"/><path class="land" fill-rule="evenodd" d="M268.8,53.5L269.5,52.8L268.8,53.5Z"/><path class="land" fill-rule="evenodd" d="M48.3,16.9L47.9,20.2L46.7,21.7L42.2,21.6L39.4,24.4L38.9,30.3L33.4,34.1L36.5,35.7L40.6,40.8L34.1,41.5L30.2,39.1L27.1,39.6L21.3,41.1L20.3,42.7L18.3,43.1L17.8,44.2L14.9,44.1L14.4,44.8L15.6,48.0L14.4,49.1L3.4,50.6L0.0,49.0L0.0,17.4L9.2,17.3L16.4,13.4L28.1,11.2L32.6,13.2L38.8,13.6L41.1,15.9L43.4,16.5L48.3,16.9Z"/><path class="land" fill-rule="evenodd" d="M344.7,257.3L344.3,258.4L342.8,256.2L342.9,252.7L344.4,252.5L344.7,257.3Z"/><path class="land" fill-rule="evenodd" d="M666.9,107.4L664.6,105.6L669.4,103.8L671.6,104.6L674.7,102.5L671.7,99.6L672.2,97.3L670.0,91.6L670.6,88.0L663.4,85.3L661.4,85.3L659.2,87.0L656.3,84.8L655.5,82.7L657.0,81.2L654.3,77.7L654.7,74.7L657.2,74.2L658.4,73.0L657.4,70.0L658.8,67.6L659.9,66.5L665.2,65.5L668.8,63.1L670.8,62.9L670.9,60.8L676.3,60.8L680.1,58.9L680.9,59.2L682.2,63.2L690.0,61.5L690.8,62.6L693.0,61.3L697.6,54.1L700.0,53.3L700.0,126.8L694.1,124.2L694.0,122.7L688.5,123.5L687.5,121.4L685.4,120.5L686.2,116.0L683.5,111.8L678.8,111.2L677.7,108.9L675.0,108.1L666.9,107.4Z"/><path class="land" fill-rule="evenodd" d="M121.2,133.7L119.4,133.4L114.1,134.6L112.9,132.4L106.6,133.4L103.8,132.3L106.1,132.2L106.9,129.4L115.9,129.8L128.6,125.7L120.4,130.7L119.9,131.9L121.2,133.7Z"/><path class="land part-shape" data-part="せ" fill-rule="evenodd" d="M103.8,132.3L106.6,133.4L112.9,132.4L114.1,134.6L119.4,133.4L121.8,134.8L117.1,135.0L113.3,138.0L109.2,138.7L106.9,140.3L105.9,139.2L100.3,138.3L98.5,135.2L98.3,133.5L99.5,133.9L103.8,132.3Z"/><path class="land" fill-rule="evenodd" d="M245.6,451.0L241.3,457.7L236.4,456.6L228.3,458.5L226.1,458.0L226.1,448.5L234.9,437.2L238.3,439.1L240.5,435.8L243.9,434.7L247.1,439.3L247.4,443.0L243.0,446.5L239.6,447.7L237.5,450.2L235.9,450.0L236.7,451.0L242.9,449.8L245.6,451.0Z"/><path class="land" fill-rule="evenodd" d="M124.5,185.7L133.3,209.0L131.1,211.7L126.5,228.6L124.1,232.0L117.9,228.2L111.0,221.2L109.4,215.7L103.9,208.4L101.8,202.3L100.6,202.9L99.1,206.9L102.3,211.1L102.7,215.5L106.3,221.2L115.1,230.2L115.1,234.1L119.1,239.8L120.6,247.0L128.8,259.9L137.2,276.3L141.0,280.6L145.2,283.5L141.9,283.8L141.4,285.7L141.7,290.2L144.0,296.9L146.9,299.7L151.2,301.2L159.8,309.7L86.6,309.7L87.3,307.6L86.2,306.9L83.6,309.7L0.0,309.7L0.0,181.8L1.5,180.0L5.1,181.6L12.0,180.1L30.3,183.4L34.2,185.6L47.3,187.8L54.8,190.7L59.6,189.4L66.4,185.4L70.3,185.0L72.6,182.3L79.7,180.8L74.9,182.8L80.8,182.2L81.9,180.3L87.8,182.3L92.7,181.2L96.1,183.9L92.8,182.0L91.1,184.5L94.3,185.5L95.6,187.2L98.0,185.8L97.1,184.5L102.4,187.5L109.4,186.2L110.3,187.3L116.7,186.7L123.8,184.1L124.5,185.7Z"/><path class="land" fill-rule="evenodd" d="M243.9,434.7L240.5,435.8L238.3,439.1L235.3,437.3L233.9,438.0L230.7,433.8L228.2,432.4L225.7,428.3L220.3,424.0L213.0,415.8L203.8,411.2L200.5,411.4L195.6,410.1L191.1,410.9L188.8,408.9L185.9,410.8L180.8,411.5L178.0,408.6L173.4,405.8L169.2,415.3L165.0,411.2L161.9,413.6L159.0,413.1L155.1,413.9L153.8,402.1L160.4,386.4L160.0,382.0L161.7,376.1L167.1,376.1L168.9,372.6L178.4,369.1L183.2,363.4L188.9,375.8L192.5,391.4L199.0,402.2L200.1,397.5L202.5,399.3L204.7,403.7L209.3,404.7L212.7,407.3L217.8,409.0L224.2,417.5L232.1,422.9L234.2,427.9L235.9,427.8L238.7,430.5L239.6,432.6L241.9,433.3L242.3,432.1L243.9,434.7Z"/><path class="land" fill-rule="evenodd" d="M203.8,394.5L204.4,395.2L205.3,394.4L207.3,396.0L201.6,395.6L201.2,394.5L202.9,394.7L201.1,393.8L201.9,392.7L201.3,391.9L203.2,392.6L203.8,394.5Z"/><path class="land" fill-rule="evenodd" d="M203.0,389.3L203.4,390.6L201.9,389.8L203.0,389.3Z"/><path class="land" fill-rule="evenodd" d="M233.9,438.0L226.1,448.5L226.1,458.0L228.3,458.5L236.4,456.6L241.3,457.7L237.7,463.1L240.2,468.4L242.6,471.2L124.2,471.2L125.3,468.6L124.9,464.0L125.8,462.3L128.9,459.3L131.5,461.1L133.7,459.5L135.7,447.6L142.6,437.0L144.4,435.3L149.8,434.0L150.2,429.5L153.3,422.3L155.1,413.9L159.0,413.1L161.9,413.6L165.0,411.2L169.2,415.3L173.4,405.8L178.0,408.6L180.8,411.5L185.9,410.8L189.5,408.9L191.1,410.9L195.6,410.1L200.5,411.4L203.8,411.2L212.3,415.4L220.3,424.0L225.7,428.3L228.2,432.4L230.7,433.8L233.9,438.0Z"/><path class="land" fill-rule="evenodd" d="M269.2,49.9L266.7,50.4L267.1,51.0L258.8,51.0L248.2,52.4L247.7,51.5L245.1,51.2L244.3,49.7L239.0,46.1L237.0,46.1L235.1,47.9L227.8,47.2L226.5,48.0L222.3,46.9L224.8,44.4L225.7,40.8L222.0,31.5L217.1,29.2L213.2,26.1L208.1,25.0L201.6,21.3L203.9,19.3L210.6,19.7L223.2,24.0L239.1,24.6L252.8,30.3L252.2,32.1L253.4,32.7L262.6,30.3L264.4,30.5L266.1,32.1L267.5,30.2L271.4,31.3L273.9,33.3L278.1,33.4L279.0,34.0L277.8,37.6L288.5,41.9L285.4,43.9L285.3,45.4L291.7,50.0L291.1,51.7L288.9,52.9L285.0,51.2L279.9,50.8L278.9,49.3L273.0,47.8L269.2,49.9Z"/><path class="land" fill-rule="evenodd" d="M0.0,49.0L3.4,50.6L14.4,49.1L15.6,48.0L14.4,44.8L16.2,43.8L21.3,45.8L21.9,48.4L17.9,50.6L17.9,54.5L14.0,57.5L11.5,55.9L0.0,54.3Z"/><path class="land" fill-rule="evenodd" d="M0.0,129.1L6.4,130.5L9.8,129.9L10.7,133.0L17.8,130.4L16.8,134.0L15.7,134.4L0.0,135.3Z"/><path class="land" fill-rule="evenodd" d="M29.3,128.4L28.8,129.1L27.9,126.6L29.9,123.6L29.0,126.1L30.1,128.2L29.3,128.4Z"/><path class="land" fill-rule="evenodd" d="M38.3,122.1L36.6,121.7L36.6,118.8L39.2,116.5L43.5,115.3L41.6,120.3L38.3,122.1Z"/><path class="land" fill-rule="evenodd" d="M6.5,115.9L5.0,116.3L5.5,114.8L6.5,115.9Z"/><path class="land" fill-rule="evenodd" d="M19.7,113.3L17.9,114.3L17.1,113.8L18.4,112.6L19.7,113.3Z"/><path class="land" fill-rule="evenodd" d="M38.5,113.7L37.5,113.0L38.5,112.5L38.5,113.7Z"/><path class="land" fill-rule="evenodd" d="M5.1,112.1L3.5,110.9L5.5,111.5L5.1,112.1Z"/><path class="land" fill-rule="evenodd" d="M26.2,111.4L29.8,109.1L31.7,109.5L26.2,111.4Z"/><path class="land" fill-rule="evenodd" d="M11.6,110.5L10.0,110.5L13.5,108.5L14.3,109.0L11.6,110.5Z"/><path class="land" fill-rule="evenodd" d="M27.2,108.2L25.8,108.4L25.4,106.5L27.5,107.7L27.2,108.2Z"/><path class="land" fill-rule="evenodd" d="M3.8,106.8L2.7,107.8L1.4,107.2L3.2,105.7L3.8,106.8Z"/><path class="land" fill-rule="evenodd" d="M7.3,108.1L6.1,108.6L4.9,106.7L7.1,105.0L7.9,105.6L7.3,108.1Z"/><path class="land" fill-rule="evenodd" d="M5.4,102.1L4.1,102.1L4.2,101.1L6.2,101.4L5.4,102.1Z"/><path class="land" fill-rule="evenodd" d="M13.9,100.6L13.2,100.6L14.6,99.1L18.2,98.6L13.9,100.6Z"/><path class="land" fill-rule="evenodd" d="M3.4,99.6L2.1,100.4L0.0,98.6L3.4,99.6Z"/><path class="land" fill-rule="evenodd" d="M24.6,96.8L27.5,97.3L27.7,98.1L24.8,99.0L21.3,97.9L24.6,96.8Z"/><path class="land" fill-rule="evenodd" d="M14.7,91.3L13.4,92.1L12.0,91.0L13.3,89.5L11.4,86.5L13.6,86.1L15.6,87.0L15.6,90.2L14.7,91.3Z"/><path class="land" fill-rule="evenodd" d="M19.0,76.3L18.7,77.1L21.2,79.3L21.3,80.3L20.0,79.8L20.8,80.8L15.6,80.4L14.9,79.7L17.1,78.1L14.4,79.5L11.4,78.1L12.2,76.9L15.7,75.7L19.0,76.3Z"/><path class="land" fill-rule="evenodd" d="M5.9,67.5L4.8,69.9L3.5,69.7L3.4,68.7L2.5,69.6L0.8,69.3L0.8,67.3L3.8,67.9L6.0,66.8L5.9,67.5Z"/><path class="land" fill-rule="evenodd" d="M9.2,61.6L7.7,61.9L6.0,60.8L7.7,60.4L9.2,61.6Z"/><path class="land" fill-rule="evenodd" d="M690.1,471.2L682.8,452.8L680.1,448.2L675.7,443.5L672.3,436.6L670.0,429.7L668.6,421.8L664.8,410.6L658.9,402.8L656.9,398.5L658.7,398.5L656.5,396.1L657.4,395.0L655.3,394.3L650.7,384.2L648.3,368.6L644.5,354.8L646.2,349.7L645.8,347.9L643.9,350.3L643.5,348.9L643.6,346.0L646.0,346.3L643.3,345.1L643.5,343.0L641.7,338.8L644.7,327.5L643.6,321.5L642.0,320.7L641.1,318.1L642.6,316.7L640.9,316.9L647.7,313.0L640.0,313.7L640.7,311.3L642.1,310.0L639.7,309.9L640.1,307.5L643.6,306.5L635.2,306.0L636.8,307.1L636.4,308.4L633.2,312.0L635.5,313.3L636.1,315.9L632.9,321.0L619.6,326.6L615.5,326.6L612.3,325.2L606.2,320.7L594.9,309.7L591.9,305.7L593.0,303.7L596.0,305.8L608.2,301.9L612.7,296.1L612.4,294.9L610.3,297.0L607.4,296.9L601.3,299.4L595.5,298.2L587.5,293.6L584.5,288.5L589.3,284.7L582.0,288.1L581.1,284.6L584.0,283.4L588.6,283.2L588.6,279.1L589.4,278.5L590.0,279.1L599.8,279.0L603.1,280.5L606.1,280.1L607.1,278.8L612.4,277.1L613.1,277.1L613.6,278.9L615.4,279.5L619.8,277.3L618.8,275.0L619.9,273.4L614.5,263.5L614.5,260.3L609.3,259.7L607.1,257.0L607.8,249.0L599.1,245.8L599.5,240.7L604.4,235.9L607.7,230.9L611.2,228.5L614.2,229.7L615.1,232.0L616.5,232.8L630.9,229.4L637.3,218.7L644.9,215.0L649.3,208.0L651.3,202.8L657.0,200.7L658.7,198.9L658.3,196.1L664.2,189.9L668.1,188.0L666.6,186.0L667.6,182.2L666.5,178.9L667.1,177.4L677.4,172.1L676.2,170.0L668.8,168.4L668.5,164.8L664.4,164.7L663.7,161.6L659.7,159.0L661.6,154.7L659.3,151.8L663.0,148.8L658.3,147.1L659.2,144.9L656.8,143.0L659.1,139.3L663.7,137.8L682.6,141.3L687.1,139.1L694.5,138.2L700.0,134.7L700.0,471.2Z"/><path class="land" fill-rule="evenodd" d="M643.2,455.0L643.4,454.2L643.2,455.0Z"/><path class="land" fill-rule="evenodd" d="M488.1,126.3L487.2,130.4L486.0,130.9L486.6,133.4L485.7,136.6L484.0,139.3L480.9,141.1L483.1,143.8L479.8,143.9L477.7,146.8L478.0,152.9L483.5,154.7L478.7,159.7L478.7,160.7L482.3,171.6L482.2,181.8L493.5,183.3L494.8,184.6L495.5,189.6L482.5,203.8L488.9,210.4L493.0,218.2L496.6,221.5L502.8,223.3L505.7,225.7L508.3,225.6L509.0,235.6L508.2,238.7L513.8,238.9L515.6,240.6L514.8,241.3L514.9,243.9L513.7,247.0L504.0,248.2L501.3,251.0L499.8,250.8L496.0,252.7L494.8,257.9L493.5,259.1L492.5,266.5L490.2,267.9L480.1,265.4L478.0,263.3L476.5,265.0L466.0,263.8L463.8,262.7L458.3,263.6L455.0,261.8L447.0,261.3L443.4,259.9L441.5,260.4L440.6,259.5L435.3,258.6L432.2,250.8L431.3,245.0L427.1,240.6L422.1,239.6L418.9,240.4L412.6,242.6L409.6,245.4L407.8,245.2L400.6,249.0L393.7,246.4L386.4,246.0L383.0,243.1L372.8,238.0L369.9,234.0L363.9,231.2L357.9,230.7L353.8,227.1L350.8,219.1L348.2,217.1L348.3,214.5L345.6,213.4L345.3,209.7L338.8,203.0L337.5,199.3L330.5,201.5L323.1,196.9L325.6,196.9L326.1,195.6L323.1,195.1L323.6,195.9L321.6,197.5L321.3,201.1L317.0,202.4L315.5,201.4L314.1,198.1L309.8,195.7L309.8,188.6L305.3,188.4L305.3,183.1L307.3,177.8L303.0,173.0L301.2,169.3L297.8,168.7L287.8,162.5L284.2,162.1L283.8,160.4L284.7,158.4L283.0,155.9L281.0,154.9L281.1,153.3L279.2,153.4L274.6,148.5L276.5,145.2L275.1,142.5L276.0,140.2L277.8,140.4L278.4,137.3L284.5,132.9L284.2,130.3L282.4,128.2L282.6,126.4L286.4,124.2L279.7,123.6L276.8,121.5L274.1,120.9L272.5,116.4L269.9,114.8L269.5,111.8L267.6,110.4L266.1,105.9L266.5,103.8L263.5,101.8L263.7,98.1L258.6,95.5L261.8,89.7L259.8,89.0L259.4,83.0L258.1,81.7L258.2,78.8L256.1,75.7L261.0,75.1L261.9,71.8L263.7,70.4L266.8,72.0L271.1,77.3L275.7,80.7L285.0,82.5L290.2,82.1L300.7,75.1L306.6,72.0L309.6,71.6L314.0,75.4L311.0,77.5L313.5,80.5L310.3,81.6L309.6,82.7L317.6,88.7L321.3,88.4L322.1,94.0L324.2,98.7L328.1,100.7L338.3,102.2L341.1,105.7L349.0,110.2L360.3,112.9L366.0,112.8L387.3,108.6L389.2,108.6L386.1,109.7L390.0,110.1L390.7,109.0L389.2,103.1L393.0,103.2L399.8,101.4L402.5,97.2L409.0,93.5L421.0,93.1L423.2,90.9L433.4,91.3L434.9,92.5L435.5,94.6L444.0,96.5L447.8,98.7L455.2,98.5L461.8,100.8L463.8,104.3L472.0,108.2L475.7,112.6L486.2,112.5L487.5,118.6L486.7,121.5L488.0,122.9L488.1,126.3Z"/><path class="land" fill-rule="evenodd" d="M419.8,243.4L416.7,246.3L415.3,245.9L409.6,247.9L407.8,247.2L414.1,244.8L414.0,243.0L416.1,243.5L420.2,242.3L421.1,243.0L419.8,243.4Z"/><path class="land" fill-rule="evenodd" d="M266.1,105.8L267.6,110.4L269.5,111.8L269.9,114.8L272.5,116.4L274.1,120.9L276.8,121.5L279.7,123.6L286.4,124.2L282.6,126.4L282.4,128.2L284.2,130.3L284.5,132.9L278.4,137.3L277.8,140.4L276.0,140.2L275.1,142.5L276.5,145.2L274.6,148.5L279.2,153.4L281.1,153.3L281.0,154.9L283.0,155.9L284.7,158.4L283.8,160.4L284.2,162.1L287.8,162.5L297.8,168.7L301.2,169.3L303.0,173.0L307.3,177.8L305.3,183.1L305.3,188.4L309.8,188.6L309.8,195.7L314.1,198.1L315.5,201.4L317.0,202.4L311.5,201.4L309.3,202.2L305.2,200.6L299.2,201.4L289.8,214.1L265.1,212.7L229.8,187.4L206.9,175.8L190.4,173.3L192.4,171.7L191.8,170.3L189.0,170.9L188.2,168.6L189.2,168.4L185.4,156.5L215.2,142.3L218.0,137.7L218.3,130.7L220.2,126.0L218.7,120.2L219.4,116.0L221.0,114.2L226.0,113.1L238.8,102.8L243.6,102.7L251.4,104.6L257.3,103.6L258.4,104.3L258.5,107.0L259.6,108.0L263.9,105.3L266.1,105.8Z"/><path class="land" fill-rule="evenodd" d="M133.3,209.0L124.5,185.7L128.2,181.4L127.6,180.6L130.3,176.4L136.1,160.4L140.2,160.5L141.8,158.2L146.3,155.7L145.9,157.8L146.9,162.2L145.2,165.1L142.3,166.4L142.0,169.7L137.2,167.8L135.5,168.8L134.0,172.8L134.1,177.4L137.4,178.4L134.0,180.4L133.0,183.5L140.7,182.0L140.5,186.7L136.5,196.3L136.5,200.0L133.3,209.0Z"/><path class="land" fill-rule="evenodd" d="M185.4,156.5L189.2,168.4L188.2,168.6L189.0,170.9L191.8,170.3L192.4,171.7L188.0,175.1L161.0,181.8L174.7,195.2L170.3,197.5L167.9,202.0L157.6,204.2L154.5,208.7L149.0,212.7L134.0,210.6L136.5,200.0L136.5,196.3L140.5,186.7L140.0,185.4L142.1,178.2L142.6,166.0L146.7,165.4L148.9,167.8L153.1,169.8L159.1,170.7L185.4,156.5Z"/><path class="land" fill-rule="evenodd" d="M696.9,125.7L700.0,126.8L700.0,131.9L696.9,125.7Z"/><path class="land" fill-rule="evenodd" d="M700.0,27.3L684.4,27.8L681.6,29.4L678.0,29.1L670.6,27.2L662.4,23.7L658.9,24.3L653.6,26.9L651.8,32.4L652.8,34.9L636.4,30.2L630.2,29.3L624.9,29.8L622.7,30.5L619.5,33.2L617.8,35.8L618.5,37.0L615.4,38.1L613.6,39.9L611.4,39.3L607.1,42.8L593.2,48.9L592.1,51.1L586.7,55.5L586.9,58.4L585.5,59.1L579.5,56.4L580.4,53.5L578.0,51.2L561.5,51.4L558.6,40.5L552.1,40.3L553.3,27.0L549.3,28.6L545.1,22.7L537.2,17.3L531.0,19.5L514.3,18.5L497.9,20.3L486.8,11.2L484.7,8.2L467.6,0.0L417.3,0.0L417.0,49.5L411.2,50.3L407.2,47.7L401.9,40.9L392.0,35.9L377.7,38.4L370.1,43.3L369.7,39.0L371.8,34.6L371.5,30.2L362.1,28.7L358.3,24.8L354.0,24.6L354.1,20.4L350.9,16.8L347.7,10.9L341.0,9.1L339.9,8.0L340.5,5.6L342.1,5.1L348.1,5.0L352.4,6.7L357.3,6.3L350.8,2.5L350.1,1.1L351.0,0.0L700.0,0.0Z"/><path class="land" fill-rule="evenodd" d="M339.0,2.0L337.8,2.3L336.7,0.0L339.0,2.0Z"/><path class="land" fill-rule="evenodd" d="M340.7,0.4L340.1,0.0L340.7,0.4Z"/><path class="land" fill-rule="evenodd" d="M700.0,53.3L697.6,54.1L693.0,61.3L690.8,62.6L690.0,61.5L682.2,63.2L680.6,58.9L674.6,61.2L671.3,60.7L670.4,61.5L670.8,62.9L668.8,63.1L665.2,65.5L659.5,66.7L657.4,70.0L658.5,72.6L657.2,74.2L647.6,75.9L640.3,75.7L637.5,76.2L635.8,78.0L633.3,76.0L629.7,77.0L629.1,75.1L626.0,74.3L625.6,72.6L620.1,74.1L619.3,75.2L616.5,75.5L612.5,72.9L596.3,73.7L595.4,70.5L596.4,67.7L598.7,68.4L599.4,66.0L605.3,64.6L611.8,66.6L612.7,68.0L619.1,63.9L623.3,63.4L628.6,65.3L632.1,63.8L634.5,61.4L637.5,61.9L638.1,59.5L640.8,60.2L648.0,56.4L641.6,55.6L637.6,53.3L635.2,53.5L634.9,51.5L631.1,51.2L628.2,46.6L627.3,47.1L627.1,49.4L624.9,49.2L624.5,52.2L617.4,50.8L615.0,47.8L612.1,48.3L608.5,46.9L608.2,46.2L616.6,41.4L617.3,40.0L622.3,38.2L619.7,36.6L618.5,37.0L617.8,35.8L622.7,30.5L629.5,29.3L636.4,30.2L652.8,34.9L651.8,32.4L653.6,26.9L658.9,24.3L662.4,23.7L670.6,27.2L678.0,29.1L681.6,29.4L684.4,27.8L700.0,27.3ZM615.2,69.7L612.3,68.9L613.3,70.1L615.2,69.7ZM629.7,68.0L629.9,67.4L628.2,68.0L629.7,68.0ZM619.4,67.2L619.4,68.7L622.1,68.6L622.3,66.7L619.3,65.3L618.7,66.1L619.4,67.2Z"/><path class="land" fill-rule="evenodd" d="M289.8,214.1L294.9,208.1L298.1,201.9L300.6,200.9L306.3,200.9L309.3,202.2L311.5,207.7L309.2,207.1L305.9,210.1L310.3,210.6L315.6,221.5L305.2,221.7L302.0,215.5L289.8,214.1Z"/><path class="land" fill-rule="evenodd" d="M313.3,207.0L312.0,207.2L310.7,204.6L312.1,202.2L314.3,204.8L313.3,207.0Z"/><path class="land" fill-rule="evenodd" d="M146.3,155.7L141.8,158.2L140.2,160.5L136.1,160.4L142.9,147.6L143.3,144.7L147.8,140.7L147.8,139.6L153.2,139.2L153.9,139.8L152.5,141.4L154.9,142.3L156.0,145.1L151.8,149.1L153.0,150.2L149.3,150.3L147.9,151.4L147.3,152.6L148.5,153.7L146.3,155.7Z"/><path class="land" fill-rule="evenodd" d="M0.0,176.3L2.0,179.6L0.0,181.8Z"/><path class="land" fill-rule="evenodd" d="M406.3,300.1L406.5,295.7L411.0,285.1L410.2,283.5L417.1,281.8L416.3,279.8L414.1,279.4L414.6,271.0L416.2,269.6L417.3,269.9L416.9,271.1L418.2,272.7L422.5,269.5L425.9,276.4L432.4,283.0L448.6,287.8L452.0,287.5L454.6,289.2L463.5,300.7L468.8,302.8L469.0,304.0L468.5,306.7L462.7,316.4L456.3,321.6L450.6,331.1L447.0,330.8L447.5,328.5L446.5,328.6L442.4,333.3L440.4,340.9L441.7,349.8L433.1,351.3L428.4,353.3L426.1,355.6L424.7,361.2L422.5,363.6L410.3,365.6L407.3,369.0L407.6,372.6L404.7,376.4L400.8,377.4L398.0,376.5L391.3,376.8L385.1,380.2L378.1,381.7L363.2,350.1L403.5,336.6L412.5,309.6L406.3,300.1Z"/><path class="land" fill-rule="evenodd" d="M421.3,260.5L419.3,259.9L419.6,255.1L418.4,254.9L422.4,251.0L423.1,251.4L422.9,254.3L421.3,260.5Z"/><path class="land" fill-rule="evenodd" d="M420.1,266.4L421.0,265.2L420.1,266.4Z"/><path class="land" fill-rule="evenodd" d="M454.0,333.6L452.9,333.7L452.9,332.0L456.1,327.4L457.0,329.6L454.0,333.6Z"/><path class="land" fill-rule="evenodd" d="M482.5,203.8L504.5,209.9L519.2,208.7L526.3,210.1L530.3,208.1L539.7,207.9L555.0,203.7L556.1,202.3L555.1,200.4L556.6,191.1L563.1,184.9L564.4,184.3L571.5,185.3L575.3,183.8L573.2,181.6L579.1,179.3L581.0,177.7L584.8,178.3L586.9,177.7L590.5,179.9L596.1,175.9L595.6,169.2L597.8,165.8L599.1,161.3L604.7,160.0L609.3,157.6L609.6,156.6L607.6,153.2L604.0,149.5L604.3,148.0L605.7,147.4L614.6,148.7L619.9,147.4L620.5,143.1L618.8,140.9L627.6,132.2L626.6,130.7L626.9,127.3L625.0,123.4L621.7,120.6L627.6,115.3L629.6,115.3L636.1,111.3L647.7,109.5L656.5,109.2L660.1,110.0L667.7,107.2L677.7,108.9L678.8,111.2L682.1,111.2L685.0,113.1L686.2,116.0L685.4,120.5L687.5,121.4L688.9,123.7L694.0,122.7L694.1,124.2L696.9,125.7L700.0,131.9L700.0,134.7L697.1,136.0L695.9,137.5L687.1,139.1L682.6,141.3L663.7,137.8L659.1,139.3L656.8,143.0L659.2,144.9L658.3,147.1L663.0,148.8L659.3,151.8L661.6,154.7L659.7,159.0L663.7,161.6L664.4,164.7L668.5,164.8L668.8,168.4L672.9,168.8L677.6,171.2L676.5,173.1L667.1,177.4L666.5,178.9L667.6,182.2L666.6,186.0L668.1,188.0L664.2,189.9L658.3,196.1L658.7,198.9L657.0,200.7L651.3,202.8L649.3,208.0L644.9,215.0L637.3,218.7L630.9,229.4L616.5,232.8L615.1,232.0L614.2,229.7L611.2,228.5L607.7,230.9L604.4,235.9L599.5,240.7L599.1,245.8L607.8,249.0L607.1,257.0L609.3,259.7L614.5,260.3L614.5,263.5L619.9,273.4L618.8,275.0L619.8,277.3L616.1,279.4L613.6,278.9L613.1,277.1L607.1,278.8L604.9,280.4L601.9,280.4L599.8,279.0L590.0,279.1L589.4,278.5L588.6,279.1L588.6,283.2L582.6,283.7L580.4,286.0L577.0,284.0L576.4,285.0L574.4,285.2L574.1,283.8L573.0,284.3L569.5,280.3L567.7,272.5L561.4,271.1L561.3,266.2L559.1,262.7L556.3,261.1L553.7,262.6L556.7,262.4L558.2,263.2L535.5,265.1L533.9,266.8L525.8,263.8L524.1,264.6L519.0,264.5L518.2,266.4L507.0,265.7L502.3,267.4L500.8,266.2L496.8,267.5L492.2,266.7L493.5,259.1L494.8,257.9L496.0,252.7L499.8,250.8L501.3,251.0L504.0,248.2L513.7,247.0L515.6,240.3L513.8,238.9L508.3,238.9L509.0,235.6L508.3,225.6L505.7,225.7L502.8,223.3L496.6,221.5L493.0,218.2L488.9,210.4L482.5,203.8Z"/><path class="land" fill-rule="evenodd" d="M124.5,185.7L123.8,184.1L127.6,180.6L128.2,181.4L124.5,185.7Z"/><path class="land" fill-rule="evenodd" d="M140.7,182.0L136.0,183.5L132.9,183.1L134.0,180.4L137.4,178.4L134.0,177.1L134.8,170.4L137.2,167.8L142.0,169.7L142.1,178.2L140.7,182.0Z"/><path class="land" fill-rule="evenodd" d="M353.6,274.5L349.5,275.0L348.1,273.5L346.7,263.9L350.0,256.0L353.5,253.7L357.3,257.1L357.7,258.7L356.5,262.2L358.2,268.5L355.8,273.7L353.6,274.5Z"/><path class="land" fill-rule="evenodd" d="M48.3,16.9L43.4,16.5L41.1,15.9L38.8,13.6L32.6,13.2L28.1,11.2L16.4,13.4L9.2,17.3L0.0,17.4L0.0,0.0L62.5,0.0L61.4,2.1L54.5,3.3L55.1,0.3L52.9,0.5L51.2,5.9L52.3,5.7L49.1,9.5L49.3,13.7L48.3,16.9Z"/><path class="land" fill-rule="evenodd" d="M317.3,42.5L314.9,45.7L310.4,47.7L307.7,51.0L300.4,50.0L298.1,46.9L292.8,42.9L290.4,43.1L289.9,42.1L282.1,39.9L277.8,37.6L279.0,34.0L278.1,33.4L273.9,33.3L271.4,31.3L267.5,30.2L266.1,32.1L264.4,30.5L262.6,30.3L253.4,32.7L252.2,32.1L252.8,30.3L239.1,24.6L223.2,24.0L210.6,19.7L203.9,19.3L201.6,21.3L184.7,9.6L177.4,7.8L173.0,4.1L168.2,4.1L163.3,0.0L298.8,0.0L297.3,2.5L296.2,1.7L292.9,4.6L292.4,7.4L296.5,8.8L300.3,12.1L302.4,19.5L303.7,15.7L304.9,15.0L303.0,20.1L302.4,26.5L304.7,28.2L306.0,31.2L314.8,41.0L317.3,42.5Z"/><path class="land" fill-rule="evenodd" d="M139.7,0.0L135.8,2.7L130.8,2.6L127.5,3.7L124.9,6.2L119.9,8.2L113.8,6.0L115.9,1.2L115.7,0.0Z"/><path class="land" fill-rule="evenodd" d="M357.7,278.8L358.0,281.6L370.9,297.1L405.3,301.2L406.3,300.1L412.5,309.6L403.5,336.6L363.2,350.1L323.6,355.6L311.9,361.3L304.0,370.9L302.1,375.4L298.1,377.6L295.8,377.5L292.5,373.3L286.9,373.8L276.4,372.9L271.2,371.2L257.9,371.6L254.7,372.6L247.9,370.0L244.9,372.1L245.5,373.3L244.4,374.2L243.9,377.7L244.5,381.1L239.6,385.4L238.3,380.5L234.0,375.3L232.8,371.1L225.5,365.0L221.2,357.4L218.5,354.3L216.9,348.9L212.1,339.8L203.0,333.0L198.3,331.3L192.2,323.4L189.7,318.9L190.4,316.1L188.3,311.2L189.8,304.3L189.3,301.6L181.2,286.6L173.9,280.2L168.8,278.8L164.0,271.7L165.1,269.8L163.5,265.3L160.5,260.6L158.3,259.1L157.2,255.2L155.1,254.4L151.4,247.8L137.0,228.4L130.9,227.1L129.6,228.0L129.4,226.8L131.7,222.0L134.0,210.6L149.0,212.7L154.5,208.7L157.6,204.2L167.9,202.0L170.3,197.5L174.7,195.2L161.0,181.8L188.0,175.1L190.4,173.3L206.9,175.8L229.8,187.4L265.1,212.7L302.0,215.5L305.2,221.7L315.6,221.5L320.5,230.2L320.3,232.6L326.3,235.7L325.4,236.4L328.5,239.9L330.3,240.3L338.6,246.8L336.6,246.6L336.9,248.7L339.4,251.6L338.6,254.4L337.0,254.3L337.6,256.3L348.1,273.5L349.5,275.0L355.5,275.0L354.2,278.1L357.7,278.8Z"/><path class="land" fill-rule="evenodd" d="M228.7,380.8L229.7,380.8L229.7,379.6L231.1,380.8L231.0,382.7L226.2,379.9L227.0,376.9L228.1,377.8L228.7,380.8Z"/><path class="land" fill-rule="evenodd" d="M160.2,264.1L155.2,261.1L155.3,260.0L160.9,263.6L160.2,264.1Z"/><path class="land" fill-rule="evenodd" d="M156.1,259.6L155.4,259.3L155.9,257.7L156.1,259.6Z"/><path class="land" fill-rule="evenodd" d="M0.0,309.7L83.6,309.7L86.2,306.9L87.3,307.6L86.6,309.7L159.8,309.7L160.6,315.2L165.0,321.6L165.0,322.5L163.6,321.7L163.4,323.3L164.6,329.0L164.1,334.9L164.9,342.2L167.9,352.4L171.4,354.1L177.7,360.1L178.8,359.6L183.2,363.4L178.4,369.1L168.9,372.6L167.1,376.1L161.7,376.1L160.0,382.0L160.4,386.4L153.8,402.1L155.1,413.9L153.3,422.3L150.2,429.5L149.8,434.0L144.4,435.3L142.6,437.0L135.7,447.6L133.7,459.5L131.5,461.1L128.9,459.3L125.8,462.3L124.9,464.0L125.3,468.6L124.2,471.2L120.6,471.2L119.7,468.5L112.7,462.4L109.4,461.1L110.0,459.7L108.7,449.5L110.4,441.3L103.9,441.2L104.1,444.1L95.2,444.1L98.8,448.1L98.8,453.5L99.9,456.5L93.3,462.2L91.4,466.0L86.6,471.2L73.2,471.2L67.3,467.4L62.4,470.0L62.0,471.2L15.0,471.2L12.0,468.4L11.9,466.5L10.7,465.5L1.4,467.0L0.3,468.0L0.0,470.5Z"/><path class="land" fill-rule="evenodd" d="M0.0,471.2L0.9,467.2L10.7,465.5L11.9,466.5L12.0,468.4L15.0,471.2L62.0,471.2L62.4,470.0L67.3,467.4L73.2,471.2L86.6,471.2L91.4,466.0L93.3,462.2L99.9,456.5L98.8,453.5L98.8,448.1L95.2,444.1L104.1,444.1L103.9,441.2L110.4,441.3L108.7,449.5L110.0,459.7L109.4,461.1L112.7,462.4L119.7,468.5L120.6,471.2Z"/><path class="land" fill-rule="evenodd" d="M241.3,457.7L245.6,451.0L248.2,453.0L253.8,460.6L259.5,464.8L268.5,465.3L280.2,459.9L290.3,461.1L301.6,455.3L305.7,456.2L309.9,455.8L318.7,453.3L322.3,454.2L322.2,471.2L242.6,471.2L240.2,468.4L237.7,463.1L241.3,457.7Z"/><path class="land" fill-rule="evenodd" d="M322.2,471.2L322.3,454.2L338.0,450.6L342.8,447.9L345.1,445.0L347.2,444.5L353.4,446.5L351.1,453.2L351.9,462.3L350.4,465.2L352.5,464.7L352.6,463.7L355.3,465.5L349.1,466.6L348.4,471.2Z"/><path class="land" fill-rule="evenodd" d="M233.7,106.2L226.0,113.1L221.0,114.2L219.4,116.0L218.7,120.2L220.2,126.0L218.3,130.7L218.0,137.7L214.5,142.9L211.2,143.6L185.4,156.5L159.1,170.7L153.1,169.8L145.2,165.1L146.9,162.2L145.9,157.1L148.5,153.7L147.3,152.6L147.7,151.7L149.3,150.3L153.0,150.2L151.8,149.1L156.0,145.1L154.9,142.3L152.5,141.4L153.9,139.8L153.2,139.2L147.8,139.6L146.6,135.3L147.3,131.6L146.8,129.0L144.9,126.9L146.6,122.3L150.1,123.4L150.8,122.0L152.8,121.1L153.1,118.8L156.6,118.0L155.3,115.0L156.9,110.4L160.8,110.9L162.4,112.4L167.4,112.5L177.6,109.0L181.0,109.5L185.3,111.8L193.3,112.0L202.1,110.0L211.4,106.4L222.3,106.5L229.7,104.9L231.6,103.7L233.7,106.2Z"/><path class="land" fill-rule="evenodd" d="M671.6,104.6L668.5,102.4L664.3,102.1L655.0,104.5L655.9,102.1L651.3,101.5L644.7,104.1L641.5,107.3L637.5,107.9L630.0,111.8L628.2,111.8L626.4,109.8L625.1,106.0L627.1,95.4L623.0,95.3L623.7,91.9L622.7,90.1L617.6,88.1L614.1,89.7L608.7,95.2L609.2,98.8L608.3,99.9L598.9,100.2L597.7,102.3L597.9,104.9L596.4,106.1L591.1,103.2L584.1,105.8L582.4,107.5L578.3,108.1L575.7,105.8L576.3,101.1L582.8,93.8L583.6,91.4L580.0,87.9L579.5,85.2L580.8,82.2L580.2,81.3L574.7,80.8L574.1,79.0L570.1,77.5L571.1,74.5L575.1,72.4L585.1,73.5L586.7,72.2L587.4,69.5L590.5,68.6L589.7,66.6L591.9,66.1L587.3,65.1L596.0,64.6L595.3,63.4L596.4,62.9L595.1,59.7L596.5,58.8L597.1,57.0L597.9,56.6L601.9,58.5L609.7,55.3L611.2,53.4L615.9,57.6L610.8,62.1L613.0,62.9L613.9,64.4L618.7,64.1L618.5,64.8L614.4,66.2L612.7,68.0L611.8,66.6L605.3,64.6L599.4,66.0L598.7,68.4L596.4,67.7L596.1,68.4L595.4,70.5L596.3,73.7L612.5,72.9L616.5,75.5L619.3,75.2L620.1,74.1L625.6,72.6L626.0,74.3L629.1,75.1L629.7,77.0L633.3,76.0L635.8,78.0L637.5,76.2L640.3,75.7L647.6,75.9L654.7,74.7L654.3,77.7L657.0,81.2L655.5,82.7L656.9,86.1L660.0,87.0L661.4,85.3L663.4,85.3L670.6,88.0L670.0,91.6L672.2,97.3L671.7,99.6L674.7,102.5L671.6,104.6Z"/><path class="land" fill-rule="evenodd" d="M615.2,69.7L613.3,70.1L612.3,68.9L615.2,69.7Z"/><path class="land" fill-rule="evenodd" d="M614.6,54.7L613.2,53.6L614.6,54.7Z"/><path class="land" fill-rule="evenodd" d="M559.0,103.0L553.4,102.1L548.8,100.0L547.1,101.4L545.9,104.3L539.7,104.5L536.0,105.9L531.9,116.6L525.1,121.0L513.3,123.2L513.8,125.5L512.3,128.6L507.3,131.2L504.3,131.2L502.2,132.3L497.9,128.6L493.0,128.8L489.3,126.1L488.1,126.3L488.0,122.9L486.7,121.5L487.5,118.6L486.2,112.5L475.7,112.6L472.0,108.2L463.8,104.3L461.8,100.8L455.2,98.5L447.8,98.7L444.0,96.5L435.5,94.6L434.9,92.5L433.4,91.3L423.2,90.9L421.0,93.1L409.0,93.5L402.5,97.2L399.8,101.4L393.0,103.2L389.2,103.1L388.0,95.2L388.6,81.5L386.4,77.9L381.5,76.2L379.0,77.2L378.6,75.0L380.1,72.6L382.2,73.5L385.0,73.4L383.3,71.8L383.5,68.5L376.8,67.5L376.3,68.7L377.4,70.3L374.3,66.6L373.3,61.9L376.2,53.3L378.9,56.2L385.2,56.3L387.2,58.3L388.6,58.6L395.5,58.0L394.7,56.1L399.6,55.6L399.9,52.9L391.7,46.9L387.8,38.8L379.1,39.1L376.5,40.7L374.4,44.3L375.4,45.1L374.9,51.1L370.1,43.3L377.7,38.4L392.0,35.9L401.9,40.9L407.2,47.7L410.4,50.2L416.4,49.5L431.0,50.3L432.4,49.1L431.0,47.8L430.3,42.3L434.7,38.7L441.7,37.8L444.6,33.8L448.0,34.6L449.6,36.4L450.6,36.4L446.3,31.9L447.7,31.1L450.7,31.5L452.2,29.9L456.0,32.8L459.8,33.5L462.5,36.0L469.2,36.4L471.0,37.5L470.4,40.7L473.9,43.0L472.2,43.6L473.0,45.8L472.4,48.5L477.3,50.9L487.9,51.3L491.3,50.1L496.8,52.6L499.4,58.1L503.1,62.8L504.6,67.6L521.8,78.6L527.2,81.4L529.2,81.1L546.7,91.0L551.5,90.9L559.7,94.1L560.4,95.1L559.0,97.1L559.0,103.0Z"/><path class="land" fill-rule="evenodd" d="M378.4,83.4L378.3,84.1L377.6,79.5L378.4,83.4Z"/><path class="land" fill-rule="evenodd" d="M248.2,52.4L250.8,54.8L252.0,57.6L250.0,60.8L251.9,65.1L251.3,65.6L255.0,67.0L261.1,67.4L266.8,72.0L263.7,70.4L261.9,71.8L261.0,75.1L256.1,75.7L258.2,78.8L258.1,81.7L259.4,83.0L259.8,89.0L261.8,89.7L258.6,95.5L263.7,98.1L263.5,101.8L266.5,103.8L266.1,105.8L263.9,105.3L259.6,108.0L258.5,107.0L258.4,104.3L257.3,103.6L251.4,104.6L243.6,102.7L241.5,103.3L239.3,102.7L233.7,106.2L231.6,103.7L229.7,104.9L222.3,106.5L211.4,106.4L202.1,110.0L193.3,112.0L185.3,111.8L181.0,109.5L177.6,109.0L167.4,112.5L162.4,112.4L160.8,110.9L156.9,110.4L155.3,115.0L156.6,118.0L153.1,118.8L152.8,121.1L149.8,123.4L146.6,122.3L147.5,121.2L145.5,117.0L150.6,112.3L150.5,110.3L148.7,108.9L141.8,113.1L139.9,113.4L130.6,110.2L117.0,118.7L104.9,120.7L99.3,118.7L94.5,113.9L84.0,110.1L76.0,109.5L73.3,117.5L70.4,117.0L63.1,119.0L56.9,116.8L54.4,111.8L53.4,111.5L51.4,112.1L44.5,110.2L43.0,111.9L40.6,112.6L41.5,111.0L35.8,112.1L33.0,111.6L40.5,110.0L43.6,107.3L30.5,108.0L31.0,106.0L34.1,105.5L33.9,104.3L29.9,102.5L27.8,98.8L29.9,97.9L30.1,94.5L17.4,90.5L19.1,89.3L18.5,85.8L19.4,85.6L21.4,86.7L22.5,89.7L23.3,88.6L25.1,89.2L28.9,88.1L25.7,87.7L23.7,84.7L27.1,82.3L24.4,81.3L25.0,79.2L22.6,76.8L25.6,73.4L15.0,74.5L14.8,73.8L15.9,67.4L17.7,67.0L23.4,61.9L30.8,61.2L33.3,63.0L36.7,62.9L38.3,62.2L36.8,60.8L38.7,60.4L40.2,60.7L39.9,62.3L53.9,62.1L54.6,61.6L51.0,60.1L53.3,58.8L65.3,57.1L58.8,56.4L55.4,54.7L54.5,53.7L55.8,50.9L66.2,51.8L72.0,51.2L78.2,52.7L84.2,52.4L86.9,49.5L98.4,44.0L112.8,40.1L131.3,41.0L134.7,39.5L136.7,40.0L136.3,41.9L138.6,44.0L142.1,45.3L148.8,44.7L150.5,48.1L153.5,50.1L158.5,49.0L162.4,51.4L180.1,54.9L194.2,52.4L199.3,54.1L205.5,54.4L216.5,50.3L222.3,46.9L226.5,48.0L227.8,47.2L235.1,47.9L238.0,46.0L244.3,49.7L245.1,51.2L247.7,51.5L248.2,52.4Z"/><path class="land" fill-rule="evenodd" d="M17.8,44.2L18.3,43.1L20.3,42.7L21.3,41.1L27.1,39.6L30.2,39.1L34.1,41.5L40.6,40.8L40.2,42.3L43.0,46.4L54.6,50.8L53.3,53.7L50.9,54.2L42.7,52.8L39.4,54.0L33.6,54.2L30.4,58.1L23.9,60.6L16.2,66.3L16.9,63.1L24.1,58.9L14.9,59.1L14.0,57.5L17.9,54.5L17.9,50.6L21.9,48.4L21.3,45.8L17.8,44.2Z"/><path class="land" fill-rule="evenodd" d="M13.1,65.5L9.0,65.5L12.4,64.1L13.1,65.5Z"/><path class="land" fill-rule="evenodd" d="M575.6,105.4L572.3,104.1L568.0,104.5L566.3,103.2L563.1,102.7L559.0,103.0L559.0,97.1L560.4,95.1L559.7,94.1L551.5,90.9L546.7,91.0L529.2,81.1L527.2,81.4L521.8,78.6L504.6,67.6L503.1,62.8L499.4,58.1L496.8,52.6L491.3,50.1L487.9,51.3L477.3,50.9L472.4,48.5L473.0,45.8L472.2,43.6L473.9,43.0L470.4,40.7L471.0,37.5L469.2,36.4L462.5,36.0L459.8,33.5L456.0,32.8L452.2,29.9L450.7,31.5L447.7,31.1L446.3,31.9L450.6,36.4L449.6,36.4L448.0,34.6L444.6,33.8L441.7,37.8L434.7,38.7L430.3,42.3L431.0,47.8L432.4,49.1L431.0,50.3L417.0,49.5L417.0,0.1L467.6,0.0L484.7,8.2L486.8,11.2L497.9,20.3L514.3,18.5L531.0,19.5L537.2,17.3L545.1,22.7L549.3,28.6L553.3,27.0L552.1,40.3L558.6,40.5L561.5,51.4L578.0,51.2L580.4,53.5L579.5,56.4L584.4,59.0L586.6,58.9L586.7,55.5L594.4,48.1L607.1,42.8L611.4,39.3L613.6,39.9L615.4,38.1L619.7,36.6L622.3,38.2L617.3,40.0L616.6,41.4L614.3,42.1L608.2,46.6L612.1,48.3L615.0,47.8L617.4,50.8L624.5,52.2L624.9,49.2L627.1,49.4L627.3,47.1L628.2,46.6L631.1,51.2L634.9,51.5L635.2,53.5L637.6,53.3L641.6,55.6L647.9,56.2L640.8,60.2L638.1,59.5L637.5,61.9L634.5,61.4L632.1,63.8L628.6,65.3L623.3,63.4L614.6,64.6L610.7,61.8L615.9,57.4L611.2,53.4L609.7,55.3L601.9,58.5L597.9,56.6L597.1,57.0L596.5,58.8L595.1,59.7L596.4,62.9L595.3,63.4L596.0,64.6L587.3,65.1L591.9,66.1L589.7,66.6L590.5,68.6L587.4,69.5L586.7,72.2L585.1,73.5L575.1,72.4L572.7,73.3L571.1,74.5L570.2,77.9L574.1,79.0L574.7,80.8L580.2,81.3L580.8,82.2L579.5,85.2L580.0,87.9L583.6,91.9L577.0,100.0L575.6,105.4ZM614.6,54.7L613.2,53.6L614.6,54.7Z"/><path class="land" fill-rule="evenodd" d="M629.7,68.0L628.2,68.0L629.9,67.4L629.7,68.0Z"/><path class="land" fill-rule="evenodd" d="M619.4,67.2L618.7,66.1L619.3,65.3L622.3,66.7L622.1,68.6L619.4,68.7L619.4,67.2Z"/><path class="land" fill-rule="evenodd" d="M363.2,350.1L378.1,381.7L371.3,384.1L367.9,386.4L365.8,391.0L366.4,395.0L354.3,400.8L343.6,403.3L338.8,405.9L327.8,408.7L323.7,411.2L318.6,416.6L313.4,417.3L309.5,416.7L301.6,421.9L293.3,424.5L278.1,426.2L274.5,429.9L271.4,430.8L269.8,433.2L265.9,433.9L264.1,433.2L260.6,435.2L255.8,436.1L250.8,434.2L248.9,434.8L248.7,432.9L245.4,427.2L246.1,421.4L245.5,419.2L243.5,417.2L241.5,404.7L240.4,402.1L237.7,400.7L238.2,399.5L239.5,400.3L239.6,399.5L238.5,395.0L240.1,390.0L239.6,385.4L244.5,381.1L244.0,376.1L245.5,373.3L244.9,372.1L246.4,370.8L248.7,370.0L254.7,372.6L257.9,371.6L271.2,371.2L276.4,372.9L286.9,373.8L292.5,373.3L295.8,377.5L298.1,377.6L302.1,375.4L304.0,370.9L311.9,361.3L323.6,355.6L363.2,350.1Z"/><path class="land" fill-rule="evenodd" d="M387.2,435.7L392.9,435.3L397.3,436.8L392.1,439.4L386.6,439.9L381.2,437.1L384.1,434.6L387.2,435.7Z"/><path class="land" fill-rule="evenodd" d="M239.0,421.3L238.1,421.7L239.5,420.5L239.0,421.3Z"/><path class="land" fill-rule="evenodd" d="M239.4,417.7L238.2,417.2L239.1,416.4L239.4,417.7Z"/><path class="land" fill-rule="evenodd" d="M236.8,399.8L237.0,398.0L236.8,399.8Z"/></g><g id="rivers"><path class="river part-shape" data-part="ち" d="M126.3,447.2L128.0,450.7L131.6,453.7"/><path class="river part-shape" data-part="ち" d="M106.1,282.9L106.5,291.7L102.0,298.8L98.6,300.8L96.1,299.7L94.8,300.2L86.2,308.4L82.0,314.9"/><path class="river part-shape" data-part="ち" d="M166.7,449.2L166.8,450.0L172.5,453.8L181.2,457.2L181.7,458.4L180.9,468.5L175.2,471.2"/><path class="river part-shape" data-part="ち" d="M168.6,471.2L165.7,470.6L163.7,467.6L157.2,466.3L154.6,464.8L150.9,469.1L144.3,471.2"/><path class="river part-shape" data-part="ち" d="M143.9,471.2L139.4,469.1"/><path class="river part-shape" data-part="ち" d="M96.7,471.2L97.9,467.8L95.7,464.3L102.9,456.3L104.5,447.0L104.1,441.7L104.9,430.7L102.1,425.1L102.1,422.2L98.2,416.9L96.5,411.0L100.2,402.1L100.8,395.3"/><path class="river part-shape" data-part="ち" d="M139.4,469.1L137.9,464.2L136.6,463.4L136.8,455.8L131.6,453.7"/><path class="river part-shape" data-part="ち" d="M126.3,447.2L125.7,440.1L123.3,437.0L123.2,434.4L121.2,432.1L120.2,427.3L117.0,425.6L115.7,423.1L115.4,419.5L116.5,415.8L115.3,412.7L109.5,401.7L100.8,395.3"/><path class="river part-shape" data-part="ち" d="M100.8,395.3L102.7,386.9L106.7,383.5L114.7,380.4L117.2,377.7L117.7,373.6L120.1,369.5L120.4,362.0L119.8,359.7L117.4,357.3L116.8,354.6L115.6,353.5L114.9,347.7L112.8,344.3L107.9,343.1L98.4,351.5L95.2,352.5L94.3,355.3L87.2,362.4L82.7,363.4L78.2,361.4L74.2,352.8L73.5,343.7L72.0,339.4L75.0,337.0L75.3,333.7L74.6,332.1L72.2,330.9L71.6,328.2L72.3,326.1L75.1,324.4L76.7,320.7L80.4,317.7L82.0,314.9"/><path class="river part-shape" data-part="ち" d="M106.1,282.9L106.6,272.3L106.0,268.7L101.5,264.5L100.9,261.6L104.5,257.4L104.1,254.0L97.3,254.7L94.4,253.1L85.4,241.5L79.0,235.6L78.9,229.0L77.3,225.8L79.4,218.2L83.7,211.6L84.6,204.8L84.0,200.3"/><path class="river part-shape" data-part="つ" d="M233.9,106.9L236.4,109.9L240.9,111.8L239.2,113.9L244.6,116.7L245.8,118.4L247.0,121.9L245.8,128.3L250.0,134.5L249.5,135.2L253.8,145.5L255.2,146.8L261.2,148.4L261.4,151.6L259.9,154.4L261.1,157.6L264.9,161.2L272.3,164.5L274.4,166.9L280.1,168.2L284.5,166.5L292.0,169.0L292.3,173.0L295.3,176.1L298.0,177.3L301.0,182.3L302.1,188.5"/><path class="river part-shape" data-part="て" d="M275.5,184.4L289.2,189.8L302.5,188.9"/><path class="river part-shape" data-part="て" d="M215.3,142.3L217.8,142.8L226.5,141.2L230.5,144.0L233.8,143.6L233.9,146.5L236.4,149.8L238.7,149.9L238.6,151.4L240.7,153.8L251.1,156.4L257.4,160.8L259.2,163.9L259.2,168.3L263.1,179.7L266.1,182.0L275.5,184.4"/><path class="river part-shape" data-part="と" d="M643.2,139.7L644.1,144.6L642.2,146.9"/><path class="river part-shape" data-part="と" d="M577.0,284.0L577.8,282.7"/><path class="river part-shape" data-part="と" d="M574.1,283.8L575.0,281.8"/><path class="river part-shape" data-part="と" d="M577.8,282.7L579.1,282.8L579.3,284.7"/><path class="river part-shape" data-part="と" d="M577.8,282.7L577.8,281.9L575.0,281.8"/><path class="river part-shape" data-part="と" d="M575.0,281.8L574.3,281.3"/><path class="river part-shape" data-part="と" d="M700.0,144.4L690.4,138.5L689.4,135.6L684.7,130.6L680.7,129.8L676.6,126.7L670.8,125.3L669.1,123.4L667.4,127.9L665.8,128.6L662.6,129.1L651.9,127.4L650.2,128.3L648.5,131.9L644.6,134.6L645.5,136.7L643.2,139.7"/><path class="river part-shape" data-part="と" d="M642.2,146.9L636.7,148.6L635.4,151.1L633.2,151.3L631.5,154.8L629.5,156.5L628.0,161.6L624.9,163.7L622.9,170.8L617.4,180.8L616.5,184.4L616.9,189.5L616.1,191.0L616.9,201.9L614.6,208.0L615.2,210.6L614.0,215.1L603.5,221.7L599.5,225.5L591.5,229.1L590.7,231.2L591.5,232.6L590.0,233.2L587.9,231.9L583.4,234.2L582.8,237.3L581.5,237.7L581.2,239.5L577.6,243.5L577.8,251.7L583.9,258.5L583.6,267.4L579.8,271.0L578.0,276.9L576.8,277.4L576.0,279.5L573.8,281.6L571.5,282.2"/></g><g id="markers"><g class="marker m-grid" data-part="あ" data-kind="緯線" transform="translate(605.8,290.8)"><circle class="hit" r="16"/><rect class="dot" x="-2.6" y="-2.6" width="5.2" height="5.2"/></g><g class="marker m-grid" data-part="い" data-kind="緯度" transform="translate(26.9,67.3)"><circle class="hit" r="16"/><rect class="dot" x="-2.6" y="-2.6" width="5.2" height="5.2"/></g><g class="marker m-grid" data-part="う" data-kind="経度" transform="translate(67.3,26.9)"><circle class="hit" r="16"/><rect class="dot" x="-2.6" y="-2.6" width="5.2" height="5.2"/></g><g class="marker m-sea" data-part="え" data-kind="海" transform="translate(134.6,26.9)"><circle class="hit" r="16"/><circle class="dot" r="5"/></g><g class="marker m-sea" data-part="お" data-kind="海" transform="translate(67.3,154.8)"><circle class="hit" r="16"/><circle class="dot" r="5"/></g><g class="marker m-sea" data-part="か" data-kind="海" transform="translate(175.0,336.5)"><circle class="hit" r="16"/><circle class="dot" r="5"/></g><g class="marker m-strait" data-part="き" data-kind="海峡" transform="translate(247.7,436.2)"><circle class="hit" r="16"/><rect class="dot" x="-3.3" y="-3.3" width="6.6" height="6.6" transform="rotate(45)"/></g><g class="marker m-sea" data-part="く" data-kind="湾" transform="translate(309.6,437.5)"><circle class="hit" r="16"/><circle class="dot" r="5"/></g><g class="marker m-sea" data-part="け" data-kind="海" transform="translate(498.1,403.8)"><circle class="hit" r="16"/><circle class="dot" r="5"/></g><g class="marker m-strait" data-part="こ" data-kind="海峡" transform="translate(424.0,247.7)"><circle class="hit" r="16"/><rect class="dot" x="-3.3" y="-3.3" width="6.6" height="6.6" transform="rotate(45)"/></g><g class="marker m-sea" data-part="さ" data-kind="湾" transform="translate(350.0,235.6)"><circle class="hit" r="16"/><circle class="dot" r="5"/></g><g class="marker m-strait" data-part="し" data-kind="海峡" transform="translate(55.2,52.5)"><circle class="hit" r="16"/><rect class="dot" x="-3.3" y="-3.3" width="6.6" height="6.6" transform="rotate(45)"/></g><g class="marker m-lake" data-part="す" data-kind="湖" transform="translate(241.0,86.2)"><circle class="hit" r="16"/><circle class="dot" r="4"/></g><g class="marker m-island" data-part="せ" data-kind="島" transform="translate(110.4,133.3)"><circle class="hit" r="16"/><circle class="dot" r="4"/></g><g class="marker m-land" data-part="そ" data-kind="半島" transform="translate(118.5,208.7)"><circle class="hit" r="16"/><circle class="dot" r="4"/></g><g class="marker m-land" data-part="た" data-kind="半島" transform="translate(269.2,296.2)"><circle class="hit" r="16"/><circle class="dot" r="4"/></g><g class="marker m-river" data-part="ち" data-kind="川" transform="translate(87.5,242.3)"><circle class="hit" r="16"/><circle class="dot" r="3"/></g><g class="marker m-river" data-part="つ" data-kind="川" transform="translate(249.0,134.6)"><circle class="hit" r="16"/><circle class="dot" r="3"/></g><g class="marker m-river" data-part="て" data-kind="川" transform="translate(188.5,123.8)"><circle class="hit" r="16"/><circle class="dot" r="3"/></g><g class="marker m-river" data-part="と" data-kind="川" transform="translate(592.3,235.6)"><circle class="hit" r="16"/><circle class="dot" r="3"/></g><g class="marker m-land" data-part="な" data-kind="高原" transform="translate(107.7,80.8)"><circle class="hit" r="16"/><circle class="dot" r="4"/></g><g class="marker m-land" data-part="に" data-kind="砂漠" transform="translate(215.4,222.1)"><circle class="hit" r="16"/><circle class="dot" r="4"/></g><g class="marker m-land" data-part="ぬ" data-kind="砂漠" transform="translate(336.5,336.5)"><circle class="hit" r="16"/><circle class="dot" r="4"/></g><g class="marker m-mountain" data-part="ね" data-kind="山脈" transform="translate(309.6,168.3)"><circle class="hit" r="16"/><polygon class="dot" points="0,-5 4.3,3 -4.3,3"/></g><g class="marker m-land" data-part="の" data-kind="高原" transform="translate(403.8,168.3)"><circle class="hit" r="16"/><circle class="dot" r="4"/></g><g class="marker m-mountain" data-part="は" data-kind="山脈" transform="translate(551.9,127.9)"><circle class="hit" r="16"/><polygon class="dot" points="0,-5 4.3,3 -4.3,3"/></g><g class="marker m-mountain" data-part="ひ" data-kind="山脈" transform="translate(363.5,117.1)"><circle class="hit" r="16"/><polygon class="dot" points="0,-5 4.3,3 -4.3,3"/></g><g class="marker m-mountain" data-part="ふ" data-kind="峠" transform="translate(620.6,146.7)"><circle class="hit" r="16"/><polygon class="dot" points="0,-5 4.3,3 -4.3,3"/></g><g class="marker m-mountain" data-part="へ" data-kind="山脈" transform="translate(679.8,123.8)"><circle class="hit" r="16"/><polygon class="dot" points="0,-5 4.3,3 -4.3,3"/></g><g class="marker m-land" data-part="ほ" data-kind="高原" transform="translate(646.2,87.5)"><circle class="hit" r="16"/><circle class="dot" r="4"/></g><g class="marker m-city" data-part="1" data-kind="都市" transform="translate(53.6,53.7)"><circle class="hit" r="16"/><circle class="dot" r="4"/></g><g class="marker m-city" data-part="2" data-kind="都市" transform="translate(105.8,68.2)"><circle class="hit" r="16"/><circle class="dot" r="4"/></g><g class="marker m-city" data-part="3" data-kind="都市" transform="translate(266.9,44.2)"><circle class="hit" r="16"/><circle class="dot" r="4"/></g><g class="marker m-city" data-part="4" data-kind="都市" transform="translate(112.8,132.1)"><circle class="hit" r="16"/><circle class="dot" r="4"/></g><g class="marker m-city" data-part="5" data-kind="都市" transform="translate(141.3,149.6)"><circle class="hit" r="16"/><circle class="dot" r="4"/></g><g class="marker m-city" data-part="6" data-kind="都市" transform="translate(152.3,154.7)"><circle class="hit" r="16"/><circle class="dot" r="4"/></g><g class="marker m-city" data-part="7" data-kind="都市" transform="translate(137.6,178.1)"><circle class="hit" r="16"/><circle class="dot" r="4"/></g><g class="marker m-city" data-part="8" data-kind="都市" transform="translate(147.1,175.7)"><circle class="hit" r="16"/><circle class="dot" r="4"/></g><g class="marker m-city" data-part="9" data-kind="都市" transform="translate(84.0,201.4)"><circle class="hit" r="16"/><circle class="dot" r="4"/></g><g class="marker m-city" data-part="10" data-kind="都市" transform="translate(260.6,157.4)"><circle class="hit" r="16"/><circle class="dot" r="4"/></g><g class="marker m-city" data-part="11" data-kind="都市" transform="translate(286.6,93.2)"><circle class="hit" r="16"/><circle class="dot" r="4"/></g><g class="marker m-city" data-part="12" data-kind="都市" transform="translate(355.2,125.3)"><circle class="hit" r="16"/><circle class="dot" r="4"/></g><g class="marker m-city" data-part="13" data-kind="都市" transform="translate(261.0,128.3)"><circle class="hit" r="16"/><circle class="dot" r="4"/></g><g class="marker m-city" data-part="14" data-kind="都市" transform="translate(313.7,197.3)"><circle class="hit" r="16"/><circle class="dot" r="4"/></g><g class="marker m-city" data-part="15" data-kind="都市" transform="translate(344.5,252.8)"><circle class="hit" r="16"/><circle class="dot" r="4"/></g><g class="marker m-city" data-part="16" data-kind="都市" transform="translate(309.3,210.3)"><circle class="hit" r="16"/><circle class="dot" r="4"/></g><g class="marker m-city" data-part="17" data-kind="都市" transform="translate(357.1,265.3)"><circle class="hit" r="16"/><circle class="dot" r="4"/></g><g class="marker m-city" data-part="18" data-kind="都市" transform="translate(395.4,276.6)"><circle class="hit" r="16"/><circle class="dot" r="4"/></g><g class="marker m-city" data-part="19" data-kind="都市" transform="translate(407.5,266.5)"><circle class="hit" r="16"/><circle class="dot" r="4"/></g><g class="marker m-city" data-part="20" data-kind="都市" transform="translate(291.8,274.2)"><circle class="hit" r="16"/><circle class="dot" r="4"/></g><g class="marker m-city" data-part="21" data-kind="都市" transform="translate(190.8,316.5)"><circle class="hit" r="16"/><circle class="dot" r="4"/></g><g class="marker m-city" data-part="22" data-kind="都市" transform="translate(199.6,317.8)"><circle class="hit" r="16"/><circle class="dot" r="4"/></g><g class="marker m-city" data-part="23" data-kind="都市" transform="translate(196.7,276.4)"><circle class="hit" r="16"/><circle class="dot" r="4"/></g><g class="marker m-city" data-part="24" data-kind="都市" transform="translate(258.3,399.1)"><circle class="hit" r="16"/><circle class="dot" r="4"/></g><g class="marker m-city" data-part="25" data-kind="都市" transform="translate(449.7,288.2)"><circle class="hit" r="16"/><circle class="dot" r="4"/></g><g class="marker m-city" data-part="26" data-kind="都市" transform="translate(420.9,239.7)"><circle class="hit" r="16"/><circle class="dot" r="4"/></g><g class="marker m-city" data-part="27" data-kind="都市" transform="translate(370.7,207.3)"><circle class="hit" r="16"/><circle class="dot" r="4"/></g><g class="marker m-city" data-part="28" data-kind="都市" transform="translate(594.6,140.9)"><circle class="hit" r="16"/><circle class="dot" r="4"/></g><g class="marker m-city" data-part="29" data-kind="都市" transform="translate(548.0,180.2)"><circle class="hit" r="16"/><circle class="dot" r="4"/></g><g class="marker m-city" data-part="30" data-kind="都市" transform="translate(646.8,152.4)"><circle class="hit" r="16"/><circle class="dot" r="4"/></g><g class="marker m-city" data-part="31" data-kind="都市" transform="translate(626.2,147.9)"><circle class="hit" r="16"/><circle class="dot" r="4"/></g></g></svg>