<svg xmlns="http://www.w3.org/2000/svg" viewBox="0 0 720 357" data-region="namerica"><style>.land{fill:#eef1ec;stroke:#94a3ae;stroke-width:.7;vector-effect:non-scaling-stroke}.river{fill:none;stroke:#8db8da;stroke-width:1.3;stroke-linecap:round;vector-effect:non-scaling-stroke}.grid{stroke:#d3dae1;stroke-width:.5}.grid-q{stroke:#9aa7b5;stroke-width:1.1;stroke-dasharray:6 4}.marker .hit{fill:#000;fill-opacity:0;pointer-events:all}.marker .dot{fill:#3a3a3c;stroke:#fff;stroke-width:1.2}.m-city .dot{fill:#1c1c1e}.m-river .dot{fill:#2f6690}.m-sea .dot{fill:#fff;stroke:#5aa0c6;stroke-width:2}.m-strait .dot{fill:#1a5276;stroke:#fff;stroke-width:1}.m-mountain .dot{fill:#8a5a2f;stroke:#fff;stroke-width:1}.m-lake .dot{fill:#7ec8e3}.m-island .dot{fill:#3f9142}.m-grid .dot{fill:#8e8e93;stroke:#fff;stroke-width:1}.m-land .dot{fill:#c9a878}</style><g id="grid"><line class="grid" x1="0.0" y1="0" x2="0.0" y2="357"/><line class="grid" x1="26.7" y1="0" x2="26.7" y2="357"/><line class="grid" x1="53.3" y1="0" x2="53.3" y2="357"/><line class="grid" x1="80.0" y1="0" x2="80.0" y2="357"/><line class="grid" x1="106.7" y1="0" x2="106.7" y2="357"/><line class="grid" x1="133.3" y1="0" x2="133.3" y2="357"/><line class="grid" x1="160.0" y1="0" x2="160.0" y2="357"/><line class="grid" x1="186.7" y1="0" x2="186.7" y2="357"/><line class="grid" x1="213.3" y1="0" x2="213.3" y2="357"/><line class="grid" x1="240.0" y1="0" x2="240.0" y2="357"/><line class="grid" x1="266.7" y1="0" x2="266.7" y2="357"/><line class="grid" x1="293.3" y1="0" x2="293.3" y2="357"/><line class="grid" x1="320.0" y1="0" x2="320.0" y2="357"/><line class="grid" x1="346.7" y1="0" x2="346.7" y2="357"/><line class="grid" x1="373.3" y1="0" x2="373.3" y2="357"/><line class="grid" x1="400.0" y1="0" x2="400.0" y2="357"/><line class="grid" x1="426.7" y1="0" x2="426.7" y2="357"/><line class="grid" x1="453.3" y1="0" x2="453.3" y2="357"/><line class="grid" x1="480.0" y1="0" x2="480.0" y2="357"/><line class="grid" x1="506.7" y1="0" x2="506.7" y2="357"/><line class="grid" x1="533.3" y1="0" x2="533.3" y2="357"/><line class="grid" x1="560.0" y1="0" x2="560.0" y2="357"/><line class="grid" x1="586.7" y1="0" x2="586.7" y2="357"/><line class="grid" x1="613.3" y1="0" x2="613.3" y2="357"/><line class="grid" x1="640.0" y1="0" x2="640.0" y2="357"/><line class="grid" x1="666.7" y1="0" x2="666.7" y2="357"/><line class="grid" x1="693.3" y1="0" x2="693.3" y2="357"/><line class="grid" x1="720.0" y1="0" x2="720.0" y2="357"/><line class="grid" x1="0" y1="357.3" x2="720" y2="357.3"/><line class="grid" x1="0" y1="330.7" x2="720" y2="330.7"/><line class="grid" x1="0" y1="304.0" x2="720" y2="304.0"/><line class="grid" x1="0" y1="277.3" x2="720" y2="277.3"/><line class="grid" x1="0" y1="250.7" x2="720" y2="250.7"/><line class="grid" x1="0" y1="224.0" x2="720" y2="224.0"/><line class="grid" x1="0" y1="197.3" x2="720" y2="197.3"/><line class="grid" x1="0" y1="170.7" x2="720" y2="170.7"/><line class="grid" x1="0" y1="144.0" x2="720" y2="144.0"/><line class="grid" x1="0" y1="117.3" x2="720" y2="117.3"/><line class="grid" x1="0" y1="90.7" x2="720" y2="90.7"/><line class="grid" x1="0" y1="64.0" x2="720" y2="64.0"/><line class="grid" x1="0" y1="37.3" x2="720" y2="37.3"/><line class="grid" x1="0" y1="10.7" x2="720" y2="10.7"/><line class="grid-q part-shape" data-part="あ" x1="0" y1="170.7" x2="720" y2="170.7"/><line class="grid-q part-shape" data-part="い" x1="160.0" y1="0" x2="160.0" y2="357"/><line class="grid-q part-shape" data-part="う" x1="373.3" y1="0" x2="373.3" y2="357"/></g><g id="land"><path class="land" fill-rule="evenodd" d="M533.9,317.6L533.1,316.7L533.9,317.6Z"/><path class="land" fill-rule="evenodd" d="M570.7,286.8L569.8,287.1L570.7,286.8Z"/><path class="land" fill-rule="evenodd" d="M577.5,293.1L576.6,292.8L577.5,293.1Z"/><path class="land" fill-rule="evenodd" d="M577.3,290.3L576.7,289.6L577.3,290.3Z"/><path class="land" fill-rule="evenodd" d="M517.2,271.0L516.5,272.1L513.7,272.1L514.5,271.0L517.0,270.3L517.2,271.0Z"/><path class="land" fill-rule="evenodd" d="M517.8,269.3L517.0,269.3L517.8,269.3Z"/><path class="land" fill-rule="evenodd" d="M517.1,264.4L518.7,264.9L516.5,264.6L517.1,264.4Z"/><path class="land" fill-rule="evenodd" d="M510.9,265.5L512.8,262.8L512.9,263.8L510.9,265.5Z"/><path class="land" fill-rule="evenodd" d="M511.7,262.8L510.4,262.2L511.7,262.8Z"/><path class="land" fill-rule="evenodd" d="M507.5,261.9L505.5,260.5L505.0,257.8L507.5,261.9Z"/><path class="land" fill-rule="evenodd" d="M503.1,258.9L501.3,257.8L503.1,258.9Z"/><path class="land" fill-rule="evenodd" d="M509.7,255.6L509.1,256.2L509.7,255.6Z"/><path class="land" fill-rule="evenodd" d="M492.5,254.7L492.9,257.4L491.9,257.3L490.7,254.8L492.5,254.7Z"/><path class="land" fill-rule="evenodd" d="M505.0,254.9L504.0,255.3L504.5,254.6L502.8,252.3L505.0,254.9Z"/><path class="land" fill-rule="evenodd" d="M494.1,250.6L493.0,250.5L494.1,250.6Z"/><path class="land" fill-rule="evenodd" d="M492.0,252.2L492.0,253.5L490.4,254.5L488.3,252.7L489.4,252.5L489.8,249.6L492.0,252.2Z"/><path class="land" fill-rule="evenodd" d="M497.9,248.1L500.7,249.9L500.4,252.5L499.6,251.6L500.5,250.0L497.2,248.4L497.9,248.1Z"/><path class="land" fill-rule="evenodd" d="M488.0,241.4L491.1,241.6L486.7,242.7L485.4,241.7L486.4,242.2L488.0,241.4Z"/><path class="land" fill-rule="evenodd" d="M494.8,245.8L493.8,245.2L494.7,242.3L493.3,240.8L491.0,240.5L493.2,240.5L495.6,242.5L494.8,245.8Z"/><path class="land" fill-rule="evenodd" d="M438.1,291.1L437.7,291.8L438.3,290.4L438.1,291.1Z"/><path class="land" fill-rule="evenodd" d="M437.6,288.4L438.1,287.2L437.6,288.4Z"/><path class="land" fill-rule="evenodd" d="M431.1,289.0L431.3,288.2L433.0,288.2L434.5,285.6L436.6,286.1L435.7,295.3L432.6,299.2L430.7,299.2L431.1,289.0Z"/><path class="land" fill-rule="evenodd" d="M561.4,211.8L560.7,211.9L561.4,211.8Z"/><path class="land" fill-rule="evenodd" d="M583.4,357.3L582.7,356.3L585.4,356.0L586.7,357.3Z"/><path class="land" fill-rule="evenodd" d="M589.4,314.2L588.6,313.0L589.4,314.2Z"/><path class="land" fill-rule="evenodd" d="M587.8,149.7L586.0,149.6L587.8,149.7Z"/><path class="land" fill-rule="evenodd" d="M553.2,147.8L553.5,147.2L553.2,147.8Z"/><path class="land" fill-rule="evenodd" d="M550.6,145.7L549.9,146.0L550.4,145.0L550.6,145.7Z"/><path class="land" fill-rule="evenodd" d="M581.5,141.4L580.9,141.0L581.5,141.4Z"/><path class="land" fill-rule="evenodd" d="M513.6,140.9L512.8,140.9L514.3,140.3L513.6,140.9Z"/><path class="land" fill-rule="evenodd" d="M514.3,141.5L512.2,141.6L514.8,140.2L514.3,141.5Z"/><path class="land" fill-rule="evenodd" d="M527.9,134.0L528.9,133.4L527.9,134.0Z"/><path class="land" fill-rule="evenodd" d="M580.8,139.0L582.1,138.8L581.0,140.2L582.7,140.0L584.2,138.8L582.8,138.9L585.1,137.0L587.4,137.8L587.6,138.9L583.1,140.8L579.8,140.9L578.9,140.2L579.2,137.8L584.1,133.3L584.9,134.6L584.0,137.2L580.8,139.0Z"/><path class="land" fill-rule="evenodd" d="M566.3,136.2L575.9,136.4L573.2,137.6L573.5,138.7L571.7,138.8L570.5,138.3L571.2,138.0L570.8,137.0L567.6,137.6L563.2,135.0L565.4,133.0L564.9,134.5L566.3,136.2Z"/><path class="land" fill-rule="evenodd" d="M576.5,131.8L577.2,131.9L576.0,132.1L576.4,131.1L579.2,129.9L576.5,131.8Z"/><path class="land" fill-rule="evenodd" d="M617.5,131.0L618.0,129.9L617.5,131.0Z"/><path class="land" fill-rule="evenodd" d="M562.6,128.6L561.7,129.3L562.6,128.6Z"/><path class="land" fill-rule="evenodd" d="M562.8,128.2L562.2,128.5L562.8,128.2Z"/><path class="land" fill-rule="evenodd" d="M248.3,124.0L247.6,123.1L248.3,124.0Z"/><path class="land" fill-rule="evenodd" d="M248.7,123.3L247.0,122.2L248.7,123.3Z"/><path class="land" fill-rule="evenodd" d="M508.2,144.0L514.4,141.7L516.5,138.6L522.1,135.7L530.6,133.2L539.6,126.0L551.5,122.0L557.2,121.2L562.3,122.1L564.2,123.3L562.6,123.5L564.0,125.1L558.6,127.9L555.1,127.0L550.9,127.9L555.5,128.5L556.8,129.8L560.0,128.8L561.6,129.5L558.3,132.8L560.9,133.0L560.5,133.9L562.4,137.4L565.8,137.8L565.0,138.6L572.0,140.5L576.2,139.4L577.2,140.5L579.5,140.9L579.8,141.6L578.9,142.0L581.2,142.4L567.4,145.7L567.4,146.8L565.3,145.9L564.8,146.7L563.8,146.4L563.9,147.6L560.7,150.0L556.5,151.8L554.0,150.3L553.6,148.6L555.4,146.3L553.9,147.0L554.6,146.3L562.9,142.2L564.6,143.9L564.8,142.8L568.7,142.1L560.7,142.1L563.7,139.5L562.0,139.0L561.2,140.6L555.3,142.8L554.1,142.3L554.5,141.8L552.3,143.5L547.7,143.2L546.8,142.5L547.0,140.8L545.1,140.1L545.0,132.9L542.7,131.5L539.0,132.2L537.4,130.9L533.3,134.9L531.8,139.2L528.7,142.6L526.3,142.5L525.2,144.0L508.2,144.0Z"/><path class="land" fill-rule="evenodd" d="M234.2,120.8L233.4,121.1L234.2,120.8Z"/><path class="land" fill-rule="evenodd" d="M615.7,119.5L614.1,119.6L615.7,119.5Z"/><path class="land" fill-rule="evenodd" d="M618.2,118.7L618.8,119.1L617.1,119.5L618.2,118.7Z"/><path class="land" fill-rule="evenodd" d="M244.5,119.8L241.9,118.6L244.5,119.8Z"/><path class="land" fill-rule="evenodd" d="M231.2,119.4L229.7,118.2L230.7,118.2L231.2,119.4Z"/><path class="land" fill-rule="evenodd" d="M577.1,122.2L570.4,121.5L562.7,117.9L571.4,118.9L577.0,121.2L577.1,122.2Z"/><path class="land" fill-rule="evenodd" d="M240.1,117.2L240.0,116.2L240.1,117.2Z"/><path class="land" fill-rule="evenodd" d="M239.0,116.8L238.4,115.1L239.5,115.9L239.0,116.8Z"/><path class="land part-shape" data-part="つ" fill-rule="evenodd" d="M228.3,113.9L237.4,115.6L240.9,119.8L245.4,121.5L249.2,125.6L247.6,126.3L239.9,124.2L239.3,123.6L241.0,121.5L240.4,122.6L237.1,122.9L235.6,122.2L236.6,121.7L234.9,121.3L235.0,120.5L231.7,120.4L231.8,119.5L234.0,119.1L228.7,118.0L228.0,116.6L224.7,116.7L224.5,115.0L226.7,115.2L226.8,114.2L223.7,114.7L222.1,113.6L224.4,112.7L228.3,113.9Z"/><path class="land part-shape" data-part="せ" fill-rule="evenodd" d="M610.9,109.1L607.8,110.2L609.1,111.8L604.1,117.3L603.6,119.4L607.0,116.7L607.1,117.7L610.7,117.4L607.3,119.4L608.7,119.1L607.5,120.3L611.3,120.1L611.5,120.7L612.1,120.0L611.4,122.2L616.0,119.9L616.3,120.9L618.9,120.3L620.7,121.0L620.9,121.9L617.8,123.8L620.2,124.5L618.1,125.9L623.9,124.6L623.3,125.9L619.4,127.9L620.6,127.9L619.4,129.1L620.4,129.9L624.7,127.4L623.1,130.6L625.2,129.2L625.8,130.4L623.6,135.0L620.9,135.3L620.8,132.6L617.7,134.0L619.5,131.0L617.6,128.7L616.1,131.2L616.1,130.4L614.1,131.3L611.6,133.8L609.1,134.0L608.4,133.2L614.5,129.8L611.4,129.8L610.3,130.9L607.3,130.7L608.7,130.2L608.8,129.0L603.9,130.3L595.5,129.4L590.6,130.0L590.2,128.4L595.6,125.2L591.1,125.0L592.8,124.0L593.5,124.8L595.2,122.2L597.4,122.7L597.4,121.4L596.2,120.6L598.4,120.1L597.7,118.9L602.5,111.9L607.9,109.0L610.9,109.1Z"/><path class="land" fill-rule="evenodd" d="M224.4,109.5L223.2,108.6L224.0,108.2L224.4,109.5Z"/><path class="land" fill-rule="evenodd" d="M611.4,107.3L611.9,106.7L611.4,107.3Z"/><path class="land" fill-rule="evenodd" d="M483.3,106.9L481.9,106.6L483.9,106.2L483.3,106.9Z"/><path class="land" fill-rule="evenodd" d="M207.8,106.9L207.5,105.9L207.8,106.9Z"/><path class="land" fill-rule="evenodd" d="M222.0,104.5L221.7,103.0L222.7,102.5L222.0,104.5Z"/><path class="land" fill-rule="evenodd" d="M219.0,103.9L217.3,102.4L219.0,103.9Z"/><path class="land" fill-rule="evenodd" d="M217.0,101.4L215.9,100.4L217.0,101.4Z"/><path class="land" fill-rule="evenodd" d="M476.1,102.7L469.1,101.1L473.9,100.2L476.1,102.7Z"/><path class="land" fill-rule="evenodd" d="M204.0,100.3L204.6,101.7L202.8,102.0L205.6,102.9L204.9,103.6L207.2,105.1L206.8,105.8L201.8,102.5L201.9,101.3L199.8,100.6L204.0,100.3Z"/><path class="land" fill-rule="evenodd" d="M221.1,101.7L221.3,103.9L220.4,105.1L220.0,102.6L219.2,103.1L217.7,101.4L218.5,99.8L221.1,101.7Z"/><path class="land" fill-rule="evenodd" d="M217.8,100.7L216.9,100.6L217.4,99.6L217.8,100.7Z"/><path class="land" fill-rule="evenodd" d="M480.3,99.7L479.6,99.5L480.3,99.7Z"/><path class="land" fill-rule="evenodd" d="M214.1,100.4L210.6,98.4L213.6,99.0L214.6,100.0L214.1,100.4Z"/><path class="land" fill-rule="evenodd" d="M212.1,96.2L209.6,96.4L210.9,95.5L212.1,96.2Z"/><path class="land" fill-rule="evenodd" d="M199.2,95.3L201.8,96.2L199.8,97.9L201.7,97.7L201.9,95.8L204.4,95.2L202.6,99.9L198.7,99.7L200.4,99.5L198.2,98.6L196.8,96.0L197.1,95.2L199.2,95.3Z"/><path class="land" fill-rule="evenodd" d="M208.4,93.4L209.3,92.7L208.4,93.4Z"/><path class="land" fill-rule="evenodd" d="M210.3,91.9L212.2,90.5L210.3,91.9Z"/><path class="land" fill-rule="evenodd" d="M581.4,85.1L580.3,85.0L581.4,85.1Z"/><path class="land" fill-rule="evenodd" d="M486.3,84.6L487.1,83.0L486.3,84.6Z"/><path class="land" fill-rule="evenodd" d="M480.1,84.2L479.7,83.8L482.2,82.8L480.1,84.2Z"/><path class="land" fill-rule="evenodd" d="M485.7,83.9L484.4,85.9L484.4,84.2L482.7,86.0L481.3,86.4L482.4,84.6L480.0,85.8L482.9,82.5L482.5,84.4L483.9,82.1L485.7,83.9Z"/><path class="land" fill-rule="evenodd" d="M482.6,81.8L482.3,81.1L482.6,81.8Z"/><path class="land" fill-rule="evenodd" d="M577.4,77.0L577.9,77.8L575.9,77.1L577.4,77.0Z"/><path class="land" fill-rule="evenodd" d="M481.5,77.3L480.9,77.4L481.5,77.3Z"/><path class="land" fill-rule="evenodd" d="M537.8,69.1L536.8,69.5L537.0,68.6L537.8,69.1Z"/><path class="land" fill-rule="evenodd" d="M478.5,66.0L479.1,65.6L478.5,66.0Z"/><path class="land" fill-rule="evenodd" d="M479.7,65.2L480.5,64.8L479.7,65.2Z"/><path class="land" fill-rule="evenodd" d="M563.2,62.0L560.9,61.3L563.2,62.0Z"/><path class="land" fill-rule="evenodd" d="M542.8,62.7L542.0,62.3L543.2,61.0L545.0,61.6L542.8,62.7Z"/><path class="land" fill-rule="evenodd" d="M487.8,60.1L487.1,60.2L489.4,59.6L487.8,60.1Z"/><path class="land" fill-rule="evenodd" d="M560.9,56.7L557.7,55.2L561.1,55.1L561.8,55.5L560.9,56.7Z"/><path class="land" fill-rule="evenodd" d="M410.4,54.2L409.6,53.8L410.4,54.2Z"/><path class="land" fill-rule="evenodd" d="M559.8,54.0L560.8,54.6L558.7,53.9L559.8,54.0Z"/><path class="land" fill-rule="evenodd" d="M482.4,51.1L483.9,52.3L481.8,55.2L478.6,54.3L478.6,52.8L479.9,51.5L482.4,51.1Z"/><path class="land" fill-rule="evenodd" d="M560.9,50.4L563.1,50.7L560.2,50.9L560.9,50.4Z"/><path class="land" fill-rule="evenodd" d="M512.0,50.0L508.7,49.5L512.0,50.0Z"/><path class="land" fill-rule="evenodd" d="M531.5,50.4L526.8,48.7L531.0,49.4L531.5,50.4Z"/><path class="land" fill-rule="evenodd" d="M469.3,48.2L468.7,49.9L463.9,52.2L460.3,52.5L459.1,51.1L462.0,48.5L469.3,48.2Z"/><path class="land" fill-rule="evenodd" d="M491.3,45.5L493.2,46.8L491.0,47.4L487.8,45.7L491.3,45.5Z"/><path class="land" fill-rule="evenodd" d="M497.7,45.9L494.1,44.9L495.3,44.4L497.7,45.9Z"/><path class="land" fill-rule="evenodd" d="M492.6,42.7L490.8,42.7L492.6,42.7Z"/><path class="land" fill-rule="evenodd" d="M453.8,35.9L456.0,34.9L469.1,39.2L471.1,41.5L469.9,42.6L475.6,42.2L478.6,43.7L474.4,45.5L467.3,44.2L466.8,43.1L462.4,41.9L455.3,46.4L451.2,47.4L449.2,44.3L441.7,44.8L443.0,43.2L446.7,41.9L446.0,39.6L447.6,34.5L449.0,32.9L452.0,33.1L452.8,34.0L452.1,34.6L453.8,35.9Z"/><path class="land" fill-rule="evenodd" d="M455.1,34.3L452.8,33.3L452.5,31.9L454.6,32.8L455.1,34.3Z"/><path class="land" fill-rule="evenodd" d="M460.1,33.1L462.8,33.6L458.0,33.2L456.2,31.5L459.8,32.2L460.1,33.1Z"/><path class="land" fill-rule="evenodd" d="M463.3,30.5L464.4,30.6L462.7,30.2L463.3,30.5Z"/><path class="land" fill-rule="evenodd" d="M330.2,26.6L331.7,26.7L331.0,27.4L330.2,26.6Z"/><path class="land" fill-rule="evenodd" d="M572.4,26.4L571.4,26.3L573.9,25.7L572.4,26.4Z"/><path class="land" fill-rule="evenodd" d="M331.2,24.5L329.9,24.4L330.0,23.3L331.2,24.5Z"/><path class="land" fill-rule="evenodd" d="M324.4,21.4L325.9,21.9L324.4,21.4Z"/><path class="land" fill-rule="evenodd" d="M514.0,22.5L509.4,22.4L508.0,21.2L515.0,21.5L515.2,22.4L514.0,22.5Z"/><path class="land" fill-rule="evenodd" d="M323.6,21.4L322.7,21.1L323.6,21.4Z"/><path class="land" fill-rule="evenodd" d="M444.8,22.7L443.2,22.2L442.9,20.8L444.3,19.7L445.8,20.4L445.9,21.9L444.8,22.7Z"/><path class="land" fill-rule="evenodd" d="M503.1,19.6L506.2,20.4L505.6,24.2L497.6,25.4L496.0,25.2L494.8,24.0L494.8,22.1L497.4,20.1L503.1,19.6Z"/><path class="land" fill-rule="evenodd" d="M485.4,20.3L484.5,19.5L486.2,19.9L485.4,20.3Z"/><path class="land" fill-rule="evenodd" d="M349.1,19.2L346.4,18.4L348.8,18.3L349.6,18.8L349.1,19.2Z"/><path class="land" fill-rule="evenodd" d="M507.3,19.5L504.6,18.2L506.8,17.9L507.7,18.9L507.3,19.5Z"/><path class="land" fill-rule="evenodd" d="M363.5,18.2L361.0,17.7L363.6,17.1L364.2,17.5L363.5,18.2Z"/><path class="land" fill-rule="evenodd" d="M372.2,17.0L370.2,17.2L370.1,16.1L371.6,16.0L372.2,17.0Z"/><path class="land" fill-rule="evenodd" d="M373.4,15.9L372.0,15.7L373.4,15.9Z"/><path class="land" fill-rule="evenodd" d="M424.0,14.8L422.6,14.2L424.0,14.8Z"/><path class="land" fill-rule="evenodd" d="M484.2,16.8L483.2,16.4L487.2,14.1L489.4,14.4L484.2,16.8Z"/><path class="land" fill-rule="evenodd" d="M425.6,13.8L425.1,14.6L424.0,14.0L425.6,13.8Z"/><path class="land" fill-rule="evenodd" d="M496.0,15.2L494.3,15.0L494.2,13.8L497.8,14.0L496.0,15.2Z"/><path class="land" fill-rule="evenodd" d="M367.1,13.9L366.1,13.0L368.0,13.5L367.1,13.9Z"/><path class="land" fill-rule="evenodd" d="M397.3,12.9L398.0,13.3L397.4,14.1L396.1,14.1L395.9,13.0L394.7,13.9L395.3,12.8L397.3,12.9Z"/><path class="land" fill-rule="evenodd" d="M165.1,12.9L163.8,12.8L166.0,12.9L165.1,12.9Z"/><path class="land" fill-rule="evenodd" d="M544.5,13.1L542.8,12.7L545.3,12.6L544.5,13.1Z"/><path class="land" fill-rule="evenodd" d="M490.5,12.2L486.1,13.4L490.5,12.2Z"/><path class="land" fill-rule="evenodd" d="M483.0,11.8L482.4,12.6L479.7,12.6L480.1,13.3L475.8,12.3L483.0,11.8Z"/><path class="land" fill-rule="evenodd" d="M387.0,12.6L393.1,14.2L396.0,16.5L398.6,16.9L391.5,18.9L375.7,15.8L381.3,14.4L381.1,12.9L383.8,13.6L382.4,12.4L383.6,11.6L385.6,11.5L387.0,12.6Z"/><path class="land" fill-rule="evenodd" d="M443.1,10.1L445.3,10.6L440.9,10.2L443.1,10.1Z"/><path class="land" fill-rule="evenodd" d="M371.7,8.0L369.7,7.2L371.7,8.0Z"/><path class="land" fill-rule="evenodd" d="M508.2,144.0L500.5,147.7L497.0,151.3L486.2,151.6L484.4,152.2L485.8,155.2L485.1,155.7L465.7,161.7L463.8,160.9L463.2,159.2L466.4,156.7L468.6,151.6L466.4,142.1L460.8,139.6L461.5,138.7L460.7,138.0L458.8,138.2L457.9,135.8L455.7,136.2L454.0,133.9L435.3,126.4L429.6,128.0L421.8,126.9L418.6,127.7L410.7,124.7L406.9,125.2L402.0,124.0L400.8,121.0L399.2,120.7L399.1,122.7L250.3,122.8L249.4,121.3L251.3,120.5L249.2,120.8L249.7,119.0L247.8,120.5L245.2,119.5L245.4,118.7L246.3,119.5L247.6,119.0L246.0,118.7L246.3,116.6L243.8,118.5L241.2,117.2L239.7,115.1L240.7,112.7L239.7,114.6L237.5,114.7L237.1,113.9L236.6,114.8L234.2,114.7L232.3,114.2L235.2,113.6L231.9,113.7L232.7,112.9L231.9,111.7L229.0,112.7L225.6,111.2L227.1,108.8L231.0,108.2L227.5,108.2L225.8,109.5L224.8,108.4L225.1,105.6L227.0,104.8L230.9,106.3L228.3,104.2L229.3,102.2L229.0,103.2L224.9,105.3L223.5,107.8L222.1,105.8L224.3,103.8L222.6,104.7L223.7,101.8L222.1,102.3L221.2,100.6L217.8,98.5L219.4,97.6L219.2,98.4L224.4,99.9L220.4,98.4L219.9,97.3L221.2,96.8L218.9,96.8L215.7,100.0L211.5,97.5L213.1,95.3L215.3,94.8L212.9,95.0L211.0,93.8L215.7,88.2L214.4,87.7L212.8,90.1L213.0,85.0L203.6,82.2L203.4,81.1L202.1,80.8L202.5,79.9L200.9,79.6L201.4,78.9L195.2,72.5L187.0,67.8L186.4,66.2L184.1,65.1L179.6,66.1L178.2,68.5L173.7,69.8L172.8,68.1L164.3,63.6L164.9,62.2L160.1,63.0L154.7,62.4L154.7,12.5L164.4,13.3L171.4,15.5L185.3,17.7L181.9,16.4L183.6,15.9L181.8,15.4L185.9,13.5L189.6,13.5L189.8,12.4L192.6,13.3L191.1,14.7L209.8,10.0L215.8,10.1L199.0,14.6L195.1,16.8L196.3,17.4L195.5,16.9L199.6,16.8L198.8,15.6L203.8,13.7L207.7,13.6L208.2,14.9L212.7,12.2L219.2,10.8L217.8,11.7L219.5,12.0L225.7,9.3L223.1,8.4L224.0,7.6L236.1,14.0L239.1,13.7L238.2,12.5L241.2,10.7L240.1,10.5L242.4,9.9L243.2,11.9L244.7,12.3L242.8,13.7L243.5,14.1L247.8,13.9L250.5,11.7L257.4,11.7L281.5,16.5L291.0,16.3L298.9,19.2L294.6,19.9L291.0,21.9L292.6,22.3L306.7,23.0L319.6,21.4L322.0,22.8L325.1,23.0L326.1,24.4L327.4,23.5L330.7,25.3L330.7,26.2L328.0,26.2L334.6,29.9L332.2,28.1L332.0,26.9L335.2,27.3L330.9,22.3L331.7,21.1L339.1,20.3L342.7,18.2L338.9,18.6L338.1,19.4L332.7,19.6L332.1,20.4L326.8,19.7L329.0,18.1L340.5,16.4L343.0,16.9L344.7,19.1L349.4,21.0L354.8,20.7L361.0,22.7L381.8,22.4L380.2,21.5L380.6,20.9L386.9,23.4L388.6,22.4L386.4,21.5L383.0,21.7L380.5,19.4L385.1,19.3L384.3,18.6L384.9,18.5L389.5,20.0L392.4,19.7L390.8,21.1L394.8,20.0L392.7,23.9L393.9,25.2L396.2,25.0L395.9,25.7L397.8,25.8L397.8,26.6L392.4,26.4L395.8,28.7L394.5,27.0L397.9,26.9L398.6,25.3L396.5,22.7L397.5,21.2L401.4,21.0L408.3,18.0L407.2,18.0L406.1,16.0L405.0,17.1L402.1,17.0L404.9,15.3L404.0,14.3L407.4,13.8L406.7,14.8L408.4,14.0L407.8,13.4L403.9,13.6L402.0,12.5L394.9,11.7L391.7,9.5L393.1,7.9L395.3,7.7L395.3,7.0L393.3,7.2L391.7,6.4L392.3,4.1L394.3,3.1L397.0,3.5L397.8,2.7L395.3,2.3L400.6,0.2L406.7,1.4L410.9,3.9L410.8,6.1L418.3,9.7L414.3,9.4L413.3,10.1L416.1,10.5L411.3,12.4L416.5,13.2L420.3,12.6L419.0,13.2L424.5,13.6L420.1,14.5L424.1,16.6L423.6,18.8L425.3,19.9L430.5,14.6L437.1,17.0L438.3,19.7L435.5,19.8L435.7,21.6L440.8,25.7L445.0,24.1L445.9,22.4L448.3,20.9L449.7,17.8L454.0,17.2L452.8,16.8L454.1,15.6L451.3,14.8L450.5,11.5L466.0,12.3L467.3,12.6L465.3,13.4L468.1,14.7L473.0,15.3L469.6,16.6L472.6,16.8L473.2,17.8L466.4,19.0L468.1,20.6L469.3,20.3L469.0,21.7L473.1,24.0L472.2,26.3L461.8,30.0L455.8,26.8L452.7,27.2L454.7,27.0L457.5,28.4L459.4,30.9L455.3,30.9L450.1,29.0L444.2,29.2L444.3,30.1L448.2,31.4L441.1,35.4L437.5,35.5L428.0,32.3L419.1,32.3L427.1,33.2L432.1,35.5L442.5,36.3L437.3,41.4L433.9,42.6L426.4,41.9L427.4,42.9L425.8,42.8L426.6,43.7L425.8,44.3L422.3,44.9L407.0,41.9L407.7,43.4L415.2,44.3L413.5,45.0L416.8,44.3L421.5,45.6L423.0,47.4L419.5,49.0L414.1,49.0L416.3,50.2L413.1,50.4L411.9,51.3L413.2,52.4L409.6,51.4L411.2,52.2L407.6,53.6L409.0,54.6L405.8,56.1L402.6,60.8L401.3,61.3L401.9,61.8L401.1,67.9L400.2,69.0L403.8,70.8L403.6,73.1L404.7,70.7L409.7,70.8L413.7,78.3L411.7,80.4L423.5,78.8L432.9,81.0L440.1,85.2L449.7,87.5L452.2,88.8L451.4,90.2L453.0,89.1L459.1,89.0L467.2,90.3L468.2,91.7L467.1,94.7L468.6,97.0L467.8,101.2L471.5,104.4L470.3,105.5L472.2,105.6L476.5,108.0L477.6,109.9L475.5,111.3L479.4,110.5L483.5,113.3L481.5,111.4L481.7,110.2L483.7,108.7L485.8,110.9L486.8,109.3L485.4,107.9L488.3,105.3L484.8,97.8L485.4,96.0L481.5,92.4L491.9,89.1L497.3,85.4L498.5,82.7L498.3,79.0L496.6,76.0L488.0,71.2L488.4,69.9L491.9,67.3L492.1,65.7L494.1,66.2L493.4,65.7L494.5,63.9L492.9,63.5L493.6,63.2L492.4,61.7L493.3,61.1L491.8,60.6L492.8,59.6L489.7,59.6L493.3,55.7L490.6,54.2L490.0,51.8L494.0,50.3L503.1,52.0L502.5,52.4L504.8,51.7L508.6,52.7L513.6,50.8L519.0,52.7L518.6,54.2L521.5,54.2L522.5,55.0L521.5,55.5L524.6,55.4L523.4,56.3L525.7,57.8L531.8,58.3L533.4,59.4L536.1,58.6L536.5,59.5L534.7,61.4L535.1,63.6L529.8,63.9L534.8,64.4L535.6,65.7L535.0,67.5L536.8,67.7L535.8,70.0L534.5,69.6L532.5,70.6L540.3,69.8L542.0,70.7L542.8,72.1L542.1,73.8L538.4,75.2L541.8,74.4L543.9,72.1L544.6,73.1L543.7,73.9L545.3,72.5L545.7,74.7L546.3,73.5L550.8,72.0L552.7,70.4L554.7,72.4L554.4,70.3L558.0,69.0L556.3,68.2L557.8,67.7L557.5,66.8L559.8,67.3L557.8,66.5L557.7,65.2L559.8,65.2L559.1,64.5L561.0,62.2L562.7,62.6L563.1,63.1L561.2,63.9L563.8,63.7L564.1,65.4L565.0,64.9L566.7,66.6L565.6,67.3L568.5,68.3L565.5,69.0L569.3,69.0L569.2,70.0L571.3,71.1L567.8,72.9L572.8,72.1L569.3,74.6L573.4,73.8L576.2,75.1L576.2,76.7L573.4,77.4L576.4,77.8L576.1,78.7L579.6,79.9L579.4,81.7L573.3,81.1L577.4,82.5L576.3,83.1L579.1,83.4L577.5,84.1L579.4,84.2L579.7,85.1L578.9,85.4L584.8,86.5L584.5,87.2L585.6,88.1L583.4,90.3L588.0,89.0L589.7,89.7L587.5,91.7L590.6,89.6L592.0,89.9L593.2,91.5L597.5,91.3L600.5,92.8L594.0,95.7L584.6,97.8L586.1,98.7L584.9,99.9L593.9,96.1L597.7,95.4L595.4,95.2L596.3,94.8L600.4,95.1L601.9,97.1L599.9,98.1L600.9,98.8L605.5,97.3L609.1,100.2L609.1,103.2L606.3,103.8L609.4,104.1L607.9,104.6L609.6,105.9L602.8,109.6L594.6,110.4L586.2,116.0L577.5,116.8L572.2,115.7L552.0,116.2L549.6,117.4L547.3,120.8L542.5,121.6L535.1,126.9L527.9,125.6L534.5,127.5L529.6,132.6L517.4,137.5L514.8,140.1L510.3,141.2L512.1,142.2L508.2,144.0Z"/><path class="land" fill-rule="evenodd" d="M328.8,0.0L329.7,1.5L331.7,2.0L334.2,0.9L333.4,0.0L347.2,0.0L349.9,2.3L349.3,5.0L354.2,7.3L356.9,8.0L357.1,7.2L365.0,9.9L367.5,9.9L368.5,11.7L367.8,12.4L365.4,11.5L364.5,12.3L361.4,11.5L359.5,12.2L359.4,13.1L355.0,12.4L357.1,13.5L356.7,14.9L361.9,13.4L363.8,15.0L363.4,15.9L357.9,16.9L346.1,16.4L346.6,15.6L340.6,15.1L337.8,13.7L333.7,16.0L322.8,17.7L303.3,18.7L300.7,16.9L300.3,15.0L285.3,13.7L282.1,11.7L281.6,10.4L295.5,9.0L311.3,9.0L300.0,7.0L279.5,7.3L275.3,5.5L291.7,2.7L277.7,3.2L276.1,2.8L278.7,1.8L272.7,1.7L272.4,0.0Z"/><path class="land" fill-rule="evenodd" d="M444.9,5.3L449.9,4.5L454.3,5.2L454.9,2.0L451.5,1.6L448.6,0.0L485.8,0.0L487.5,0.6L486.7,0.0L503.7,0.0L501.9,1.5L504.7,0.0L510.8,0.0L510.3,0.8L505.6,1.6L508.3,1.7L506.5,4.1L509.4,1.9L512.7,1.2L513.5,1.5L510.9,3.2L513.5,2.2L516.4,3.8L515.8,2.5L517.9,1.7L525.5,2.9L527.0,3.8L519.3,6.2L524.0,5.1L529.7,5.1L529.3,6.4L523.3,8.4L526.5,8.0L525.7,10.0L528.1,7.6L532.9,6.2L541.6,7.5L541.4,8.5L533.0,10.4L539.8,9.6L538.6,10.8L540.0,11.0L542.8,10.1L542.3,9.7L543.4,9.0L544.8,9.2L548.3,12.0L537.3,13.3L548.1,13.5L551.0,15.0L538.4,15.5L545.3,15.8L544.6,17.2L536.8,16.7L544.3,18.5L550.9,19.0L549.2,19.6L550.2,20.2L549.7,21.0L553.5,19.8L551.9,22.1L555.0,21.0L555.4,21.7L557.3,21.5L557.9,23.1L557.8,22.0L560.1,21.1L560.9,21.4L559.9,22.5L561.9,22.2L566.1,23.6L564.9,24.0L565.3,24.8L561.6,24.8L562.2,25.0L567.5,24.7L570.5,25.4L566.9,27.6L575.3,26.4L579.7,28.5L575.3,28.6L578.3,29.8L576.7,30.3L573.0,29.8L573.8,30.3L573.2,30.8L576.0,31.8L572.7,31.9L574.0,32.9L572.5,33.9L569.8,33.8L568.2,32.8L568.4,33.6L567.2,33.8L568.9,34.0L568.7,36.1L567.4,37.7L563.5,36.4L563.9,35.2L562.4,36.7L557.9,33.3L563.0,30.3L555.6,32.0L556.5,30.9L554.3,31.3L549.4,28.7L547.7,29.0L548.1,30.3L544.6,29.5L548.4,31.8L547.5,32.4L540.0,30.9L542.8,31.6L543.0,32.7L544.7,33.2L544.3,34.3L546.3,33.9L548.7,35.0L547.5,35.5L550.2,36.9L550.9,38.3L551.3,37.3L553.5,38.8L555.0,37.9L557.7,38.8L558.5,39.3L557.2,40.0L559.6,40.3L556.9,41.1L559.1,42.5L561.7,42.5L561.1,43.1L563.1,44.2L562.3,44.4L562.6,46.6L561.8,46.7L559.0,43.9L559.6,46.6L561.7,48.4L559.1,48.4L559.4,50.0L553.5,47.4L552.5,47.9L551.2,46.6L550.9,47.6L544.6,44.1L545.5,45.7L541.4,44.1L539.1,44.2L543.2,47.1L545.7,47.5L554.8,52.2L554.0,52.8L554.4,53.8L552.9,54.0L540.6,51.8L535.4,49.2L527.4,48.0L528.3,47.4L526.1,47.6L522.7,45.8L526.0,44.9L521.1,44.1L521.7,43.2L520.0,43.6L514.9,40.5L515.9,39.6L512.5,39.6L511.7,40.4L511.3,39.4L508.4,38.2L507.1,38.6L508.3,40.0L502.9,39.9L502.6,40.6L496.8,41.4L491.8,40.7L489.7,39.4L490.4,37.4L494.1,36.3L493.5,35.4L494.3,34.9L502.2,36.1L504.3,38.2L504.8,37.3L502.4,35.7L514.4,34.7L509.8,31.1L521.5,25.3L515.8,19.4L513.0,19.4L512.8,17.6L511.4,17.6L512.1,18.4L509.7,18.2L507.1,16.9L508.0,16.5L506.9,16.2L508.2,15.8L507.4,15.6L498.2,17.6L498.4,15.9L503.2,14.9L498.6,13.2L500.1,12.5L495.5,12.6L496.8,11.9L492.8,11.5L491.9,9.4L489.2,9.4L485.0,7.4L483.2,8.5L486.3,9.7L486.3,10.6L484.8,11.1L471.2,10.2L475.1,12.1L471.7,11.0L467.8,11.5L463.2,10.6L449.2,10.5L446.3,9.9L445.3,8.8L445.9,8.2L437.9,9.3L432.8,7.9L429.6,5.0L441.9,5.3L428.3,3.1L426.5,0.3L446.5,0.0L453.2,3.4L444.9,5.3Z"/><path class="land" fill-rule="evenodd" d="M391.1,0.0L391.4,0.9L386.9,2.0L383.0,1.8L382.3,0.8L381.6,1.2L382.9,3.0L380.5,3.7L377.5,3.3L371.6,0.0Z"/><path class="land" fill-rule="evenodd" d="M265.1,0.0L263.4,2.6L257.3,3.0L251.0,4.9L245.3,1.7L235.6,0.0Z"/><path class="land" fill-rule="evenodd" d="M494.1,357.3L493.1,354.5L494.7,353.2L493.5,351.1L494.0,348.9L491.2,345.4L491.9,342.9L493.1,343.6L495.0,341.5L493.4,338.7L493.9,337.9L497.1,341.7L496.4,338.3L499.9,336.1L501.2,334.0L503.3,333.6L503.8,329.6L502.9,329.9L505.3,326.5L507.5,324.7L510.2,325.4L509.2,326.1L509.9,326.6L511.2,323.6L515.7,323.8L524.8,317.7L526.6,318.2L527.3,319.8L522.9,321.8L519.0,326.2L515.4,335.0L518.4,335.4L520.6,339.8L520.1,343.9L522.6,346.5L532.6,346.9L536.4,351.3L544.8,350.5L546.8,351.0L545.0,357.3Z"/><path class="land" fill-rule="evenodd" d="M460.6,325.8L462.2,329.0L466.3,332.9L464.3,333.6L464.3,335.7L465.5,336.4L463.9,339.5L464.6,341.0L462.5,337.8L461.5,337.6L462.4,339.2L460.8,338.8L460.1,338.1L460.6,335.8L455.6,333.0L454.9,331.2L451.9,329.3L453.9,331.6L452.7,332.9L450.0,331.2L448.8,329.1L449.8,326.7L448.5,325.9L450.0,324.3L453.8,325.6L456.8,325.4L459.1,326.7L460.6,325.8Z"/><path class="land" fill-rule="evenodd" d="M466.3,269.0L464.2,269.6L463.0,268.8L464.1,268.8L464.0,267.0L465.5,267.3L466.3,269.0Z"/><path class="land" fill-rule="evenodd" d="M492.4,266.9L491.1,266.2L492.4,266.9Z"/><path class="land" fill-rule="evenodd" d="M491.3,266.0L490.7,265.1L491.3,266.0Z"/><path class="land" fill-rule="evenodd" d="M490.5,265.1L489.2,264.4L490.5,265.1Z"/><path class="land" fill-rule="evenodd" d="M487.3,263.7L489.2,264.2L487.3,263.7Z"/><path class="land" fill-rule="evenodd" d="M483.5,263.1L482.0,262.4L483.5,263.1Z"/><path class="land part-shape" data-part="そ" fill-rule="evenodd" d="M470.2,260.5L481.0,261.9L483.9,264.5L487.0,264.7L492.6,267.7L493.3,267.4L495.2,268.6L494.0,268.7L494.7,269.4L495.5,268.9L496.7,270.2L502.8,271.4L503.5,272.0L502.8,273.5L507.3,273.9L511.2,276.4L506.0,277.9L492.2,278.1L495.4,275.2L494.8,273.9L490.0,273.3L488.0,271.7L486.8,268.8L483.4,268.9L478.8,267.3L477.4,266.0L474.5,266.3L473.7,265.2L473.1,266.1L470.1,265.5L468.9,264.6L470.9,264.0L470.2,263.1L465.4,263.0L462.0,265.5L459.2,265.8L458.5,267.0L456.0,267.9L456.0,267.0L453.9,267.4L456.9,266.3L456.7,264.6L458.4,263.1L462.6,261.5L470.2,260.5Z"/><path class="land" fill-rule="evenodd" d="M540.0,319.7L537.8,318.0L540.0,319.7Z"/><path class="land" fill-rule="evenodd" d="M472.7,280.8L474.1,281.0L472.7,280.8Z"/><path class="land" fill-rule="evenodd" d="M480.1,278.9L479.3,279.1L480.1,278.9Z"/><path class="land" fill-rule="evenodd" d="M579.8,302.7L578.9,300.6L579.9,301.2L579.8,302.7Z"/><path class="land" fill-rule="evenodd" d="M524.0,284.1L523.7,282.7L524.6,281.8L523.8,278.8L525.0,277.9L528.2,277.8L533.6,279.1L534.7,281.1L537.4,281.2L535.3,282.0L540.3,283.2L542.2,284.7L540.3,286.9L537.2,285.7L527.9,286.5L525.7,289.9L522.7,284.8L524.0,284.1Z"/><path class="land" fill-rule="evenodd" d="M616.3,357.3L619.5,353.2L624.5,355.1L627.1,357.3Z"/><path class="land" fill-rule="evenodd" d="M582.3,306.7L581.0,306.8L580.2,304.8L581.7,305.3L582.3,306.7Z"/><path class="land" fill-rule="evenodd" d="M580.1,299.3L580.0,298.6L580.1,299.3Z"/><path class="land" fill-rule="evenodd" d="M578.2,298.6L577.3,298.3L577.3,296.8L578.4,297.2L578.2,298.6Z"/><path class="land" fill-rule="evenodd" d="M579.6,297.4L578.5,297.5L578.8,296.0L580.4,297.3L579.6,297.4Z"/><path class="land" fill-rule="evenodd" d="M577.5,319.9L578.1,318.8L577.5,319.9Z"/><path class="land" fill-rule="evenodd" d="M659.9,59.8L659.3,60.5L657.1,59.8L660.2,59.0L659.9,59.8Z"/><path class="land" fill-rule="evenodd" d="M709.2,34.5L708.1,33.6L709.6,33.8L709.2,34.5Z"/><path class="land" fill-rule="evenodd" d="M634.6,13.1L633.4,13.1L632.8,11.4L636.4,11.5L634.6,13.1Z"/><path class="land" fill-rule="evenodd" d="M625.4,11.0L629.1,11.7L629.9,12.8L620.0,14.6L617.7,13.8L620.5,13.5L619.6,13.1L613.8,12.2L614.5,10.9L616.9,11.0L614.2,10.0L616.7,9.0L622.4,9.6L625.4,11.0Z"/><path class="land" fill-rule="evenodd" d="M631.1,6.1L628.5,5.8L631.1,6.1Z"/><path class="land" fill-rule="evenodd" d="M621.1,5.1L618.9,4.7L620.9,3.7L621.7,4.5L621.1,5.1Z"/><path class="land" fill-rule="evenodd" d="M720.0,30.4L715.4,29.6L716.6,31.3L712.6,32.9L711.9,32.0L711.1,33.1L709.0,32.7L705.3,34.2L704.0,33.5L707.8,30.4L703.2,29.9L705.3,30.6L703.3,32.5L701.2,31.9L702.9,33.5L692.4,34.4L695.6,35.5L692.0,37.1L687.5,36.8L688.2,38.0L689.8,37.8L692.4,40.1L689.2,41.5L684.9,41.1L690.0,42.0L690.4,44.1L687.7,45.3L685.9,47.7L681.7,46.9L684.6,48.1L683.2,49.4L677.6,49.5L681.9,50.3L681.0,52.5L682.1,54.1L679.5,54.8L680.9,55.0L678.8,59.9L677.1,61.2L672.4,60.8L676.5,62.2L676.7,63.7L675.6,64.4L672.2,63.9L673.8,64.8L670.0,64.5L670.8,62.5L668.7,63.9L664.6,62.9L664.7,62.0L668.0,60.5L664.6,61.6L661.1,60.7L660.6,59.9L662.0,57.5L656.7,59.6L650.1,60.0L649.6,59.4L651.9,58.7L648.6,58.6L648.4,57.7L645.7,57.2L643.8,55.5L644.3,55.0L643.3,53.9L646.2,52.9L642.0,53.3L642.4,52.1L638.3,50.8L638.4,49.5L641.1,47.8L637.9,48.9L631.8,44.0L631.7,42.6L638.6,41.5L631.0,41.8L632.5,40.2L637.4,39.0L640.0,40.3L639.4,38.9L637.2,38.6L634.9,36.3L635.8,38.7L633.5,39.3L633.9,38.5L633.3,38.6L630.2,41.4L629.0,40.8L628.0,36.5L626.5,35.6L634.2,33.2L627.5,34.9L622.9,34.2L623.4,32.1L622.1,31.6L633.5,27.3L621.1,31.3L620.6,29.8L621.8,28.5L627.3,27.3L621.6,27.1L619.3,25.9L619.7,24.4L625.8,22.7L636.7,23.9L633.8,23.0L634.8,22.4L627.5,22.2L620.1,23.7L623.2,20.2L632.2,20.7L633.8,19.3L628.3,20.2L622.0,19.7L623.8,18.1L626.1,17.6L631.3,18.5L635.0,17.7L635.7,17.0L633.3,17.4L634.2,15.3L638.4,15.1L634.3,14.9L635.7,12.5L638.1,11.8L637.3,11.0L638.4,10.6L628.0,10.4L618.6,8.4L615.8,6.9L625.1,6.7L636.4,8.6L632.9,7.5L633.3,6.1L630.5,5.3L634.6,5.3L624.0,4.4L623.4,3.7L630.5,1.7L622.5,2.5L621.5,1.9L623.2,1.0L621.1,0.0L621.5,0.8L618.6,1.8L618.9,2.9L615.0,3.4L611.5,3.1L609.8,1.6L611.1,0.0L720.0,0.0Z"/><path class="land" fill-rule="evenodd" d="M431.1,289.0L430.7,299.2L434.1,299.9L434.2,298.9L436.1,300.1L431.1,303.8L431.1,306.1L428.9,307.3L429.1,308.0L426.2,310.7L419.3,309.4L414.7,306.4L415.6,303.6L414.9,302.5L417.4,298.3L424.3,298.3L424.4,296.6L419.1,292.0L421.4,292.0L421.4,289.0L431.1,289.0Z"/><path class="land" fill-rule="evenodd" d="M586.7,357.3L585.9,356.1L582.7,356.3L579.2,352.3L580.6,350.9L580.6,348.3L584.8,346.7L584.8,345.9L583.3,345.5L582.8,343.8L587.5,340.0L586.6,338.4L590.9,340.9L594.6,344.5L593.7,349.9L595.7,347.3L601.5,351.0L601.5,356.3L599.2,357.3Z"/><path class="land" fill-rule="evenodd" d="M430.1,307.1L431.1,306.1L431.2,303.6L438.9,299.1L443.2,299.9L446.1,299.8L448.1,298.5L453.5,298.7L457.3,299.6L459.9,301.8L458.8,301.2L458.2,301.9L461.3,302.8L460.6,302.0L463.2,304.0L456.2,305.9L453.4,305.3L452.4,307.5L449.4,310.1L447.8,309.1L446.2,310.6L444.0,310.7L444.2,313.0L442.4,314.7L440.9,314.8L440.1,312.8L438.3,312.5L438.4,309.9L436.5,309.4L434.8,310.1L430.1,307.1Z"/><path class="land" fill-rule="evenodd" d="M445.8,296.6L444.6,297.1L446.6,296.4L445.8,296.6Z"/><path class="land" fill-rule="evenodd" d="M523.8,278.8L524.6,281.8L523.7,282.7L524.0,284.1L522.7,284.8L523.9,286.2L523.9,287.8L522.3,286.8L515.3,286.7L512.6,287.8L509.5,285.9L510.8,284.5L518.5,285.7L520.7,284.9L518.3,282.3L518.9,280.3L515.2,279.2L515.7,278.1L523.8,278.8Z"/><path class="land" fill-rule="evenodd" d="M518.4,283.9L515.9,282.9L518.4,283.9Z"/><path class="land" fill-rule="evenodd" d="M519.1,277.1L517.5,277.0L519.1,277.1Z"/><path class="land" fill-rule="evenodd" d="M494.6,285.6L499.5,287.2L500.2,288.5L496.8,288.1L494.9,289.5L488.9,286.5L491.3,285.2L494.6,285.6Z"/><path class="land" fill-rule="evenodd" d="M573.2,292.7L572.7,292.3L573.2,292.7Z"/><path class="land" fill-rule="evenodd" d="M572.6,292.1L571.6,291.3L572.6,292.1Z"/><path class="land" fill-rule="evenodd" d="M581.9,310.3L581.6,310.8L580.9,310.1L581.8,308.8L581.9,310.3Z"/><path class="land" fill-rule="evenodd" d="M435.8,285.5L434.5,285.6L433.0,288.2L431.3,288.2L431.1,289.0L421.4,289.0L421.4,292.0L419.1,292.0L424.4,296.6L424.3,298.3L417.4,298.3L414.9,302.5L415.6,303.6L414.7,306.4L403.3,297.1L405.3,298.6L400.5,296.4L399.9,297.2L401.1,297.5L391.9,300.5L385.3,298.8L379.9,295.8L368.8,292.3L363.1,288.2L355.0,286.3L352.5,283.6L347.0,281.0L344.1,277.5L343.1,275.3L345.3,274.2L343.9,273.0L345.4,271.4L345.6,269.4L343.2,266.7L342.4,263.3L336.3,256.6L331.9,253.5L333.2,254.1L333.3,253.4L330.9,252.7L329.2,250.2L330.4,250.3L326.5,247.8L325.2,248.1L325.9,246.8L324.3,247.5L323.3,246.8L323.1,245.2L324.7,244.0L323.9,242.5L321.3,241.6L320.3,239.6L317.5,238.3L317.2,235.4L314.0,234.8L308.5,229.2L303.7,220.5L303.8,217.7L293.7,213.9L295.7,223.9L304.7,232.4L305.4,235.6L307.6,237.2L310.1,241.7L310.9,242.2L310.4,240.6L311.6,241.6L313.1,246.5L316.3,251.4L316.5,254.2L318.0,255.5L318.6,254.2L323.1,258.8L322.7,260.5L320.9,261.7L320.0,261.9L318.1,258.1L308.9,251.5L308.4,245.8L303.9,242.2L303.2,240.3L300.8,241.5L293.4,236.1L293.1,235.5L297.1,235.3L298.3,236.4L297.2,235.0L298.4,232.4L293.7,227.5L289.7,225.3L287.7,219.7L282.0,210.5L294.8,209.5L294.2,210.6L314.4,216.9L329.5,216.9L329.5,214.5L338.9,214.6L347.1,220.9L349.9,226.3L356.0,229.3L357.9,228.2L359.4,225.3L365.7,225.2L369.3,228.4L371.8,232.9L376.0,237.1L376.2,239.7L378.1,242.9L387.3,246.0L388.6,245.5L385.8,253.9L384.8,263.9L385.3,266.1L387.7,269.0L387.2,270.5L387.3,269.0L385.3,266.5L388.3,273.5L395.8,283.7L395.1,283.6L399.0,284.3L402.9,287.1L413.6,284.4L416.1,284.2L416.5,285.2L418.5,285.6L419.9,284.7L419.0,283.3L422.7,280.8L424.8,271.9L434.8,269.0L441.3,269.6L441.7,269.1L440.7,268.9L442.5,268.8L443.9,271.2L439.0,279.3L440.4,279.6L439.2,280.8L440.0,281.1L438.6,285.6L438.0,286.5L437.2,283.5L435.8,285.5Z"/><path class="land" fill-rule="evenodd" d="M417.7,284.4L417.0,284.4L418.5,283.9L417.7,284.4Z"/><path class="land" fill-rule="evenodd" d="M315.1,284.0L314.3,283.8L315.1,284.0Z"/><path class="land" fill-rule="evenodd" d="M443.0,275.7L442.8,274.7L443.9,274.2L443.0,275.7Z"/><path class="land" fill-rule="evenodd" d="M338.7,268.7L337.9,268.3L338.7,268.7Z"/><path class="land" fill-rule="evenodd" d="M321.0,255.2L320.6,254.2L321.0,255.2Z"/><path class="land" fill-rule="evenodd" d="M310.9,253.9L309.3,253.2L310.9,253.9Z"/><path class="land" fill-rule="evenodd" d="M317.0,250.6L317.1,251.2L316.3,250.2L317.0,250.6Z"/><path class="land" fill-rule="evenodd" d="M309.0,253.1L307.8,251.8L308.5,249.1L309.0,253.1Z"/><path class="land" fill-rule="evenodd" d="M314.1,245.2L313.5,246.2L314.1,245.2Z"/><path class="land" fill-rule="evenodd" d="M292.4,234.3L291.5,234.1L292.1,232.7L292.4,234.3Z"/><path class="land" fill-rule="evenodd" d="M276.0,229.6L275.4,228.3L276.0,229.6Z"/><path class="land" fill-rule="evenodd" d="M308.3,229.3L307.8,230.6L306.6,230.1L307.1,228.2L307.8,228.1L308.3,229.3Z"/><path class="land" fill-rule="evenodd" d="M303.2,229.1L300.9,226.3L302.9,227.7L303.2,229.1Z"/><path class="land" fill-rule="evenodd" d="M295.0,214.9L294.5,214.5L295.0,214.9Z"/><path class="land" fill-rule="evenodd" d="M460.6,325.8L459.1,326.7L455.3,325.1L453.8,325.6L450.2,324.3L449.4,325.0L439.1,314.8L442.6,314.6L444.2,313.0L444.0,310.7L446.2,310.6L447.8,309.1L449.4,310.1L454.1,305.0L455.8,306.0L463.2,304.0L461.8,304.9L463.0,307.5L461.0,313.0L461.3,317.8L460.8,316.2L460.0,317.3L460.4,319.9L459.6,320.7L460.5,321.9L459.4,323.7L460.6,325.8Z"/><path class="land" fill-rule="evenodd" d="M542.9,319.2L542.6,319.8L542.0,318.4L542.9,319.2Z"/><path class="land" fill-rule="evenodd" d="M494.0,337.8L493.4,338.7L495.0,341.5L493.1,343.6L491.9,342.9L491.2,345.4L488.4,341.0L489.9,339.3L491.9,340.6L490.1,338.7L488.5,338.6L488.5,339.4L487.9,338.0L484.9,336.0L482.6,336.2L481.3,338.2L477.6,340.2L479.9,344.0L476.4,345.5L475.2,345.2L474.3,341.9L473.2,343.3L470.8,340.6L465.7,339.6L464.6,341.0L463.9,339.5L465.5,336.4L464.3,335.7L465.1,332.8L467.4,333.7L468.9,336.3L470.5,336.2L469.9,335.3L472.8,337.2L479.3,334.9L482.3,332.8L484.7,333.1L490.2,334.7L494.0,337.8Z"/><path class="land" fill-rule="evenodd" d="M471.4,344.9L470.1,344.2L470.3,343.5L471.4,344.9Z"/><path class="land" fill-rule="evenodd" d="M485.9,339.9L486.0,338.9L485.9,339.9Z"/><path class="land" fill-rule="evenodd" d="M557.7,287.4L556.9,287.3L558.4,287.3L557.7,287.4Z"/><path class="land" fill-rule="evenodd" d="M554.0,285.6L556.6,286.0L556.7,286.7L554.8,288.1L548.3,288.0L548.5,285.3L554.0,285.6Z"/><path class="land" fill-rule="evenodd" d="M0.0,31.1L1.4,31.7L0.0,31.8Z"/><path class="land" fill-rule="evenodd" d="M426.2,310.7L429.8,307.0L434.8,310.1L436.5,309.4L438.9,310.3L438.7,312.3L437.2,313.8L433.7,313.2L434.6,313.7L426.2,310.7Z"/><path class="land" fill-rule="evenodd" d="M606.6,134.2L605.9,134.3L606.1,132.8L606.6,134.2Z"/><path class="land" fill-rule="evenodd" d="M599.2,357.3L601.0,357.1L602.8,352.0L608.5,353.6L608.9,352.2L612.5,352.0L618.4,353.0L616.3,357.3Z"/><path class="land" fill-rule="evenodd" d="M570.0,287.6L570.6,287.8L570.0,287.6Z"/><path class="land" fill-rule="evenodd" d="M520.9,267.5L521.9,267.8L520.9,267.5Z"/><path class="land" fill-rule="evenodd" d="M524.5,267.9L523.5,267.5L524.5,267.9Z"/><path class="land" fill-rule="evenodd" d="M523.3,267.5L522.6,266.9L523.3,267.5Z"/><path class="land" fill-rule="evenodd" d="M581.3,330.0L576.5,330.3L578.7,329.2L578.8,327.4L577.9,326.8L581.8,326.2L581.3,330.0Z"/><path class="land" fill-rule="evenodd" d="M582.6,324.4L583.9,323.6L582.6,324.4Z"/><path class="land" fill-rule="evenodd" d="M508.2,144.0L525.2,144.0L526.3,142.5L528.7,142.6L531.8,139.2L533.3,134.9L537.4,130.9L539.0,132.2L542.7,131.5L545.0,132.9L545.1,140.1L547.0,140.8L546.8,142.5L548.7,143.1L549.4,144.9L543.7,147.3L541.6,146.6L541.2,148.0L539.7,147.5L539.9,146.3L537.9,149.1L535.3,150.0L535.2,149.4L534.4,150.5L533.0,150.2L531.9,151.1L528.9,155.6L530.1,156.7L527.8,158.2L529.4,158.8L531.1,161.3L533.3,160.9L532.0,159.5L532.8,159.6L533.6,161.7L529.8,162.5L529.6,161.5L527.1,162.7L527.2,161.4L525.9,161.1L525.2,163.3L517.7,163.8L512.1,166.7L512.2,164.0L512.4,165.8L510.6,167.8L512.1,168.5L511.6,171.8L511.7,170.7L507.8,176.0L506.9,176.3L507.2,175.2L503.9,173.4L504.4,171.8L506.3,170.8L503.5,172.6L506.5,179.1L501.7,185.9L501.5,184.5L503.2,181.6L502.1,181.5L502.1,179.4L501.1,179.8L499.9,179.0L499.9,178.1L501.2,178.0L499.5,177.5L500.4,176.8L499.6,176.5L500.6,175.6L500.1,175.0L502.0,173.3L498.3,174.6L499.1,175.3L498.4,175.7L499.2,179.4L497.8,178.5L499.5,180.9L496.0,179.0L494.8,179.2L495.8,176.6L494.6,178.1L494.5,179.5L499.9,181.9L498.7,183.0L495.4,180.4L499.7,183.6L499.9,184.8L498.9,185.2L497.3,184.0L499.8,186.4L494.7,184.9L497.8,185.7L498.7,187.2L501.3,187.1L503.8,193.0L501.6,188.5L502.3,191.4L500.5,190.5L498.3,191.9L497.4,190.8L497.5,192.2L501.0,192.2L500.9,193.7L502.1,192.2L502.6,192.8L502.5,193.9L500.4,195.4L495.8,194.5L498.6,195.9L497.2,197.4L495.6,196.5L496.1,197.2L498.9,197.4L499.0,198.2L494.4,199.5L493.8,198.8L494.0,199.9L491.1,203.0L490.9,201.8L490.6,203.1L486.2,204.1L484.3,206.7L484.1,205.8L483.9,207.3L480.3,209.8L476.6,210.6L477.5,211.1L476.9,211.8L475.7,210.9L476.3,212.2L474.1,214.0L472.2,218.0L473.3,225.1L477.2,232.1L477.6,235.2L476.8,231.9L476.3,232.8L475.5,230.6L479.7,241.0L479.3,246.2L477.4,249.4L474.1,249.9L473.9,249.0L475.0,249.3L472.7,246.2L470.9,245.4L469.6,242.7L470.2,241.7L469.1,242.4L469.3,240.2L467.8,240.7L465.5,237.3L467.2,235.4L465.7,234.9L465.4,236.2L464.8,235.5L465.9,229.9L460.3,224.4L457.0,223.7L456.6,224.5L451.6,225.7L449.7,223.3L450.1,222.5L449.3,223.1L445.6,221.9L447.3,221.8L446.6,221.4L441.6,222.2L442.7,221.0L441.2,222.2L437.3,222.8L438.5,222.4L437.3,220.3L436.6,222.0L432.5,221.8L428.9,223.1L426.0,222.0L424.9,222.5L424.5,223.3L425.7,223.8L428.1,223.1L427.7,224.0L428.6,224.5L429.9,223.8L430.1,225.0L428.2,226.0L431.9,228.3L430.0,229.4L429.6,228.3L425.8,226.5L426.4,227.5L425.5,228.8L424.6,227.8L422.7,228.6L419.8,227.8L420.5,227.6L420.0,226.3L416.6,224.9L414.6,226.4L409.7,225.2L406.3,225.5L406.2,224.1L405.9,225.7L401.3,227.3L402.5,226.4L401.2,226.4L401.4,225.3L399.9,225.6L400.6,227.4L398.5,229.5L393.4,232.1L394.6,231.3L391.3,230.9L392.4,232.2L388.5,233.9L388.9,234.7L387.0,235.5L387.8,236.4L387.0,238.2L385.2,237.6L386.7,238.7L387.0,242.7L388.6,245.2L387.4,246.0L378.1,242.9L376.2,239.7L376.0,237.1L366.0,225.4L360.8,224.7L356.0,229.3L349.9,226.3L347.1,220.9L339.0,214.6L329.5,214.5L329.5,216.9L314.4,216.9L294.2,210.6L294.8,209.5L282.0,210.5L280.2,206.4L276.9,204.1L275.1,204.0L274.6,202.6L263.2,199.6L263.2,196.7L256.7,190.2L257.0,187.5L253.9,185.6L253.3,183.8L253.6,182.4L255.6,184.1L254.3,181.3L258.5,181.0L253.9,180.6L253.2,182.3L250.7,181.4L251.2,180.3L246.9,176.5L246.2,171.9L243.6,169.3L244.9,162.9L242.5,155.7L244.5,151.0L245.4,137.5L249.5,137.8L244.9,137.2L245.1,135.4L245.6,136.4L245.9,135.1L244.7,134.1L246.2,133.5L244.6,133.6L241.5,126.0L245.5,127.1L251.8,127.3L252.5,128.6L249.9,131.3L251.1,131.2L250.3,130.9L253.2,128.4L252.4,130.1L252.9,131.8L251.6,131.5L250.5,132.6L252.3,132.7L254.1,131.4L253.9,129.2L254.7,127.9L253.2,127.1L253.8,126.4L252.4,125.5L253.3,124.4L251.8,122.7L399.1,122.7L399.2,120.7L400.8,121.0L402.0,124.0L406.9,125.2L410.7,124.7L418.6,127.7L421.8,126.9L429.6,128.0L435.3,126.4L454.0,133.9L455.7,136.2L457.9,135.8L458.8,138.2L460.7,138.0L461.5,138.7L460.8,139.6L466.4,142.1L468.6,151.6L466.4,156.7L463.2,159.2L463.8,160.9L465.7,161.7L485.1,155.7L485.8,155.2L484.4,152.2L486.2,151.6L497.0,151.3L500.5,147.7L508.2,144.0Z"/><path class="land" fill-rule="evenodd" d="M212.2,90.5L210.3,91.9L208.8,91.7L207.8,89.7L209.3,89.0L207.3,85.5L207.8,84.9L203.8,86.0L202.8,87.8L201.8,87.5L201.6,86.6L203.5,84.5L205.1,84.2L201.7,83.1L198.3,79.7L194.8,79.1L193.9,76.6L196.7,77.0L194.5,75.6L196.3,75.3L193.5,75.5L191.8,74.3L192.7,71.9L190.9,73.4L187.9,72.2L184.7,67.1L184.0,68.3L186.2,73.4L181.9,72.5L181.1,70.3L182.3,69.9L180.5,69.1L180.1,70.6L176.1,69.1L175.7,70.0L178.1,70.4L181.0,72.3L178.1,73.4L167.9,68.4L161.1,66.4L162.6,65.6L162.6,64.2L163.8,66.1L164.2,65.0L165.4,64.9L163.0,63.9L157.8,65.5L152.5,64.5L153.1,64.0L152.5,63.4L151.1,64.2L137.9,63.9L133.9,62.2L135.0,60.4L132.0,62.0L128.5,61.4L129.7,60.5L125.0,60.1L125.9,59.7L124.6,59.2L124.8,58.4L126.5,58.1L117.4,58.9L118.7,57.5L115.5,58.3L116.2,58.5L115.5,59.4L114.4,59.6L116.0,60.4L113.9,61.4L117.5,61.4L115.0,64.1L109.9,63.4L108.8,65.2L108.2,64.4L105.6,66.3L103.4,66.3L101.7,68.0L96.3,67.9L101.1,65.2L98.9,65.9L96.8,65.2L99.2,62.5L99.6,60.0L104.3,58.5L111.6,59.3L106.4,57.8L109.7,56.0L101.6,57.6L97.4,59.1L94.0,62.2L90.5,62.4L92.5,64.0L89.5,64.8L90.2,65.6L87.2,65.9L84.4,68.5L88.4,69.5L88.3,70.6L83.8,73.0L84.0,73.8L80.0,74.6L72.3,78.1L71.3,79.9L61.8,83.0L61.1,83.7L62.5,84.3L61.5,84.9L60.8,84.3L55.1,87.3L54.6,86.2L47.1,88.6L45.5,88.6L46.9,87.8L45.2,87.4L42.3,89.9L40.6,90.4L39.3,89.4L39.1,90.7L36.7,90.3L35.5,91.5L35.8,90.0L44.3,85.8L46.9,85.2L48.5,85.4L48.0,85.9L49.1,86.6L51.8,86.4L50.5,85.3L51.7,83.7L59.1,80.6L60.4,81.1L60.5,79.8L62.3,78.4L66.9,77.3L65.6,76.4L66.1,74.4L68.3,73.6L66.7,73.3L66.5,72.4L69.5,70.7L70.4,68.6L68.6,70.0L63.0,71.4L61.3,70.1L61.7,69.3L63.6,69.5L61.7,68.9L59.7,69.5L59.8,72.3L58.9,72.5L55.1,69.8L53.8,70.3L51.4,69.1L46.1,71.1L41.9,71.2L44.1,70.4L43.8,69.2L44.6,68.7L42.8,68.6L43.6,66.2L40.4,62.5L43.0,60.3L39.0,62.6L39.9,62.9L39.6,64.1L32.5,65.0L24.8,61.1L27.7,59.2L30.3,59.9L30.0,60.8L32.0,59.9L33.4,60.9L35.1,60.0L32.5,59.4L34.2,59.2L26.1,59.0L27.4,58.1L25.2,57.2L23.6,58.1L22.1,56.9L22.2,55.8L20.4,55.2L22.4,55.0L20.9,54.4L23.4,54.0L22.9,52.8L25.6,50.8L28.0,50.7L27.5,50.2L28.9,49.5L27.8,50.0L27.7,48.4L30.0,47.8L29.2,47.3L29.8,46.9L35.8,47.8L41.2,45.2L45.3,45.5L48.4,44.5L49.2,43.6L48.1,41.3L45.4,40.4L48.4,39.6L48.6,38.4L47.3,37.7L43.9,38.3L38.9,40.7L36.2,39.2L37.1,39.9L36.6,40.4L33.5,39.5L26.8,40.2L20.6,39.6L18.8,38.8L19.1,37.7L16.4,36.5L20.5,35.8L10.2,33.8L19.2,31.2L23.3,31.3L22.3,30.5L29.5,28.9L33.9,28.9L32.6,28.9L33.2,29.2L31.8,30.9L33.6,31.6L47.8,31.0L47.4,30.2L43.6,30.0L39.4,27.2L40.7,26.9L44.8,29.5L52.1,29.8L51.4,28.7L45.9,29.1L43.4,28.3L44.2,26.6L34.5,26.1L31.3,23.4L17.1,19.4L19.3,19.1L20.2,16.6L30.4,16.3L34.5,15.1L37.6,12.0L43.3,8.9L43.9,9.3L42.3,9.8L52.7,7.5L53.5,7.6L52.8,8.9L54.0,9.2L54.3,8.0L56.6,7.9L52.9,7.3L55.0,6.5L64.5,6.1L72.2,3.2L71.6,3.5L76.9,4.7L73.9,5.7L74.8,6.2L80.3,4.9L81.7,5.4L81.1,5.9L84.3,6.4L94.4,6.2L93.5,7.2L97.2,7.7L96.3,8.3L110.6,8.0L135.4,10.8L142.8,10.0L154.7,12.5L154.7,62.4L160.1,63.0L164.9,62.2L164.3,63.6L172.8,68.1L173.7,69.8L178.2,68.5L179.6,66.1L184.1,65.1L185.3,65.6L187.0,67.8L195.2,72.5L201.4,78.9L200.9,79.6L202.5,79.9L202.1,80.8L203.4,81.1L203.6,82.2L212.8,84.8L213.1,89.1L212.2,90.5Z"/><path class="land" fill-rule="evenodd" d="M76.9,282.6L75.3,282.3L74.4,278.7L75.6,275.9L78.9,277.4L81.0,279.9L76.9,282.6Z"/><path class="land" fill-rule="evenodd" d="M70.1,273.2L69.1,272.5L70.1,273.2Z"/><path class="land" fill-rule="evenodd" d="M72.1,272.4L74.7,273.3L72.5,274.1L70.9,272.3L72.1,272.4Z"/><path class="land" fill-rule="evenodd" d="M68.2,270.9L70.9,271.2L67.8,271.4L68.2,270.9Z"/><path class="land" fill-rule="evenodd" d="M65.1,269.6L65.9,270.4L63.4,270.3L62.5,268.9L64.2,268.3L65.1,269.6Z"/><path class="land" fill-rule="evenodd" d="M52.4,267.5L53.1,266.6L52.4,267.5Z"/><path class="land" fill-rule="evenodd" d="M56.7,267.0L54.5,266.4L56.8,265.5L56.7,267.0Z"/><path class="land" fill-rule="evenodd" d="M472.9,252.5L472.4,252.0L472.9,252.5Z"/><path class="land" fill-rule="evenodd" d="M474.4,252.2L475.0,251.9L474.4,252.2Z"/><path class="land" fill-rule="evenodd" d="M478.0,249.9L476.9,250.9L478.6,248.8L478.0,249.9Z"/><path class="land" fill-rule="evenodd" d="M469.1,242.9L468.3,242.4L469.1,242.9Z"/><path class="land" fill-rule="evenodd" d="M468.9,242.4L468.4,241.6L468.9,242.4Z"/><path class="land" fill-rule="evenodd" d="M388.4,244.5L387.3,239.0L388.4,244.5Z"/><path class="land" fill-rule="evenodd" d="M387.4,238.4L389.0,235.6L387.4,238.4Z"/><path class="land" fill-rule="evenodd" d="M479.0,238.5L477.7,235.5L479.0,238.5Z"/><path class="land" fill-rule="evenodd" d="M389.3,235.2L390.1,234.0L389.3,235.2Z"/><path class="land" fill-rule="evenodd" d="M390.6,233.9L392.5,232.6L390.6,233.9Z"/><path class="land" fill-rule="evenodd" d="M399.8,228.6L401.2,227.5L399.8,228.6Z"/><path class="land" fill-rule="evenodd" d="M417.1,226.7L416.0,226.1L417.1,226.7Z"/><path class="land" fill-rule="evenodd" d="M453.8,225.9L452.7,226.0L454.7,225.4L453.8,225.9Z"/><path class="land" fill-rule="evenodd" d="M432.9,225.0L432.7,223.7L432.9,225.0Z"/><path class="land" fill-rule="evenodd" d="M430.8,223.6L430.2,223.7L430.8,223.6Z"/><path class="land" fill-rule="evenodd" d="M434.4,222.8L433.5,222.6L434.4,222.8Z"/><path class="land" fill-rule="evenodd" d="M437.0,222.7L435.6,222.7L437.0,222.7Z"/><path class="land" fill-rule="evenodd" d="M472.4,218.8L472.2,220.1L472.4,218.8Z"/><path class="land" fill-rule="evenodd" d="M275.5,208.9L274.2,207.9L275.5,208.9Z"/><path class="land" fill-rule="evenodd" d="M269.7,206.8L268.9,206.5L269.7,206.8Z"/><path class="land" fill-rule="evenodd" d="M275.5,205.9L274.3,205.5L275.5,205.9Z"/><path class="land" fill-rule="evenodd" d="M266.4,203.1L265.3,202.6L266.4,203.1Z"/><path class="land" fill-rule="evenodd" d="M265.0,202.5L264.3,202.5L265.0,202.5Z"/><path class="land" fill-rule="evenodd" d="M267.3,202.2L269.1,202.5L267.3,202.2Z"/><path class="land" fill-rule="evenodd" d="M498.4,199.2L497.7,198.9L498.4,199.2Z"/><path class="land" fill-rule="evenodd" d="M498.6,199.2L500.2,197.7L498.6,199.2Z"/><path class="land" fill-rule="evenodd" d="M502.5,196.3L501.4,196.7L502.5,196.3Z"/><path class="land" fill-rule="evenodd" d="M503.8,196.1L503.0,196.2L503.8,195.8L504.0,193.2L503.8,196.1Z"/><path class="land" fill-rule="evenodd" d="M503.3,192.8L502.8,192.3L503.3,192.8Z"/><path class="land" fill-rule="evenodd" d="M504.9,181.9L506.1,179.7L504.9,181.9Z"/><path class="land" fill-rule="evenodd" d="M511.3,172.4L510.7,173.2L511.3,172.4Z"/><path class="land" fill-rule="evenodd" d="M511.0,167.9L511.6,167.2L511.0,167.9Z"/><path class="land" fill-rule="evenodd" d="M519.9,165.4L523.2,165.0L516.3,167.2L511.8,167.3L514.3,165.8L521.2,164.5L519.9,165.4Z"/><path class="land" fill-rule="evenodd" d="M533.5,163.9L532.1,163.8L533.1,163.2L533.5,163.9Z"/><path class="land" fill-rule="evenodd" d="M530.6,163.3L528.9,163.4L530.6,163.3Z"/><path class="land" fill-rule="evenodd" d="M526.7,162.7L526.8,161.8L526.7,162.7Z"/><path class="land" fill-rule="evenodd" d="M543.0,147.6L541.8,147.8L542.4,146.9L543.0,147.6Z"/><path class="land" fill-rule="evenodd" d="M253.9,131.2L253.4,130.7L253.9,131.2Z"/><path class="land" fill-rule="evenodd" d="M253.3,130.2L253.1,129.6L253.3,130.2Z"/><path class="land" fill-rule="evenodd" d="M252.9,127.2L254.0,128.4L252.0,126.8L252.6,126.0L252.9,127.2Z"/><path class="land" fill-rule="evenodd" d="M251.6,125.7L251.1,125.1L251.6,125.7Z"/><path class="land" fill-rule="evenodd" d="M250.6,125.3L249.8,124.8L250.6,125.3Z"/><path class="land" fill-rule="evenodd" d="M251.8,124.4L250.7,124.5L251.8,124.4Z"/><path class="land" fill-rule="evenodd" d="M1.6,102.1L0.0,102.2L1.6,102.1Z"/><path class="land" fill-rule="evenodd" d="M10.9,99.5L4.9,102.2L9.1,98.7L11.6,98.6L10.9,99.5Z"/><path class="land" fill-rule="evenodd" d="M20.2,97.5L20.7,96.8L20.2,97.5Z"/><path class="land" fill-rule="evenodd" d="M18.1,96.5L20.1,96.4L18.4,97.6L19.7,97.6L17.2,98.8L11.7,99.6L17.4,97.5L15.6,97.2L15.8,96.3L18.1,96.5Z"/><path class="land" fill-rule="evenodd" d="M22.2,95.6L20.8,95.2L23.0,95.5L22.2,95.6Z"/><path class="land" fill-rule="evenodd" d="M23.7,95.3L23.2,94.6L24.5,95.0L23.7,95.3Z"/><path class="land" fill-rule="evenodd" d="M39.7,93.9L38.3,93.4L39.7,93.9Z"/><path class="land" fill-rule="evenodd" d="M41.1,91.5L40.4,91.0L41.3,90.8L41.1,91.5Z"/><path class="land" fill-rule="evenodd" d="M34.8,90.8L36.9,92.4L31.6,92.7L28.8,93.8L27.2,93.1L29.4,91.2L34.8,90.8Z"/><path class="land" fill-rule="evenodd" d="M56.7,90.8L56.2,90.4L56.7,90.8Z"/><path class="land" fill-rule="evenodd" d="M55.9,89.9L55.2,90.3L55.9,89.9Z"/><path class="land" fill-rule="evenodd" d="M206.2,90.2L206.8,91.2L204.8,90.5L204.9,89.3L206.2,90.2Z"/><path class="land" fill-rule="evenodd" d="M54.0,90.0L52.1,91.1L53.8,89.2L54.0,90.0Z"/><path class="land" fill-rule="evenodd" d="M198.1,91.2L199.4,91.2L198.9,92.4L195.0,89.0L196.8,89.5L198.1,91.2Z"/><path class="land" fill-rule="evenodd" d="M51.6,88.9L50.6,88.9L51.6,88.9Z"/><path class="land" fill-rule="evenodd" d="M49.7,89.0L50.4,88.6L50.7,89.7L49.1,89.9L48.9,88.9L49.7,89.0Z"/><path class="land" fill-rule="evenodd" d="M195.7,87.8L193.9,89.2L193.4,88.0L195.7,87.8Z"/><path class="land" fill-rule="evenodd" d="M77.0,86.3L76.1,86.2L77.0,86.3Z"/><path class="land" fill-rule="evenodd" d="M208.1,88.1L207.0,89.6L205.6,88.5L203.7,89.5L204.7,86.2L206.6,85.6L208.1,88.1Z"/><path class="land" fill-rule="evenodd" d="M194.3,83.5L196.3,83.6L201.7,88.1L199.9,87.5L199.3,88.1L202.8,89.6L202.6,92.1L196.7,88.9L197.6,88.6L197.2,87.5L193.7,86.5L196.0,85.8L193.4,85.5L194.5,84.6L194.3,83.5Z"/><path class="land" fill-rule="evenodd" d="M198.5,84.0L197.1,83.4L199.2,83.0L198.5,84.0Z"/><path class="land" fill-rule="evenodd" d="M202.1,84.8L202.0,85.6L200.7,85.7L198.9,84.3L200.6,82.7L202.3,84.0L202.1,84.8Z"/><path class="land" fill-rule="evenodd" d="M81.7,83.0L83.0,82.3L81.7,83.0Z"/><path class="land" fill-rule="evenodd" d="M84.2,82.6L83.6,82.3L84.7,82.1L84.2,82.6Z"/><path class="land" fill-rule="evenodd" d="M1.3,81.9L2.8,82.2L1.3,81.9Z"/><path class="land" fill-rule="evenodd" d="M198.7,82.5L197.6,82.3L198.2,81.1L199.6,82.3L198.7,82.5Z"/><path class="land" fill-rule="evenodd" d="M192.1,80.8L193.4,81.9L192.3,84.7L191.0,84.9L191.6,82.9L190.0,80.9L192.1,80.8Z"/><path class="land" fill-rule="evenodd" d="M195.4,80.0L197.6,80.6L197.3,82.0L195.6,80.9L196.4,82.8L194.1,82.9L193.7,81.1L192.1,79.9L195.4,80.0Z"/><path class="land" fill-rule="evenodd" d="M90.6,79.3L88.7,79.7L89.1,79.0L90.6,79.3Z"/><path class="land" fill-rule="evenodd" d="M186.8,78.1L188.7,81.5L188.4,84.2L186.8,82.6L187.3,81.7L184.9,81.0L185.6,79.9L184.2,78.7L182.3,79.9L182.3,78.5L184.3,77.2L186.8,78.1Z"/><path class="land" fill-rule="evenodd" d="M89.4,75.5L87.9,74.9L89.4,75.5Z"/><path class="land" fill-rule="evenodd" d="M91.2,75.6L93.7,75.6L93.4,76.2L94.8,76.9L91.0,77.3L92.4,78.2L86.8,79.7L87.2,80.2L85.5,81.2L86.4,80.1L84.0,79.2L83.5,80.4L81.6,78.2L82.5,77.0L84.7,76.5L87.0,78.4L86.2,75.4L88.1,76.1L89.8,74.8L91.2,75.6Z"/><path class="land" fill-rule="evenodd" d="M182.8,73.4L183.4,74.7L184.8,74.0L186.9,74.6L186.8,75.6L184.9,75.9L186.8,76.1L187.0,77.4L183.7,76.4L183.0,77.8L181.8,77.6L178.3,74.8L179.6,73.5L180.6,74.1L182.8,73.4Z"/><path class="land" fill-rule="evenodd" d="M190.3,73.4L188.5,73.1L190.3,73.4Z"/><path class="land" fill-rule="evenodd" d="M188.4,73.8L190.7,73.9L192.9,76.6L190.4,74.5L192.5,78.0L189.7,79.7L188.7,79.3L189.4,77.4L187.1,72.8L188.4,73.8Z"/><path class="land" fill-rule="evenodd" d="M93.8,72.7L96.1,73.4L91.0,74.7L88.6,74.2L91.9,73.2L91.5,72.4L93.8,72.7Z"/><path class="land" fill-rule="evenodd" d="M93.4,72.1L92.6,71.8L94.0,71.4L93.4,72.1Z"/><path class="land" fill-rule="evenodd" d="M48.4,71.6L47.3,71.1L49.5,70.4L48.4,71.6Z"/><path class="land" fill-rule="evenodd" d="M135.6,65.0L137.4,63.9L135.6,65.0Z"/><path class="land" fill-rule="evenodd" d="M117.2,63.7L115.9,63.7L117.2,63.7Z"/><path class="land" fill-rule="evenodd" d="M118.7,65.0L118.0,64.9L121.7,62.1L122.9,62.5L118.7,65.0Z"/><path class="land" fill-rule="evenodd" d="M20.6,62.0L22.8,62.3L23.5,64.5L20.5,65.3L13.7,62.9L20.6,62.0Z"/><path class="land" fill-rule="evenodd" d="M132.7,62.2L131.8,62.2L132.7,62.2Z"/><path class="land" fill-rule="evenodd" d="M125.9,61.6L127.5,61.8L124.8,62.6L124.3,61.9L125.9,61.6Z"/><path class="land" fill-rule="evenodd" d="M119.2,61.6L118.3,63.0L117.9,62.4L119.2,61.6Z"/><path class="land" fill-rule="evenodd" d="M95.9,62.1L96.5,61.4L95.9,62.1Z"/><path class="land" fill-rule="evenodd" d="M117.7,59.6L116.7,59.5L117.7,59.6Z"/><path class="land" fill-rule="evenodd" d="M0.0,45.4L6.8,46.3L1.7,48.2L0.0,47.1Z"/><path class="land" fill-rule="evenodd" d="M20.7,30.8L22.3,30.3L20.7,30.8Z"/><path class="land" fill-rule="evenodd" d="M580.4,313.8L579.9,313.1L580.6,312.8L580.4,313.8Z"/><path class="land" fill-rule="evenodd" d="M582.7,356.3L583.4,357.3L545.0,357.3L546.8,351.0L544.8,350.5L536.4,351.3L532.6,346.9L522.6,346.5L520.1,343.9L520.6,339.8L518.4,335.4L515.4,334.8L519.0,326.2L522.9,321.8L526.3,320.7L522.9,322.3L524.8,327.2L522.1,331.7L524.3,335.6L526.7,335.1L527.7,332.2L525.4,327.8L525.5,325.5L532.8,322.6L534.4,322.8L534.3,321.7L532.3,322.0L531.8,320.6L533.3,319.1L535.3,322.8L539.6,323.0L541.9,324.5L543.3,328.0L553.3,327.3L555.5,329.3L559.3,330.3L566.8,328.0L563.7,327.3L576.6,326.7L571.1,327.8L572.3,329.1L572.1,330.4L573.1,329.6L574.3,331.8L575.6,330.8L577.4,332.6L577.2,331.7L578.2,331.2L582.4,334.1L580.0,338.1L578.0,338.1L579.7,339.1L585.8,338.0L587.6,339.7L582.8,343.8L583.6,345.8L584.9,346.0L584.6,347.0L580.2,348.9L580.6,350.9L579.2,352.3L582.7,356.3Z"/><path class="land" fill-rule="evenodd" d="M581.3,336.7L581.8,335.6L581.3,336.7Z"/><path class="land" fill-rule="evenodd" d="M582.3,335.3L581.6,335.4L582.3,335.3Z"/><path class="land" fill-rule="evenodd" d="M558.9,325.8L557.8,325.7L558.9,325.8Z"/><path class="land" fill-rule="evenodd" d="M566.1,324.6L565.8,325.9L563.2,325.4L566.1,324.6Z"/><path class="land" fill-rule="evenodd" d="M563.8,284.1L563.1,284.0L563.8,284.1Z"/><path class="land" fill-rule="evenodd" d="M561.2,289.1L562.2,289.3L560.6,289.6L561.2,289.1Z"/><path class="land" fill-rule="evenodd" d="M561.8,286.1L561.1,286.2L561.8,286.1Z"/><path class="land" fill-rule="evenodd" d="M560.8,286.2L559.9,286.0L560.8,286.2Z"/></g><g id="rivers"><path class="river part-shape" data-part="に" d="M279.1,57.0L286.2,58.4L295.6,56.9L300.2,57.4"/><path class="river part-shape" data-part="に" d="M279.1,57.0L276.6,56.2L273.6,57.1L267.9,57.0L263.1,55.6L262.9,54.4L248.6,51.7L249.6,49.5L249.0,47.4L244.9,43.2L243.3,42.7L240.3,38.9L220.2,33.7L218.1,31.8L220.4,30.3L212.7,27.4L211.3,25.1L207.1,24.1L197.2,25.4L192.6,23.9L189.6,20.9L191.5,19.0L190.7,17.6"/><path class="river part-shape" data-part="に" d="M190.7,17.6L187.5,16.2"/><path class="river part-shape" data-part="に" d="M190.7,17.6L188.7,15.9L191.1,14.7"/><path class="river part-shape" data-part="に" d="M187.5,16.2L183.3,16.6"/><path class="river part-shape" data-part="に" d="M187.5,16.2L185.3,14.3"/><path class="river part-shape" data-part="ぬ" d="M187.1,55.6L186.9,53.8L179.7,52.7L174.1,49.2L163.1,47.9L161.3,44.8L161.5,43.0L162.8,42.4L162.2,41.5L157.6,40.5L152.5,36.9L149.3,35.7L140.9,35.1L138.2,33.8L138.4,32.5L134.0,29.9L128.9,28.7"/><path class="river part-shape" data-part="ぬ" d="M36.0,53.2L35.3,54.2L27.6,54.7L28.0,55.5L25.4,57.2"/><path class="river part-shape" data-part="ぬ" d="M36.0,53.2L32.5,52.6L32.4,50.5L28.9,49.6"/><path class="river part-shape" data-part="ぬ" d="M128.9,28.7L107.1,32.6L106.4,32.9L107.6,33.3L107.0,33.9L95.7,36.5L90.6,36.3L70.8,39.1L64.5,38.1L60.4,40.8L60.1,42.4L57.6,43.5L53.2,48.4L52.4,50.2L54.5,52.7L47.6,53.8L43.1,55.6L41.3,53.7L36.0,53.2"/><path class="river part-shape" data-part="ぬ" d="M128.9,28.7L128.9,28.7"/><path class="river part-shape" data-part="ぬ" d="M128.9,28.7L128.9,28.7"/><path class="river part-shape" data-part="ね" d="M508.2,144.0L502.4,146.7"/><path class="river part-shape" data-part="の" d="M376.7,149.4L377.0,151.9L381.0,154.3"/><path class="river part-shape" data-part="の" d="M311.9,136.7L310.9,135.1"/><path class="river part-shape" data-part="の" d="M369.2,134.9L370.3,135.9L370.1,137.6L371.7,142.3L371.0,144.8L369.6,145.2L371.2,147.0"/><path class="river part-shape" data-part="の" d="M365.9,130.6L361.8,130.1L358.0,127.3L353.2,127.9"/><path class="river part-shape" data-part="の" d="M339.2,127.9L336.6,129.6L331.3,130.7L329.6,130.1"/><path class="river part-shape" data-part="の" d="M381.0,154.3L384.2,155.7L388.1,155.4L392.3,157.3L395.2,163.6L395.6,167.1L398.1,170.6L400.4,171.4L399.7,173.3L401.2,175.0L405.2,175.2L410.1,174.1L411.2,175.8L415.3,178.2L419.0,177.6L422.0,178.2L426.0,177.0"/><path class="river part-shape" data-part="の" d="M371.2,147.0L376.7,149.4"/><path class="river part-shape" data-part="の" d="M310.9,135.1L309.6,132.8L319.1,127.8L320.6,129.3L325.7,129.1L329.6,130.1"/><path class="river part-shape" data-part="の" d="M365.9,130.6L366.1,131.5L368.1,132.1L369.2,134.9"/><path class="river part-shape" data-part="の" d="M339.2,127.9L348.0,127.2L353.2,127.9"/><path class="river part-shape" data-part="は" d="M420.9,203.8L416.1,201.2L412.8,196.7L405.6,194.7L401.8,195.7L390.7,189.1L389.4,189.4L389.1,188.5L390.2,187.8L387.5,183.0L380.6,179.5L374.9,183.0L359.7,180.7L354.2,181.1L345.2,178.9L342.2,179.1L339.3,174.8"/><path class="river part-shape" data-part="ひ" d="M443.2,199.6L440.5,198.3L438.9,198.5"/><path class="river part-shape" data-part="ひ" d="M437.5,192.3L435.8,186.6"/><path class="river part-shape" data-part="ひ" d="M438.9,198.5L435.7,196.7L437.4,195.1L437.5,192.3"/><path class="river part-shape" data-part="ひ" d="M458.8,192.7L455.2,193.1L452.4,196.6L449.9,197.1L446.4,200.5L443.2,199.6"/><path class="river part-shape" data-part="ひ" d="M435.8,186.6L434.8,186.2"/><path class="river part-shape" data-part="ふ" d="M376.2,239.7L377.7,242.3"/><path class="river part-shape" data-part="ふ" d="M367.8,226.9L366.4,226.0"/><path class="river part-shape" data-part="ふ" d="M334.4,208.5L334.5,207.4"/><path class="river part-shape" data-part="ふ" d="M335.0,207.1L335.1,206.1"/><path class="river part-shape" data-part="ふ" d="M358.5,275.7L358.6,276.3"/><path class="river part-shape" data-part="ふ" d="M353.6,272.3L354.2,272.2"/><path class="river part-shape" data-part="ふ" d="M346.1,267.6L346.5,267.8"/><path class="river part-shape" data-part="ふ" d="M377.7,242.3L382.5,244.7L387.3,246.0L388.6,245.5"/><path class="river part-shape" data-part="ふ" d="M367.8,226.9L371.8,232.9L376.0,237.1L376.2,239.7"/><path class="river part-shape" data-part="ふ" d="M338.3,214.3L347.1,220.9L349.9,226.3L356.0,229.3L360.8,224.7L365.1,225.0L366.4,226.0"/><path class="river part-shape" data-part="ふ" d="M334.4,208.5L338.3,214.3"/><path class="river part-shape" data-part="ふ" d="M335.0,207.1L334.5,207.4"/><path class="river part-shape" data-part="ふ" d="M333.7,182.5L337.0,182.4L342.0,183.9L342.9,187.6L342.6,190.2L337.6,196.9L336.7,203.1L335.1,206.1"/><path class="river part-shape" data-part="ふ" d="M358.5,275.7L356.7,274.8L355.0,271.7L354.2,272.1"/><path class="river part-shape" data-part="ふ" d="M353.6,272.3L351.6,270.9"/><path class="river part-shape" data-part="ふ" d="M351.6,270.9L350.2,270.6L348.1,267.6L346.5,267.9"/><path class="river part-shape" data-part="ふ" d="M346.1,267.6L344.2,268.4"/><path class="river part-shape" data-part="へ" d="M296.7,199.8L297.8,201.3"/><path class="river part-shape" data-part="へ" d="M295.5,195.5L295.2,194.0"/><path class="river part-shape" data-part="へ" d="M294.7,191.9L296.0,191.2L297.7,191.8L298.6,191.0L300.6,192.9"/><path class="river part-shape" data-part="へ" d="M318.0,181.9L315.1,185.8L312.1,187.0"/><path class="river part-shape" data-part="へ" d="M342.3,169.7L342.1,169.8"/><path class="river part-shape" data-part="へ" d="M294.8,209.5L292.3,212.7L293.7,213.9"/><path class="river part-shape" data-part="へ" d="M297.8,201.3L294.9,205.8L296.2,208.5L294.8,209.5"/><path class="river part-shape" data-part="へ" d="M295.5,195.5L295.4,197.8L296.6,199.8"/><path class="river part-shape" data-part="へ" d="M294.7,191.9L295.2,194.0"/><path class="river part-shape" data-part="へ" d="M304.7,190.5L302.4,191.7L302.1,193.3L300.6,192.9"/><path class="river part-shape" data-part="へ" d="M312.1,187.0L310.1,189.4L309.9,191.6L306.9,190.8L306.5,189.9L304.6,190.5"/><path class="river part-shape" data-part="へ" d="M342.1,169.8L336.7,171.2L334.7,172.8L331.5,173.0L328.4,175.5L325.6,174.9L320.5,180.5L318.0,181.9"/><path class="river part-shape" data-part="へ" d="M342.2,168.5L342.3,169.7"/><path class="river part-shape" data-part="ま" d="M276.9,124.5L276.4,126.8"/><path class="river part-shape" data-part="ま" d="M276.8,118.4L276.8,120.1L277.8,120.8"/><path class="river part-shape" data-part="ま" d="M277.8,113.7L278.0,116.8"/><path class="river part-shape" data-part="ま" d="M279.9,108.5L278.0,107.4"/><path class="river part-shape" data-part="ま" d="M274.5,106.1L275.4,106.2"/><path class="river part-shape" data-part="ま" d="M255.2,140.8L252.5,140.7L251.0,138.1L249.5,137.8"/><path class="river part-shape" data-part="ま" d="M276.4,126.8L275.3,128.8L271.7,127.6L267.4,127.7L265.3,130.3L267.0,134.5L269.8,135.0L272.2,138.5L264.8,140.1L255.2,140.8"/><path class="river part-shape" data-part="ま" d="M277.8,120.8L278.8,120.9L279.2,122.4L276.9,124.5"/><path class="river part-shape" data-part="ま" d="M278.0,116.8L276.8,118.4"/><path class="river part-shape" data-part="ま" d="M288.7,115.8L286.1,112.6L279.9,108.5"/><path class="river part-shape" data-part="ま" d="M278.0,107.4L275.4,106.2"/><path class="river part-shape" data-part="ま" d="M274.5,106.1L273.7,108.3L277.8,113.7"/><path class="river part-shape" data-part="や" d="M403.6,131.2L404.8,131.0"/><path class="river part-shape" data-part="や" d="M402.6,130.9L401.9,131.0"/><path class="river part-shape" data-part="や" d="M430.0,229.4L431.9,228.3"/><path class="river part-shape" data-part="や" d="M430.6,228.5L430.5,228.4"/><path class="river part-shape" data-part="や" d="M430.5,228.4L431.0,227.5"/><path class="river part-shape" data-part="や" d="M430.5,228.4L426.8,225.7L427.0,224.5L420.7,222.9L417.8,218.8L419.3,214.5L421.7,211.9L420.5,210.0L420.2,204.4L425.9,196.7L429.1,189.1L430.9,188.7L431.3,187.7L429.4,185.5L429.2,183.2L424.7,180.0L426.0,176.8L423.1,176.1L418.7,170.1L419.2,167.8L421.6,165.3L421.1,163.4L424.3,162.3L425.9,159.7L421.0,155.8L419.3,149.4L404.6,141.4L403.2,137.6L405.0,135.8L408.1,134.8L409.0,133.2L404.8,131.0"/><path class="river part-shape" data-part="や" d="M399.9,132.5L400.7,130.9L401.9,131.0"/><path class="river part-shape" data-part="や" d="M402.6,130.9L403.6,131.2"/></g><g id="markers"><g class="marker m-grid" data-part="あ" data-kind="緯度" transform="translate(224.0,170.7)"><circle class="pulse-ring" r="6"/><circle class="hit" r="16"/><rect class="dot" x="-2.6" y="-2.6" width="5.2" height="5.2"/></g><g class="marker m-grid" data-part="い" data-kind="経度" transform="translate(160.0,64.0)"><circle class="pulse-ring" r="6"/><circle class="hit" r="16"/><rect class="dot" x="-2.6" y="-2.6" width="5.2" height="5.2"/></g><g class="marker m-grid" data-part="う" data-kind="経度" transform="translate(373.3,320.0)"><circle class="pulse-ring" r="6"/><circle class="hit" r="16"/><rect class="dot" x="-2.6" y="-2.6" width="5.2" height="5.2"/></g><g class="marker m-sea" data-part="え" data-kind="湾" transform="translate(453.3,64.0)"><circle class="pulse-ring" r="6"/><circle class="hit" r="16"/><circle class="dot" r="5"/></g><g class="marker m-sea" data-part="お" data-kind="湾" transform="translate(576.0,128.0)"><circle class="pulse-ring" r="6"/><circle class="hit" r="16"/><circle class="dot" r="5"/></g><g class="marker m-sea" data-part="か" data-kind="海" transform="translate(586.7,224.0)"><circle class="pulse-ring" r="6"/><circle class="hit" r="16"/><circle class="dot" r="5"/></g><g class="marker m-sea" data-part="き" data-kind="湾" transform="translate(426.7,250.7)"><circle class="pulse-ring" r="6"/><circle class="hit" r="16"/><circle class="dot" r="5"/></g><g class="marker m-sea" data-part="く" data-kind="海" transform="translate(506.7,304.0)"><circle class="pulse-ring" r="6"/><circle class="hit" r="16"/><circle class="dot" r="5"/></g><g class="marker m-sea" data-part="け" data-kind="海" transform="translate(266.7,5.3)"><circle class="pulse-ring" r="6"/><circle class="hit" r="16"/><circle class="dot" r="5"/></g><g class="marker m-strait" data-part="こ" data-kind="海峡" transform="translate(10.7,34.7)"><circle class="pulse-ring" r="6"/><circle class="hit" r="16"/><rect class="dot" x="-3.3" y="-3.3" width="6.6" height="6.6" transform="rotate(45)"/></g><g class="marker m-sea" data-part="さ" data-kind="海" transform="translate(133.3,197.3)"><circle class="pulse-ring" r="6"/><circle class="hit" r="16"/><circle class="dot" r="5"/></g><g class="marker m-strait" data-part="し" data-kind="運河" transform="translate(482.1,335.5)"><circle class="pulse-ring" r="6"/><circle class="hit" r="16"/><rect class="dot" x="-3.3" y="-3.3" width="6.6" height="6.6" transform="rotate(45)"/></g><g class="marker m-island" data-part="す" data-kind="島" transform="translate(682.7,10.7)"><circle class="pulse-ring" r="6"/><circle class="hit" r="16"/><circle class="dot" r="4"/></g><g class="marker m-island" data-part="せ" data-kind="島" transform="translate(608.0,125.3)"><circle class="pulse-ring" r="6"/><circle class="hit" r="16"/><circle class="dot" r="4"/></g><g class="marker m-island" data-part="そ" data-kind="島" transform="translate(485.3,267.2)"><circle class="pulse-ring" r="6"/><circle class="hit" r="16"/><circle class="dot" r="4"/></g><g class="marker m-land" data-part="た" data-kind="半島" transform="translate(472.0,232.0)"><circle class="pulse-ring" r="6"/><circle class="hit" r="16"/><circle class="dot" r="4"/></g><g class="marker m-land" data-part="ち" data-kind="半島" transform="translate(304.0,237.3)"><circle class="pulse-ring" r="6"/><circle class="hit" r="16"/><circle class="dot" r="4"/></g><g class="marker m-island" data-part="つ" data-kind="島" transform="translate(237.3,118.9)"><circle class="pulse-ring" r="6"/><circle class="hit" r="16"/><circle class="dot" r="4"/></g><g class="marker m-land" data-part="て" data-kind="半島" transform="translate(432.0,280.0)"><circle class="pulse-ring" r="6"/><circle class="hit" r="16"/><circle class="dot" r="4"/></g><g class="marker m-mountain" data-part="と" data-kind="山脈" transform="translate(298.7,117.3)"><circle class="pulse-ring" r="6"/><circle class="hit" r="16"/><polygon class="dot" points="0,-5 4.3,3 -4.3,3"/></g><g class="marker m-mountain" data-part="な" data-kind="山脈" transform="translate(474.7,192.0)"><circle class="pulse-ring" r="6"/><circle class="hit" r="16"/><polygon class="dot" points="0,-5 4.3,3 -4.3,3"/></g><g class="marker m-river" data-part="に" data-kind="川" transform="translate(240.0,32.0)"><circle class="pulse-ring" r="6"/><circle class="hit" r="16"/><circle class="dot" r="3"/></g><g class="marker m-river" data-part="ぬ" data-kind="川" transform="translate(106.7,42.7)"><circle class="pulse-ring" r="6"/><circle class="hit" r="16"/><circle class="dot" r="3"/></g><g class="marker m-river" data-part="ね" data-kind="川" transform="translate(528.0,133.3)"><circle class="pulse-ring" r="6"/><circle class="hit" r="16"/><circle class="dot" r="3"/></g><g class="marker m-river" data-part="の" data-kind="川" transform="translate(373.3,133.3)"><circle class="pulse-ring" r="6"/><circle class="hit" r="16"/><circle class="dot" r="3"/></g><g class="marker m-river" data-part="は" data-kind="川" transform="translate(389.3,192.0)"><circle class="pulse-ring" r="6"/><circle class="hit" r="16"/><circle class="dot" r="3"/></g><g class="marker m-river" data-part="ひ" data-kind="川" transform="translate(442.7,197.3)"><circle class="pulse-ring" r="6"/><circle class="hit" r="16"/><circle class="dot" r="3"/></g><g class="marker m-river" data-part="ふ" data-kind="川" transform="translate(362.7,229.3)"><circle class="pulse-ring" r="6"/><circle class="hit" r="16"/><circle class="dot" r="3"/></g><g class="marker m-river" data-part="へ" data-kind="川" transform="translate(301.3,192.0)"><circle class="pulse-ring" r="6"/><circle class="hit" r="16"/><circle class="dot" r="3"/></g><g class="marker m-lake" data-part="ほ" data-kind="湖" transform="translate(306.7,164.3)"><circle class="pulse-ring" r="6"/><circle class="hit" r="16"/><circle class="dot" r="4"/></g><g class="marker m-river" data-part="ま" data-kind="川" transform="translate(266.7,136.0)"><circle class="pulse-ring" r="6"/><circle class="hit" r="16"/><circle class="dot" r="3"/></g><g class="marker m-lake" data-part="み" data-kind="湖" transform="translate(442.7,149.3)"><circle class="pulse-ring" r="6"/><circle class="hit" r="16"/><circle class="dot" r="4"/></g><g class="marker m-lake" data-part="む" data-kind="湖" transform="translate(442.7,152.0)"><circle class="pulse-ring" r="6"/><circle class="hit" r="16"/><circle class="dot" r="4"/></g><g class="marker m-lake" data-part="め" data-kind="湖" transform="translate(473.6,158.9)"><circle class="pulse-ring" r="6"/><circle class="hit" r="16"/><circle class="dot" r="4"/></g><g class="marker m-lake" data-part="も" data-kind="湖" transform="translate(491.7,150.9)"><circle class="pulse-ring" r="6"/><circle class="hit" r="16"/><circle class="dot" r="4"/></g><g class="marker m-river" data-part="や" data-kind="川" transform="translate(421.3,213.3)"><circle class="pulse-ring" r="6"/><circle class="hit" r="16"/><circle class="dot" r="3"/></g><g class="marker m-lake" data-part="ゆ" data-kind="湖" transform="translate(387.7,104.0)"><circle class="pulse-ring" r="6"/><circle class="hit" r="16"/><circle class="dot" r="4"/></g><g class="marker m-land" data-part="よ" data-kind="高原" transform="translate(533.3,96.0)"><circle class="pulse-ring" r="6"/><circle class="hit" r="16"/><circle class="dot" r="4"/></g><g class="marker m-land" data-part="ら" data-kind="半島" transform="translate(522.7,85.3)"><circle class="pulse-ring" r="6"/><circle class="hit" r="16"/><circle class="dot" r="4"/></g><g class="marker m-land" data-part="れ" data-kind="平原" transform="translate(357.3,154.7)"><circle class="pulse-ring" r="6"/><circle class="hit" r="16"/><circle class="dot" r="4"/></g><g class="marker m-land" data-part="ろ" data-kind="平原" transform="translate(416.0,160.0)"><circle class="pulse-ring" r="6"/><circle class="hit" r="16"/><circle class="dot" r="4"/></g><g class="marker m-city" data-part="1" data-kind="都市" transform="translate(70.5,3.8)"><circle class="pulse-ring" r="6"/><circle class="hit" r="16"/><circle class="dot" r="4"/></g><g class="marker m-city" data-part="2" data-kind="都市" transform="translate(107.2,57.5)"><circle class="pulse-ring" r="6"/><circle class="hit" r="16"/><circle class="dot" r="4"/></g><g class="marker m-city" data-part="3" data-kind="都市" transform="translate(250.0,121.2)"><circle class="pulse-ring" r="6"/><circle class="hit" r="16"/><circle class="dot" r="4"/></g><g class="marker m-city" data-part="4" data-kind="都市" transform="translate(388.6,117.9)"><circle class="pulse-ring" r="6"/><circle class="hit" r="16"/><circle class="dot" r="4"/></g><g class="marker m-city" data-part="5" data-kind="都市" transform="translate(514.3,141.3)"><circle class="pulse-ring" r="6"/><circle class="hit" r="16"/><circle class="dot" r="4"/></g><g class="marker m-city" data-part="6" data-kind="都市" transform="translate(502.9,141.8)"><circle class="pulse-ring" r="6"/><circle class="hit" r="16"/><circle class="dot" r="4"/></g><g class="marker m-city" data-part="7" data-kind="都市" transform="translate(483.3,151.2)"><circle class="pulse-ring" r="6"/><circle class="hit" r="16"/><circle class="dot" r="4"/></g><g class="marker m-city" data-part="8" data-kind="都市" transform="translate(527.7,158.1)"><circle class="pulse-ring" r="6"/><circle class="hit" r="16"/><circle class="dot" r="4"/></g><g class="marker m-city" data-part="9" data-kind="都市" transform="translate(511.9,166.9)"><circle class="pulse-ring" r="6"/><circle class="hit" r="16"/><circle class="dot" r="4"/></g><g class="marker m-city" data-part="10" data-kind="都市" transform="translate(495.8,176.5)"><circle class="pulse-ring" r="6"/><circle class="hit" r="16"/><circle class="dot" r="4"/></g><g class="marker m-city" data-part="11" data-kind="都市" transform="translate(480.0,168.3)"><circle class="pulse-ring" r="6"/><circle class="hit" r="16"/><circle class="dot" r="4"/></g><g class="marker m-city" data-part="12" data-kind="都市" transform="translate(463.7,158.2)"><circle class="pulse-ring" r="6"/><circle class="hit" r="16"/><circle class="dot" r="4"/></g><g class="marker m-city" data-part="13" data-kind="都市" transform="translate(439.3,160.6)"><circle class="pulse-ring" r="6"/><circle class="hit" r="16"/><circle class="dot" r="4"/></g><g class="marker m-city" data-part="14" data-kind="都市" transform="translate(425.6,178.0)"><circle class="pulse-ring" r="6"/><circle class="hit" r="16"/><circle class="dot" r="4"/></g><g class="marker m-city" data-part="15" data-kind="都市" transform="translate(390.4,209.2)"><circle class="pulse-ring" r="6"/><circle class="hit" r="16"/><circle class="dot" r="4"/></g><g class="marker m-city" data-part="16" data-kind="都市" transform="translate(456.6,204.0)"><circle class="pulse-ring" r="6"/><circle class="hit" r="16"/><circle class="dot" r="4"/></g><g class="marker m-city" data-part="17" data-kind="都市" transform="translate(426.3,224.3)"><circle class="pulse-ring" r="6"/><circle class="hit" r="16"/><circle class="dot" r="4"/></g><g class="marker m-city" data-part="18" data-kind="都市" transform="translate(479.0,246.6)"><circle class="pulse-ring" r="6"/><circle class="hit" r="16"/><circle class="dot" r="4"/></g><g class="marker m-city" data-part="19" data-kind="都市" transform="translate(398.0,225.3)"><circle class="pulse-ring" r="6"/><circle class="hit" r="16"/><circle class="dot" r="4"/></g><g class="marker m-city" data-part="20" data-kind="都市" transform="translate(381.4,227.1)"><circle class="pulse-ring" r="6"/><circle class="hit" r="16"/><circle class="dot" r="4"/></g><g class="marker m-city" data-part="21" data-kind="都市" transform="translate(346.7,172.1)"><circle class="pulse-ring" r="6"/><circle class="hit" r="16"/><circle class="dot" r="4"/></g><g class="marker m-city" data-part="22" data-kind="都市" transform="translate(254.2,130.1)"><circle class="pulse-ring" r="6"/><circle class="hit" r="16"/><circle class="dot" r="4"/></g><g class="marker m-city" data-part="23" data-kind="都市" transform="translate(253.8,182.6)"><circle class="pulse-ring" r="6"/><circle class="hit" r="16"/><circle class="dot" r="4"/></g><g class="marker m-city" data-part="24" data-kind="都市" transform="translate(276.1,202.4)"><circle class="pulse-ring" r="6"/><circle class="hit" r="16"/><circle class="dot" r="4"/></g><g class="marker m-city" data-part="25" data-kind="都市" transform="translate(281.8,209.5)"><circle class="pulse-ring" r="6"/><circle class="hit" r="16"/><circle class="dot" r="4"/></g><g class="marker m-city" data-part="26" data-kind="都市" transform="translate(292.6,191.1)"><circle class="pulse-ring" r="6"/><circle class="hit" r="16"/><circle class="dot" r="4"/></g><g class="marker m-city" data-part="27" data-kind="都市" transform="translate(309.0,205.6)"><circle class="pulse-ring" r="6"/><circle class="hit" r="16"/><circle class="dot" r="4"/></g><g class="marker m-city" data-part="28" data-kind="都市" transform="translate(338.7,214.6)"><circle class="pulse-ring" r="6"/><circle class="hit" r="16"/><circle class="dot" r="4"/></g><g class="marker m-city" data-part="29" data-kind="都市" transform="translate(378.0,280.4)"><circle class="pulse-ring" r="6"/><circle class="hit" r="16"/><circle class="dot" r="4"/></g><g class="marker m-city" data-part="30" data-kind="都市" transform="translate(467.3,260.7)"><circle class="pulse-ring" r="6"/><circle class="hit" r="16"/><circle class="dot" r="4"/></g><g class="marker m-city" data-part="31" data-kind="都市" transform="translate(497.1,288.1)"><circle class="pulse-ring" r="6"/><circle class="hit" r="16"/><circle class="dot" r="4"/></g></g></svg>