<svg xmlns="http://www.w3.org/2000/svg" viewBox="0 0 760 194" data-region="russia"><style>.land{fill:#eef1ec;stroke:#94a3ae;stroke-width:.7;vector-effect:non-scaling-stroke}.river{fill:none;stroke:#8db8da;stroke-width:1.3;stroke-linecap:round;vector-effect:non-scaling-stroke}.grid{stroke:#d3dae1;stroke-width:.5}.grid-q{stroke:#9aa7b5;stroke-width:1.1;stroke-dasharray:6 4}.marker .hit{fill:#000;fill-opacity:0;pointer-events:all}.marker .dot{fill:#3a3a3c;stroke:#fff;stroke-width:1.2}.m-city .dot{fill:#1c1c1e}</style><g id="grid"><line class="grid" x1="8.8" y1="0" x2="8.8" y2="194"/><line class="grid" x1="30.9" y1="0" x2="30.9" y2="194"/><line class="grid" x1="53.0" y1="0" x2="53.0" y2="194"/><line class="grid" x1="75.1" y1="0" x2="75.1" y2="194"/><line class="grid" x1="97.2" y1="0" x2="97.2" y2="194"/><line class="grid" x1="119.3" y1="0" x2="119.3" y2="194"/><line class="grid" x1="141.4" y1="0" x2="141.4" y2="194"/><line class="grid" x1="163.5" y1="0" x2="163.5" y2="194"/><line class="grid" x1="185.6" y1="0" x2="185.6" y2="194"/><line class="grid" x1="207.7" y1="0" x2="207.7" y2="194"/><line class="grid" x1="229.8" y1="0" x2="229.8" y2="194"/><line class="grid" x1="251.9" y1="0" x2="251.9" y2="194"/><line class="grid" x1="274.0" y1="0" x2="274.0" y2="194"/><line class="grid" x1="296.0" y1="0" x2="296.0" y2="194"/><line class="grid" x1="318.1" y1="0" x2="318.1" y2="194"/><line class="grid" x1="340.2" y1="0" x2="340.2" y2="194"/><line class="grid" x1="362.3" y1="0" x2="362.3" y2="194"/><line class="grid" x1="384.4" y1="0" x2="384.4" y2="194"/><line class="grid" x1="406.5" y1="0" x2="406.5" y2="194"/><line class="grid" x1="428.6" y1="0" x2="428.6" y2="194"/><line class="grid" x1="450.7" y1="0" x2="450.7" y2="194"/><line class="grid" x1="472.8" y1="0" x2="472.8" y2="194"/><line class="grid" x1="494.9" y1="0" x2="494.9" y2="194"/><line class="grid" x1="517.0" y1="0" x2="517.0" y2="194"/><line class="grid" x1="539.1" y1="0" x2="539.1" y2="194"/><line class="grid" x1="561.2" y1="0" x2="561.2" y2="194"/><line class="grid" x1="583.3" y1="0" x2="583.3" y2="194"/><line class="grid" x1="605.3" y1="0" x2="605.3" y2="194"/><line class="grid" x1="627.4" y1="0" x2="627.4" y2="194"/><line class="grid" x1="649.5" y1="0" x2="649.5" y2="194"/><line class="grid" x1="671.6" y1="0" x2="671.6" y2="194"/><line class="grid" x1="693.7" y1="0" x2="693.7" y2="194"/><line class="grid" x1="715.8" y1="0" x2="715.8" y2="194"/><line class="grid" x1="737.9" y1="0" x2="737.9" y2="194"/><line class="grid" x1="760.0" y1="0" x2="760.0" y2="194"/><line class="grid" x1="0" y1="190.0" x2="760" y2="190.0"/><line class="grid" x1="0" y1="167.9" x2="760" y2="167.9"/><line class="grid" x1="0" y1="145.8" x2="760" y2="145.8"/><line class="grid" x1="0" y1="123.7" x2="760" y2="123.7"/><line class="grid" x1="0" y1="101.6" x2="760" y2="101.6"/><line class="grid" x1="0" y1="79.5" x2="760" y2="79.5"/><line class="grid" x1="0" y1="57.4" x2="760" y2="57.4"/><line class="grid" x1="0" y1="35.3" x2="760" y2="35.3"/><line class="grid" x1="0" y1="13.3" x2="760" y2="13.3"/><line class="grid-q part-shape" data-part="あ" x1="0" y1="50.8" x2="760" y2="50.8"/><line class="grid-q part-shape" data-part="い" x1="185.6" y1="0" x2="185.6" y2="194"/><line class="grid-q part-shape" data-part="う" x1="0" y1="123.7" x2="760" y2="123.7"/></g><g id="land"><path class="land" fill-rule="evenodd" d="M249.8,181.0L247.6,181.9L239.7,182.3L235.2,185.0L236.9,189.2L234.0,192.1L234.6,193.9L233.8,194.4L187.8,194.4L188.4,193.1L189.5,193.0L188.8,192.1L190.4,190.6L191.2,187.3L195.8,189.2L197.5,188.9L199.1,188.0L199.4,186.3L203.3,185.5L205.5,184.1L206.9,180.6L210.1,180.1L211.1,178.6L219.6,180.2L221.2,181.4L225.0,179.7L226.5,180.7L227.5,178.7L230.6,178.6L230.7,177.1L233.7,174.7L235.3,175.4L235.4,177.1L236.8,177.1L236.1,180.6L237.1,182.5L244.7,179.1L246.2,179.3L245.9,180.1L249.0,179.3L251.4,180.1L249.1,180.5L249.8,181.0Z"/><path class="land" fill-rule="evenodd" d="M9.1,156.7L11.1,158.3L11.0,162.3L13.4,165.0L9.8,169.4L5.8,166.1L7.0,160.0L5.9,159.6L5.7,158.3L7.3,156.3L9.1,156.7Z"/><path class="land" fill-rule="evenodd" d="M11.5,79.4L10.6,79.4L11.5,79.4Z"/><path class="land" fill-rule="evenodd" d="M7.3,78.7L6.7,78.7L7.3,78.7Z"/><path class="land" fill-rule="evenodd" d="M8.8,78.0L10.0,78.4L7.7,79.1L7.5,78.4L8.8,78.0Z"/><path class="land" fill-rule="evenodd" d="M125.9,172.7L124.2,172.9L122.6,169.8L120.1,169.8L113.4,167.3L113.7,164.7L112.4,163.0L119.3,162.2L121.9,164.2L121.3,165.6L123.6,166.9L121.9,168.0L125.8,169.9L125.9,172.7Z"/><path class="land" fill-rule="evenodd" d="M118.3,169.2L122.8,169.9L124.2,172.9L121.4,172.3L118.3,169.2Z"/><path class="land" fill-rule="evenodd" d="M125.9,172.7L125.8,169.9L121.9,168.0L123.6,166.9L121.3,165.6L121.9,164.2L119.3,162.2L120.5,161.5L126.1,163.1L126.7,162.2L124.5,160.6L125.6,159.6L129.5,162.2L131.6,162.6L135.1,159.8L139.0,164.4L143.0,166.7L139.4,167.0L138.6,170.8L136.3,173.0L136.4,174.8L135.2,174.9L132.5,173.0L133.8,172.2L133.0,171.3L134.0,170.6L132.5,169.3L125.9,172.7Z"/><path class="land" fill-rule="evenodd" d="M46.8,151.4L46.2,152.9L44.8,152.9L43.7,155.8L41.9,157.0L44.2,159.2L38.1,159.2L35.8,160.3L35.9,161.8L35.0,162.1L32.0,162.4L28.7,161.0L21.7,162.0L22.1,160.2L19.2,157.7L20.0,157.1L19.7,155.3L22.0,153.8L19.3,151.2L20.8,149.2L22.2,149.9L21.7,151.0L33.1,151.7L40.2,149.5L46.8,151.4Z"/><path class="land" fill-rule="evenodd" d="M4.5,146.4L6.0,146.3L4.9,148.6L7.0,150.0L5.5,150.4L6.6,151.8L4.2,152.3L4.5,153.4L2.0,154.8L1.9,156.6L0.0,155.7L0.0,145.2L4.5,146.4Z"/><path class="land" fill-rule="evenodd" d="M44.8,96.6L50.3,97.5L50.7,98.6L54.1,97.9L57.0,99.1L57.3,101.4L56.6,102.6L61.1,105.9L60.8,106.9L63.8,107.4L65.0,108.6L62.5,110.1L59.3,109.6L58.6,110.4L59.9,111.5L60.8,114.4L56.4,115.3L55.4,118.1L53.7,117.2L50.1,117.6L49.1,116.5L47.4,117.4L45.0,116.6L42.9,117.2L40.4,116.0L34.4,115.2L28.1,115.5L24.8,117.0L25.0,114.7L22.9,113.6L26.1,111.5L24.2,106.3L27.9,106.5L33.0,104.8L34.2,105.4L33.3,104.6L34.7,102.0L38.8,100.4L37.4,100.1L38.0,98.7L42.3,98.1L44.8,96.6Z"/><path class="land" fill-rule="evenodd" d="M249.8,181.1L249.1,180.5L252.4,179.5L251.4,178.5L251.0,174.7L246.4,173.7L245.8,170.3L247.0,169.8L247.4,167.7L254.2,165.1L254.9,166.6L257.7,166.4L260.3,163.4L265.7,163.2L268.4,161.0L275.0,158.9L274.7,156.1L276.3,155.2L275.7,154.5L277.4,153.9L275.5,149.8L276.1,147.1L273.4,146.3L281.4,144.3L285.1,145.3L285.5,143.9L284.2,143.2L287.3,136.2L295.1,137.7L298.2,136.7L298.9,135.9L298.4,132.9L299.1,131.2L302.9,130.2L304.4,127.7L308.5,127.4L308.2,128.7L309.6,129.4L309.2,130.1L313.9,132.5L319.5,134.0L322.7,138.9L322.6,141.2L321.1,143.5L322.0,144.9L333.7,146.1L339.0,148.7L341.8,149.0L341.7,150.1L346.4,155.9L368.9,156.7L371.9,158.4L378.7,160.2L382.2,159.6L382.2,160.6L384.3,160.9L392.2,157.8L403.6,157.1L408.3,155.7L411.0,153.1L415.1,151.5L412.7,148.6L414.9,145.5L422.4,146.9L426.7,144.1L431.6,143.8L433.9,142.5L435.5,140.1L438.9,139.8L439.4,138.8L450.1,138.4L449.4,136.3L444.1,132.6L440.8,132.6L439.0,134.1L436.4,133.1L432.6,133.9L430.9,132.0L432.1,131.5L436.0,124.5L441.3,125.9L447.4,123.4L447.8,122.5L447.0,121.9L451.0,116.6L454.0,114.5L453.6,112.4L450.9,111.7L455.1,109.2L466.6,108.1L475.7,110.3L478.7,113.3L483.1,122.2L484.2,122.8L484.1,124.6L492.7,126.4L497.3,128.8L499.3,133.9L505.8,133.8L508.2,132.3L513.9,130.9L515.6,131.6L515.1,132.5L515.9,133.8L513.3,135.6L511.9,140.3L509.0,143.6L508.6,145.2L503.1,144.4L499.2,146.5L500.4,153.0L499.6,155.1L496.8,155.9L497.2,156.7L494.4,154.7L493.5,157.1L491.9,157.2L490.1,158.9L486.2,159.1L487.3,160.8L486.7,161.8L480.4,160.3L477.2,163.9L472.3,165.9L469.6,168.2L463.2,169.7L455.8,173.5L455.6,172.7L458.1,171.8L458.7,170.6L456.3,170.6L456.3,169.9L460.7,165.7L458.8,163.6L455.9,163.9L452.8,166.9L448.0,169.0L446.2,171.5L440.9,171.7L439.9,173.7L440.3,174.9L446.0,176.6L446.7,178.1L446.1,179.7L447.5,180.6L449.6,180.5L451.8,178.2L454.0,177.5L457.9,179.1L462.5,179.4L461.0,181.9L459.2,181.3L454.3,182.8L454.7,183.6L453.5,185.0L451.5,184.7L452.0,185.7L447.2,189.9L447.2,191.1L451.6,193.0L452.4,194.4L268.3,194.4L269.4,193.1L266.4,191.5L265.3,187.9L261.1,187.6L258.7,186.1L257.1,186.4L255.9,185.4L255.6,182.7L249.8,181.1Z"/><path class="land" fill-rule="evenodd" d="M70.7,189.7L65.0,189.2L66.0,188.3L69.0,188.4L73.2,187.1L70.4,188.7L70.7,189.7Z"/><path class="land" fill-rule="evenodd" d="M65.0,189.2L70.9,190.1L66.0,191.9L63.3,190.2L65.0,189.2Z"/><path class="land" fill-rule="evenodd" d="M0.0,123.7L2.5,124.3L3.7,125.9L0.0,128.0Z"/><path class="land" fill-rule="evenodd" d="M20.4,85.6L23.5,86.4L17.7,88.7L18.5,87.7L17.2,87.2L17.1,86.2L20.4,85.6Z"/><path class="land" fill-rule="evenodd" d="M23.6,85.9L22.4,85.7L23.6,85.9Z"/><path class="land" fill-rule="evenodd" d="M21.8,84.7L20.1,85.3L17.9,84.2L20.5,83.6L21.8,84.7Z"/><path class="land" fill-rule="evenodd" d="M44.2,81.8L44.9,82.3L41.7,84.9L43.2,88.9L41.3,90.5L37.4,90.4L32.2,88.2L27.9,88.9L28.8,86.8L25.5,86.8L24.3,85.5L25.1,84.9L24.0,84.3L24.3,83.1L33.2,81.1L44.2,81.8Z"/><path class="land" fill-rule="evenodd" d="M16.0,79.1L15.4,79.0L16.0,79.1Z"/><path class="land" fill-rule="evenodd" d="M16.9,78.9L16.3,79.0L16.9,78.9Z"/><path class="land" fill-rule="evenodd" d="M18.4,77.9L19.3,78.8L18.4,77.9Z"/><path class="land" fill-rule="evenodd" d="M17.6,78.0L16.9,77.5L17.6,78.0Z"/><path class="land" fill-rule="evenodd" d="M15.2,77.2L14.2,76.9L15.2,77.2Z"/><path class="land" fill-rule="evenodd" d="M14.2,65.2L15.1,65.2L13.6,65.1L14.2,65.2Z"/><path class="land" fill-rule="evenodd" d="M30.3,57.5L29.1,57.3L30.9,57.3L30.3,57.5Z"/><path class="land" fill-rule="evenodd" d="M48.5,39.7L46.0,40.2L47.6,40.5L46.3,41.8L46.7,42.6L53.0,45.7L48.9,49.1L53.4,54.0L51.8,54.7L51.3,56.3L52.3,56.8L51.3,57.6L53.5,58.6L53.0,59.5L55.3,61.5L53.0,63.0L59.7,66.5L58.7,68.2L42.7,77.3L37.7,77.7L37.9,76.8L34.3,78.4L22.2,80.3L23.0,79.4L21.7,78.6L19.7,79.4L20.3,77.9L15.2,76.9L14.8,75.3L15.9,72.5L14.4,70.7L13.9,67.4L16.1,66.1L15.7,65.4L19.1,64.9L20.0,63.4L24.7,61.7L29.0,58.3L32.2,58.1L32.5,55.3L29.5,54.5L29.3,53.6L27.2,53.9L25.3,52.1L26.5,49.4L24.9,48.0L25.3,46.7L24.1,46.6L24.9,44.4L11.6,39.6L15.9,38.6L19.5,41.0L25.9,40.6L30.7,41.6L34.2,39.8L35.7,36.7L43.1,35.1L49.2,36.8L50.1,37.7L47.9,39.0L48.5,39.7Z"/><path class="land" fill-rule="evenodd" d="M119.3,162.2L112.4,163.0L109.4,160.9L103.9,161.2L105.0,159.2L103.8,156.2L97.1,152.8L100.1,152.3L104.2,153.7L109.4,153.9L114.1,156.5L118.7,155.7L122.2,156.8L122.1,158.2L125.6,159.6L124.6,160.7L126.7,162.2L125.7,163.2L120.5,161.5L119.3,162.2Z"/><path class="land" fill-rule="evenodd" d="M8.8,169.2L9.9,169.3L10.2,168.0L11.7,167.4L13.4,165.2L13.1,164.2L15.8,164.1L17.6,162.9L28.7,161.0L32.0,162.4L35.0,162.1L35.9,161.8L36.2,160.2L38.0,161.2L35.5,164.7L31.4,163.5L25.5,164.6L25.9,166.1L28.0,167.3L25.3,166.5L26.3,168.1L24.0,166.7L25.1,168.1L23.8,168.0L21.6,166.1L21.7,165.3L20.5,165.7L20.3,167.7L23.5,171.6L21.7,171.0L22.4,172.2L20.2,172.9L26.6,176.1L26.6,178.2L24.3,176.6L22.3,177.3L24.3,179.2L22.8,179.7L20.9,178.8L22.8,183.6L20.8,182.1L19.6,183.5L18.0,181.0L17.2,182.3L15.8,180.8L16.3,179.5L13.8,177.2L16.9,175.3L21.7,176.9L22.8,176.0L19.5,174.8L14.1,175.2L12.2,172.9L13.8,172.2L12.0,172.2L8.8,169.2Z"/><path class="land" fill-rule="evenodd" d="M25.9,187.6L34.2,188.5L34.4,189.5L36.8,188.6L36.1,189.9L30.0,190.3L24.7,188.9L24.6,187.6L25.9,187.6Z"/><path class="land" fill-rule="evenodd" d="M40.5,187.9L40.8,186.4L40.5,187.9Z"/><path class="land" fill-rule="evenodd" d="M22.3,184.7L21.9,183.9L22.3,184.7Z"/><path class="land" fill-rule="evenodd" d="M43.5,185.9L42.9,184.8L45.2,183.7L43.5,185.9Z"/><path class="land" fill-rule="evenodd" d="M37.4,183.0L36.5,183.2L37.4,183.0Z"/><path class="land" fill-rule="evenodd" d="M28.9,182.2L28.0,182.7L28.9,182.2Z"/><path class="land" fill-rule="evenodd" d="M32.6,182.6L32.1,182.2L32.6,182.6Z"/><path class="land" fill-rule="evenodd" d="M39.5,182.4L41.3,181.7L39.5,182.4Z"/><path class="land" fill-rule="evenodd" d="M34.7,182.1L35.6,181.6L34.7,182.1Z"/><path class="land" fill-rule="evenodd" d="M39.9,181.3L39.3,180.8L39.9,181.3Z"/><path class="land" fill-rule="evenodd" d="M32.2,180.9L31.4,181.0L32.2,180.9Z"/><path class="land" fill-rule="evenodd" d="M33.3,181.3L32.5,180.9L33.3,180.3L33.3,181.3Z"/><path class="land" fill-rule="evenodd" d="M35.5,178.8L36.9,178.2L35.5,178.8Z"/><path class="land" fill-rule="evenodd" d="M32.1,178.5L30.9,178.2L32.1,178.5Z"/><path class="land" fill-rule="evenodd" d="M39.0,177.6L40.0,178.0L37.9,178.0L39.0,177.6Z"/><path class="land" fill-rule="evenodd" d="M12.8,177.6L13.2,178.0L12.5,178.2L11.6,177.4L12.8,177.6Z"/><path class="land" fill-rule="evenodd" d="M30.9,177.8L29.6,176.9L30.9,177.8Z"/><path class="land" fill-rule="evenodd" d="M11.5,175.1L12.2,176.4L10.4,175.9L11.5,175.1Z"/><path class="land" fill-rule="evenodd" d="M12.2,175.3L11.6,174.6L12.2,175.3Z"/><path class="land" fill-rule="evenodd" d="M35.8,175.8L34.9,175.7L34.7,174.2L36.1,174.4L35.8,175.8Z"/><path class="land" fill-rule="evenodd" d="M11.9,174.1L11.9,173.0L11.9,174.1Z"/><path class="land" fill-rule="evenodd" d="M29.5,173.2L28.7,172.4L29.5,173.2Z"/><path class="land" fill-rule="evenodd" d="M23.9,172.5L27.1,173.9L29.1,176.7L21.5,172.9L23.9,172.5Z"/><path class="land" fill-rule="evenodd" d="M25.5,171.8L24.7,171.4L25.5,171.8Z"/><path class="land" fill-rule="evenodd" d="M26.0,171.6L26.4,171.1L26.0,171.6Z"/><path class="land" fill-rule="evenodd" d="M37.2,170.9L37.8,172.4L34.7,171.4L37.2,170.9Z"/><path class="land" fill-rule="evenodd" d="M9.2,170.4L7.3,168.9L8.5,168.9L9.2,170.4Z"/><path class="land" fill-rule="evenodd" d="M32.9,168.0L32.5,168.8L31.2,168.6L31.2,167.9L32.9,168.0Z"/><path class="land" fill-rule="evenodd" d="M34.0,166.0L32.9,165.8L34.0,166.0Z"/><path class="land" fill-rule="evenodd" d="M29.9,165.2L28.8,164.9L29.7,164.4L29.9,165.2Z"/><path class="land" fill-rule="evenodd" d="M0.0,155.7L2.3,157.2L0.0,155.9Z"/><path class="land" fill-rule="evenodd" d="M4.5,146.4L0.0,145.2L0.0,142.4L4.0,141.7L4.4,144.0L6.2,144.9L4.7,145.2L4.5,146.4Z"/><path class="land" fill-rule="evenodd" d="M0.0,133.6L3.2,133.5L3.5,132.6L6.9,131.6L8.6,131.9L11.7,130.1L18.8,130.8L21.5,132.8L17.7,134.7L13.4,140.3L7.1,140.6L0.0,142.4Z"/><path class="land" fill-rule="evenodd" d="M248.4,194.4L247.0,194.1L246.5,192.7L247.3,191.5L248.8,191.0L255.0,192.2L258.9,191.2L264.2,187.8L265.3,187.9L266.6,191.7L269.4,193.1L268.3,194.4Z"/><path class="land" fill-rule="evenodd" d="M191.2,187.3L190.4,190.6L188.8,192.1L189.5,193.0L188.4,193.1L187.8,194.4L121.1,194.4L121.5,191.8L124.3,189.4L123.7,187.3L124.9,186.6L120.9,185.5L119.5,183.5L117.5,178.0L115.8,177.2L116.9,175.3L115.0,170.7L116.6,170.5L117.5,168.9L121.4,172.3L124.5,172.9L132.5,169.3L134.0,170.6L133.0,171.3L133.8,172.2L132.5,173.0L135.2,174.9L136.4,174.8L137.3,178.2L142.0,179.4L145.5,182.0L149.2,182.9L158.9,182.0L158.7,179.6L162.2,179.1L165.2,176.5L173.2,175.8L173.9,176.9L177.9,178.2L182.5,178.9L187.1,182.8L190.5,182.7L191.2,187.3Z"/><path class="land" fill-rule="evenodd" d="M118.3,180.5L120.9,185.5L124.9,186.6L123.7,187.3L124.3,189.4L121.5,191.8L121.1,194.4L97.3,194.4L101.3,192.7L102.5,191.0L103.5,183.3L109.5,179.5L115.4,179.8L116.1,181.3L118.3,180.5Z"/><path class="land" fill-rule="evenodd" d="M0.0,165.2L2.1,167.4L1.5,168.7L0.0,167.6Z"/><path class="land" fill-rule="evenodd" d="M491.7,193.9L491.4,193.0L491.7,193.9Z"/><path class="land" fill-rule="evenodd" d="M514.1,193.3L515.4,193.4L515.4,194.4L507.3,194.4L510.5,194.4L510.8,193.3L512.3,192.9L514.1,193.3Z"/><path class="land" fill-rule="evenodd" d="M514.1,192.3L513.4,192.1L514.1,192.3Z"/><path class="land" fill-rule="evenodd" d="M516.7,193.1L515.5,193.1L517.0,192.0L516.7,193.1Z"/><path class="land" fill-rule="evenodd" d="M492.2,192.9L492.5,191.4L492.2,192.9Z"/><path class="land" fill-rule="evenodd" d="M509.8,184.7L509.1,184.3L509.8,184.7Z"/><path class="land" fill-rule="evenodd" d="M531.8,177.5L531.3,176.4L532.5,175.3L532.8,176.5L531.8,177.5Z"/><path class="land" fill-rule="evenodd" d="M544.5,161.8L545.5,161.7L545.4,164.7L547.0,166.6L547.8,170.4L545.6,175.0L543.3,176.1L543.5,180.7L541.6,184.6L542.9,186.8L541.1,187.7L540.6,189.2L538.4,190.4L538.3,188.7L539.5,187.4L538.3,187.1L537.6,189.3L535.8,188.8L533.9,191.7L534.2,189.9L533.4,189.5L531.1,191.8L526.1,191.8L527.0,191.0L525.2,191.2L524.9,189.8L523.8,191.4L525.2,193.0L522.3,194.4L517.6,194.4L517.4,193.1L518.8,191.7L515.1,191.0L508.8,193.1L505.1,193.0L504.5,194.4L498.9,194.4L499.3,192.7L500.9,192.6L507.8,187.7L517.7,186.7L518.4,187.7L521.0,187.3L521.7,185.1L524.5,182.3L525.1,179.5L527.2,178.9L525.4,180.6L526.9,182.3L531.6,180.2L536.3,176.3L538.2,172.8L539.4,169.6L537.9,168.3L539.1,166.8L538.9,164.9L540.3,164.2L540.8,162.5L541.8,162.6L542.4,164.2L544.0,164.0L544.6,162.6L542.6,162.4L543.2,161.3L544.5,161.8Z"/><path class="land" fill-rule="evenodd" d="M536.8,158.7L537.1,158.0L536.8,158.7Z"/><path class="land" fill-rule="evenodd" d="M544.8,145.3L544.1,144.9L544.8,145.3Z"/><path class="land" fill-rule="evenodd" d="M543.8,144.3L543.4,143.8L543.8,144.3Z"/><path class="land" fill-rule="evenodd" d="M556.0,149.7L559.9,150.6L562.8,148.8L561.8,151.7L562.7,153.3L564.8,152.9L556.6,155.2L553.4,159.1L547.3,156.5L543.4,157.6L541.2,156.6L540.5,157.8L544.2,159.9L542.0,159.9L539.2,161.4L539.5,159.5L538.5,156.5L541.0,154.9L540.8,153.3L545.1,153.4L546.9,148.1L546.4,144.0L547.6,143.6L556.0,149.7Z"/><path class="land" fill-rule="evenodd" d="M259.7,187.1L264.2,187.8L260.9,189.5L259.7,187.1Z"/><path class="land" fill-rule="evenodd" d="M306.3,127.8L304.0,127.9L302.9,130.2L299.4,130.9L298.2,136.7L295.1,137.7L287.3,136.2L284.2,143.2L285.5,143.9L285.1,145.3L281.4,144.3L273.4,146.3L276.1,147.1L275.5,149.8L277.4,153.9L275.7,154.5L276.3,155.2L274.8,155.8L274.9,158.2L270.1,155.6L260.6,154.8L253.5,155.4L248.4,153.6L245.5,154.6L245.2,157.3L239.8,155.7L235.3,155.8L234.0,158.0L225.6,161.9L223.1,165.2L221.1,164.3L220.6,162.6L215.2,162.7L214.3,159.1L212.1,159.0L212.5,154.7L211.2,155.2L207.3,151.5L194.4,152.5L190.0,148.5L179.2,143.4L167.8,145.8L167.8,162.1L165.4,162.2L162.8,159.2L159.6,157.6L154.9,158.4L152.4,160.0L152.9,155.7L147.1,153.9L145.1,149.4L142.5,148.2L143.2,147.5L148.2,147.9L145.9,146.2L147.7,144.2L155.5,144.3L153.7,143.3L155.2,140.5L155.0,137.6L152.4,137.0L150.8,137.7L146.6,136.5L137.8,139.9L134.9,138.7L136.8,138.0L133.3,133.8L129.4,133.7L126.4,130.0L128.3,127.5L127.3,126.5L127.7,125.1L130.0,122.1L131.3,122.1L134.0,124.3L135.9,124.0L135.3,121.0L142.8,117.9L144.9,116.1L147.3,117.2L151.2,116.2L152.8,117.2L156.1,117.2L159.7,119.1L161.5,121.4L161.9,119.3L166.5,121.1L172.4,119.0L174.3,119.8L178.3,119.0L183.5,121.5L185.8,120.0L187.8,120.8L191.0,120.3L192.5,117.9L185.7,115.2L190.0,113.4L189.0,111.9L190.2,110.6L194.8,110.4L190.9,109.2L192.4,108.2L189.9,107.7L191.0,106.0L208.1,104.5L209.8,103.3L221.6,101.7L221.8,100.9L225.2,99.9L230.6,100.9L233.0,100.3L235.0,103.4L234.6,105.1L239.4,104.6L240.6,106.3L241.4,105.5L246.2,105.9L244.4,107.3L244.8,108.5L246.8,107.7L249.0,108.3L253.8,105.7L260.0,104.1L258.4,105.9L264.5,109.3L273.9,120.3L277.2,118.0L278.9,118.5L278.7,119.4L280.1,119.5L280.4,120.5L285.0,120.5L288.8,119.3L291.4,120.3L293.1,122.7L296.0,123.4L297.1,125.4L301.3,125.9L303.4,124.7L303.2,125.7L306.3,127.8Z"/><path class="land" fill-rule="evenodd" d="M142.2,146.5L141.5,145.6L142.2,146.5Z"/><path class="land" fill-rule="evenodd" d="M153.2,144.0L152.7,143.7L153.2,144.0Z"/><path class="land" fill-rule="evenodd" d="M274.9,158.2L274.9,158.9L267.1,161.6L265.7,163.2L260.3,163.4L257.7,166.4L254.9,166.6L254.3,165.1L251.1,165.8L247.4,167.7L246.2,170.3L239.6,171.4L237.6,171.1L236.3,169.7L233.3,170.6L232.0,169.7L226.7,170.0L226.4,169.0L226.7,168.0L229.6,167.0L232.0,168.1L234.1,166.8L237.2,167.2L243.6,164.3L239.4,163.4L237.1,161.1L235.9,162.9L230.5,161.1L235.2,158.4L233.7,157.6L236.1,155.6L245.2,157.3L245.5,154.6L248.4,153.6L253.5,155.4L260.6,154.8L270.1,155.6L274.9,158.2ZM232.9,168.7L231.9,168.4L232.9,168.7ZM234.2,167.9L235.1,168.3L234.2,167.2L234.2,167.9Z"/><path class="land" fill-rule="evenodd" d="M478.2,192.8L478.7,192.0L478.2,192.8Z"/><path class="land" fill-rule="evenodd" d="M478.0,191.2L477.2,190.6L478.0,191.2Z"/><path class="land" fill-rule="evenodd" d="M486.3,190.9L485.3,190.6L486.3,190.9Z"/><path class="land" fill-rule="evenodd" d="M489.3,190.9L488.2,190.6L489.2,189.9L489.3,190.9Z"/><path class="land" fill-rule="evenodd" d="M479.1,183.4L478.6,182.9L479.1,183.4Z"/><path class="land" fill-rule="evenodd" d="M479.5,177.9L479.2,178.5L478.8,177.8L479.5,177.9Z"/><path class="land" fill-rule="evenodd" d="M487.7,174.0L492.3,180.9L492.2,185.4L493.0,185.4L492.3,187.8L490.8,189.5L488.3,189.6L488.0,190.6L484.8,190.2L484.8,191.2L483.4,190.8L483.1,192.4L482.7,191.1L479.6,193.0L478.4,191.4L479.8,190.8L478.5,189.3L480.5,186.1L479.4,182.5L477.9,182.2L479.4,181.1L481.5,181.4L479.7,178.0L482.0,175.5L486.2,175.4L487.7,174.0Z"/><path class="land" fill-rule="evenodd" d="M11.3,159.6L9.0,155.8L10.9,155.3L11.6,153.8L16.6,156.1L15.7,158.0L11.3,159.6Z"/><path class="land" fill-rule="evenodd" d="M77.7,194.4L79.4,191.6L80.8,191.4L82.1,193.4L81.0,194.4Z"/><path class="land" fill-rule="evenodd" d="M38.0,98.7L37.4,100.1L38.8,100.4L34.7,102.0L33.3,104.6L34.2,105.4L33.0,104.8L29.9,106.2L24.6,106.4L23.7,105.2L21.1,104.5L21.3,102.2L20.2,101.4L14.3,100.5L13.5,96.9L18.0,95.4L27.0,96.0L30.2,95.4L38.0,98.7Z"/><path class="land" fill-rule="evenodd" d="M13.1,100.4L13.8,98.9L13.1,100.4Z"/><path class="land" fill-rule="evenodd" d="M44.8,96.6L42.3,98.1L38.0,98.7L30.2,95.4L27.0,96.0L18.0,95.4L13.5,96.9L13.3,96.1L13.6,93.6L16.5,90.3L20.1,89.6L23.4,92.4L26.2,92.8L28.2,91.7L27.9,88.9L31.4,88.1L37.4,90.4L42.0,90.5L43.4,91.5L42.6,93.5L44.6,94.8L44.8,96.6Z"/><path class="land" fill-rule="evenodd" d="M45.1,143.8L44.5,143.2L45.2,138.6L44.5,137.1L38.2,131.3L42.2,130.4L49.2,132.7L49.2,134.8L51.0,135.8L51.1,137.1L53.6,139.5L48.4,139.4L48.4,141.2L45.1,143.8Z"/><path class="land" fill-rule="evenodd" d="M13.1,164.2L12.0,163.8L10.8,161.2L12.3,158.8L18.7,157.5L22.1,160.2L20.9,162.7L13.1,164.2Z"/><path class="land" fill-rule="evenodd" d="M9.1,156.7L7.3,156.3L5.7,158.3L5.9,159.6L1.9,156.8L2.0,154.8L4.5,153.4L4.2,152.3L5.3,152.3L10.3,155.1L9.0,155.8L9.1,156.7Z"/><path class="land" fill-rule="evenodd" d="M436.0,124.5L432.1,131.5L430.9,132.0L431.3,133.1L432.6,133.9L436.4,133.1L439.0,134.1L440.8,132.6L444.1,132.6L449.4,136.3L450.1,138.4L439.4,138.8L438.9,139.8L435.5,140.1L433.9,142.5L431.6,143.8L426.7,144.1L422.4,146.9L414.9,145.5L412.7,148.6L415.1,151.5L411.0,153.1L408.3,155.7L403.6,157.1L392.2,157.8L384.3,160.9L382.2,160.6L382.2,159.6L378.7,160.2L371.9,158.4L368.9,156.7L346.4,155.9L341.7,150.1L341.8,149.0L339.0,148.7L333.7,146.1L322.0,144.9L321.1,143.5L322.6,141.2L322.7,138.9L319.5,134.0L311.8,131.6L308.2,128.7L310.2,126.1L314.2,125.9L318.4,123.3L328.5,119.9L331.9,121.1L336.9,121.3L338.5,123.6L350.7,124.9L354.6,122.4L354.7,121.4L352.8,119.1L353.7,117.3L357.4,114.4L371.7,117.7L372.4,121.1L376.9,122.8L380.3,123.0L386.1,121.6L392.0,122.3L394.3,123.8L397.3,124.0L397.5,125.3L400.4,126.7L409.6,127.5L418.9,125.8L425.5,122.5L430.5,124.2L434.0,123.7L436.0,124.5Z"/><path class="land" fill-rule="evenodd" d="M48.5,39.7L47.9,39.0L50.1,37.7L49.2,36.8L43.1,35.1L35.7,36.7L34.2,39.8L30.7,41.6L25.9,40.6L19.5,41.0L16.0,38.6L14.4,38.6L13.5,39.6L9.4,39.7L10.4,40.4L8.7,41.8L9.9,42.1L8.7,42.6L0.7,41.9L0.0,44.1L0.0,39.1L1.1,37.7L3.8,38.4L2.7,37.6L7.5,36.2L7.3,37.9L10.3,35.6L9.3,38.3L12.1,37.5L11.2,36.7L11.6,35.7L15.2,35.3L17.6,36.1L14.8,34.3L20.7,33.7L23.7,35.4L23.8,34.3L28.4,32.2L27.7,31.7L29.4,30.9L34.3,31.6L31.9,33.2L31.1,34.9L37.6,31.3L38.6,31.6L37.9,33.5L39.7,33.1L42.2,31.8L40.8,31.2L42.4,30.5L45.9,31.0L43.7,32.4L45.4,32.4L45.0,34.3L47.9,31.5L57.1,33.6L54.2,34.8L47.6,34.7L51.3,35.5L51.7,36.5L54.1,36.0L57.1,36.9L53.7,37.0L53.4,37.9L48.5,39.7Z"/><path class="land" fill-rule="evenodd" d="M52.8,36.2L51.9,36.3L52.8,36.2Z"/><path class="land" fill-rule="evenodd" d="M12.3,35.0L10.6,34.8L12.3,35.0Z"/><path class="land" fill-rule="evenodd" d="M5.5,35.1L7.1,35.3L3.5,37.2L0.3,37.1L3.0,36.3L5.0,34.3L5.5,35.1Z"/><path class="land" fill-rule="evenodd" d="M7.8,34.4L9.2,34.9L7.1,34.2L7.8,34.4Z"/><path class="land" fill-rule="evenodd" d="M24.8,32.9L23.3,34.0L21.7,33.6L24.8,32.9Z"/><path class="land" fill-rule="evenodd" d="M26.6,32.8L25.0,32.4L26.6,32.8Z"/><path class="land" fill-rule="evenodd" d="M24.0,31.7L21.3,33.0L17.7,32.4L24.0,31.7Z"/><path class="land" fill-rule="evenodd" d="M33.5,30.3L36.0,30.8L32.3,30.8L33.5,30.3Z"/><path class="land" fill-rule="evenodd" d="M5.4,15.9L3.5,15.5L5.4,15.9Z"/><path class="land" fill-rule="evenodd" d="M22.6,0.0L30.5,1.1L20.1,3.2L19.6,2.5L20.9,2.0L12.9,2.4L16.1,0.3L14.3,0.0Z"/><path class="land" fill-rule="evenodd" d="M1.9,0.0L1.3,1.9L0.0,2.2L0.0,0.0Z"/><path class="land" fill-rule="evenodd" d="M229.3,194.4L234.4,194.2L234.0,192.1L236.9,189.2L235.0,185.4L236.9,183.7L241.4,181.9L247.6,181.9L250.1,181.0L253.4,181.5L255.8,182.9L255.9,185.4L256.9,186.3L258.7,186.1L259.7,187.1L260.8,189.7L255.0,192.2L248.8,191.0L247.3,191.5L246.5,192.7L247.0,194.1L248.4,194.4Z"/><path class="land" fill-rule="evenodd" d="M24.2,106.3L26.1,111.5L22.9,113.6L25.0,114.7L24.5,116.6L26.9,119.9L26.9,121.4L20.5,125.8L21.4,128.0L14.8,126.2L8.0,127.3L6.4,125.5L4.3,126.4L2.5,124.3L0.0,123.7L0.0,102.4L3.4,103.0L1.9,102.8L4.3,104.5L21.6,104.3L24.1,105.4L24.2,106.3Z"/><path class="land" fill-rule="evenodd" d="M470.0,167.9L472.3,165.9L477.2,163.9L480.5,160.3L486.7,161.8L487.3,160.8L486.2,159.1L490.1,158.9L491.9,157.2L493.5,157.1L494.4,154.7L495.9,155.1L497.9,157.7L495.9,158.3L493.8,160.3L493.6,164.1L484.1,168.9L483.4,171.4L487.5,173.7L487.0,174.9L482.0,175.5L480.0,177.7L477.7,177.9L476.2,176.8L474.4,178.0L472.7,177.0L473.7,176.4L471.4,176.2L473.1,174.3L475.2,173.7L473.5,173.2L474.4,170.0L471.8,169.0L471.2,169.6L470.0,167.9Z"/><path class="land" fill-rule="evenodd" d="M46.8,151.4L40.2,149.5L33.1,151.7L21.7,151.0L22.2,149.9L19.9,148.3L20.9,147.6L18.1,147.8L14.8,146.6L15.4,145.2L12.3,143.7L12.3,142.5L9.9,140.9L13.8,140.1L17.7,134.7L22.7,132.2L29.1,132.9L30.5,133.8L38.8,131.4L44.5,137.1L45.2,138.6L44.5,143.2L45.1,143.8L47.5,144.8L50.4,144.0L51.7,144.7L51.1,146.5L48.8,146.9L49.0,145.9L48.1,146.2L46.8,151.4Z"/><path class="land" fill-rule="evenodd" d="M135.1,159.8L131.9,162.5L129.5,162.2L127.0,159.9L122.1,158.2L122.2,156.8L118.7,155.7L114.1,156.5L109.4,153.9L104.2,153.7L100.1,152.3L97.1,152.8L91.5,149.0L82.4,145.3L83.7,144.5L83.0,144.0L86.8,144.1L88.1,141.4L90.5,141.0L87.3,138.6L90.6,138.5L90.3,137.8L94.0,136.8L93.7,135.8L89.3,136.6L89.3,135.6L92.0,133.3L96.2,133.1L97.0,131.4L95.6,129.9L97.2,128.9L95.8,128.1L97.7,127.0L97.6,125.6L89.5,123.5L88.6,124.1L85.8,121.9L82.3,122.8L77.7,122.1L76.5,119.1L71.6,118.2L71.2,116.3L72.5,115.9L69.5,113.4L60.8,114.4L59.9,111.5L58.6,110.4L59.3,109.6L62.5,110.1L65.0,108.6L63.8,107.4L60.8,106.9L61.1,105.9L56.6,102.6L57.3,101.4L57.0,99.1L54.1,97.9L50.7,98.6L50.3,97.5L44.8,96.6L44.6,94.8L42.6,93.5L43.4,91.5L41.3,90.5L43.2,88.9L41.7,84.9L44.9,82.3L44.4,80.5L53.8,79.7L47.0,77.9L46.5,76.5L43.3,77.2L58.3,68.6L59.8,66.6L53.0,63.0L55.3,61.5L53.0,59.5L53.5,58.6L51.3,57.6L52.3,56.8L51.3,56.3L51.8,54.7L53.4,54.0L48.9,49.1L53.0,45.7L47.2,43.3L46.3,42.0L47.6,40.5L46.0,40.2L53.0,38.0L53.7,37.0L56.8,37.4L56.9,36.3L59.9,36.7L61.8,35.6L66.3,36.6L62.3,37.0L63.5,37.7L68.3,37.9L66.9,39.5L69.3,38.4L78.9,38.9L101.5,45.5L102.2,47.4L103.2,47.7L102.5,49.4L97.7,51.7L91.3,52.7L72.8,50.6L66.9,49.3L66.0,48.2L61.4,47.9L69.2,51.1L67.9,51.6L73.8,53.2L74.1,54.0L72.5,55.7L75.3,59.9L85.9,62.7L88.6,61.5L88.2,60.4L84.8,60.1L82.1,58.4L83.4,56.7L96.1,59.3L99.2,58.4L96.3,55.9L96.4,54.8L107.0,50.7L111.5,51.2L115.3,53.0L117.0,50.1L116.8,48.9L113.9,47.5L115.8,43.1L111.9,41.2L123.2,42.1L126.8,44.9L121.6,45.3L118.9,46.8L125.9,49.5L131.0,48.7L132.0,46.0L136.2,45.6L135.9,44.6L150.2,41.8L152.0,42.6L153.4,42.0L151.8,41.5L158.2,39.8L161.2,39.8L158.2,40.2L158.9,40.5L158.0,41.4L158.8,42.3L155.8,43.0L162.9,43.3L165.3,41.7L172.9,41.7L181.4,39.7L182.8,40.9L181.6,42.2L184.4,42.6L185.1,41.1L189.7,39.8L186.3,37.2L189.6,36.0L204.1,37.4L223.2,42.6L226.0,40.0L223.3,39.9L219.3,37.2L216.1,37.3L216.2,35.3L217.6,34.9L217.8,32.1L215.2,31.7L215.8,30.6L214.9,30.6L222.1,27.9L227.1,22.3L236.4,22.5L242.2,23.5L241.1,26.5L238.0,28.9L241.7,31.1L241.7,33.3L240.7,34.1L241.2,39.9L245.6,42.1L243.6,43.4L243.3,45.2L237.9,48.6L235.8,48.8L236.6,50.0L233.0,50.7L231.5,50.4L232.8,49.7L225.4,49.5L229.7,51.2L238.9,51.9L240.4,50.5L246.5,48.6L247.8,46.8L250.8,45.2L249.2,42.3L250.0,40.9L252.4,40.4L258.3,39.9L261.8,42.1L261.5,45.2L264.1,46.1L269.2,46.0L263.3,45.3L263.6,43.3L265.1,43.0L263.6,40.2L256.3,38.7L246.5,38.9L247.0,37.9L245.6,36.2L249.0,32.8L243.4,29.0L246.0,27.2L251.8,25.9L252.1,24.1L250.9,22.9L253.5,23.0L254.5,23.9L255.1,25.2L253.1,26.7L254.1,28.0L253.1,29.0L255.1,29.8L269.6,31.2L258.2,28.5L256.4,26.9L265.9,26.9L265.2,26.1L262.5,26.0L267.2,24.8L271.4,24.8L281.3,27.8L287.7,27.7L288.2,28.0L287.1,28.9L284.2,29.8L283.5,32.7L283.8,33.6L285.4,31.4L287.3,31.4L287.3,32.8L285.8,34.4L287.6,34.9L287.5,34.1L290.5,32.9L287.9,30.5L289.6,27.9L283.2,25.3L277.6,24.4L276.9,23.4L277.7,22.3L275.8,21.1L276.5,19.6L304.4,18.2L305.0,18.5L299.5,20.2L303.5,21.6L300.1,20.4L307.4,18.5L300.5,16.3L305.9,16.1L299.5,14.8L301.4,14.1L304.3,14.5L306.9,13.2L304.9,12.5L336.5,9.0L330.8,8.9L332.5,8.4L342.8,8.2L345.0,8.5L343.1,9.3L347.3,8.9L346.8,9.3L356.4,7.8L361.3,8.7L360.3,9.7L361.7,9.1L361.6,8.2L357.0,6.7L369.4,6.9L366.4,6.4L367.2,5.7L366.3,4.9L373.9,2.2L380.1,1.2L389.1,2.7L380.9,4.0L395.2,4.7L390.7,6.6L396.4,6.5L398.5,5.6L411.4,5.6L415.8,6.7L415.1,7.2L418.1,7.1L418.9,8.3L418.2,8.6L421.0,7.7L422.3,9.3L423.6,9.2L422.3,10.7L417.4,9.5L423.0,11.3L419.4,13.2L405.8,16.3L398.6,19.0L394.5,19.3L385.1,23.1L390.9,21.5L396.6,21.3L410.3,18.9L405.0,18.6L407.7,17.6L413.4,17.5L411.9,17.8L416.0,19.0L419.9,18.1L421.6,19.2L420.5,20.1L421.9,20.6L421.9,21.9L420.3,22.8L422.7,23.7L420.7,23.0L423.7,20.6L422.0,19.9L424.5,19.5L443.8,19.5L446.0,20.0L443.9,20.0L443.8,21.0L449.6,22.2L461.9,22.6L462.9,22.5L461.9,22.0L464.7,22.3L466.7,21.2L465.4,20.2L465.8,19.3L470.8,18.8L475.4,20.1L478.3,19.7L479.7,20.6L481.8,19.7L484.9,20.0L490.9,21.6L488.7,22.6L491.6,23.4L487.9,24.1L491.7,24.6L491.7,26.1L484.8,24.7L490.1,27.6L491.4,26.9L492.5,27.7L489.8,28.0L493.8,30.4L499.4,32.1L501.8,31.4L506.6,26.8L511.2,29.0L521.8,28.2L530.0,30.3L531.6,29.5L529.9,29.2L531.3,28.3L539.0,28.8L537.8,27.0L536.2,26.7L539.9,25.7L535.4,25.8L535.3,25.1L543.8,23.9L542.0,22.8L542.6,22.6L566.7,24.6L557.5,25.4L558.8,25.7L569.3,25.2L566.1,26.8L566.6,25.9L564.5,25.5L564.5,26.8L561.4,26.8L561.1,27.6L562.0,27.9L565.9,27.4L571.2,25.1L581.1,25.8L583.3,27.0L578.5,27.8L586.2,28.9L583.7,29.9L590.2,29.7L592.5,30.8L591.0,31.0L594.3,31.7L609.3,30.5L621.7,31.2L627.1,33.1L626.7,36.3L631.5,37.1L632.0,39.3L633.4,40.2L631.2,41.8L634.4,40.2L634.2,38.1L641.6,36.6L657.6,37.6L662.2,36.5L664.1,38.6L668.6,39.4L669.9,40.7L674.0,40.5L676.0,39.2L674.2,37.2L672.3,37.0L673.9,36.0L673.8,34.9L686.1,36.1L697.8,35.8L710.7,38.1L715.8,39.8L715.8,57.1L709.3,59.2L702.0,57.1L699.6,57.2L703.5,58.1L698.4,57.6L691.7,58.8L698.4,57.9L699.7,58.7L698.8,59.3L704.3,58.4L704.5,59.9L705.6,60.5L708.0,60.3L710.0,62.6L710.2,63.3L709.0,63.7L712.9,65.4L712.5,66.2L713.9,67.3L711.9,69.3L702.7,67.3L703.3,68.2L684.2,73.0L684.5,73.7L682.2,74.8L674.3,77.6L673.2,79.7L668.2,76.9L659.4,77.7L655.2,80.2L654.6,79.6L655.5,77.4L649.9,79.1L649.3,80.2L647.4,79.3L645.6,80.0L644.0,79.4L642.3,80.5L641.9,82.6L636.9,86.4L636.1,88.0L638.0,89.6L639.2,88.6L641.7,89.3L639.6,91.7L639.8,93.6L641.8,94.2L642.2,96.2L640.0,96.9L639.1,96.2L640.9,94.9L639.2,95.0L636.7,96.8L635.1,99.4L636.7,102.7L634.6,103.8L630.9,103.7L627.8,105.2L626.8,107.0L627.6,109.9L625.6,109.4L621.9,110.9L620.7,110.3L620.8,113.2L619.1,115.7L613.1,119.4L607.8,100.7L609.7,94.1L613.5,91.5L613.4,89.3L619.8,88.3L636.6,77.5L643.8,75.5L643.1,75.0L645.1,73.6L644.3,73.1L646.0,69.4L651.3,68.5L647.0,67.6L642.2,68.3L640.8,71.2L641.8,72.0L641.1,72.6L638.0,72.2L630.8,76.2L628.2,76.7L629.1,75.0L626.5,75.3L628.8,71.2L614.6,72.1L602.2,80.3L601.6,81.6L605.2,82.0L606.1,83.1L598.1,83.0L595.7,84.3L589.1,84.5L588.2,83.6L593.2,83.0L589.2,81.5L585.4,81.8L586.2,81.5L581.7,80.5L579.1,81.2L579.7,81.8L577.9,81.6L577.7,82.3L578.7,82.3L577.6,82.8L568.0,81.9L565.8,83.2L563.6,82.1L556.2,82.1L548.0,84.0L542.6,87.0L541.0,89.2L533.2,92.9L528.9,96.6L518.0,102.1L518.1,102.8L520.7,103.5L524.9,103.3L524.9,107.0L526.5,106.8L526.4,105.2L528.8,104.8L527.3,105.6L529.5,106.3L526.9,108.1L530.0,107.8L532.6,106.2L531.3,108.1L532.2,108.1L533.2,107.2L533.3,104.6L538.2,104.9L545.1,109.2L544.3,110.4L542.8,110.1L544.6,111.2L544.1,113.0L545.6,114.1L541.4,120.2L541.8,123.4L539.6,130.7L532.8,136.7L528.8,142.2L517.6,152.3L508.8,156.0L505.1,155.2L505.1,153.3L503.5,154.2L503.8,153.4L502.8,153.5L500.0,156.3L498.0,156.2L497.9,157.7L496.7,156.0L499.6,155.1L500.4,153.0L499.2,146.5L503.1,144.4L508.6,145.2L509.0,143.6L511.9,140.3L513.3,135.6L515.9,133.8L515.5,131.4L513.9,130.9L508.8,132.1L505.8,133.8L499.1,133.8L497.3,128.8L492.7,126.4L484.1,124.6L484.2,122.8L483.1,122.2L483.0,120.6L477.4,111.6L475.7,110.3L466.6,108.1L455.1,109.2L451.1,111.4L451.0,112.1L453.6,112.4L453.7,115.0L451.0,116.6L447.0,121.9L447.8,122.5L447.4,123.4L441.3,125.9L434.0,123.7L430.5,124.2L425.5,122.5L418.9,125.8L409.6,127.5L400.4,126.7L397.5,125.3L397.3,124.0L394.3,123.8L392.0,122.3L386.1,121.6L380.3,123.0L376.9,122.8L372.4,121.1L371.7,117.7L357.4,114.4L353.7,117.3L352.8,119.1L354.7,121.4L354.6,122.4L350.7,124.9L338.5,123.6L336.9,121.3L331.9,121.1L328.5,119.9L318.4,123.3L314.2,125.9L310.2,126.1L309.2,127.3L306.7,127.8L303.2,125.7L303.4,124.7L301.3,125.9L297.1,125.4L296.0,123.4L293.1,122.7L291.4,120.3L288.8,119.3L285.0,120.5L280.4,120.5L280.1,119.5L278.7,119.4L278.9,118.5L277.2,118.0L273.9,120.3L264.5,109.3L258.4,105.9L260.0,104.1L253.8,105.7L249.0,108.3L246.8,107.7L244.8,108.5L244.4,107.3L246.2,105.9L241.4,105.5L240.6,106.3L239.4,104.6L234.6,105.1L235.0,103.4L233.0,100.3L230.6,100.9L225.2,99.9L221.8,100.9L221.6,101.7L209.8,103.3L208.1,104.5L191.0,106.0L189.9,107.7L192.4,108.2L190.9,109.2L194.8,110.4L190.2,110.6L189.0,111.9L190.0,113.4L185.7,115.2L192.5,117.9L191.7,119.9L189.7,120.6L185.8,120.0L183.5,121.5L178.3,119.0L176.0,118.9L174.3,119.8L170.1,119.2L166.5,121.1L161.9,119.3L161.5,121.4L159.7,119.1L156.1,117.2L152.8,117.2L151.2,116.2L147.3,117.2L144.9,116.1L142.8,117.9L135.3,121.0L135.9,124.0L134.0,124.3L131.3,122.1L130.0,122.1L127.7,125.1L127.3,126.5L128.3,127.5L126.8,129.0L126.6,130.7L128.4,131.5L129.4,133.7L133.3,133.8L136.8,138.0L134.9,138.7L138.1,140.1L135.6,141.0L135.8,141.9L130.2,142.8L129.7,144.9L126.8,148.0L129.5,149.8L130.2,152.2L131.0,150.7L130.2,154.5L135.1,159.8Z"/><path class="land" fill-rule="evenodd" d="M12.8,100.4L11.5,101.7L14.1,101.9L15.0,100.4L20.2,101.4L21.3,102.2L21.1,104.5L7.1,104.0L8.7,102.0L12.8,100.4Z"/><path class="land" fill-rule="evenodd" d="M568.7,151.4L569.6,151.1L568.7,151.4Z"/><path class="land" fill-rule="evenodd" d="M566.5,148.0L568.1,148.3L563.1,151.4L566.5,148.0Z"/><path class="land" fill-rule="evenodd" d="M577.1,144.4L572.9,145.9L569.5,148.4L574.1,144.1L575.9,144.6L578.0,143.6L577.1,144.4Z"/><path class="land" fill-rule="evenodd" d="M132.5,143.7L132.3,143.0L132.5,143.7Z"/><path class="land" fill-rule="evenodd" d="M581.9,143.0L580.8,143.2L585.7,140.5L581.9,143.0Z"/><path class="land" fill-rule="evenodd" d="M75.1,142.6L77.1,144.4L82.1,144.1L81.3,145.5L77.2,145.4L70.3,148.5L68.3,147.8L68.7,145.4L64.1,144.0L69.2,141.6L69.2,140.4L75.1,142.6Z"/><path class="land" fill-rule="evenodd" d="M592.1,137.4L590.8,137.6L593.4,136.3L592.1,137.4Z"/><path class="land" fill-rule="evenodd" d="M601.3,129.1L601.9,128.6L601.3,129.1Z"/><path class="land" fill-rule="evenodd" d="M604.5,126.8L603.6,126.8L604.6,125.3L604.5,126.8Z"/><path class="land" fill-rule="evenodd" d="M609.4,122.4L607.1,123.5L606.2,122.6L610.2,120.3L609.4,122.4Z"/><path class="land" fill-rule="evenodd" d="M611.6,120.8L610.5,120.5L611.8,119.9L611.6,120.8Z"/><path class="land" fill-rule="evenodd" d="M608.2,120.1L607.4,119.7L608.2,120.1Z"/><path class="land part-shape" data-part="し" fill-rule="evenodd" d="M551.3,104.3L553.8,110.6L553.2,115.1L559.9,129.7L557.0,127.0L552.8,127.3L550.4,133.7L553.3,137.9L554.5,138.1L554.9,139.8L554.2,141.3L553.6,138.9L550.5,138.3L548.2,141.8L547.2,139.4L548.7,132.5L547.3,129.2L548.5,125.6L548.8,118.3L546.7,116.0L546.4,113.7L547.1,109.0L550.2,108.5L551.0,106.5L549.4,104.8L551.3,104.3Z"/><path class="land" fill-rule="evenodd" d="M663.0,103.6L660.3,102.3L663.0,103.6Z"/><path class="land" fill-rule="evenodd" d="M526.6,101.2L524.6,101.8L526.6,101.2Z"/><path class="land" fill-rule="evenodd" d="M530.0,101.2L531.1,101.5L529.0,103.1L527.9,102.2L526.8,102.6L528.4,100.8L530.0,101.2Z"/><path class="land" fill-rule="evenodd" d="M656.8,102.3L656.8,103.0L652.9,100.3L655.2,100.2L656.8,102.3Z"/><path class="land" fill-rule="evenodd" d="M585.9,83.9L586.4,83.4L585.9,83.9Z"/><path class="land" fill-rule="evenodd" d="M643.5,85.7L642.6,86.0L644.1,83.9L647.6,83.0L647.8,84.5L643.5,85.7Z"/><path class="land" fill-rule="evenodd" d="M78.7,56.6L78.6,57.5L77.5,56.8L78.7,56.6Z"/><path class="land" fill-rule="evenodd" d="M229.9,50.8L227.4,49.9L230.1,49.9L229.9,50.8Z"/><path class="land" fill-rule="evenodd" d="M109.2,49.9L108.1,49.6L109.2,49.9Z"/><path class="land" fill-rule="evenodd" d="M142.6,38.9L136.6,40.9L134.5,40.6L133.8,39.6L134.4,38.2L136.8,37.5L142.6,38.9Z"/><path class="land" fill-rule="evenodd" d="M218.0,37.4L216.6,37.6L218.0,37.4Z"/><path class="land" fill-rule="evenodd" d="M633.9,40.2L632.5,39.3L632.2,38.0L634.1,36.9L634.6,37.6L633.4,38.1L633.9,40.2Z"/><path class="land" fill-rule="evenodd" d="M668.1,37.2L661.9,36.1L664.4,35.3L669.1,36.0L668.1,37.2Z"/><path class="land" fill-rule="evenodd" d="M187.6,35.6L187.5,36.6L184.4,36.6L181.0,35.8L178.8,34.2L181.4,33.3L187.6,35.6Z"/><path class="land" fill-rule="evenodd" d="M214.6,33.0L214.0,31.9L214.6,33.0Z"/><path class="land" fill-rule="evenodd" d="M630.6,31.7L629.4,31.3L630.6,31.7Z"/><path class="land" fill-rule="evenodd" d="M154.2,29.3L155.5,30.0L155.2,31.0L151.3,29.5L154.2,29.3Z"/><path class="land" fill-rule="evenodd" d="M710.8,31.7L710.0,30.5L715.8,28.6L715.8,31.0L710.8,31.7Z"/><path class="land" fill-rule="evenodd" d="M530.1,28.7L526.1,28.6L530.1,28.7Z"/><path class="land" fill-rule="evenodd" d="M263.5,25.2L260.1,25.1L263.3,23.7L266.7,24.4L263.5,25.2Z"/><path class="land" fill-rule="evenodd" d="M271.8,23.3L267.9,22.8L270.3,21.7L271.9,22.5L271.8,23.3Z"/><path class="land" fill-rule="evenodd" d="M250.4,22.7L247.9,22.0L251.7,21.8L250.4,22.7Z"/><path class="land" fill-rule="evenodd" d="M451.9,21.7L449.1,21.5L451.9,21.7Z"/><path class="land" fill-rule="evenodd" d="M164.9,20.7L169.8,21.2L168.4,22.9L165.3,24.1L165.8,25.5L164.8,26.8L169.9,30.5L175.1,32.1L169.1,32.2L169.8,32.9L157.8,31.8L156.3,31.5L159.8,30.4L156.5,29.4L156.5,28.6L150.0,28.8L147.8,27.5L148.4,26.2L153.0,25.2L154.3,23.6L152.7,23.1L156.3,22.5L155.8,21.3L164.9,20.7Z"/><path class="land" fill-rule="evenodd" d="M232.7,21.7L229.4,21.7L229.7,20.5L231.3,20.0L234.3,19.9L237.0,21.1L232.7,21.7Z"/><path class="land" fill-rule="evenodd" d="M259.6,20.1L256.6,19.8L259.6,20.1Z"/><path class="land" fill-rule="evenodd" d="M254.1,20.1L253.4,20.2L256.5,19.7L254.1,20.1Z"/><path class="land" fill-rule="evenodd" d="M548.7,18.1L553.8,19.6L554.5,21.0L537.7,20.2L540.8,20.0L543.9,18.3L548.7,18.1Z"/><path class="land" fill-rule="evenodd" d="M470.8,18.3L469.9,18.0L470.8,18.3Z"/><path class="land" fill-rule="evenodd" d="M289.6,17.4L286.4,17.3L289.6,17.4Z"/><path class="land" fill-rule="evenodd" d="M285.9,17.3L284.2,17.1L285.9,17.3Z"/><path class="land" fill-rule="evenodd" d="M522.3,18.1L518.7,16.6L522.3,18.1Z"/><path class="land" fill-rule="evenodd" d="M543.5,17.7L540.9,18.0L539.5,16.9L543.2,16.5L543.5,17.7Z"/><path class="land" fill-rule="evenodd" d="M295.0,15.6L293.3,15.7L295.0,15.6Z"/><path class="land" fill-rule="evenodd" d="M421.5,15.9L418.8,17.3L413.2,16.1L415.7,15.2L421.5,15.9Z"/><path class="land" fill-rule="evenodd" d="M303.4,13.3L305.4,13.5L301.6,13.7L303.4,13.3Z"/><path class="land" fill-rule="evenodd" d="M283.6,11.4L282.7,12.2L280.6,11.6L283.6,11.4Z"/><path class="land" fill-rule="evenodd" d="M569.1,11.6L586.9,12.6L585.8,13.6L579.1,14.3L566.2,12.4L567.5,10.8L569.1,11.6Z"/><path class="land" fill-rule="evenodd" d="M521.2,11.4L519.0,11.5L520.1,9.5L522.1,10.6L521.2,11.4Z"/><path class="land" fill-rule="evenodd" d="M596.0,8.3L594.6,8.2L596.0,8.3Z"/><path class="land" fill-rule="evenodd" d="M539.3,9.6L542.7,10.5L543.4,9.0L545.6,8.2L562.8,10.9L556.8,13.1L551.5,12.1L551.0,11.3L552.1,10.1L549.3,10.2L548.3,10.3L548.8,11.5L552.9,13.4L550.0,14.0L547.9,13.3L537.7,13.4L535.1,14.8L530.6,14.2L525.6,11.8L527.1,11.7L527.0,9.9L528.9,9.9L528.3,9.0L531.1,8.3L534.3,8.0L539.3,9.6Z"/><path class="land" fill-rule="evenodd" d="M347.0,7.6L346.0,8.3L341.6,7.9L347.0,7.6Z"/><path class="land" fill-rule="evenodd" d="M348.4,8.0L348.3,7.3L349.3,7.5L348.4,8.0Z"/><path class="land" fill-rule="evenodd" d="M417.5,6.1L418.3,6.6L415.2,6.1L417.5,6.1Z"/><path class="land" fill-rule="evenodd" d="M351.7,6.2L350.4,5.8L351.7,6.2Z"/><path class="land" fill-rule="evenodd" d="M579.5,5.9L576.2,6.0L580.6,5.4L579.5,5.9Z"/><path class="land part-shape" data-part="さ" fill-rule="evenodd" d="M219.9,7.8L191.6,11.9L184.1,15.0L179.1,15.5L179.5,16.7L175.7,17.6L175.7,18.7L173.7,18.4L174.7,19.2L170.7,20.7L160.4,20.5L158.0,18.7L161.9,17.9L165.0,15.8L168.5,15.5L166.1,14.9L170.1,13.4L167.1,12.7L175.0,11.7L180.6,9.5L189.7,8.5L190.9,7.6L205.3,7.2L218.9,4.4L225.1,5.7L219.9,7.8Z"/><path class="land" fill-rule="evenodd" d="M345.9,4.3L341.4,4.3L347.1,3.7L345.9,4.3Z"/><path class="land" fill-rule="evenodd" d="M316.0,3.6L314.3,3.4L316.7,3.2L316.0,3.6Z"/><path class="land" fill-rule="evenodd" d="M395.1,3.3L394.4,3.1L396.3,3.2L395.1,3.3Z"/><path class="land" fill-rule="evenodd" d="M20.8,149.2L19.3,151.2L21.8,154.2L19.7,155.3L19.5,157.6L15.7,158.0L16.6,156.1L12.4,153.5L10.4,155.4L5.4,152.7L6.6,151.8L5.5,150.4L7.0,150.0L4.9,148.6L6.0,146.3L4.4,146.2L5.0,144.9L6.2,144.9L4.4,144.0L3.7,142.1L6.8,140.7L9.8,140.8L12.3,142.5L12.3,143.7L15.4,145.2L14.8,146.6L18.1,147.8L20.5,147.4L19.9,148.3L20.8,149.2Z"/><path class="land" fill-rule="evenodd" d="M0.0,128.0L2.6,126.0L5.1,126.4L6.4,125.5L8.0,127.3L14.8,126.2L20.1,127.8L18.2,130.8L11.0,130.2L8.6,131.9L6.9,131.6L3.5,132.6L3.2,133.5L0.0,133.6Z"/><path class="land" fill-rule="evenodd" d="M11.6,39.6L24.9,44.4L24.1,46.6L25.3,46.7L24.9,48.0L26.5,49.4L25.2,51.9L27.2,53.9L19.4,53.6L18.8,54.8L15.1,56.0L15.8,56.9L13.9,58.3L15.6,59.8L12.2,62.4L0.0,67.0L0.0,77.2L4.4,80.3L0.0,82.3L2.7,82.5L0.0,83.9L0.0,44.1L0.7,41.9L8.7,42.6L9.9,42.1L8.7,41.8L10.4,40.4L9.4,39.7L11.6,39.6Z"/><path class="land" fill-rule="evenodd" d="M4.8,89.1L3.6,89.7L4.0,91.0L0.6,93.1L1.3,92.4L0.6,90.3L2.4,89.1L4.8,89.1Z"/><path class="land" fill-rule="evenodd" d="M5.1,88.7L5.9,88.5L5.1,88.7Z"/><path class="land" fill-rule="evenodd" d="M107.6,180.7L102.9,183.9L103.2,187.2L101.6,192.5L97.3,194.4L81.0,194.4L82.1,193.4L81.0,192.2L81.4,191.7L79.4,191.6L78.8,186.2L80.2,186.3L82.3,184.5L82.4,182.0L85.9,182.7L89.2,181.6L94.4,182.6L100.3,180.7L106.9,179.8L107.6,180.7Z"/><path class="land" fill-rule="evenodd" d="M251.4,180.1L249.0,179.3L245.9,180.1L246.2,179.3L244.7,179.1L237.1,182.5L236.1,180.6L236.8,177.1L235.4,177.1L235.3,175.4L233.7,174.7L230.7,177.1L230.6,178.6L227.5,178.7L226.7,180.6L225.0,179.7L220.7,181.3L219.9,180.5L220.1,179.0L222.5,175.8L221.3,174.7L221.4,172.5L218.1,171.3L219.7,169.6L223.0,170.0L225.2,167.5L223.7,167.2L226.6,167.0L226.9,164.5L228.5,165.0L231.5,163.3L233.1,164.7L231.4,166.2L233.9,167.1L232.0,168.1L229.6,167.0L227.7,167.5L226.6,168.3L226.7,170.0L232.0,169.7L233.3,170.6L236.3,169.7L237.6,171.1L239.6,171.4L245.8,170.3L246.6,174.1L251.0,174.7L251.4,178.5L252.4,179.5L251.4,180.1Z"/><path class="land" fill-rule="evenodd" d="M232.9,168.7L231.9,168.4L232.9,168.7Z"/><path class="land" fill-rule="evenodd" d="M214.4,179.6L211.1,178.6L210.1,180.1L206.9,180.6L205.5,184.1L203.3,185.5L199.4,186.3L199.1,188.0L195.8,189.2L191.2,187.3L190.5,182.7L187.1,182.8L182.5,178.9L177.9,178.2L173.9,176.9L173.2,175.8L165.2,176.5L162.2,179.1L158.7,179.6L158.5,172.5L157.8,171.4L155.3,171.2L155.7,169.6L157.3,169.9L156.8,168.3L154.6,168.0L154.8,168.9L153.5,166.1L154.4,163.3L158.5,165.0L160.7,164.8L160.5,164.2L162.1,164.0L162.2,163.2L159.5,161.2L158.2,158.6L154.5,159.2L154.0,162.6L152.4,160.0L154.9,158.4L159.6,157.6L162.8,159.2L165.6,162.3L172.4,162.3L172.2,159.7L175.9,158.2L176.9,156.9L178.8,157.7L177.4,156.3L179.3,155.6L185.5,158.1L185.3,159.2L186.5,159.9L186.0,161.7L194.0,163.1L196.6,168.0L202.2,171.6L210.4,175.7L214.6,176.7L214.4,179.6Z"/><path class="land" fill-rule="evenodd" d="M155.1,173.2L154.9,171.9L155.1,173.2Z"/><path class="land" fill-rule="evenodd" d="M112.4,163.0L113.7,164.7L113.4,167.3L116.6,167.9L118.5,169.5L117.5,168.9L116.6,170.5L115.0,170.7L116.9,175.3L115.8,177.2L117.5,178.0L118.3,180.5L116.1,181.3L115.4,179.8L109.5,179.5L107.6,180.7L106.9,179.8L100.3,180.7L94.4,182.6L89.2,181.6L85.9,182.7L82.4,182.0L82.3,184.5L80.1,186.3L79.1,186.0L78.7,184.2L80.4,182.7L79.8,181.6L76.9,183.0L73.8,182.0L69.3,184.8L65.4,185.4L58.5,182.0L55.9,181.8L55.0,184.4L51.6,184.9L49.6,184.1L48.5,182.4L41.8,182.4L45.3,181.0L40.9,181.3L42.1,180.4L40.1,178.3L40.8,176.8L36.6,175.5L37.3,173.9L38.3,175.3L40.4,174.7L38.7,173.6L39.8,172.8L38.4,171.0L39.3,169.9L35.8,170.0L36.2,168.0L38.6,166.1L48.6,166.2L47.7,165.5L52.4,164.5L49.1,163.8L49.3,162.5L58.6,163.0L63.2,160.3L68.0,159.0L75.1,158.8L76.4,160.3L79.8,160.5L81.3,162.3L83.0,161.9L90.1,163.8L94.7,163.0L98.4,163.7L103.9,161.2L109.1,160.9L112.4,163.0Z"/><path class="land" fill-rule="evenodd" d="M36.8,160.3L39.8,158.8L44.2,159.2L45.1,161.0L48.9,162.5L47.6,163.6L42.0,163.6L36.2,167.6L36.5,166.5L38.8,165.1L35.5,164.7L38.1,161.7L36.8,160.3Z"/><path class="land" fill-rule="evenodd" d="M35.2,167.3L33.9,167.3L35.2,167.3Z"/><path class="land" fill-rule="evenodd" d="M24.8,117.0L28.1,115.5L34.4,115.2L40.4,116.0L42.9,117.2L45.0,116.6L47.4,117.4L49.1,116.5L50.1,117.6L53.7,117.2L55.4,118.1L55.6,116.3L57.4,114.7L69.5,113.4L72.5,115.9L71.2,116.3L71.6,118.2L76.5,119.1L77.7,122.1L82.3,122.8L85.8,121.9L88.6,124.1L89.5,123.5L97.6,125.6L97.7,127.0L95.8,128.1L97.2,128.9L95.6,129.9L97.0,131.5L96.0,133.2L92.4,133.2L89.6,134.5L89.3,136.6L78.8,138.6L75.2,140.9L76.1,139.4L74.5,140.6L75.1,142.6L69.8,140.5L64.0,141.0L61.1,140.2L61.9,139.5L59.9,138.9L64.4,138.7L62.1,138.6L60.8,136.0L61.3,138.5L59.9,138.0L56.5,139.0L54.0,142.0L51.4,142.6L51.7,144.7L50.4,144.0L46.2,144.5L45.1,143.8L48.4,141.2L48.4,139.4L53.6,139.5L51.1,137.1L51.0,135.8L49.2,134.8L49.2,132.7L42.2,130.4L30.5,133.8L28.7,132.8L22.7,132.2L21.5,132.8L18.3,130.8L20.1,127.8L21.4,127.9L20.8,125.5L26.9,121.4L26.9,119.9L24.8,117.0Z"/><path class="land" fill-rule="evenodd" d="M61.9,140.5L62.5,140.7L59.7,139.7L61.9,140.5Z"/><path class="land" fill-rule="evenodd" d="M713.4,117.7L709.8,116.5L713.4,117.7Z"/><path class="land" fill-rule="evenodd" d="M714.6,115.3L713.6,115.0L714.6,115.3Z"/><path class="land" fill-rule="evenodd" d="M704.4,115.4L703.7,115.3L705.5,114.4L704.4,115.4Z"/><path class="land" fill-rule="evenodd" d="M688.1,113.3L686.7,113.1L688.3,112.7L688.1,113.3Z"/><path class="land" fill-rule="evenodd" d="M684.1,110.4L686.8,111.1L684.6,111.6L682.7,110.7L684.1,110.4Z"/><path class="land" fill-rule="evenodd" d="M219.9,180.4L214.4,179.6L214.6,176.7L210.4,175.7L202.2,171.6L196.6,168.0L194.0,163.1L186.0,161.7L186.5,159.9L185.3,159.2L185.5,158.1L179.3,155.6L177.4,156.3L178.8,157.7L176.9,156.9L175.9,158.2L172.2,159.7L172.4,162.3L167.8,162.1L167.8,145.8L179.2,143.4L190.0,148.5L194.4,152.5L207.3,151.5L211.2,155.2L212.5,154.7L212.1,159.0L214.3,159.1L215.2,162.7L220.6,162.6L221.1,164.3L222.8,165.2L226.0,161.6L234.3,157.8L235.2,158.4L230.5,161.1L235.9,162.9L237.1,161.1L239.4,163.4L243.6,164.2L237.2,167.2L232.7,167.0L231.4,166.1L233.1,164.6L231.5,163.3L228.5,165.0L226.9,164.5L226.6,167.0L223.7,167.2L225.2,167.5L223.0,170.0L218.9,169.9L218.1,171.4L221.4,172.5L221.3,174.7L222.5,176.0L219.9,180.4Z"/><path class="land" fill-rule="evenodd" d="M234.2,167.9L234.2,167.2L235.1,168.3L234.2,167.9Z"/></g><g id="rivers"><path class="river part-shape" data-part="せ" d="M122.2,122.7L123.0,121.7L122.3,120.6L123.9,119.6L123.1,117.9L125.3,116.0L127.1,116.0"/><path class="river part-shape" data-part="せ" d="M137.2,99.5L138.1,101.1L134.6,104.9L137.4,108.3L141.0,108.4"/><path class="river part-shape" data-part="せ" d="M112.4,94.2L110.9,92.3L111.3,91.3L108.6,91.0"/><path class="river part-shape" data-part="せ" d="M84.6,93.9L81.2,94.1"/><path class="river part-shape" data-part="せ" d="M87.3,91.5L89.7,90.3"/><path class="river part-shape" data-part="せ" d="M103.1,90.6L100.9,89.3L97.2,90.3"/><path class="river part-shape" data-part="せ" d="M90.3,88.3L90.2,87.1L91.5,87.9"/><path class="river part-shape" data-part="せ" d="M131.9,138.1L135.6,141.0"/><path class="river part-shape" data-part="せ" d="M122.2,122.7L117.2,129.9L123.1,131.0L131.7,138.0L132.6,139.8L130.6,142.3L131.0,142.9"/><path class="river part-shape" data-part="せ" d="M141.0,108.4L142.0,109.4L134.9,110.0L134.8,111.3L132.1,114.3L127.1,116.0"/><path class="river part-shape" data-part="せ" d="M112.4,94.2L117.4,96.8L125.9,95.7L131.8,96.6L137.0,98.6L137.2,99.5"/><path class="river part-shape" data-part="せ" d="M84.6,93.9L87.3,91.5"/><path class="river part-shape" data-part="せ" d="M64.5,91.7L65.1,93.0L68.6,93.5L70.5,94.7L70.1,95.3L73.7,96.3L74.8,94.8L78.1,93.5L81.2,94.1"/><path class="river part-shape" data-part="せ" d="M103.1,90.6L108.6,91.0"/><path class="river part-shape" data-part="せ" d="M97.2,90.3L91.5,87.9"/><path class="river part-shape" data-part="せ" d="M89.7,90.3L90.3,88.3"/><path class="river part-shape" data-part="そ" d="M287.3,102.3L279.8,106.6"/><path class="river part-shape" data-part="そ" d="M296.3,113.0L290.9,113.3L290.1,110.3L290.9,108.9L285.4,108.5L279.8,106.6"/><path class="river part-shape" data-part="そ" d="M231.3,73.8L250.3,74.2L258.6,75.4L268.8,78.9L270.8,81.5L279.5,83.4L280.8,85.2L286.7,87.0L293.1,91.9L293.6,93.2L290.1,98.8L286.7,99.8L287.3,102.3"/><path class="river part-shape" data-part="そ" d="M224.7,74.6L231.3,73.8"/><path class="river part-shape" data-part="そ" d="M224.7,74.6L222.5,74.3L222.4,73.1L219.1,72.0L217.8,70.3L210.7,67.9L208.3,66.0L211.1,63.7L211.2,61.5L212.2,61.2L209.9,58.5L210.2,57.5L208.8,57.0L211.3,53.7L211.3,52.4L214.1,50.5L217.9,50.2"/><path class="river part-shape" data-part="そ" d="M217.9,50.2L221.8,50.6L223.8,49.7"/><path class="river part-shape" data-part="そ" d="M217.9,50.2L223.8,49.7"/><path class="river part-shape" data-part="そ" d="M223.8,49.7L225.4,49.5"/><path class="river part-shape" data-part="そ" d="M189.6,116.3L192.3,117.3L192.2,114.2L193.2,112.9L197.0,112.2L201.4,109.8L202.7,108.6L202.7,105.4L206.8,103.9L208.7,100.0L216.3,92.0L217.2,89.5L221.2,88.8L221.9,87.6"/><path class="river part-shape" data-part="た" d="M324.8,107.2L325.0,105.7L322.3,102.9L322.5,102.0L328.8,99.4"/><path class="river part-shape" data-part="た" d="M343.7,118.0L337.9,116.1"/><path class="river part-shape" data-part="た" d="M337.9,116.1L330.4,116.7L327.6,115.8L327.3,114.8L328.9,113.5L328.3,112.4L324.2,111.7L324.6,109.9L326.8,108.7L324.8,107.2"/><path class="river part-shape" data-part="た" d="M331.4,87.9L334.6,95.1L332.0,96.8L328.3,97.6L328.8,99.4"/><path class="river part-shape" data-part="た" d="M287.7,34.9L292.4,36.8L296.5,36.3L300.3,37.6L300.4,40.5L302.8,42.8L301.7,46.1L303.2,47.0L303.7,49.3L301.7,50.4L306.9,51.3L306.1,52.2L308.9,52.8L308.3,53.7L309.4,54.4L306.1,64.7L311.2,66.9L315.2,71.2L318.8,72.6L316.5,74.0L318.9,78.2L325.7,84.3L327.2,84.7L327.6,86.2L331.4,87.9"/><path class="river part-shape" data-part="ち" d="M453.6,77.8L447.8,78.7L443.3,80.8L432.1,76.4L428.1,76.2L417.1,82.7L411.4,85.1L406.4,85.7L404.3,87.4L402.5,87.2L397.8,89.4L395.3,91.5L393.2,91.4L392.7,92.4L387.4,93.9L390.1,94.7L387.5,96.0L388.0,97.8L384.8,101.6L385.4,104.4L389.1,106.7L393.8,106.7L396.7,104.7L398.1,105.2L397.6,106.0"/><path class="river part-shape" data-part="ち" d="M480.3,25.2L482.4,27.2L483.9,30.9L483.5,32.1L476.3,33.4L476.9,34.7L473.7,35.8L468.5,39.6L467.4,42.6L464.6,44.5L464.4,46.6L469.3,53.6L470.4,56.6L487.3,63.8L492.1,64.1L495.0,69.3L492.6,72.3L488.2,73.9L469.0,76.9L457.0,76.7L453.6,77.7"/><path class="river part-shape" data-part="つ" d="M526.1,121.7L525.0,124.8"/><path class="river part-shape" data-part="つ" d="M539.6,115.9L538.4,116.7"/><path class="river part-shape" data-part="つ" d="M525.0,124.8L522.1,128.2L517.8,129.4L516.8,130.7L508.8,132.1L505.8,133.8L499.3,133.9L497.3,128.8L492.7,126.4L485.2,125.4L483.8,124.3L484.2,122.8"/><path class="river part-shape" data-part="つ" d="M538.4,116.7L534.3,117.8L526.1,121.7"/><path class="river part-shape" data-part="つ" d="M539.6,115.9L540.9,112.8L538.0,110.3L539.1,109.5L542.8,110.1"/><path class="river part-shape" data-part="つ" d="M484.2,122.8L483.1,122.2L478.7,113.3L475.7,110.3L466.6,108.1L456.9,109.1"/><path class="river part-shape" data-part="て" d="M287.3,102.3L279.8,106.6"/><path class="river part-shape" data-part="て" d="M296.3,113.0L290.9,113.3L290.1,110.3L290.9,108.9L285.4,108.5L279.8,106.6"/><path class="river part-shape" data-part="て" d="M231.3,73.8L250.3,74.2L258.6,75.4L268.8,78.9L270.8,81.5L279.5,83.4L280.8,85.2L286.7,87.0L293.1,91.9L293.6,93.2L290.1,98.8L286.7,99.8L287.3,102.3"/><path class="river part-shape" data-part="て" d="M224.7,74.6L231.3,73.8"/><path class="river part-shape" data-part="て" d="M224.7,74.6L222.5,74.3L222.4,73.1L219.1,72.0L217.8,70.3L210.7,67.9L208.3,66.0L211.1,63.7L211.2,61.5L212.2,61.2L209.9,58.5L210.2,57.5L208.8,57.0L211.3,53.7L211.3,52.4L214.1,50.5L217.9,50.2"/><path class="river part-shape" data-part="て" d="M217.9,50.2L221.8,50.6L223.8,49.7"/><path class="river part-shape" data-part="て" d="M217.9,50.2L223.8,49.7"/><path class="river part-shape" data-part="て" d="M223.8,49.7L225.4,49.5"/><path class="river part-shape" data-part="て" d="M189.6,116.3L192.3,117.3L192.2,114.2L193.2,112.9L197.0,112.2L201.4,109.8L202.7,108.6L202.7,105.4L206.8,103.9L208.7,100.0L216.3,92.0L217.2,89.5L221.2,88.8L221.9,87.6"/><path class="river part-shape" data-part="と" d="M68.7,137.7L71.4,134.8L75.5,134.6L75.6,133.3"/><path class="river part-shape" data-part="と" d="M67.1,127.7L61.4,125.7"/><path class="river part-shape" data-part="と" d="M59.4,123.7L59.5,124.8"/><path class="river part-shape" data-part="と" d="M55.3,118.3L55.3,121.1"/><path class="river part-shape" data-part="と" d="M64.4,138.7L68.7,137.7"/><path class="river part-shape" data-part="と" d="M75.6,133.3L75.6,130.8L67.1,127.7"/><path class="river part-shape" data-part="と" d="M61.4,125.7L59.5,124.8"/><path class="river part-shape" data-part="と" d="M59.4,123.7L56.8,123.2L55.3,121.1"/><path class="river part-shape" data-part="と" d="M68.0,102.0L66.2,101.6L64.1,103.0L54.8,103.9L54.7,109.2L53.2,110.7L56.5,114.9L55.3,118.3"/></g><g id="markers"><g class="marker m-zone" data-part="あ" transform="translate(583.3,50.8)"><circle class="hit" r="16"/><circle class="dot" r="4"/></g><g class="marker m-zone" data-part="い" transform="translate(185.6,17.7)"><circle class="hit" r="16"/><circle class="dot" r="4"/></g><g class="marker m-zone" data-part="う" transform="translate(17.7,123.7)"><circle class="hit" r="16"/><circle class="dot" r="4"/></g><g class="marker m-zone" data-part="え" transform="translate(8.8,88.4)"><circle class="hit" r="16"/><circle class="dot" r="4"/></g><g class="marker m-zone" data-part="お" transform="translate(574.4,106.0)"><circle class="hit" r="16"/><circle class="dot" r="4"/></g><g class="marker m-zone" data-part="か" transform="translate(145.8,159.1)"><circle class="hit" r="16"/><circle class="dot" r="4"/></g><g class="marker m-zone" data-part="き" transform="translate(70.7,154.7)"><circle class="hit" r="16"/><circle class="dot" r="4"/></g><g class="marker m-zone" data-part="く" transform="translate(623.0,97.2)"><circle class="hit" r="16"/><circle class="dot" r="4"/></g><g class="marker m-zone" data-part="け" transform="translate(547.9,142.3)"><circle class="hit" r="16"/><circle class="dot" r="4"/></g><g class="marker m-zone" data-part="こ" transform="translate(84.0,46.4)"><circle class="hit" r="16"/><circle class="dot" r="4"/></g><g class="marker m-island" data-part="さ" transform="translate(167.9,19.9)"><circle class="hit" r="16"/><circle class="dot" r="4"/></g><g class="marker m-island" data-part="し" transform="translate(552.3,119.3)"><circle class="hit" r="16"/><circle class="dot" r="4"/></g><g class="marker m-zone" data-part="す" transform="translate(397.7,108.3)"><circle class="hit" r="16"/><circle class="dot" r="4"/></g><g class="marker m-zone" data-part="せ" transform="translate(128.1,123.7)"><circle class="hit" r="16"/><circle class="dot" r="4"/></g><g class="marker m-zone" data-part="そ" transform="translate(229.8,70.7)"><circle class="hit" r="16"/><circle class="dot" r="4"/></g><g class="marker m-zone" data-part="た" transform="translate(304.9,53.0)"><circle class="hit" r="16"/><circle class="dot" r="4"/></g><g class="marker m-zone" data-part="ち" transform="translate(468.4,61.9)"><circle class="hit" r="16"/><circle class="dot" r="4"/></g><g class="marker m-zone" data-part="つ" transform="translate(503.7,119.3)"><circle class="hit" r="16"/><circle class="dot" r="4"/></g><g class="marker m-zone" data-part="て" transform="translate(247.4,97.2)"><circle class="hit" r="16"/><circle class="dot" r="4"/></g><g class="marker m-zone" data-part="と" transform="translate(66.3,132.6)"><circle class="hit" r="16"/><circle class="dot" r="4"/></g><g class="marker m-zone" data-part="な" transform="translate(185.6,145.8)"><circle class="hit" r="16"/><circle class="dot" r="4"/></g><g class="marker m-zone" data-part="に" transform="translate(247.4,140.1)"><circle class="hit" r="16"/><circle class="dot" r="4"/></g><g class="marker m-zone" data-part="ぬ" transform="translate(181.2,170.1)"><circle class="hit" r="16"/><circle class="dot" r="4"/></g><g class="marker m-zone" data-part="ね" transform="translate(251.9,79.5)"><circle class="hit" r="16"/><circle class="dot" r="4"/></g><g class="marker m-zone" data-part="の" transform="translate(362.3,57.4)"><circle class="hit" r="16"/><circle class="dot" r="4"/></g><g class="marker m-zone" data-part="は" transform="translate(494.9,97.2)"><circle class="hit" r="16"/><circle class="dot" r="4"/></g><g class="marker m-zone" data-part="ひ" transform="translate(97.2,92.8)"><circle class="hit" r="16"/><circle class="dot" r="4"/></g><g class="marker m-zone" data-part="へ" transform="translate(220.9,128.1)"><circle class="hit" r="16"/><circle class="dot" r="4"/></g><g class="marker m-city" data-part="a" transform="translate(68.1,133.0)"><circle class="hit" r="16"/><circle class="dot" r="4"/></g><g class="marker m-city" data-part="b" transform="translate(229.8,75.1)"><circle class="hit" r="16"/><circle class="dot" r="4"/></g><g class="marker m-city" data-part="c" transform="translate(304.9,106.0)"><circle class="hit" r="16"/><circle class="dot" r="4"/></g><g class="marker m-city" data-part="d" transform="translate(243.5,124.6)"><circle class="hit" r="16"/><circle class="dot" r="4"/></g><g class="marker m-city" data-part="1" transform="translate(66.6,39.9)"><circle class="hit" r="16"/><circle class="dot" r="4"/></g><g class="marker m-city" data-part="2" transform="translate(54.5,79.8)"><circle class="hit" r="16"/><circle class="dot" r="4"/></g><g class="marker m-city" data-part="3" transform="translate(86.7,98.3)"><circle class="hit" r="16"/><circle class="dot" r="4"/></g><g class="marker m-city" data-part="4" transform="translate(114.9,95.8)"><circle class="hit" r="16"/><circle class="dot" r="4"/></g><g class="marker m-city" data-part="5" transform="translate(117.2,129.4)"><circle class="hit" r="16"/><circle class="dot" r="4"/></g><g class="marker m-city" data-part="6" transform="translate(503.2,154.1)"><circle class="hit" r="16"/><circle class="dot" r="4"/></g><g class="marker m-city" data-part="7" transform="translate(493.7,70.6)"><circle class="hit" r="16"/><circle class="dot" r="4"/></g><g class="marker m-city" data-part="8" transform="translate(310.2,38.2)"><circle class="hit" r="16"/><circle class="dot" r="4"/></g><g class="marker m-city" data-part="9" transform="translate(586.8,81.5)"><circle class="hit" r="16"/><circle class="dot" r="4"/></g><g class="marker m-city" data-part="10" transform="translate(55.3,121.7)"><circle class="hit" r="16"/><circle class="dot" r="4"/></g><g class="marker m-city" data-part="11" transform="translate(42.3,106.5)"><circle class="hit" r="16"/><circle class="dot" r="4"/></g><g class="marker m-city" data-part="12" transform="translate(80.6,123.8)"><circle class="hit" r="16"/><circle class="dot" r="4"/></g><g class="marker m-city" data-part="13" transform="translate(87.5,132.5)"><circle class="hit" r="16"/><circle class="dot" r="4"/></g><g class="marker m-city" data-part="14" transform="translate(56.2,139.3)"><circle class="hit" r="16"/><circle class="dot" r="4"/></g><g class="marker m-city" data-part="15" transform="translate(140.8,166.1)"><circle class="hit" r="16"/><circle class="dot" r="4"/></g><g class="marker m-city" data-part="16" transform="translate(118.6,160.3)"><circle class="hit" r="16"/><circle class="dot" r="4"/></g><g class="marker m-city" data-part="17" transform="translate(226.4,162.1)"><circle class="hit" r="16"/><circle class="dot" r="4"/></g><g class="marker m-city" data-part="18" transform="translate(260.2,153.6)"><circle class="hit" r="16"/><circle class="dot" r="4"/></g><g class="marker m-city" data-part="19" transform="translate(188.3,93.5)"><circle class="hit" r="16"/><circle class="dot" r="4"/></g><g class="marker m-city" data-part="20" transform="translate(286.9,101.5)"><circle class="hit" r="16"/><circle class="dot" r="4"/></g><g class="marker m-city" data-part="21" transform="translate(381.3,113.6)"><circle class="hit" r="16"/><circle class="dot" r="4"/></g><g class="marker m-city" data-part="22" transform="translate(244.7,101.7)"><circle class="hit" r="16"/><circle class="dot" r="4"/></g><g class="marker m-city" data-part="23" transform="translate(392.9,132.9)"><circle class="hit" r="16"/><circle class="dot" r="4"/></g></g></svg>